<?xml version="1.0" encoding="utf-8" standalone="no"?>
<!DOCTYPE svg PUBLIC "-//W3C//DTD SVG 1.1//EN"
  "http://www.w3.org/Graphics/SVG/1.1/DTD/svg11.dtd">
<svg xmlns:xlink="http://www.w3.org/1999/xlink" width="955.949375pt" height="378.791875pt" viewBox="0 0 955.949375 378.791875" xmlns="http://www.w3.org/2000/svg" version="1.1">
 <metadata>
  <rdf:RDF xmlns:dc="http://purl.org/dc/elements/1.1/" xmlns:cc="http://creativecommons.org/ns#" xmlns:rdf="http://www.w3.org/1999/02/22-rdf-syntax-ns#">
   <cc:Work>
    <dc:type rdf:resource="http://purl.org/dc/dcmitype/StillImage"/>
    <dc:date>2026-03-04T15:29:52.818418</dc:date>
    <dc:format>image/svg+xml</dc:format>
    <dc:creator>
     <cc:Agent>
      <dc:title>Matplotlib v3.10.1, https://matplotlib.org/</dc:title>
     </cc:Agent>
    </dc:creator>
   </cc:Work>
  </rdf:RDF>
 </metadata>
 <defs>
  <style type="text/css">*{stroke-linejoin: round; stroke-linecap: butt}</style>
 </defs>
 <g id="figure_1">
  <g id="patch_1">
   <path d="M 0 378.791875 
L 955.949375 378.791875 
L 955.949375 0 
L 0 0 
z
" style="fill: #ffffff"/>
  </g>
  <g id="axes_1">
   <g id="patch_2">
    <path d="M 55.949375 331.5575 
L 420.357538 331.5575 
L 420.357538 54.3575 
L 55.949375 54.3575 
z
" style="fill: #ffffff"/>
   </g>
   <g id="matplotlib.axis_1">
    <g id="xtick_1">
     <g id="line2d_1">
      <defs>
       <path id="ma6f527d672" d="M 0 0 
L 0 3.5 
" style="stroke: #000000; stroke-width: 0.8"/>
      </defs>
      <g>
       <use xlink:href="#ma6f527d672" x="67.254967" y="331.5575" style="stroke: #000000; stroke-width: 0.8"/>
      </g>
     </g>
     <g id="text_1">
      <!-- 0 -->
      <g transform="translate(62.801217 349.195312) scale(0.14 -0.14)">
       <defs>
        <path id="DejaVuSans-30" d="M 2034 4250 
Q 1547 4250 1301 3770 
Q 1056 3291 1056 2328 
Q 1056 1369 1301 889 
Q 1547 409 2034 409 
Q 2525 409 2770 889 
Q 3016 1369 3016 2328 
Q 3016 3291 2770 3770 
Q 2525 4250 2034 4250 
z
M 2034 4750 
Q 2819 4750 3233 4129 
Q 3647 3509 3647 2328 
Q 3647 1150 3233 529 
Q 2819 -91 2034 -91 
Q 1250 -91 836 529 
Q 422 1150 422 2328 
Q 422 3509 836 4129 
Q 1250 4750 2034 4750 
z
" transform="scale(0.015625)"/>
       </defs>
       <use xlink:href="#DejaVuSans-30"/>
      </g>
     </g>
    </g>
    <g id="xtick_2">
     <g id="line2d_2">
      <g>
       <use xlink:href="#ma6f527d672" x="119.839118" y="331.5575" style="stroke: #000000; stroke-width: 0.8"/>
      </g>
     </g>
     <g id="text_2">
      <!-- 10 -->
      <g transform="translate(110.931618 349.195312) scale(0.14 -0.14)">
       <defs>
        <path id="DejaVuSans-31" d="M 794 531 
L 1825 531 
L 1825 4091 
L 703 3866 
L 703 4441 
L 1819 4666 
L 2450 4666 
L 2450 531 
L 3481 531 
L 3481 0 
L 794 0 
L 794 531 
z
" transform="scale(0.015625)"/>
       </defs>
       <use xlink:href="#DejaVuSans-31"/>
       <use xlink:href="#DejaVuSans-30" transform="translate(63.623047 0)"/>
      </g>
     </g>
    </g>
    <g id="xtick_3">
     <g id="line2d_3">
      <g>
       <use xlink:href="#ma6f527d672" x="172.423268" y="331.5575" style="stroke: #000000; stroke-width: 0.8"/>
      </g>
     </g>
     <g id="text_3">
      <!-- 20 -->
      <g transform="translate(163.515768 349.195312) scale(0.14 -0.14)">
       <defs>
        <path id="DejaVuSans-32" d="M 1228 531 
L 3431 531 
L 3431 0 
L 469 0 
L 469 531 
Q 828 903 1448 1529 
Q 2069 2156 2228 2338 
Q 2531 2678 2651 2914 
Q 2772 3150 2772 3378 
Q 2772 3750 2511 3984 
Q 2250 4219 1831 4219 
Q 1534 4219 1204 4116 
Q 875 4013 500 3803 
L 500 4441 
Q 881 4594 1212 4672 
Q 1544 4750 1819 4750 
Q 2544 4750 2975 4387 
Q 3406 4025 3406 3419 
Q 3406 3131 3298 2873 
Q 3191 2616 2906 2266 
Q 2828 2175 2409 1742 
Q 1991 1309 1228 531 
z
" transform="scale(0.015625)"/>
       </defs>
       <use xlink:href="#DejaVuSans-32"/>
       <use xlink:href="#DejaVuSans-30" transform="translate(63.623047 0)"/>
      </g>
     </g>
    </g>
    <g id="xtick_4">
     <g id="line2d_4">
      <g>
       <use xlink:href="#ma6f527d672" x="225.007419" y="331.5575" style="stroke: #000000; stroke-width: 0.8"/>
      </g>
     </g>
     <g id="text_4">
      <!-- 30 -->
      <g transform="translate(216.099919 349.195312) scale(0.14 -0.14)">
       <defs>
        <path id="DejaVuSans-33" d="M 2597 2516 
Q 3050 2419 3304 2112 
Q 3559 1806 3559 1356 
Q 3559 666 3084 287 
Q 2609 -91 1734 -91 
Q 1441 -91 1130 -33 
Q 819 25 488 141 
L 488 750 
Q 750 597 1062 519 
Q 1375 441 1716 441 
Q 2309 441 2620 675 
Q 2931 909 2931 1356 
Q 2931 1769 2642 2001 
Q 2353 2234 1838 2234 
L 1294 2234 
L 1294 2753 
L 1863 2753 
Q 2328 2753 2575 2939 
Q 2822 3125 2822 3475 
Q 2822 3834 2567 4026 
Q 2313 4219 1838 4219 
Q 1578 4219 1281 4162 
Q 984 4106 628 3988 
L 628 4550 
Q 988 4650 1302 4700 
Q 1616 4750 1894 4750 
Q 2613 4750 3031 4423 
Q 3450 4097 3450 3541 
Q 3450 3153 3228 2886 
Q 3006 2619 2597 2516 
z
" transform="scale(0.015625)"/>
       </defs>
       <use xlink:href="#DejaVuSans-33"/>
       <use xlink:href="#DejaVuSans-30" transform="translate(63.623047 0)"/>
      </g>
     </g>
    </g>
    <g id="xtick_5">
     <g id="line2d_5">
      <g>
       <use xlink:href="#ma6f527d672" x="277.59157" y="331.5575" style="stroke: #000000; stroke-width: 0.8"/>
      </g>
     </g>
     <g id="text_5">
      <!-- 40 -->
      <g transform="translate(268.68407 349.195312) scale(0.14 -0.14)">
       <defs>
        <path id="DejaVuSans-34" d="M 2419 4116 
L 825 1625 
L 2419 1625 
L 2419 4116 
z
M 2253 4666 
L 3047 4666 
L 3047 1625 
L 3713 1625 
L 3713 1100 
L 3047 1100 
L 3047 0 
L 2419 0 
L 2419 1100 
L 313 1100 
L 313 1709 
L 2253 4666 
z
" transform="scale(0.015625)"/>
       </defs>
       <use xlink:href="#DejaVuSans-34"/>
       <use xlink:href="#DejaVuSans-30" transform="translate(63.623047 0)"/>
      </g>
     </g>
    </g>
    <g id="xtick_6">
     <g id="line2d_6">
      <g>
       <use xlink:href="#ma6f527d672" x="330.17572" y="331.5575" style="stroke: #000000; stroke-width: 0.8"/>
      </g>
     </g>
     <g id="text_6">
      <!-- 50 -->
      <g transform="translate(321.26822 349.195312) scale(0.14 -0.14)">
       <defs>
        <path id="DejaVuSans-35" d="M 691 4666 
L 3169 4666 
L 3169 4134 
L 1269 4134 
L 1269 2991 
Q 1406 3038 1543 3061 
Q 1681 3084 1819 3084 
Q 2600 3084 3056 2656 
Q 3513 2228 3513 1497 
Q 3513 744 3044 326 
Q 2575 -91 1722 -91 
Q 1428 -91 1123 -41 
Q 819 9 494 109 
L 494 744 
Q 775 591 1075 516 
Q 1375 441 1709 441 
Q 2250 441 2565 725 
Q 2881 1009 2881 1497 
Q 2881 1984 2565 2268 
Q 2250 2553 1709 2553 
Q 1456 2553 1204 2497 
Q 953 2441 691 2322 
L 691 4666 
z
" transform="scale(0.015625)"/>
       </defs>
       <use xlink:href="#DejaVuSans-35"/>
       <use xlink:href="#DejaVuSans-30" transform="translate(63.623047 0)"/>
      </g>
     </g>
    </g>
    <g id="xtick_7">
     <g id="line2d_7">
      <g>
       <use xlink:href="#ma6f527d672" x="382.759871" y="331.5575" style="stroke: #000000; stroke-width: 0.8"/>
      </g>
     </g>
     <g id="text_7">
      <!-- 60 -->
      <g transform="translate(373.852371 349.195312) scale(0.14 -0.14)">
       <defs>
        <path id="DejaVuSans-36" d="M 2113 2584 
Q 1688 2584 1439 2293 
Q 1191 2003 1191 1497 
Q 1191 994 1439 701 
Q 1688 409 2113 409 
Q 2538 409 2786 701 
Q 3034 994 3034 1497 
Q 3034 2003 2786 2293 
Q 2538 2584 2113 2584 
z
M 3366 4563 
L 3366 3988 
Q 3128 4100 2886 4159 
Q 2644 4219 2406 4219 
Q 1781 4219 1451 3797 
Q 1122 3375 1075 2522 
Q 1259 2794 1537 2939 
Q 1816 3084 2150 3084 
Q 2853 3084 3261 2657 
Q 3669 2231 3669 1497 
Q 3669 778 3244 343 
Q 2819 -91 2113 -91 
Q 1303 -91 875 529 
Q 447 1150 447 2328 
Q 447 3434 972 4092 
Q 1497 4750 2381 4750 
Q 2619 4750 2861 4703 
Q 3103 4656 3366 4563 
z
" transform="scale(0.015625)"/>
       </defs>
       <use xlink:href="#DejaVuSans-36"/>
       <use xlink:href="#DejaVuSans-30" transform="translate(63.623047 0)"/>
      </g>
     </g>
    </g>
    <g id="text_8">
     <!-- Study Position -->
     <g transform="translate(181.369707 368.264375) scale(0.16 -0.16)">
      <defs>
       <path id="DejaVuSans-53" d="M 3425 4513 
L 3425 3897 
Q 3066 4069 2747 4153 
Q 2428 4238 2131 4238 
Q 1616 4238 1336 4038 
Q 1056 3838 1056 3469 
Q 1056 3159 1242 3001 
Q 1428 2844 1947 2747 
L 2328 2669 
Q 3034 2534 3370 2195 
Q 3706 1856 3706 1288 
Q 3706 609 3251 259 
Q 2797 -91 1919 -91 
Q 1588 -91 1214 -16 
Q 841 59 441 206 
L 441 856 
Q 825 641 1194 531 
Q 1563 422 1919 422 
Q 2459 422 2753 634 
Q 3047 847 3047 1241 
Q 3047 1584 2836 1778 
Q 2625 1972 2144 2069 
L 1759 2144 
Q 1053 2284 737 2584 
Q 422 2884 422 3419 
Q 422 4038 858 4394 
Q 1294 4750 2059 4750 
Q 2388 4750 2728 4690 
Q 3069 4631 3425 4513 
z
" transform="scale(0.015625)"/>
       <path id="DejaVuSans-74" d="M 1172 4494 
L 1172 3500 
L 2356 3500 
L 2356 3053 
L 1172 3053 
L 1172 1153 
Q 1172 725 1289 603 
Q 1406 481 1766 481 
L 2356 481 
L 2356 0 
L 1766 0 
Q 1100 0 847 248 
Q 594 497 594 1153 
L 594 3053 
L 172 3053 
L 172 3500 
L 594 3500 
L 594 4494 
L 1172 4494 
z
" transform="scale(0.015625)"/>
       <path id="DejaVuSans-75" d="M 544 1381 
L 544 3500 
L 1119 3500 
L 1119 1403 
Q 1119 906 1312 657 
Q 1506 409 1894 409 
Q 2359 409 2629 706 
Q 2900 1003 2900 1516 
L 2900 3500 
L 3475 3500 
L 3475 0 
L 2900 0 
L 2900 538 
Q 2691 219 2414 64 
Q 2138 -91 1772 -91 
Q 1169 -91 856 284 
Q 544 659 544 1381 
z
M 1991 3584 
L 1991 3584 
z
" transform="scale(0.015625)"/>
       <path id="DejaVuSans-64" d="M 2906 2969 
L 2906 4863 
L 3481 4863 
L 3481 0 
L 2906 0 
L 2906 525 
Q 2725 213 2448 61 
Q 2172 -91 1784 -91 
Q 1150 -91 751 415 
Q 353 922 353 1747 
Q 353 2572 751 3078 
Q 1150 3584 1784 3584 
Q 2172 3584 2448 3432 
Q 2725 3281 2906 2969 
z
M 947 1747 
Q 947 1113 1208 752 
Q 1469 391 1925 391 
Q 2381 391 2643 752 
Q 2906 1113 2906 1747 
Q 2906 2381 2643 2742 
Q 2381 3103 1925 3103 
Q 1469 3103 1208 2742 
Q 947 2381 947 1747 
z
" transform="scale(0.015625)"/>
       <path id="DejaVuSans-79" d="M 2059 -325 
Q 1816 -950 1584 -1140 
Q 1353 -1331 966 -1331 
L 506 -1331 
L 506 -850 
L 844 -850 
Q 1081 -850 1212 -737 
Q 1344 -625 1503 -206 
L 1606 56 
L 191 3500 
L 800 3500 
L 1894 763 
L 2988 3500 
L 3597 3500 
L 2059 -325 
z
" transform="scale(0.015625)"/>
       <path id="DejaVuSans-20" transform="scale(0.015625)"/>
       <path id="DejaVuSans-50" d="M 1259 4147 
L 1259 2394 
L 2053 2394 
Q 2494 2394 2734 2622 
Q 2975 2850 2975 3272 
Q 2975 3691 2734 3919 
Q 2494 4147 2053 4147 
L 1259 4147 
z
M 628 4666 
L 2053 4666 
Q 2838 4666 3239 4311 
Q 3641 3956 3641 3272 
Q 3641 2581 3239 2228 
Q 2838 1875 2053 1875 
L 1259 1875 
L 1259 0 
L 628 0 
L 628 4666 
z
" transform="scale(0.015625)"/>
       <path id="DejaVuSans-6f" d="M 1959 3097 
Q 1497 3097 1228 2736 
Q 959 2375 959 1747 
Q 959 1119 1226 758 
Q 1494 397 1959 397 
Q 2419 397 2687 759 
Q 2956 1122 2956 1747 
Q 2956 2369 2687 2733 
Q 2419 3097 1959 3097 
z
M 1959 3584 
Q 2709 3584 3137 3096 
Q 3566 2609 3566 1747 
Q 3566 888 3137 398 
Q 2709 -91 1959 -91 
Q 1206 -91 779 398 
Q 353 888 353 1747 
Q 353 2609 779 3096 
Q 1206 3584 1959 3584 
z
" transform="scale(0.015625)"/>
       <path id="DejaVuSans-73" d="M 2834 3397 
L 2834 2853 
Q 2591 2978 2328 3040 
Q 2066 3103 1784 3103 
Q 1356 3103 1142 2972 
Q 928 2841 928 2578 
Q 928 2378 1081 2264 
Q 1234 2150 1697 2047 
L 1894 2003 
Q 2506 1872 2764 1633 
Q 3022 1394 3022 966 
Q 3022 478 2636 193 
Q 2250 -91 1575 -91 
Q 1294 -91 989 -36 
Q 684 19 347 128 
L 347 722 
Q 666 556 975 473 
Q 1284 391 1588 391 
Q 1994 391 2212 530 
Q 2431 669 2431 922 
Q 2431 1156 2273 1281 
Q 2116 1406 1581 1522 
L 1381 1569 
Q 847 1681 609 1914 
Q 372 2147 372 2553 
Q 372 3047 722 3315 
Q 1072 3584 1716 3584 
Q 2034 3584 2315 3537 
Q 2597 3491 2834 3397 
z
" transform="scale(0.015625)"/>
       <path id="DejaVuSans-69" d="M 603 3500 
L 1178 3500 
L 1178 0 
L 603 0 
L 603 3500 
z
M 603 4863 
L 1178 4863 
L 1178 4134 
L 603 4134 
L 603 4863 
z
" transform="scale(0.015625)"/>
       <path id="DejaVuSans-6e" d="M 3513 2113 
L 3513 0 
L 2938 0 
L 2938 2094 
Q 2938 2591 2744 2837 
Q 2550 3084 2163 3084 
Q 1697 3084 1428 2787 
Q 1159 2491 1159 1978 
L 1159 0 
L 581 0 
L 581 3500 
L 1159 3500 
L 1159 2956 
Q 1366 3272 1645 3428 
Q 1925 3584 2291 3584 
Q 2894 3584 3203 3211 
Q 3513 2838 3513 2113 
z
" transform="scale(0.015625)"/>
      </defs>
      <use xlink:href="#DejaVuSans-53"/>
      <use xlink:href="#DejaVuSans-74" transform="translate(63.476562 0)"/>
      <use xlink:href="#DejaVuSans-75" transform="translate(102.685547 0)"/>
      <use xlink:href="#DejaVuSans-64" transform="translate(166.064453 0)"/>
      <use xlink:href="#DejaVuSans-79" transform="translate(229.541016 0)"/>
      <use xlink:href="#DejaVuSans-20" transform="translate(288.720703 0)"/>
      <use xlink:href="#DejaVuSans-50" transform="translate(320.507812 0)"/>
      <use xlink:href="#DejaVuSans-6f" transform="translate(377.185547 0)"/>
      <use xlink:href="#DejaVuSans-73" transform="translate(438.367188 0)"/>
      <use xlink:href="#DejaVuSans-69" transform="translate(490.466797 0)"/>
      <use xlink:href="#DejaVuSans-74" transform="translate(518.25 0)"/>
      <use xlink:href="#DejaVuSans-69" transform="translate(557.458984 0)"/>
      <use xlink:href="#DejaVuSans-6f" transform="translate(585.242188 0)"/>
      <use xlink:href="#DejaVuSans-6e" transform="translate(646.423828 0)"/>
     </g>
    </g>
   </g>
   <g id="matplotlib.axis_2">
    <g id="ytick_1">
     <g id="line2d_8">
      <path d="M 55.949375 318.999101 
L 420.357538 318.999101 
" clip-path="url(#p0db26f2ecd)" style="fill: none; stroke-dasharray: 1.85,0.8; stroke-dashoffset: 0; stroke: #b0b0b0; stroke-opacity: 0.3; stroke-width: 0.5"/>
     </g>
     <g id="line2d_9">
      <defs>
       <path id="m1c0f49dc91" d="M 0 0 
L -3.5 0 
" style="stroke: #000000; stroke-width: 0.8"/>
      </defs>
      <g>
       <use xlink:href="#m1c0f49dc91" x="55.949375" y="318.999101" style="stroke: #000000; stroke-width: 0.8"/>
      </g>
     </g>
     <g id="text_9">
      <!-- 0.0 -->
      <g transform="translate(26.685 324.318008) scale(0.14 -0.14)">
       <defs>
        <path id="DejaVuSans-2e" d="M 684 794 
L 1344 794 
L 1344 0 
L 684 0 
L 684 794 
z
" transform="scale(0.015625)"/>
       </defs>
       <use xlink:href="#DejaVuSans-30"/>
       <use xlink:href="#DejaVuSans-2e" transform="translate(63.623047 0)"/>
       <use xlink:href="#DejaVuSans-30" transform="translate(95.410156 0)"/>
      </g>
     </g>
    </g>
    <g id="ytick_2">
     <g id="line2d_10">
      <path d="M 55.949375 266.581436 
L 420.357538 266.581436 
" clip-path="url(#p0db26f2ecd)" style="fill: none; stroke-dasharray: 1.85,0.8; stroke-dashoffset: 0; stroke: #b0b0b0; stroke-opacity: 0.3; stroke-width: 0.5"/>
     </g>
     <g id="line2d_11">
      <g>
       <use xlink:href="#m1c0f49dc91" x="55.949375" y="266.581436" style="stroke: #000000; stroke-width: 0.8"/>
      </g>
     </g>
     <g id="text_10">
      <!-- 0.2 -->
      <g transform="translate(26.685 271.900342) scale(0.14 -0.14)">
       <use xlink:href="#DejaVuSans-30"/>
       <use xlink:href="#DejaVuSans-2e" transform="translate(63.623047 0)"/>
       <use xlink:href="#DejaVuSans-32" transform="translate(95.410156 0)"/>
      </g>
     </g>
    </g>
    <g id="ytick_3">
     <g id="line2d_12">
      <path d="M 55.949375 214.163771 
L 420.357538 214.163771 
" clip-path="url(#p0db26f2ecd)" style="fill: none; stroke-dasharray: 1.85,0.8; stroke-dashoffset: 0; stroke: #b0b0b0; stroke-opacity: 0.3; stroke-width: 0.5"/>
     </g>
     <g id="line2d_13">
      <g>
       <use xlink:href="#m1c0f49dc91" x="55.949375" y="214.163771" style="stroke: #000000; stroke-width: 0.8"/>
      </g>
     </g>
     <g id="text_11">
      <!-- 0.4 -->
      <g transform="translate(26.685 219.482677) scale(0.14 -0.14)">
       <use xlink:href="#DejaVuSans-30"/>
       <use xlink:href="#DejaVuSans-2e" transform="translate(63.623047 0)"/>
       <use xlink:href="#DejaVuSans-34" transform="translate(95.410156 0)"/>
      </g>
     </g>
    </g>
    <g id="ytick_4">
     <g id="line2d_14">
      <path d="M 55.949375 161.746105 
L 420.357538 161.746105 
" clip-path="url(#p0db26f2ecd)" style="fill: none; stroke-dasharray: 1.85,0.8; stroke-dashoffset: 0; stroke: #b0b0b0; stroke-opacity: 0.3; stroke-width: 0.5"/>
     </g>
     <g id="line2d_15">
      <g>
       <use xlink:href="#m1c0f49dc91" x="55.949375" y="161.746105" style="stroke: #000000; stroke-width: 0.8"/>
      </g>
     </g>
     <g id="text_12">
      <!-- 0.6 -->
      <g transform="translate(26.685 167.065012) scale(0.14 -0.14)">
       <use xlink:href="#DejaVuSans-30"/>
       <use xlink:href="#DejaVuSans-2e" transform="translate(63.623047 0)"/>
       <use xlink:href="#DejaVuSans-36" transform="translate(95.410156 0)"/>
      </g>
     </g>
    </g>
    <g id="ytick_5">
     <g id="line2d_16">
      <path d="M 55.949375 109.32844 
L 420.357538 109.32844 
" clip-path="url(#p0db26f2ecd)" style="fill: none; stroke-dasharray: 1.85,0.8; stroke-dashoffset: 0; stroke: #b0b0b0; stroke-opacity: 0.3; stroke-width: 0.5"/>
     </g>
     <g id="line2d_17">
      <g>
       <use xlink:href="#m1c0f49dc91" x="55.949375" y="109.32844" style="stroke: #000000; stroke-width: 0.8"/>
      </g>
     </g>
     <g id="text_13">
      <!-- 0.8 -->
      <g transform="translate(26.685 114.647346) scale(0.14 -0.14)">
       <defs>
        <path id="DejaVuSans-38" d="M 2034 2216 
Q 1584 2216 1326 1975 
Q 1069 1734 1069 1313 
Q 1069 891 1326 650 
Q 1584 409 2034 409 
Q 2484 409 2743 651 
Q 3003 894 3003 1313 
Q 3003 1734 2745 1975 
Q 2488 2216 2034 2216 
z
M 1403 2484 
Q 997 2584 770 2862 
Q 544 3141 544 3541 
Q 544 4100 942 4425 
Q 1341 4750 2034 4750 
Q 2731 4750 3128 4425 
Q 3525 4100 3525 3541 
Q 3525 3141 3298 2862 
Q 3072 2584 2669 2484 
Q 3125 2378 3379 2068 
Q 3634 1759 3634 1313 
Q 3634 634 3220 271 
Q 2806 -91 2034 -91 
Q 1263 -91 848 271 
Q 434 634 434 1313 
Q 434 1759 690 2068 
Q 947 2378 1403 2484 
z
M 1172 3481 
Q 1172 3119 1398 2916 
Q 1625 2713 2034 2713 
Q 2441 2713 2670 2916 
Q 2900 3119 2900 3481 
Q 2900 3844 2670 4047 
Q 2441 4250 2034 4250 
Q 1625 4250 1398 4047 
Q 1172 3844 1172 3481 
z
" transform="scale(0.015625)"/>
       </defs>
       <use xlink:href="#DejaVuSans-30"/>
       <use xlink:href="#DejaVuSans-2e" transform="translate(63.623047 0)"/>
       <use xlink:href="#DejaVuSans-38" transform="translate(95.410156 0)"/>
      </g>
     </g>
    </g>
    <g id="ytick_6">
     <g id="line2d_18">
      <path d="M 55.949375 56.910775 
L 420.357538 56.910775 
" clip-path="url(#p0db26f2ecd)" style="fill: none; stroke-dasharray: 1.85,0.8; stroke-dashoffset: 0; stroke: #b0b0b0; stroke-opacity: 0.3; stroke-width: 0.5"/>
     </g>
     <g id="line2d_19">
      <g>
       <use xlink:href="#m1c0f49dc91" x="55.949375" y="56.910775" style="stroke: #000000; stroke-width: 0.8"/>
      </g>
     </g>
     <g id="text_14">
      <!-- 1.0 -->
      <g transform="translate(26.685 62.229681) scale(0.14 -0.14)">
       <use xlink:href="#DejaVuSans-31"/>
       <use xlink:href="#DejaVuSans-2e" transform="translate(63.623047 0)"/>
       <use xlink:href="#DejaVuSans-30" transform="translate(95.410156 0)"/>
      </g>
     </g>
    </g>
    <g id="text_15">
     <!-- Recall Probability -->
     <g transform="translate(19.3575 261.65375) rotate(-90) scale(0.16 -0.16)">
      <defs>
       <path id="DejaVuSans-52" d="M 2841 2188 
Q 3044 2119 3236 1894 
Q 3428 1669 3622 1275 
L 4263 0 
L 3584 0 
L 2988 1197 
Q 2756 1666 2539 1819 
Q 2322 1972 1947 1972 
L 1259 1972 
L 1259 0 
L 628 0 
L 628 4666 
L 2053 4666 
Q 2853 4666 3247 4331 
Q 3641 3997 3641 3322 
Q 3641 2881 3436 2590 
Q 3231 2300 2841 2188 
z
M 1259 4147 
L 1259 2491 
L 2053 2491 
Q 2509 2491 2742 2702 
Q 2975 2913 2975 3322 
Q 2975 3731 2742 3939 
Q 2509 4147 2053 4147 
L 1259 4147 
z
" transform="scale(0.015625)"/>
       <path id="DejaVuSans-65" d="M 3597 1894 
L 3597 1613 
L 953 1613 
Q 991 1019 1311 708 
Q 1631 397 2203 397 
Q 2534 397 2845 478 
Q 3156 559 3463 722 
L 3463 178 
Q 3153 47 2828 -22 
Q 2503 -91 2169 -91 
Q 1331 -91 842 396 
Q 353 884 353 1716 
Q 353 2575 817 3079 
Q 1281 3584 2069 3584 
Q 2775 3584 3186 3129 
Q 3597 2675 3597 1894 
z
M 3022 2063 
Q 3016 2534 2758 2815 
Q 2500 3097 2075 3097 
Q 1594 3097 1305 2825 
Q 1016 2553 972 2059 
L 3022 2063 
z
" transform="scale(0.015625)"/>
       <path id="DejaVuSans-63" d="M 3122 3366 
L 3122 2828 
Q 2878 2963 2633 3030 
Q 2388 3097 2138 3097 
Q 1578 3097 1268 2742 
Q 959 2388 959 1747 
Q 959 1106 1268 751 
Q 1578 397 2138 397 
Q 2388 397 2633 464 
Q 2878 531 3122 666 
L 3122 134 
Q 2881 22 2623 -34 
Q 2366 -91 2075 -91 
Q 1284 -91 818 406 
Q 353 903 353 1747 
Q 353 2603 823 3093 
Q 1294 3584 2113 3584 
Q 2378 3584 2631 3529 
Q 2884 3475 3122 3366 
z
" transform="scale(0.015625)"/>
       <path id="DejaVuSans-61" d="M 2194 1759 
Q 1497 1759 1228 1600 
Q 959 1441 959 1056 
Q 959 750 1161 570 
Q 1363 391 1709 391 
Q 2188 391 2477 730 
Q 2766 1069 2766 1631 
L 2766 1759 
L 2194 1759 
z
M 3341 1997 
L 3341 0 
L 2766 0 
L 2766 531 
Q 2569 213 2275 61 
Q 1981 -91 1556 -91 
Q 1019 -91 701 211 
Q 384 513 384 1019 
Q 384 1609 779 1909 
Q 1175 2209 1959 2209 
L 2766 2209 
L 2766 2266 
Q 2766 2663 2505 2880 
Q 2244 3097 1772 3097 
Q 1472 3097 1187 3025 
Q 903 2953 641 2809 
L 641 3341 
Q 956 3463 1253 3523 
Q 1550 3584 1831 3584 
Q 2591 3584 2966 3190 
Q 3341 2797 3341 1997 
z
" transform="scale(0.015625)"/>
       <path id="DejaVuSans-6c" d="M 603 4863 
L 1178 4863 
L 1178 0 
L 603 0 
L 603 4863 
z
" transform="scale(0.015625)"/>
       <path id="DejaVuSans-72" d="M 2631 2963 
Q 2534 3019 2420 3045 
Q 2306 3072 2169 3072 
Q 1681 3072 1420 2755 
Q 1159 2438 1159 1844 
L 1159 0 
L 581 0 
L 581 3500 
L 1159 3500 
L 1159 2956 
Q 1341 3275 1631 3429 
Q 1922 3584 2338 3584 
Q 2397 3584 2469 3576 
Q 2541 3569 2628 3553 
L 2631 2963 
z
" transform="scale(0.015625)"/>
       <path id="DejaVuSans-62" d="M 3116 1747 
Q 3116 2381 2855 2742 
Q 2594 3103 2138 3103 
Q 1681 3103 1420 2742 
Q 1159 2381 1159 1747 
Q 1159 1113 1420 752 
Q 1681 391 2138 391 
Q 2594 391 2855 752 
Q 3116 1113 3116 1747 
z
M 1159 2969 
Q 1341 3281 1617 3432 
Q 1894 3584 2278 3584 
Q 2916 3584 3314 3078 
Q 3713 2572 3713 1747 
Q 3713 922 3314 415 
Q 2916 -91 2278 -91 
Q 1894 -91 1617 61 
Q 1341 213 1159 525 
L 1159 0 
L 581 0 
L 581 4863 
L 1159 4863 
L 1159 2969 
z
" transform="scale(0.015625)"/>
      </defs>
      <use xlink:href="#DejaVuSans-52"/>
      <use xlink:href="#DejaVuSans-65" transform="translate(64.982422 0)"/>
      <use xlink:href="#DejaVuSans-63" transform="translate(126.505859 0)"/>
      <use xlink:href="#DejaVuSans-61" transform="translate(181.486328 0)"/>
      <use xlink:href="#DejaVuSans-6c" transform="translate(242.765625 0)"/>
      <use xlink:href="#DejaVuSans-6c" transform="translate(270.548828 0)"/>
      <use xlink:href="#DejaVuSans-20" transform="translate(298.332031 0)"/>
      <use xlink:href="#DejaVuSans-50" transform="translate(330.119141 0)"/>
      <use xlink:href="#DejaVuSans-72" transform="translate(388.671875 0)"/>
      <use xlink:href="#DejaVuSans-6f" transform="translate(427.535156 0)"/>
      <use xlink:href="#DejaVuSans-62" transform="translate(488.716797 0)"/>
      <use xlink:href="#DejaVuSans-61" transform="translate(552.193359 0)"/>
      <use xlink:href="#DejaVuSans-62" transform="translate(613.472656 0)"/>
      <use xlink:href="#DejaVuSans-69" transform="translate(676.949219 0)"/>
      <use xlink:href="#DejaVuSans-6c" transform="translate(704.732422 0)"/>
      <use xlink:href="#DejaVuSans-69" transform="translate(732.515625 0)"/>
      <use xlink:href="#DejaVuSans-74" transform="translate(760.298828 0)"/>
      <use xlink:href="#DejaVuSans-79" transform="translate(799.507812 0)"/>
     </g>
    </g>
   </g>
   <g id="line2d_20">
    <path d="M 72.513382 305.12506 
L 77.771797 305.582675 
L 83.030213 305.811483 
L 88.288628 306.165093 
L 93.547043 306.456303 
L 98.805458 306.68511 
L 104.063873 307.413133 
L 109.322288 307.95395 
L 114.580703 308.494767 
L 119.839118 309.077186 
L 125.097533 309.763608 
L 130.355948 310.491631 
L 135.614363 311.282056 
L 140.872778 313.570129 
L 146.131193 314.838969 
L 151.389608 313.653332 
L 156.648023 316.024607 
L 161.906438 316.44062 
L 167.164853 316.627826 
L 172.423268 316.877434 
L 177.681684 317.293447 
L 182.940099 317.70946 
L 188.198514 318.187876 
L 193.456929 318.520686 
L 198.715344 318.687091 
L 203.973759 318.832696 
L 209.232174 318.9575 
M 240.782664 315.150979 
L 246.041079 314.85977 
L 251.299494 315.046976 
L 256.557909 315.837401 
L 261.816324 316.586225 
L 267.074739 316.399019 
L 272.333154 316.815032 
L 277.59157 316.773431 
L 282.849985 316.399019 
L 288.1084 315.50459 
L 293.366815 313.778136 
L 298.62523 312.051681 
L 303.883645 309.014784 
L 309.14206 304.064227 
L 314.400475 293.559894 
L 319.65889 275.026505 
L 324.917305 269.555932 
L 330.17572 228.474628 
L 335.434135 200.560135 
L 340.69255 176.43137 
L 345.950965 155.048288 
L 351.20938 135.516468 
L 356.467795 120.227981 
L 361.72621 107.872387 
L 366.984625 97.264062 
L 372.243041 89.775825 
L 377.501456 83.743622 
L 382.759871 79.021875 
L 388.018286 75.340157 
L 393.276701 72.490465 
L 398.535116 69.682374 
L 403.793531 66.9575 
" clip-path="url(#p0db26f2ecd)" style="fill: none; stroke: #bfbfbf; stroke-width: 1.5; stroke-linecap: square"/>
   </g>
   <g id="line2d_21">
    <path d="M 72.513382 303.502609 
L 77.771797 302.940991 
L 83.030213 302.920191 
L 88.288628 302.920191 
L 93.547043 303.190599 
L 98.805458 303.253001 
L 104.063873 303.502609 
L 109.322288 304.313835 
L 114.580703 305.10426 
L 119.839118 305.915486 
L 125.097533 306.539506 
L 130.355948 307.080323 
L 135.614363 307.704342 
L 140.872778 309.4932 
L 146.131193 310.533233 
L 151.389608 311.011648 
L 156.648023 314.755766 
L 161.906438 315.275783 
L 167.164853 315.462989 
L 172.423268 315.608594 
L 177.681684 315.774999 
L 182.940099 315.858202 
L 188.198514 315.962205 
L 193.456929 316.087009 
L 198.715344 316.087009 
L 203.973759 316.523823 
L 209.232174 316.461421 
L 214.490589 316.503022 
L 219.749004 316.066208 
L 225.007419 316.253414 
L 230.265834 316.357417 
L 235.524249 316.357417 
L 240.782664 312.114082 
L 246.041079 310.907644 
L 251.299494 311.760471 
L 256.557909 311.947677 
L 261.816324 312.384491 
L 267.074739 312.717302 
L 272.333154 313.154115 
L 277.59157 312.946109 
L 282.849985 312.34289 
L 288.1084 312.530096 
L 293.366815 310.554033 
L 298.62523 308.765177 
L 303.883645 304.896253 
L 309.14206 300.548915 
L 314.400475 291.375825 
L 319.65889 276.607356 
L 324.917305 275.692125 
L 330.17572 236.857292 
L 335.434135 210.482051 
L 340.69255 187.913338 
L 345.950965 167.299888 
L 351.20938 149.556923 
L 356.467795 134.726042 
L 361.72621 121.372019 
L 366.984625 110.867688 
L 372.243041 102.485016 
L 377.501456 94.913577 
L 382.759871 88.153373 
L 388.018286 80.810729 
L 393.276701 74.46653 
L 398.535116 70.098395 
L 403.793531 66.999101 
" clip-path="url(#p0db26f2ecd)" style="fill: none; stroke: #acacac; stroke-width: 1.5; stroke-linecap: square"/>
   </g>
   <g id="line2d_22">
    <path d="M 72.513382 301.048131 
L 77.771797 300.320108 
L 83.030213 299.342476 
L 88.288628 298.780859 
L 93.547043 298.739258 
L 98.805458 299.592085 
L 104.063873 299.321676 
L 109.322288 299.924895 
L 114.580703 299.924895 
L 119.839118 300.798522 
L 125.097533 301.235338 
L 130.355948 301.588948 
L 135.614363 303.065795 
L 140.872778 305.832283 
L 146.131193 306.581106 
L 151.389608 307.475536 
L 156.648023 312.488495 
L 161.906438 312.010079 
L 167.164853 312.093282 
L 172.423268 312.176485 
L 177.681684 312.051681 
L 182.940099 311.802073 
L 188.198514 311.822873 
L 193.456929 311.594066 
L 198.715344 311.469262 
L 203.973759 311.71887 
L 209.232174 311.822873 
L 214.490589 311.490063 
L 219.749004 311.365259 
L 225.007419 311.365259 
L 230.265834 311.198853 
L 235.524249 311.510863 
L 240.782664 307.101123 
L 246.041079 305.707479 
L 251.299494 305.312267 
L 256.557909 306.185894 
L 261.816324 306.019489 
L 267.074739 306.3731 
L 272.333154 306.830714 
L 277.59157 305.686678 
L 282.849985 305.582675 
L 288.1084 304.896253 
L 293.366815 303.128197 
L 298.62523 301.297738 
L 303.883645 298.489649 
L 309.14206 293.518291 
L 314.400475 285.697242 
L 319.65889 276.066538 
L 324.917305 278.479416 
L 330.17572 241.911851 
L 335.434135 220.133564 
L 340.69255 201.995385 
L 345.950965 184.502031 
L 351.20938 168.131915 
L 356.467795 154.653075 
L 361.72621 143.191915 
L 366.984625 133.165998 
L 372.243041 124.450522 
L 377.501456 115.277423 
L 382.759871 106.249935 
L 388.018286 95.350391 
L 393.276701 84.492447 
L 398.535116 74.341728 
L 403.793531 68.642345 
" clip-path="url(#p0db26f2ecd)" style="fill: none; stroke: #9a9a9a; stroke-width: 1.5; stroke-linecap: square"/>
   </g>
   <g id="line2d_23">
    <path d="M 72.513382 297.283212 
L 77.771797 296.243179 
L 83.030213 294.558324 
L 88.288628 294.766331 
L 93.547043 294.204714 
L 98.805458 294.849534 
L 104.063873 294.766331 
L 109.322288 295.03674 
L 114.580703 294.454321 
L 119.839118 295.161544 
L 125.097533 295.889567 
L 130.355948 296.742394 
L 135.614363 298.406446 
L 140.872778 299.924895 
L 146.131193 300.964928 
L 151.389608 303.044994 
L 156.648023 307.392332 
L 161.906438 308.057954 
L 167.164853 308.24516 
L 172.423268 308.26596 
L 177.681684 307.288329 
L 182.940099 306.747512 
L 188.198514 306.435503 
L 193.456929 306.726711 
L 198.715344 306.289898 
L 203.973759 305.520273 
L 209.232174 305.894685 
L 214.490589 306.165093 
L 219.749004 306.331499 
L 225.007419 306.144293 
L 230.265834 306.664309 
L 235.524249 307.517136 
L 240.782664 301.484945 
L 246.041079 298.968065 
L 251.299494 297.345613 
L 256.557909 297.491219 
L 261.816324 297.55362 
L 267.074739 297.387216 
L 272.333154 296.825597 
L 277.59157 296.201577 
L 282.849985 296.139176 
L 288.1084 294.932737 
L 293.366815 294.70393 
L 298.62523 293.788701 
L 303.883645 291.937442 
L 309.14206 289.025349 
L 314.400475 284.594808 
L 319.65889 278.791424 
L 324.917305 283.887587 
L 330.17572 253.435419 
L 335.434135 235.900464 
L 340.69255 220.029554 
L 345.950965 204.533065 
L 351.20938 190.80463 
L 356.467795 179.15626 
L 361.72621 167.944704 
L 366.984625 157.856379 
L 372.243041 148.204882 
L 377.501456 139.489405 
L 382.759871 128.818656 
L 388.018286 115.381432 
L 393.276701 98.928115 
L 398.535116 81.22675 
L 403.793531 70.327206 
" clip-path="url(#p0db26f2ecd)" style="fill: none; stroke: #888888; stroke-width: 1.5; stroke-linecap: square"/>
   </g>
   <g id="line2d_24">
    <path d="M 72.513382 293.809501 
L 77.771797 291.271821 
L 83.030213 290.626999 
L 88.288628 290.148585 
L 93.547043 289.586966 
L 98.805458 289.37896 
L 104.063873 289.69097 
L 109.322288 289.586966 
L 114.580703 290.294189 
L 119.839118 291.979042 
L 125.097533 292.395055 
L 130.355948 292.915072 
L 135.614363 294.163111 
L 140.872778 295.827164 
L 146.131193 297.116806 
L 151.389608 296.992003 
L 156.648023 302.462575 
L 161.906438 303.419406 
L 167.164853 303.440207 
L 172.423268 302.982592 
L 177.681684 302.254568 
L 182.940099 302.420974 
L 188.198514 302.275371 
L 193.456929 301.817755 
L 198.715344 302.150565 
L 203.973759 302.067364 
L 209.232174 301.110532 
L 214.490589 300.944128 
L 219.749004 301.443344 
L 225.007419 301.297738 
L 230.265834 302.025762 
L 235.524249 302.212968 
L 240.782664 293.851102 
L 246.041079 290.002979 
L 251.299494 288.44293 
L 256.557909 287.985316 
L 261.816324 288.297326 
L 267.074739 287.548503 
L 272.333154 287.902113 
L 277.59157 288.15172 
L 282.849985 288.567734 
L 288.1084 288.15172 
L 293.366815 286.487668 
L 298.62523 285.780447 
L 303.883645 284.3036 
L 309.14206 282.452341 
L 314.400475 279.540249 
L 319.65889 276.524151 
L 324.917305 285.468435 
L 330.17572 258.136366 
L 335.434135 244.969546 
L 340.69255 232.717961 
L 345.950965 221.194393 
L 351.20938 209.712426 
L 356.467795 200.497735 
L 361.72621 191.262243 
L 366.984625 182.733969 
L 372.243041 174.164102 
L 377.501456 163.971783 
L 382.759871 151.9282 
L 388.018286 135.87008 
L 393.276701 115.755837 
L 398.535116 90.711845 
L 403.793531 73.717705 
" clip-path="url(#p0db26f2ecd)" style="fill: none; stroke: #757575; stroke-width: 1.5; stroke-linecap: square"/>
   </g>
   <g id="line2d_25">
    <path d="M 72.513382 290.252589 
L 77.771797 287.839711 
L 83.030213 286.009254 
L 88.288628 285.55164 
L 93.547043 285.57244 
L 98.805458 285.426834 
L 104.063873 285.759647 
L 109.322288 285.801247 
L 114.580703 287.319694 
L 119.839118 288.006117 
L 125.097533 288.567734 
L 130.355948 289.358159 
L 135.614363 290.377392 
L 140.872778 291.147016 
L 146.131193 291.230219 
L 151.389608 290.418993 
L 156.648023 295.910367 
L 161.906438 297.803229 
L 167.164853 297.928032 
L 172.423268 297.990433 
L 177.681684 296.409583 
L 182.940099 296.63839 
L 188.198514 296.26398 
L 193.456929 295.806364 
L 198.715344 295.34875 
L 203.973759 295.473554 
L 209.232174 295.515154 
L 214.490589 295.34875 
L 219.749004 296.575989 
L 225.007419 295.598357 
L 230.265834 296.076773 
L 235.524249 296.63839 
L 240.782664 286.134055 
L 246.041079 281.495509 
L 251.299494 279.727455 
L 256.557909 278.021798 
L 261.816324 277.356178 
L 267.074739 277.876196 
L 272.333154 279.145036 
L 277.59157 278.209004 
L 282.849985 278.146604 
L 288.1084 277.564184 
L 293.366815 278.853824 
L 298.62523 279.145036 
L 303.883645 278.271409 
L 309.14206 277.252176 
L 314.400475 275.525719 
L 319.65889 274.756097 
L 324.917305 285.177227 
L 330.17572 269.20232 
L 335.434135 259.779618 
L 340.69255 251.147343 
L 345.950965 241.495838 
L 351.20938 232.551558 
L 356.467795 224.335296 
L 361.72621 216.431045 
L 366.984625 208.609996 
L 372.243041 199.166494 
L 377.501456 188.495753 
L 382.759871 175.412134 
L 388.018286 157.377965 
L 393.276701 133.977217 
L 398.535116 102.921829 
L 403.793531 80.041111 
" clip-path="url(#p0db26f2ecd)" style="fill: none; stroke: #636363; stroke-width: 1.5; stroke-linecap: square"/>
   </g>
   <g id="line2d_26">
    <path d="M 72.513382 284.220395 
L 77.771797 281.661915 
L 83.030213 280.393076 
L 88.288628 280.26827 
L 93.547043 279.498644 
L 98.805458 279.977062 
L 104.063873 280.330675 
L 109.322288 279.477844 
L 114.580703 279.748255 
L 119.839118 280.226669 
L 125.097533 281.620315 
L 130.355948 282.015528 
L 135.614363 283.076361 
L 140.872778 282.785149 
L 146.131193 282.681148 
L 151.389608 282.389937 
L 156.648023 289.025349 
L 161.906438 290.668602 
L 167.164853 290.564598 
L 172.423268 291.209419 
L 177.681684 290.959811 
L 182.940099 291.271821 
L 188.198514 291.313422 
L 193.456929 289.628569 
L 198.715344 289.898976 
L 203.973759 289.670169 
L 209.232174 290.398192 
L 214.490589 290.231788 
L 219.749004 290.190186 
L 225.007419 290.564598 
L 230.265834 290.814206 
L 235.524249 292.311854 
L 240.782664 277.626585 
L 246.041079 272.156013 
L 251.299494 271.635998 
L 256.557909 270.179952 
L 261.816324 267.351061 
L 267.074739 267.143054 
L 272.333154 267.080653 
L 277.59157 267.91268 
L 282.849985 267.184655 
L 288.1084 267.392661 
L 293.366815 266.602235 
L 298.62523 268.079082 
L 303.883645 267.871075 
L 309.14206 268.5575 
L 314.400475 267.018249 
L 319.65889 269.098315 
L 324.917305 286.446067 
L 330.17572 280.996295 
L 335.434135 276.295344 
L 340.69255 270.138348 
L 345.950965 264.709376 
L 351.20938 258.323572 
L 356.467795 253.206608 
L 361.72621 247.153621 
L 366.984625 239.602982 
L 372.243041 231.802733 
L 377.501456 220.757579 
L 382.759871 206.238718 
L 388.018286 186.332486 
L 393.276701 158.792414 
L 398.535116 118.938349 
L 403.793531 87.134136 
" clip-path="url(#p0db26f2ecd)" style="fill: none; stroke: #505050; stroke-width: 1.5; stroke-linecap: square"/>
   </g>
   <g id="line2d_27">
    <path d="M 72.513382 277.855396 
L 77.771797 274.735297 
L 83.030213 273.882466 
L 88.288628 274.111277 
L 93.547043 274.111277 
L 98.805458 275.380117 
L 104.063873 276.46175 
L 109.322288 275.962532 
L 114.580703 276.482551 
L 119.839118 276.919364 
L 125.097533 277.917797 
L 130.355948 278.666618 
L 135.614363 279.831457 
L 140.872778 280.122668 
L 146.131193 278.812224 
L 151.389608 274.111277 
L 156.648023 283.845983 
L 161.906438 287.257293 
L 167.164853 288.11012 
L 172.423268 285.988453 
L 177.681684 286.737277 
L 182.940099 285.676442 
L 188.198514 285.801247 
L 193.456929 284.844415 
L 198.715344 285.177227 
L 203.973759 285.655641 
L 209.232174 285.073222 
L 214.490589 285.489235 
L 219.749004 285.801247 
L 225.007419 285.53084 
L 230.265834 285.822047 
L 235.524249 286.321264 
L 240.782664 268.245488 
L 246.041079 260.029229 
L 251.299494 255.702691 
L 256.557909 254.704259 
L 261.816324 253.976234 
L 267.074739 252.624193 
L 272.333154 253.331418 
L 277.59157 253.768227 
L 282.849985 254.725059 
L 288.1084 255.702691 
L 293.366815 255.931498 
L 298.62523 257.449945 
L 303.883645 257.949163 
L 309.14206 259.46761 
L 314.400475 260.902856 
L 319.65889 262.358903 
L 324.917305 282.535542 
L 330.17572 285.218828 
L 335.434135 283.949988 
L 340.69255 281.765917 
L 345.950965 278.916229 
L 351.20938 275.941732 
L 356.467795 273.02964 
L 361.72621 269.389526 
L 366.984625 265.354196 
L 372.243041 258.989196 
L 377.501456 251.188943 
L 382.759871 240.102197 
L 388.018286 222.151221 
L 393.276701 193.903924 
L 398.535116 147.102444 
L 403.793531 97.88807 
" clip-path="url(#p0db26f2ecd)" style="fill: none; stroke: #3e3e3e; stroke-width: 1.5; stroke-linecap: square"/>
   </g>
   <g id="line2d_28">
    <path d="M 72.513382 265.603803 
L 77.771797 264.376568 
L 83.030213 267.621468 
L 88.288628 269.368726 
L 93.547043 271.219985 
L 98.805458 272.488825 
L 104.063873 274.194478 
L 109.322288 276.711358 
L 114.580703 277.293777 
L 119.839118 277.356178 
L 125.097533 278.37541 
L 130.355948 279.997863 
L 135.614363 280.26827 
L 140.872778 280.101864 
L 146.131193 278.500216 
L 151.389608 275.692125 
L 156.648023 283.700381 
L 161.906438 287.13249 
L 167.164853 286.966084 
L 172.423268 286.799678 
L 177.681684 287.049287 
L 182.940099 285.884448 
L 188.198514 287.298894 
L 193.456929 286.21726 
L 198.715344 284.490807 
L 203.973759 285.738846 
L 209.232174 285.239628 
L 214.490589 285.010821 
L 219.749004 284.386801 
L 225.007419 286.591671 
L 230.265834 285.094022 
L 235.524249 286.425267 
L 240.782664 261.672482 
L 246.041079 253.040206 
L 251.299494 246.425596 
L 256.557909 244.553532 
L 261.816324 243.159891 
L 267.074739 241.662248 
L 272.333154 240.102197 
L 277.59157 240.435009 
L 282.849985 240.663812 
L 288.1084 241.870251 
L 293.366815 242.785478 
L 298.62523 244.636741 
L 303.883645 244.36633 
L 309.14206 245.84318 
L 314.400475 248.110449 
L 319.65889 249.50409 
L 324.917305 280.517877 
L 330.17572 285.738846 
L 335.434135 287.756509 
L 340.69255 286.362864 
L 345.950965 285.759647 
L 351.20938 283.284368 
L 356.467795 281.890722 
L 361.72621 281.079496 
L 366.984625 279.207437 
L 372.243041 275.421718 
L 377.501456 271.11598 
L 382.759871 264.979783 
L 388.018286 252.18738 
L 393.276701 231.428321 
L 398.535116 188.662163 
L 403.793531 121.704839 
" clip-path="url(#p0db26f2ecd)" style="fill: none; stroke: #2b2b2b; stroke-width: 1.5; stroke-linecap: square"/>
   </g>
   <g id="line2d_29">
    <path d="M 72.513382 246.113584 
L 77.771797 259.738018 
L 83.030213 266.519034 
L 88.288628 271.448792 
L 93.547043 275.900132 
L 98.805458 277.501783 
L 104.063873 278.625018 
L 109.322288 280.580282 
L 114.580703 280.039463 
L 119.839118 280.018663 
L 125.097533 279.60265 
L 130.355948 280.850689 
L 135.614363 279.457044 
L 140.872778 277.293777 
L 146.131193 275.088905 
L 151.389608 270.720767 
L 156.648023 281.51631 
L 161.906438 281.329103 
L 167.164853 283.346768 
L 172.423268 285.406034 
L 177.681684 282.306735 
L 182.940099 283.076361 
L 188.198514 283.575575 
L 193.456929 283.65878 
L 198.715344 284.574008 
L 203.973759 283.845983 
L 209.232174 284.116394 
L 214.490589 282.577143 
L 219.749004 284.94842 
L 225.007419 284.116394 
L 230.265834 285.59324 
L 235.524249 285.114826 
L 240.782664 251.792167 
L 246.041079 247.923246 
L 251.299494 244.844744 
L 256.557909 241.454238 
L 261.816324 239.478173 
L 267.074739 238.458944 
L 272.333154 238.479745 
L 277.59157 239.457373 
L 282.849985 237.044495 
L 288.1084 235.567652 
L 293.366815 237.023694 
L 298.62523 236.108467 
L 303.883645 237.502108 
L 309.14206 238.001331 
L 314.400475 239.166161 
L 319.65889 241.391837 
L 324.917305 273.175245 
L 330.17572 278.209004 
L 335.434135 279.893857 
L 340.69255 281.55791 
L 345.950965 281.51631 
L 351.20938 281.994728 
L 356.467795 282.202734 
L 361.72621 280.87149 
L 366.984625 280.663483 
L 372.243041 278.895429 
L 377.501456 276.024937 
L 382.759871 274.423285 
L 388.018286 266.435829 
L 393.276701 256.742724 
L 398.535116 229.95147 
L 403.793531 170.045571 
" clip-path="url(#p0db26f2ecd)" style="fill: none; stroke: #191919; stroke-width: 1.5; stroke-linecap: square"/>
   </g>
   <g id="line2d_30">
    <path d="M 154.018816 331.5575 
L 154.018816 54.3575 
" clip-path="url(#p0db26f2ecd)" style="fill: none; stroke-dasharray: 5.55,2.4; stroke-dashoffset: 0; stroke: #ff0000; stroke-opacity: 0.7; stroke-width: 1.5"/>
   </g>
   <g id="line2d_31">
    <path d="M 238.153457 331.5575 
L 238.153457 54.3575 
" clip-path="url(#p0db26f2ecd)" style="fill: none; stroke-dasharray: 5.55,2.4; stroke-dashoffset: 0; stroke: #ff0000; stroke-opacity: 0.7; stroke-width: 1.5"/>
   </g>
   <g id="line2d_32">
    <path d="M 322.288098 331.5575 
L 322.288098 54.3575 
" clip-path="url(#p0db26f2ecd)" style="fill: none; stroke-dasharray: 1.5,2.475; stroke-dashoffset: 0; stroke: #0000ff; stroke-opacity: 0.7; stroke-width: 1.5"/>
   </g>
   <g id="patch_3">
    <path d="M 55.949375 331.5575 
L 55.949375 54.3575 
" style="fill: none; stroke: #000000; stroke-width: 0.8; stroke-linejoin: miter; stroke-linecap: square"/>
   </g>
   <g id="patch_4">
    <path d="M 55.949375 331.5575 
L 420.357538 331.5575 
" style="fill: none; stroke: #000000; stroke-width: 0.8; stroke-linejoin: miter; stroke-linecap: square"/>
   </g>
   <g id="text_16">
    <!-- Film -->
    <g transform="translate(99.897589 46.733812) scale(0.1 -0.1)">
     <defs>
      <path id="DejaVuSans-Bold-46" d="M 588 4666 
L 3834 4666 
L 3834 3756 
L 1791 3756 
L 1791 2888 
L 3713 2888 
L 3713 1978 
L 1791 1978 
L 1791 0 
L 588 0 
L 588 4666 
z
" transform="scale(0.015625)"/>
      <path id="DejaVuSans-Bold-69" d="M 538 3500 
L 1656 3500 
L 1656 0 
L 538 0 
L 538 3500 
z
M 538 4863 
L 1656 4863 
L 1656 3950 
L 538 3950 
L 538 4863 
z
" transform="scale(0.015625)"/>
      <path id="DejaVuSans-Bold-6c" d="M 538 4863 
L 1656 4863 
L 1656 0 
L 538 0 
L 538 4863 
z
" transform="scale(0.015625)"/>
      <path id="DejaVuSans-Bold-6d" d="M 3781 2919 
Q 3994 3244 4286 3414 
Q 4578 3584 4928 3584 
Q 5531 3584 5847 3212 
Q 6163 2841 6163 2131 
L 6163 0 
L 5038 0 
L 5038 1825 
Q 5041 1866 5042 1909 
Q 5044 1953 5044 2034 
Q 5044 2406 4934 2573 
Q 4825 2741 4581 2741 
Q 4263 2741 4089 2478 
Q 3916 2216 3909 1719 
L 3909 0 
L 2784 0 
L 2784 1825 
Q 2784 2406 2684 2573 
Q 2584 2741 2328 2741 
Q 2006 2741 1831 2477 
Q 1656 2213 1656 1722 
L 1656 0 
L 531 0 
L 531 3500 
L 1656 3500 
L 1656 2988 
Q 1863 3284 2130 3434 
Q 2397 3584 2719 3584 
Q 3081 3584 3359 3409 
Q 3638 3234 3781 2919 
z
" transform="scale(0.015625)"/>
     </defs>
     <use xlink:href="#DejaVuSans-Bold-46"/>
     <use xlink:href="#DejaVuSans-Bold-69" transform="translate(68.310547 0)"/>
     <use xlink:href="#DejaVuSans-Bold-6c" transform="translate(102.587891 0)"/>
     <use xlink:href="#DejaVuSans-Bold-6d" transform="translate(136.865234 0)"/>
    </g>
   </g>
   <g id="text_17">
    <!-- Break -->
    <g style="fill: #808080" transform="translate(179.718949 46.733812) scale(0.1 -0.1)">
     <defs>
      <path id="DejaVuSans-Bold-42" d="M 2456 2859 
Q 2741 2859 2887 2984 
Q 3034 3109 3034 3353 
Q 3034 3594 2887 3720 
Q 2741 3847 2456 3847 
L 1791 3847 
L 1791 2859 
L 2456 2859 
z
M 2497 819 
Q 2859 819 3042 972 
Q 3225 1125 3225 1434 
Q 3225 1738 3044 1889 
Q 2863 2041 2497 2041 
L 1791 2041 
L 1791 819 
L 2497 819 
z
M 3616 2497 
Q 4003 2384 4215 2081 
Q 4428 1778 4428 1338 
Q 4428 663 3972 331 
Q 3516 0 2584 0 
L 588 0 
L 588 4666 
L 2394 4666 
Q 3366 4666 3802 4372 
Q 4238 4078 4238 3431 
Q 4238 3091 4078 2852 
Q 3919 2613 3616 2497 
z
" transform="scale(0.015625)"/>
      <path id="DejaVuSans-Bold-72" d="M 3138 2547 
Q 2991 2616 2845 2648 
Q 2700 2681 2553 2681 
Q 2122 2681 1889 2404 
Q 1656 2128 1656 1613 
L 1656 0 
L 538 0 
L 538 3500 
L 1656 3500 
L 1656 2925 
Q 1872 3269 2151 3426 
Q 2431 3584 2822 3584 
Q 2878 3584 2943 3579 
Q 3009 3575 3134 3559 
L 3138 2547 
z
" transform="scale(0.015625)"/>
      <path id="DejaVuSans-Bold-65" d="M 4031 1759 
L 4031 1441 
L 1416 1441 
Q 1456 1047 1700 850 
Q 1944 653 2381 653 
Q 2734 653 3104 758 
Q 3475 863 3866 1075 
L 3866 213 
Q 3469 63 3072 -14 
Q 2675 -91 2278 -91 
Q 1328 -91 801 392 
Q 275 875 275 1747 
Q 275 2603 792 3093 
Q 1309 3584 2216 3584 
Q 3041 3584 3536 3087 
Q 4031 2591 4031 1759 
z
M 2881 2131 
Q 2881 2450 2695 2645 
Q 2509 2841 2209 2841 
Q 1884 2841 1681 2658 
Q 1478 2475 1428 2131 
L 2881 2131 
z
" transform="scale(0.015625)"/>
      <path id="DejaVuSans-Bold-61" d="M 2106 1575 
Q 1756 1575 1579 1456 
Q 1403 1338 1403 1106 
Q 1403 894 1545 773 
Q 1688 653 1941 653 
Q 2256 653 2472 879 
Q 2688 1106 2688 1447 
L 2688 1575 
L 2106 1575 
z
M 3816 1997 
L 3816 0 
L 2688 0 
L 2688 519 
Q 2463 200 2181 54 
Q 1900 -91 1497 -91 
Q 953 -91 614 226 
Q 275 544 275 1050 
Q 275 1666 698 1953 
Q 1122 2241 2028 2241 
L 2688 2241 
L 2688 2328 
Q 2688 2594 2478 2717 
Q 2269 2841 1825 2841 
Q 1466 2841 1156 2769 
Q 847 2697 581 2553 
L 581 3406 
Q 941 3494 1303 3539 
Q 1666 3584 2028 3584 
Q 2975 3584 3395 3211 
Q 3816 2838 3816 1997 
z
" transform="scale(0.015625)"/>
      <path id="DejaVuSans-Bold-6b" d="M 538 4863 
L 1656 4863 
L 1656 2216 
L 2944 3500 
L 4244 3500 
L 2534 1894 
L 4378 0 
L 3022 0 
L 1656 1459 
L 1656 0 
L 538 0 
L 538 4863 
z
" transform="scale(0.015625)"/>
     </defs>
     <use xlink:href="#DejaVuSans-Bold-42"/>
     <use xlink:href="#DejaVuSans-Bold-72" transform="translate(76.220703 0)"/>
     <use xlink:href="#DejaVuSans-Bold-65" transform="translate(125.537109 0)"/>
     <use xlink:href="#DejaVuSans-Bold-61" transform="translate(193.359375 0)"/>
     <use xlink:href="#DejaVuSans-Bold-6b" transform="translate(260.839844 0)"/>
    </g>
   </g>
   <g id="text_18">
    <!-- Interference -->
    <g style="fill: #ff0000" transform="translate(245.21609 46.733812) scale(0.1 -0.1)">
     <defs>
      <path id="DejaVuSans-Bold-49" d="M 588 4666 
L 1791 4666 
L 1791 0 
L 588 0 
L 588 4666 
z
" transform="scale(0.015625)"/>
      <path id="DejaVuSans-Bold-6e" d="M 4056 2131 
L 4056 0 
L 2931 0 
L 2931 347 
L 2931 1631 
Q 2931 2084 2911 2256 
Q 2891 2428 2841 2509 
Q 2775 2619 2662 2680 
Q 2550 2741 2406 2741 
Q 2056 2741 1856 2470 
Q 1656 2200 1656 1722 
L 1656 0 
L 538 0 
L 538 3500 
L 1656 3500 
L 1656 2988 
Q 1909 3294 2193 3439 
Q 2478 3584 2822 3584 
Q 3428 3584 3742 3212 
Q 4056 2841 4056 2131 
z
" transform="scale(0.015625)"/>
      <path id="DejaVuSans-Bold-74" d="M 1759 4494 
L 1759 3500 
L 2913 3500 
L 2913 2700 
L 1759 2700 
L 1759 1216 
Q 1759 972 1856 886 
Q 1953 800 2241 800 
L 2816 800 
L 2816 0 
L 1856 0 
Q 1194 0 917 276 
Q 641 553 641 1216 
L 641 2700 
L 84 2700 
L 84 3500 
L 641 3500 
L 641 4494 
L 1759 4494 
z
" transform="scale(0.015625)"/>
      <path id="DejaVuSans-Bold-66" d="M 2841 4863 
L 2841 4128 
L 2222 4128 
Q 1984 4128 1890 4042 
Q 1797 3956 1797 3744 
L 1797 3500 
L 2753 3500 
L 2753 2700 
L 1797 2700 
L 1797 0 
L 678 0 
L 678 2700 
L 122 2700 
L 122 3500 
L 678 3500 
L 678 3744 
Q 678 4316 997 4589 
Q 1316 4863 1984 4863 
L 2841 4863 
z
" transform="scale(0.015625)"/>
      <path id="DejaVuSans-Bold-63" d="M 3366 3391 
L 3366 2478 
Q 3138 2634 2908 2709 
Q 2678 2784 2431 2784 
Q 1963 2784 1702 2511 
Q 1441 2238 1441 1747 
Q 1441 1256 1702 982 
Q 1963 709 2431 709 
Q 2694 709 2930 787 
Q 3166 866 3366 1019 
L 3366 103 
Q 3103 6 2833 -42 
Q 2563 -91 2291 -91 
Q 1344 -91 809 395 
Q 275 881 275 1747 
Q 275 2613 809 3098 
Q 1344 3584 2291 3584 
Q 2566 3584 2833 3536 
Q 3100 3488 3366 3391 
z
" transform="scale(0.015625)"/>
     </defs>
     <use xlink:href="#DejaVuSans-Bold-49"/>
     <use xlink:href="#DejaVuSans-Bold-6e" transform="translate(37.207031 0)"/>
     <use xlink:href="#DejaVuSans-Bold-74" transform="translate(108.398438 0)"/>
     <use xlink:href="#DejaVuSans-Bold-65" transform="translate(156.201172 0)"/>
     <use xlink:href="#DejaVuSans-Bold-72" transform="translate(224.023438 0)"/>
     <use xlink:href="#DejaVuSans-Bold-66" transform="translate(273.339844 0)"/>
     <use xlink:href="#DejaVuSans-Bold-65" transform="translate(316.845703 0)"/>
     <use xlink:href="#DejaVuSans-Bold-72" transform="translate(384.667969 0)"/>
     <use xlink:href="#DejaVuSans-Bold-65" transform="translate(433.984375 0)"/>
     <use xlink:href="#DejaVuSans-Bold-6e" transform="translate(501.806641 0)"/>
     <use xlink:href="#DejaVuSans-Bold-63" transform="translate(572.998047 0)"/>
     <use xlink:href="#DejaVuSans-Bold-65" transform="translate(632.275391 0)"/>
    </g>
   </g>
   <g id="text_19">
    <!-- Filler -->
    <g style="fill: #0000ff" transform="translate(349.940574 46.733812) scale(0.1 -0.1)">
     <use xlink:href="#DejaVuSans-Bold-46"/>
     <use xlink:href="#DejaVuSans-Bold-69" transform="translate(68.310547 0)"/>
     <use xlink:href="#DejaVuSans-Bold-6c" transform="translate(102.587891 0)"/>
     <use xlink:href="#DejaVuSans-Bold-6c" transform="translate(136.865234 0)"/>
     <use xlink:href="#DejaVuSans-Bold-65" transform="translate(171.142578 0)"/>
     <use xlink:href="#DejaVuSans-Bold-72" transform="translate(238.964844 0)"/>
    </g>
   </g>
   <g id="text_20">
    <g clip-path="url(#p0db26f2ecd)">
     <!-- Reminder -->
     <g transform="translate(236.073769 111.243812) rotate(-90) scale(0.1 -0.1)">
      <defs>
       <path id="DejaVuSans-Oblique-52" d="M 1613 4147 
L 1294 2491 
L 2106 2491 
Q 2584 2491 2879 2755 
Q 3175 3019 3175 3444 
Q 3175 3784 2976 3965 
Q 2778 4147 2406 4147 
L 1613 4147 
z
M 2772 2241 
Q 2972 2194 3105 2009 
Q 3238 1825 3413 1275 
L 3809 0 
L 3144 0 
L 2778 1197 
Q 2638 1659 2453 1815 
Q 2269 1972 1888 1972 
L 1191 1972 
L 806 0 
L 172 0 
L 1081 4666 
L 2503 4666 
Q 3150 4666 3495 4373 
Q 3841 4081 3841 3531 
Q 3841 3044 3547 2687 
Q 3253 2331 2772 2241 
z
" transform="scale(0.015625)"/>
       <path id="DejaVuSans-Oblique-65" d="M 3078 2063 
Q 3088 2113 3092 2166 
Q 3097 2219 3097 2272 
Q 3097 2653 2873 2875 
Q 2650 3097 2266 3097 
Q 1838 3097 1509 2826 
Q 1181 2556 1013 2059 
L 3078 2063 
z
M 3578 1613 
L 903 1613 
Q 884 1494 878 1425 
Q 872 1356 872 1306 
Q 872 872 1139 634 
Q 1406 397 1894 397 
Q 2269 397 2603 481 
Q 2938 566 3225 728 
L 3116 159 
Q 2806 34 2476 -28 
Q 2147 -91 1806 -91 
Q 1078 -91 686 257 
Q 294 606 294 1247 
Q 294 1794 489 2264 
Q 684 2734 1063 3103 
Q 1306 3334 1642 3459 
Q 1978 3584 2356 3584 
Q 2950 3584 3301 3228 
Q 3653 2872 3653 2272 
Q 3653 2128 3634 1964 
Q 3616 1800 3578 1613 
z
" transform="scale(0.015625)"/>
       <path id="DejaVuSans-Oblique-6d" d="M 5747 2113 
L 5338 0 
L 4763 0 
L 5166 2094 
Q 5191 2228 5203 2325 
Q 5216 2422 5216 2491 
Q 5216 2772 5059 2928 
Q 4903 3084 4622 3084 
Q 4203 3084 3875 2770 
Q 3547 2456 3450 1953 
L 3066 0 
L 2491 0 
L 2900 2094 
Q 2925 2209 2937 2307 
Q 2950 2406 2950 2484 
Q 2950 2769 2794 2926 
Q 2638 3084 2363 3084 
Q 1938 3084 1609 2770 
Q 1281 2456 1184 1953 
L 800 0 
L 225 0 
L 909 3500 
L 1484 3500 
L 1375 2956 
Q 1609 3263 1923 3423 
Q 2238 3584 2597 3584 
Q 2978 3584 3223 3384 
Q 3469 3184 3519 2828 
Q 3781 3197 4126 3390 
Q 4472 3584 4856 3584 
Q 5306 3584 5551 3325 
Q 5797 3066 5797 2591 
Q 5797 2488 5784 2364 
Q 5772 2241 5747 2113 
z
" transform="scale(0.015625)"/>
       <path id="DejaVuSans-Oblique-69" d="M 1172 4863 
L 1747 4863 
L 1606 4134 
L 1031 4134 
L 1172 4863 
z
M 909 3500 
L 1484 3500 
L 800 0 
L 225 0 
L 909 3500 
z
" transform="scale(0.015625)"/>
       <path id="DejaVuSans-Oblique-6e" d="M 3566 2113 
L 3156 0 
L 2578 0 
L 2988 2091 
Q 3016 2238 3031 2350 
Q 3047 2463 3047 2528 
Q 3047 2791 2881 2937 
Q 2716 3084 2419 3084 
Q 1956 3084 1622 2776 
Q 1288 2469 1184 1941 
L 800 0 
L 225 0 
L 903 3500 
L 1478 3500 
L 1363 2950 
Q 1603 3253 1940 3418 
Q 2278 3584 2650 3584 
Q 3113 3584 3367 3334 
Q 3622 3084 3622 2631 
Q 3622 2519 3608 2391 
Q 3594 2263 3566 2113 
z
" transform="scale(0.015625)"/>
       <path id="DejaVuSans-Oblique-64" d="M 2675 525 
Q 2444 222 2128 65 
Q 1813 -91 1428 -91 
Q 903 -91 598 267 
Q 294 625 294 1247 
Q 294 1766 478 2236 
Q 663 2706 1013 3078 
Q 1244 3325 1534 3454 
Q 1825 3584 2144 3584 
Q 2481 3584 2739 3421 
Q 2997 3259 3138 2956 
L 3513 4863 
L 4091 4863 
L 3144 0 
L 2566 0 
L 2675 525 
z
M 891 1350 
Q 891 897 1095 644 
Q 1300 391 1663 391 
Q 1931 391 2161 520 
Q 2391 650 2566 903 
Q 2750 1166 2856 1509 
Q 2963 1853 2963 2188 
Q 2963 2622 2758 2865 
Q 2553 3109 2194 3109 
Q 1922 3109 1687 2981 
Q 1453 2853 1288 2613 
Q 1106 2353 998 2009 
Q 891 1666 891 1350 
z
" transform="scale(0.015625)"/>
       <path id="DejaVuSans-Oblique-72" d="M 2853 2969 
Q 2766 3016 2653 3041 
Q 2541 3066 2413 3066 
Q 1953 3066 1609 2717 
Q 1266 2369 1153 1784 
L 800 0 
L 225 0 
L 909 3500 
L 1484 3500 
L 1375 2956 
Q 1603 3259 1920 3421 
Q 2238 3584 2597 3584 
Q 2691 3584 2781 3573 
Q 2872 3563 2963 3538 
L 2853 2969 
z
" transform="scale(0.015625)"/>
      </defs>
      <use xlink:href="#DejaVuSans-Oblique-52"/>
      <use xlink:href="#DejaVuSans-Oblique-65" transform="translate(69.482422 0)"/>
      <use xlink:href="#DejaVuSans-Oblique-6d" transform="translate(131.005859 0)"/>
      <use xlink:href="#DejaVuSans-Oblique-69" transform="translate(228.417969 0)"/>
      <use xlink:href="#DejaVuSans-Oblique-6e" transform="translate(256.201172 0)"/>
      <use xlink:href="#DejaVuSans-Oblique-64" transform="translate(319.580078 0)"/>
      <use xlink:href="#DejaVuSans-Oblique-65" transform="translate(383.056641 0)"/>
      <use xlink:href="#DejaVuSans-Oblique-72" transform="translate(444.580078 0)"/>
     </g>
    </g>
   </g>
   <g id="text_21">
    <!-- SPC by Shared Support Scale -->
    <g transform="translate(121.368457 19.3575) scale(0.16 -0.16)">
     <defs>
      <path id="DejaVuSans-43" d="M 4122 4306 
L 4122 3641 
Q 3803 3938 3442 4084 
Q 3081 4231 2675 4231 
Q 1875 4231 1450 3742 
Q 1025 3253 1025 2328 
Q 1025 1406 1450 917 
Q 1875 428 2675 428 
Q 3081 428 3442 575 
Q 3803 722 4122 1019 
L 4122 359 
Q 3791 134 3420 21 
Q 3050 -91 2638 -91 
Q 1578 -91 968 557 
Q 359 1206 359 2328 
Q 359 3453 968 4101 
Q 1578 4750 2638 4750 
Q 3056 4750 3426 4639 
Q 3797 4528 4122 4306 
z
" transform="scale(0.015625)"/>
      <path id="DejaVuSans-68" d="M 3513 2113 
L 3513 0 
L 2938 0 
L 2938 2094 
Q 2938 2591 2744 2837 
Q 2550 3084 2163 3084 
Q 1697 3084 1428 2787 
Q 1159 2491 1159 1978 
L 1159 0 
L 581 0 
L 581 4863 
L 1159 4863 
L 1159 2956 
Q 1366 3272 1645 3428 
Q 1925 3584 2291 3584 
Q 2894 3584 3203 3211 
Q 3513 2838 3513 2113 
z
" transform="scale(0.015625)"/>
      <path id="DejaVuSans-70" d="M 1159 525 
L 1159 -1331 
L 581 -1331 
L 581 3500 
L 1159 3500 
L 1159 2969 
Q 1341 3281 1617 3432 
Q 1894 3584 2278 3584 
Q 2916 3584 3314 3078 
Q 3713 2572 3713 1747 
Q 3713 922 3314 415 
Q 2916 -91 2278 -91 
Q 1894 -91 1617 61 
Q 1341 213 1159 525 
z
M 3116 1747 
Q 3116 2381 2855 2742 
Q 2594 3103 2138 3103 
Q 1681 3103 1420 2742 
Q 1159 2381 1159 1747 
Q 1159 1113 1420 752 
Q 1681 391 2138 391 
Q 2594 391 2855 752 
Q 3116 1113 3116 1747 
z
" transform="scale(0.015625)"/>
     </defs>
     <use xlink:href="#DejaVuSans-53"/>
     <use xlink:href="#DejaVuSans-50" transform="translate(63.476562 0)"/>
     <use xlink:href="#DejaVuSans-43" transform="translate(123.779297 0)"/>
     <use xlink:href="#DejaVuSans-20" transform="translate(193.603516 0)"/>
     <use xlink:href="#DejaVuSans-62" transform="translate(225.390625 0)"/>
     <use xlink:href="#DejaVuSans-79" transform="translate(288.867188 0)"/>
     <use xlink:href="#DejaVuSans-20" transform="translate(348.046875 0)"/>
     <use xlink:href="#DejaVuSans-53" transform="translate(379.833984 0)"/>
     <use xlink:href="#DejaVuSans-68" transform="translate(443.310547 0)"/>
     <use xlink:href="#DejaVuSans-61" transform="translate(506.689453 0)"/>
     <use xlink:href="#DejaVuSans-72" transform="translate(567.96875 0)"/>
     <use xlink:href="#DejaVuSans-65" transform="translate(606.832031 0)"/>
     <use xlink:href="#DejaVuSans-64" transform="translate(668.355469 0)"/>
     <use xlink:href="#DejaVuSans-20" transform="translate(731.832031 0)"/>
     <use xlink:href="#DejaVuSans-53" transform="translate(763.619141 0)"/>
     <use xlink:href="#DejaVuSans-75" transform="translate(827.095703 0)"/>
     <use xlink:href="#DejaVuSans-70" transform="translate(890.474609 0)"/>
     <use xlink:href="#DejaVuSans-70" transform="translate(953.951172 0)"/>
     <use xlink:href="#DejaVuSans-6f" transform="translate(1017.427734 0)"/>
     <use xlink:href="#DejaVuSans-72" transform="translate(1078.609375 0)"/>
     <use xlink:href="#DejaVuSans-74" transform="translate(1119.722656 0)"/>
     <use xlink:href="#DejaVuSans-20" transform="translate(1158.931641 0)"/>
     <use xlink:href="#DejaVuSans-53" transform="translate(1190.71875 0)"/>
     <use xlink:href="#DejaVuSans-63" transform="translate(1254.195312 0)"/>
     <use xlink:href="#DejaVuSans-61" transform="translate(1309.175781 0)"/>
     <use xlink:href="#DejaVuSans-6c" transform="translate(1370.455078 0)"/>
     <use xlink:href="#DejaVuSans-65" transform="translate(1398.238281 0)"/>
    </g>
   </g>
   <g id="legend_1">
    <g id="patch_5">
     <path d="M 436.045702 240.095 
L 501.164452 240.095 
Q 503.564452 240.095 503.564452 237.695 
L 503.564452 62.7575 
Q 503.564452 60.3575 501.164452 60.3575 
L 436.045702 60.3575 
Q 433.645702 60.3575 433.645702 62.7575 
L 433.645702 237.695 
Q 433.645702 240.095 436.045702 240.095 
z
" style="fill: #ffffff; opacity: 0.8; stroke: #cccccc; stroke-linejoin: miter"/>
    </g>
    <g id="line2d_33">
     <path d="M 438.445702 70.075625 
L 450.445702 70.075625 
L 462.445702 70.075625 
" style="fill: none; stroke: #bfbfbf; stroke-width: 1.5; stroke-linecap: square"/>
    </g>
    <g id="text_22">
     <!-- 0.00 -->
     <g transform="translate(472.045702 74.275625) scale(0.12 -0.12)">
      <use xlink:href="#DejaVuSans-30"/>
      <use xlink:href="#DejaVuSans-2e" transform="translate(63.623047 0)"/>
      <use xlink:href="#DejaVuSans-30" transform="translate(95.410156 0)"/>
      <use xlink:href="#DejaVuSans-30" transform="translate(159.033203 0)"/>
     </g>
    </g>
    <g id="line2d_34">
     <path d="M 438.445702 87.689375 
L 450.445702 87.689375 
L 462.445702 87.689375 
" style="fill: none; stroke: #acacac; stroke-width: 1.5; stroke-linecap: square"/>
    </g>
    <g id="text_23">
     <!-- 0.11 -->
     <g transform="translate(472.045702 91.889375) scale(0.12 -0.12)">
      <use xlink:href="#DejaVuSans-30"/>
      <use xlink:href="#DejaVuSans-2e" transform="translate(63.623047 0)"/>
      <use xlink:href="#DejaVuSans-31" transform="translate(95.410156 0)"/>
      <use xlink:href="#DejaVuSans-31" transform="translate(159.033203 0)"/>
     </g>
    </g>
    <g id="line2d_35">
     <path d="M 438.445702 105.303125 
L 450.445702 105.303125 
L 462.445702 105.303125 
" style="fill: none; stroke: #9a9a9a; stroke-width: 1.5; stroke-linecap: square"/>
    </g>
    <g id="text_24">
     <!-- 0.22 -->
     <g transform="translate(472.045702 109.503125) scale(0.12 -0.12)">
      <use xlink:href="#DejaVuSans-30"/>
      <use xlink:href="#DejaVuSans-2e" transform="translate(63.623047 0)"/>
      <use xlink:href="#DejaVuSans-32" transform="translate(95.410156 0)"/>
      <use xlink:href="#DejaVuSans-32" transform="translate(159.033203 0)"/>
     </g>
    </g>
    <g id="line2d_36">
     <path d="M 438.445702 122.916875 
L 450.445702 122.916875 
L 462.445702 122.916875 
" style="fill: none; stroke: #888888; stroke-width: 1.5; stroke-linecap: square"/>
    </g>
    <g id="text_25">
     <!-- 0.33 -->
     <g transform="translate(472.045702 127.116875) scale(0.12 -0.12)">
      <use xlink:href="#DejaVuSans-30"/>
      <use xlink:href="#DejaVuSans-2e" transform="translate(63.623047 0)"/>
      <use xlink:href="#DejaVuSans-33" transform="translate(95.410156 0)"/>
      <use xlink:href="#DejaVuSans-33" transform="translate(159.033203 0)"/>
     </g>
    </g>
    <g id="line2d_37">
     <path d="M 438.445702 140.530625 
L 450.445702 140.530625 
L 462.445702 140.530625 
" style="fill: none; stroke: #757575; stroke-width: 1.5; stroke-linecap: square"/>
    </g>
    <g id="text_26">
     <!-- 0.44 -->
     <g transform="translate(472.045702 144.730625) scale(0.12 -0.12)">
      <use xlink:href="#DejaVuSans-30"/>
      <use xlink:href="#DejaVuSans-2e" transform="translate(63.623047 0)"/>
      <use xlink:href="#DejaVuSans-34" transform="translate(95.410156 0)"/>
      <use xlink:href="#DejaVuSans-34" transform="translate(159.033203 0)"/>
     </g>
    </g>
    <g id="line2d_38">
     <path d="M 438.445702 158.144375 
L 450.445702 158.144375 
L 462.445702 158.144375 
" style="fill: none; stroke: #636363; stroke-width: 1.5; stroke-linecap: square"/>
    </g>
    <g id="text_27">
     <!-- 0.56 -->
     <g transform="translate(472.045702 162.344375) scale(0.12 -0.12)">
      <use xlink:href="#DejaVuSans-30"/>
      <use xlink:href="#DejaVuSans-2e" transform="translate(63.623047 0)"/>
      <use xlink:href="#DejaVuSans-35" transform="translate(95.410156 0)"/>
      <use xlink:href="#DejaVuSans-36" transform="translate(159.033203 0)"/>
     </g>
    </g>
    <g id="line2d_39">
     <path d="M 438.445702 175.758125 
L 450.445702 175.758125 
L 462.445702 175.758125 
" style="fill: none; stroke: #505050; stroke-width: 1.5; stroke-linecap: square"/>
    </g>
    <g id="text_28">
     <!-- 0.67 -->
     <g transform="translate(472.045702 179.958125) scale(0.12 -0.12)">
      <defs>
       <path id="DejaVuSans-37" d="M 525 4666 
L 3525 4666 
L 3525 4397 
L 1831 0 
L 1172 0 
L 2766 4134 
L 525 4134 
L 525 4666 
z
" transform="scale(0.015625)"/>
      </defs>
      <use xlink:href="#DejaVuSans-30"/>
      <use xlink:href="#DejaVuSans-2e" transform="translate(63.623047 0)"/>
      <use xlink:href="#DejaVuSans-36" transform="translate(95.410156 0)"/>
      <use xlink:href="#DejaVuSans-37" transform="translate(159.033203 0)"/>
     </g>
    </g>
    <g id="line2d_40">
     <path d="M 438.445702 193.371875 
L 450.445702 193.371875 
L 462.445702 193.371875 
" style="fill: none; stroke: #3e3e3e; stroke-width: 1.5; stroke-linecap: square"/>
    </g>
    <g id="text_29">
     <!-- 0.78 -->
     <g transform="translate(472.045702 197.571875) scale(0.12 -0.12)">
      <use xlink:href="#DejaVuSans-30"/>
      <use xlink:href="#DejaVuSans-2e" transform="translate(63.623047 0)"/>
      <use xlink:href="#DejaVuSans-37" transform="translate(95.410156 0)"/>
      <use xlink:href="#DejaVuSans-38" transform="translate(159.033203 0)"/>
     </g>
    </g>
    <g id="line2d_41">
     <path d="M 438.445702 210.985625 
L 450.445702 210.985625 
L 462.445702 210.985625 
" style="fill: none; stroke: #2b2b2b; stroke-width: 1.5; stroke-linecap: square"/>
    </g>
    <g id="text_30">
     <!-- 0.89 -->
     <g transform="translate(472.045702 215.185625) scale(0.12 -0.12)">
      <defs>
       <path id="DejaVuSans-39" d="M 703 97 
L 703 672 
Q 941 559 1184 500 
Q 1428 441 1663 441 
Q 2288 441 2617 861 
Q 2947 1281 2994 2138 
Q 2813 1869 2534 1725 
Q 2256 1581 1919 1581 
Q 1219 1581 811 2004 
Q 403 2428 403 3163 
Q 403 3881 828 4315 
Q 1253 4750 1959 4750 
Q 2769 4750 3195 4129 
Q 3622 3509 3622 2328 
Q 3622 1225 3098 567 
Q 2575 -91 1691 -91 
Q 1453 -91 1209 -44 
Q 966 3 703 97 
z
M 1959 2075 
Q 2384 2075 2632 2365 
Q 2881 2656 2881 3163 
Q 2881 3666 2632 3958 
Q 2384 4250 1959 4250 
Q 1534 4250 1286 3958 
Q 1038 3666 1038 3163 
Q 1038 2656 1286 2365 
Q 1534 2075 1959 2075 
z
" transform="scale(0.015625)"/>
      </defs>
      <use xlink:href="#DejaVuSans-30"/>
      <use xlink:href="#DejaVuSans-2e" transform="translate(63.623047 0)"/>
      <use xlink:href="#DejaVuSans-38" transform="translate(95.410156 0)"/>
      <use xlink:href="#DejaVuSans-39" transform="translate(159.033203 0)"/>
     </g>
    </g>
    <g id="line2d_42">
     <path d="M 438.445702 228.599375 
L 450.445702 228.599375 
L 462.445702 228.599375 
" style="fill: none; stroke: #191919; stroke-width: 1.5; stroke-linecap: square"/>
    </g>
    <g id="text_31">
     <!-- 1.00 -->
     <g transform="translate(472.045702 232.799375) scale(0.12 -0.12)">
      <use xlink:href="#DejaVuSans-31"/>
      <use xlink:href="#DejaVuSans-2e" transform="translate(63.623047 0)"/>
      <use xlink:href="#DejaVuSans-30" transform="translate(95.410156 0)"/>
      <use xlink:href="#DejaVuSans-30" transform="translate(159.033203 0)"/>
     </g>
    </g>
   </g>
  </g>
  <g id="axes_2">
   <g id="patch_6">
    <path d="M 584.341212 331.5575 
L 948.749375 331.5575 
L 948.749375 54.3575 
L 584.341212 54.3575 
z
" style="fill: #ffffff"/>
   </g>
   <g id="FillBetweenPolyCollection_1">
    <defs>
     <path id="m176f2c96d0" d="M 600.905219 -134.736312 
L 600.905219 -59.834375 
L 637.714125 -77.551787 
L 674.52303 -100.770519 
L 711.331935 -128.876681 
L 748.140841 -156.338178 
L 784.949746 -181.375949 
L 821.758651 -221.176674 
L 858.567557 -252.602838 
L 895.376462 -271.730417 
L 932.185368 -278.462563 
L 932.185368 -311.834375 
L 932.185368 -311.834375 
L 895.376462 -311.766338 
L 858.567557 -305.448124 
L 821.758651 -284.140031 
L 784.949746 -247.822662 
L 748.140841 -225.654054 
L 711.331935 -203.540114 
L 674.52303 -177.318002 
L 637.714125 -153.886092 
L 600.905219 -134.736312 
z
" style="stroke: #000000; stroke-opacity: 0.25"/>
    </defs>
    <g clip-path="url(#pf9636e170b)">
     <use xlink:href="#m176f2c96d0" x="0" y="378.791875" style="fill-opacity: 0.25; stroke: #000000; stroke-opacity: 0.25"/>
    </g>
   </g>
   <g id="matplotlib.axis_3">
    <g id="xtick_8">
     <g id="line2d_43">
      <g>
       <use xlink:href="#ma6f527d672" x="600.905219" y="331.5575" style="stroke: #000000; stroke-width: 0.8"/>
      </g>
     </g>
     <g id="text_32">
      <!-- 0.0 -->
      <g transform="translate(589.773032 349.195312) scale(0.14 -0.14)">
       <use xlink:href="#DejaVuSans-30"/>
       <use xlink:href="#DejaVuSans-2e" transform="translate(63.623047 0)"/>
       <use xlink:href="#DejaVuSans-30" transform="translate(95.410156 0)"/>
      </g>
     </g>
    </g>
    <g id="xtick_9">
     <g id="line2d_44">
      <g>
       <use xlink:href="#ma6f527d672" x="667.161249" y="331.5575" style="stroke: #000000; stroke-width: 0.8"/>
      </g>
     </g>
     <g id="text_33">
      <!-- 0.2 -->
      <g transform="translate(656.029061 349.195312) scale(0.14 -0.14)">
       <use xlink:href="#DejaVuSans-30"/>
       <use xlink:href="#DejaVuSans-2e" transform="translate(63.623047 0)"/>
       <use xlink:href="#DejaVuSans-32" transform="translate(95.410156 0)"/>
      </g>
     </g>
    </g>
    <g id="xtick_10">
     <g id="line2d_45">
      <g>
       <use xlink:href="#ma6f527d672" x="733.417279" y="331.5575" style="stroke: #000000; stroke-width: 0.8"/>
      </g>
     </g>
     <g id="text_34">
      <!-- 0.4 -->
      <g transform="translate(722.285091 349.195312) scale(0.14 -0.14)">
       <use xlink:href="#DejaVuSans-30"/>
       <use xlink:href="#DejaVuSans-2e" transform="translate(63.623047 0)"/>
       <use xlink:href="#DejaVuSans-34" transform="translate(95.410156 0)"/>
      </g>
     </g>
    </g>
    <g id="xtick_11">
     <g id="line2d_46">
      <g>
       <use xlink:href="#ma6f527d672" x="799.673308" y="331.5575" style="stroke: #000000; stroke-width: 0.8"/>
      </g>
     </g>
     <g id="text_35">
      <!-- 0.6 -->
      <g transform="translate(788.541121 349.195312) scale(0.14 -0.14)">
       <use xlink:href="#DejaVuSans-30"/>
       <use xlink:href="#DejaVuSans-2e" transform="translate(63.623047 0)"/>
       <use xlink:href="#DejaVuSans-36" transform="translate(95.410156 0)"/>
      </g>
     </g>
    </g>
    <g id="xtick_12">
     <g id="line2d_47">
      <g>
       <use xlink:href="#ma6f527d672" x="865.929338" y="331.5575" style="stroke: #000000; stroke-width: 0.8"/>
      </g>
     </g>
     <g id="text_36">
      <!-- 0.8 -->
      <g transform="translate(854.79715 349.195312) scale(0.14 -0.14)">
       <use xlink:href="#DejaVuSans-30"/>
       <use xlink:href="#DejaVuSans-2e" transform="translate(63.623047 0)"/>
       <use xlink:href="#DejaVuSans-38" transform="translate(95.410156 0)"/>
      </g>
     </g>
    </g>
    <g id="xtick_13">
     <g id="line2d_48">
      <g>
       <use xlink:href="#ma6f527d672" x="932.185368" y="331.5575" style="stroke: #000000; stroke-width: 0.8"/>
      </g>
     </g>
     <g id="text_37">
      <!-- 1.0 -->
      <g transform="translate(921.05318 349.195312) scale(0.14 -0.14)">
       <use xlink:href="#DejaVuSans-31"/>
       <use xlink:href="#DejaVuSans-2e" transform="translate(63.623047 0)"/>
       <use xlink:href="#DejaVuSans-30" transform="translate(95.410156 0)"/>
      </g>
     </g>
    </g>
    <g id="text_38">
     <!-- Shared Support Scale -->
     <g transform="translate(680.147793 368.264375) scale(0.16 -0.16)">
      <use xlink:href="#DejaVuSans-53"/>
      <use xlink:href="#DejaVuSans-68" transform="translate(63.476562 0)"/>
      <use xlink:href="#DejaVuSans-61" transform="translate(126.855469 0)"/>
      <use xlink:href="#DejaVuSans-72" transform="translate(188.134766 0)"/>
      <use xlink:href="#DejaVuSans-65" transform="translate(226.998047 0)"/>
      <use xlink:href="#DejaVuSans-64" transform="translate(288.521484 0)"/>
      <use xlink:href="#DejaVuSans-20" transform="translate(351.998047 0)"/>
      <use xlink:href="#DejaVuSans-53" transform="translate(383.785156 0)"/>
      <use xlink:href="#DejaVuSans-75" transform="translate(447.261719 0)"/>
      <use xlink:href="#DejaVuSans-70" transform="translate(510.640625 0)"/>
      <use xlink:href="#DejaVuSans-70" transform="translate(574.117188 0)"/>
      <use xlink:href="#DejaVuSans-6f" transform="translate(637.59375 0)"/>
      <use xlink:href="#DejaVuSans-72" transform="translate(698.775391 0)"/>
      <use xlink:href="#DejaVuSans-74" transform="translate(739.888672 0)"/>
      <use xlink:href="#DejaVuSans-20" transform="translate(779.097656 0)"/>
      <use xlink:href="#DejaVuSans-53" transform="translate(810.884766 0)"/>
      <use xlink:href="#DejaVuSans-63" transform="translate(874.361328 0)"/>
      <use xlink:href="#DejaVuSans-61" transform="translate(929.341797 0)"/>
      <use xlink:href="#DejaVuSans-6c" transform="translate(990.621094 0)"/>
      <use xlink:href="#DejaVuSans-65" transform="translate(1018.404297 0)"/>
     </g>
    </g>
   </g>
   <g id="matplotlib.axis_4">
    <g id="ytick_7">
     <g id="line2d_49">
      <path d="M 584.341212 292.255194 
L 948.749375 292.255194 
" clip-path="url(#pf9636e170b)" style="fill: none; stroke-dasharray: 1.85,0.8; stroke-dashoffset: 0; stroke: #b0b0b0; stroke-opacity: 0.3; stroke-width: 0.5"/>
     </g>
     <g id="line2d_50">
      <g>
       <use xlink:href="#m1c0f49dc91" x="584.341212" y="292.255194" style="stroke: #000000; stroke-width: 0.8"/>
      </g>
     </g>
     <g id="text_39">
      <!-- 0.5 -->
      <g transform="translate(555.076837 297.5741) scale(0.14 -0.14)">
       <use xlink:href="#DejaVuSans-30"/>
       <use xlink:href="#DejaVuSans-2e" transform="translate(63.623047 0)"/>
       <use xlink:href="#DejaVuSans-35" transform="translate(95.410156 0)"/>
      </g>
     </g>
    </g>
    <g id="ytick_8">
     <g id="line2d_51">
      <path d="M 584.341212 246.189501 
L 948.749375 246.189501 
" clip-path="url(#pf9636e170b)" style="fill: none; stroke-dasharray: 1.85,0.8; stroke-dashoffset: 0; stroke: #b0b0b0; stroke-opacity: 0.3; stroke-width: 0.5"/>
     </g>
     <g id="line2d_52">
      <g>
       <use xlink:href="#m1c0f49dc91" x="584.341212" y="246.189501" style="stroke: #000000; stroke-width: 0.8"/>
      </g>
     </g>
     <g id="text_40">
      <!-- 1.0 -->
      <g transform="translate(555.076837 251.508407) scale(0.14 -0.14)">
       <use xlink:href="#DejaVuSans-31"/>
       <use xlink:href="#DejaVuSans-2e" transform="translate(63.623047 0)"/>
       <use xlink:href="#DejaVuSans-30" transform="translate(95.410156 0)"/>
      </g>
     </g>
    </g>
    <g id="ytick_9">
     <g id="line2d_53">
      <path d="M 584.341212 200.123809 
L 948.749375 200.123809 
" clip-path="url(#pf9636e170b)" style="fill: none; stroke-dasharray: 1.85,0.8; stroke-dashoffset: 0; stroke: #b0b0b0; stroke-opacity: 0.3; stroke-width: 0.5"/>
     </g>
     <g id="line2d_54">
      <g>
       <use xlink:href="#m1c0f49dc91" x="584.341212" y="200.123809" style="stroke: #000000; stroke-width: 0.8"/>
      </g>
     </g>
     <g id="text_41">
      <!-- 1.5 -->
      <g transform="translate(555.076837 205.442715) scale(0.14 -0.14)">
       <use xlink:href="#DejaVuSans-31"/>
       <use xlink:href="#DejaVuSans-2e" transform="translate(63.623047 0)"/>
       <use xlink:href="#DejaVuSans-35" transform="translate(95.410156 0)"/>
      </g>
     </g>
    </g>
    <g id="ytick_10">
     <g id="line2d_55">
      <path d="M 584.341212 154.058116 
L 948.749375 154.058116 
" clip-path="url(#pf9636e170b)" style="fill: none; stroke-dasharray: 1.85,0.8; stroke-dashoffset: 0; stroke: #b0b0b0; stroke-opacity: 0.3; stroke-width: 0.5"/>
     </g>
     <g id="line2d_56">
      <g>
       <use xlink:href="#m1c0f49dc91" x="584.341212" y="154.058116" style="stroke: #000000; stroke-width: 0.8"/>
      </g>
     </g>
     <g id="text_42">
      <!-- 2.0 -->
      <g transform="translate(555.076837 159.377022) scale(0.14 -0.14)">
       <use xlink:href="#DejaVuSans-32"/>
       <use xlink:href="#DejaVuSans-2e" transform="translate(63.623047 0)"/>
       <use xlink:href="#DejaVuSans-30" transform="translate(95.410156 0)"/>
      </g>
     </g>
    </g>
    <g id="ytick_11">
     <g id="line2d_57">
      <path d="M 584.341212 107.992423 
L 948.749375 107.992423 
" clip-path="url(#pf9636e170b)" style="fill: none; stroke-dasharray: 1.85,0.8; stroke-dashoffset: 0; stroke: #b0b0b0; stroke-opacity: 0.3; stroke-width: 0.5"/>
     </g>
     <g id="line2d_58">
      <g>
       <use xlink:href="#m1c0f49dc91" x="584.341212" y="107.992423" style="stroke: #000000; stroke-width: 0.8"/>
      </g>
     </g>
     <g id="text_43">
      <!-- 2.5 -->
      <g transform="translate(555.076837 113.311329) scale(0.14 -0.14)">
       <use xlink:href="#DejaVuSans-32"/>
       <use xlink:href="#DejaVuSans-2e" transform="translate(63.623047 0)"/>
       <use xlink:href="#DejaVuSans-35" transform="translate(95.410156 0)"/>
      </g>
     </g>
    </g>
    <g id="ytick_12">
     <g id="line2d_59">
      <path d="M 584.341212 61.92673 
L 948.749375 61.92673 
" clip-path="url(#pf9636e170b)" style="fill: none; stroke-dasharray: 1.85,0.8; stroke-dashoffset: 0; stroke: #b0b0b0; stroke-opacity: 0.3; stroke-width: 0.5"/>
     </g>
     <g id="line2d_60">
      <g>
       <use xlink:href="#m1c0f49dc91" x="584.341212" y="61.92673" style="stroke: #000000; stroke-width: 0.8"/>
      </g>
     </g>
     <g id="text_44">
      <!-- 3.0 -->
      <g transform="translate(555.076837 67.245637) scale(0.14 -0.14)">
       <use xlink:href="#DejaVuSans-33"/>
       <use xlink:href="#DejaVuSans-2e" transform="translate(63.623047 0)"/>
       <use xlink:href="#DejaVuSans-30" transform="translate(95.410156 0)"/>
      </g>
     </g>
    </g>
    <g id="text_45">
     <!-- Film Items Recalled -->
     <g transform="translate(547.749337 270.54875) rotate(-90) scale(0.16 -0.16)">
      <defs>
       <path id="DejaVuSans-46" d="M 628 4666 
L 3309 4666 
L 3309 4134 
L 1259 4134 
L 1259 2759 
L 3109 2759 
L 3109 2228 
L 1259 2228 
L 1259 0 
L 628 0 
L 628 4666 
z
" transform="scale(0.015625)"/>
       <path id="DejaVuSans-6d" d="M 3328 2828 
Q 3544 3216 3844 3400 
Q 4144 3584 4550 3584 
Q 5097 3584 5394 3201 
Q 5691 2819 5691 2113 
L 5691 0 
L 5113 0 
L 5113 2094 
Q 5113 2597 4934 2840 
Q 4756 3084 4391 3084 
Q 3944 3084 3684 2787 
Q 3425 2491 3425 1978 
L 3425 0 
L 2847 0 
L 2847 2094 
Q 2847 2600 2669 2842 
Q 2491 3084 2119 3084 
Q 1678 3084 1418 2786 
Q 1159 2488 1159 1978 
L 1159 0 
L 581 0 
L 581 3500 
L 1159 3500 
L 1159 2956 
Q 1356 3278 1631 3431 
Q 1906 3584 2284 3584 
Q 2666 3584 2933 3390 
Q 3200 3197 3328 2828 
z
" transform="scale(0.015625)"/>
       <path id="DejaVuSans-49" d="M 628 4666 
L 1259 4666 
L 1259 0 
L 628 0 
L 628 4666 
z
" transform="scale(0.015625)"/>
      </defs>
      <use xlink:href="#DejaVuSans-46"/>
      <use xlink:href="#DejaVuSans-69" transform="translate(50.269531 0)"/>
      <use xlink:href="#DejaVuSans-6c" transform="translate(78.052734 0)"/>
      <use xlink:href="#DejaVuSans-6d" transform="translate(105.835938 0)"/>
      <use xlink:href="#DejaVuSans-20" transform="translate(203.248047 0)"/>
      <use xlink:href="#DejaVuSans-49" transform="translate(235.035156 0)"/>
      <use xlink:href="#DejaVuSans-74" transform="translate(264.527344 0)"/>
      <use xlink:href="#DejaVuSans-65" transform="translate(303.736328 0)"/>
      <use xlink:href="#DejaVuSans-6d" transform="translate(365.259766 0)"/>
      <use xlink:href="#DejaVuSans-73" transform="translate(462.671875 0)"/>
      <use xlink:href="#DejaVuSans-20" transform="translate(514.771484 0)"/>
      <use xlink:href="#DejaVuSans-52" transform="translate(546.558594 0)"/>
      <use xlink:href="#DejaVuSans-65" transform="translate(611.541016 0)"/>
      <use xlink:href="#DejaVuSans-63" transform="translate(673.064453 0)"/>
      <use xlink:href="#DejaVuSans-61" transform="translate(728.044922 0)"/>
      <use xlink:href="#DejaVuSans-6c" transform="translate(789.324219 0)"/>
      <use xlink:href="#DejaVuSans-6c" transform="translate(817.107422 0)"/>
      <use xlink:href="#DejaVuSans-65" transform="translate(844.890625 0)"/>
      <use xlink:href="#DejaVuSans-64" transform="translate(906.414062 0)"/>
     </g>
    </g>
   </g>
   <g id="line2d_61">
    <path d="M 600.905219 281.506532 
L 637.714125 263.072935 
L 674.52303 239.747614 
L 711.331935 212.583478 
L 748.140841 187.795759 
L 784.949746 164.192569 
L 821.758651 126.133522 
L 858.567557 99.766394 
L 895.376462 87.043497 
L 932.185368 83.643406 
" clip-path="url(#pf9636e170b)" style="fill: none; stroke: #000000; stroke-width: 1.5; stroke-linecap: square"/>
    <defs>
     <path id="m900096c3cb" d="M 0 2.5 
C 0.663008 2.5 1.29895 2.236584 1.767767 1.767767 
C 2.236584 1.29895 2.5 0.663008 2.5 0 
C 2.5 -0.663008 2.236584 -1.29895 1.767767 -1.767767 
C 1.29895 -2.236584 0.663008 -2.5 0 -2.5 
C -0.663008 -2.5 -1.29895 -2.236584 -1.767767 -1.767767 
C -2.236584 -1.29895 -2.5 -0.663008 -2.5 0 
C -2.5 0.663008 -2.236584 1.29895 -1.767767 1.767767 
C -1.29895 2.236584 -0.663008 2.5 0 2.5 
z
" style="stroke: #000000"/>
    </defs>
    <g clip-path="url(#pf9636e170b)">
     <use xlink:href="#m900096c3cb" x="600.905219" y="281.506532" style="stroke: #000000"/>
     <use xlink:href="#m900096c3cb" x="637.714125" y="263.072935" style="stroke: #000000"/>
     <use xlink:href="#m900096c3cb" x="674.52303" y="239.747614" style="stroke: #000000"/>
     <use xlink:href="#m900096c3cb" x="711.331935" y="212.583478" style="stroke: #000000"/>
     <use xlink:href="#m900096c3cb" x="748.140841" y="187.795759" style="stroke: #000000"/>
     <use xlink:href="#m900096c3cb" x="784.949746" y="164.192569" style="stroke: #000000"/>
     <use xlink:href="#m900096c3cb" x="821.758651" y="126.133522" style="stroke: #000000"/>
     <use xlink:href="#m900096c3cb" x="858.567557" y="99.766394" style="stroke: #000000"/>
     <use xlink:href="#m900096c3cb" x="895.376462" y="87.043497" style="stroke: #000000"/>
     <use xlink:href="#m900096c3cb" x="932.185368" y="83.643406" style="stroke: #000000"/>
    </g>
   </g>
   <g id="patch_7">
    <path d="M 584.341212 331.5575 
L 584.341212 54.3575 
" style="fill: none; stroke: #000000; stroke-width: 0.8; stroke-linejoin: miter; stroke-linecap: square"/>
   </g>
   <g id="patch_8">
    <path d="M 584.341212 331.5575 
L 948.749375 331.5575 
" style="fill: none; stroke: #000000; stroke-width: 0.8; stroke-linejoin: miter; stroke-linecap: square"/>
   </g>
   <g id="text_46">
    <!-- Film Items Recalled -->
    <g transform="translate(688.954043 19.3575) scale(0.16 -0.16)">
     <use xlink:href="#DejaVuSans-46"/>
     <use xlink:href="#DejaVuSans-69" transform="translate(50.269531 0)"/>
     <use xlink:href="#DejaVuSans-6c" transform="translate(78.052734 0)"/>
     <use xlink:href="#DejaVuSans-6d" transform="translate(105.835938 0)"/>
     <use xlink:href="#DejaVuSans-20" transform="translate(203.248047 0)"/>
     <use xlink:href="#DejaVuSans-49" transform="translate(235.035156 0)"/>
     <use xlink:href="#DejaVuSans-74" transform="translate(264.527344 0)"/>
     <use xlink:href="#DejaVuSans-65" transform="translate(303.736328 0)"/>
     <use xlink:href="#DejaVuSans-6d" transform="translate(365.259766 0)"/>
     <use xlink:href="#DejaVuSans-73" transform="translate(462.671875 0)"/>
     <use xlink:href="#DejaVuSans-20" transform="translate(514.771484 0)"/>
     <use xlink:href="#DejaVuSans-52" transform="translate(546.558594 0)"/>
     <use xlink:href="#DejaVuSans-65" transform="translate(611.541016 0)"/>
     <use xlink:href="#DejaVuSans-63" transform="translate(673.064453 0)"/>
     <use xlink:href="#DejaVuSans-61" transform="translate(728.044922 0)"/>
     <use xlink:href="#DejaVuSans-6c" transform="translate(789.324219 0)"/>
     <use xlink:href="#DejaVuSans-6c" transform="translate(817.107422 0)"/>
     <use xlink:href="#DejaVuSans-65" transform="translate(844.890625 0)"/>
     <use xlink:href="#DejaVuSans-64" transform="translate(906.414062 0)"/>
    </g>
   </g>
  </g>
 </g>
 <defs>
  <clipPath id="p0db26f2ecd">
   <rect x="55.949375" y="54.3575" width="364.408163" height="277.2"/>
  </clipPath>
  <clipPath id="pf9636e170b">
   <rect x="584.341212" y="54.3575" width="364.408163" height="277.2"/>
  </clipPath>
 </defs>
</svg>
