<?xml version="1.0" encoding="utf-8" standalone="no"?>
<!DOCTYPE svg PUBLIC "-//W3C//DTD SVG 1.1//EN"
  "http://www.w3.org/Graphics/SVG/1.1/DTD/svg11.dtd">
<svg xmlns:xlink="http://www.w3.org/1999/xlink" width="955.949375pt" height="378.791875pt" viewBox="0 0 955.949375 378.791875" xmlns="http://www.w3.org/2000/svg" version="1.1">
 <metadata>
  <rdf:RDF xmlns:dc="http://purl.org/dc/elements/1.1/" xmlns:cc="http://creativecommons.org/ns#" xmlns:rdf="http://www.w3.org/1999/02/22-rdf-syntax-ns#">
   <cc:Work>
    <dc:type rdf:resource="http://purl.org/dc/dcmitype/StillImage"/>
    <dc:date>2026-03-03T09:58:25.815507</dc:date>
    <dc:format>image/svg+xml</dc:format>
    <dc:creator>
     <cc:Agent>
      <dc:title>Matplotlib v3.10.1, https://matplotlib.org/</dc:title>
     </cc:Agent>
    </dc:creator>
   </cc:Work>
  </rdf:RDF>
 </metadata>
 <defs>
  <style type="text/css">*{stroke-linejoin: round; stroke-linecap: butt}</style>
 </defs>
 <g id="figure_1">
  <g id="patch_1">
   <path d="M 0 378.791875 
L 955.949375 378.791875 
L 955.949375 0 
L 0 0 
z
" style="fill: #ffffff"/>
  </g>
  <g id="axes_1">
   <g id="patch_2">
    <path d="M 55.949375 331.5575 
L 420.357538 331.5575 
L 420.357538 54.3575 
L 55.949375 54.3575 
z
" style="fill: #ffffff"/>
   </g>
   <g id="matplotlib.axis_1">
    <g id="xtick_1">
     <g id="line2d_1">
      <defs>
       <path id="m1b5ce9df95" d="M 0 0 
L 0 3.5 
" style="stroke: #000000; stroke-width: 0.8"/>
      </defs>
      <g>
       <use xlink:href="#m1b5ce9df95" x="67.254967" y="331.5575" style="stroke: #000000; stroke-width: 0.8"/>
      </g>
     </g>
     <g id="text_1">
      <!-- 0 -->
      <g transform="translate(62.801217 349.195312) scale(0.14 -0.14)">
       <defs>
        <path id="DejaVuSans-30" d="M 2034 4250 
Q 1547 4250 1301 3770 
Q 1056 3291 1056 2328 
Q 1056 1369 1301 889 
Q 1547 409 2034 409 
Q 2525 409 2770 889 
Q 3016 1369 3016 2328 
Q 3016 3291 2770 3770 
Q 2525 4250 2034 4250 
z
M 2034 4750 
Q 2819 4750 3233 4129 
Q 3647 3509 3647 2328 
Q 3647 1150 3233 529 
Q 2819 -91 2034 -91 
Q 1250 -91 836 529 
Q 422 1150 422 2328 
Q 422 3509 836 4129 
Q 1250 4750 2034 4750 
z
" transform="scale(0.015625)"/>
       </defs>
       <use xlink:href="#DejaVuSans-30"/>
      </g>
     </g>
    </g>
    <g id="xtick_2">
     <g id="line2d_2">
      <g>
       <use xlink:href="#m1b5ce9df95" x="119.839118" y="331.5575" style="stroke: #000000; stroke-width: 0.8"/>
      </g>
     </g>
     <g id="text_2">
      <!-- 10 -->
      <g transform="translate(110.931618 349.195312) scale(0.14 -0.14)">
       <defs>
        <path id="DejaVuSans-31" d="M 794 531 
L 1825 531 
L 1825 4091 
L 703 3866 
L 703 4441 
L 1819 4666 
L 2450 4666 
L 2450 531 
L 3481 531 
L 3481 0 
L 794 0 
L 794 531 
z
" transform="scale(0.015625)"/>
       </defs>
       <use xlink:href="#DejaVuSans-31"/>
       <use xlink:href="#DejaVuSans-30" transform="translate(63.623047 0)"/>
      </g>
     </g>
    </g>
    <g id="xtick_3">
     <g id="line2d_3">
      <g>
       <use xlink:href="#m1b5ce9df95" x="172.423268" y="331.5575" style="stroke: #000000; stroke-width: 0.8"/>
      </g>
     </g>
     <g id="text_3">
      <!-- 20 -->
      <g transform="translate(163.515768 349.195312) scale(0.14 -0.14)">
       <defs>
        <path id="DejaVuSans-32" d="M 1228 531 
L 3431 531 
L 3431 0 
L 469 0 
L 469 531 
Q 828 903 1448 1529 
Q 2069 2156 2228 2338 
Q 2531 2678 2651 2914 
Q 2772 3150 2772 3378 
Q 2772 3750 2511 3984 
Q 2250 4219 1831 4219 
Q 1534 4219 1204 4116 
Q 875 4013 500 3803 
L 500 4441 
Q 881 4594 1212 4672 
Q 1544 4750 1819 4750 
Q 2544 4750 2975 4387 
Q 3406 4025 3406 3419 
Q 3406 3131 3298 2873 
Q 3191 2616 2906 2266 
Q 2828 2175 2409 1742 
Q 1991 1309 1228 531 
z
" transform="scale(0.015625)"/>
       </defs>
       <use xlink:href="#DejaVuSans-32"/>
       <use xlink:href="#DejaVuSans-30" transform="translate(63.623047 0)"/>
      </g>
     </g>
    </g>
    <g id="xtick_4">
     <g id="line2d_4">
      <g>
       <use xlink:href="#m1b5ce9df95" x="225.007419" y="331.5575" style="stroke: #000000; stroke-width: 0.8"/>
      </g>
     </g>
     <g id="text_4">
      <!-- 30 -->
      <g transform="translate(216.099919 349.195312) scale(0.14 -0.14)">
       <defs>
        <path id="DejaVuSans-33" d="M 2597 2516 
Q 3050 2419 3304 2112 
Q 3559 1806 3559 1356 
Q 3559 666 3084 287 
Q 2609 -91 1734 -91 
Q 1441 -91 1130 -33 
Q 819 25 488 141 
L 488 750 
Q 750 597 1062 519 
Q 1375 441 1716 441 
Q 2309 441 2620 675 
Q 2931 909 2931 1356 
Q 2931 1769 2642 2001 
Q 2353 2234 1838 2234 
L 1294 2234 
L 1294 2753 
L 1863 2753 
Q 2328 2753 2575 2939 
Q 2822 3125 2822 3475 
Q 2822 3834 2567 4026 
Q 2313 4219 1838 4219 
Q 1578 4219 1281 4162 
Q 984 4106 628 3988 
L 628 4550 
Q 988 4650 1302 4700 
Q 1616 4750 1894 4750 
Q 2613 4750 3031 4423 
Q 3450 4097 3450 3541 
Q 3450 3153 3228 2886 
Q 3006 2619 2597 2516 
z
" transform="scale(0.015625)"/>
       </defs>
       <use xlink:href="#DejaVuSans-33"/>
       <use xlink:href="#DejaVuSans-30" transform="translate(63.623047 0)"/>
      </g>
     </g>
    </g>
    <g id="xtick_5">
     <g id="line2d_5">
      <g>
       <use xlink:href="#m1b5ce9df95" x="277.59157" y="331.5575" style="stroke: #000000; stroke-width: 0.8"/>
      </g>
     </g>
     <g id="text_5">
      <!-- 40 -->
      <g transform="translate(268.68407 349.195312) scale(0.14 -0.14)">
       <defs>
        <path id="DejaVuSans-34" d="M 2419 4116 
L 825 1625 
L 2419 1625 
L 2419 4116 
z
M 2253 4666 
L 3047 4666 
L 3047 1625 
L 3713 1625 
L 3713 1100 
L 3047 1100 
L 3047 0 
L 2419 0 
L 2419 1100 
L 313 1100 
L 313 1709 
L 2253 4666 
z
" transform="scale(0.015625)"/>
       </defs>
       <use xlink:href="#DejaVuSans-34"/>
       <use xlink:href="#DejaVuSans-30" transform="translate(63.623047 0)"/>
      </g>
     </g>
    </g>
    <g id="xtick_6">
     <g id="line2d_6">
      <g>
       <use xlink:href="#m1b5ce9df95" x="330.17572" y="331.5575" style="stroke: #000000; stroke-width: 0.8"/>
      </g>
     </g>
     <g id="text_6">
      <!-- 50 -->
      <g transform="translate(321.26822 349.195312) scale(0.14 -0.14)">
       <defs>
        <path id="DejaVuSans-35" d="M 691 4666 
L 3169 4666 
L 3169 4134 
L 1269 4134 
L 1269 2991 
Q 1406 3038 1543 3061 
Q 1681 3084 1819 3084 
Q 2600 3084 3056 2656 
Q 3513 2228 3513 1497 
Q 3513 744 3044 326 
Q 2575 -91 1722 -91 
Q 1428 -91 1123 -41 
Q 819 9 494 109 
L 494 744 
Q 775 591 1075 516 
Q 1375 441 1709 441 
Q 2250 441 2565 725 
Q 2881 1009 2881 1497 
Q 2881 1984 2565 2268 
Q 2250 2553 1709 2553 
Q 1456 2553 1204 2497 
Q 953 2441 691 2322 
L 691 4666 
z
" transform="scale(0.015625)"/>
       </defs>
       <use xlink:href="#DejaVuSans-35"/>
       <use xlink:href="#DejaVuSans-30" transform="translate(63.623047 0)"/>
      </g>
     </g>
    </g>
    <g id="xtick_7">
     <g id="line2d_7">
      <g>
       <use xlink:href="#m1b5ce9df95" x="382.759871" y="331.5575" style="stroke: #000000; stroke-width: 0.8"/>
      </g>
     </g>
     <g id="text_7">
      <!-- 60 -->
      <g transform="translate(373.852371 349.195312) scale(0.14 -0.14)">
       <defs>
        <path id="DejaVuSans-36" d="M 2113 2584 
Q 1688 2584 1439 2293 
Q 1191 2003 1191 1497 
Q 1191 994 1439 701 
Q 1688 409 2113 409 
Q 2538 409 2786 701 
Q 3034 994 3034 1497 
Q 3034 2003 2786 2293 
Q 2538 2584 2113 2584 
z
M 3366 4563 
L 3366 3988 
Q 3128 4100 2886 4159 
Q 2644 4219 2406 4219 
Q 1781 4219 1451 3797 
Q 1122 3375 1075 2522 
Q 1259 2794 1537 2939 
Q 1816 3084 2150 3084 
Q 2853 3084 3261 2657 
Q 3669 2231 3669 1497 
Q 3669 778 3244 343 
Q 2819 -91 2113 -91 
Q 1303 -91 875 529 
Q 447 1150 447 2328 
Q 447 3434 972 4092 
Q 1497 4750 2381 4750 
Q 2619 4750 2861 4703 
Q 3103 4656 3366 4563 
z
" transform="scale(0.015625)"/>
       </defs>
       <use xlink:href="#DejaVuSans-36"/>
       <use xlink:href="#DejaVuSans-30" transform="translate(63.623047 0)"/>
      </g>
     </g>
    </g>
    <g id="text_8">
     <!-- Study Position -->
     <g transform="translate(181.369707 368.264375) scale(0.16 -0.16)">
      <defs>
       <path id="DejaVuSans-53" d="M 3425 4513 
L 3425 3897 
Q 3066 4069 2747 4153 
Q 2428 4238 2131 4238 
Q 1616 4238 1336 4038 
Q 1056 3838 1056 3469 
Q 1056 3159 1242 3001 
Q 1428 2844 1947 2747 
L 2328 2669 
Q 3034 2534 3370 2195 
Q 3706 1856 3706 1288 
Q 3706 609 3251 259 
Q 2797 -91 1919 -91 
Q 1588 -91 1214 -16 
Q 841 59 441 206 
L 441 856 
Q 825 641 1194 531 
Q 1563 422 1919 422 
Q 2459 422 2753 634 
Q 3047 847 3047 1241 
Q 3047 1584 2836 1778 
Q 2625 1972 2144 2069 
L 1759 2144 
Q 1053 2284 737 2584 
Q 422 2884 422 3419 
Q 422 4038 858 4394 
Q 1294 4750 2059 4750 
Q 2388 4750 2728 4690 
Q 3069 4631 3425 4513 
z
" transform="scale(0.015625)"/>
       <path id="DejaVuSans-74" d="M 1172 4494 
L 1172 3500 
L 2356 3500 
L 2356 3053 
L 1172 3053 
L 1172 1153 
Q 1172 725 1289 603 
Q 1406 481 1766 481 
L 2356 481 
L 2356 0 
L 1766 0 
Q 1100 0 847 248 
Q 594 497 594 1153 
L 594 3053 
L 172 3053 
L 172 3500 
L 594 3500 
L 594 4494 
L 1172 4494 
z
" transform="scale(0.015625)"/>
       <path id="DejaVuSans-75" d="M 544 1381 
L 544 3500 
L 1119 3500 
L 1119 1403 
Q 1119 906 1312 657 
Q 1506 409 1894 409 
Q 2359 409 2629 706 
Q 2900 1003 2900 1516 
L 2900 3500 
L 3475 3500 
L 3475 0 
L 2900 0 
L 2900 538 
Q 2691 219 2414 64 
Q 2138 -91 1772 -91 
Q 1169 -91 856 284 
Q 544 659 544 1381 
z
M 1991 3584 
L 1991 3584 
z
" transform="scale(0.015625)"/>
       <path id="DejaVuSans-64" d="M 2906 2969 
L 2906 4863 
L 3481 4863 
L 3481 0 
L 2906 0 
L 2906 525 
Q 2725 213 2448 61 
Q 2172 -91 1784 -91 
Q 1150 -91 751 415 
Q 353 922 353 1747 
Q 353 2572 751 3078 
Q 1150 3584 1784 3584 
Q 2172 3584 2448 3432 
Q 2725 3281 2906 2969 
z
M 947 1747 
Q 947 1113 1208 752 
Q 1469 391 1925 391 
Q 2381 391 2643 752 
Q 2906 1113 2906 1747 
Q 2906 2381 2643 2742 
Q 2381 3103 1925 3103 
Q 1469 3103 1208 2742 
Q 947 2381 947 1747 
z
" transform="scale(0.015625)"/>
       <path id="DejaVuSans-79" d="M 2059 -325 
Q 1816 -950 1584 -1140 
Q 1353 -1331 966 -1331 
L 506 -1331 
L 506 -850 
L 844 -850 
Q 1081 -850 1212 -737 
Q 1344 -625 1503 -206 
L 1606 56 
L 191 3500 
L 800 3500 
L 1894 763 
L 2988 3500 
L 3597 3500 
L 2059 -325 
z
" transform="scale(0.015625)"/>
       <path id="DejaVuSans-20" transform="scale(0.015625)"/>
       <path id="DejaVuSans-50" d="M 1259 4147 
L 1259 2394 
L 2053 2394 
Q 2494 2394 2734 2622 
Q 2975 2850 2975 3272 
Q 2975 3691 2734 3919 
Q 2494 4147 2053 4147 
L 1259 4147 
z
M 628 4666 
L 2053 4666 
Q 2838 4666 3239 4311 
Q 3641 3956 3641 3272 
Q 3641 2581 3239 2228 
Q 2838 1875 2053 1875 
L 1259 1875 
L 1259 0 
L 628 0 
L 628 4666 
z
" transform="scale(0.015625)"/>
       <path id="DejaVuSans-6f" d="M 1959 3097 
Q 1497 3097 1228 2736 
Q 959 2375 959 1747 
Q 959 1119 1226 758 
Q 1494 397 1959 397 
Q 2419 397 2687 759 
Q 2956 1122 2956 1747 
Q 2956 2369 2687 2733 
Q 2419 3097 1959 3097 
z
M 1959 3584 
Q 2709 3584 3137 3096 
Q 3566 2609 3566 1747 
Q 3566 888 3137 398 
Q 2709 -91 1959 -91 
Q 1206 -91 779 398 
Q 353 888 353 1747 
Q 353 2609 779 3096 
Q 1206 3584 1959 3584 
z
" transform="scale(0.015625)"/>
       <path id="DejaVuSans-73" d="M 2834 3397 
L 2834 2853 
Q 2591 2978 2328 3040 
Q 2066 3103 1784 3103 
Q 1356 3103 1142 2972 
Q 928 2841 928 2578 
Q 928 2378 1081 2264 
Q 1234 2150 1697 2047 
L 1894 2003 
Q 2506 1872 2764 1633 
Q 3022 1394 3022 966 
Q 3022 478 2636 193 
Q 2250 -91 1575 -91 
Q 1294 -91 989 -36 
Q 684 19 347 128 
L 347 722 
Q 666 556 975 473 
Q 1284 391 1588 391 
Q 1994 391 2212 530 
Q 2431 669 2431 922 
Q 2431 1156 2273 1281 
Q 2116 1406 1581 1522 
L 1381 1569 
Q 847 1681 609 1914 
Q 372 2147 372 2553 
Q 372 3047 722 3315 
Q 1072 3584 1716 3584 
Q 2034 3584 2315 3537 
Q 2597 3491 2834 3397 
z
" transform="scale(0.015625)"/>
       <path id="DejaVuSans-69" d="M 603 3500 
L 1178 3500 
L 1178 0 
L 603 0 
L 603 3500 
z
M 603 4863 
L 1178 4863 
L 1178 4134 
L 603 4134 
L 603 4863 
z
" transform="scale(0.015625)"/>
       <path id="DejaVuSans-6e" d="M 3513 2113 
L 3513 0 
L 2938 0 
L 2938 2094 
Q 2938 2591 2744 2837 
Q 2550 3084 2163 3084 
Q 1697 3084 1428 2787 
Q 1159 2491 1159 1978 
L 1159 0 
L 581 0 
L 581 3500 
L 1159 3500 
L 1159 2956 
Q 1366 3272 1645 3428 
Q 1925 3584 2291 3584 
Q 2894 3584 3203 3211 
Q 3513 2838 3513 2113 
z
" transform="scale(0.015625)"/>
      </defs>
      <use xlink:href="#DejaVuSans-53"/>
      <use xlink:href="#DejaVuSans-74" transform="translate(63.476562 0)"/>
      <use xlink:href="#DejaVuSans-75" transform="translate(102.685547 0)"/>
      <use xlink:href="#DejaVuSans-64" transform="translate(166.064453 0)"/>
      <use xlink:href="#DejaVuSans-79" transform="translate(229.541016 0)"/>
      <use xlink:href="#DejaVuSans-20" transform="translate(288.720703 0)"/>
      <use xlink:href="#DejaVuSans-50" transform="translate(320.507812 0)"/>
      <use xlink:href="#DejaVuSans-6f" transform="translate(377.185547 0)"/>
      <use xlink:href="#DejaVuSans-73" transform="translate(438.367188 0)"/>
      <use xlink:href="#DejaVuSans-69" transform="translate(490.466797 0)"/>
      <use xlink:href="#DejaVuSans-74" transform="translate(518.25 0)"/>
      <use xlink:href="#DejaVuSans-69" transform="translate(557.458984 0)"/>
      <use xlink:href="#DejaVuSans-6f" transform="translate(585.242188 0)"/>
      <use xlink:href="#DejaVuSans-6e" transform="translate(646.423828 0)"/>
     </g>
    </g>
   </g>
   <g id="matplotlib.axis_2">
    <g id="ytick_1">
     <g id="line2d_8">
      <path d="M 55.949375 319.018993 
L 420.357538 319.018993 
" clip-path="url(#pe32517935d)" style="fill: none; stroke-dasharray: 1.85,0.8; stroke-dashoffset: 0; stroke: #b0b0b0; stroke-opacity: 0.3; stroke-width: 0.5"/>
     </g>
     <g id="line2d_9">
      <defs>
       <path id="m518e556706" d="M 0 0 
L -3.5 0 
" style="stroke: #000000; stroke-width: 0.8"/>
      </defs>
      <g>
       <use xlink:href="#m518e556706" x="55.949375" y="319.018993" style="stroke: #000000; stroke-width: 0.8"/>
      </g>
     </g>
     <g id="text_9">
      <!-- 0.0 -->
      <g transform="translate(26.685 324.3379) scale(0.14 -0.14)">
       <defs>
        <path id="DejaVuSans-2e" d="M 684 794 
L 1344 794 
L 1344 0 
L 684 0 
L 684 794 
z
" transform="scale(0.015625)"/>
       </defs>
       <use xlink:href="#DejaVuSans-30"/>
       <use xlink:href="#DejaVuSans-2e" transform="translate(63.623047 0)"/>
       <use xlink:href="#DejaVuSans-30" transform="translate(95.410156 0)"/>
      </g>
     </g>
    </g>
    <g id="ytick_2">
     <g id="line2d_10">
      <path d="M 55.949375 280.278146 
L 420.357538 280.278146 
" clip-path="url(#pe32517935d)" style="fill: none; stroke-dasharray: 1.85,0.8; stroke-dashoffset: 0; stroke: #b0b0b0; stroke-opacity: 0.3; stroke-width: 0.5"/>
     </g>
     <g id="line2d_11">
      <g>
       <use xlink:href="#m518e556706" x="55.949375" y="280.278146" style="stroke: #000000; stroke-width: 0.8"/>
      </g>
     </g>
     <g id="text_10">
      <!-- 0.1 -->
      <g transform="translate(26.685 285.597052) scale(0.14 -0.14)">
       <use xlink:href="#DejaVuSans-30"/>
       <use xlink:href="#DejaVuSans-2e" transform="translate(63.623047 0)"/>
       <use xlink:href="#DejaVuSans-31" transform="translate(95.410156 0)"/>
      </g>
     </g>
    </g>
    <g id="ytick_3">
     <g id="line2d_12">
      <path d="M 55.949375 241.537298 
L 420.357538 241.537298 
" clip-path="url(#pe32517935d)" style="fill: none; stroke-dasharray: 1.85,0.8; stroke-dashoffset: 0; stroke: #b0b0b0; stroke-opacity: 0.3; stroke-width: 0.5"/>
     </g>
     <g id="line2d_13">
      <g>
       <use xlink:href="#m518e556706" x="55.949375" y="241.537298" style="stroke: #000000; stroke-width: 0.8"/>
      </g>
     </g>
     <g id="text_11">
      <!-- 0.2 -->
      <g transform="translate(26.685 246.856204) scale(0.14 -0.14)">
       <use xlink:href="#DejaVuSans-30"/>
       <use xlink:href="#DejaVuSans-2e" transform="translate(63.623047 0)"/>
       <use xlink:href="#DejaVuSans-32" transform="translate(95.410156 0)"/>
      </g>
     </g>
    </g>
    <g id="ytick_4">
     <g id="line2d_14">
      <path d="M 55.949375 202.79645 
L 420.357538 202.79645 
" clip-path="url(#pe32517935d)" style="fill: none; stroke-dasharray: 1.85,0.8; stroke-dashoffset: 0; stroke: #b0b0b0; stroke-opacity: 0.3; stroke-width: 0.5"/>
     </g>
     <g id="line2d_15">
      <g>
       <use xlink:href="#m518e556706" x="55.949375" y="202.79645" style="stroke: #000000; stroke-width: 0.8"/>
      </g>
     </g>
     <g id="text_12">
      <!-- 0.3 -->
      <g transform="translate(26.685 208.115356) scale(0.14 -0.14)">
       <use xlink:href="#DejaVuSans-30"/>
       <use xlink:href="#DejaVuSans-2e" transform="translate(63.623047 0)"/>
       <use xlink:href="#DejaVuSans-33" transform="translate(95.410156 0)"/>
      </g>
     </g>
    </g>
    <g id="ytick_5">
     <g id="line2d_16">
      <path d="M 55.949375 164.055602 
L 420.357538 164.055602 
" clip-path="url(#pe32517935d)" style="fill: none; stroke-dasharray: 1.85,0.8; stroke-dashoffset: 0; stroke: #b0b0b0; stroke-opacity: 0.3; stroke-width: 0.5"/>
     </g>
     <g id="line2d_17">
      <g>
       <use xlink:href="#m518e556706" x="55.949375" y="164.055602" style="stroke: #000000; stroke-width: 0.8"/>
      </g>
     </g>
     <g id="text_13">
      <!-- 0.4 -->
      <g transform="translate(26.685 169.374509) scale(0.14 -0.14)">
       <use xlink:href="#DejaVuSans-30"/>
       <use xlink:href="#DejaVuSans-2e" transform="translate(63.623047 0)"/>
       <use xlink:href="#DejaVuSans-34" transform="translate(95.410156 0)"/>
      </g>
     </g>
    </g>
    <g id="ytick_6">
     <g id="line2d_18">
      <path d="M 55.949375 125.314755 
L 420.357538 125.314755 
" clip-path="url(#pe32517935d)" style="fill: none; stroke-dasharray: 1.85,0.8; stroke-dashoffset: 0; stroke: #b0b0b0; stroke-opacity: 0.3; stroke-width: 0.5"/>
     </g>
     <g id="line2d_19">
      <g>
       <use xlink:href="#m518e556706" x="55.949375" y="125.314755" style="stroke: #000000; stroke-width: 0.8"/>
      </g>
     </g>
     <g id="text_14">
      <!-- 0.5 -->
      <g transform="translate(26.685 130.633661) scale(0.14 -0.14)">
       <use xlink:href="#DejaVuSans-30"/>
       <use xlink:href="#DejaVuSans-2e" transform="translate(63.623047 0)"/>
       <use xlink:href="#DejaVuSans-35" transform="translate(95.410156 0)"/>
      </g>
     </g>
    </g>
    <g id="ytick_7">
     <g id="line2d_20">
      <path d="M 55.949375 86.573907 
L 420.357538 86.573907 
" clip-path="url(#pe32517935d)" style="fill: none; stroke-dasharray: 1.85,0.8; stroke-dashoffset: 0; stroke: #b0b0b0; stroke-opacity: 0.3; stroke-width: 0.5"/>
     </g>
     <g id="line2d_21">
      <g>
       <use xlink:href="#m518e556706" x="55.949375" y="86.573907" style="stroke: #000000; stroke-width: 0.8"/>
      </g>
     </g>
     <g id="text_15">
      <!-- 0.6 -->
      <g transform="translate(26.685 91.892813) scale(0.14 -0.14)">
       <use xlink:href="#DejaVuSans-30"/>
       <use xlink:href="#DejaVuSans-2e" transform="translate(63.623047 0)"/>
       <use xlink:href="#DejaVuSans-36" transform="translate(95.410156 0)"/>
      </g>
     </g>
    </g>
    <g id="text_16">
     <!-- Recall Probability -->
     <g transform="translate(19.3575 261.65375) rotate(-90) scale(0.16 -0.16)">
      <defs>
       <path id="DejaVuSans-52" d="M 2841 2188 
Q 3044 2119 3236 1894 
Q 3428 1669 3622 1275 
L 4263 0 
L 3584 0 
L 2988 1197 
Q 2756 1666 2539 1819 
Q 2322 1972 1947 1972 
L 1259 1972 
L 1259 0 
L 628 0 
L 628 4666 
L 2053 4666 
Q 2853 4666 3247 4331 
Q 3641 3997 3641 3322 
Q 3641 2881 3436 2590 
Q 3231 2300 2841 2188 
z
M 1259 4147 
L 1259 2491 
L 2053 2491 
Q 2509 2491 2742 2702 
Q 2975 2913 2975 3322 
Q 2975 3731 2742 3939 
Q 2509 4147 2053 4147 
L 1259 4147 
z
" transform="scale(0.015625)"/>
       <path id="DejaVuSans-65" d="M 3597 1894 
L 3597 1613 
L 953 1613 
Q 991 1019 1311 708 
Q 1631 397 2203 397 
Q 2534 397 2845 478 
Q 3156 559 3463 722 
L 3463 178 
Q 3153 47 2828 -22 
Q 2503 -91 2169 -91 
Q 1331 -91 842 396 
Q 353 884 353 1716 
Q 353 2575 817 3079 
Q 1281 3584 2069 3584 
Q 2775 3584 3186 3129 
Q 3597 2675 3597 1894 
z
M 3022 2063 
Q 3016 2534 2758 2815 
Q 2500 3097 2075 3097 
Q 1594 3097 1305 2825 
Q 1016 2553 972 2059 
L 3022 2063 
z
" transform="scale(0.015625)"/>
       <path id="DejaVuSans-63" d="M 3122 3366 
L 3122 2828 
Q 2878 2963 2633 3030 
Q 2388 3097 2138 3097 
Q 1578 3097 1268 2742 
Q 959 2388 959 1747 
Q 959 1106 1268 751 
Q 1578 397 2138 397 
Q 2388 397 2633 464 
Q 2878 531 3122 666 
L 3122 134 
Q 2881 22 2623 -34 
Q 2366 -91 2075 -91 
Q 1284 -91 818 406 
Q 353 903 353 1747 
Q 353 2603 823 3093 
Q 1294 3584 2113 3584 
Q 2378 3584 2631 3529 
Q 2884 3475 3122 3366 
z
" transform="scale(0.015625)"/>
       <path id="DejaVuSans-61" d="M 2194 1759 
Q 1497 1759 1228 1600 
Q 959 1441 959 1056 
Q 959 750 1161 570 
Q 1363 391 1709 391 
Q 2188 391 2477 730 
Q 2766 1069 2766 1631 
L 2766 1759 
L 2194 1759 
z
M 3341 1997 
L 3341 0 
L 2766 0 
L 2766 531 
Q 2569 213 2275 61 
Q 1981 -91 1556 -91 
Q 1019 -91 701 211 
Q 384 513 384 1019 
Q 384 1609 779 1909 
Q 1175 2209 1959 2209 
L 2766 2209 
L 2766 2266 
Q 2766 2663 2505 2880 
Q 2244 3097 1772 3097 
Q 1472 3097 1187 3025 
Q 903 2953 641 2809 
L 641 3341 
Q 956 3463 1253 3523 
Q 1550 3584 1831 3584 
Q 2591 3584 2966 3190 
Q 3341 2797 3341 1997 
z
" transform="scale(0.015625)"/>
       <path id="DejaVuSans-6c" d="M 603 4863 
L 1178 4863 
L 1178 0 
L 603 0 
L 603 4863 
z
" transform="scale(0.015625)"/>
       <path id="DejaVuSans-72" d="M 2631 2963 
Q 2534 3019 2420 3045 
Q 2306 3072 2169 3072 
Q 1681 3072 1420 2755 
Q 1159 2438 1159 1844 
L 1159 0 
L 581 0 
L 581 3500 
L 1159 3500 
L 1159 2956 
Q 1341 3275 1631 3429 
Q 1922 3584 2338 3584 
Q 2397 3584 2469 3576 
Q 2541 3569 2628 3553 
L 2631 2963 
z
" transform="scale(0.015625)"/>
       <path id="DejaVuSans-62" d="M 3116 1747 
Q 3116 2381 2855 2742 
Q 2594 3103 2138 3103 
Q 1681 3103 1420 2742 
Q 1159 2381 1159 1747 
Q 1159 1113 1420 752 
Q 1681 391 2138 391 
Q 2594 391 2855 752 
Q 3116 1113 3116 1747 
z
M 1159 2969 
Q 1341 3281 1617 3432 
Q 1894 3584 2278 3584 
Q 2916 3584 3314 3078 
Q 3713 2572 3713 1747 
Q 3713 922 3314 415 
Q 2916 -91 2278 -91 
Q 1894 -91 1617 61 
Q 1341 213 1159 525 
L 1159 0 
L 581 0 
L 581 4863 
L 1159 4863 
L 1159 2969 
z
" transform="scale(0.015625)"/>
      </defs>
      <use xlink:href="#DejaVuSans-52"/>
      <use xlink:href="#DejaVuSans-65" transform="translate(64.982422 0)"/>
      <use xlink:href="#DejaVuSans-63" transform="translate(126.505859 0)"/>
      <use xlink:href="#DejaVuSans-61" transform="translate(181.486328 0)"/>
      <use xlink:href="#DejaVuSans-6c" transform="translate(242.765625 0)"/>
      <use xlink:href="#DejaVuSans-6c" transform="translate(270.548828 0)"/>
      <use xlink:href="#DejaVuSans-20" transform="translate(298.332031 0)"/>
      <use xlink:href="#DejaVuSans-50" transform="translate(330.119141 0)"/>
      <use xlink:href="#DejaVuSans-72" transform="translate(388.671875 0)"/>
      <use xlink:href="#DejaVuSans-6f" transform="translate(427.535156 0)"/>
      <use xlink:href="#DejaVuSans-62" transform="translate(488.716797 0)"/>
      <use xlink:href="#DejaVuSans-61" transform="translate(552.193359 0)"/>
      <use xlink:href="#DejaVuSans-62" transform="translate(613.472656 0)"/>
      <use xlink:href="#DejaVuSans-69" transform="translate(676.949219 0)"/>
      <use xlink:href="#DejaVuSans-6c" transform="translate(704.732422 0)"/>
      <use xlink:href="#DejaVuSans-69" transform="translate(732.515625 0)"/>
      <use xlink:href="#DejaVuSans-74" transform="translate(760.298828 0)"/>
      <use xlink:href="#DejaVuSans-79" transform="translate(799.507812 0)"/>
     </g>
    </g>
   </g>
   <g id="line2d_22">
    <path d="M 72.513382 315.144909 
L 77.771797 316.374777 
L 83.030213 317.604645 
L 88.288628 318.404059 
L 93.547043 318.742273 
L 98.805458 318.834513 
L 104.063873 318.9575 
L 109.322288 318.9575 
M 119.839118 318.9575 
M 130.355948 318.926753 
L 135.614363 318.803766 
L 140.872778 318.926753 
L 146.131193 318.650033 
L 151.389608 318.311819 
L 156.648023 247.010211 
L 161.906438 248.209333 
L 167.164853 247.040957 
L 172.423268 246.057064 
L 177.681684 249.00875 
L 182.940099 250.638323 
L 188.198514 248.732029 
L 193.456929 245.44213 
L 198.715344 247.563653 
L 203.973759 248.855013 
L 209.232174 248.916505 
L 214.490589 249.685176 
L 219.749004 247.532907 
L 225.007419 248.762775 
L 230.265834 249.777414 
L 235.524249 252.821338 
L 240.782664 213.281082 
L 246.041079 204.917974 
L 251.299494 195.109776 
L 256.557909 187.853551 
L 261.816324 184.563658 
L 267.074739 177.922368 
L 272.333154 176.323535 
L 277.59157 172.234231 
L 282.849985 169.743737 
L 288.1084 166.699825 
L 293.366815 165.223976 
L 298.62523 166.207875 
L 303.883645 164.270834 
L 309.14206 168.452377 
L 314.400475 167.191763 
L 319.65889 171.742281 
L 324.917305 227.42456 
L 330.17572 241.014601 
L 335.434135 241.506551 
L 340.69255 239.139053 
L 345.950965 242.705673 
L 351.20938 241.076099 
L 356.467795 238.770093 
L 361.72621 242.613434 
L 366.984625 236.833053 
L 372.243041 235.818413 
L 377.501456 231.63686 
L 382.759871 227.363067 
L 388.018286 215.55633 
L 393.276701 199.906263 
L 398.535116 156.645645 
L 403.793531 67.418703 
" clip-path="url(#pe32517935d)" style="fill: none; stroke: #bfbfbf; stroke-width: 1.5; stroke-linecap: square"/>
   </g>
   <g id="line2d_23">
    <path d="M 72.513382 315.329389 
L 77.771797 316.25179 
L 83.030213 317.635392 
L 88.288628 318.219579 
L 93.547043 318.434806 
L 98.805458 318.619286 
L 104.063873 318.68078 
L 109.322288 318.86526 
L 114.580703 318.834513 
L 119.839118 318.711526 
L 125.097533 318.834513 
L 130.355948 318.711526 
L 135.614363 318.711526 
L 140.872778 318.496299 
L 146.131193 318.250326 
L 151.389608 318.035099 
L 156.648023 245.042424 
L 161.906438 249.193226 
L 167.164853 249.931151 
L 172.423268 250.238618 
L 177.681684 248.02485 
L 182.940099 248.670531 
L 188.198514 247.655891 
L 193.456929 248.455308 
L 198.715344 249.223972 
L 203.973759 247.317678 
L 209.232174 249.80816 
L 214.490589 249.777414 
L 219.749004 248.977998 
L 225.007419 249.531439 
L 230.265834 249.408455 
L 235.524249 252.913577 
L 240.782664 213.404067 
L 246.041079 204.856482 
L 251.299494 193.141989 
L 256.557909 190.682253 
L 261.816324 184.225439 
L 267.074739 175.524124 
L 272.333154 174.048287 
L 277.59157 170.850621 
L 282.849985 166.546082 
L 288.1084 165.254722 
L 293.366815 164.240088 
L 298.62523 164.793519 
L 303.883645 168.636865 
L 309.14206 165.654433 
L 314.400475 167.406997 
L 319.65889 171.373316 
L 324.917305 227.147839 
L 330.17572 240.307429 
L 335.434135 241.660287 
L 340.69255 244.273754 
L 345.950965 245.780343 
L 351.20938 239.969215 
L 356.467795 243.412845 
L 361.72621 239.907723 
L 366.984625 238.80084 
L 372.243041 238.954576 
L 377.501456 233.604646 
L 382.759871 229.238616 
L 388.018286 219.092204 
L 393.276701 197.66175 
L 398.535116 154.58562 
L 403.793531 67.69543 
" clip-path="url(#pe32517935d)" style="fill: none; stroke: #acacac; stroke-width: 1.5; stroke-linecap: square"/>
   </g>
   <g id="line2d_24">
    <path d="M 72.513382 314.130267 
L 77.771797 315.360136 
L 83.030213 316.897471 
L 88.288628 317.789125 
L 93.547043 318.096592 
L 98.805458 318.311819 
L 104.063873 318.58854 
L 109.322288 318.711526 
L 114.580703 318.557793 
L 119.839118 318.58854 
L 125.097533 318.58854 
L 130.355948 318.58854 
L 135.614363 318.342566 
L 140.872778 318.342566 
L 146.131193 318.004352 
L 151.389608 317.358671 
L 156.648023 246.456769 
L 161.906438 248.486054 
L 167.164853 249.685176 
L 172.423268 250.392348 
L 177.681684 247.194693 
L 182.940099 246.118556 
L 188.198514 248.147841 
L 193.456929 247.840374 
L 198.715344 247.010211 
L 203.973759 248.209333 
L 209.232174 249.65443 
L 214.490589 247.87112 
L 219.749004 248.270825 
L 225.007419 247.655891 
L 230.265834 250.30011 
L 235.524249 250.17712 
L 240.782664 213.557797 
L 246.041079 205.010213 
L 251.299494 198.430415 
L 256.557909 188.068774 
L 261.816324 182.503622 
L 267.074739 177.491911 
L 272.333154 173.740814 
L 277.59157 173.156626 
L 282.849985 169.835987 
L 288.1084 168.882834 
L 293.366815 164.178584 
L 298.62523 166.392352 
L 303.883645 165.039499 
L 309.14206 167.191763 
L 314.400475 169.067311 
L 319.65889 170.604652 
L 324.917305 227.0556 
L 330.17572 239.354281 
L 335.434135 242.305967 
L 340.69255 241.937008 
L 345.950965 241.691033 
L 351.20938 241.967754 
L 356.467795 241.22983 
L 361.72621 239.477266 
L 366.984625 237.509479 
L 372.243041 235.111235 
L 377.501456 232.92822 
L 382.759871 227.117093 
L 388.018286 218.231301 
L 393.276701 200.551944 
L 398.535116 157.598798 
L 403.793531 69.048283 
" clip-path="url(#pe32517935d)" style="fill: none; stroke: #9a9a9a; stroke-width: 1.5; stroke-linecap: square"/>
   </g>
   <g id="line2d_25">
    <path d="M 72.513382 312.746665 
L 77.771797 314.468481 
L 83.030213 316.34403 
L 88.288628 317.327925 
L 93.547043 318.004352 
L 98.805458 318.035099 
L 104.063873 318.158086 
L 109.322288 318.250326 
L 114.580703 318.311819 
L 119.839118 318.465553 
L 125.097533 318.219579 
L 130.355948 318.127339 
L 135.614363 318.281073 
L 140.872778 317.881365 
L 146.131193 318.158086 
L 151.389608 317.266431 
L 156.648023 244.888688 
L 161.906438 248.178587 
L 167.164853 253.159551 
L 172.423268 249.193226 
L 177.681684 250.392348 
L 182.940099 246.456769 
L 188.198514 250.576831 
L 193.456929 249.500693 
L 198.715344 249.931151 
L 203.973759 250.94579 
L 209.232174 248.916505 
L 214.490589 249.193226 
L 219.749004 249.900399 
L 225.007419 249.500693 
L 230.265834 250.699815 
L 235.524249 255.619288 
L 240.782664 214.357208 
L 246.041079 201.689573 
L 251.299494 194.679318 
L 256.557909 190.436272 
L 261.816324 185.76278 
L 267.074739 179.920901 
L 272.333154 176.077566 
L 277.59157 170.543159 
L 282.849985 169.528514 
L 288.1084 169.036565 
L 293.366815 167.745204 
L 298.62523 163.932615 
L 303.883645 164.762772 
L 309.14206 165.34696 
L 314.400475 167.376251 
L 319.65889 171.926758 
L 324.917305 228.162484 
L 330.17572 237.509479 
L 335.434135 240.491911 
L 340.69255 243.228368 
L 345.950965 243.474343 
L 351.20938 243.443591 
L 356.467795 241.9985 
L 361.72621 239.815485 
L 366.984625 239.723241 
L 372.243041 237.447987 
L 377.501456 234.650038 
L 382.759871 227.793519 
L 388.018286 215.863803 
L 393.276701 199.506552 
L 398.535116 156.737884 
L 403.793531 67.60318 
" clip-path="url(#pe32517935d)" style="fill: none; stroke: #888888; stroke-width: 1.5; stroke-linecap: square"/>
   </g>
   <g id="line2d_26">
    <path d="M 72.513382 312.131731 
L 77.771797 313.792054 
L 83.030213 315.790589 
L 88.288628 316.897471 
L 93.547043 317.420165 
L 98.805458 317.973605 
L 104.063873 318.035099 
L 109.322288 317.850619 
L 114.580703 317.819872 
L 119.839118 318.065846 
L 125.097533 317.727632 
L 130.355948 317.758379 
L 135.614363 317.942859 
L 140.872778 317.481658 
L 146.131193 316.497764 
L 151.389608 316.374777 
L 156.648023 246.85648 
L 161.906438 250.023389 
L 167.164853 248.301571 
L 172.423268 253.590009 
L 177.681684 252.298643 
L 182.940099 251.222511 
L 188.198514 248.824267 
L 193.456929 249.80816 
L 198.715344 248.363064 
L 203.973759 249.254719 
L 209.232174 249.531439 
L 214.490589 247.717383 
L 219.749004 248.639784 
L 225.007419 247.994104 
L 230.265834 252.267897 
L 235.524249 253.774486 
L 240.782664 214.818411 
L 246.041079 206.793523 
L 251.299494 197.66175 
L 256.557909 189.975069 
L 261.816324 183.610505 
L 267.074739 175.124413 
L 272.333154 173.587084 
L 277.59157 171.250332 
L 282.849985 168.75985 
L 288.1084 166.576828 
L 293.366815 167.560728 
L 298.62523 166.853555 
L 303.883645 163.994108 
L 309.14206 161.688102 
L 314.400475 167.191763 
L 319.65889 168.821342 
L 324.917305 227.086346 
L 330.17572 234.158088 
L 335.434135 241.660287 
L 340.69255 242.398206 
L 345.950965 242.059992 
L 351.20938 243.043886 
L 356.467795 240.614896 
L 361.72621 240.338175 
L 366.984625 240.983855 
L 372.243041 237.478733 
L 377.501456 233.327925 
L 382.759871 229.638321 
L 388.018286 217.431878 
L 393.276701 202.027781 
L 398.535116 155.692504 
L 403.793531 67.449461 
" clip-path="url(#pe32517935d)" style="fill: none; stroke: #757575; stroke-width: 1.5; stroke-linecap: square"/>
   </g>
   <g id="line2d_27">
    <path d="M 72.513382 309.671995 
L 77.771797 311.670531 
L 83.030213 313.73056 
L 88.288628 315.729096 
L 93.547043 316.835977 
L 98.805458 317.389418 
L 104.063873 317.020458 
L 109.322288 317.204938 
L 114.580703 317.143444 
L 119.839118 317.235685 
L 125.097533 317.081951 
L 130.355948 317.020458 
L 135.614363 316.989711 
L 140.872778 317.081951 
L 146.131193 316.036563 
L 151.389608 315.421629 
L 156.648023 247.071703 
L 161.906438 249.439201 
L 167.164853 249.777414 
L 172.423268 252.114166 
L 177.681684 249.531439 
L 182.940099 248.240079 
L 188.198514 249.80816 
L 193.456929 248.117095 
L 198.715344 249.65443 
L 203.973759 248.547546 
L 209.232174 249.685176 
L 214.490589 246.456769 
L 219.749004 248.547546 
L 225.007419 252.575364 
L 230.265834 250.792054 
L 235.524249 253.958968 
L 240.782664 212.573898 
L 246.041079 205.286928 
L 251.299494 196.062917 
L 256.557909 188.929689 
L 261.816324 185.209338 
L 267.074739 181.396738 
L 272.333154 174.540225 
L 277.59157 173.218119 
L 282.849985 170.297179 
L 288.1084 166.822809 
L 293.366815 166.238621 
L 298.62523 163.348428 
L 303.883645 166.97654 
L 309.14206 167.191763 
L 314.400475 166.699825 
L 319.65889 170.481667 
L 324.917305 228.808164 
L 330.17572 239.969215 
L 335.434135 243.351353 
L 340.69255 245.288393 
L 345.950965 243.751058 
L 351.20938 245.134663 
L 356.467795 241.87551 
L 361.72621 240.799378 
L 366.984625 241.076099 
L 372.243041 238.185906 
L 377.501456 234.988251 
L 382.759871 228.992641 
L 388.018286 219.153696 
L 393.276701 199.93701 
L 398.535116 156.399676 
L 403.793531 66.9575 
" clip-path="url(#pe32517935d)" style="fill: none; stroke: #636363; stroke-width: 1.5; stroke-linecap: square"/>
   </g>
   <g id="line2d_28">
    <path d="M 72.513382 306.443591 
L 77.771797 308.103913 
L 83.030213 310.440663 
L 88.288628 312.900399 
L 93.547043 314.499228 
L 98.805458 315.759843 
L 104.063873 315.821336 
L 109.322288 316.405523 
L 114.580703 316.25179 
L 119.839118 316.128803 
L 125.097533 315.97507 
L 130.355948 315.452376 
L 135.614363 316.005816 
L 140.872778 315.575362 
L 146.131193 315.267895 
L 151.389608 315.237149 
L 156.648023 247.686637 
L 161.906438 249.439201 
L 167.164853 252.298643 
L 172.423268 251.622216 
L 177.681684 250.515333 
L 182.940099 252.23715 
L 188.198514 247.840374 
L 193.456929 249.746668 
L 198.715344 250.607577 
L 203.973759 249.623684 
L 209.232174 247.563653 
L 214.490589 249.777414 
L 219.749004 252.60611 
L 225.007419 249.715922 
L 230.265834 252.667608 
L 235.524249 255.188836 
L 240.782664 213.281082 
L 246.041079 203.257649 
L 251.299494 195.663217 
L 256.557909 190.62076 
L 261.816324 185.424561 
L 267.074739 176.231297 
L 272.333154 178.660287 
L 277.59157 175.093667 
L 282.849985 170.942859 
L 288.1084 169.436276 
L 293.366815 166.054133 
L 298.62523 168.390885 
L 303.883645 169.743737 
L 309.14206 171.004363 
L 314.400475 170.204941 
L 319.65889 175.093667 
L 324.917305 230.960433 
L 330.17572 241.106845 
L 335.434135 243.105378 
L 340.69255 244.089277 
L 345.950965 242.029246 
L 351.20938 243.197622 
L 356.467795 240.768632 
L 361.72621 241.045353 
L 366.984625 238.062921 
L 372.243041 239.169799 
L 377.501456 234.496301 
L 382.759871 230.62222 
L 388.018286 219.584153 
L 393.276701 198.1537 
L 398.535116 155.969219 
L 403.793531 68.464095 
" clip-path="url(#pe32517935d)" style="fill: none; stroke: #505050; stroke-width: 1.5; stroke-linecap: square"/>
   </g>
   <g id="line2d_29">
    <path d="M 72.513382 300.970677 
L 77.771797 304.199082 
L 83.030213 306.904792 
L 88.288628 309.180048 
L 93.547043 311.301571 
L 98.805458 312.254718 
L 104.063873 313.8228 
L 109.322288 313.761307 
L 114.580703 314.837442 
L 119.839118 315.175655 
L 125.097533 313.45384 
L 130.355948 314.591468 
L 135.614363 313.853547 
L 140.872778 313.8228 
L 146.131193 312.777412 
L 151.389608 312.285465 
L 156.648023 247.50216 
L 161.906438 250.238618 
L 167.164853 252.852084 
L 172.423268 250.607577 
L 177.681684 251.130267 
L 182.940099 251.284003 
L 188.198514 249.100988 
L 193.456929 248.762775 
L 198.715344 250.792054 
L 203.973759 249.346963 
L 209.232174 251.130267 
L 214.490589 250.515333 
L 219.749004 251.007282 
L 225.007419 250.207866 
L 230.265834 252.7291 
L 235.524249 253.989714 
L 240.782664 214.357208 
L 246.041079 204.180056 
L 251.299494 196.462628 
L 256.557909 190.497764 
L 261.816324 184.502166 
L 267.074739 177.245942 
L 272.333154 174.079033 
L 277.59157 173.61783 
L 282.849985 170.420175 
L 288.1084 170.204941 
L 293.366815 171.680789 
L 298.62523 167.991185 
L 303.883645 168.114169 
L 309.14206 169.989718 
L 314.400475 173.033642 
L 319.65889 174.171272 
L 324.917305 229.515337 
L 330.17572 241.168337 
L 335.434135 246.272292 
L 340.69255 244.980926 
L 345.950965 242.336713 
L 351.20938 246.241546 
L 356.467795 243.78181 
L 361.72621 242.890155 
L 366.984625 240.0922 
L 372.243041 239.262043 
L 377.501456 235.203479 
L 382.759871 229.515337 
L 388.018286 217.739351 
L 393.276701 200.644182 
L 398.535116 157.783275 
L 403.793531 69.232759 
" clip-path="url(#pe32517935d)" style="fill: none; stroke: #3e3e3e; stroke-width: 1.5; stroke-linecap: square"/>
   </g>
   <g id="line2d_30">
    <path d="M 72.513382 293.499227 
L 77.771797 297.096593 
L 83.030213 301.278144 
L 88.288628 305.090736 
L 93.547043 305.859403 
L 98.805458 306.751058 
L 104.063873 308.011673 
L 109.322288 308.503621 
L 114.580703 308.934074 
L 119.839118 309.979462 
L 125.097533 311.055597 
L 130.355948 310.194689 
L 135.614363 309.487515 
L 140.872778 309.395275 
L 146.131193 307.212259 
L 151.389608 304.475802 
L 156.648023 249.715922 
L 161.906438 248.701282 
L 167.164853 253.467019 
L 172.423268 251.652962 
L 177.681684 251.007282 
L 182.940099 254.604648 
L 188.198514 252.298643 
L 193.456929 251.406988 
L 198.715344 253.159551 
L 203.973759 251.96043 
L 209.232174 253.651501 
L 214.490589 252.421633 
L 219.749004 254.450912 
L 225.007419 252.759846 
L 230.265834 254.358673 
L 235.524249 256.941394 
L 240.782664 218.661746 
L 246.041079 208.761309 
L 251.299494 202.027781 
L 256.557909 193.480196 
L 261.816324 190.190303 
L 267.074739 182.349891 
L 272.333154 178.383572 
L 277.59157 175.093667 
L 282.849985 171.711535 
L 288.1084 172.510946 
L 293.366815 171.496301 
L 298.62523 172.4802 
L 303.883645 171.096601 
L 309.14206 172.97215 
L 314.400475 175.001428 
L 319.65889 177.676388 
L 324.917305 234.342571 
L 330.17572 242.982393 
L 335.434135 244.919434 
L 340.69255 246.794982 
L 345.950965 248.762775 
L 351.20938 248.086348 
L 356.467795 246.395277 
L 361.72621 244.243008 
L 366.984625 242.121485 
L 372.243041 241.783271 
L 377.501456 238.462626 
L 382.759871 230.560722 
L 388.018286 221.152229 
L 393.276701 201.87405 
L 398.535116 161.042422 
L 403.793531 73.721786 
" clip-path="url(#pe32517935d)" style="fill: none; stroke: #2b2b2b; stroke-width: 1.5; stroke-linecap: square"/>
   </g>
   <g id="line2d_31">
    <path d="M 72.513382 211.282538 
L 77.771797 231.421631 
L 83.030213 241.445058 
L 88.288628 248.732029 
L 93.547043 255.311821 
L 98.805458 257.679319 
L 104.063873 259.339638 
L 109.322288 262.229832 
L 114.580703 261.430415 
L 119.839118 261.399669 
L 125.097533 260.784735 
L 130.355948 262.629537 
L 135.614363 260.569506 
L 140.872778 257.371852 
L 146.131193 254.112699 
L 151.389608 247.655891 
L 156.648023 263.61343 
L 161.906438 263.33671 
L 167.164853 266.319141 
L 172.423268 269.363066 
L 177.681684 264.781806 
L 182.940099 265.919436 
L 188.198514 266.657355 
L 193.456929 266.780345 
L 198.715344 268.133197 
L 203.973759 267.05706 
L 209.232174 267.456771 
L 214.490589 265.181512 
L 219.749004 268.686639 
L 225.007419 267.456771 
L 230.265834 269.639786 
L 235.524249 268.932614 
L 240.782664 219.676392 
L 246.041079 213.957508 
L 251.299494 209.406989 
L 256.557909 204.395279 
L 261.816324 201.474339 
L 267.074739 199.967756 
L 272.333154 199.998502 
L 277.59157 201.443593 
L 282.849985 197.876973 
L 288.1084 195.693963 
L 293.366815 197.846227 
L 298.62523 196.493374 
L 303.883645 198.553399 
L 309.14206 199.291329 
L 314.400475 201.013136 
L 319.65889 204.30304 
L 324.917305 251.284003 
L 330.17572 258.724704 
L 335.434135 261.215186 
L 340.69255 263.674923 
L 345.950965 263.61343 
L 351.20938 264.320609 
L 356.467795 264.628076 
L 361.72621 262.660283 
L 366.984625 262.352816 
L 372.243041 259.739349 
L 377.501456 255.496303 
L 382.759871 253.128805 
L 388.018286 241.322068 
L 393.276701 226.994108 
L 398.535116 187.392348 
L 403.793531 98.841844 
" clip-path="url(#pe32517935d)" style="fill: none; stroke: #191919; stroke-width: 1.5; stroke-linecap: square"/>
   </g>
   <g id="line2d_32">
    <path d="M 154.018816 331.5575 
L 154.018816 54.3575 
" clip-path="url(#pe32517935d)" style="fill: none; stroke-dasharray: 5.55,2.4; stroke-dashoffset: 0; stroke: #ff0000; stroke-opacity: 0.7; stroke-width: 1.5"/>
   </g>
   <g id="line2d_33">
    <path d="M 238.153457 331.5575 
L 238.153457 54.3575 
" clip-path="url(#pe32517935d)" style="fill: none; stroke-dasharray: 5.55,2.4; stroke-dashoffset: 0; stroke: #ff0000; stroke-opacity: 0.7; stroke-width: 1.5"/>
   </g>
   <g id="line2d_34">
    <path d="M 322.288098 331.5575 
L 322.288098 54.3575 
" clip-path="url(#pe32517935d)" style="fill: none; stroke-dasharray: 1.5,2.475; stroke-dashoffset: 0; stroke: #0000ff; stroke-opacity: 0.7; stroke-width: 1.5"/>
   </g>
   <g id="patch_3">
    <path d="M 55.949375 331.5575 
L 55.949375 54.3575 
" style="fill: none; stroke: #000000; stroke-width: 0.8; stroke-linejoin: miter; stroke-linecap: square"/>
   </g>
   <g id="patch_4">
    <path d="M 55.949375 331.5575 
L 420.357538 331.5575 
" style="fill: none; stroke: #000000; stroke-width: 0.8; stroke-linejoin: miter; stroke-linecap: square"/>
   </g>
   <g id="text_17">
    <!-- Film -->
    <g transform="translate(99.897589 46.733812) scale(0.1 -0.1)">
     <defs>
      <path id="DejaVuSans-Bold-46" d="M 588 4666 
L 3834 4666 
L 3834 3756 
L 1791 3756 
L 1791 2888 
L 3713 2888 
L 3713 1978 
L 1791 1978 
L 1791 0 
L 588 0 
L 588 4666 
z
" transform="scale(0.015625)"/>
      <path id="DejaVuSans-Bold-69" d="M 538 3500 
L 1656 3500 
L 1656 0 
L 538 0 
L 538 3500 
z
M 538 4863 
L 1656 4863 
L 1656 3950 
L 538 3950 
L 538 4863 
z
" transform="scale(0.015625)"/>
      <path id="DejaVuSans-Bold-6c" d="M 538 4863 
L 1656 4863 
L 1656 0 
L 538 0 
L 538 4863 
z
" transform="scale(0.015625)"/>
      <path id="DejaVuSans-Bold-6d" d="M 3781 2919 
Q 3994 3244 4286 3414 
Q 4578 3584 4928 3584 
Q 5531 3584 5847 3212 
Q 6163 2841 6163 2131 
L 6163 0 
L 5038 0 
L 5038 1825 
Q 5041 1866 5042 1909 
Q 5044 1953 5044 2034 
Q 5044 2406 4934 2573 
Q 4825 2741 4581 2741 
Q 4263 2741 4089 2478 
Q 3916 2216 3909 1719 
L 3909 0 
L 2784 0 
L 2784 1825 
Q 2784 2406 2684 2573 
Q 2584 2741 2328 2741 
Q 2006 2741 1831 2477 
Q 1656 2213 1656 1722 
L 1656 0 
L 531 0 
L 531 3500 
L 1656 3500 
L 1656 2988 
Q 1863 3284 2130 3434 
Q 2397 3584 2719 3584 
Q 3081 3584 3359 3409 
Q 3638 3234 3781 2919 
z
" transform="scale(0.015625)"/>
     </defs>
     <use xlink:href="#DejaVuSans-Bold-46"/>
     <use xlink:href="#DejaVuSans-Bold-69" transform="translate(68.310547 0)"/>
     <use xlink:href="#DejaVuSans-Bold-6c" transform="translate(102.587891 0)"/>
     <use xlink:href="#DejaVuSans-Bold-6d" transform="translate(136.865234 0)"/>
    </g>
   </g>
   <g id="text_18">
    <!-- Break -->
    <g style="fill: #808080" transform="translate(179.718949 46.733812) scale(0.1 -0.1)">
     <defs>
      <path id="DejaVuSans-Bold-42" d="M 2456 2859 
Q 2741 2859 2887 2984 
Q 3034 3109 3034 3353 
Q 3034 3594 2887 3720 
Q 2741 3847 2456 3847 
L 1791 3847 
L 1791 2859 
L 2456 2859 
z
M 2497 819 
Q 2859 819 3042 972 
Q 3225 1125 3225 1434 
Q 3225 1738 3044 1889 
Q 2863 2041 2497 2041 
L 1791 2041 
L 1791 819 
L 2497 819 
z
M 3616 2497 
Q 4003 2384 4215 2081 
Q 4428 1778 4428 1338 
Q 4428 663 3972 331 
Q 3516 0 2584 0 
L 588 0 
L 588 4666 
L 2394 4666 
Q 3366 4666 3802 4372 
Q 4238 4078 4238 3431 
Q 4238 3091 4078 2852 
Q 3919 2613 3616 2497 
z
" transform="scale(0.015625)"/>
      <path id="DejaVuSans-Bold-72" d="M 3138 2547 
Q 2991 2616 2845 2648 
Q 2700 2681 2553 2681 
Q 2122 2681 1889 2404 
Q 1656 2128 1656 1613 
L 1656 0 
L 538 0 
L 538 3500 
L 1656 3500 
L 1656 2925 
Q 1872 3269 2151 3426 
Q 2431 3584 2822 3584 
Q 2878 3584 2943 3579 
Q 3009 3575 3134 3559 
L 3138 2547 
z
" transform="scale(0.015625)"/>
      <path id="DejaVuSans-Bold-65" d="M 4031 1759 
L 4031 1441 
L 1416 1441 
Q 1456 1047 1700 850 
Q 1944 653 2381 653 
Q 2734 653 3104 758 
Q 3475 863 3866 1075 
L 3866 213 
Q 3469 63 3072 -14 
Q 2675 -91 2278 -91 
Q 1328 -91 801 392 
Q 275 875 275 1747 
Q 275 2603 792 3093 
Q 1309 3584 2216 3584 
Q 3041 3584 3536 3087 
Q 4031 2591 4031 1759 
z
M 2881 2131 
Q 2881 2450 2695 2645 
Q 2509 2841 2209 2841 
Q 1884 2841 1681 2658 
Q 1478 2475 1428 2131 
L 2881 2131 
z
" transform="scale(0.015625)"/>
      <path id="DejaVuSans-Bold-61" d="M 2106 1575 
Q 1756 1575 1579 1456 
Q 1403 1338 1403 1106 
Q 1403 894 1545 773 
Q 1688 653 1941 653 
Q 2256 653 2472 879 
Q 2688 1106 2688 1447 
L 2688 1575 
L 2106 1575 
z
M 3816 1997 
L 3816 0 
L 2688 0 
L 2688 519 
Q 2463 200 2181 54 
Q 1900 -91 1497 -91 
Q 953 -91 614 226 
Q 275 544 275 1050 
Q 275 1666 698 1953 
Q 1122 2241 2028 2241 
L 2688 2241 
L 2688 2328 
Q 2688 2594 2478 2717 
Q 2269 2841 1825 2841 
Q 1466 2841 1156 2769 
Q 847 2697 581 2553 
L 581 3406 
Q 941 3494 1303 3539 
Q 1666 3584 2028 3584 
Q 2975 3584 3395 3211 
Q 3816 2838 3816 1997 
z
" transform="scale(0.015625)"/>
      <path id="DejaVuSans-Bold-6b" d="M 538 4863 
L 1656 4863 
L 1656 2216 
L 2944 3500 
L 4244 3500 
L 2534 1894 
L 4378 0 
L 3022 0 
L 1656 1459 
L 1656 0 
L 538 0 
L 538 4863 
z
" transform="scale(0.015625)"/>
     </defs>
     <use xlink:href="#DejaVuSans-Bold-42"/>
     <use xlink:href="#DejaVuSans-Bold-72" transform="translate(76.220703 0)"/>
     <use xlink:href="#DejaVuSans-Bold-65" transform="translate(125.537109 0)"/>
     <use xlink:href="#DejaVuSans-Bold-61" transform="translate(193.359375 0)"/>
     <use xlink:href="#DejaVuSans-Bold-6b" transform="translate(260.839844 0)"/>
    </g>
   </g>
   <g id="text_19">
    <!-- Interference -->
    <g style="fill: #ff0000" transform="translate(245.21609 46.733812) scale(0.1 -0.1)">
     <defs>
      <path id="DejaVuSans-Bold-49" d="M 588 4666 
L 1791 4666 
L 1791 0 
L 588 0 
L 588 4666 
z
" transform="scale(0.015625)"/>
      <path id="DejaVuSans-Bold-6e" d="M 4056 2131 
L 4056 0 
L 2931 0 
L 2931 347 
L 2931 1631 
Q 2931 2084 2911 2256 
Q 2891 2428 2841 2509 
Q 2775 2619 2662 2680 
Q 2550 2741 2406 2741 
Q 2056 2741 1856 2470 
Q 1656 2200 1656 1722 
L 1656 0 
L 538 0 
L 538 3500 
L 1656 3500 
L 1656 2988 
Q 1909 3294 2193 3439 
Q 2478 3584 2822 3584 
Q 3428 3584 3742 3212 
Q 4056 2841 4056 2131 
z
" transform="scale(0.015625)"/>
      <path id="DejaVuSans-Bold-74" d="M 1759 4494 
L 1759 3500 
L 2913 3500 
L 2913 2700 
L 1759 2700 
L 1759 1216 
Q 1759 972 1856 886 
Q 1953 800 2241 800 
L 2816 800 
L 2816 0 
L 1856 0 
Q 1194 0 917 276 
Q 641 553 641 1216 
L 641 2700 
L 84 2700 
L 84 3500 
L 641 3500 
L 641 4494 
L 1759 4494 
z
" transform="scale(0.015625)"/>
      <path id="DejaVuSans-Bold-66" d="M 2841 4863 
L 2841 4128 
L 2222 4128 
Q 1984 4128 1890 4042 
Q 1797 3956 1797 3744 
L 1797 3500 
L 2753 3500 
L 2753 2700 
L 1797 2700 
L 1797 0 
L 678 0 
L 678 2700 
L 122 2700 
L 122 3500 
L 678 3500 
L 678 3744 
Q 678 4316 997 4589 
Q 1316 4863 1984 4863 
L 2841 4863 
z
" transform="scale(0.015625)"/>
      <path id="DejaVuSans-Bold-63" d="M 3366 3391 
L 3366 2478 
Q 3138 2634 2908 2709 
Q 2678 2784 2431 2784 
Q 1963 2784 1702 2511 
Q 1441 2238 1441 1747 
Q 1441 1256 1702 982 
Q 1963 709 2431 709 
Q 2694 709 2930 787 
Q 3166 866 3366 1019 
L 3366 103 
Q 3103 6 2833 -42 
Q 2563 -91 2291 -91 
Q 1344 -91 809 395 
Q 275 881 275 1747 
Q 275 2613 809 3098 
Q 1344 3584 2291 3584 
Q 2566 3584 2833 3536 
Q 3100 3488 3366 3391 
z
" transform="scale(0.015625)"/>
     </defs>
     <use xlink:href="#DejaVuSans-Bold-49"/>
     <use xlink:href="#DejaVuSans-Bold-6e" transform="translate(37.207031 0)"/>
     <use xlink:href="#DejaVuSans-Bold-74" transform="translate(108.398438 0)"/>
     <use xlink:href="#DejaVuSans-Bold-65" transform="translate(156.201172 0)"/>
     <use xlink:href="#DejaVuSans-Bold-72" transform="translate(224.023438 0)"/>
     <use xlink:href="#DejaVuSans-Bold-66" transform="translate(273.339844 0)"/>
     <use xlink:href="#DejaVuSans-Bold-65" transform="translate(316.845703 0)"/>
     <use xlink:href="#DejaVuSans-Bold-72" transform="translate(384.667969 0)"/>
     <use xlink:href="#DejaVuSans-Bold-65" transform="translate(433.984375 0)"/>
     <use xlink:href="#DejaVuSans-Bold-6e" transform="translate(501.806641 0)"/>
     <use xlink:href="#DejaVuSans-Bold-63" transform="translate(572.998047 0)"/>
     <use xlink:href="#DejaVuSans-Bold-65" transform="translate(632.275391 0)"/>
    </g>
   </g>
   <g id="text_20">
    <!-- Filler -->
    <g style="fill: #0000ff" transform="translate(349.940574 46.733812) scale(0.1 -0.1)">
     <use xlink:href="#DejaVuSans-Bold-46"/>
     <use xlink:href="#DejaVuSans-Bold-69" transform="translate(68.310547 0)"/>
     <use xlink:href="#DejaVuSans-Bold-6c" transform="translate(102.587891 0)"/>
     <use xlink:href="#DejaVuSans-Bold-6c" transform="translate(136.865234 0)"/>
     <use xlink:href="#DejaVuSans-Bold-65" transform="translate(171.142578 0)"/>
     <use xlink:href="#DejaVuSans-Bold-72" transform="translate(238.964844 0)"/>
    </g>
   </g>
   <g id="text_21">
    <g clip-path="url(#pe32517935d)">
     <!-- Reminder -->
     <g transform="translate(236.073769 111.243812) rotate(-90) scale(0.1 -0.1)">
      <defs>
       <path id="DejaVuSans-Oblique-52" d="M 1613 4147 
L 1294 2491 
L 2106 2491 
Q 2584 2491 2879 2755 
Q 3175 3019 3175 3444 
Q 3175 3784 2976 3965 
Q 2778 4147 2406 4147 
L 1613 4147 
z
M 2772 2241 
Q 2972 2194 3105 2009 
Q 3238 1825 3413 1275 
L 3809 0 
L 3144 0 
L 2778 1197 
Q 2638 1659 2453 1815 
Q 2269 1972 1888 1972 
L 1191 1972 
L 806 0 
L 172 0 
L 1081 4666 
L 2503 4666 
Q 3150 4666 3495 4373 
Q 3841 4081 3841 3531 
Q 3841 3044 3547 2687 
Q 3253 2331 2772 2241 
z
" transform="scale(0.015625)"/>
       <path id="DejaVuSans-Oblique-65" d="M 3078 2063 
Q 3088 2113 3092 2166 
Q 3097 2219 3097 2272 
Q 3097 2653 2873 2875 
Q 2650 3097 2266 3097 
Q 1838 3097 1509 2826 
Q 1181 2556 1013 2059 
L 3078 2063 
z
M 3578 1613 
L 903 1613 
Q 884 1494 878 1425 
Q 872 1356 872 1306 
Q 872 872 1139 634 
Q 1406 397 1894 397 
Q 2269 397 2603 481 
Q 2938 566 3225 728 
L 3116 159 
Q 2806 34 2476 -28 
Q 2147 -91 1806 -91 
Q 1078 -91 686 257 
Q 294 606 294 1247 
Q 294 1794 489 2264 
Q 684 2734 1063 3103 
Q 1306 3334 1642 3459 
Q 1978 3584 2356 3584 
Q 2950 3584 3301 3228 
Q 3653 2872 3653 2272 
Q 3653 2128 3634 1964 
Q 3616 1800 3578 1613 
z
" transform="scale(0.015625)"/>
       <path id="DejaVuSans-Oblique-6d" d="M 5747 2113 
L 5338 0 
L 4763 0 
L 5166 2094 
Q 5191 2228 5203 2325 
Q 5216 2422 5216 2491 
Q 5216 2772 5059 2928 
Q 4903 3084 4622 3084 
Q 4203 3084 3875 2770 
Q 3547 2456 3450 1953 
L 3066 0 
L 2491 0 
L 2900 2094 
Q 2925 2209 2937 2307 
Q 2950 2406 2950 2484 
Q 2950 2769 2794 2926 
Q 2638 3084 2363 3084 
Q 1938 3084 1609 2770 
Q 1281 2456 1184 1953 
L 800 0 
L 225 0 
L 909 3500 
L 1484 3500 
L 1375 2956 
Q 1609 3263 1923 3423 
Q 2238 3584 2597 3584 
Q 2978 3584 3223 3384 
Q 3469 3184 3519 2828 
Q 3781 3197 4126 3390 
Q 4472 3584 4856 3584 
Q 5306 3584 5551 3325 
Q 5797 3066 5797 2591 
Q 5797 2488 5784 2364 
Q 5772 2241 5747 2113 
z
" transform="scale(0.015625)"/>
       <path id="DejaVuSans-Oblique-69" d="M 1172 4863 
L 1747 4863 
L 1606 4134 
L 1031 4134 
L 1172 4863 
z
M 909 3500 
L 1484 3500 
L 800 0 
L 225 0 
L 909 3500 
z
" transform="scale(0.015625)"/>
       <path id="DejaVuSans-Oblique-6e" d="M 3566 2113 
L 3156 0 
L 2578 0 
L 2988 2091 
Q 3016 2238 3031 2350 
Q 3047 2463 3047 2528 
Q 3047 2791 2881 2937 
Q 2716 3084 2419 3084 
Q 1956 3084 1622 2776 
Q 1288 2469 1184 1941 
L 800 0 
L 225 0 
L 903 3500 
L 1478 3500 
L 1363 2950 
Q 1603 3253 1940 3418 
Q 2278 3584 2650 3584 
Q 3113 3584 3367 3334 
Q 3622 3084 3622 2631 
Q 3622 2519 3608 2391 
Q 3594 2263 3566 2113 
z
" transform="scale(0.015625)"/>
       <path id="DejaVuSans-Oblique-64" d="M 2675 525 
Q 2444 222 2128 65 
Q 1813 -91 1428 -91 
Q 903 -91 598 267 
Q 294 625 294 1247 
Q 294 1766 478 2236 
Q 663 2706 1013 3078 
Q 1244 3325 1534 3454 
Q 1825 3584 2144 3584 
Q 2481 3584 2739 3421 
Q 2997 3259 3138 2956 
L 3513 4863 
L 4091 4863 
L 3144 0 
L 2566 0 
L 2675 525 
z
M 891 1350 
Q 891 897 1095 644 
Q 1300 391 1663 391 
Q 1931 391 2161 520 
Q 2391 650 2566 903 
Q 2750 1166 2856 1509 
Q 2963 1853 2963 2188 
Q 2963 2622 2758 2865 
Q 2553 3109 2194 3109 
Q 1922 3109 1687 2981 
Q 1453 2853 1288 2613 
Q 1106 2353 998 2009 
Q 891 1666 891 1350 
z
" transform="scale(0.015625)"/>
       <path id="DejaVuSans-Oblique-72" d="M 2853 2969 
Q 2766 3016 2653 3041 
Q 2541 3066 2413 3066 
Q 1953 3066 1609 2717 
Q 1266 2369 1153 1784 
L 800 0 
L 225 0 
L 909 3500 
L 1484 3500 
L 1375 2956 
Q 1603 3259 1920 3421 
Q 2238 3584 2597 3584 
Q 2691 3584 2781 3573 
Q 2872 3563 2963 3538 
L 2853 2969 
z
" transform="scale(0.015625)"/>
      </defs>
      <use xlink:href="#DejaVuSans-Oblique-52"/>
      <use xlink:href="#DejaVuSans-Oblique-65" transform="translate(69.482422 0)"/>
      <use xlink:href="#DejaVuSans-Oblique-6d" transform="translate(131.005859 0)"/>
      <use xlink:href="#DejaVuSans-Oblique-69" transform="translate(228.417969 0)"/>
      <use xlink:href="#DejaVuSans-Oblique-6e" transform="translate(256.201172 0)"/>
      <use xlink:href="#DejaVuSans-Oblique-64" transform="translate(319.580078 0)"/>
      <use xlink:href="#DejaVuSans-Oblique-65" transform="translate(383.056641 0)"/>
      <use xlink:href="#DejaVuSans-Oblique-72" transform="translate(444.580078 0)"/>
     </g>
    </g>
   </g>
   <g id="text_22">
    <!-- SPC by Film Shared Support Scale -->
    <g transform="translate(102.567207 19.3575) scale(0.16 -0.16)">
     <defs>
      <path id="DejaVuSans-43" d="M 4122 4306 
L 4122 3641 
Q 3803 3938 3442 4084 
Q 3081 4231 2675 4231 
Q 1875 4231 1450 3742 
Q 1025 3253 1025 2328 
Q 1025 1406 1450 917 
Q 1875 428 2675 428 
Q 3081 428 3442 575 
Q 3803 722 4122 1019 
L 4122 359 
Q 3791 134 3420 21 
Q 3050 -91 2638 -91 
Q 1578 -91 968 557 
Q 359 1206 359 2328 
Q 359 3453 968 4101 
Q 1578 4750 2638 4750 
Q 3056 4750 3426 4639 
Q 3797 4528 4122 4306 
z
" transform="scale(0.015625)"/>
      <path id="DejaVuSans-46" d="M 628 4666 
L 3309 4666 
L 3309 4134 
L 1259 4134 
L 1259 2759 
L 3109 2759 
L 3109 2228 
L 1259 2228 
L 1259 0 
L 628 0 
L 628 4666 
z
" transform="scale(0.015625)"/>
      <path id="DejaVuSans-6d" d="M 3328 2828 
Q 3544 3216 3844 3400 
Q 4144 3584 4550 3584 
Q 5097 3584 5394 3201 
Q 5691 2819 5691 2113 
L 5691 0 
L 5113 0 
L 5113 2094 
Q 5113 2597 4934 2840 
Q 4756 3084 4391 3084 
Q 3944 3084 3684 2787 
Q 3425 2491 3425 1978 
L 3425 0 
L 2847 0 
L 2847 2094 
Q 2847 2600 2669 2842 
Q 2491 3084 2119 3084 
Q 1678 3084 1418 2786 
Q 1159 2488 1159 1978 
L 1159 0 
L 581 0 
L 581 3500 
L 1159 3500 
L 1159 2956 
Q 1356 3278 1631 3431 
Q 1906 3584 2284 3584 
Q 2666 3584 2933 3390 
Q 3200 3197 3328 2828 
z
" transform="scale(0.015625)"/>
      <path id="DejaVuSans-68" d="M 3513 2113 
L 3513 0 
L 2938 0 
L 2938 2094 
Q 2938 2591 2744 2837 
Q 2550 3084 2163 3084 
Q 1697 3084 1428 2787 
Q 1159 2491 1159 1978 
L 1159 0 
L 581 0 
L 581 4863 
L 1159 4863 
L 1159 2956 
Q 1366 3272 1645 3428 
Q 1925 3584 2291 3584 
Q 2894 3584 3203 3211 
Q 3513 2838 3513 2113 
z
" transform="scale(0.015625)"/>
      <path id="DejaVuSans-70" d="M 1159 525 
L 1159 -1331 
L 581 -1331 
L 581 3500 
L 1159 3500 
L 1159 2969 
Q 1341 3281 1617 3432 
Q 1894 3584 2278 3584 
Q 2916 3584 3314 3078 
Q 3713 2572 3713 1747 
Q 3713 922 3314 415 
Q 2916 -91 2278 -91 
Q 1894 -91 1617 61 
Q 1341 213 1159 525 
z
M 3116 1747 
Q 3116 2381 2855 2742 
Q 2594 3103 2138 3103 
Q 1681 3103 1420 2742 
Q 1159 2381 1159 1747 
Q 1159 1113 1420 752 
Q 1681 391 2138 391 
Q 2594 391 2855 752 
Q 3116 1113 3116 1747 
z
" transform="scale(0.015625)"/>
     </defs>
     <use xlink:href="#DejaVuSans-53"/>
     <use xlink:href="#DejaVuSans-50" transform="translate(63.476562 0)"/>
     <use xlink:href="#DejaVuSans-43" transform="translate(123.779297 0)"/>
     <use xlink:href="#DejaVuSans-20" transform="translate(193.603516 0)"/>
     <use xlink:href="#DejaVuSans-62" transform="translate(225.390625 0)"/>
     <use xlink:href="#DejaVuSans-79" transform="translate(288.867188 0)"/>
     <use xlink:href="#DejaVuSans-20" transform="translate(348.046875 0)"/>
     <use xlink:href="#DejaVuSans-46" transform="translate(379.833984 0)"/>
     <use xlink:href="#DejaVuSans-69" transform="translate(430.103516 0)"/>
     <use xlink:href="#DejaVuSans-6c" transform="translate(457.886719 0)"/>
     <use xlink:href="#DejaVuSans-6d" transform="translate(485.669922 0)"/>
     <use xlink:href="#DejaVuSans-20" transform="translate(583.082031 0)"/>
     <use xlink:href="#DejaVuSans-53" transform="translate(614.869141 0)"/>
     <use xlink:href="#DejaVuSans-68" transform="translate(678.345703 0)"/>
     <use xlink:href="#DejaVuSans-61" transform="translate(741.724609 0)"/>
     <use xlink:href="#DejaVuSans-72" transform="translate(803.003906 0)"/>
     <use xlink:href="#DejaVuSans-65" transform="translate(841.867188 0)"/>
     <use xlink:href="#DejaVuSans-64" transform="translate(903.390625 0)"/>
     <use xlink:href="#DejaVuSans-20" transform="translate(966.867188 0)"/>
     <use xlink:href="#DejaVuSans-53" transform="translate(998.654297 0)"/>
     <use xlink:href="#DejaVuSans-75" transform="translate(1062.130859 0)"/>
     <use xlink:href="#DejaVuSans-70" transform="translate(1125.509766 0)"/>
     <use xlink:href="#DejaVuSans-70" transform="translate(1188.986328 0)"/>
     <use xlink:href="#DejaVuSans-6f" transform="translate(1252.462891 0)"/>
     <use xlink:href="#DejaVuSans-72" transform="translate(1313.644531 0)"/>
     <use xlink:href="#DejaVuSans-74" transform="translate(1354.757812 0)"/>
     <use xlink:href="#DejaVuSans-20" transform="translate(1393.966797 0)"/>
     <use xlink:href="#DejaVuSans-53" transform="translate(1425.753906 0)"/>
     <use xlink:href="#DejaVuSans-63" transform="translate(1489.230469 0)"/>
     <use xlink:href="#DejaVuSans-61" transform="translate(1544.210938 0)"/>
     <use xlink:href="#DejaVuSans-6c" transform="translate(1605.490234 0)"/>
     <use xlink:href="#DejaVuSans-65" transform="translate(1633.273438 0)"/>
    </g>
   </g>
   <g id="legend_1">
    <g id="patch_5">
     <path d="M 436.045702 240.095 
L 501.164452 240.095 
Q 503.564452 240.095 503.564452 237.695 
L 503.564452 62.7575 
Q 503.564452 60.3575 501.164452 60.3575 
L 436.045702 60.3575 
Q 433.645702 60.3575 433.645702 62.7575 
L 433.645702 237.695 
Q 433.645702 240.095 436.045702 240.095 
z
" style="fill: #ffffff; opacity: 0.8; stroke: #cccccc; stroke-linejoin: miter"/>
    </g>
    <g id="line2d_35">
     <path d="M 438.445702 70.075625 
L 450.445702 70.075625 
L 462.445702 70.075625 
" style="fill: none; stroke: #bfbfbf; stroke-width: 1.5; stroke-linecap: square"/>
    </g>
    <g id="text_23">
     <!-- 0.00 -->
     <g transform="translate(472.045702 74.275625) scale(0.12 -0.12)">
      <use xlink:href="#DejaVuSans-30"/>
      <use xlink:href="#DejaVuSans-2e" transform="translate(63.623047 0)"/>
      <use xlink:href="#DejaVuSans-30" transform="translate(95.410156 0)"/>
      <use xlink:href="#DejaVuSans-30" transform="translate(159.033203 0)"/>
     </g>
    </g>
    <g id="line2d_36">
     <path d="M 438.445702 87.689375 
L 450.445702 87.689375 
L 462.445702 87.689375 
" style="fill: none; stroke: #acacac; stroke-width: 1.5; stroke-linecap: square"/>
    </g>
    <g id="text_24">
     <!-- 0.11 -->
     <g transform="translate(472.045702 91.889375) scale(0.12 -0.12)">
      <use xlink:href="#DejaVuSans-30"/>
      <use xlink:href="#DejaVuSans-2e" transform="translate(63.623047 0)"/>
      <use xlink:href="#DejaVuSans-31" transform="translate(95.410156 0)"/>
      <use xlink:href="#DejaVuSans-31" transform="translate(159.033203 0)"/>
     </g>
    </g>
    <g id="line2d_37">
     <path d="M 438.445702 105.303125 
L 450.445702 105.303125 
L 462.445702 105.303125 
" style="fill: none; stroke: #9a9a9a; stroke-width: 1.5; stroke-linecap: square"/>
    </g>
    <g id="text_25">
     <!-- 0.22 -->
     <g transform="translate(472.045702 109.503125) scale(0.12 -0.12)">
      <use xlink:href="#DejaVuSans-30"/>
      <use xlink:href="#DejaVuSans-2e" transform="translate(63.623047 0)"/>
      <use xlink:href="#DejaVuSans-32" transform="translate(95.410156 0)"/>
      <use xlink:href="#DejaVuSans-32" transform="translate(159.033203 0)"/>
     </g>
    </g>
    <g id="line2d_38">
     <path d="M 438.445702 122.916875 
L 450.445702 122.916875 
L 462.445702 122.916875 
" style="fill: none; stroke: #888888; stroke-width: 1.5; stroke-linecap: square"/>
    </g>
    <g id="text_26">
     <!-- 0.33 -->
     <g transform="translate(472.045702 127.116875) scale(0.12 -0.12)">
      <use xlink:href="#DejaVuSans-30"/>
      <use xlink:href="#DejaVuSans-2e" transform="translate(63.623047 0)"/>
      <use xlink:href="#DejaVuSans-33" transform="translate(95.410156 0)"/>
      <use xlink:href="#DejaVuSans-33" transform="translate(159.033203 0)"/>
     </g>
    </g>
    <g id="line2d_39">
     <path d="M 438.445702 140.530625 
L 450.445702 140.530625 
L 462.445702 140.530625 
" style="fill: none; stroke: #757575; stroke-width: 1.5; stroke-linecap: square"/>
    </g>
    <g id="text_27">
     <!-- 0.44 -->
     <g transform="translate(472.045702 144.730625) scale(0.12 -0.12)">
      <use xlink:href="#DejaVuSans-30"/>
      <use xlink:href="#DejaVuSans-2e" transform="translate(63.623047 0)"/>
      <use xlink:href="#DejaVuSans-34" transform="translate(95.410156 0)"/>
      <use xlink:href="#DejaVuSans-34" transform="translate(159.033203 0)"/>
     </g>
    </g>
    <g id="line2d_40">
     <path d="M 438.445702 158.144375 
L 450.445702 158.144375 
L 462.445702 158.144375 
" style="fill: none; stroke: #636363; stroke-width: 1.5; stroke-linecap: square"/>
    </g>
    <g id="text_28">
     <!-- 0.56 -->
     <g transform="translate(472.045702 162.344375) scale(0.12 -0.12)">
      <use xlink:href="#DejaVuSans-30"/>
      <use xlink:href="#DejaVuSans-2e" transform="translate(63.623047 0)"/>
      <use xlink:href="#DejaVuSans-35" transform="translate(95.410156 0)"/>
      <use xlink:href="#DejaVuSans-36" transform="translate(159.033203 0)"/>
     </g>
    </g>
    <g id="line2d_41">
     <path d="M 438.445702 175.758125 
L 450.445702 175.758125 
L 462.445702 175.758125 
" style="fill: none; stroke: #505050; stroke-width: 1.5; stroke-linecap: square"/>
    </g>
    <g id="text_29">
     <!-- 0.67 -->
     <g transform="translate(472.045702 179.958125) scale(0.12 -0.12)">
      <defs>
       <path id="DejaVuSans-37" d="M 525 4666 
L 3525 4666 
L 3525 4397 
L 1831 0 
L 1172 0 
L 2766 4134 
L 525 4134 
L 525 4666 
z
" transform="scale(0.015625)"/>
      </defs>
      <use xlink:href="#DejaVuSans-30"/>
      <use xlink:href="#DejaVuSans-2e" transform="translate(63.623047 0)"/>
      <use xlink:href="#DejaVuSans-36" transform="translate(95.410156 0)"/>
      <use xlink:href="#DejaVuSans-37" transform="translate(159.033203 0)"/>
     </g>
    </g>
    <g id="line2d_42">
     <path d="M 438.445702 193.371875 
L 450.445702 193.371875 
L 462.445702 193.371875 
" style="fill: none; stroke: #3e3e3e; stroke-width: 1.5; stroke-linecap: square"/>
    </g>
    <g id="text_30">
     <!-- 0.78 -->
     <g transform="translate(472.045702 197.571875) scale(0.12 -0.12)">
      <defs>
       <path id="DejaVuSans-38" d="M 2034 2216 
Q 1584 2216 1326 1975 
Q 1069 1734 1069 1313 
Q 1069 891 1326 650 
Q 1584 409 2034 409 
Q 2484 409 2743 651 
Q 3003 894 3003 1313 
Q 3003 1734 2745 1975 
Q 2488 2216 2034 2216 
z
M 1403 2484 
Q 997 2584 770 2862 
Q 544 3141 544 3541 
Q 544 4100 942 4425 
Q 1341 4750 2034 4750 
Q 2731 4750 3128 4425 
Q 3525 4100 3525 3541 
Q 3525 3141 3298 2862 
Q 3072 2584 2669 2484 
Q 3125 2378 3379 2068 
Q 3634 1759 3634 1313 
Q 3634 634 3220 271 
Q 2806 -91 2034 -91 
Q 1263 -91 848 271 
Q 434 634 434 1313 
Q 434 1759 690 2068 
Q 947 2378 1403 2484 
z
M 1172 3481 
Q 1172 3119 1398 2916 
Q 1625 2713 2034 2713 
Q 2441 2713 2670 2916 
Q 2900 3119 2900 3481 
Q 2900 3844 2670 4047 
Q 2441 4250 2034 4250 
Q 1625 4250 1398 4047 
Q 1172 3844 1172 3481 
z
" transform="scale(0.015625)"/>
      </defs>
      <use xlink:href="#DejaVuSans-30"/>
      <use xlink:href="#DejaVuSans-2e" transform="translate(63.623047 0)"/>
      <use xlink:href="#DejaVuSans-37" transform="translate(95.410156 0)"/>
      <use xlink:href="#DejaVuSans-38" transform="translate(159.033203 0)"/>
     </g>
    </g>
    <g id="line2d_43">
     <path d="M 438.445702 210.985625 
L 450.445702 210.985625 
L 462.445702 210.985625 
" style="fill: none; stroke: #2b2b2b; stroke-width: 1.5; stroke-linecap: square"/>
    </g>
    <g id="text_31">
     <!-- 0.89 -->
     <g transform="translate(472.045702 215.185625) scale(0.12 -0.12)">
      <defs>
       <path id="DejaVuSans-39" d="M 703 97 
L 703 672 
Q 941 559 1184 500 
Q 1428 441 1663 441 
Q 2288 441 2617 861 
Q 2947 1281 2994 2138 
Q 2813 1869 2534 1725 
Q 2256 1581 1919 1581 
Q 1219 1581 811 2004 
Q 403 2428 403 3163 
Q 403 3881 828 4315 
Q 1253 4750 1959 4750 
Q 2769 4750 3195 4129 
Q 3622 3509 3622 2328 
Q 3622 1225 3098 567 
Q 2575 -91 1691 -91 
Q 1453 -91 1209 -44 
Q 966 3 703 97 
z
M 1959 2075 
Q 2384 2075 2632 2365 
Q 2881 2656 2881 3163 
Q 2881 3666 2632 3958 
Q 2384 4250 1959 4250 
Q 1534 4250 1286 3958 
Q 1038 3666 1038 3163 
Q 1038 2656 1286 2365 
Q 1534 2075 1959 2075 
z
" transform="scale(0.015625)"/>
      </defs>
      <use xlink:href="#DejaVuSans-30"/>
      <use xlink:href="#DejaVuSans-2e" transform="translate(63.623047 0)"/>
      <use xlink:href="#DejaVuSans-38" transform="translate(95.410156 0)"/>
      <use xlink:href="#DejaVuSans-39" transform="translate(159.033203 0)"/>
     </g>
    </g>
    <g id="line2d_44">
     <path d="M 438.445702 228.599375 
L 450.445702 228.599375 
L 462.445702 228.599375 
" style="fill: none; stroke: #191919; stroke-width: 1.5; stroke-linecap: square"/>
    </g>
    <g id="text_32">
     <!-- 1.00 -->
     <g transform="translate(472.045702 232.799375) scale(0.12 -0.12)">
      <use xlink:href="#DejaVuSans-31"/>
      <use xlink:href="#DejaVuSans-2e" transform="translate(63.623047 0)"/>
      <use xlink:href="#DejaVuSans-30" transform="translate(95.410156 0)"/>
      <use xlink:href="#DejaVuSans-30" transform="translate(159.033203 0)"/>
     </g>
    </g>
   </g>
  </g>
  <g id="axes_2">
   <g id="patch_6">
    <path d="M 584.341212 331.5575 
L 948.749375 331.5575 
L 948.749375 54.3575 
L 584.341212 54.3575 
z
" style="fill: #ffffff"/>
   </g>
   <g id="FillBetweenPolyCollection_1">
    <defs>
     <path id="m7aaf0245b4" d="M 600.905219 -65.102818 
L 600.905219 -59.834375 
L 637.714125 -60.062356 
L 674.52303 -60.577596 
L 711.331935 -61.426829 
L 748.140841 -62.854749 
L 784.949746 -65.250996 
L 821.758651 -69.149451 
L 858.567557 -75.499258 
L 895.376462 -91.356721 
L 932.185368 -280.878351 
L 932.185368 -311.834375 
L 932.185368 -311.834375 
L 895.376462 -120.412563 
L 858.567557 -98.164836 
L 821.758651 -85.509526 
L 784.949746 -77.497562 
L 748.140841 -72.704148 
L 711.331935 -70.388021 
L 674.52303 -68.497042 
L 637.714125 -66.204246 
L 600.905219 -65.102818 
z
" style="stroke: #000000; stroke-opacity: 0.25"/>
    </defs>
    <g clip-path="url(#pb29ca1713a)">
     <use xlink:href="#m7aaf0245b4" x="0" y="378.791875" style="fill-opacity: 0.25; stroke: #000000; stroke-opacity: 0.25"/>
    </g>
   </g>
   <g id="matplotlib.axis_3">
    <g id="xtick_8">
     <g id="line2d_45">
      <g>
       <use xlink:href="#m1b5ce9df95" x="600.905219" y="331.5575" style="stroke: #000000; stroke-width: 0.8"/>
      </g>
     </g>
     <g id="text_33">
      <!-- 0.0 -->
      <g transform="translate(589.773032 349.195312) scale(0.14 -0.14)">
       <use xlink:href="#DejaVuSans-30"/>
       <use xlink:href="#DejaVuSans-2e" transform="translate(63.623047 0)"/>
       <use xlink:href="#DejaVuSans-30" transform="translate(95.410156 0)"/>
      </g>
     </g>
    </g>
    <g id="xtick_9">
     <g id="line2d_46">
      <g>
       <use xlink:href="#m1b5ce9df95" x="667.161249" y="331.5575" style="stroke: #000000; stroke-width: 0.8"/>
      </g>
     </g>
     <g id="text_34">
      <!-- 0.2 -->
      <g transform="translate(656.029061 349.195312) scale(0.14 -0.14)">
       <use xlink:href="#DejaVuSans-30"/>
       <use xlink:href="#DejaVuSans-2e" transform="translate(63.623047 0)"/>
       <use xlink:href="#DejaVuSans-32" transform="translate(95.410156 0)"/>
      </g>
     </g>
    </g>
    <g id="xtick_10">
     <g id="line2d_47">
      <g>
       <use xlink:href="#m1b5ce9df95" x="733.417279" y="331.5575" style="stroke: #000000; stroke-width: 0.8"/>
      </g>
     </g>
     <g id="text_35">
      <!-- 0.4 -->
      <g transform="translate(722.285091 349.195312) scale(0.14 -0.14)">
       <use xlink:href="#DejaVuSans-30"/>
       <use xlink:href="#DejaVuSans-2e" transform="translate(63.623047 0)"/>
       <use xlink:href="#DejaVuSans-34" transform="translate(95.410156 0)"/>
      </g>
     </g>
    </g>
    <g id="xtick_11">
     <g id="line2d_48">
      <g>
       <use xlink:href="#m1b5ce9df95" x="799.673308" y="331.5575" style="stroke: #000000; stroke-width: 0.8"/>
      </g>
     </g>
     <g id="text_36">
      <!-- 0.6 -->
      <g transform="translate(788.541121 349.195312) scale(0.14 -0.14)">
       <use xlink:href="#DejaVuSans-30"/>
       <use xlink:href="#DejaVuSans-2e" transform="translate(63.623047 0)"/>
       <use xlink:href="#DejaVuSans-36" transform="translate(95.410156 0)"/>
      </g>
     </g>
    </g>
    <g id="xtick_12">
     <g id="line2d_49">
      <g>
       <use xlink:href="#m1b5ce9df95" x="865.929338" y="331.5575" style="stroke: #000000; stroke-width: 0.8"/>
      </g>
     </g>
     <g id="text_37">
      <!-- 0.8 -->
      <g transform="translate(854.79715 349.195312) scale(0.14 -0.14)">
       <use xlink:href="#DejaVuSans-30"/>
       <use xlink:href="#DejaVuSans-2e" transform="translate(63.623047 0)"/>
       <use xlink:href="#DejaVuSans-38" transform="translate(95.410156 0)"/>
      </g>
     </g>
    </g>
    <g id="xtick_13">
     <g id="line2d_50">
      <g>
       <use xlink:href="#m1b5ce9df95" x="932.185368" y="331.5575" style="stroke: #000000; stroke-width: 0.8"/>
      </g>
     </g>
     <g id="text_38">
      <!-- 1.0 -->
      <g transform="translate(921.05318 349.195312) scale(0.14 -0.14)">
       <use xlink:href="#DejaVuSans-31"/>
       <use xlink:href="#DejaVuSans-2e" transform="translate(63.623047 0)"/>
       <use xlink:href="#DejaVuSans-30" transform="translate(95.410156 0)"/>
      </g>
     </g>
    </g>
    <g id="text_39">
     <!-- Film Shared Support Scale -->
     <g transform="translate(661.346543 368.264375) scale(0.16 -0.16)">
      <use xlink:href="#DejaVuSans-46"/>
      <use xlink:href="#DejaVuSans-69" transform="translate(50.269531 0)"/>
      <use xlink:href="#DejaVuSans-6c" transform="translate(78.052734 0)"/>
      <use xlink:href="#DejaVuSans-6d" transform="translate(105.835938 0)"/>
      <use xlink:href="#DejaVuSans-20" transform="translate(203.248047 0)"/>
      <use xlink:href="#DejaVuSans-53" transform="translate(235.035156 0)"/>
      <use xlink:href="#DejaVuSans-68" transform="translate(298.511719 0)"/>
      <use xlink:href="#DejaVuSans-61" transform="translate(361.890625 0)"/>
      <use xlink:href="#DejaVuSans-72" transform="translate(423.169922 0)"/>
      <use xlink:href="#DejaVuSans-65" transform="translate(462.033203 0)"/>
      <use xlink:href="#DejaVuSans-64" transform="translate(523.556641 0)"/>
      <use xlink:href="#DejaVuSans-20" transform="translate(587.033203 0)"/>
      <use xlink:href="#DejaVuSans-53" transform="translate(618.820312 0)"/>
      <use xlink:href="#DejaVuSans-75" transform="translate(682.296875 0)"/>
      <use xlink:href="#DejaVuSans-70" transform="translate(745.675781 0)"/>
      <use xlink:href="#DejaVuSans-70" transform="translate(809.152344 0)"/>
      <use xlink:href="#DejaVuSans-6f" transform="translate(872.628906 0)"/>
      <use xlink:href="#DejaVuSans-72" transform="translate(933.810547 0)"/>
      <use xlink:href="#DejaVuSans-74" transform="translate(974.923828 0)"/>
      <use xlink:href="#DejaVuSans-20" transform="translate(1014.132812 0)"/>
      <use xlink:href="#DejaVuSans-53" transform="translate(1045.919922 0)"/>
      <use xlink:href="#DejaVuSans-63" transform="translate(1109.396484 0)"/>
      <use xlink:href="#DejaVuSans-61" transform="translate(1164.376953 0)"/>
      <use xlink:href="#DejaVuSans-6c" transform="translate(1225.65625 0)"/>
      <use xlink:href="#DejaVuSans-65" transform="translate(1253.439453 0)"/>
     </g>
    </g>
   </g>
   <g id="matplotlib.axis_4">
    <g id="ytick_8">
     <g id="line2d_51">
      <path d="M 584.341212 318.676875 
L 948.749375 318.676875 
" clip-path="url(#pb29ca1713a)" style="fill: none; stroke-dasharray: 1.85,0.8; stroke-dashoffset: 0; stroke: #b0b0b0; stroke-opacity: 0.3; stroke-width: 0.5"/>
     </g>
     <g id="line2d_52">
      <g>
       <use xlink:href="#m518e556706" x="584.341212" y="318.676875" style="stroke: #000000; stroke-width: 0.8"/>
      </g>
     </g>
     <g id="text_40">
      <!-- 0.0 -->
      <g transform="translate(555.076837 323.995781) scale(0.14 -0.14)">
       <use xlink:href="#DejaVuSans-30"/>
       <use xlink:href="#DejaVuSans-2e" transform="translate(63.623047 0)"/>
       <use xlink:href="#DejaVuSans-30" transform="translate(95.410156 0)"/>
      </g>
     </g>
    </g>
    <g id="ytick_9">
     <g id="line2d_53">
      <path d="M 584.341212 275.94588 
L 948.749375 275.94588 
" clip-path="url(#pb29ca1713a)" style="fill: none; stroke-dasharray: 1.85,0.8; stroke-dashoffset: 0; stroke: #b0b0b0; stroke-opacity: 0.3; stroke-width: 0.5"/>
     </g>
     <g id="line2d_54">
      <g>
       <use xlink:href="#m518e556706" x="584.341212" y="275.94588" style="stroke: #000000; stroke-width: 0.8"/>
      </g>
     </g>
     <g id="text_41">
      <!-- 0.5 -->
      <g transform="translate(555.076837 281.264786) scale(0.14 -0.14)">
       <use xlink:href="#DejaVuSans-30"/>
       <use xlink:href="#DejaVuSans-2e" transform="translate(63.623047 0)"/>
       <use xlink:href="#DejaVuSans-35" transform="translate(95.410156 0)"/>
      </g>
     </g>
    </g>
    <g id="ytick_10">
     <g id="line2d_55">
      <path d="M 584.341212 233.214886 
L 948.749375 233.214886 
" clip-path="url(#pb29ca1713a)" style="fill: none; stroke-dasharray: 1.85,0.8; stroke-dashoffset: 0; stroke: #b0b0b0; stroke-opacity: 0.3; stroke-width: 0.5"/>
     </g>
     <g id="line2d_56">
      <g>
       <use xlink:href="#m518e556706" x="584.341212" y="233.214886" style="stroke: #000000; stroke-width: 0.8"/>
      </g>
     </g>
     <g id="text_42">
      <!-- 1.0 -->
      <g transform="translate(555.076837 238.533792) scale(0.14 -0.14)">
       <use xlink:href="#DejaVuSans-31"/>
       <use xlink:href="#DejaVuSans-2e" transform="translate(63.623047 0)"/>
       <use xlink:href="#DejaVuSans-30" transform="translate(95.410156 0)"/>
      </g>
     </g>
    </g>
    <g id="ytick_11">
     <g id="line2d_57">
      <path d="M 584.341212 190.483891 
L 948.749375 190.483891 
" clip-path="url(#pb29ca1713a)" style="fill: none; stroke-dasharray: 1.85,0.8; stroke-dashoffset: 0; stroke: #b0b0b0; stroke-opacity: 0.3; stroke-width: 0.5"/>
     </g>
     <g id="line2d_58">
      <g>
       <use xlink:href="#m518e556706" x="584.341212" y="190.483891" style="stroke: #000000; stroke-width: 0.8"/>
      </g>
     </g>
     <g id="text_43">
      <!-- 1.5 -->
      <g transform="translate(555.076837 195.802798) scale(0.14 -0.14)">
       <use xlink:href="#DejaVuSans-31"/>
       <use xlink:href="#DejaVuSans-2e" transform="translate(63.623047 0)"/>
       <use xlink:href="#DejaVuSans-35" transform="translate(95.410156 0)"/>
      </g>
     </g>
    </g>
    <g id="ytick_12">
     <g id="line2d_59">
      <path d="M 584.341212 147.752897 
L 948.749375 147.752897 
" clip-path="url(#pb29ca1713a)" style="fill: none; stroke-dasharray: 1.85,0.8; stroke-dashoffset: 0; stroke: #b0b0b0; stroke-opacity: 0.3; stroke-width: 0.5"/>
     </g>
     <g id="line2d_60">
      <g>
       <use xlink:href="#m518e556706" x="584.341212" y="147.752897" style="stroke: #000000; stroke-width: 0.8"/>
      </g>
     </g>
     <g id="text_44">
      <!-- 2.0 -->
      <g transform="translate(555.076837 153.071803) scale(0.14 -0.14)">
       <use xlink:href="#DejaVuSans-32"/>
       <use xlink:href="#DejaVuSans-2e" transform="translate(63.623047 0)"/>
       <use xlink:href="#DejaVuSans-30" transform="translate(95.410156 0)"/>
      </g>
     </g>
    </g>
    <g id="ytick_13">
     <g id="line2d_61">
      <path d="M 584.341212 105.021902 
L 948.749375 105.021902 
" clip-path="url(#pb29ca1713a)" style="fill: none; stroke-dasharray: 1.85,0.8; stroke-dashoffset: 0; stroke: #b0b0b0; stroke-opacity: 0.3; stroke-width: 0.5"/>
     </g>
     <g id="line2d_62">
      <g>
       <use xlink:href="#m518e556706" x="584.341212" y="105.021902" style="stroke: #000000; stroke-width: 0.8"/>
      </g>
     </g>
     <g id="text_45">
      <!-- 2.5 -->
      <g transform="translate(555.076837 110.340809) scale(0.14 -0.14)">
       <use xlink:href="#DejaVuSans-32"/>
       <use xlink:href="#DejaVuSans-2e" transform="translate(63.623047 0)"/>
       <use xlink:href="#DejaVuSans-35" transform="translate(95.410156 0)"/>
      </g>
     </g>
    </g>
    <g id="ytick_14">
     <g id="line2d_63">
      <path d="M 584.341212 62.290908 
L 948.749375 62.290908 
" clip-path="url(#pb29ca1713a)" style="fill: none; stroke-dasharray: 1.85,0.8; stroke-dashoffset: 0; stroke: #b0b0b0; stroke-opacity: 0.3; stroke-width: 0.5"/>
     </g>
     <g id="line2d_64">
      <g>
       <use xlink:href="#m518e556706" x="584.341212" y="62.290908" style="stroke: #000000; stroke-width: 0.8"/>
      </g>
     </g>
     <g id="text_46">
      <!-- 3.0 -->
      <g transform="translate(555.076837 67.609814) scale(0.14 -0.14)">
       <use xlink:href="#DejaVuSans-33"/>
       <use xlink:href="#DejaVuSans-2e" transform="translate(63.623047 0)"/>
       <use xlink:href="#DejaVuSans-30" transform="translate(95.410156 0)"/>
      </g>
     </g>
    </g>
    <g id="text_47">
     <!-- Film Items Recalled -->
     <g transform="translate(547.749337 270.54875) rotate(-90) scale(0.16 -0.16)">
      <defs>
       <path id="DejaVuSans-49" d="M 628 4666 
L 1259 4666 
L 1259 0 
L 628 0 
L 628 4666 
z
" transform="scale(0.015625)"/>
      </defs>
      <use xlink:href="#DejaVuSans-46"/>
      <use xlink:href="#DejaVuSans-69" transform="translate(50.269531 0)"/>
      <use xlink:href="#DejaVuSans-6c" transform="translate(78.052734 0)"/>
      <use xlink:href="#DejaVuSans-6d" transform="translate(105.835938 0)"/>
      <use xlink:href="#DejaVuSans-20" transform="translate(203.248047 0)"/>
      <use xlink:href="#DejaVuSans-49" transform="translate(235.035156 0)"/>
      <use xlink:href="#DejaVuSans-74" transform="translate(264.527344 0)"/>
      <use xlink:href="#DejaVuSans-65" transform="translate(303.736328 0)"/>
      <use xlink:href="#DejaVuSans-6d" transform="translate(365.259766 0)"/>
      <use xlink:href="#DejaVuSans-73" transform="translate(462.671875 0)"/>
      <use xlink:href="#DejaVuSans-20" transform="translate(514.771484 0)"/>
      <use xlink:href="#DejaVuSans-52" transform="translate(546.558594 0)"/>
      <use xlink:href="#DejaVuSans-65" transform="translate(611.541016 0)"/>
      <use xlink:href="#DejaVuSans-63" transform="translate(673.064453 0)"/>
      <use xlink:href="#DejaVuSans-61" transform="translate(728.044922 0)"/>
      <use xlink:href="#DejaVuSans-6c" transform="translate(789.324219 0)"/>
      <use xlink:href="#DejaVuSans-6c" transform="translate(817.107422 0)"/>
      <use xlink:href="#DejaVuSans-65" transform="translate(844.890625 0)"/>
      <use xlink:href="#DejaVuSans-64" transform="translate(906.414062 0)"/>
     </g>
    </g>
   </g>
   <g id="line2d_65">
    <path d="M 600.905219 316.323279 
L 637.714125 315.658574 
L 674.52303 314.254556 
L 711.331935 312.88445 
L 748.140841 311.012426 
L 784.949746 307.417596 
L 821.758651 301.462386 
L 858.567557 291.959828 
L 895.376462 272.907233 
L 932.185368 82.435512 
" clip-path="url(#pb29ca1713a)" style="fill: none; stroke: #000000; stroke-width: 1.5; stroke-linecap: square"/>
    <defs>
     <path id="m04c8f9fc99" d="M 0 2.5 
C 0.663008 2.5 1.29895 2.236584 1.767767 1.767767 
C 2.236584 1.29895 2.5 0.663008 2.5 0 
C 2.5 -0.663008 2.236584 -1.29895 1.767767 -1.767767 
C 1.29895 -2.236584 0.663008 -2.5 0 -2.5 
C -0.663008 -2.5 -1.29895 -2.236584 -1.767767 -1.767767 
C -2.236584 -1.29895 -2.5 -0.663008 -2.5 0 
C -2.5 0.663008 -2.236584 1.29895 -1.767767 1.767767 
C -1.29895 2.236584 -0.663008 2.5 0 2.5 
z
" style="stroke: #000000"/>
    </defs>
    <g clip-path="url(#pb29ca1713a)">
     <use xlink:href="#m04c8f9fc99" x="600.905219" y="316.323279" style="stroke: #000000"/>
     <use xlink:href="#m04c8f9fc99" x="637.714125" y="315.658574" style="stroke: #000000"/>
     <use xlink:href="#m04c8f9fc99" x="674.52303" y="314.254556" style="stroke: #000000"/>
     <use xlink:href="#m04c8f9fc99" x="711.331935" y="312.88445" style="stroke: #000000"/>
     <use xlink:href="#m04c8f9fc99" x="748.140841" y="311.012426" style="stroke: #000000"/>
     <use xlink:href="#m04c8f9fc99" x="784.949746" y="307.417596" style="stroke: #000000"/>
     <use xlink:href="#m04c8f9fc99" x="821.758651" y="301.462386" style="stroke: #000000"/>
     <use xlink:href="#m04c8f9fc99" x="858.567557" y="291.959828" style="stroke: #000000"/>
     <use xlink:href="#m04c8f9fc99" x="895.376462" y="272.907233" style="stroke: #000000"/>
     <use xlink:href="#m04c8f9fc99" x="932.185368" y="82.435512" style="stroke: #000000"/>
    </g>
   </g>
   <g id="patch_7">
    <path d="M 584.341212 331.5575 
L 584.341212 54.3575 
" style="fill: none; stroke: #000000; stroke-width: 0.8; stroke-linejoin: miter; stroke-linecap: square"/>
   </g>
   <g id="patch_8">
    <path d="M 584.341212 331.5575 
L 948.749375 331.5575 
" style="fill: none; stroke: #000000; stroke-width: 0.8; stroke-linejoin: miter; stroke-linecap: square"/>
   </g>
   <g id="text_48">
    <!-- Film Items Recalled -->
    <g transform="translate(688.954043 19.3575) scale(0.16 -0.16)">
     <use xlink:href="#DejaVuSans-46"/>
     <use xlink:href="#DejaVuSans-69" transform="translate(50.269531 0)"/>
     <use xlink:href="#DejaVuSans-6c" transform="translate(78.052734 0)"/>
     <use xlink:href="#DejaVuSans-6d" transform="translate(105.835938 0)"/>
     <use xlink:href="#DejaVuSans-20" transform="translate(203.248047 0)"/>
     <use xlink:href="#DejaVuSans-49" transform="translate(235.035156 0)"/>
     <use xlink:href="#DejaVuSans-74" transform="translate(264.527344 0)"/>
     <use xlink:href="#DejaVuSans-65" transform="translate(303.736328 0)"/>
     <use xlink:href="#DejaVuSans-6d" transform="translate(365.259766 0)"/>
     <use xlink:href="#DejaVuSans-73" transform="translate(462.671875 0)"/>
     <use xlink:href="#DejaVuSans-20" transform="translate(514.771484 0)"/>
     <use xlink:href="#DejaVuSans-52" transform="translate(546.558594 0)"/>
     <use xlink:href="#DejaVuSans-65" transform="translate(611.541016 0)"/>
     <use xlink:href="#DejaVuSans-63" transform="translate(673.064453 0)"/>
     <use xlink:href="#DejaVuSans-61" transform="translate(728.044922 0)"/>
     <use xlink:href="#DejaVuSans-6c" transform="translate(789.324219 0)"/>
     <use xlink:href="#DejaVuSans-6c" transform="translate(817.107422 0)"/>
     <use xlink:href="#DejaVuSans-65" transform="translate(844.890625 0)"/>
     <use xlink:href="#DejaVuSans-64" transform="translate(906.414062 0)"/>
    </g>
   </g>
  </g>
 </g>
 <defs>
  <clipPath id="pe32517935d">
   <rect x="55.949375" y="54.3575" width="364.408163" height="277.2"/>
  </clipPath>
  <clipPath id="pb29ca1713a">
   <rect x="584.341212" y="54.3575" width="364.408163" height="277.2"/>
  </clipPath>
 </defs>
</svg>
