<?xml version="1.0" encoding="utf-8" standalone="no"?>
<!DOCTYPE svg PUBLIC "-//W3C//DTD SVG 1.1//EN"
  "http://www.w3.org/Graphics/SVG/1.1/DTD/svg11.dtd">
<svg xmlns:xlink="http://www.w3.org/1999/xlink" width="973.764375pt" height="378.791875pt" viewBox="0 0 973.764375 378.791875" xmlns="http://www.w3.org/2000/svg" version="1.1">
 <metadata>
  <rdf:RDF xmlns:dc="http://purl.org/dc/elements/1.1/" xmlns:cc="http://creativecommons.org/ns#" xmlns:rdf="http://www.w3.org/1999/02/22-rdf-syntax-ns#">
   <cc:Work>
    <dc:type rdf:resource="http://purl.org/dc/dcmitype/StillImage"/>
    <dc:date>2026-02-19T13:31:05.060997</dc:date>
    <dc:format>image/svg+xml</dc:format>
    <dc:creator>
     <cc:Agent>
      <dc:title>Matplotlib v3.10.1, https://matplotlib.org/</dc:title>
     </cc:Agent>
    </dc:creator>
   </cc:Work>
  </rdf:RDF>
 </metadata>
 <defs>
  <style type="text/css">*{stroke-linejoin: round; stroke-linecap: butt}</style>
 </defs>
 <g id="figure_1">
  <g id="patch_1">
   <path d="M 0 378.791875 
L 973.764375 378.791875 
L 973.764375 0 
L 0 0 
z
" style="fill: #ffffff"/>
  </g>
  <g id="axes_1">
   <g id="patch_2">
    <path d="M 73.764375 331.5575 
L 438.172538 331.5575 
L 438.172538 54.3575 
L 73.764375 54.3575 
z
" style="fill: #ffffff"/>
   </g>
   <g id="matplotlib.axis_1">
    <g id="xtick_1">
     <g id="line2d_1">
      <defs>
       <path id="m76d2b6046c" d="M 0 0 
L 0 3.5 
" style="stroke: #000000; stroke-width: 0.8"/>
      </defs>
      <g>
       <use xlink:href="#m76d2b6046c" x="85.069967" y="331.5575" style="stroke: #000000; stroke-width: 0.8"/>
      </g>
     </g>
     <g id="text_1">
      <!-- 0 -->
      <g transform="translate(80.616217 349.195312) scale(0.14 -0.14)">
       <defs>
        <path id="DejaVuSans-30" d="M 2034 4250 
Q 1547 4250 1301 3770 
Q 1056 3291 1056 2328 
Q 1056 1369 1301 889 
Q 1547 409 2034 409 
Q 2525 409 2770 889 
Q 3016 1369 3016 2328 
Q 3016 3291 2770 3770 
Q 2525 4250 2034 4250 
z
M 2034 4750 
Q 2819 4750 3233 4129 
Q 3647 3509 3647 2328 
Q 3647 1150 3233 529 
Q 2819 -91 2034 -91 
Q 1250 -91 836 529 
Q 422 1150 422 2328 
Q 422 3509 836 4129 
Q 1250 4750 2034 4750 
z
" transform="scale(0.015625)"/>
       </defs>
       <use xlink:href="#DejaVuSans-30"/>
      </g>
     </g>
    </g>
    <g id="xtick_2">
     <g id="line2d_2">
      <g>
       <use xlink:href="#m76d2b6046c" x="137.654118" y="331.5575" style="stroke: #000000; stroke-width: 0.8"/>
      </g>
     </g>
     <g id="text_2">
      <!-- 10 -->
      <g transform="translate(128.746618 349.195312) scale(0.14 -0.14)">
       <defs>
        <path id="DejaVuSans-31" d="M 794 531 
L 1825 531 
L 1825 4091 
L 703 3866 
L 703 4441 
L 1819 4666 
L 2450 4666 
L 2450 531 
L 3481 531 
L 3481 0 
L 794 0 
L 794 531 
z
" transform="scale(0.015625)"/>
       </defs>
       <use xlink:href="#DejaVuSans-31"/>
       <use xlink:href="#DejaVuSans-30" transform="translate(63.623047 0)"/>
      </g>
     </g>
    </g>
    <g id="xtick_3">
     <g id="line2d_3">
      <g>
       <use xlink:href="#m76d2b6046c" x="190.238268" y="331.5575" style="stroke: #000000; stroke-width: 0.8"/>
      </g>
     </g>
     <g id="text_3">
      <!-- 20 -->
      <g transform="translate(181.330768 349.195312) scale(0.14 -0.14)">
       <defs>
        <path id="DejaVuSans-32" d="M 1228 531 
L 3431 531 
L 3431 0 
L 469 0 
L 469 531 
Q 828 903 1448 1529 
Q 2069 2156 2228 2338 
Q 2531 2678 2651 2914 
Q 2772 3150 2772 3378 
Q 2772 3750 2511 3984 
Q 2250 4219 1831 4219 
Q 1534 4219 1204 4116 
Q 875 4013 500 3803 
L 500 4441 
Q 881 4594 1212 4672 
Q 1544 4750 1819 4750 
Q 2544 4750 2975 4387 
Q 3406 4025 3406 3419 
Q 3406 3131 3298 2873 
Q 3191 2616 2906 2266 
Q 2828 2175 2409 1742 
Q 1991 1309 1228 531 
z
" transform="scale(0.015625)"/>
       </defs>
       <use xlink:href="#DejaVuSans-32"/>
       <use xlink:href="#DejaVuSans-30" transform="translate(63.623047 0)"/>
      </g>
     </g>
    </g>
    <g id="xtick_4">
     <g id="line2d_4">
      <g>
       <use xlink:href="#m76d2b6046c" x="242.822419" y="331.5575" style="stroke: #000000; stroke-width: 0.8"/>
      </g>
     </g>
     <g id="text_4">
      <!-- 30 -->
      <g transform="translate(233.914919 349.195312) scale(0.14 -0.14)">
       <defs>
        <path id="DejaVuSans-33" d="M 2597 2516 
Q 3050 2419 3304 2112 
Q 3559 1806 3559 1356 
Q 3559 666 3084 287 
Q 2609 -91 1734 -91 
Q 1441 -91 1130 -33 
Q 819 25 488 141 
L 488 750 
Q 750 597 1062 519 
Q 1375 441 1716 441 
Q 2309 441 2620 675 
Q 2931 909 2931 1356 
Q 2931 1769 2642 2001 
Q 2353 2234 1838 2234 
L 1294 2234 
L 1294 2753 
L 1863 2753 
Q 2328 2753 2575 2939 
Q 2822 3125 2822 3475 
Q 2822 3834 2567 4026 
Q 2313 4219 1838 4219 
Q 1578 4219 1281 4162 
Q 984 4106 628 3988 
L 628 4550 
Q 988 4650 1302 4700 
Q 1616 4750 1894 4750 
Q 2613 4750 3031 4423 
Q 3450 4097 3450 3541 
Q 3450 3153 3228 2886 
Q 3006 2619 2597 2516 
z
" transform="scale(0.015625)"/>
       </defs>
       <use xlink:href="#DejaVuSans-33"/>
       <use xlink:href="#DejaVuSans-30" transform="translate(63.623047 0)"/>
      </g>
     </g>
    </g>
    <g id="xtick_5">
     <g id="line2d_5">
      <g>
       <use xlink:href="#m76d2b6046c" x="295.40657" y="331.5575" style="stroke: #000000; stroke-width: 0.8"/>
      </g>
     </g>
     <g id="text_5">
      <!-- 40 -->
      <g transform="translate(286.49907 349.195312) scale(0.14 -0.14)">
       <defs>
        <path id="DejaVuSans-34" d="M 2419 4116 
L 825 1625 
L 2419 1625 
L 2419 4116 
z
M 2253 4666 
L 3047 4666 
L 3047 1625 
L 3713 1625 
L 3713 1100 
L 3047 1100 
L 3047 0 
L 2419 0 
L 2419 1100 
L 313 1100 
L 313 1709 
L 2253 4666 
z
" transform="scale(0.015625)"/>
       </defs>
       <use xlink:href="#DejaVuSans-34"/>
       <use xlink:href="#DejaVuSans-30" transform="translate(63.623047 0)"/>
      </g>
     </g>
    </g>
    <g id="xtick_6">
     <g id="line2d_6">
      <g>
       <use xlink:href="#m76d2b6046c" x="347.99072" y="331.5575" style="stroke: #000000; stroke-width: 0.8"/>
      </g>
     </g>
     <g id="text_6">
      <!-- 50 -->
      <g transform="translate(339.08322 349.195312) scale(0.14 -0.14)">
       <defs>
        <path id="DejaVuSans-35" d="M 691 4666 
L 3169 4666 
L 3169 4134 
L 1269 4134 
L 1269 2991 
Q 1406 3038 1543 3061 
Q 1681 3084 1819 3084 
Q 2600 3084 3056 2656 
Q 3513 2228 3513 1497 
Q 3513 744 3044 326 
Q 2575 -91 1722 -91 
Q 1428 -91 1123 -41 
Q 819 9 494 109 
L 494 744 
Q 775 591 1075 516 
Q 1375 441 1709 441 
Q 2250 441 2565 725 
Q 2881 1009 2881 1497 
Q 2881 1984 2565 2268 
Q 2250 2553 1709 2553 
Q 1456 2553 1204 2497 
Q 953 2441 691 2322 
L 691 4666 
z
" transform="scale(0.015625)"/>
       </defs>
       <use xlink:href="#DejaVuSans-35"/>
       <use xlink:href="#DejaVuSans-30" transform="translate(63.623047 0)"/>
      </g>
     </g>
    </g>
    <g id="xtick_7">
     <g id="line2d_7">
      <g>
       <use xlink:href="#m76d2b6046c" x="400.574871" y="331.5575" style="stroke: #000000; stroke-width: 0.8"/>
      </g>
     </g>
     <g id="text_7">
      <!-- 60 -->
      <g transform="translate(391.667371 349.195312) scale(0.14 -0.14)">
       <defs>
        <path id="DejaVuSans-36" d="M 2113 2584 
Q 1688 2584 1439 2293 
Q 1191 2003 1191 1497 
Q 1191 994 1439 701 
Q 1688 409 2113 409 
Q 2538 409 2786 701 
Q 3034 994 3034 1497 
Q 3034 2003 2786 2293 
Q 2538 2584 2113 2584 
z
M 3366 4563 
L 3366 3988 
Q 3128 4100 2886 4159 
Q 2644 4219 2406 4219 
Q 1781 4219 1451 3797 
Q 1122 3375 1075 2522 
Q 1259 2794 1537 2939 
Q 1816 3084 2150 3084 
Q 2853 3084 3261 2657 
Q 3669 2231 3669 1497 
Q 3669 778 3244 343 
Q 2819 -91 2113 -91 
Q 1303 -91 875 529 
Q 447 1150 447 2328 
Q 447 3434 972 4092 
Q 1497 4750 2381 4750 
Q 2619 4750 2861 4703 
Q 3103 4656 3366 4563 
z
" transform="scale(0.015625)"/>
       </defs>
       <use xlink:href="#DejaVuSans-36"/>
       <use xlink:href="#DejaVuSans-30" transform="translate(63.623047 0)"/>
      </g>
     </g>
    </g>
    <g id="text_8">
     <!-- Study Position -->
     <g transform="translate(199.184707 368.264375) scale(0.16 -0.16)">
      <defs>
       <path id="DejaVuSans-53" d="M 3425 4513 
L 3425 3897 
Q 3066 4069 2747 4153 
Q 2428 4238 2131 4238 
Q 1616 4238 1336 4038 
Q 1056 3838 1056 3469 
Q 1056 3159 1242 3001 
Q 1428 2844 1947 2747 
L 2328 2669 
Q 3034 2534 3370 2195 
Q 3706 1856 3706 1288 
Q 3706 609 3251 259 
Q 2797 -91 1919 -91 
Q 1588 -91 1214 -16 
Q 841 59 441 206 
L 441 856 
Q 825 641 1194 531 
Q 1563 422 1919 422 
Q 2459 422 2753 634 
Q 3047 847 3047 1241 
Q 3047 1584 2836 1778 
Q 2625 1972 2144 2069 
L 1759 2144 
Q 1053 2284 737 2584 
Q 422 2884 422 3419 
Q 422 4038 858 4394 
Q 1294 4750 2059 4750 
Q 2388 4750 2728 4690 
Q 3069 4631 3425 4513 
z
" transform="scale(0.015625)"/>
       <path id="DejaVuSans-74" d="M 1172 4494 
L 1172 3500 
L 2356 3500 
L 2356 3053 
L 1172 3053 
L 1172 1153 
Q 1172 725 1289 603 
Q 1406 481 1766 481 
L 2356 481 
L 2356 0 
L 1766 0 
Q 1100 0 847 248 
Q 594 497 594 1153 
L 594 3053 
L 172 3053 
L 172 3500 
L 594 3500 
L 594 4494 
L 1172 4494 
z
" transform="scale(0.015625)"/>
       <path id="DejaVuSans-75" d="M 544 1381 
L 544 3500 
L 1119 3500 
L 1119 1403 
Q 1119 906 1312 657 
Q 1506 409 1894 409 
Q 2359 409 2629 706 
Q 2900 1003 2900 1516 
L 2900 3500 
L 3475 3500 
L 3475 0 
L 2900 0 
L 2900 538 
Q 2691 219 2414 64 
Q 2138 -91 1772 -91 
Q 1169 -91 856 284 
Q 544 659 544 1381 
z
M 1991 3584 
L 1991 3584 
z
" transform="scale(0.015625)"/>
       <path id="DejaVuSans-64" d="M 2906 2969 
L 2906 4863 
L 3481 4863 
L 3481 0 
L 2906 0 
L 2906 525 
Q 2725 213 2448 61 
Q 2172 -91 1784 -91 
Q 1150 -91 751 415 
Q 353 922 353 1747 
Q 353 2572 751 3078 
Q 1150 3584 1784 3584 
Q 2172 3584 2448 3432 
Q 2725 3281 2906 2969 
z
M 947 1747 
Q 947 1113 1208 752 
Q 1469 391 1925 391 
Q 2381 391 2643 752 
Q 2906 1113 2906 1747 
Q 2906 2381 2643 2742 
Q 2381 3103 1925 3103 
Q 1469 3103 1208 2742 
Q 947 2381 947 1747 
z
" transform="scale(0.015625)"/>
       <path id="DejaVuSans-79" d="M 2059 -325 
Q 1816 -950 1584 -1140 
Q 1353 -1331 966 -1331 
L 506 -1331 
L 506 -850 
L 844 -850 
Q 1081 -850 1212 -737 
Q 1344 -625 1503 -206 
L 1606 56 
L 191 3500 
L 800 3500 
L 1894 763 
L 2988 3500 
L 3597 3500 
L 2059 -325 
z
" transform="scale(0.015625)"/>
       <path id="DejaVuSans-20" transform="scale(0.015625)"/>
       <path id="DejaVuSans-50" d="M 1259 4147 
L 1259 2394 
L 2053 2394 
Q 2494 2394 2734 2622 
Q 2975 2850 2975 3272 
Q 2975 3691 2734 3919 
Q 2494 4147 2053 4147 
L 1259 4147 
z
M 628 4666 
L 2053 4666 
Q 2838 4666 3239 4311 
Q 3641 3956 3641 3272 
Q 3641 2581 3239 2228 
Q 2838 1875 2053 1875 
L 1259 1875 
L 1259 0 
L 628 0 
L 628 4666 
z
" transform="scale(0.015625)"/>
       <path id="DejaVuSans-6f" d="M 1959 3097 
Q 1497 3097 1228 2736 
Q 959 2375 959 1747 
Q 959 1119 1226 758 
Q 1494 397 1959 397 
Q 2419 397 2687 759 
Q 2956 1122 2956 1747 
Q 2956 2369 2687 2733 
Q 2419 3097 1959 3097 
z
M 1959 3584 
Q 2709 3584 3137 3096 
Q 3566 2609 3566 1747 
Q 3566 888 3137 398 
Q 2709 -91 1959 -91 
Q 1206 -91 779 398 
Q 353 888 353 1747 
Q 353 2609 779 3096 
Q 1206 3584 1959 3584 
z
" transform="scale(0.015625)"/>
       <path id="DejaVuSans-73" d="M 2834 3397 
L 2834 2853 
Q 2591 2978 2328 3040 
Q 2066 3103 1784 3103 
Q 1356 3103 1142 2972 
Q 928 2841 928 2578 
Q 928 2378 1081 2264 
Q 1234 2150 1697 2047 
L 1894 2003 
Q 2506 1872 2764 1633 
Q 3022 1394 3022 966 
Q 3022 478 2636 193 
Q 2250 -91 1575 -91 
Q 1294 -91 989 -36 
Q 684 19 347 128 
L 347 722 
Q 666 556 975 473 
Q 1284 391 1588 391 
Q 1994 391 2212 530 
Q 2431 669 2431 922 
Q 2431 1156 2273 1281 
Q 2116 1406 1581 1522 
L 1381 1569 
Q 847 1681 609 1914 
Q 372 2147 372 2553 
Q 372 3047 722 3315 
Q 1072 3584 1716 3584 
Q 2034 3584 2315 3537 
Q 2597 3491 2834 3397 
z
" transform="scale(0.015625)"/>
       <path id="DejaVuSans-69" d="M 603 3500 
L 1178 3500 
L 1178 0 
L 603 0 
L 603 3500 
z
M 603 4863 
L 1178 4863 
L 1178 4134 
L 603 4134 
L 603 4863 
z
" transform="scale(0.015625)"/>
       <path id="DejaVuSans-6e" d="M 3513 2113 
L 3513 0 
L 2938 0 
L 2938 2094 
Q 2938 2591 2744 2837 
Q 2550 3084 2163 3084 
Q 1697 3084 1428 2787 
Q 1159 2491 1159 1978 
L 1159 0 
L 581 0 
L 581 3500 
L 1159 3500 
L 1159 2956 
Q 1366 3272 1645 3428 
Q 1925 3584 2291 3584 
Q 2894 3584 3203 3211 
Q 3513 2838 3513 2113 
z
" transform="scale(0.015625)"/>
      </defs>
      <use xlink:href="#DejaVuSans-53"/>
      <use xlink:href="#DejaVuSans-74" transform="translate(63.476562 0)"/>
      <use xlink:href="#DejaVuSans-75" transform="translate(102.685547 0)"/>
      <use xlink:href="#DejaVuSans-64" transform="translate(166.064453 0)"/>
      <use xlink:href="#DejaVuSans-79" transform="translate(229.541016 0)"/>
      <use xlink:href="#DejaVuSans-20" transform="translate(288.720703 0)"/>
      <use xlink:href="#DejaVuSans-50" transform="translate(320.507812 0)"/>
      <use xlink:href="#DejaVuSans-6f" transform="translate(377.185547 0)"/>
      <use xlink:href="#DejaVuSans-73" transform="translate(438.367188 0)"/>
      <use xlink:href="#DejaVuSans-69" transform="translate(490.466797 0)"/>
      <use xlink:href="#DejaVuSans-74" transform="translate(518.25 0)"/>
      <use xlink:href="#DejaVuSans-69" transform="translate(557.458984 0)"/>
      <use xlink:href="#DejaVuSans-6f" transform="translate(585.242188 0)"/>
      <use xlink:href="#DejaVuSans-6e" transform="translate(646.423828 0)"/>
     </g>
    </g>
   </g>
   <g id="matplotlib.axis_2">
    <g id="ytick_1">
     <g id="line2d_8">
      <path d="M 73.764375 314.725597 
L 438.172538 314.725597 
" clip-path="url(#pd19cb57357)" style="fill: none; stroke-dasharray: 1.85,0.8; stroke-dashoffset: 0; stroke: #b0b0b0; stroke-opacity: 0.3; stroke-width: 0.5"/>
     </g>
     <g id="line2d_9">
      <defs>
       <path id="m101f579cd1" d="M 0 0 
L -3.5 0 
" style="stroke: #000000; stroke-width: 0.8"/>
      </defs>
      <g>
       <use xlink:href="#m101f579cd1" x="73.764375" y="314.725597" style="stroke: #000000; stroke-width: 0.8"/>
      </g>
     </g>
     <g id="text_9">
      <!-- 0.125 -->
      <g transform="translate(26.685 320.044503) scale(0.14 -0.14)">
       <defs>
        <path id="DejaVuSans-2e" d="M 684 794 
L 1344 794 
L 1344 0 
L 684 0 
L 684 794 
z
" transform="scale(0.015625)"/>
       </defs>
       <use xlink:href="#DejaVuSans-30"/>
       <use xlink:href="#DejaVuSans-2e" transform="translate(63.623047 0)"/>
       <use xlink:href="#DejaVuSans-31" transform="translate(95.410156 0)"/>
       <use xlink:href="#DejaVuSans-32" transform="translate(159.033203 0)"/>
       <use xlink:href="#DejaVuSans-35" transform="translate(222.65625 0)"/>
      </g>
     </g>
    </g>
    <g id="ytick_2">
     <g id="line2d_10">
      <path d="M 73.764375 282.98629 
L 438.172538 282.98629 
" clip-path="url(#pd19cb57357)" style="fill: none; stroke-dasharray: 1.85,0.8; stroke-dashoffset: 0; stroke: #b0b0b0; stroke-opacity: 0.3; stroke-width: 0.5"/>
     </g>
     <g id="line2d_11">
      <g>
       <use xlink:href="#m101f579cd1" x="73.764375" y="282.98629" style="stroke: #000000; stroke-width: 0.8"/>
      </g>
     </g>
     <g id="text_10">
      <!-- 0.150 -->
      <g transform="translate(26.685 288.305196) scale(0.14 -0.14)">
       <use xlink:href="#DejaVuSans-30"/>
       <use xlink:href="#DejaVuSans-2e" transform="translate(63.623047 0)"/>
       <use xlink:href="#DejaVuSans-31" transform="translate(95.410156 0)"/>
       <use xlink:href="#DejaVuSans-35" transform="translate(159.033203 0)"/>
       <use xlink:href="#DejaVuSans-30" transform="translate(222.65625 0)"/>
      </g>
     </g>
    </g>
    <g id="ytick_3">
     <g id="line2d_12">
      <path d="M 73.764375 251.246984 
L 438.172538 251.246984 
" clip-path="url(#pd19cb57357)" style="fill: none; stroke-dasharray: 1.85,0.8; stroke-dashoffset: 0; stroke: #b0b0b0; stroke-opacity: 0.3; stroke-width: 0.5"/>
     </g>
     <g id="line2d_13">
      <g>
       <use xlink:href="#m101f579cd1" x="73.764375" y="251.246984" style="stroke: #000000; stroke-width: 0.8"/>
      </g>
     </g>
     <g id="text_11">
      <!-- 0.175 -->
      <g transform="translate(26.685 256.56589) scale(0.14 -0.14)">
       <defs>
        <path id="DejaVuSans-37" d="M 525 4666 
L 3525 4666 
L 3525 4397 
L 1831 0 
L 1172 0 
L 2766 4134 
L 525 4134 
L 525 4666 
z
" transform="scale(0.015625)"/>
       </defs>
       <use xlink:href="#DejaVuSans-30"/>
       <use xlink:href="#DejaVuSans-2e" transform="translate(63.623047 0)"/>
       <use xlink:href="#DejaVuSans-31" transform="translate(95.410156 0)"/>
       <use xlink:href="#DejaVuSans-37" transform="translate(159.033203 0)"/>
       <use xlink:href="#DejaVuSans-35" transform="translate(222.65625 0)"/>
      </g>
     </g>
    </g>
    <g id="ytick_4">
     <g id="line2d_14">
      <path d="M 73.764375 219.507677 
L 438.172538 219.507677 
" clip-path="url(#pd19cb57357)" style="fill: none; stroke-dasharray: 1.85,0.8; stroke-dashoffset: 0; stroke: #b0b0b0; stroke-opacity: 0.3; stroke-width: 0.5"/>
     </g>
     <g id="line2d_15">
      <g>
       <use xlink:href="#m101f579cd1" x="73.764375" y="219.507677" style="stroke: #000000; stroke-width: 0.8"/>
      </g>
     </g>
     <g id="text_12">
      <!-- 0.200 -->
      <g transform="translate(26.685 224.826584) scale(0.14 -0.14)">
       <use xlink:href="#DejaVuSans-30"/>
       <use xlink:href="#DejaVuSans-2e" transform="translate(63.623047 0)"/>
       <use xlink:href="#DejaVuSans-32" transform="translate(95.410156 0)"/>
       <use xlink:href="#DejaVuSans-30" transform="translate(159.033203 0)"/>
       <use xlink:href="#DejaVuSans-30" transform="translate(222.65625 0)"/>
      </g>
     </g>
    </g>
    <g id="ytick_5">
     <g id="line2d_16">
      <path d="M 73.764375 187.768371 
L 438.172538 187.768371 
" clip-path="url(#pd19cb57357)" style="fill: none; stroke-dasharray: 1.85,0.8; stroke-dashoffset: 0; stroke: #b0b0b0; stroke-opacity: 0.3; stroke-width: 0.5"/>
     </g>
     <g id="line2d_17">
      <g>
       <use xlink:href="#m101f579cd1" x="73.764375" y="187.768371" style="stroke: #000000; stroke-width: 0.8"/>
      </g>
     </g>
     <g id="text_13">
      <!-- 0.225 -->
      <g transform="translate(26.685 193.087277) scale(0.14 -0.14)">
       <use xlink:href="#DejaVuSans-30"/>
       <use xlink:href="#DejaVuSans-2e" transform="translate(63.623047 0)"/>
       <use xlink:href="#DejaVuSans-32" transform="translate(95.410156 0)"/>
       <use xlink:href="#DejaVuSans-32" transform="translate(159.033203 0)"/>
       <use xlink:href="#DejaVuSans-35" transform="translate(222.65625 0)"/>
      </g>
     </g>
    </g>
    <g id="ytick_6">
     <g id="line2d_18">
      <path d="M 73.764375 156.029064 
L 438.172538 156.029064 
" clip-path="url(#pd19cb57357)" style="fill: none; stroke-dasharray: 1.85,0.8; stroke-dashoffset: 0; stroke: #b0b0b0; stroke-opacity: 0.3; stroke-width: 0.5"/>
     </g>
     <g id="line2d_19">
      <g>
       <use xlink:href="#m101f579cd1" x="73.764375" y="156.029064" style="stroke: #000000; stroke-width: 0.8"/>
      </g>
     </g>
     <g id="text_14">
      <!-- 0.250 -->
      <g transform="translate(26.685 161.347971) scale(0.14 -0.14)">
       <use xlink:href="#DejaVuSans-30"/>
       <use xlink:href="#DejaVuSans-2e" transform="translate(63.623047 0)"/>
       <use xlink:href="#DejaVuSans-32" transform="translate(95.410156 0)"/>
       <use xlink:href="#DejaVuSans-35" transform="translate(159.033203 0)"/>
       <use xlink:href="#DejaVuSans-30" transform="translate(222.65625 0)"/>
      </g>
     </g>
    </g>
    <g id="ytick_7">
     <g id="line2d_20">
      <path d="M 73.764375 124.289758 
L 438.172538 124.289758 
" clip-path="url(#pd19cb57357)" style="fill: none; stroke-dasharray: 1.85,0.8; stroke-dashoffset: 0; stroke: #b0b0b0; stroke-opacity: 0.3; stroke-width: 0.5"/>
     </g>
     <g id="line2d_21">
      <g>
       <use xlink:href="#m101f579cd1" x="73.764375" y="124.289758" style="stroke: #000000; stroke-width: 0.8"/>
      </g>
     </g>
     <g id="text_15">
      <!-- 0.275 -->
      <g transform="translate(26.685 129.608664) scale(0.14 -0.14)">
       <use xlink:href="#DejaVuSans-30"/>
       <use xlink:href="#DejaVuSans-2e" transform="translate(63.623047 0)"/>
       <use xlink:href="#DejaVuSans-32" transform="translate(95.410156 0)"/>
       <use xlink:href="#DejaVuSans-37" transform="translate(159.033203 0)"/>
       <use xlink:href="#DejaVuSans-35" transform="translate(222.65625 0)"/>
      </g>
     </g>
    </g>
    <g id="ytick_8">
     <g id="line2d_22">
      <path d="M 73.764375 92.550452 
L 438.172538 92.550452 
" clip-path="url(#pd19cb57357)" style="fill: none; stroke-dasharray: 1.85,0.8; stroke-dashoffset: 0; stroke: #b0b0b0; stroke-opacity: 0.3; stroke-width: 0.5"/>
     </g>
     <g id="line2d_23">
      <g>
       <use xlink:href="#m101f579cd1" x="73.764375" y="92.550452" style="stroke: #000000; stroke-width: 0.8"/>
      </g>
     </g>
     <g id="text_16">
      <!-- 0.300 -->
      <g transform="translate(26.685 97.869358) scale(0.14 -0.14)">
       <use xlink:href="#DejaVuSans-30"/>
       <use xlink:href="#DejaVuSans-2e" transform="translate(63.623047 0)"/>
       <use xlink:href="#DejaVuSans-33" transform="translate(95.410156 0)"/>
       <use xlink:href="#DejaVuSans-30" transform="translate(159.033203 0)"/>
       <use xlink:href="#DejaVuSans-30" transform="translate(222.65625 0)"/>
      </g>
     </g>
    </g>
    <g id="ytick_9">
     <g id="line2d_24">
      <path d="M 73.764375 60.811145 
L 438.172538 60.811145 
" clip-path="url(#pd19cb57357)" style="fill: none; stroke-dasharray: 1.85,0.8; stroke-dashoffset: 0; stroke: #b0b0b0; stroke-opacity: 0.3; stroke-width: 0.5"/>
     </g>
     <g id="line2d_25">
      <g>
       <use xlink:href="#m101f579cd1" x="73.764375" y="60.811145" style="stroke: #000000; stroke-width: 0.8"/>
      </g>
     </g>
     <g id="text_17">
      <!-- 0.325 -->
      <g transform="translate(26.685 66.130051) scale(0.14 -0.14)">
       <use xlink:href="#DejaVuSans-30"/>
       <use xlink:href="#DejaVuSans-2e" transform="translate(63.623047 0)"/>
       <use xlink:href="#DejaVuSans-33" transform="translate(95.410156 0)"/>
       <use xlink:href="#DejaVuSans-32" transform="translate(159.033203 0)"/>
       <use xlink:href="#DejaVuSans-35" transform="translate(222.65625 0)"/>
      </g>
     </g>
    </g>
    <g id="text_18">
     <!-- Recall Probability -->
     <g transform="translate(19.3575 261.65375) rotate(-90) scale(0.16 -0.16)">
      <defs>
       <path id="DejaVuSans-52" d="M 2841 2188 
Q 3044 2119 3236 1894 
Q 3428 1669 3622 1275 
L 4263 0 
L 3584 0 
L 2988 1197 
Q 2756 1666 2539 1819 
Q 2322 1972 1947 1972 
L 1259 1972 
L 1259 0 
L 628 0 
L 628 4666 
L 2053 4666 
Q 2853 4666 3247 4331 
Q 3641 3997 3641 3322 
Q 3641 2881 3436 2590 
Q 3231 2300 2841 2188 
z
M 1259 4147 
L 1259 2491 
L 2053 2491 
Q 2509 2491 2742 2702 
Q 2975 2913 2975 3322 
Q 2975 3731 2742 3939 
Q 2509 4147 2053 4147 
L 1259 4147 
z
" transform="scale(0.015625)"/>
       <path id="DejaVuSans-65" d="M 3597 1894 
L 3597 1613 
L 953 1613 
Q 991 1019 1311 708 
Q 1631 397 2203 397 
Q 2534 397 2845 478 
Q 3156 559 3463 722 
L 3463 178 
Q 3153 47 2828 -22 
Q 2503 -91 2169 -91 
Q 1331 -91 842 396 
Q 353 884 353 1716 
Q 353 2575 817 3079 
Q 1281 3584 2069 3584 
Q 2775 3584 3186 3129 
Q 3597 2675 3597 1894 
z
M 3022 2063 
Q 3016 2534 2758 2815 
Q 2500 3097 2075 3097 
Q 1594 3097 1305 2825 
Q 1016 2553 972 2059 
L 3022 2063 
z
" transform="scale(0.015625)"/>
       <path id="DejaVuSans-63" d="M 3122 3366 
L 3122 2828 
Q 2878 2963 2633 3030 
Q 2388 3097 2138 3097 
Q 1578 3097 1268 2742 
Q 959 2388 959 1747 
Q 959 1106 1268 751 
Q 1578 397 2138 397 
Q 2388 397 2633 464 
Q 2878 531 3122 666 
L 3122 134 
Q 2881 22 2623 -34 
Q 2366 -91 2075 -91 
Q 1284 -91 818 406 
Q 353 903 353 1747 
Q 353 2603 823 3093 
Q 1294 3584 2113 3584 
Q 2378 3584 2631 3529 
Q 2884 3475 3122 3366 
z
" transform="scale(0.015625)"/>
       <path id="DejaVuSans-61" d="M 2194 1759 
Q 1497 1759 1228 1600 
Q 959 1441 959 1056 
Q 959 750 1161 570 
Q 1363 391 1709 391 
Q 2188 391 2477 730 
Q 2766 1069 2766 1631 
L 2766 1759 
L 2194 1759 
z
M 3341 1997 
L 3341 0 
L 2766 0 
L 2766 531 
Q 2569 213 2275 61 
Q 1981 -91 1556 -91 
Q 1019 -91 701 211 
Q 384 513 384 1019 
Q 384 1609 779 1909 
Q 1175 2209 1959 2209 
L 2766 2209 
L 2766 2266 
Q 2766 2663 2505 2880 
Q 2244 3097 1772 3097 
Q 1472 3097 1187 3025 
Q 903 2953 641 2809 
L 641 3341 
Q 956 3463 1253 3523 
Q 1550 3584 1831 3584 
Q 2591 3584 2966 3190 
Q 3341 2797 3341 1997 
z
" transform="scale(0.015625)"/>
       <path id="DejaVuSans-6c" d="M 603 4863 
L 1178 4863 
L 1178 0 
L 603 0 
L 603 4863 
z
" transform="scale(0.015625)"/>
       <path id="DejaVuSans-72" d="M 2631 2963 
Q 2534 3019 2420 3045 
Q 2306 3072 2169 3072 
Q 1681 3072 1420 2755 
Q 1159 2438 1159 1844 
L 1159 0 
L 581 0 
L 581 3500 
L 1159 3500 
L 1159 2956 
Q 1341 3275 1631 3429 
Q 1922 3584 2338 3584 
Q 2397 3584 2469 3576 
Q 2541 3569 2628 3553 
L 2631 2963 
z
" transform="scale(0.015625)"/>
       <path id="DejaVuSans-62" d="M 3116 1747 
Q 3116 2381 2855 2742 
Q 2594 3103 2138 3103 
Q 1681 3103 1420 2742 
Q 1159 2381 1159 1747 
Q 1159 1113 1420 752 
Q 1681 391 2138 391 
Q 2594 391 2855 752 
Q 3116 1113 3116 1747 
z
M 1159 2969 
Q 1341 3281 1617 3432 
Q 1894 3584 2278 3584 
Q 2916 3584 3314 3078 
Q 3713 2572 3713 1747 
Q 3713 922 3314 415 
Q 2916 -91 2278 -91 
Q 1894 -91 1617 61 
Q 1341 213 1159 525 
L 1159 0 
L 581 0 
L 581 4863 
L 1159 4863 
L 1159 2969 
z
" transform="scale(0.015625)"/>
      </defs>
      <use xlink:href="#DejaVuSans-52"/>
      <use xlink:href="#DejaVuSans-65" transform="translate(64.982422 0)"/>
      <use xlink:href="#DejaVuSans-63" transform="translate(126.505859 0)"/>
      <use xlink:href="#DejaVuSans-61" transform="translate(181.486328 0)"/>
      <use xlink:href="#DejaVuSans-6c" transform="translate(242.765625 0)"/>
      <use xlink:href="#DejaVuSans-6c" transform="translate(270.548828 0)"/>
      <use xlink:href="#DejaVuSans-20" transform="translate(298.332031 0)"/>
      <use xlink:href="#DejaVuSans-50" transform="translate(330.119141 0)"/>
      <use xlink:href="#DejaVuSans-72" transform="translate(388.671875 0)"/>
      <use xlink:href="#DejaVuSans-6f" transform="translate(427.535156 0)"/>
      <use xlink:href="#DejaVuSans-62" transform="translate(488.716797 0)"/>
      <use xlink:href="#DejaVuSans-61" transform="translate(552.193359 0)"/>
      <use xlink:href="#DejaVuSans-62" transform="translate(613.472656 0)"/>
      <use xlink:href="#DejaVuSans-69" transform="translate(676.949219 0)"/>
      <use xlink:href="#DejaVuSans-6c" transform="translate(704.732422 0)"/>
      <use xlink:href="#DejaVuSans-69" transform="translate(732.515625 0)"/>
      <use xlink:href="#DejaVuSans-74" transform="translate(760.298828 0)"/>
      <use xlink:href="#DejaVuSans-79" transform="translate(799.507812 0)"/>
     </g>
    </g>
   </g>
   <g id="line2d_26">
    <path d="M 90.328382 66.9575 
L 95.586797 110.888735 
L 100.845213 134.567236 
L 106.103628 145.24779 
L 111.362043 159.555663 
L 116.620458 152.804739 
L 121.878873 171.042261 
L 127.137288 166.608842 
L 132.395703 179.909118 
L 137.654118 187.969894 
L 142.912533 177.591632 
L 148.170948 183.032667 
L 153.429363 194.116234 
L 158.687778 194.015476 
L 163.946193 198.549653 
L 169.204608 212.051464 
M 342.732305 121.569252 
L 347.99072 169.933906 
L 353.249135 188.775975 
L 358.50755 190.186604 
L 363.765965 195.728396 
L 369.02438 197.542056 
L 374.282795 200.363331 
L 379.54121 200.262573 
L 384.799625 202.983091 
L 390.058041 200.665605 
L 395.316456 189.985088 
L 400.574871 200.161815 
L 405.833286 196.735993 
L 411.091701 199.758784 
L 416.350116 201.673201 
L 421.608531 195.526862 
" clip-path="url(#pd19cb57357)" style="fill: none; stroke: #bfbfbf; stroke-width: 1.5; stroke-linecap: square"/>
   </g>
   <g id="line2d_27">
    <path d="M 90.328382 81.970678 
L 95.586797 140.209786 
L 100.845213 150.487272 
L 106.103628 164.795164 
L 111.362043 179.40531 
L 116.620458 192.806363 
L 121.878873 193.41091 
L 127.137288 202.680798 
L 132.395703 207.013479 
L 137.654118 201.975494 
L 142.912533 208.827157 
L 148.170948 213.462092 
L 153.429363 210.540059 
L 158.687778 211.749171 
L 163.946193 209.633219 
L 169.204608 203.789172 
L 174.463023 219.910724 
L 179.721438 219.306158 
L 184.979853 224.243385 
L 190.238268 236.334549 
M 342.732305 131.745979 
L 347.99072 183.133425 
L 353.249135 199.254976 
L 358.50755 210.943109 
L 363.765965 214.368931 
L 369.02438 223.739577 
L 374.282795 220.616028 
L 379.54121 219.709189 
L 384.799625 225.553255 
L 390.058041 223.034272 
L 395.316456 218.197803 
L 400.574871 227.467691 
L 405.833286 219.608431 
L 411.091701 219.406916 
L 416.350116 211.043867 
L 421.608531 220.918321 
" clip-path="url(#pd19cb57357)" style="fill: none; stroke: #aaaaaa; stroke-width: 1.5; stroke-linecap: square"/>
   </g>
   <g id="line2d_28">
    <path d="M 90.328382 109.276573 
L 95.586797 144.844721 
L 100.845213 171.848343 
L 106.103628 190.589635 
L 111.362043 192.10104 
L 116.620458 206.509671 
L 121.878873 203.285364 
L 127.137288 210.640816 
L 132.395703 217.794753 
L 137.654118 218.903127 
L 142.912533 220.616028 
L 148.170948 228.173015 
L 153.429363 221.925918 
L 158.687778 217.89553 
L 163.946193 221.623625 
L 169.204608 228.072257 
L 174.463023 232.304161 
L 179.721438 233.513273 
L 184.979853 234.92392 
L 190.238268 249.231794 
L 195.496684 245.90671 
L 200.755099 242.984696 
L 206.013514 248.123439 
L 211.271929 259.408521 
M 342.732305 160.664018 
L 347.99072 192.000282 
L 353.249135 225.250982 
L 358.50755 224.142627 
L 363.765965 231.901129 
L 369.02438 241.372533 
L 374.282795 231.095048 
L 379.54121 239.659613 
L 384.799625 237.745177 
L 390.058041 238.349742 
L 395.316456 237.442903 
L 400.574871 240.465694 
L 405.833286 242.279373 
L 411.091701 233.211 
L 416.350116 234.52087 
L 421.608531 233.916323 
" clip-path="url(#pd19cb57357)" style="fill: none; stroke: #959595; stroke-width: 1.5; stroke-linecap: square"/>
   </g>
   <g id="line2d_29">
    <path d="M 90.328382 127.010287 
L 95.586797 167.414905 
L 100.845213 196.131428 
L 106.103628 201.572444 
L 111.362043 211.547656 
L 116.620458 223.235788 
L 121.878873 228.676804 
L 127.137288 234.92392 
L 132.395703 239.055066 
L 137.654118 238.4505 
L 142.912533 239.155824 
L 148.170948 237.14063 
L 153.429363 239.155824 
L 158.687778 237.442903 
L 163.946193 242.883919 
L 169.204608 246.007487 
L 174.463023 254.471294 
L 179.721438 250.944695 
L 184.979853 253.564455 
L 190.238268 258.803955 
L 195.496684 257.897116 
L 200.755099 255.982699 
L 206.013514 257.997893 
L 211.271929 253.665213 
L 216.530344 261.524473 
L 221.788759 257.997893 
L 227.047174 259.207005 
L 232.305589 272.910313 
M 342.732305 183.637214 
L 347.99072 226.157821 
L 353.249135 237.14063 
L 358.50755 250.340148 
L 363.765965 245.604437 
L 369.02438 246.209003 
L 374.282795 248.123439 
L 379.54121 245.604437 
L 384.799625 250.239391 
L 390.058041 248.324954 
L 395.316456 248.52647 
L 400.574871 247.317357 
L 405.833286 250.843937 
L 411.091701 257.292569 
L 416.350116 253.967505 
L 421.608531 250.74318 
" clip-path="url(#pd19cb57357)" style="fill: none; stroke: #818181; stroke-width: 1.5; stroke-linecap: square"/>
   </g>
   <g id="line2d_30">
    <path d="M 90.328382 147.061468 
L 95.586797 190.488877 
L 100.845213 207.013479 
L 106.103628 216.081851 
L 111.362043 236.334549 
L 116.620458 240.66721 
L 121.878873 246.712792 
L 127.137288 244.99989 
L 132.395703 250.843937 
L 137.654118 249.735583 
L 142.912533 250.440906 
L 148.170948 254.572052 
L 153.429363 252.556858 
L 158.687778 256.38573 
L 163.946193 262.834343 
L 169.204608 259.509279 
L 174.463023 260.113845 
L 179.721438 260.013087 
L 184.979853 268.879925 
L 190.238268 270.895119 
L 195.496684 263.237393 
L 200.755099 270.492088 
L 206.013514 270.189814 
L 211.271929 256.38573 
L 216.530344 271.096653 
L 221.788759 271.7012 
L 227.047174 266.763973 
L 232.305589 267.973086 
L 237.564004 271.902716 
L 242.822419 271.600442 
L 248.080834 265.655618 
L 253.339249 279.358945 
M 342.732305 213.159818 
L 347.99072 243.387727 
L 353.249135 260.617634 
L 358.50755 263.438909 
L 363.765965 262.733585 
L 369.02438 268.678409 
L 374.282795 262.53207 
L 379.54121 265.957892 
L 384.799625 270.189814 
L 390.058041 270.895119 
L 395.316456 261.524473 
L 400.574871 255.378133 
L 405.833286 254.370536 
L 411.091701 259.408521 
L 416.350116 257.091054 
L 421.608531 261.121442 
" clip-path="url(#pd19cb57357)" style="fill: none; stroke: #6c6c6c; stroke-width: 1.5; stroke-linecap: square"/>
   </g>
   <g id="line2d_31">
    <path d="M 90.328382 158.44729 
L 95.586797 198.045864 
L 100.845213 223.336546 
L 106.103628 238.551258 
L 111.362043 246.511276 
L 116.620458 250.843937 
L 121.878873 248.022681 
L 127.137288 255.478891 
L 132.395703 253.665213 
L 137.654118 267.670812 
L 142.912533 260.718391 
L 148.170948 268.779167 
L 153.429363 272.708797 
L 158.687778 272.10425 
L 163.946193 275.63083 
L 169.204608 263.035878 
L 174.463023 279.661218 
L 179.721438 276.336154 
L 184.979853 271.7012 
L 190.238268 275.429315 
L 195.496684 276.033862 
L 200.755099 274.421718 
L 206.013514 279.459703 
L 211.271929 279.963492 
L 216.530344 276.940701 
L 221.788759 276.033862 
L 227.047174 279.963492 
L 232.305589 280.568057 
L 237.564004 279.761976 
L 242.822419 283.590848 
L 248.080834 281.172623 
L 253.339249 282.18022 
L 258.597664 288.125044 
L 263.856079 282.986283 
L 269.114494 278.653621 
L 274.372909 288.225802 
M 342.732305 225.654013 
L 347.99072 254.269778 
L 353.249135 270.089056 
L 358.50755 271.600442 
L 363.765965 273.313363 
L 369.02438 274.018668 
L 374.282795 275.328557 
L 379.54121 273.615636 
L 384.799625 276.134638 
L 390.058041 275.026265 
L 395.316456 268.376136 
L 400.574871 264.849537 
L 405.833286 277.142235 
L 411.091701 270.592845 
L 416.350116 278.955895 
L 421.608531 278.552863 
" clip-path="url(#pd19cb57357)" style="fill: none; stroke: #575757; stroke-width: 1.5; stroke-linecap: square"/>
   </g>
   <g id="line2d_32">
    <path d="M 90.328382 163.686809 
L 95.586797 209.834754 
L 100.845213 236.032275 
L 106.103628 248.224197 
L 111.362043 253.76597 
L 116.620458 260.416118 
L 121.878873 267.570055 
L 127.137288 267.570055 
L 132.395703 270.492088 
L 137.654118 277.343751 
L 142.912533 273.615636 
L 148.170948 279.661218 
L 153.429363 275.530073 
L 158.687778 276.033862 
L 163.946193 275.227799 
L 169.204608 286.210608 
L 174.463023 291.047058 
L 179.721438 288.427318 
L 184.979853 288.125044 
L 190.238268 293.062252 
L 195.496684 284.39693 
L 200.755099 291.651624 
L 206.013514 286.009073 
L 211.271929 281.474897 
L 216.530344 282.583251 
L 221.788759 287.218205 
L 227.047174 292.356948 
L 232.305589 288.125044 
L 237.564004 287.621236 
L 242.822419 283.792364 
L 248.080834 293.868334 
L 253.339249 294.573657 
L 258.597664 285.7068 
L 263.856079 292.759979 
L 269.114494 286.714397 
L 274.372909 290.744785 
L 279.631324 294.674415 
L 284.889739 298.301772 
L 290.148154 297.09264 
L 295.40657 299.410126 
M 342.732305 237.745177 
L 347.99072 269.98828 
L 353.249135 274.421718 
L 358.50755 284.598445 
L 363.765965 294.674415 
L 369.02438 282.986283 
L 374.282795 288.528075 
L 379.54121 284.195414 
L 384.799625 292.25619 
L 390.058041 296.085043 
L 395.316456 295.984285 
L 400.574871 288.125044 
L 405.833286 282.885525 
L 411.091701 286.311366 
L 416.350116 287.318963 
L 421.608531 289.031864 
" clip-path="url(#pd19cb57357)" style="fill: none; stroke: #424242; stroke-width: 1.5; stroke-linecap: square"/>
   </g>
   <g id="line2d_33">
    <path d="M 90.328382 182.327343 
L 95.586797 224.948708 
L 100.845213 243.891516 
L 106.103628 256.083457 
L 111.362043 265.857134 
L 116.620458 272.708797 
L 121.878873 272.205008 
L 127.137288 276.436912 
L 132.395703 283.49009 
L 137.654118 280.366542 
L 142.912533 288.024267 
L 148.170948 283.288575 
L 153.429363 283.087059 
L 158.687778 281.374139 
L 163.946193 286.512881 
L 169.204608 293.364545 
L 174.463023 293.868334 
L 179.721438 286.412124 
L 184.979853 299.410126 
L 190.238268 300.518481 
L 195.496684 297.394932 
L 200.755099 298.100237 
L 206.013514 300.417723 
L 211.271929 294.170626 
L 216.530344 300.417723 
L 221.788759 291.85314 
L 227.047174 304.045061 
L 232.305589 295.984285 
L 237.564004 295.78277 
L 242.822419 291.047058 
L 248.080834 295.78277 
L 253.339249 294.170626 
L 258.597664 294.573657 
L 263.856079 291.248593 
L 269.114494 298.402529 
L 274.372909 308.176207 
L 279.631324 295.883528 
L 284.889739 296.588851 
L 290.148154 303.541272 
L 295.40657 302.835948 
L 300.664985 304.851142 
L 305.9234 304.145819 
L 311.181815 307.470902 
L 316.44023 308.680015 
M 342.732305 253.161424 
L 347.99072 279.157429 
L 353.249135 294.775173 
L 358.50755 292.961494 
L 363.765965 295.78277 
L 369.02438 294.573657 
L 374.282795 298.704803 
L 379.54121 297.394932 
L 384.799625 298.704803 
L 390.058041 294.775173 
L 395.316456 291.349351 
L 400.574871 298.604045 
L 405.833286 292.659221 
L 411.091701 292.659221 
L 416.350116 297.596448 
L 421.608531 294.573657 
" clip-path="url(#pd19cb57357)" style="fill: none; stroke: #2e2e2e; stroke-width: 1.5; stroke-linecap: square"/>
   </g>
   <g id="line2d_34">
    <path d="M 90.328382 194.116234 
L 95.586797 228.173015 
L 100.845213 250.944695 
L 106.103628 258.199408 
L 111.362043 282.583251 
L 116.620458 284.296172 
L 121.878873 286.311366 
L 127.137288 292.659221 
L 132.395703 296.387335 
L 137.654118 296.588851 
L 142.912533 293.767576 
L 148.170948 296.18582 
L 153.429363 294.573657 
L 158.687778 294.674415 
L 163.946193 305.052658 
L 169.204608 298.301772 
L 174.463023 304.448111 
L 179.721438 303.440514 
L 184.979853 303.037464 
L 190.238268 305.455708 
L 195.496684 311.602048 
L 200.755099 307.067852 
L 206.013514 303.843545 
L 211.271929 308.88153 
L 216.530344 313.718 
L 221.788759 310.695209 
L 227.047174 309.28458 
L 232.305589 310.292177 
L 237.564004 318.755984 
L 242.822419 307.470902 
L 248.080834 306.463305 
L 253.339249 304.9519 
L 258.597664 310.594451 
L 263.856079 305.858739 
L 269.114494 309.385338 
L 274.372909 303.541272 
L 279.631324 306.765579 
L 284.889739 318.9575 
L 290.148154 302.936706 
L 295.40657 314.221789 
L 300.664985 313.516484 
L 305.9234 310.292177 
L 311.181815 312.206595 
L 316.44023 306.26179 
L 321.698645 304.750385 
L 326.95706 308.780773 
L 332.215475 307.067852 
L 337.47389 305.858739 
L 342.732305 265.756376 
L 347.99072 291.752382 
L 353.249135 305.556466 
L 358.50755 305.657224 
L 363.765965 305.556466 
L 369.02438 308.377741 
L 374.282795 302.432917 
L 379.54121 303.138222 
L 384.799625 303.64203 
L 390.058041 309.586854 
L 395.316456 300.417723 
L 400.574871 307.470902 
L 405.833286 301.526078 
L 411.091701 302.332159 
L 416.350116 302.130625 
L 421.608531 302.231402 
" clip-path="url(#pd19cb57357)" style="fill: none; stroke: #191919; stroke-width: 1.5; stroke-linecap: square"/>
   </g>
   <g id="line2d_35">
    <path d="M 171.833816 331.5575 
L 171.833816 54.3575 
" clip-path="url(#pd19cb57357)" style="fill: none; stroke-dasharray: 5.55,2.4; stroke-dashoffset: 0; stroke: #ff0000; stroke-opacity: 0.7; stroke-width: 1.5"/>
   </g>
   <g id="line2d_36">
    <path d="M 340.103098 331.5575 
L 340.103098 54.3575 
" clip-path="url(#pd19cb57357)" style="fill: none; stroke-dasharray: 5.55,2.4; stroke-dashoffset: 0; stroke: #ff0000; stroke-opacity: 0.7; stroke-width: 1.5"/>
   </g>
   <g id="patch_3">
    <path d="M 73.764375 331.5575 
L 73.764375 54.3575 
" style="fill: none; stroke: #000000; stroke-width: 0.8; stroke-linejoin: miter; stroke-linecap: square"/>
   </g>
   <g id="patch_4">
    <path d="M 73.764375 331.5575 
L 438.172538 331.5575 
" style="fill: none; stroke: #000000; stroke-width: 0.8; stroke-linejoin: miter; stroke-linecap: square"/>
   </g>
   <g id="text_19">
    <!-- Film -->
    <g transform="translate(117.712589 46.733812) scale(0.1 -0.1)">
     <defs>
      <path id="DejaVuSans-Bold-46" d="M 588 4666 
L 3834 4666 
L 3834 3756 
L 1791 3756 
L 1791 2888 
L 3713 2888 
L 3713 1978 
L 1791 1978 
L 1791 0 
L 588 0 
L 588 4666 
z
" transform="scale(0.015625)"/>
      <path id="DejaVuSans-Bold-69" d="M 538 3500 
L 1656 3500 
L 1656 0 
L 538 0 
L 538 3500 
z
M 538 4863 
L 1656 4863 
L 1656 3950 
L 538 3950 
L 538 4863 
z
" transform="scale(0.015625)"/>
      <path id="DejaVuSans-Bold-6c" d="M 538 4863 
L 1656 4863 
L 1656 0 
L 538 0 
L 538 4863 
z
" transform="scale(0.015625)"/>
      <path id="DejaVuSans-Bold-6d" d="M 3781 2919 
Q 3994 3244 4286 3414 
Q 4578 3584 4928 3584 
Q 5531 3584 5847 3212 
Q 6163 2841 6163 2131 
L 6163 0 
L 5038 0 
L 5038 1825 
Q 5041 1866 5042 1909 
Q 5044 1953 5044 2034 
Q 5044 2406 4934 2573 
Q 4825 2741 4581 2741 
Q 4263 2741 4089 2478 
Q 3916 2216 3909 1719 
L 3909 0 
L 2784 0 
L 2784 1825 
Q 2784 2406 2684 2573 
Q 2584 2741 2328 2741 
Q 2006 2741 1831 2477 
Q 1656 2213 1656 1722 
L 1656 0 
L 531 0 
L 531 3500 
L 1656 3500 
L 1656 2988 
Q 1863 3284 2130 3434 
Q 2397 3584 2719 3584 
Q 3081 3584 3359 3409 
Q 3638 3234 3781 2919 
z
" transform="scale(0.015625)"/>
     </defs>
     <use xlink:href="#DejaVuSans-Bold-46"/>
     <use xlink:href="#DejaVuSans-Bold-69" transform="translate(68.310547 0)"/>
     <use xlink:href="#DejaVuSans-Bold-6c" transform="translate(102.587891 0)"/>
     <use xlink:href="#DejaVuSans-Bold-6d" transform="translate(136.865234 0)"/>
    </g>
   </g>
   <g id="text_20">
    <!-- Break -->
    <g style="fill: #808080" transform="translate(239.601269 46.733812) scale(0.1 -0.1)">
     <defs>
      <path id="DejaVuSans-Bold-42" d="M 2456 2859 
Q 2741 2859 2887 2984 
Q 3034 3109 3034 3353 
Q 3034 3594 2887 3720 
Q 2741 3847 2456 3847 
L 1791 3847 
L 1791 2859 
L 2456 2859 
z
M 2497 819 
Q 2859 819 3042 972 
Q 3225 1125 3225 1434 
Q 3225 1738 3044 1889 
Q 2863 2041 2497 2041 
L 1791 2041 
L 1791 819 
L 2497 819 
z
M 3616 2497 
Q 4003 2384 4215 2081 
Q 4428 1778 4428 1338 
Q 4428 663 3972 331 
Q 3516 0 2584 0 
L 588 0 
L 588 4666 
L 2394 4666 
Q 3366 4666 3802 4372 
Q 4238 4078 4238 3431 
Q 4238 3091 4078 2852 
Q 3919 2613 3616 2497 
z
" transform="scale(0.015625)"/>
      <path id="DejaVuSans-Bold-72" d="M 3138 2547 
Q 2991 2616 2845 2648 
Q 2700 2681 2553 2681 
Q 2122 2681 1889 2404 
Q 1656 2128 1656 1613 
L 1656 0 
L 538 0 
L 538 3500 
L 1656 3500 
L 1656 2925 
Q 1872 3269 2151 3426 
Q 2431 3584 2822 3584 
Q 2878 3584 2943 3579 
Q 3009 3575 3134 3559 
L 3138 2547 
z
" transform="scale(0.015625)"/>
      <path id="DejaVuSans-Bold-65" d="M 4031 1759 
L 4031 1441 
L 1416 1441 
Q 1456 1047 1700 850 
Q 1944 653 2381 653 
Q 2734 653 3104 758 
Q 3475 863 3866 1075 
L 3866 213 
Q 3469 63 3072 -14 
Q 2675 -91 2278 -91 
Q 1328 -91 801 392 
Q 275 875 275 1747 
Q 275 2603 792 3093 
Q 1309 3584 2216 3584 
Q 3041 3584 3536 3087 
Q 4031 2591 4031 1759 
z
M 2881 2131 
Q 2881 2450 2695 2645 
Q 2509 2841 2209 2841 
Q 1884 2841 1681 2658 
Q 1478 2475 1428 2131 
L 2881 2131 
z
" transform="scale(0.015625)"/>
      <path id="DejaVuSans-Bold-61" d="M 2106 1575 
Q 1756 1575 1579 1456 
Q 1403 1338 1403 1106 
Q 1403 894 1545 773 
Q 1688 653 1941 653 
Q 2256 653 2472 879 
Q 2688 1106 2688 1447 
L 2688 1575 
L 2106 1575 
z
M 3816 1997 
L 3816 0 
L 2688 0 
L 2688 519 
Q 2463 200 2181 54 
Q 1900 -91 1497 -91 
Q 953 -91 614 226 
Q 275 544 275 1050 
Q 275 1666 698 1953 
Q 1122 2241 2028 2241 
L 2688 2241 
L 2688 2328 
Q 2688 2594 2478 2717 
Q 2269 2841 1825 2841 
Q 1466 2841 1156 2769 
Q 847 2697 581 2553 
L 581 3406 
Q 941 3494 1303 3539 
Q 1666 3584 2028 3584 
Q 2975 3584 3395 3211 
Q 3816 2838 3816 1997 
z
" transform="scale(0.015625)"/>
      <path id="DejaVuSans-Bold-6b" d="M 538 4863 
L 1656 4863 
L 1656 2216 
L 2944 3500 
L 4244 3500 
L 2534 1894 
L 4378 0 
L 3022 0 
L 1656 1459 
L 1656 0 
L 538 0 
L 538 4863 
z
" transform="scale(0.015625)"/>
     </defs>
     <use xlink:href="#DejaVuSans-Bold-42"/>
     <use xlink:href="#DejaVuSans-Bold-72" transform="translate(76.220703 0)"/>
     <use xlink:href="#DejaVuSans-Bold-65" transform="translate(125.537109 0)"/>
     <use xlink:href="#DejaVuSans-Bold-61" transform="translate(193.359375 0)"/>
     <use xlink:href="#DejaVuSans-Bold-6b" transform="translate(260.839844 0)"/>
    </g>
   </g>
   <g id="text_21">
    <!-- Interference -->
    <g style="fill: #ff0000" transform="translate(347.16573 46.733812) scale(0.1 -0.1)">
     <defs>
      <path id="DejaVuSans-Bold-49" d="M 588 4666 
L 1791 4666 
L 1791 0 
L 588 0 
L 588 4666 
z
" transform="scale(0.015625)"/>
      <path id="DejaVuSans-Bold-6e" d="M 4056 2131 
L 4056 0 
L 2931 0 
L 2931 347 
L 2931 1631 
Q 2931 2084 2911 2256 
Q 2891 2428 2841 2509 
Q 2775 2619 2662 2680 
Q 2550 2741 2406 2741 
Q 2056 2741 1856 2470 
Q 1656 2200 1656 1722 
L 1656 0 
L 538 0 
L 538 3500 
L 1656 3500 
L 1656 2988 
Q 1909 3294 2193 3439 
Q 2478 3584 2822 3584 
Q 3428 3584 3742 3212 
Q 4056 2841 4056 2131 
z
" transform="scale(0.015625)"/>
      <path id="DejaVuSans-Bold-74" d="M 1759 4494 
L 1759 3500 
L 2913 3500 
L 2913 2700 
L 1759 2700 
L 1759 1216 
Q 1759 972 1856 886 
Q 1953 800 2241 800 
L 2816 800 
L 2816 0 
L 1856 0 
Q 1194 0 917 276 
Q 641 553 641 1216 
L 641 2700 
L 84 2700 
L 84 3500 
L 641 3500 
L 641 4494 
L 1759 4494 
z
" transform="scale(0.015625)"/>
      <path id="DejaVuSans-Bold-66" d="M 2841 4863 
L 2841 4128 
L 2222 4128 
Q 1984 4128 1890 4042 
Q 1797 3956 1797 3744 
L 1797 3500 
L 2753 3500 
L 2753 2700 
L 1797 2700 
L 1797 0 
L 678 0 
L 678 2700 
L 122 2700 
L 122 3500 
L 678 3500 
L 678 3744 
Q 678 4316 997 4589 
Q 1316 4863 1984 4863 
L 2841 4863 
z
" transform="scale(0.015625)"/>
      <path id="DejaVuSans-Bold-63" d="M 3366 3391 
L 3366 2478 
Q 3138 2634 2908 2709 
Q 2678 2784 2431 2784 
Q 1963 2784 1702 2511 
Q 1441 2238 1441 1747 
Q 1441 1256 1702 982 
Q 1963 709 2431 709 
Q 2694 709 2930 787 
Q 3166 866 3366 1019 
L 3366 103 
Q 3103 6 2833 -42 
Q 2563 -91 2291 -91 
Q 1344 -91 809 395 
Q 275 881 275 1747 
Q 275 2613 809 3098 
Q 1344 3584 2291 3584 
Q 2566 3584 2833 3536 
Q 3100 3488 3366 3391 
z
" transform="scale(0.015625)"/>
     </defs>
     <use xlink:href="#DejaVuSans-Bold-49"/>
     <use xlink:href="#DejaVuSans-Bold-6e" transform="translate(37.207031 0)"/>
     <use xlink:href="#DejaVuSans-Bold-74" transform="translate(108.398438 0)"/>
     <use xlink:href="#DejaVuSans-Bold-65" transform="translate(156.201172 0)"/>
     <use xlink:href="#DejaVuSans-Bold-72" transform="translate(224.023438 0)"/>
     <use xlink:href="#DejaVuSans-Bold-66" transform="translate(273.339844 0)"/>
     <use xlink:href="#DejaVuSans-Bold-65" transform="translate(316.845703 0)"/>
     <use xlink:href="#DejaVuSans-Bold-72" transform="translate(384.667969 0)"/>
     <use xlink:href="#DejaVuSans-Bold-65" transform="translate(433.984375 0)"/>
     <use xlink:href="#DejaVuSans-Bold-6e" transform="translate(501.806641 0)"/>
     <use xlink:href="#DejaVuSans-Bold-63" transform="translate(572.998047 0)"/>
     <use xlink:href="#DejaVuSans-Bold-65" transform="translate(632.275391 0)"/>
    </g>
   </g>
   <g id="text_22">
    <g clip-path="url(#pd19cb57357)">
     <!-- Reminder -->
     <g transform="translate(338.02341 111.243812) rotate(-90) scale(0.1 -0.1)">
      <defs>
       <path id="DejaVuSans-Oblique-52" d="M 1613 4147 
L 1294 2491 
L 2106 2491 
Q 2584 2491 2879 2755 
Q 3175 3019 3175 3444 
Q 3175 3784 2976 3965 
Q 2778 4147 2406 4147 
L 1613 4147 
z
M 2772 2241 
Q 2972 2194 3105 2009 
Q 3238 1825 3413 1275 
L 3809 0 
L 3144 0 
L 2778 1197 
Q 2638 1659 2453 1815 
Q 2269 1972 1888 1972 
L 1191 1972 
L 806 0 
L 172 0 
L 1081 4666 
L 2503 4666 
Q 3150 4666 3495 4373 
Q 3841 4081 3841 3531 
Q 3841 3044 3547 2687 
Q 3253 2331 2772 2241 
z
" transform="scale(0.015625)"/>
       <path id="DejaVuSans-Oblique-65" d="M 3078 2063 
Q 3088 2113 3092 2166 
Q 3097 2219 3097 2272 
Q 3097 2653 2873 2875 
Q 2650 3097 2266 3097 
Q 1838 3097 1509 2826 
Q 1181 2556 1013 2059 
L 3078 2063 
z
M 3578 1613 
L 903 1613 
Q 884 1494 878 1425 
Q 872 1356 872 1306 
Q 872 872 1139 634 
Q 1406 397 1894 397 
Q 2269 397 2603 481 
Q 2938 566 3225 728 
L 3116 159 
Q 2806 34 2476 -28 
Q 2147 -91 1806 -91 
Q 1078 -91 686 257 
Q 294 606 294 1247 
Q 294 1794 489 2264 
Q 684 2734 1063 3103 
Q 1306 3334 1642 3459 
Q 1978 3584 2356 3584 
Q 2950 3584 3301 3228 
Q 3653 2872 3653 2272 
Q 3653 2128 3634 1964 
Q 3616 1800 3578 1613 
z
" transform="scale(0.015625)"/>
       <path id="DejaVuSans-Oblique-6d" d="M 5747 2113 
L 5338 0 
L 4763 0 
L 5166 2094 
Q 5191 2228 5203 2325 
Q 5216 2422 5216 2491 
Q 5216 2772 5059 2928 
Q 4903 3084 4622 3084 
Q 4203 3084 3875 2770 
Q 3547 2456 3450 1953 
L 3066 0 
L 2491 0 
L 2900 2094 
Q 2925 2209 2937 2307 
Q 2950 2406 2950 2484 
Q 2950 2769 2794 2926 
Q 2638 3084 2363 3084 
Q 1938 3084 1609 2770 
Q 1281 2456 1184 1953 
L 800 0 
L 225 0 
L 909 3500 
L 1484 3500 
L 1375 2956 
Q 1609 3263 1923 3423 
Q 2238 3584 2597 3584 
Q 2978 3584 3223 3384 
Q 3469 3184 3519 2828 
Q 3781 3197 4126 3390 
Q 4472 3584 4856 3584 
Q 5306 3584 5551 3325 
Q 5797 3066 5797 2591 
Q 5797 2488 5784 2364 
Q 5772 2241 5747 2113 
z
" transform="scale(0.015625)"/>
       <path id="DejaVuSans-Oblique-69" d="M 1172 4863 
L 1747 4863 
L 1606 4134 
L 1031 4134 
L 1172 4863 
z
M 909 3500 
L 1484 3500 
L 800 0 
L 225 0 
L 909 3500 
z
" transform="scale(0.015625)"/>
       <path id="DejaVuSans-Oblique-6e" d="M 3566 2113 
L 3156 0 
L 2578 0 
L 2988 2091 
Q 3016 2238 3031 2350 
Q 3047 2463 3047 2528 
Q 3047 2791 2881 2937 
Q 2716 3084 2419 3084 
Q 1956 3084 1622 2776 
Q 1288 2469 1184 1941 
L 800 0 
L 225 0 
L 903 3500 
L 1478 3500 
L 1363 2950 
Q 1603 3253 1940 3418 
Q 2278 3584 2650 3584 
Q 3113 3584 3367 3334 
Q 3622 3084 3622 2631 
Q 3622 2519 3608 2391 
Q 3594 2263 3566 2113 
z
" transform="scale(0.015625)"/>
       <path id="DejaVuSans-Oblique-64" d="M 2675 525 
Q 2444 222 2128 65 
Q 1813 -91 1428 -91 
Q 903 -91 598 267 
Q 294 625 294 1247 
Q 294 1766 478 2236 
Q 663 2706 1013 3078 
Q 1244 3325 1534 3454 
Q 1825 3584 2144 3584 
Q 2481 3584 2739 3421 
Q 2997 3259 3138 2956 
L 3513 4863 
L 4091 4863 
L 3144 0 
L 2566 0 
L 2675 525 
z
M 891 1350 
Q 891 897 1095 644 
Q 1300 391 1663 391 
Q 1931 391 2161 520 
Q 2391 650 2566 903 
Q 2750 1166 2856 1509 
Q 2963 1853 2963 2188 
Q 2963 2622 2758 2865 
Q 2553 3109 2194 3109 
Q 1922 3109 1687 2981 
Q 1453 2853 1288 2613 
Q 1106 2353 998 2009 
Q 891 1666 891 1350 
z
" transform="scale(0.015625)"/>
       <path id="DejaVuSans-Oblique-72" d="M 2853 2969 
Q 2766 3016 2653 3041 
Q 2541 3066 2413 3066 
Q 1953 3066 1609 2717 
Q 1266 2369 1153 1784 
L 800 0 
L 225 0 
L 909 3500 
L 1484 3500 
L 1375 2956 
Q 1603 3259 1920 3421 
Q 2238 3584 2597 3584 
Q 2691 3584 2781 3573 
Q 2872 3563 2963 3538 
L 2853 2969 
z
" transform="scale(0.015625)"/>
      </defs>
      <use xlink:href="#DejaVuSans-Oblique-52"/>
      <use xlink:href="#DejaVuSans-Oblique-65" transform="translate(69.482422 0)"/>
      <use xlink:href="#DejaVuSans-Oblique-6d" transform="translate(131.005859 0)"/>
      <use xlink:href="#DejaVuSans-Oblique-69" transform="translate(228.417969 0)"/>
      <use xlink:href="#DejaVuSans-Oblique-6e" transform="translate(256.201172 0)"/>
      <use xlink:href="#DejaVuSans-Oblique-64" transform="translate(319.580078 0)"/>
      <use xlink:href="#DejaVuSans-Oblique-65" transform="translate(383.056641 0)"/>
      <use xlink:href="#DejaVuSans-Oblique-72" transform="translate(444.580078 0)"/>
     </g>
    </g>
   </g>
   <g id="text_23">
    <!-- SPC by Break Item Count -->
    <g transform="translate(155.472207 19.3575) scale(0.16 -0.16)">
     <defs>
      <path id="DejaVuSans-43" d="M 4122 4306 
L 4122 3641 
Q 3803 3938 3442 4084 
Q 3081 4231 2675 4231 
Q 1875 4231 1450 3742 
Q 1025 3253 1025 2328 
Q 1025 1406 1450 917 
Q 1875 428 2675 428 
Q 3081 428 3442 575 
Q 3803 722 4122 1019 
L 4122 359 
Q 3791 134 3420 21 
Q 3050 -91 2638 -91 
Q 1578 -91 968 557 
Q 359 1206 359 2328 
Q 359 3453 968 4101 
Q 1578 4750 2638 4750 
Q 3056 4750 3426 4639 
Q 3797 4528 4122 4306 
z
" transform="scale(0.015625)"/>
      <path id="DejaVuSans-42" d="M 1259 2228 
L 1259 519 
L 2272 519 
Q 2781 519 3026 730 
Q 3272 941 3272 1375 
Q 3272 1813 3026 2020 
Q 2781 2228 2272 2228 
L 1259 2228 
z
M 1259 4147 
L 1259 2741 
L 2194 2741 
Q 2656 2741 2882 2914 
Q 3109 3088 3109 3444 
Q 3109 3797 2882 3972 
Q 2656 4147 2194 4147 
L 1259 4147 
z
M 628 4666 
L 2241 4666 
Q 2963 4666 3353 4366 
Q 3744 4066 3744 3513 
Q 3744 3084 3544 2831 
Q 3344 2578 2956 2516 
Q 3422 2416 3680 2098 
Q 3938 1781 3938 1306 
Q 3938 681 3513 340 
Q 3088 0 2303 0 
L 628 0 
L 628 4666 
z
" transform="scale(0.015625)"/>
      <path id="DejaVuSans-6b" d="M 581 4863 
L 1159 4863 
L 1159 1991 
L 2875 3500 
L 3609 3500 
L 1753 1863 
L 3688 0 
L 2938 0 
L 1159 1709 
L 1159 0 
L 581 0 
L 581 4863 
z
" transform="scale(0.015625)"/>
      <path id="DejaVuSans-49" d="M 628 4666 
L 1259 4666 
L 1259 0 
L 628 0 
L 628 4666 
z
" transform="scale(0.015625)"/>
      <path id="DejaVuSans-6d" d="M 3328 2828 
Q 3544 3216 3844 3400 
Q 4144 3584 4550 3584 
Q 5097 3584 5394 3201 
Q 5691 2819 5691 2113 
L 5691 0 
L 5113 0 
L 5113 2094 
Q 5113 2597 4934 2840 
Q 4756 3084 4391 3084 
Q 3944 3084 3684 2787 
Q 3425 2491 3425 1978 
L 3425 0 
L 2847 0 
L 2847 2094 
Q 2847 2600 2669 2842 
Q 2491 3084 2119 3084 
Q 1678 3084 1418 2786 
Q 1159 2488 1159 1978 
L 1159 0 
L 581 0 
L 581 3500 
L 1159 3500 
L 1159 2956 
Q 1356 3278 1631 3431 
Q 1906 3584 2284 3584 
Q 2666 3584 2933 3390 
Q 3200 3197 3328 2828 
z
" transform="scale(0.015625)"/>
     </defs>
     <use xlink:href="#DejaVuSans-53"/>
     <use xlink:href="#DejaVuSans-50" transform="translate(63.476562 0)"/>
     <use xlink:href="#DejaVuSans-43" transform="translate(123.779297 0)"/>
     <use xlink:href="#DejaVuSans-20" transform="translate(193.603516 0)"/>
     <use xlink:href="#DejaVuSans-62" transform="translate(225.390625 0)"/>
     <use xlink:href="#DejaVuSans-79" transform="translate(288.867188 0)"/>
     <use xlink:href="#DejaVuSans-20" transform="translate(348.046875 0)"/>
     <use xlink:href="#DejaVuSans-42" transform="translate(379.833984 0)"/>
     <use xlink:href="#DejaVuSans-72" transform="translate(448.4375 0)"/>
     <use xlink:href="#DejaVuSans-65" transform="translate(487.300781 0)"/>
     <use xlink:href="#DejaVuSans-61" transform="translate(548.824219 0)"/>
     <use xlink:href="#DejaVuSans-6b" transform="translate(610.103516 0)"/>
     <use xlink:href="#DejaVuSans-20" transform="translate(668.013672 0)"/>
     <use xlink:href="#DejaVuSans-49" transform="translate(699.800781 0)"/>
     <use xlink:href="#DejaVuSans-74" transform="translate(729.292969 0)"/>
     <use xlink:href="#DejaVuSans-65" transform="translate(768.501953 0)"/>
     <use xlink:href="#DejaVuSans-6d" transform="translate(830.025391 0)"/>
     <use xlink:href="#DejaVuSans-20" transform="translate(927.4375 0)"/>
     <use xlink:href="#DejaVuSans-43" transform="translate(959.224609 0)"/>
     <use xlink:href="#DejaVuSans-6f" transform="translate(1029.048828 0)"/>
     <use xlink:href="#DejaVuSans-75" transform="translate(1090.230469 0)"/>
     <use xlink:href="#DejaVuSans-6e" transform="translate(1153.609375 0)"/>
     <use xlink:href="#DejaVuSans-74" transform="translate(1216.988281 0)"/>
    </g>
   </g>
   <g id="legend_1">
    <g id="patch_5">
     <path d="M 453.860702 222.48125 
L 526.563827 222.48125 
Q 528.963827 222.48125 528.963827 220.08125 
L 528.963827 62.7575 
Q 528.963827 60.3575 526.563827 60.3575 
L 453.860702 60.3575 
Q 451.460702 60.3575 451.460702 62.7575 
L 451.460702 220.08125 
Q 451.460702 222.48125 453.860702 222.48125 
z
" style="fill: #ffffff; opacity: 0.8; stroke: #cccccc; stroke-linejoin: miter"/>
    </g>
    <g id="line2d_37">
     <path d="M 456.260702 70.075625 
L 468.260702 70.075625 
L 480.260702 70.075625 
" style="fill: none; stroke: #bfbfbf; stroke-width: 1.5; stroke-linecap: square"/>
    </g>
    <g id="text_24">
     <!-- N=0 -->
     <g transform="translate(489.860702 74.275625) scale(0.12 -0.12)">
      <defs>
       <path id="DejaVuSans-4e" d="M 628 4666 
L 1478 4666 
L 3547 763 
L 3547 4666 
L 4159 4666 
L 4159 0 
L 3309 0 
L 1241 3903 
L 1241 0 
L 628 0 
L 628 4666 
z
" transform="scale(0.015625)"/>
       <path id="DejaVuSans-3d" d="M 678 2906 
L 4684 2906 
L 4684 2381 
L 678 2381 
L 678 2906 
z
M 678 1631 
L 4684 1631 
L 4684 1100 
L 678 1100 
L 678 1631 
z
" transform="scale(0.015625)"/>
      </defs>
      <use xlink:href="#DejaVuSans-4e"/>
      <use xlink:href="#DejaVuSans-3d" transform="translate(74.804688 0)"/>
      <use xlink:href="#DejaVuSans-30" transform="translate(158.59375 0)"/>
     </g>
    </g>
    <g id="line2d_38">
     <path d="M 456.260702 87.689375 
L 468.260702 87.689375 
L 480.260702 87.689375 
" style="fill: none; stroke: #aaaaaa; stroke-width: 1.5; stroke-linecap: square"/>
    </g>
    <g id="text_25">
     <!-- N=4 -->
     <g transform="translate(489.860702 91.889375) scale(0.12 -0.12)">
      <use xlink:href="#DejaVuSans-4e"/>
      <use xlink:href="#DejaVuSans-3d" transform="translate(74.804688 0)"/>
      <use xlink:href="#DejaVuSans-34" transform="translate(158.59375 0)"/>
     </g>
    </g>
    <g id="line2d_39">
     <path d="M 456.260702 105.303125 
L 468.260702 105.303125 
L 480.260702 105.303125 
" style="fill: none; stroke: #959595; stroke-width: 1.5; stroke-linecap: square"/>
    </g>
    <g id="text_26">
     <!-- N=8 -->
     <g transform="translate(489.860702 109.503125) scale(0.12 -0.12)">
      <defs>
       <path id="DejaVuSans-38" d="M 2034 2216 
Q 1584 2216 1326 1975 
Q 1069 1734 1069 1313 
Q 1069 891 1326 650 
Q 1584 409 2034 409 
Q 2484 409 2743 651 
Q 3003 894 3003 1313 
Q 3003 1734 2745 1975 
Q 2488 2216 2034 2216 
z
M 1403 2484 
Q 997 2584 770 2862 
Q 544 3141 544 3541 
Q 544 4100 942 4425 
Q 1341 4750 2034 4750 
Q 2731 4750 3128 4425 
Q 3525 4100 3525 3541 
Q 3525 3141 3298 2862 
Q 3072 2584 2669 2484 
Q 3125 2378 3379 2068 
Q 3634 1759 3634 1313 
Q 3634 634 3220 271 
Q 2806 -91 2034 -91 
Q 1263 -91 848 271 
Q 434 634 434 1313 
Q 434 1759 690 2068 
Q 947 2378 1403 2484 
z
M 1172 3481 
Q 1172 3119 1398 2916 
Q 1625 2713 2034 2713 
Q 2441 2713 2670 2916 
Q 2900 3119 2900 3481 
Q 2900 3844 2670 4047 
Q 2441 4250 2034 4250 
Q 1625 4250 1398 4047 
Q 1172 3844 1172 3481 
z
" transform="scale(0.015625)"/>
      </defs>
      <use xlink:href="#DejaVuSans-4e"/>
      <use xlink:href="#DejaVuSans-3d" transform="translate(74.804688 0)"/>
      <use xlink:href="#DejaVuSans-38" transform="translate(158.59375 0)"/>
     </g>
    </g>
    <g id="line2d_40">
     <path d="M 456.260702 122.916875 
L 468.260702 122.916875 
L 480.260702 122.916875 
" style="fill: none; stroke: #818181; stroke-width: 1.5; stroke-linecap: square"/>
    </g>
    <g id="text_27">
     <!-- N=12 -->
     <g transform="translate(489.860702 127.116875) scale(0.12 -0.12)">
      <use xlink:href="#DejaVuSans-4e"/>
      <use xlink:href="#DejaVuSans-3d" transform="translate(74.804688 0)"/>
      <use xlink:href="#DejaVuSans-31" transform="translate(158.59375 0)"/>
      <use xlink:href="#DejaVuSans-32" transform="translate(222.216797 0)"/>
     </g>
    </g>
    <g id="line2d_41">
     <path d="M 456.260702 140.530625 
L 468.260702 140.530625 
L 480.260702 140.530625 
" style="fill: none; stroke: #6c6c6c; stroke-width: 1.5; stroke-linecap: square"/>
    </g>
    <g id="text_28">
     <!-- N=16 -->
     <g transform="translate(489.860702 144.730625) scale(0.12 -0.12)">
      <use xlink:href="#DejaVuSans-4e"/>
      <use xlink:href="#DejaVuSans-3d" transform="translate(74.804688 0)"/>
      <use xlink:href="#DejaVuSans-31" transform="translate(158.59375 0)"/>
      <use xlink:href="#DejaVuSans-36" transform="translate(222.216797 0)"/>
     </g>
    </g>
    <g id="line2d_42">
     <path d="M 456.260702 158.144375 
L 468.260702 158.144375 
L 480.260702 158.144375 
" style="fill: none; stroke: #575757; stroke-width: 1.5; stroke-linecap: square"/>
    </g>
    <g id="text_29">
     <!-- N=20 -->
     <g transform="translate(489.860702 162.344375) scale(0.12 -0.12)">
      <use xlink:href="#DejaVuSans-4e"/>
      <use xlink:href="#DejaVuSans-3d" transform="translate(74.804688 0)"/>
      <use xlink:href="#DejaVuSans-32" transform="translate(158.59375 0)"/>
      <use xlink:href="#DejaVuSans-30" transform="translate(222.216797 0)"/>
     </g>
    </g>
    <g id="line2d_43">
     <path d="M 456.260702 175.758125 
L 468.260702 175.758125 
L 480.260702 175.758125 
" style="fill: none; stroke: #424242; stroke-width: 1.5; stroke-linecap: square"/>
    </g>
    <g id="text_30">
     <!-- N=24 -->
     <g transform="translate(489.860702 179.958125) scale(0.12 -0.12)">
      <use xlink:href="#DejaVuSans-4e"/>
      <use xlink:href="#DejaVuSans-3d" transform="translate(74.804688 0)"/>
      <use xlink:href="#DejaVuSans-32" transform="translate(158.59375 0)"/>
      <use xlink:href="#DejaVuSans-34" transform="translate(222.216797 0)"/>
     </g>
    </g>
    <g id="line2d_44">
     <path d="M 456.260702 193.371875 
L 468.260702 193.371875 
L 480.260702 193.371875 
" style="fill: none; stroke: #2e2e2e; stroke-width: 1.5; stroke-linecap: square"/>
    </g>
    <g id="text_31">
     <!-- N=28 -->
     <g transform="translate(489.860702 197.571875) scale(0.12 -0.12)">
      <use xlink:href="#DejaVuSans-4e"/>
      <use xlink:href="#DejaVuSans-3d" transform="translate(74.804688 0)"/>
      <use xlink:href="#DejaVuSans-32" transform="translate(158.59375 0)"/>
      <use xlink:href="#DejaVuSans-38" transform="translate(222.216797 0)"/>
     </g>
    </g>
    <g id="line2d_45">
     <path d="M 456.260702 210.985625 
L 468.260702 210.985625 
L 480.260702 210.985625 
" style="fill: none; stroke: #191919; stroke-width: 1.5; stroke-linecap: square"/>
    </g>
    <g id="text_32">
     <!-- N=32 -->
     <g transform="translate(489.860702 215.185625) scale(0.12 -0.12)">
      <use xlink:href="#DejaVuSans-4e"/>
      <use xlink:href="#DejaVuSans-3d" transform="translate(74.804688 0)"/>
      <use xlink:href="#DejaVuSans-33" transform="translate(158.59375 0)"/>
      <use xlink:href="#DejaVuSans-32" transform="translate(222.216797 0)"/>
     </g>
    </g>
   </g>
  </g>
  <g id="axes_2">
   <g id="patch_6">
    <path d="M 602.156212 331.5575 
L 966.564375 331.5575 
L 966.564375 54.3575 
L 602.156212 54.3575 
z
" style="fill: #ffffff"/>
   </g>
   <g id="FillBetweenPolyCollection_1">
    <defs>
     <path id="m9cedda520b" d="M 618.720219 -311.834375 
L 618.720219 -249.606633 
L 660.130238 -214.628884 
L 701.540256 -190.316848 
L 742.950275 -158.413786 
L 784.360293 -131.125194 
L 825.770312 -110.595506 
L 867.18033 -93.380008 
L 908.590349 -77.511984 
L 950.000368 -59.834375 
L 950.000368 -109.374219 
L 950.000368 -109.374219 
L 908.590349 -130.285041 
L 867.18033 -147.37481 
L 825.770312 -166.334659 
L 784.360293 -186.219491 
L 742.950275 -214.259134 
L 701.540256 -248.315154 
L 660.130238 -273.918129 
L 618.720219 -311.834375 
z
" style="stroke: #000000; stroke-opacity: 0.25"/>
    </defs>
    <g clip-path="url(#p3c5b382ccc)">
     <use xlink:href="#m9cedda520b" x="0" y="378.791875" style="fill-opacity: 0.25; stroke: #000000; stroke-opacity: 0.25"/>
    </g>
   </g>
   <g id="matplotlib.axis_3">
    <g id="xtick_8">
     <g id="line2d_46">
      <g>
       <use xlink:href="#m76d2b6046c" x="618.720219" y="331.5575" style="stroke: #000000; stroke-width: 0.8"/>
      </g>
     </g>
     <g id="text_33">
      <!-- 0 -->
      <g transform="translate(614.266469 349.195312) scale(0.14 -0.14)">
       <use xlink:href="#DejaVuSans-30"/>
      </g>
     </g>
    </g>
    <g id="xtick_9">
     <g id="line2d_47">
      <g>
       <use xlink:href="#m76d2b6046c" x="670.482742" y="331.5575" style="stroke: #000000; stroke-width: 0.8"/>
      </g>
     </g>
     <g id="text_34">
      <!-- 5 -->
      <g transform="translate(666.028992 349.195312) scale(0.14 -0.14)">
       <use xlink:href="#DejaVuSans-35"/>
      </g>
     </g>
    </g>
    <g id="xtick_10">
     <g id="line2d_48">
      <g>
       <use xlink:href="#m76d2b6046c" x="722.245266" y="331.5575" style="stroke: #000000; stroke-width: 0.8"/>
      </g>
     </g>
     <g id="text_35">
      <!-- 10 -->
      <g transform="translate(713.337766 349.195312) scale(0.14 -0.14)">
       <use xlink:href="#DejaVuSans-31"/>
       <use xlink:href="#DejaVuSans-30" transform="translate(63.623047 0)"/>
      </g>
     </g>
    </g>
    <g id="xtick_11">
     <g id="line2d_49">
      <g>
       <use xlink:href="#m76d2b6046c" x="774.007789" y="331.5575" style="stroke: #000000; stroke-width: 0.8"/>
      </g>
     </g>
     <g id="text_36">
      <!-- 15 -->
      <g transform="translate(765.100289 349.195312) scale(0.14 -0.14)">
       <use xlink:href="#DejaVuSans-31"/>
       <use xlink:href="#DejaVuSans-35" transform="translate(63.623047 0)"/>
      </g>
     </g>
    </g>
    <g id="xtick_12">
     <g id="line2d_50">
      <g>
       <use xlink:href="#m76d2b6046c" x="825.770312" y="331.5575" style="stroke: #000000; stroke-width: 0.8"/>
      </g>
     </g>
     <g id="text_37">
      <!-- 20 -->
      <g transform="translate(816.862812 349.195312) scale(0.14 -0.14)">
       <use xlink:href="#DejaVuSans-32"/>
       <use xlink:href="#DejaVuSans-30" transform="translate(63.623047 0)"/>
      </g>
     </g>
    </g>
    <g id="xtick_13">
     <g id="line2d_51">
      <g>
       <use xlink:href="#m76d2b6046c" x="877.532835" y="331.5575" style="stroke: #000000; stroke-width: 0.8"/>
      </g>
     </g>
     <g id="text_38">
      <!-- 25 -->
      <g transform="translate(868.625335 349.195312) scale(0.14 -0.14)">
       <use xlink:href="#DejaVuSans-32"/>
       <use xlink:href="#DejaVuSans-35" transform="translate(63.623047 0)"/>
      </g>
     </g>
    </g>
    <g id="xtick_14">
     <g id="line2d_52">
      <g>
       <use xlink:href="#m76d2b6046c" x="929.295358" y="331.5575" style="stroke: #000000; stroke-width: 0.8"/>
      </g>
     </g>
     <g id="text_39">
      <!-- 30 -->
      <g transform="translate(920.387858 349.195312) scale(0.14 -0.14)">
       <use xlink:href="#DejaVuSans-33"/>
       <use xlink:href="#DejaVuSans-30" transform="translate(63.623047 0)"/>
      </g>
     </g>
    </g>
    <g id="text_40">
     <!-- Number of Break Items -->
     <g transform="translate(691.450293 368.264375) scale(0.16 -0.16)">
      <defs>
       <path id="DejaVuSans-66" d="M 2375 4863 
L 2375 4384 
L 1825 4384 
Q 1516 4384 1395 4259 
Q 1275 4134 1275 3809 
L 1275 3500 
L 2222 3500 
L 2222 3053 
L 1275 3053 
L 1275 0 
L 697 0 
L 697 3053 
L 147 3053 
L 147 3500 
L 697 3500 
L 697 3744 
Q 697 4328 969 4595 
Q 1241 4863 1831 4863 
L 2375 4863 
z
" transform="scale(0.015625)"/>
      </defs>
      <use xlink:href="#DejaVuSans-4e"/>
      <use xlink:href="#DejaVuSans-75" transform="translate(74.804688 0)"/>
      <use xlink:href="#DejaVuSans-6d" transform="translate(138.183594 0)"/>
      <use xlink:href="#DejaVuSans-62" transform="translate(235.595703 0)"/>
      <use xlink:href="#DejaVuSans-65" transform="translate(299.072266 0)"/>
      <use xlink:href="#DejaVuSans-72" transform="translate(360.595703 0)"/>
      <use xlink:href="#DejaVuSans-20" transform="translate(401.708984 0)"/>
      <use xlink:href="#DejaVuSans-6f" transform="translate(433.496094 0)"/>
      <use xlink:href="#DejaVuSans-66" transform="translate(494.677734 0)"/>
      <use xlink:href="#DejaVuSans-20" transform="translate(529.882812 0)"/>
      <use xlink:href="#DejaVuSans-42" transform="translate(561.669922 0)"/>
      <use xlink:href="#DejaVuSans-72" transform="translate(630.273438 0)"/>
      <use xlink:href="#DejaVuSans-65" transform="translate(669.136719 0)"/>
      <use xlink:href="#DejaVuSans-61" transform="translate(730.660156 0)"/>
      <use xlink:href="#DejaVuSans-6b" transform="translate(791.939453 0)"/>
      <use xlink:href="#DejaVuSans-20" transform="translate(849.849609 0)"/>
      <use xlink:href="#DejaVuSans-49" transform="translate(881.636719 0)"/>
      <use xlink:href="#DejaVuSans-74" transform="translate(911.128906 0)"/>
      <use xlink:href="#DejaVuSans-65" transform="translate(950.337891 0)"/>
      <use xlink:href="#DejaVuSans-6d" transform="translate(1011.861328 0)"/>
      <use xlink:href="#DejaVuSans-73" transform="translate(1109.273438 0)"/>
     </g>
    </g>
   </g>
   <g id="matplotlib.axis_4">
    <g id="ytick_10">
     <g id="line2d_53">
      <path d="M 602.156212 322.819142 
L 966.564375 322.819142 
" clip-path="url(#p3c5b382ccc)" style="fill: none; stroke-dasharray: 1.85,0.8; stroke-dashoffset: 0; stroke: #b0b0b0; stroke-opacity: 0.3; stroke-width: 0.5"/>
     </g>
     <g id="line2d_54">
      <g>
       <use xlink:href="#m101f579cd1" x="602.156212" y="322.819142" style="stroke: #000000; stroke-width: 0.8"/>
      </g>
     </g>
     <g id="text_41">
      <!-- 2.25 -->
      <g transform="translate(563.984337 328.138048) scale(0.14 -0.14)">
       <use xlink:href="#DejaVuSans-32"/>
       <use xlink:href="#DejaVuSans-2e" transform="translate(63.623047 0)"/>
       <use xlink:href="#DejaVuSans-32" transform="translate(95.410156 0)"/>
       <use xlink:href="#DejaVuSans-35" transform="translate(159.033203 0)"/>
      </g>
     </g>
    </g>
    <g id="ytick_11">
     <g id="line2d_55">
      <path d="M 602.156212 288.57869 
L 966.564375 288.57869 
" clip-path="url(#p3c5b382ccc)" style="fill: none; stroke-dasharray: 1.85,0.8; stroke-dashoffset: 0; stroke: #b0b0b0; stroke-opacity: 0.3; stroke-width: 0.5"/>
     </g>
     <g id="line2d_56">
      <g>
       <use xlink:href="#m101f579cd1" x="602.156212" y="288.57869" style="stroke: #000000; stroke-width: 0.8"/>
      </g>
     </g>
     <g id="text_42">
      <!-- 2.50 -->
      <g transform="translate(563.984337 293.897596) scale(0.14 -0.14)">
       <use xlink:href="#DejaVuSans-32"/>
       <use xlink:href="#DejaVuSans-2e" transform="translate(63.623047 0)"/>
       <use xlink:href="#DejaVuSans-35" transform="translate(95.410156 0)"/>
       <use xlink:href="#DejaVuSans-30" transform="translate(159.033203 0)"/>
      </g>
     </g>
    </g>
    <g id="ytick_12">
     <g id="line2d_57">
      <path d="M 602.156212 254.338237 
L 966.564375 254.338237 
" clip-path="url(#p3c5b382ccc)" style="fill: none; stroke-dasharray: 1.85,0.8; stroke-dashoffset: 0; stroke: #b0b0b0; stroke-opacity: 0.3; stroke-width: 0.5"/>
     </g>
     <g id="line2d_58">
      <g>
       <use xlink:href="#m101f579cd1" x="602.156212" y="254.338237" style="stroke: #000000; stroke-width: 0.8"/>
      </g>
     </g>
     <g id="text_43">
      <!-- 2.75 -->
      <g transform="translate(563.984337 259.657143) scale(0.14 -0.14)">
       <use xlink:href="#DejaVuSans-32"/>
       <use xlink:href="#DejaVuSans-2e" transform="translate(63.623047 0)"/>
       <use xlink:href="#DejaVuSans-37" transform="translate(95.410156 0)"/>
       <use xlink:href="#DejaVuSans-35" transform="translate(159.033203 0)"/>
      </g>
     </g>
    </g>
    <g id="ytick_13">
     <g id="line2d_59">
      <path d="M 602.156212 220.097785 
L 966.564375 220.097785 
" clip-path="url(#p3c5b382ccc)" style="fill: none; stroke-dasharray: 1.85,0.8; stroke-dashoffset: 0; stroke: #b0b0b0; stroke-opacity: 0.3; stroke-width: 0.5"/>
     </g>
     <g id="line2d_60">
      <g>
       <use xlink:href="#m101f579cd1" x="602.156212" y="220.097785" style="stroke: #000000; stroke-width: 0.8"/>
      </g>
     </g>
     <g id="text_44">
      <!-- 3.00 -->
      <g transform="translate(563.984337 225.416691) scale(0.14 -0.14)">
       <use xlink:href="#DejaVuSans-33"/>
       <use xlink:href="#DejaVuSans-2e" transform="translate(63.623047 0)"/>
       <use xlink:href="#DejaVuSans-30" transform="translate(95.410156 0)"/>
       <use xlink:href="#DejaVuSans-30" transform="translate(159.033203 0)"/>
      </g>
     </g>
    </g>
    <g id="ytick_14">
     <g id="line2d_61">
      <path d="M 602.156212 185.857332 
L 966.564375 185.857332 
" clip-path="url(#p3c5b382ccc)" style="fill: none; stroke-dasharray: 1.85,0.8; stroke-dashoffset: 0; stroke: #b0b0b0; stroke-opacity: 0.3; stroke-width: 0.5"/>
     </g>
     <g id="line2d_62">
      <g>
       <use xlink:href="#m101f579cd1" x="602.156212" y="185.857332" style="stroke: #000000; stroke-width: 0.8"/>
      </g>
     </g>
     <g id="text_45">
      <!-- 3.25 -->
      <g transform="translate(563.984337 191.176238) scale(0.14 -0.14)">
       <use xlink:href="#DejaVuSans-33"/>
       <use xlink:href="#DejaVuSans-2e" transform="translate(63.623047 0)"/>
       <use xlink:href="#DejaVuSans-32" transform="translate(95.410156 0)"/>
       <use xlink:href="#DejaVuSans-35" transform="translate(159.033203 0)"/>
      </g>
     </g>
    </g>
    <g id="ytick_15">
     <g id="line2d_63">
      <path d="M 602.156212 151.61688 
L 966.564375 151.61688 
" clip-path="url(#p3c5b382ccc)" style="fill: none; stroke-dasharray: 1.85,0.8; stroke-dashoffset: 0; stroke: #b0b0b0; stroke-opacity: 0.3; stroke-width: 0.5"/>
     </g>
     <g id="line2d_64">
      <g>
       <use xlink:href="#m101f579cd1" x="602.156212" y="151.61688" style="stroke: #000000; stroke-width: 0.8"/>
      </g>
     </g>
     <g id="text_46">
      <!-- 3.50 -->
      <g transform="translate(563.984337 156.935786) scale(0.14 -0.14)">
       <use xlink:href="#DejaVuSans-33"/>
       <use xlink:href="#DejaVuSans-2e" transform="translate(63.623047 0)"/>
       <use xlink:href="#DejaVuSans-35" transform="translate(95.410156 0)"/>
       <use xlink:href="#DejaVuSans-30" transform="translate(159.033203 0)"/>
      </g>
     </g>
    </g>
    <g id="ytick_16">
     <g id="line2d_65">
      <path d="M 602.156212 117.376427 
L 966.564375 117.376427 
" clip-path="url(#p3c5b382ccc)" style="fill: none; stroke-dasharray: 1.85,0.8; stroke-dashoffset: 0; stroke: #b0b0b0; stroke-opacity: 0.3; stroke-width: 0.5"/>
     </g>
     <g id="line2d_66">
      <g>
       <use xlink:href="#m101f579cd1" x="602.156212" y="117.376427" style="stroke: #000000; stroke-width: 0.8"/>
      </g>
     </g>
     <g id="text_47">
      <!-- 3.75 -->
      <g transform="translate(563.984337 122.695334) scale(0.14 -0.14)">
       <use xlink:href="#DejaVuSans-33"/>
       <use xlink:href="#DejaVuSans-2e" transform="translate(63.623047 0)"/>
       <use xlink:href="#DejaVuSans-37" transform="translate(95.410156 0)"/>
       <use xlink:href="#DejaVuSans-35" transform="translate(159.033203 0)"/>
      </g>
     </g>
    </g>
    <g id="ytick_17">
     <g id="line2d_67">
      <path d="M 602.156212 83.135975 
L 966.564375 83.135975 
" clip-path="url(#p3c5b382ccc)" style="fill: none; stroke-dasharray: 1.85,0.8; stroke-dashoffset: 0; stroke: #b0b0b0; stroke-opacity: 0.3; stroke-width: 0.5"/>
     </g>
     <g id="line2d_68">
      <g>
       <use xlink:href="#m101f579cd1" x="602.156212" y="83.135975" style="stroke: #000000; stroke-width: 0.8"/>
      </g>
     </g>
     <g id="text_48">
      <!-- 4.00 -->
      <g transform="translate(563.984337 88.454881) scale(0.14 -0.14)">
       <use xlink:href="#DejaVuSans-34"/>
       <use xlink:href="#DejaVuSans-2e" transform="translate(63.623047 0)"/>
       <use xlink:href="#DejaVuSans-30" transform="translate(95.410156 0)"/>
       <use xlink:href="#DejaVuSans-30" transform="translate(159.033203 0)"/>
      </g>
     </g>
    </g>
    <g id="text_49">
     <!-- Film Items Recalled -->
     <g transform="translate(556.656837 270.54875) rotate(-90) scale(0.16 -0.16)">
      <defs>
       <path id="DejaVuSans-46" d="M 628 4666 
L 3309 4666 
L 3309 4134 
L 1259 4134 
L 1259 2759 
L 3109 2759 
L 3109 2228 
L 1259 2228 
L 1259 0 
L 628 0 
L 628 4666 
z
" transform="scale(0.015625)"/>
      </defs>
      <use xlink:href="#DejaVuSans-46"/>
      <use xlink:href="#DejaVuSans-69" transform="translate(50.269531 0)"/>
      <use xlink:href="#DejaVuSans-6c" transform="translate(78.052734 0)"/>
      <use xlink:href="#DejaVuSans-6d" transform="translate(105.835938 0)"/>
      <use xlink:href="#DejaVuSans-20" transform="translate(203.248047 0)"/>
      <use xlink:href="#DejaVuSans-49" transform="translate(235.035156 0)"/>
      <use xlink:href="#DejaVuSans-74" transform="translate(264.527344 0)"/>
      <use xlink:href="#DejaVuSans-65" transform="translate(303.736328 0)"/>
      <use xlink:href="#DejaVuSans-6d" transform="translate(365.259766 0)"/>
      <use xlink:href="#DejaVuSans-73" transform="translate(462.671875 0)"/>
      <use xlink:href="#DejaVuSans-20" transform="translate(514.771484 0)"/>
      <use xlink:href="#DejaVuSans-52" transform="translate(546.558594 0)"/>
      <use xlink:href="#DejaVuSans-65" transform="translate(611.541016 0)"/>
      <use xlink:href="#DejaVuSans-63" transform="translate(673.064453 0)"/>
      <use xlink:href="#DejaVuSans-61" transform="translate(728.044922 0)"/>
      <use xlink:href="#DejaVuSans-6c" transform="translate(789.324219 0)"/>
      <use xlink:href="#DejaVuSans-6c" transform="translate(817.107422 0)"/>
      <use xlink:href="#DejaVuSans-65" transform="translate(844.890625 0)"/>
      <use xlink:href="#DejaVuSans-64" transform="translate(906.414062 0)"/>
     </g>
    </g>
   </g>
   <g id="line2d_69">
    <path d="M 618.720219 98.071371 
L 660.130238 134.518369 
L 701.540256 159.475874 
L 742.950275 192.455415 
L 784.360293 220.119532 
L 825.770312 240.326793 
L 867.18033 258.414466 
L 908.590349 274.893363 
L 950.000368 294.187578 
" clip-path="url(#p3c5b382ccc)" style="fill: none; stroke: #000000; stroke-width: 1.5; stroke-linecap: square"/>
    <defs>
     <path id="m23c7f10277" d="M 0 2.5 
C 0.663008 2.5 1.29895 2.236584 1.767767 1.767767 
C 2.236584 1.29895 2.5 0.663008 2.5 0 
C 2.5 -0.663008 2.236584 -1.29895 1.767767 -1.767767 
C 1.29895 -2.236584 0.663008 -2.5 0 -2.5 
C -0.663008 -2.5 -1.29895 -2.236584 -1.767767 -1.767767 
C -2.236584 -1.29895 -2.5 -0.663008 -2.5 0 
C -2.5 0.663008 -2.236584 1.29895 -1.767767 1.767767 
C -1.29895 2.236584 -0.663008 2.5 0 2.5 
z
" style="stroke: #000000"/>
    </defs>
    <g clip-path="url(#p3c5b382ccc)">
     <use xlink:href="#m23c7f10277" x="618.720219" y="98.071371" style="stroke: #000000"/>
     <use xlink:href="#m23c7f10277" x="660.130238" y="134.518369" style="stroke: #000000"/>
     <use xlink:href="#m23c7f10277" x="701.540256" y="159.475874" style="stroke: #000000"/>
     <use xlink:href="#m23c7f10277" x="742.950275" y="192.455415" style="stroke: #000000"/>
     <use xlink:href="#m23c7f10277" x="784.360293" y="220.119532" style="stroke: #000000"/>
     <use xlink:href="#m23c7f10277" x="825.770312" y="240.326793" style="stroke: #000000"/>
     <use xlink:href="#m23c7f10277" x="867.18033" y="258.414466" style="stroke: #000000"/>
     <use xlink:href="#m23c7f10277" x="908.590349" y="274.893363" style="stroke: #000000"/>
     <use xlink:href="#m23c7f10277" x="950.000368" y="294.187578" style="stroke: #000000"/>
    </g>
   </g>
   <g id="patch_7">
    <path d="M 602.156212 331.5575 
L 602.156212 54.3575 
" style="fill: none; stroke: #000000; stroke-width: 0.8; stroke-linejoin: miter; stroke-linecap: square"/>
   </g>
   <g id="patch_8">
    <path d="M 602.156212 331.5575 
L 966.564375 331.5575 
" style="fill: none; stroke: #000000; stroke-width: 0.8; stroke-linejoin: miter; stroke-linecap: square"/>
   </g>
   <g id="text_50">
    <!-- Film Items Recalled -->
    <g transform="translate(706.769043 19.3575) scale(0.16 -0.16)">
     <use xlink:href="#DejaVuSans-46"/>
     <use xlink:href="#DejaVuSans-69" transform="translate(50.269531 0)"/>
     <use xlink:href="#DejaVuSans-6c" transform="translate(78.052734 0)"/>
     <use xlink:href="#DejaVuSans-6d" transform="translate(105.835938 0)"/>
     <use xlink:href="#DejaVuSans-20" transform="translate(203.248047 0)"/>
     <use xlink:href="#DejaVuSans-49" transform="translate(235.035156 0)"/>
     <use xlink:href="#DejaVuSans-74" transform="translate(264.527344 0)"/>
     <use xlink:href="#DejaVuSans-65" transform="translate(303.736328 0)"/>
     <use xlink:href="#DejaVuSans-6d" transform="translate(365.259766 0)"/>
     <use xlink:href="#DejaVuSans-73" transform="translate(462.671875 0)"/>
     <use xlink:href="#DejaVuSans-20" transform="translate(514.771484 0)"/>
     <use xlink:href="#DejaVuSans-52" transform="translate(546.558594 0)"/>
     <use xlink:href="#DejaVuSans-65" transform="translate(611.541016 0)"/>
     <use xlink:href="#DejaVuSans-63" transform="translate(673.064453 0)"/>
     <use xlink:href="#DejaVuSans-61" transform="translate(728.044922 0)"/>
     <use xlink:href="#DejaVuSans-6c" transform="translate(789.324219 0)"/>
     <use xlink:href="#DejaVuSans-6c" transform="translate(817.107422 0)"/>
     <use xlink:href="#DejaVuSans-65" transform="translate(844.890625 0)"/>
     <use xlink:href="#DejaVuSans-64" transform="translate(906.414062 0)"/>
    </g>
   </g>
  </g>
 </g>
 <defs>
  <clipPath id="pd19cb57357">
   <rect x="73.764375" y="54.3575" width="364.408163" height="277.2"/>
  </clipPath>
  <clipPath id="p3c5b382ccc">
   <rect x="602.156212" y="54.3575" width="364.408163" height="277.2"/>
  </clipPath>
 </defs>
</svg>
