<?xml version="1.0" encoding="utf-8" standalone="no"?>
<!DOCTYPE svg PUBLIC "-//W3C//DTD SVG 1.1//EN"
  "http://www.w3.org/Graphics/SVG/1.1/DTD/svg11.dtd">
<svg xmlns:xlink="http://www.w3.org/1999/xlink" width="955.949375pt" height="378.791875pt" viewBox="0 0 955.949375 378.791875" xmlns="http://www.w3.org/2000/svg" version="1.1">
 <metadata>
  <rdf:RDF xmlns:dc="http://purl.org/dc/elements/1.1/" xmlns:cc="http://creativecommons.org/ns#" xmlns:rdf="http://www.w3.org/1999/02/22-rdf-syntax-ns#">
   <cc:Work>
    <dc:type rdf:resource="http://purl.org/dc/dcmitype/StillImage"/>
    <dc:date>2026-03-04T15:30:17.742975</dc:date>
    <dc:format>image/svg+xml</dc:format>
    <dc:creator>
     <cc:Agent>
      <dc:title>Matplotlib v3.10.1, https://matplotlib.org/</dc:title>
     </cc:Agent>
    </dc:creator>
   </cc:Work>
  </rdf:RDF>
 </metadata>
 <defs>
  <style type="text/css">*{stroke-linejoin: round; stroke-linecap: butt}</style>
 </defs>
 <g id="figure_1">
  <g id="patch_1">
   <path d="M 0 378.791875 
L 955.949375 378.791875 
L 955.949375 0 
L 0 0 
z
" style="fill: #ffffff"/>
  </g>
  <g id="axes_1">
   <g id="patch_2">
    <path d="M 55.949375 331.5575 
L 420.357538 331.5575 
L 420.357538 54.3575 
L 55.949375 54.3575 
z
" style="fill: #ffffff"/>
   </g>
   <g id="matplotlib.axis_1">
    <g id="xtick_1">
     <g id="line2d_1">
      <defs>
       <path id="m7b8532b4e3" d="M 0 0 
L 0 3.5 
" style="stroke: #000000; stroke-width: 0.8"/>
      </defs>
      <g>
       <use xlink:href="#m7b8532b4e3" x="67.254967" y="331.5575" style="stroke: #000000; stroke-width: 0.8"/>
      </g>
     </g>
     <g id="text_1">
      <!-- 0 -->
      <g transform="translate(62.801217 349.195312) scale(0.14 -0.14)">
       <defs>
        <path id="DejaVuSans-30" d="M 2034 4250 
Q 1547 4250 1301 3770 
Q 1056 3291 1056 2328 
Q 1056 1369 1301 889 
Q 1547 409 2034 409 
Q 2525 409 2770 889 
Q 3016 1369 3016 2328 
Q 3016 3291 2770 3770 
Q 2525 4250 2034 4250 
z
M 2034 4750 
Q 2819 4750 3233 4129 
Q 3647 3509 3647 2328 
Q 3647 1150 3233 529 
Q 2819 -91 2034 -91 
Q 1250 -91 836 529 
Q 422 1150 422 2328 
Q 422 3509 836 4129 
Q 1250 4750 2034 4750 
z
" transform="scale(0.015625)"/>
       </defs>
       <use xlink:href="#DejaVuSans-30"/>
      </g>
     </g>
    </g>
    <g id="xtick_2">
     <g id="line2d_2">
      <g>
       <use xlink:href="#m7b8532b4e3" x="119.839118" y="331.5575" style="stroke: #000000; stroke-width: 0.8"/>
      </g>
     </g>
     <g id="text_2">
      <!-- 10 -->
      <g transform="translate(110.931618 349.195312) scale(0.14 -0.14)">
       <defs>
        <path id="DejaVuSans-31" d="M 794 531 
L 1825 531 
L 1825 4091 
L 703 3866 
L 703 4441 
L 1819 4666 
L 2450 4666 
L 2450 531 
L 3481 531 
L 3481 0 
L 794 0 
L 794 531 
z
" transform="scale(0.015625)"/>
       </defs>
       <use xlink:href="#DejaVuSans-31"/>
       <use xlink:href="#DejaVuSans-30" transform="translate(63.623047 0)"/>
      </g>
     </g>
    </g>
    <g id="xtick_3">
     <g id="line2d_3">
      <g>
       <use xlink:href="#m7b8532b4e3" x="172.423268" y="331.5575" style="stroke: #000000; stroke-width: 0.8"/>
      </g>
     </g>
     <g id="text_3">
      <!-- 20 -->
      <g transform="translate(163.515768 349.195312) scale(0.14 -0.14)">
       <defs>
        <path id="DejaVuSans-32" d="M 1228 531 
L 3431 531 
L 3431 0 
L 469 0 
L 469 531 
Q 828 903 1448 1529 
Q 2069 2156 2228 2338 
Q 2531 2678 2651 2914 
Q 2772 3150 2772 3378 
Q 2772 3750 2511 3984 
Q 2250 4219 1831 4219 
Q 1534 4219 1204 4116 
Q 875 4013 500 3803 
L 500 4441 
Q 881 4594 1212 4672 
Q 1544 4750 1819 4750 
Q 2544 4750 2975 4387 
Q 3406 4025 3406 3419 
Q 3406 3131 3298 2873 
Q 3191 2616 2906 2266 
Q 2828 2175 2409 1742 
Q 1991 1309 1228 531 
z
" transform="scale(0.015625)"/>
       </defs>
       <use xlink:href="#DejaVuSans-32"/>
       <use xlink:href="#DejaVuSans-30" transform="translate(63.623047 0)"/>
      </g>
     </g>
    </g>
    <g id="xtick_4">
     <g id="line2d_4">
      <g>
       <use xlink:href="#m7b8532b4e3" x="225.007419" y="331.5575" style="stroke: #000000; stroke-width: 0.8"/>
      </g>
     </g>
     <g id="text_4">
      <!-- 30 -->
      <g transform="translate(216.099919 349.195312) scale(0.14 -0.14)">
       <defs>
        <path id="DejaVuSans-33" d="M 2597 2516 
Q 3050 2419 3304 2112 
Q 3559 1806 3559 1356 
Q 3559 666 3084 287 
Q 2609 -91 1734 -91 
Q 1441 -91 1130 -33 
Q 819 25 488 141 
L 488 750 
Q 750 597 1062 519 
Q 1375 441 1716 441 
Q 2309 441 2620 675 
Q 2931 909 2931 1356 
Q 2931 1769 2642 2001 
Q 2353 2234 1838 2234 
L 1294 2234 
L 1294 2753 
L 1863 2753 
Q 2328 2753 2575 2939 
Q 2822 3125 2822 3475 
Q 2822 3834 2567 4026 
Q 2313 4219 1838 4219 
Q 1578 4219 1281 4162 
Q 984 4106 628 3988 
L 628 4550 
Q 988 4650 1302 4700 
Q 1616 4750 1894 4750 
Q 2613 4750 3031 4423 
Q 3450 4097 3450 3541 
Q 3450 3153 3228 2886 
Q 3006 2619 2597 2516 
z
" transform="scale(0.015625)"/>
       </defs>
       <use xlink:href="#DejaVuSans-33"/>
       <use xlink:href="#DejaVuSans-30" transform="translate(63.623047 0)"/>
      </g>
     </g>
    </g>
    <g id="xtick_5">
     <g id="line2d_5">
      <g>
       <use xlink:href="#m7b8532b4e3" x="277.59157" y="331.5575" style="stroke: #000000; stroke-width: 0.8"/>
      </g>
     </g>
     <g id="text_5">
      <!-- 40 -->
      <g transform="translate(268.68407 349.195312) scale(0.14 -0.14)">
       <defs>
        <path id="DejaVuSans-34" d="M 2419 4116 
L 825 1625 
L 2419 1625 
L 2419 4116 
z
M 2253 4666 
L 3047 4666 
L 3047 1625 
L 3713 1625 
L 3713 1100 
L 3047 1100 
L 3047 0 
L 2419 0 
L 2419 1100 
L 313 1100 
L 313 1709 
L 2253 4666 
z
" transform="scale(0.015625)"/>
       </defs>
       <use xlink:href="#DejaVuSans-34"/>
       <use xlink:href="#DejaVuSans-30" transform="translate(63.623047 0)"/>
      </g>
     </g>
    </g>
    <g id="xtick_6">
     <g id="line2d_6">
      <g>
       <use xlink:href="#m7b8532b4e3" x="330.17572" y="331.5575" style="stroke: #000000; stroke-width: 0.8"/>
      </g>
     </g>
     <g id="text_6">
      <!-- 50 -->
      <g transform="translate(321.26822 349.195312) scale(0.14 -0.14)">
       <defs>
        <path id="DejaVuSans-35" d="M 691 4666 
L 3169 4666 
L 3169 4134 
L 1269 4134 
L 1269 2991 
Q 1406 3038 1543 3061 
Q 1681 3084 1819 3084 
Q 2600 3084 3056 2656 
Q 3513 2228 3513 1497 
Q 3513 744 3044 326 
Q 2575 -91 1722 -91 
Q 1428 -91 1123 -41 
Q 819 9 494 109 
L 494 744 
Q 775 591 1075 516 
Q 1375 441 1709 441 
Q 2250 441 2565 725 
Q 2881 1009 2881 1497 
Q 2881 1984 2565 2268 
Q 2250 2553 1709 2553 
Q 1456 2553 1204 2497 
Q 953 2441 691 2322 
L 691 4666 
z
" transform="scale(0.015625)"/>
       </defs>
       <use xlink:href="#DejaVuSans-35"/>
       <use xlink:href="#DejaVuSans-30" transform="translate(63.623047 0)"/>
      </g>
     </g>
    </g>
    <g id="xtick_7">
     <g id="line2d_7">
      <g>
       <use xlink:href="#m7b8532b4e3" x="382.759871" y="331.5575" style="stroke: #000000; stroke-width: 0.8"/>
      </g>
     </g>
     <g id="text_7">
      <!-- 60 -->
      <g transform="translate(373.852371 349.195312) scale(0.14 -0.14)">
       <defs>
        <path id="DejaVuSans-36" d="M 2113 2584 
Q 1688 2584 1439 2293 
Q 1191 2003 1191 1497 
Q 1191 994 1439 701 
Q 1688 409 2113 409 
Q 2538 409 2786 701 
Q 3034 994 3034 1497 
Q 3034 2003 2786 2293 
Q 2538 2584 2113 2584 
z
M 3366 4563 
L 3366 3988 
Q 3128 4100 2886 4159 
Q 2644 4219 2406 4219 
Q 1781 4219 1451 3797 
Q 1122 3375 1075 2522 
Q 1259 2794 1537 2939 
Q 1816 3084 2150 3084 
Q 2853 3084 3261 2657 
Q 3669 2231 3669 1497 
Q 3669 778 3244 343 
Q 2819 -91 2113 -91 
Q 1303 -91 875 529 
Q 447 1150 447 2328 
Q 447 3434 972 4092 
Q 1497 4750 2381 4750 
Q 2619 4750 2861 4703 
Q 3103 4656 3366 4563 
z
" transform="scale(0.015625)"/>
       </defs>
       <use xlink:href="#DejaVuSans-36"/>
       <use xlink:href="#DejaVuSans-30" transform="translate(63.623047 0)"/>
      </g>
     </g>
    </g>
    <g id="text_8">
     <!-- Study Position -->
     <g transform="translate(181.369707 368.264375) scale(0.16 -0.16)">
      <defs>
       <path id="DejaVuSans-53" d="M 3425 4513 
L 3425 3897 
Q 3066 4069 2747 4153 
Q 2428 4238 2131 4238 
Q 1616 4238 1336 4038 
Q 1056 3838 1056 3469 
Q 1056 3159 1242 3001 
Q 1428 2844 1947 2747 
L 2328 2669 
Q 3034 2534 3370 2195 
Q 3706 1856 3706 1288 
Q 3706 609 3251 259 
Q 2797 -91 1919 -91 
Q 1588 -91 1214 -16 
Q 841 59 441 206 
L 441 856 
Q 825 641 1194 531 
Q 1563 422 1919 422 
Q 2459 422 2753 634 
Q 3047 847 3047 1241 
Q 3047 1584 2836 1778 
Q 2625 1972 2144 2069 
L 1759 2144 
Q 1053 2284 737 2584 
Q 422 2884 422 3419 
Q 422 4038 858 4394 
Q 1294 4750 2059 4750 
Q 2388 4750 2728 4690 
Q 3069 4631 3425 4513 
z
" transform="scale(0.015625)"/>
       <path id="DejaVuSans-74" d="M 1172 4494 
L 1172 3500 
L 2356 3500 
L 2356 3053 
L 1172 3053 
L 1172 1153 
Q 1172 725 1289 603 
Q 1406 481 1766 481 
L 2356 481 
L 2356 0 
L 1766 0 
Q 1100 0 847 248 
Q 594 497 594 1153 
L 594 3053 
L 172 3053 
L 172 3500 
L 594 3500 
L 594 4494 
L 1172 4494 
z
" transform="scale(0.015625)"/>
       <path id="DejaVuSans-75" d="M 544 1381 
L 544 3500 
L 1119 3500 
L 1119 1403 
Q 1119 906 1312 657 
Q 1506 409 1894 409 
Q 2359 409 2629 706 
Q 2900 1003 2900 1516 
L 2900 3500 
L 3475 3500 
L 3475 0 
L 2900 0 
L 2900 538 
Q 2691 219 2414 64 
Q 2138 -91 1772 -91 
Q 1169 -91 856 284 
Q 544 659 544 1381 
z
M 1991 3584 
L 1991 3584 
z
" transform="scale(0.015625)"/>
       <path id="DejaVuSans-64" d="M 2906 2969 
L 2906 4863 
L 3481 4863 
L 3481 0 
L 2906 0 
L 2906 525 
Q 2725 213 2448 61 
Q 2172 -91 1784 -91 
Q 1150 -91 751 415 
Q 353 922 353 1747 
Q 353 2572 751 3078 
Q 1150 3584 1784 3584 
Q 2172 3584 2448 3432 
Q 2725 3281 2906 2969 
z
M 947 1747 
Q 947 1113 1208 752 
Q 1469 391 1925 391 
Q 2381 391 2643 752 
Q 2906 1113 2906 1747 
Q 2906 2381 2643 2742 
Q 2381 3103 1925 3103 
Q 1469 3103 1208 2742 
Q 947 2381 947 1747 
z
" transform="scale(0.015625)"/>
       <path id="DejaVuSans-79" d="M 2059 -325 
Q 1816 -950 1584 -1140 
Q 1353 -1331 966 -1331 
L 506 -1331 
L 506 -850 
L 844 -850 
Q 1081 -850 1212 -737 
Q 1344 -625 1503 -206 
L 1606 56 
L 191 3500 
L 800 3500 
L 1894 763 
L 2988 3500 
L 3597 3500 
L 2059 -325 
z
" transform="scale(0.015625)"/>
       <path id="DejaVuSans-20" transform="scale(0.015625)"/>
       <path id="DejaVuSans-50" d="M 1259 4147 
L 1259 2394 
L 2053 2394 
Q 2494 2394 2734 2622 
Q 2975 2850 2975 3272 
Q 2975 3691 2734 3919 
Q 2494 4147 2053 4147 
L 1259 4147 
z
M 628 4666 
L 2053 4666 
Q 2838 4666 3239 4311 
Q 3641 3956 3641 3272 
Q 3641 2581 3239 2228 
Q 2838 1875 2053 1875 
L 1259 1875 
L 1259 0 
L 628 0 
L 628 4666 
z
" transform="scale(0.015625)"/>
       <path id="DejaVuSans-6f" d="M 1959 3097 
Q 1497 3097 1228 2736 
Q 959 2375 959 1747 
Q 959 1119 1226 758 
Q 1494 397 1959 397 
Q 2419 397 2687 759 
Q 2956 1122 2956 1747 
Q 2956 2369 2687 2733 
Q 2419 3097 1959 3097 
z
M 1959 3584 
Q 2709 3584 3137 3096 
Q 3566 2609 3566 1747 
Q 3566 888 3137 398 
Q 2709 -91 1959 -91 
Q 1206 -91 779 398 
Q 353 888 353 1747 
Q 353 2609 779 3096 
Q 1206 3584 1959 3584 
z
" transform="scale(0.015625)"/>
       <path id="DejaVuSans-73" d="M 2834 3397 
L 2834 2853 
Q 2591 2978 2328 3040 
Q 2066 3103 1784 3103 
Q 1356 3103 1142 2972 
Q 928 2841 928 2578 
Q 928 2378 1081 2264 
Q 1234 2150 1697 2047 
L 1894 2003 
Q 2506 1872 2764 1633 
Q 3022 1394 3022 966 
Q 3022 478 2636 193 
Q 2250 -91 1575 -91 
Q 1294 -91 989 -36 
Q 684 19 347 128 
L 347 722 
Q 666 556 975 473 
Q 1284 391 1588 391 
Q 1994 391 2212 530 
Q 2431 669 2431 922 
Q 2431 1156 2273 1281 
Q 2116 1406 1581 1522 
L 1381 1569 
Q 847 1681 609 1914 
Q 372 2147 372 2553 
Q 372 3047 722 3315 
Q 1072 3584 1716 3584 
Q 2034 3584 2315 3537 
Q 2597 3491 2834 3397 
z
" transform="scale(0.015625)"/>
       <path id="DejaVuSans-69" d="M 603 3500 
L 1178 3500 
L 1178 0 
L 603 0 
L 603 3500 
z
M 603 4863 
L 1178 4863 
L 1178 4134 
L 603 4134 
L 603 4863 
z
" transform="scale(0.015625)"/>
       <path id="DejaVuSans-6e" d="M 3513 2113 
L 3513 0 
L 2938 0 
L 2938 2094 
Q 2938 2591 2744 2837 
Q 2550 3084 2163 3084 
Q 1697 3084 1428 2787 
Q 1159 2491 1159 1978 
L 1159 0 
L 581 0 
L 581 3500 
L 1159 3500 
L 1159 2956 
Q 1366 3272 1645 3428 
Q 1925 3584 2291 3584 
Q 2894 3584 3203 3211 
Q 3513 2838 3513 2113 
z
" transform="scale(0.015625)"/>
      </defs>
      <use xlink:href="#DejaVuSans-53"/>
      <use xlink:href="#DejaVuSans-74" transform="translate(63.476562 0)"/>
      <use xlink:href="#DejaVuSans-75" transform="translate(102.685547 0)"/>
      <use xlink:href="#DejaVuSans-64" transform="translate(166.064453 0)"/>
      <use xlink:href="#DejaVuSans-79" transform="translate(229.541016 0)"/>
      <use xlink:href="#DejaVuSans-20" transform="translate(288.720703 0)"/>
      <use xlink:href="#DejaVuSans-50" transform="translate(320.507812 0)"/>
      <use xlink:href="#DejaVuSans-6f" transform="translate(377.185547 0)"/>
      <use xlink:href="#DejaVuSans-73" transform="translate(438.367188 0)"/>
      <use xlink:href="#DejaVuSans-69" transform="translate(490.466797 0)"/>
      <use xlink:href="#DejaVuSans-74" transform="translate(518.25 0)"/>
      <use xlink:href="#DejaVuSans-69" transform="translate(557.458984 0)"/>
      <use xlink:href="#DejaVuSans-6f" transform="translate(585.242188 0)"/>
      <use xlink:href="#DejaVuSans-6e" transform="translate(646.423828 0)"/>
     </g>
    </g>
   </g>
   <g id="matplotlib.axis_2">
    <g id="ytick_1">
     <g id="line2d_8">
      <path d="M 55.949375 318.981047 
L 420.357538 318.981047 
" clip-path="url(#p5b510919fe)" style="fill: none; stroke-dasharray: 1.85,0.8; stroke-dashoffset: 0; stroke: #b0b0b0; stroke-opacity: 0.3; stroke-width: 0.5"/>
     </g>
     <g id="line2d_9">
      <defs>
       <path id="m797a187da3" d="M 0 0 
L -3.5 0 
" style="stroke: #000000; stroke-width: 0.8"/>
      </defs>
      <g>
       <use xlink:href="#m797a187da3" x="55.949375" y="318.981047" style="stroke: #000000; stroke-width: 0.8"/>
      </g>
     </g>
     <g id="text_9">
      <!-- 0.0 -->
      <g transform="translate(26.685 324.299953) scale(0.14 -0.14)">
       <defs>
        <path id="DejaVuSans-2e" d="M 684 794 
L 1344 794 
L 1344 0 
L 684 0 
L 684 794 
z
" transform="scale(0.015625)"/>
       </defs>
       <use xlink:href="#DejaVuSans-30"/>
       <use xlink:href="#DejaVuSans-2e" transform="translate(63.623047 0)"/>
       <use xlink:href="#DejaVuSans-30" transform="translate(95.410156 0)"/>
      </g>
     </g>
    </g>
    <g id="ytick_2">
     <g id="line2d_10">
      <path d="M 55.949375 259.642606 
L 420.357538 259.642606 
" clip-path="url(#p5b510919fe)" style="fill: none; stroke-dasharray: 1.85,0.8; stroke-dashoffset: 0; stroke: #b0b0b0; stroke-opacity: 0.3; stroke-width: 0.5"/>
     </g>
     <g id="line2d_11">
      <g>
       <use xlink:href="#m797a187da3" x="55.949375" y="259.642606" style="stroke: #000000; stroke-width: 0.8"/>
      </g>
     </g>
     <g id="text_10">
      <!-- 0.2 -->
      <g transform="translate(26.685 264.961512) scale(0.14 -0.14)">
       <use xlink:href="#DejaVuSans-30"/>
       <use xlink:href="#DejaVuSans-2e" transform="translate(63.623047 0)"/>
       <use xlink:href="#DejaVuSans-32" transform="translate(95.410156 0)"/>
      </g>
     </g>
    </g>
    <g id="ytick_3">
     <g id="line2d_12">
      <path d="M 55.949375 200.304165 
L 420.357538 200.304165 
" clip-path="url(#p5b510919fe)" style="fill: none; stroke-dasharray: 1.85,0.8; stroke-dashoffset: 0; stroke: #b0b0b0; stroke-opacity: 0.3; stroke-width: 0.5"/>
     </g>
     <g id="line2d_13">
      <g>
       <use xlink:href="#m797a187da3" x="55.949375" y="200.304165" style="stroke: #000000; stroke-width: 0.8"/>
      </g>
     </g>
     <g id="text_11">
      <!-- 0.4 -->
      <g transform="translate(26.685 205.623071) scale(0.14 -0.14)">
       <use xlink:href="#DejaVuSans-30"/>
       <use xlink:href="#DejaVuSans-2e" transform="translate(63.623047 0)"/>
       <use xlink:href="#DejaVuSans-34" transform="translate(95.410156 0)"/>
      </g>
     </g>
    </g>
    <g id="ytick_4">
     <g id="line2d_14">
      <path d="M 55.949375 140.965724 
L 420.357538 140.965724 
" clip-path="url(#p5b510919fe)" style="fill: none; stroke-dasharray: 1.85,0.8; stroke-dashoffset: 0; stroke: #b0b0b0; stroke-opacity: 0.3; stroke-width: 0.5"/>
     </g>
     <g id="line2d_15">
      <g>
       <use xlink:href="#m797a187da3" x="55.949375" y="140.965724" style="stroke: #000000; stroke-width: 0.8"/>
      </g>
     </g>
     <g id="text_12">
      <!-- 0.6 -->
      <g transform="translate(26.685 146.28463) scale(0.14 -0.14)">
       <use xlink:href="#DejaVuSans-30"/>
       <use xlink:href="#DejaVuSans-2e" transform="translate(63.623047 0)"/>
       <use xlink:href="#DejaVuSans-36" transform="translate(95.410156 0)"/>
      </g>
     </g>
    </g>
    <g id="ytick_5">
     <g id="line2d_16">
      <path d="M 55.949375 81.627283 
L 420.357538 81.627283 
" clip-path="url(#p5b510919fe)" style="fill: none; stroke-dasharray: 1.85,0.8; stroke-dashoffset: 0; stroke: #b0b0b0; stroke-opacity: 0.3; stroke-width: 0.5"/>
     </g>
     <g id="line2d_17">
      <g>
       <use xlink:href="#m797a187da3" x="55.949375" y="81.627283" style="stroke: #000000; stroke-width: 0.8"/>
      </g>
     </g>
     <g id="text_13">
      <!-- 0.8 -->
      <g transform="translate(26.685 86.946189) scale(0.14 -0.14)">
       <defs>
        <path id="DejaVuSans-38" d="M 2034 2216 
Q 1584 2216 1326 1975 
Q 1069 1734 1069 1313 
Q 1069 891 1326 650 
Q 1584 409 2034 409 
Q 2484 409 2743 651 
Q 3003 894 3003 1313 
Q 3003 1734 2745 1975 
Q 2488 2216 2034 2216 
z
M 1403 2484 
Q 997 2584 770 2862 
Q 544 3141 544 3541 
Q 544 4100 942 4425 
Q 1341 4750 2034 4750 
Q 2731 4750 3128 4425 
Q 3525 4100 3525 3541 
Q 3525 3141 3298 2862 
Q 3072 2584 2669 2484 
Q 3125 2378 3379 2068 
Q 3634 1759 3634 1313 
Q 3634 634 3220 271 
Q 2806 -91 2034 -91 
Q 1263 -91 848 271 
Q 434 634 434 1313 
Q 434 1759 690 2068 
Q 947 2378 1403 2484 
z
M 1172 3481 
Q 1172 3119 1398 2916 
Q 1625 2713 2034 2713 
Q 2441 2713 2670 2916 
Q 2900 3119 2900 3481 
Q 2900 3844 2670 4047 
Q 2441 4250 2034 4250 
Q 1625 4250 1398 4047 
Q 1172 3844 1172 3481 
z
" transform="scale(0.015625)"/>
       </defs>
       <use xlink:href="#DejaVuSans-30"/>
       <use xlink:href="#DejaVuSans-2e" transform="translate(63.623047 0)"/>
       <use xlink:href="#DejaVuSans-38" transform="translate(95.410156 0)"/>
      </g>
     </g>
    </g>
    <g id="text_14">
     <!-- Recall Probability -->
     <g transform="translate(19.3575 261.65375) rotate(-90) scale(0.16 -0.16)">
      <defs>
       <path id="DejaVuSans-52" d="M 2841 2188 
Q 3044 2119 3236 1894 
Q 3428 1669 3622 1275 
L 4263 0 
L 3584 0 
L 2988 1197 
Q 2756 1666 2539 1819 
Q 2322 1972 1947 1972 
L 1259 1972 
L 1259 0 
L 628 0 
L 628 4666 
L 2053 4666 
Q 2853 4666 3247 4331 
Q 3641 3997 3641 3322 
Q 3641 2881 3436 2590 
Q 3231 2300 2841 2188 
z
M 1259 4147 
L 1259 2491 
L 2053 2491 
Q 2509 2491 2742 2702 
Q 2975 2913 2975 3322 
Q 2975 3731 2742 3939 
Q 2509 4147 2053 4147 
L 1259 4147 
z
" transform="scale(0.015625)"/>
       <path id="DejaVuSans-65" d="M 3597 1894 
L 3597 1613 
L 953 1613 
Q 991 1019 1311 708 
Q 1631 397 2203 397 
Q 2534 397 2845 478 
Q 3156 559 3463 722 
L 3463 178 
Q 3153 47 2828 -22 
Q 2503 -91 2169 -91 
Q 1331 -91 842 396 
Q 353 884 353 1716 
Q 353 2575 817 3079 
Q 1281 3584 2069 3584 
Q 2775 3584 3186 3129 
Q 3597 2675 3597 1894 
z
M 3022 2063 
Q 3016 2534 2758 2815 
Q 2500 3097 2075 3097 
Q 1594 3097 1305 2825 
Q 1016 2553 972 2059 
L 3022 2063 
z
" transform="scale(0.015625)"/>
       <path id="DejaVuSans-63" d="M 3122 3366 
L 3122 2828 
Q 2878 2963 2633 3030 
Q 2388 3097 2138 3097 
Q 1578 3097 1268 2742 
Q 959 2388 959 1747 
Q 959 1106 1268 751 
Q 1578 397 2138 397 
Q 2388 397 2633 464 
Q 2878 531 3122 666 
L 3122 134 
Q 2881 22 2623 -34 
Q 2366 -91 2075 -91 
Q 1284 -91 818 406 
Q 353 903 353 1747 
Q 353 2603 823 3093 
Q 1294 3584 2113 3584 
Q 2378 3584 2631 3529 
Q 2884 3475 3122 3366 
z
" transform="scale(0.015625)"/>
       <path id="DejaVuSans-61" d="M 2194 1759 
Q 1497 1759 1228 1600 
Q 959 1441 959 1056 
Q 959 750 1161 570 
Q 1363 391 1709 391 
Q 2188 391 2477 730 
Q 2766 1069 2766 1631 
L 2766 1759 
L 2194 1759 
z
M 3341 1997 
L 3341 0 
L 2766 0 
L 2766 531 
Q 2569 213 2275 61 
Q 1981 -91 1556 -91 
Q 1019 -91 701 211 
Q 384 513 384 1019 
Q 384 1609 779 1909 
Q 1175 2209 1959 2209 
L 2766 2209 
L 2766 2266 
Q 2766 2663 2505 2880 
Q 2244 3097 1772 3097 
Q 1472 3097 1187 3025 
Q 903 2953 641 2809 
L 641 3341 
Q 956 3463 1253 3523 
Q 1550 3584 1831 3584 
Q 2591 3584 2966 3190 
Q 3341 2797 3341 1997 
z
" transform="scale(0.015625)"/>
       <path id="DejaVuSans-6c" d="M 603 4863 
L 1178 4863 
L 1178 0 
L 603 0 
L 603 4863 
z
" transform="scale(0.015625)"/>
       <path id="DejaVuSans-72" d="M 2631 2963 
Q 2534 3019 2420 3045 
Q 2306 3072 2169 3072 
Q 1681 3072 1420 2755 
Q 1159 2438 1159 1844 
L 1159 0 
L 581 0 
L 581 3500 
L 1159 3500 
L 1159 2956 
Q 1341 3275 1631 3429 
Q 1922 3584 2338 3584 
Q 2397 3584 2469 3576 
Q 2541 3569 2628 3553 
L 2631 2963 
z
" transform="scale(0.015625)"/>
       <path id="DejaVuSans-62" d="M 3116 1747 
Q 3116 2381 2855 2742 
Q 2594 3103 2138 3103 
Q 1681 3103 1420 2742 
Q 1159 2381 1159 1747 
Q 1159 1113 1420 752 
Q 1681 391 2138 391 
Q 2594 391 2855 752 
Q 3116 1113 3116 1747 
z
M 1159 2969 
Q 1341 3281 1617 3432 
Q 1894 3584 2278 3584 
Q 2916 3584 3314 3078 
Q 3713 2572 3713 1747 
Q 3713 922 3314 415 
Q 2916 -91 2278 -91 
Q 1894 -91 1617 61 
Q 1341 213 1159 525 
L 1159 0 
L 581 0 
L 581 4863 
L 1159 4863 
L 1159 2969 
z
" transform="scale(0.015625)"/>
      </defs>
      <use xlink:href="#DejaVuSans-52"/>
      <use xlink:href="#DejaVuSans-65" transform="translate(64.982422 0)"/>
      <use xlink:href="#DejaVuSans-63" transform="translate(126.505859 0)"/>
      <use xlink:href="#DejaVuSans-61" transform="translate(181.486328 0)"/>
      <use xlink:href="#DejaVuSans-6c" transform="translate(242.765625 0)"/>
      <use xlink:href="#DejaVuSans-6c" transform="translate(270.548828 0)"/>
      <use xlink:href="#DejaVuSans-20" transform="translate(298.332031 0)"/>
      <use xlink:href="#DejaVuSans-50" transform="translate(330.119141 0)"/>
      <use xlink:href="#DejaVuSans-72" transform="translate(388.671875 0)"/>
      <use xlink:href="#DejaVuSans-6f" transform="translate(427.535156 0)"/>
      <use xlink:href="#DejaVuSans-62" transform="translate(488.716797 0)"/>
      <use xlink:href="#DejaVuSans-61" transform="translate(552.193359 0)"/>
      <use xlink:href="#DejaVuSans-62" transform="translate(613.472656 0)"/>
      <use xlink:href="#DejaVuSans-69" transform="translate(676.949219 0)"/>
      <use xlink:href="#DejaVuSans-6c" transform="translate(704.732422 0)"/>
      <use xlink:href="#DejaVuSans-69" transform="translate(732.515625 0)"/>
      <use xlink:href="#DejaVuSans-74" transform="translate(760.298828 0)"/>
      <use xlink:href="#DejaVuSans-79" transform="translate(799.507812 0)"/>
     </g>
    </g>
   </g>
   <g id="line2d_18">
    <path d="M 72.513382 66.9575 
L 77.771797 81.745021 
L 83.030213 85.983472 
L 88.288628 88.267532 
L 93.547043 89.750992 
L 98.805458 93.141766 
L 104.063873 92.388259 
L 109.322288 92.576631 
L 114.580703 94.483947 
L 119.839118 94.083646 
L 125.097533 96.744452 
L 130.355948 95.661292 
L 135.614363 97.639238 
L 140.872778 101.077106 
L 146.131193 104.373677 
L 151.389608 110.684279 
L 156.648023 304.075796 
L 161.906438 311.846306 
L 167.164853 315.684467 
L 172.423268 316.956005 
L 177.681684 317.638868 
L 182.940099 318.039167 
L 188.198514 318.48656 
L 193.456929 318.792671 
L 198.715344 318.910406 
L 203.973759 318.910406 
L 209.232174 318.933953 
L 214.490589 318.9575 
M 240.782664 287.286785 
L 246.041079 296.399474 
L 251.299494 304.075796 
L 256.557909 308.12588 
L 261.816324 311.234084 
L 267.074739 313.212032 
L 272.333154 314.01263 
L 277.59157 314.907416 
L 282.849985 315.66092 
L 288.1084 316.061219 
L 293.366815 316.202501 
L 298.62523 315.872843 
L 303.883645 316.108313 
L 309.14206 316.36733 
L 314.400475 316.696988 
L 319.65889 316.461518 
L 324.917305 318.48656 
L 330.17572 318.580748 
L 335.434135 318.627842 
L 340.69255 318.72203 
L 345.950965 318.674936 
L 351.20938 318.72203 
L 356.467795 318.769124 
L 361.72621 318.604295 
L 366.984625 318.274637 
L 372.243041 317.944979 
L 377.501456 317.521133 
L 382.759871 316.720535 
L 388.018286 315.142886 
L 393.276701 312.646904 
L 398.535116 304.994129 
L 403.793531 287.828366 
" clip-path="url(#p5b510919fe)" style="fill: none; stroke: #bfbfbf; stroke-width: 1.5; stroke-linecap: square"/>
   </g>
   <g id="line2d_19">
    <path d="M 72.513382 67.922935 
L 77.771797 84.523567 
L 83.030213 86.383772 
L 88.288628 90.339664 
L 93.547043 90.904799 
L 98.805458 92.929839 
L 104.063873 92.035052 
L 109.322288 93.306601 
L 114.580703 92.011514 
L 119.839118 94.672319 
L 125.097533 96.603172 
L 130.355948 99.570091 
L 135.614363 100.252968 
L 140.872778 103.502446 
L 146.131193 106.163251 
L 151.389608 111.908717 
L 156.648023 304.570282 
L 161.906438 312.081776 
L 167.164853 315.284168 
L 172.423268 316.508612 
L 177.681684 317.568227 
L 182.940099 317.921432 
L 188.198514 318.156902 
L 193.456929 318.25109 
L 198.715344 318.510107 
L 203.973759 318.580748 
L 209.232174 318.792671 
L 214.490589 318.745577 
L 219.749004 318.698483 
L 225.007419 318.674936 
L 230.265834 318.769124 
L 235.524249 318.698483 
L 240.782664 298.824814 
L 246.041079 299.719601 
L 251.299494 304.311266 
L 256.557909 307.796221 
L 261.816324 310.409939 
L 267.074739 311.705024 
L 272.333154 312.434981 
L 277.59157 313.400408 
L 282.849985 314.318741 
L 288.1084 314.671946 
L 293.366815 315.401903 
L 298.62523 315.378356 
L 303.883645 314.860322 
L 309.14206 315.590279 
L 314.400475 316.108313 
L 319.65889 315.89639 
L 324.917305 317.803697 
L 330.17572 318.062714 
L 335.434135 318.557201 
L 340.69255 318.48656 
L 345.950965 318.25109 
L 351.20938 318.439466 
L 356.467795 318.274637 
L 361.72621 318.345278 
L 366.984625 317.897885 
L 372.243041 317.568227 
L 377.501456 317.050193 
L 382.759871 316.249595 
L 388.018286 314.930963 
L 393.276701 312.505622 
L 398.535116 304.12289 
L 403.793531 285.614948 
" clip-path="url(#p5b510919fe)" style="fill: none; stroke: #acacac; stroke-width: 1.5; stroke-linecap: square"/>
   </g>
   <g id="line2d_20">
    <path d="M 72.513382 70.206996 
L 77.771797 82.804625 
L 83.030213 86.972445 
L 88.288628 92.1057 
L 93.547043 93.18886 
L 98.805458 92.576631 
L 104.063873 95.708385 
L 109.322288 95.213899 
L 114.580703 93.965905 
L 119.839118 97.097659 
L 125.097533 98.29856 
L 130.355948 98.15728 
L 135.614363 100.58262 
L 140.872778 102.301545 
L 146.131193 105.362651 
L 151.389608 111.932273 
L 156.648023 306.124385 
L 161.906438 312.576263 
L 167.164853 315.684467 
L 172.423268 316.814723 
L 177.681684 317.379851 
L 182.940099 317.921432 
L 188.198514 318.086261 
L 193.456929 317.992073 
L 198.715344 318.086261 
L 203.973759 318.109808 
L 209.232174 318.039167 
L 214.490589 318.086261 
L 219.749004 318.274637 
L 225.007419 318.180449 
L 230.265834 318.274637 
L 235.524249 318.109808 
L 240.782664 301.085327 
L 246.041079 300.967592 
L 251.299494 303.204557 
L 256.557909 305.841821 
L 261.816324 308.196521 
L 267.074739 309.868358 
L 272.333154 311.65793 
L 277.59157 312.270152 
L 282.849985 312.788186 
L 288.1084 314.177459 
L 293.366815 313.871348 
L 298.62523 313.965536 
L 303.883645 314.318741 
L 309.14206 314.295194 
L 314.400475 314.671946 
L 319.65889 314.883869 
L 324.917305 317.379851 
L 330.17572 317.850791 
L 335.434135 317.733056 
L 340.69255 317.78015 
L 345.950965 317.968526 
L 351.20938 318.062714 
L 356.467795 317.874338 
L 361.72621 317.662415 
L 366.984625 317.54468 
L 372.243041 317.285663 
L 377.501456 316.861817 
L 382.759871 316.014125 
L 388.018286 314.365835 
L 393.276701 311.092802 
L 398.535116 304.12289 
L 403.793531 285.591399 
" clip-path="url(#p5b510919fe)" style="fill: none; stroke: #9a9a9a; stroke-width: 1.5; stroke-linecap: square"/>
   </g>
   <g id="line2d_21">
    <path d="M 72.513382 72.867801 
L 77.771797 87.820138 
L 83.030213 90.881262 
L 88.288628 93.377232 
L 93.547043 95.096175 
L 98.805458 94.248481 
L 104.063873 98.369208 
L 109.322288 97.121214 
L 114.580703 98.039539 
L 119.839118 98.039539 
L 125.097533 99.617185 
L 130.355948 101.995431 
L 135.614363 103.031497 
L 140.872778 104.161767 
L 146.131193 108.91826 
L 151.389608 114.899192 
L 156.648023 307.207546 
L 161.906438 313.235579 
L 167.164853 315.802202 
L 172.423268 317.003099 
L 177.681684 317.167928 
L 182.940099 317.30921 
L 188.198514 317.638868 
L 193.456929 317.874338 
L 198.715344 317.874338 
L 203.973759 317.968526 
L 209.232174 318.01562 
L 214.490589 317.685962 
L 219.749004 317.521133 
L 225.007419 317.921432 
L 230.265834 317.944979 
L 235.524249 318.039167 
L 240.782664 302.074301 
L 246.041079 301.29725 
L 251.299494 303.840326 
L 256.557909 307.066265 
L 261.816324 307.866863 
L 267.074739 309.326776 
L 272.333154 310.457033 
L 277.59157 311.728571 
L 282.849985 311.563742 
L 288.1084 311.987588 
L 293.366815 313.000109 
L 298.62523 313.518143 
L 303.883645 313.54169 
L 309.14206 314.318741 
L 314.400475 313.918442 
L 319.65889 313.753613 
L 324.917305 316.979552 
L 330.17572 317.144381 
L 335.434135 317.521133 
L 340.69255 317.403398 
L 345.950965 317.238569 
L 351.20938 317.097287 
L 356.467795 316.956005 
L 361.72621 316.885364 
L 366.984625 316.861817 
L 372.243041 316.296689 
L 377.501456 315.849296 
L 382.759871 315.260621 
L 388.018286 313.259126 
L 393.276701 309.868358 
L 398.535116 301.29725 
L 403.793531 282.200633 
" clip-path="url(#p5b510919fe)" style="fill: none; stroke: #888888; stroke-width: 1.5; stroke-linecap: square"/>
   </g>
   <g id="line2d_22">
    <path d="M 72.513382 74.822191 
L 77.771797 87.843694 
L 83.030213 93.895274 
L 88.288628 96.556079 
L 93.547043 96.697358 
L 98.805458 98.651767 
L 104.063873 100.770992 
L 109.322288 100.252968 
L 114.580703 103.102146 
L 119.839118 100.770992 
L 125.097533 102.348638 
L 130.355948 104.938813 
L 135.614363 106.328086 
L 140.872778 108.258939 
L 146.131193 110.660741 
L 151.389608 117.771925 
L 156.648023 307.631393 
L 161.906438 313.000109 
L 167.164853 315.18998 
L 172.423268 316.084766 
L 177.681684 316.084766 
L 182.940099 316.649894 
L 188.198514 316.508612 
L 193.456929 316.885364 
L 198.715344 316.908911 
L 203.973759 317.356304 
L 209.232174 317.191475 
L 214.490589 317.120834 
L 219.749004 316.720535 
L 225.007419 316.814723 
L 230.265834 317.191475 
L 235.524249 317.167928 
L 240.782664 300.378916 
L 246.041079 299.955071 
L 251.299494 301.014686 
L 256.557909 303.910967 
L 261.816324 305.182505 
L 267.074739 307.089811 
L 272.333154 308.714555 
L 277.59157 309.585794 
L 282.849985 310.221563 
L 288.1084 310.315751 
L 293.366815 311.257631 
L 298.62523 311.351819 
L 303.883645 311.752118 
L 309.14206 311.8934 
L 314.400475 311.869853 
L 319.65889 312.152417 
L 324.917305 315.943484 
L 330.17572 316.249595 
L 335.434135 316.6028 
L 340.69255 317.07374 
L 345.950965 316.696988 
L 351.20938 316.437971 
L 356.467795 316.343783 
L 361.72621 316.108313 
L 366.984625 315.849296 
L 372.243041 315.378356 
L 377.501456 315.025151 
L 382.759871 314.412929 
L 388.018286 312.693998 
L 393.276701 309.444511 
L 398.535116 300.025711 
L 403.793531 279.186614 
" clip-path="url(#p5b510919fe)" style="fill: none; stroke: #757575; stroke-width: 1.5; stroke-linecap: square"/>
   </g>
   <g id="line2d_23">
    <path d="M 72.513382 80.026078 
L 77.771797 93.377232 
L 83.030213 98.369208 
L 88.288628 99.970392 
L 93.547043 103.196332 
L 98.805458 103.926284 
L 104.063873 104.420771 
L 109.322288 105.715858 
L 114.580703 106.398734 
L 119.839118 105.880692 
L 125.097533 107.552525 
L 130.355948 109.012446 
L 135.614363 109.601119 
L 140.872778 110.943299 
L 146.131193 112.615132 
L 151.389608 120.432748 
L 156.648023 308.055239 
L 161.906438 312.693998 
L 167.164853 314.460023 
L 172.423268 315.142886 
L 177.681684 315.378356 
L 182.940099 315.849296 
L 188.198514 315.66092 
L 193.456929 315.990578 
L 198.715344 316.320236 
L 203.973759 316.437971 
L 209.232174 315.990578 
L 214.490589 316.296689 
L 219.749004 316.461518 
L 225.007419 316.649894 
L 230.265834 316.791176 
L 235.524249 316.508612 
L 240.782664 299.154472 
L 246.041079 298.047764 
L 251.299494 300.025711 
L 256.557909 302.592335 
L 261.816324 303.510667 
L 267.074739 305.865367 
L 272.333154 305.912461 
L 277.59157 307.466564 
L 282.849985 307.725581 
L 288.1084 309.373871 
L 293.366815 308.808743 
L 298.62523 309.515153 
L 303.883645 310.339298 
L 309.14206 310.150922 
L 314.400475 310.621862 
L 319.65889 310.904426 
L 324.917305 315.025151 
L 330.17572 315.331262 
L 335.434135 315.519638 
L 340.69255 315.66092 
L 345.950965 315.354809 
L 351.20938 315.825749 
L 356.467795 315.213527 
L 361.72621 315.42545 
L 366.984625 315.119339 
L 372.243041 314.813228 
L 377.501456 314.201006 
L 382.759871 313.353314 
L 388.018286 311.540195 
L 393.276701 307.089811 
L 398.535116 298.495156 
L 403.793531 271.722219 
" clip-path="url(#p5b510919fe)" style="fill: none; stroke: #636363; stroke-width: 1.5; stroke-linecap: square"/>
   </g>
   <g id="line2d_24">
    <path d="M 72.513382 83.817153 
L 77.771797 98.887232 
L 83.030213 104.797533 
L 88.288628 108.094104 
L 93.547043 108.094104 
L 98.805458 109.601119 
L 104.063873 113.015432 
L 109.322288 112.002921 
L 114.580703 114.239871 
L 119.839118 112.191294 
L 125.097533 114.02796 
L 130.355948 115.464327 
L 135.614363 115.582051 
L 140.872778 118.407691 
L 146.131193 119.773426 
L 151.389608 125.801451 
L 156.648023 308.384896 
L 161.906438 312.623357 
L 167.164853 314.201006 
L 172.423268 314.083271 
L 177.681684 314.342288 
L 182.940099 314.695493 
L 188.198514 314.742587 
L 193.456929 315.142886 
L 198.715344 315.048698 
L 203.973759 314.695493 
L 209.232174 314.883869 
L 214.490589 314.95451 
L 219.749004 314.930963 
L 225.007419 315.072245 
L 230.265834 315.237074 
L 235.524249 315.213527 
L 240.782664 295.457595 
L 246.041079 294.845371 
L 251.299494 294.939559 
L 256.557909 298.565798 
L 261.816324 300.119899 
L 267.074739 302.121395 
L 272.333154 303.157462 
L 277.59157 304.546736 
L 282.849985 304.688017 
L 288.1084 306.124385 
L 293.366815 306.524684 
L 298.62523 307.042718 
L 303.883645 308.337803 
L 309.14206 308.337803 
L 314.400475 308.172974 
L 319.65889 309.515153 
L 324.917305 313.54169 
L 330.17572 313.824254 
L 335.434135 314.412929 
L 340.69255 314.271647 
L 345.950965 314.554211 
L 351.20938 315.048698 
L 356.467795 314.365835 
L 361.72621 313.612331 
L 366.984625 313.706519 
L 372.243041 313.141391 
L 377.501456 312.882374 
L 382.759871 311.540195 
L 388.018286 309.373871 
L 393.276701 306.124385 
L 398.535116 295.645969 
L 403.793531 261.220255 
" clip-path="url(#p5b510919fe)" style="fill: none; stroke: #505050; stroke-width: 1.5; stroke-linecap: square"/>
   </g>
   <g id="line2d_25">
    <path d="M 72.513382 91.728938 
L 77.771797 104.773978 
L 83.030213 113.557012 
L 88.288628 116.429745 
L 93.547043 118.666712 
L 98.805458 118.596081 
L 104.063873 120.927234 
L 109.322288 122.787439 
L 114.580703 121.939745 
L 119.839118 121.892652 
L 125.097533 124.247361 
L 130.355948 123.564484 
L 135.614363 124.294454 
L 140.872778 126.036917 
L 146.131193 129.545433 
L 151.389608 133.925163 
L 156.648023 307.089811 
L 161.906438 311.18699 
L 167.164853 312.034682 
L 172.423268 312.034682 
L 177.681684 312.576263 
L 182.940099 313.094297 
L 188.198514 312.83528 
L 193.456929 313.117844 
L 198.715344 312.882374 
L 203.973759 313.400408 
L 209.232174 312.764639 
L 214.490589 312.505622 
L 219.749004 313.023656 
L 225.007419 313.047203 
L 230.265834 313.329767 
L 235.524249 313.282673 
L 240.782664 291.030758 
L 246.041079 290.630458 
L 251.299494 291.949091 
L 256.557909 293.879944 
L 261.816324 295.33986 
L 267.074739 298.000669 
L 272.333154 298.801268 
L 277.59157 299.955071 
L 282.849985 299.931524 
L 288.1084 300.190541 
L 293.366815 300.967592 
L 298.62523 301.980112 
L 303.883645 303.016181 
L 309.14206 303.487121 
L 314.400475 304.546736 
L 319.65889 303.675497 
L 324.917305 311.257631 
L 330.17572 312.12887 
L 335.434135 311.916947 
L 340.69255 312.741092 
L 345.950965 312.741092 
L 351.20938 312.223058 
L 356.467795 312.175964 
L 361.72621 312.034682 
L 366.984625 312.12887 
L 372.243041 311.139896 
L 377.501456 310.24511 
L 382.759871 308.902931 
L 388.018286 306.00665 
L 393.276701 301.556267 
L 398.535116 288.275758 
L 403.793531 249.658679 
" clip-path="url(#p5b510919fe)" style="fill: none; stroke: #3e3e3e; stroke-width: 1.5; stroke-linecap: square"/>
   </g>
   <g id="line2d_26">
    <path d="M 72.513382 109.671768 
L 77.771797 126.413679 
L 83.030213 131.570472 
L 88.288628 136.374058 
L 93.547043 138.91714 
L 98.805458 139.92965 
L 104.063873 143.202684 
L 109.322288 144.050377 
L 114.580703 146.287345 
L 119.839118 145.227723 
L 125.097533 147.276318 
L 130.355948 146.499272 
L 135.614363 147.888546 
L 140.872778 148.689146 
L 146.131193 150.596444 
L 151.389608 156.836397 
L 156.648023 303.910967 
L 161.906438 307.160453 
L 167.164853 308.691008 
L 172.423268 308.078786 
L 177.681684 308.808743 
L 182.940099 308.267161 
L 188.198514 308.36135 
L 193.456929 308.267161 
L 198.715344 308.926478 
L 203.973759 308.290709 
L 209.232174 308.526179 
L 214.490589 308.855836 
L 219.749004 309.020666 
L 225.007419 309.232589 
L 230.265834 308.997119 
L 235.524249 308.902931 
L 240.782664 284.366956 
L 246.041079 285.308836 
L 251.299494 285.026273 
L 256.557909 286.297811 
L 261.816324 285.52076 
L 267.074739 288.275758 
L 272.333154 288.110929 
L 277.59157 289.358921 
L 282.849985 291.054304 
L 288.1084 290.654006 
L 293.366815 290.771741 
L 298.62523 292.867422 
L 303.883645 292.961611 
L 309.14206 292.938064 
L 314.400475 294.539261 
L 319.65889 295.245671 
L 324.917305 306.218573 
L 330.17572 307.631393 
L 335.434135 308.337803 
L 340.69255 308.314256 
L 345.950965 307.913956 
L 351.20938 307.089811 
L 356.467795 307.725581 
L 361.72621 307.301735 
L 366.984625 306.289214 
L 372.243041 305.794726 
L 377.501456 304.264171 
L 382.759871 303.581309 
L 388.018286 300.331822 
L 393.276701 292.490671 
L 398.535116 275.678115 
L 403.793531 229.455349 
" clip-path="url(#p5b510919fe)" style="fill: none; stroke: #2b2b2b; stroke-width: 1.5; stroke-linecap: square"/>
   </g>
   <g id="line2d_27">
    <path d="M 72.513382 236.472355 
L 77.771797 251.895642 
L 83.030213 259.571965 
L 88.288628 265.152605 
L 93.547043 270.191661 
L 98.805458 272.004782 
L 104.063873 273.276318 
L 109.322288 275.489738 
L 114.580703 274.877515 
L 119.839118 274.853968 
L 125.097533 274.383028 
L 130.355948 275.795848 
L 135.614363 274.218198 
L 140.872778 271.769312 
L 146.131193 269.273328 
L 151.389608 264.328458 
L 156.648023 276.549351 
L 161.906438 276.337428 
L 167.164853 278.621488 
L 172.423268 280.952641 
L 177.681684 277.444138 
L 182.940099 278.315378 
L 188.198514 278.880505 
L 193.456929 278.974695 
L 198.715344 280.010761 
L 203.973759 279.186614 
L 209.232174 279.492728 
L 214.490589 277.750248 
L 219.749004 280.434608 
L 225.007419 279.492728 
L 230.265834 281.164565 
L 235.524249 280.622985 
L 240.782664 242.900689 
L 246.041079 238.52095 
L 251.299494 235.035989 
L 256.557909 231.197829 
L 261.816324 228.960862 
L 267.074739 227.807063 
L 272.333154 227.83061 
L 277.59157 228.937316 
L 282.849985 226.205862 
L 288.1084 224.53403 
L 293.366815 226.182315 
L 298.62523 225.146249 
L 303.883645 226.723895 
L 309.14206 227.28903 
L 314.400475 228.607655 
L 319.65889 231.12719 
L 324.917305 267.107005 
L 330.17572 272.805378 
L 335.434135 274.712684 
L 340.69255 276.596444 
L 345.950965 276.549351 
L 351.20938 277.090935 
L 356.467795 277.326405 
L 361.72621 275.819395 
L 366.984625 275.583925 
L 372.243041 273.582432 
L 377.501456 270.332945 
L 382.759871 268.519825 
L 388.018286 259.477775 
L 393.276701 248.504876 
L 398.535116 218.176336 
L 403.793531 150.360979 
" clip-path="url(#p5b510919fe)" style="fill: none; stroke: #191919; stroke-width: 1.5; stroke-linecap: square"/>
   </g>
   <g id="line2d_28">
    <path d="M 154.018816 331.5575 
L 154.018816 54.3575 
" clip-path="url(#p5b510919fe)" style="fill: none; stroke-dasharray: 5.55,2.4; stroke-dashoffset: 0; stroke: #ff0000; stroke-opacity: 0.7; stroke-width: 1.5"/>
   </g>
   <g id="line2d_29">
    <path d="M 238.153457 331.5575 
L 238.153457 54.3575 
" clip-path="url(#p5b510919fe)" style="fill: none; stroke-dasharray: 5.55,2.4; stroke-dashoffset: 0; stroke: #ff0000; stroke-opacity: 0.7; stroke-width: 1.5"/>
   </g>
   <g id="line2d_30">
    <path d="M 322.288098 331.5575 
L 322.288098 54.3575 
" clip-path="url(#p5b510919fe)" style="fill: none; stroke-dasharray: 1.5,2.475; stroke-dashoffset: 0; stroke: #0000ff; stroke-opacity: 0.7; stroke-width: 1.5"/>
   </g>
   <g id="patch_3">
    <path d="M 55.949375 331.5575 
L 55.949375 54.3575 
" style="fill: none; stroke: #000000; stroke-width: 0.8; stroke-linejoin: miter; stroke-linecap: square"/>
   </g>
   <g id="patch_4">
    <path d="M 55.949375 331.5575 
L 420.357538 331.5575 
" style="fill: none; stroke: #000000; stroke-width: 0.8; stroke-linejoin: miter; stroke-linecap: square"/>
   </g>
   <g id="text_15">
    <!-- Film -->
    <g transform="translate(99.897589 46.733812) scale(0.1 -0.1)">
     <defs>
      <path id="DejaVuSans-Bold-46" d="M 588 4666 
L 3834 4666 
L 3834 3756 
L 1791 3756 
L 1791 2888 
L 3713 2888 
L 3713 1978 
L 1791 1978 
L 1791 0 
L 588 0 
L 588 4666 
z
" transform="scale(0.015625)"/>
      <path id="DejaVuSans-Bold-69" d="M 538 3500 
L 1656 3500 
L 1656 0 
L 538 0 
L 538 3500 
z
M 538 4863 
L 1656 4863 
L 1656 3950 
L 538 3950 
L 538 4863 
z
" transform="scale(0.015625)"/>
      <path id="DejaVuSans-Bold-6c" d="M 538 4863 
L 1656 4863 
L 1656 0 
L 538 0 
L 538 4863 
z
" transform="scale(0.015625)"/>
      <path id="DejaVuSans-Bold-6d" d="M 3781 2919 
Q 3994 3244 4286 3414 
Q 4578 3584 4928 3584 
Q 5531 3584 5847 3212 
Q 6163 2841 6163 2131 
L 6163 0 
L 5038 0 
L 5038 1825 
Q 5041 1866 5042 1909 
Q 5044 1953 5044 2034 
Q 5044 2406 4934 2573 
Q 4825 2741 4581 2741 
Q 4263 2741 4089 2478 
Q 3916 2216 3909 1719 
L 3909 0 
L 2784 0 
L 2784 1825 
Q 2784 2406 2684 2573 
Q 2584 2741 2328 2741 
Q 2006 2741 1831 2477 
Q 1656 2213 1656 1722 
L 1656 0 
L 531 0 
L 531 3500 
L 1656 3500 
L 1656 2988 
Q 1863 3284 2130 3434 
Q 2397 3584 2719 3584 
Q 3081 3584 3359 3409 
Q 3638 3234 3781 2919 
z
" transform="scale(0.015625)"/>
     </defs>
     <use xlink:href="#DejaVuSans-Bold-46"/>
     <use xlink:href="#DejaVuSans-Bold-69" transform="translate(68.310547 0)"/>
     <use xlink:href="#DejaVuSans-Bold-6c" transform="translate(102.587891 0)"/>
     <use xlink:href="#DejaVuSans-Bold-6d" transform="translate(136.865234 0)"/>
    </g>
   </g>
   <g id="text_16">
    <!-- Break -->
    <g style="fill: #808080" transform="translate(179.718949 46.733812) scale(0.1 -0.1)">
     <defs>
      <path id="DejaVuSans-Bold-42" d="M 2456 2859 
Q 2741 2859 2887 2984 
Q 3034 3109 3034 3353 
Q 3034 3594 2887 3720 
Q 2741 3847 2456 3847 
L 1791 3847 
L 1791 2859 
L 2456 2859 
z
M 2497 819 
Q 2859 819 3042 972 
Q 3225 1125 3225 1434 
Q 3225 1738 3044 1889 
Q 2863 2041 2497 2041 
L 1791 2041 
L 1791 819 
L 2497 819 
z
M 3616 2497 
Q 4003 2384 4215 2081 
Q 4428 1778 4428 1338 
Q 4428 663 3972 331 
Q 3516 0 2584 0 
L 588 0 
L 588 4666 
L 2394 4666 
Q 3366 4666 3802 4372 
Q 4238 4078 4238 3431 
Q 4238 3091 4078 2852 
Q 3919 2613 3616 2497 
z
" transform="scale(0.015625)"/>
      <path id="DejaVuSans-Bold-72" d="M 3138 2547 
Q 2991 2616 2845 2648 
Q 2700 2681 2553 2681 
Q 2122 2681 1889 2404 
Q 1656 2128 1656 1613 
L 1656 0 
L 538 0 
L 538 3500 
L 1656 3500 
L 1656 2925 
Q 1872 3269 2151 3426 
Q 2431 3584 2822 3584 
Q 2878 3584 2943 3579 
Q 3009 3575 3134 3559 
L 3138 2547 
z
" transform="scale(0.015625)"/>
      <path id="DejaVuSans-Bold-65" d="M 4031 1759 
L 4031 1441 
L 1416 1441 
Q 1456 1047 1700 850 
Q 1944 653 2381 653 
Q 2734 653 3104 758 
Q 3475 863 3866 1075 
L 3866 213 
Q 3469 63 3072 -14 
Q 2675 -91 2278 -91 
Q 1328 -91 801 392 
Q 275 875 275 1747 
Q 275 2603 792 3093 
Q 1309 3584 2216 3584 
Q 3041 3584 3536 3087 
Q 4031 2591 4031 1759 
z
M 2881 2131 
Q 2881 2450 2695 2645 
Q 2509 2841 2209 2841 
Q 1884 2841 1681 2658 
Q 1478 2475 1428 2131 
L 2881 2131 
z
" transform="scale(0.015625)"/>
      <path id="DejaVuSans-Bold-61" d="M 2106 1575 
Q 1756 1575 1579 1456 
Q 1403 1338 1403 1106 
Q 1403 894 1545 773 
Q 1688 653 1941 653 
Q 2256 653 2472 879 
Q 2688 1106 2688 1447 
L 2688 1575 
L 2106 1575 
z
M 3816 1997 
L 3816 0 
L 2688 0 
L 2688 519 
Q 2463 200 2181 54 
Q 1900 -91 1497 -91 
Q 953 -91 614 226 
Q 275 544 275 1050 
Q 275 1666 698 1953 
Q 1122 2241 2028 2241 
L 2688 2241 
L 2688 2328 
Q 2688 2594 2478 2717 
Q 2269 2841 1825 2841 
Q 1466 2841 1156 2769 
Q 847 2697 581 2553 
L 581 3406 
Q 941 3494 1303 3539 
Q 1666 3584 2028 3584 
Q 2975 3584 3395 3211 
Q 3816 2838 3816 1997 
z
" transform="scale(0.015625)"/>
      <path id="DejaVuSans-Bold-6b" d="M 538 4863 
L 1656 4863 
L 1656 2216 
L 2944 3500 
L 4244 3500 
L 2534 1894 
L 4378 0 
L 3022 0 
L 1656 1459 
L 1656 0 
L 538 0 
L 538 4863 
z
" transform="scale(0.015625)"/>
     </defs>
     <use xlink:href="#DejaVuSans-Bold-42"/>
     <use xlink:href="#DejaVuSans-Bold-72" transform="translate(76.220703 0)"/>
     <use xlink:href="#DejaVuSans-Bold-65" transform="translate(125.537109 0)"/>
     <use xlink:href="#DejaVuSans-Bold-61" transform="translate(193.359375 0)"/>
     <use xlink:href="#DejaVuSans-Bold-6b" transform="translate(260.839844 0)"/>
    </g>
   </g>
   <g id="text_17">
    <!-- Interference -->
    <g style="fill: #ff0000" transform="translate(245.21609 46.733812) scale(0.1 -0.1)">
     <defs>
      <path id="DejaVuSans-Bold-49" d="M 588 4666 
L 1791 4666 
L 1791 0 
L 588 0 
L 588 4666 
z
" transform="scale(0.015625)"/>
      <path id="DejaVuSans-Bold-6e" d="M 4056 2131 
L 4056 0 
L 2931 0 
L 2931 347 
L 2931 1631 
Q 2931 2084 2911 2256 
Q 2891 2428 2841 2509 
Q 2775 2619 2662 2680 
Q 2550 2741 2406 2741 
Q 2056 2741 1856 2470 
Q 1656 2200 1656 1722 
L 1656 0 
L 538 0 
L 538 3500 
L 1656 3500 
L 1656 2988 
Q 1909 3294 2193 3439 
Q 2478 3584 2822 3584 
Q 3428 3584 3742 3212 
Q 4056 2841 4056 2131 
z
" transform="scale(0.015625)"/>
      <path id="DejaVuSans-Bold-74" d="M 1759 4494 
L 1759 3500 
L 2913 3500 
L 2913 2700 
L 1759 2700 
L 1759 1216 
Q 1759 972 1856 886 
Q 1953 800 2241 800 
L 2816 800 
L 2816 0 
L 1856 0 
Q 1194 0 917 276 
Q 641 553 641 1216 
L 641 2700 
L 84 2700 
L 84 3500 
L 641 3500 
L 641 4494 
L 1759 4494 
z
" transform="scale(0.015625)"/>
      <path id="DejaVuSans-Bold-66" d="M 2841 4863 
L 2841 4128 
L 2222 4128 
Q 1984 4128 1890 4042 
Q 1797 3956 1797 3744 
L 1797 3500 
L 2753 3500 
L 2753 2700 
L 1797 2700 
L 1797 0 
L 678 0 
L 678 2700 
L 122 2700 
L 122 3500 
L 678 3500 
L 678 3744 
Q 678 4316 997 4589 
Q 1316 4863 1984 4863 
L 2841 4863 
z
" transform="scale(0.015625)"/>
      <path id="DejaVuSans-Bold-63" d="M 3366 3391 
L 3366 2478 
Q 3138 2634 2908 2709 
Q 2678 2784 2431 2784 
Q 1963 2784 1702 2511 
Q 1441 2238 1441 1747 
Q 1441 1256 1702 982 
Q 1963 709 2431 709 
Q 2694 709 2930 787 
Q 3166 866 3366 1019 
L 3366 103 
Q 3103 6 2833 -42 
Q 2563 -91 2291 -91 
Q 1344 -91 809 395 
Q 275 881 275 1747 
Q 275 2613 809 3098 
Q 1344 3584 2291 3584 
Q 2566 3584 2833 3536 
Q 3100 3488 3366 3391 
z
" transform="scale(0.015625)"/>
     </defs>
     <use xlink:href="#DejaVuSans-Bold-49"/>
     <use xlink:href="#DejaVuSans-Bold-6e" transform="translate(37.207031 0)"/>
     <use xlink:href="#DejaVuSans-Bold-74" transform="translate(108.398438 0)"/>
     <use xlink:href="#DejaVuSans-Bold-65" transform="translate(156.201172 0)"/>
     <use xlink:href="#DejaVuSans-Bold-72" transform="translate(224.023438 0)"/>
     <use xlink:href="#DejaVuSans-Bold-66" transform="translate(273.339844 0)"/>
     <use xlink:href="#DejaVuSans-Bold-65" transform="translate(316.845703 0)"/>
     <use xlink:href="#DejaVuSans-Bold-72" transform="translate(384.667969 0)"/>
     <use xlink:href="#DejaVuSans-Bold-65" transform="translate(433.984375 0)"/>
     <use xlink:href="#DejaVuSans-Bold-6e" transform="translate(501.806641 0)"/>
     <use xlink:href="#DejaVuSans-Bold-63" transform="translate(572.998047 0)"/>
     <use xlink:href="#DejaVuSans-Bold-65" transform="translate(632.275391 0)"/>
    </g>
   </g>
   <g id="text_18">
    <!-- Filler -->
    <g style="fill: #0000ff" transform="translate(349.940574 46.733812) scale(0.1 -0.1)">
     <use xlink:href="#DejaVuSans-Bold-46"/>
     <use xlink:href="#DejaVuSans-Bold-69" transform="translate(68.310547 0)"/>
     <use xlink:href="#DejaVuSans-Bold-6c" transform="translate(102.587891 0)"/>
     <use xlink:href="#DejaVuSans-Bold-6c" transform="translate(136.865234 0)"/>
     <use xlink:href="#DejaVuSans-Bold-65" transform="translate(171.142578 0)"/>
     <use xlink:href="#DejaVuSans-Bold-72" transform="translate(238.964844 0)"/>
    </g>
   </g>
   <g id="text_19">
    <g clip-path="url(#p5b510919fe)">
     <!-- Reminder -->
     <g transform="translate(236.073769 111.243812) rotate(-90) scale(0.1 -0.1)">
      <defs>
       <path id="DejaVuSans-Oblique-52" d="M 1613 4147 
L 1294 2491 
L 2106 2491 
Q 2584 2491 2879 2755 
Q 3175 3019 3175 3444 
Q 3175 3784 2976 3965 
Q 2778 4147 2406 4147 
L 1613 4147 
z
M 2772 2241 
Q 2972 2194 3105 2009 
Q 3238 1825 3413 1275 
L 3809 0 
L 3144 0 
L 2778 1197 
Q 2638 1659 2453 1815 
Q 2269 1972 1888 1972 
L 1191 1972 
L 806 0 
L 172 0 
L 1081 4666 
L 2503 4666 
Q 3150 4666 3495 4373 
Q 3841 4081 3841 3531 
Q 3841 3044 3547 2687 
Q 3253 2331 2772 2241 
z
" transform="scale(0.015625)"/>
       <path id="DejaVuSans-Oblique-65" d="M 3078 2063 
Q 3088 2113 3092 2166 
Q 3097 2219 3097 2272 
Q 3097 2653 2873 2875 
Q 2650 3097 2266 3097 
Q 1838 3097 1509 2826 
Q 1181 2556 1013 2059 
L 3078 2063 
z
M 3578 1613 
L 903 1613 
Q 884 1494 878 1425 
Q 872 1356 872 1306 
Q 872 872 1139 634 
Q 1406 397 1894 397 
Q 2269 397 2603 481 
Q 2938 566 3225 728 
L 3116 159 
Q 2806 34 2476 -28 
Q 2147 -91 1806 -91 
Q 1078 -91 686 257 
Q 294 606 294 1247 
Q 294 1794 489 2264 
Q 684 2734 1063 3103 
Q 1306 3334 1642 3459 
Q 1978 3584 2356 3584 
Q 2950 3584 3301 3228 
Q 3653 2872 3653 2272 
Q 3653 2128 3634 1964 
Q 3616 1800 3578 1613 
z
" transform="scale(0.015625)"/>
       <path id="DejaVuSans-Oblique-6d" d="M 5747 2113 
L 5338 0 
L 4763 0 
L 5166 2094 
Q 5191 2228 5203 2325 
Q 5216 2422 5216 2491 
Q 5216 2772 5059 2928 
Q 4903 3084 4622 3084 
Q 4203 3084 3875 2770 
Q 3547 2456 3450 1953 
L 3066 0 
L 2491 0 
L 2900 2094 
Q 2925 2209 2937 2307 
Q 2950 2406 2950 2484 
Q 2950 2769 2794 2926 
Q 2638 3084 2363 3084 
Q 1938 3084 1609 2770 
Q 1281 2456 1184 1953 
L 800 0 
L 225 0 
L 909 3500 
L 1484 3500 
L 1375 2956 
Q 1609 3263 1923 3423 
Q 2238 3584 2597 3584 
Q 2978 3584 3223 3384 
Q 3469 3184 3519 2828 
Q 3781 3197 4126 3390 
Q 4472 3584 4856 3584 
Q 5306 3584 5551 3325 
Q 5797 3066 5797 2591 
Q 5797 2488 5784 2364 
Q 5772 2241 5747 2113 
z
" transform="scale(0.015625)"/>
       <path id="DejaVuSans-Oblique-69" d="M 1172 4863 
L 1747 4863 
L 1606 4134 
L 1031 4134 
L 1172 4863 
z
M 909 3500 
L 1484 3500 
L 800 0 
L 225 0 
L 909 3500 
z
" transform="scale(0.015625)"/>
       <path id="DejaVuSans-Oblique-6e" d="M 3566 2113 
L 3156 0 
L 2578 0 
L 2988 2091 
Q 3016 2238 3031 2350 
Q 3047 2463 3047 2528 
Q 3047 2791 2881 2937 
Q 2716 3084 2419 3084 
Q 1956 3084 1622 2776 
Q 1288 2469 1184 1941 
L 800 0 
L 225 0 
L 903 3500 
L 1478 3500 
L 1363 2950 
Q 1603 3253 1940 3418 
Q 2278 3584 2650 3584 
Q 3113 3584 3367 3334 
Q 3622 3084 3622 2631 
Q 3622 2519 3608 2391 
Q 3594 2263 3566 2113 
z
" transform="scale(0.015625)"/>
       <path id="DejaVuSans-Oblique-64" d="M 2675 525 
Q 2444 222 2128 65 
Q 1813 -91 1428 -91 
Q 903 -91 598 267 
Q 294 625 294 1247 
Q 294 1766 478 2236 
Q 663 2706 1013 3078 
Q 1244 3325 1534 3454 
Q 1825 3584 2144 3584 
Q 2481 3584 2739 3421 
Q 2997 3259 3138 2956 
L 3513 4863 
L 4091 4863 
L 3144 0 
L 2566 0 
L 2675 525 
z
M 891 1350 
Q 891 897 1095 644 
Q 1300 391 1663 391 
Q 1931 391 2161 520 
Q 2391 650 2566 903 
Q 2750 1166 2856 1509 
Q 2963 1853 2963 2188 
Q 2963 2622 2758 2865 
Q 2553 3109 2194 3109 
Q 1922 3109 1687 2981 
Q 1453 2853 1288 2613 
Q 1106 2353 998 2009 
Q 891 1666 891 1350 
z
" transform="scale(0.015625)"/>
       <path id="DejaVuSans-Oblique-72" d="M 2853 2969 
Q 2766 3016 2653 3041 
Q 2541 3066 2413 3066 
Q 1953 3066 1609 2717 
Q 1266 2369 1153 1784 
L 800 0 
L 225 0 
L 909 3500 
L 1484 3500 
L 1375 2956 
Q 1603 3259 1920 3421 
Q 2238 3584 2597 3584 
Q 2691 3584 2781 3573 
Q 2872 3563 2963 3538 
L 2853 2969 
z
" transform="scale(0.015625)"/>
      </defs>
      <use xlink:href="#DejaVuSans-Oblique-52"/>
      <use xlink:href="#DejaVuSans-Oblique-65" transform="translate(69.482422 0)"/>
      <use xlink:href="#DejaVuSans-Oblique-6d" transform="translate(131.005859 0)"/>
      <use xlink:href="#DejaVuSans-Oblique-69" transform="translate(228.417969 0)"/>
      <use xlink:href="#DejaVuSans-Oblique-6e" transform="translate(256.201172 0)"/>
      <use xlink:href="#DejaVuSans-Oblique-64" transform="translate(319.580078 0)"/>
      <use xlink:href="#DejaVuSans-Oblique-65" transform="translate(383.056641 0)"/>
      <use xlink:href="#DejaVuSans-Oblique-72" transform="translate(444.580078 0)"/>
     </g>
    </g>
   </g>
   <g id="text_20">
    <!-- SPC by Competitor Shared Support Scale -->
    <g transform="translate(73.872207 19.3575) scale(0.16 -0.16)">
     <defs>
      <path id="DejaVuSans-43" d="M 4122 4306 
L 4122 3641 
Q 3803 3938 3442 4084 
Q 3081 4231 2675 4231 
Q 1875 4231 1450 3742 
Q 1025 3253 1025 2328 
Q 1025 1406 1450 917 
Q 1875 428 2675 428 
Q 3081 428 3442 575 
Q 3803 722 4122 1019 
L 4122 359 
Q 3791 134 3420 21 
Q 3050 -91 2638 -91 
Q 1578 -91 968 557 
Q 359 1206 359 2328 
Q 359 3453 968 4101 
Q 1578 4750 2638 4750 
Q 3056 4750 3426 4639 
Q 3797 4528 4122 4306 
z
" transform="scale(0.015625)"/>
      <path id="DejaVuSans-6d" d="M 3328 2828 
Q 3544 3216 3844 3400 
Q 4144 3584 4550 3584 
Q 5097 3584 5394 3201 
Q 5691 2819 5691 2113 
L 5691 0 
L 5113 0 
L 5113 2094 
Q 5113 2597 4934 2840 
Q 4756 3084 4391 3084 
Q 3944 3084 3684 2787 
Q 3425 2491 3425 1978 
L 3425 0 
L 2847 0 
L 2847 2094 
Q 2847 2600 2669 2842 
Q 2491 3084 2119 3084 
Q 1678 3084 1418 2786 
Q 1159 2488 1159 1978 
L 1159 0 
L 581 0 
L 581 3500 
L 1159 3500 
L 1159 2956 
Q 1356 3278 1631 3431 
Q 1906 3584 2284 3584 
Q 2666 3584 2933 3390 
Q 3200 3197 3328 2828 
z
" transform="scale(0.015625)"/>
      <path id="DejaVuSans-70" d="M 1159 525 
L 1159 -1331 
L 581 -1331 
L 581 3500 
L 1159 3500 
L 1159 2969 
Q 1341 3281 1617 3432 
Q 1894 3584 2278 3584 
Q 2916 3584 3314 3078 
Q 3713 2572 3713 1747 
Q 3713 922 3314 415 
Q 2916 -91 2278 -91 
Q 1894 -91 1617 61 
Q 1341 213 1159 525 
z
M 3116 1747 
Q 3116 2381 2855 2742 
Q 2594 3103 2138 3103 
Q 1681 3103 1420 2742 
Q 1159 2381 1159 1747 
Q 1159 1113 1420 752 
Q 1681 391 2138 391 
Q 2594 391 2855 752 
Q 3116 1113 3116 1747 
z
" transform="scale(0.015625)"/>
      <path id="DejaVuSans-68" d="M 3513 2113 
L 3513 0 
L 2938 0 
L 2938 2094 
Q 2938 2591 2744 2837 
Q 2550 3084 2163 3084 
Q 1697 3084 1428 2787 
Q 1159 2491 1159 1978 
L 1159 0 
L 581 0 
L 581 4863 
L 1159 4863 
L 1159 2956 
Q 1366 3272 1645 3428 
Q 1925 3584 2291 3584 
Q 2894 3584 3203 3211 
Q 3513 2838 3513 2113 
z
" transform="scale(0.015625)"/>
     </defs>
     <use xlink:href="#DejaVuSans-53"/>
     <use xlink:href="#DejaVuSans-50" transform="translate(63.476562 0)"/>
     <use xlink:href="#DejaVuSans-43" transform="translate(123.779297 0)"/>
     <use xlink:href="#DejaVuSans-20" transform="translate(193.603516 0)"/>
     <use xlink:href="#DejaVuSans-62" transform="translate(225.390625 0)"/>
     <use xlink:href="#DejaVuSans-79" transform="translate(288.867188 0)"/>
     <use xlink:href="#DejaVuSans-20" transform="translate(348.046875 0)"/>
     <use xlink:href="#DejaVuSans-43" transform="translate(379.833984 0)"/>
     <use xlink:href="#DejaVuSans-6f" transform="translate(449.658203 0)"/>
     <use xlink:href="#DejaVuSans-6d" transform="translate(510.839844 0)"/>
     <use xlink:href="#DejaVuSans-70" transform="translate(608.251953 0)"/>
     <use xlink:href="#DejaVuSans-65" transform="translate(671.728516 0)"/>
     <use xlink:href="#DejaVuSans-74" transform="translate(733.251953 0)"/>
     <use xlink:href="#DejaVuSans-69" transform="translate(772.460938 0)"/>
     <use xlink:href="#DejaVuSans-74" transform="translate(800.244141 0)"/>
     <use xlink:href="#DejaVuSans-6f" transform="translate(839.453125 0)"/>
     <use xlink:href="#DejaVuSans-72" transform="translate(900.634766 0)"/>
     <use xlink:href="#DejaVuSans-20" transform="translate(941.748047 0)"/>
     <use xlink:href="#DejaVuSans-53" transform="translate(973.535156 0)"/>
     <use xlink:href="#DejaVuSans-68" transform="translate(1037.011719 0)"/>
     <use xlink:href="#DejaVuSans-61" transform="translate(1100.390625 0)"/>
     <use xlink:href="#DejaVuSans-72" transform="translate(1161.669922 0)"/>
     <use xlink:href="#DejaVuSans-65" transform="translate(1200.533203 0)"/>
     <use xlink:href="#DejaVuSans-64" transform="translate(1262.056641 0)"/>
     <use xlink:href="#DejaVuSans-20" transform="translate(1325.533203 0)"/>
     <use xlink:href="#DejaVuSans-53" transform="translate(1357.320312 0)"/>
     <use xlink:href="#DejaVuSans-75" transform="translate(1420.796875 0)"/>
     <use xlink:href="#DejaVuSans-70" transform="translate(1484.175781 0)"/>
     <use xlink:href="#DejaVuSans-70" transform="translate(1547.652344 0)"/>
     <use xlink:href="#DejaVuSans-6f" transform="translate(1611.128906 0)"/>
     <use xlink:href="#DejaVuSans-72" transform="translate(1672.310547 0)"/>
     <use xlink:href="#DejaVuSans-74" transform="translate(1713.423828 0)"/>
     <use xlink:href="#DejaVuSans-20" transform="translate(1752.632812 0)"/>
     <use xlink:href="#DejaVuSans-53" transform="translate(1784.419922 0)"/>
     <use xlink:href="#DejaVuSans-63" transform="translate(1847.896484 0)"/>
     <use xlink:href="#DejaVuSans-61" transform="translate(1902.876953 0)"/>
     <use xlink:href="#DejaVuSans-6c" transform="translate(1964.15625 0)"/>
     <use xlink:href="#DejaVuSans-65" transform="translate(1991.939453 0)"/>
    </g>
   </g>
   <g id="legend_1">
    <g id="patch_5">
     <path d="M 436.045702 240.095 
L 501.164452 240.095 
Q 503.564452 240.095 503.564452 237.695 
L 503.564452 62.7575 
Q 503.564452 60.3575 501.164452 60.3575 
L 436.045702 60.3575 
Q 433.645702 60.3575 433.645702 62.7575 
L 433.645702 237.695 
Q 433.645702 240.095 436.045702 240.095 
z
" style="fill: #ffffff; opacity: 0.8; stroke: #cccccc; stroke-linejoin: miter"/>
    </g>
    <g id="line2d_31">
     <path d="M 438.445702 70.075625 
L 450.445702 70.075625 
L 462.445702 70.075625 
" style="fill: none; stroke: #bfbfbf; stroke-width: 1.5; stroke-linecap: square"/>
    </g>
    <g id="text_21">
     <!-- 0.00 -->
     <g transform="translate(472.045702 74.275625) scale(0.12 -0.12)">
      <use xlink:href="#DejaVuSans-30"/>
      <use xlink:href="#DejaVuSans-2e" transform="translate(63.623047 0)"/>
      <use xlink:href="#DejaVuSans-30" transform="translate(95.410156 0)"/>
      <use xlink:href="#DejaVuSans-30" transform="translate(159.033203 0)"/>
     </g>
    </g>
    <g id="line2d_32">
     <path d="M 438.445702 87.689375 
L 450.445702 87.689375 
L 462.445702 87.689375 
" style="fill: none; stroke: #acacac; stroke-width: 1.5; stroke-linecap: square"/>
    </g>
    <g id="text_22">
     <!-- 0.11 -->
     <g transform="translate(472.045702 91.889375) scale(0.12 -0.12)">
      <use xlink:href="#DejaVuSans-30"/>
      <use xlink:href="#DejaVuSans-2e" transform="translate(63.623047 0)"/>
      <use xlink:href="#DejaVuSans-31" transform="translate(95.410156 0)"/>
      <use xlink:href="#DejaVuSans-31" transform="translate(159.033203 0)"/>
     </g>
    </g>
    <g id="line2d_33">
     <path d="M 438.445702 105.303125 
L 450.445702 105.303125 
L 462.445702 105.303125 
" style="fill: none; stroke: #9a9a9a; stroke-width: 1.5; stroke-linecap: square"/>
    </g>
    <g id="text_23">
     <!-- 0.22 -->
     <g transform="translate(472.045702 109.503125) scale(0.12 -0.12)">
      <use xlink:href="#DejaVuSans-30"/>
      <use xlink:href="#DejaVuSans-2e" transform="translate(63.623047 0)"/>
      <use xlink:href="#DejaVuSans-32" transform="translate(95.410156 0)"/>
      <use xlink:href="#DejaVuSans-32" transform="translate(159.033203 0)"/>
     </g>
    </g>
    <g id="line2d_34">
     <path d="M 438.445702 122.916875 
L 450.445702 122.916875 
L 462.445702 122.916875 
" style="fill: none; stroke: #888888; stroke-width: 1.5; stroke-linecap: square"/>
    </g>
    <g id="text_24">
     <!-- 0.33 -->
     <g transform="translate(472.045702 127.116875) scale(0.12 -0.12)">
      <use xlink:href="#DejaVuSans-30"/>
      <use xlink:href="#DejaVuSans-2e" transform="translate(63.623047 0)"/>
      <use xlink:href="#DejaVuSans-33" transform="translate(95.410156 0)"/>
      <use xlink:href="#DejaVuSans-33" transform="translate(159.033203 0)"/>
     </g>
    </g>
    <g id="line2d_35">
     <path d="M 438.445702 140.530625 
L 450.445702 140.530625 
L 462.445702 140.530625 
" style="fill: none; stroke: #757575; stroke-width: 1.5; stroke-linecap: square"/>
    </g>
    <g id="text_25">
     <!-- 0.44 -->
     <g transform="translate(472.045702 144.730625) scale(0.12 -0.12)">
      <use xlink:href="#DejaVuSans-30"/>
      <use xlink:href="#DejaVuSans-2e" transform="translate(63.623047 0)"/>
      <use xlink:href="#DejaVuSans-34" transform="translate(95.410156 0)"/>
      <use xlink:href="#DejaVuSans-34" transform="translate(159.033203 0)"/>
     </g>
    </g>
    <g id="line2d_36">
     <path d="M 438.445702 158.144375 
L 450.445702 158.144375 
L 462.445702 158.144375 
" style="fill: none; stroke: #636363; stroke-width: 1.5; stroke-linecap: square"/>
    </g>
    <g id="text_26">
     <!-- 0.56 -->
     <g transform="translate(472.045702 162.344375) scale(0.12 -0.12)">
      <use xlink:href="#DejaVuSans-30"/>
      <use xlink:href="#DejaVuSans-2e" transform="translate(63.623047 0)"/>
      <use xlink:href="#DejaVuSans-35" transform="translate(95.410156 0)"/>
      <use xlink:href="#DejaVuSans-36" transform="translate(159.033203 0)"/>
     </g>
    </g>
    <g id="line2d_37">
     <path d="M 438.445702 175.758125 
L 450.445702 175.758125 
L 462.445702 175.758125 
" style="fill: none; stroke: #505050; stroke-width: 1.5; stroke-linecap: square"/>
    </g>
    <g id="text_27">
     <!-- 0.67 -->
     <g transform="translate(472.045702 179.958125) scale(0.12 -0.12)">
      <defs>
       <path id="DejaVuSans-37" d="M 525 4666 
L 3525 4666 
L 3525 4397 
L 1831 0 
L 1172 0 
L 2766 4134 
L 525 4134 
L 525 4666 
z
" transform="scale(0.015625)"/>
      </defs>
      <use xlink:href="#DejaVuSans-30"/>
      <use xlink:href="#DejaVuSans-2e" transform="translate(63.623047 0)"/>
      <use xlink:href="#DejaVuSans-36" transform="translate(95.410156 0)"/>
      <use xlink:href="#DejaVuSans-37" transform="translate(159.033203 0)"/>
     </g>
    </g>
    <g id="line2d_38">
     <path d="M 438.445702 193.371875 
L 450.445702 193.371875 
L 462.445702 193.371875 
" style="fill: none; stroke: #3e3e3e; stroke-width: 1.5; stroke-linecap: square"/>
    </g>
    <g id="text_28">
     <!-- 0.78 -->
     <g transform="translate(472.045702 197.571875) scale(0.12 -0.12)">
      <use xlink:href="#DejaVuSans-30"/>
      <use xlink:href="#DejaVuSans-2e" transform="translate(63.623047 0)"/>
      <use xlink:href="#DejaVuSans-37" transform="translate(95.410156 0)"/>
      <use xlink:href="#DejaVuSans-38" transform="translate(159.033203 0)"/>
     </g>
    </g>
    <g id="line2d_39">
     <path d="M 438.445702 210.985625 
L 450.445702 210.985625 
L 462.445702 210.985625 
" style="fill: none; stroke: #2b2b2b; stroke-width: 1.5; stroke-linecap: square"/>
    </g>
    <g id="text_29">
     <!-- 0.89 -->
     <g transform="translate(472.045702 215.185625) scale(0.12 -0.12)">
      <defs>
       <path id="DejaVuSans-39" d="M 703 97 
L 703 672 
Q 941 559 1184 500 
Q 1428 441 1663 441 
Q 2288 441 2617 861 
Q 2947 1281 2994 2138 
Q 2813 1869 2534 1725 
Q 2256 1581 1919 1581 
Q 1219 1581 811 2004 
Q 403 2428 403 3163 
Q 403 3881 828 4315 
Q 1253 4750 1959 4750 
Q 2769 4750 3195 4129 
Q 3622 3509 3622 2328 
Q 3622 1225 3098 567 
Q 2575 -91 1691 -91 
Q 1453 -91 1209 -44 
Q 966 3 703 97 
z
M 1959 2075 
Q 2384 2075 2632 2365 
Q 2881 2656 2881 3163 
Q 2881 3666 2632 3958 
Q 2384 4250 1959 4250 
Q 1534 4250 1286 3958 
Q 1038 3666 1038 3163 
Q 1038 2656 1286 2365 
Q 1534 2075 1959 2075 
z
" transform="scale(0.015625)"/>
      </defs>
      <use xlink:href="#DejaVuSans-30"/>
      <use xlink:href="#DejaVuSans-2e" transform="translate(63.623047 0)"/>
      <use xlink:href="#DejaVuSans-38" transform="translate(95.410156 0)"/>
      <use xlink:href="#DejaVuSans-39" transform="translate(159.033203 0)"/>
     </g>
    </g>
    <g id="line2d_40">
     <path d="M 438.445702 228.599375 
L 450.445702 228.599375 
L 462.445702 228.599375 
" style="fill: none; stroke: #191919; stroke-width: 1.5; stroke-linecap: square"/>
    </g>
    <g id="text_30">
     <!-- 1.00 -->
     <g transform="translate(472.045702 232.799375) scale(0.12 -0.12)">
      <use xlink:href="#DejaVuSans-31"/>
      <use xlink:href="#DejaVuSans-2e" transform="translate(63.623047 0)"/>
      <use xlink:href="#DejaVuSans-30" transform="translate(95.410156 0)"/>
      <use xlink:href="#DejaVuSans-30" transform="translate(159.033203 0)"/>
     </g>
    </g>
   </g>
  </g>
  <g id="axes_2">
   <g id="patch_6">
    <path d="M 584.341212 331.5575 
L 948.749375 331.5575 
L 948.749375 54.3575 
L 584.341212 54.3575 
z
" style="fill: #ffffff"/>
   </g>
   <g id="FillBetweenPolyCollection_1">
    <defs>
     <path id="md8a6bd6cc3" d="M 600.905219 -311.834375 
L 600.905219 -293.739819 
L 637.714125 -292.193768 
L 674.52303 -290.53532 
L 711.331935 -286.359744 
L 748.140841 -281.521521 
L 784.949746 -275.002889 
L 821.758651 -264.998161 
L 858.567557 -251.700057 
L 895.376462 -220.374727 
L 932.185368 -59.834375 
L 932.185368 -68.990079 
L 932.185368 -68.990079 
L 895.376462 -253.339587 
L 858.567557 -281.057345 
L 821.758651 -291.463141 
L 784.949746 -298.899268 
L 748.140841 -303.927649 
L 711.331935 -306.788785 
L 674.52303 -309.770912 
L 637.714125 -310.403469 
L 600.905219 -311.834375 
z
" style="stroke: #000000; stroke-opacity: 0.25"/>
    </defs>
    <g clip-path="url(#p48f7777ffb)">
     <use xlink:href="#md8a6bd6cc3" x="0" y="378.791875" style="fill-opacity: 0.25; stroke: #000000; stroke-opacity: 0.25"/>
    </g>
   </g>
   <g id="matplotlib.axis_3">
    <g id="xtick_8">
     <g id="line2d_41">
      <g>
       <use xlink:href="#m7b8532b4e3" x="600.905219" y="331.5575" style="stroke: #000000; stroke-width: 0.8"/>
      </g>
     </g>
     <g id="text_31">
      <!-- 0.0 -->
      <g transform="translate(589.773032 349.195312) scale(0.14 -0.14)">
       <use xlink:href="#DejaVuSans-30"/>
       <use xlink:href="#DejaVuSans-2e" transform="translate(63.623047 0)"/>
       <use xlink:href="#DejaVuSans-30" transform="translate(95.410156 0)"/>
      </g>
     </g>
    </g>
    <g id="xtick_9">
     <g id="line2d_42">
      <g>
       <use xlink:href="#m7b8532b4e3" x="667.161249" y="331.5575" style="stroke: #000000; stroke-width: 0.8"/>
      </g>
     </g>
     <g id="text_32">
      <!-- 0.2 -->
      <g transform="translate(656.029061 349.195312) scale(0.14 -0.14)">
       <use xlink:href="#DejaVuSans-30"/>
       <use xlink:href="#DejaVuSans-2e" transform="translate(63.623047 0)"/>
       <use xlink:href="#DejaVuSans-32" transform="translate(95.410156 0)"/>
      </g>
     </g>
    </g>
    <g id="xtick_10">
     <g id="line2d_43">
      <g>
       <use xlink:href="#m7b8532b4e3" x="733.417279" y="331.5575" style="stroke: #000000; stroke-width: 0.8"/>
      </g>
     </g>
     <g id="text_33">
      <!-- 0.4 -->
      <g transform="translate(722.285091 349.195312) scale(0.14 -0.14)">
       <use xlink:href="#DejaVuSans-30"/>
       <use xlink:href="#DejaVuSans-2e" transform="translate(63.623047 0)"/>
       <use xlink:href="#DejaVuSans-34" transform="translate(95.410156 0)"/>
      </g>
     </g>
    </g>
    <g id="xtick_11">
     <g id="line2d_44">
      <g>
       <use xlink:href="#m7b8532b4e3" x="799.673308" y="331.5575" style="stroke: #000000; stroke-width: 0.8"/>
      </g>
     </g>
     <g id="text_34">
      <!-- 0.6 -->
      <g transform="translate(788.541121 349.195312) scale(0.14 -0.14)">
       <use xlink:href="#DejaVuSans-30"/>
       <use xlink:href="#DejaVuSans-2e" transform="translate(63.623047 0)"/>
       <use xlink:href="#DejaVuSans-36" transform="translate(95.410156 0)"/>
      </g>
     </g>
    </g>
    <g id="xtick_12">
     <g id="line2d_45">
      <g>
       <use xlink:href="#m7b8532b4e3" x="865.929338" y="331.5575" style="stroke: #000000; stroke-width: 0.8"/>
      </g>
     </g>
     <g id="text_35">
      <!-- 0.8 -->
      <g transform="translate(854.79715 349.195312) scale(0.14 -0.14)">
       <use xlink:href="#DejaVuSans-30"/>
       <use xlink:href="#DejaVuSans-2e" transform="translate(63.623047 0)"/>
       <use xlink:href="#DejaVuSans-38" transform="translate(95.410156 0)"/>
      </g>
     </g>
    </g>
    <g id="xtick_13">
     <g id="line2d_46">
      <g>
       <use xlink:href="#m7b8532b4e3" x="932.185368" y="331.5575" style="stroke: #000000; stroke-width: 0.8"/>
      </g>
     </g>
     <g id="text_36">
      <!-- 1.0 -->
      <g transform="translate(921.05318 349.195312) scale(0.14 -0.14)">
       <use xlink:href="#DejaVuSans-31"/>
       <use xlink:href="#DejaVuSans-2e" transform="translate(63.623047 0)"/>
       <use xlink:href="#DejaVuSans-30" transform="translate(95.410156 0)"/>
      </g>
     </g>
    </g>
    <g id="text_37">
     <!-- Competitor Shared Support Scale -->
     <g transform="translate(632.651543 368.264375) scale(0.16 -0.16)">
      <use xlink:href="#DejaVuSans-43"/>
      <use xlink:href="#DejaVuSans-6f" transform="translate(69.824219 0)"/>
      <use xlink:href="#DejaVuSans-6d" transform="translate(131.005859 0)"/>
      <use xlink:href="#DejaVuSans-70" transform="translate(228.417969 0)"/>
      <use xlink:href="#DejaVuSans-65" transform="translate(291.894531 0)"/>
      <use xlink:href="#DejaVuSans-74" transform="translate(353.417969 0)"/>
      <use xlink:href="#DejaVuSans-69" transform="translate(392.626953 0)"/>
      <use xlink:href="#DejaVuSans-74" transform="translate(420.410156 0)"/>
      <use xlink:href="#DejaVuSans-6f" transform="translate(459.619141 0)"/>
      <use xlink:href="#DejaVuSans-72" transform="translate(520.800781 0)"/>
      <use xlink:href="#DejaVuSans-20" transform="translate(561.914062 0)"/>
      <use xlink:href="#DejaVuSans-53" transform="translate(593.701172 0)"/>
      <use xlink:href="#DejaVuSans-68" transform="translate(657.177734 0)"/>
      <use xlink:href="#DejaVuSans-61" transform="translate(720.556641 0)"/>
      <use xlink:href="#DejaVuSans-72" transform="translate(781.835938 0)"/>
      <use xlink:href="#DejaVuSans-65" transform="translate(820.699219 0)"/>
      <use xlink:href="#DejaVuSans-64" transform="translate(882.222656 0)"/>
      <use xlink:href="#DejaVuSans-20" transform="translate(945.699219 0)"/>
      <use xlink:href="#DejaVuSans-53" transform="translate(977.486328 0)"/>
      <use xlink:href="#DejaVuSans-75" transform="translate(1040.962891 0)"/>
      <use xlink:href="#DejaVuSans-70" transform="translate(1104.341797 0)"/>
      <use xlink:href="#DejaVuSans-70" transform="translate(1167.818359 0)"/>
      <use xlink:href="#DejaVuSans-6f" transform="translate(1231.294922 0)"/>
      <use xlink:href="#DejaVuSans-72" transform="translate(1292.476562 0)"/>
      <use xlink:href="#DejaVuSans-74" transform="translate(1333.589844 0)"/>
      <use xlink:href="#DejaVuSans-20" transform="translate(1372.798828 0)"/>
      <use xlink:href="#DejaVuSans-53" transform="translate(1404.585938 0)"/>
      <use xlink:href="#DejaVuSans-63" transform="translate(1468.0625 0)"/>
      <use xlink:href="#DejaVuSans-61" transform="translate(1523.042969 0)"/>
      <use xlink:href="#DejaVuSans-6c" transform="translate(1584.322266 0)"/>
      <use xlink:href="#DejaVuSans-65" transform="translate(1612.105469 0)"/>
     </g>
    </g>
   </g>
   <g id="matplotlib.axis_4">
    <g id="ytick_6">
     <g id="line2d_47">
      <path d="M 584.341212 283.144931 
L 948.749375 283.144931 
" clip-path="url(#p48f7777ffb)" style="fill: none; stroke-dasharray: 1.85,0.8; stroke-dashoffset: 0; stroke: #b0b0b0; stroke-opacity: 0.3; stroke-width: 0.5"/>
     </g>
     <g id="line2d_48">
      <g>
       <use xlink:href="#m797a187da3" x="584.341212" y="283.144931" style="stroke: #000000; stroke-width: 0.8"/>
      </g>
     </g>
     <g id="text_38">
      <!-- 4 -->
      <g transform="translate(568.433712 288.463837) scale(0.14 -0.14)">
       <use xlink:href="#DejaVuSans-34"/>
      </g>
     </g>
    </g>
    <g id="ytick_7">
     <g id="line2d_49">
      <path d="M 584.341212 232.591627 
L 948.749375 232.591627 
" clip-path="url(#p48f7777ffb)" style="fill: none; stroke-dasharray: 1.85,0.8; stroke-dashoffset: 0; stroke: #b0b0b0; stroke-opacity: 0.3; stroke-width: 0.5"/>
     </g>
     <g id="line2d_50">
      <g>
       <use xlink:href="#m797a187da3" x="584.341212" y="232.591627" style="stroke: #000000; stroke-width: 0.8"/>
      </g>
     </g>
     <g id="text_39">
      <!-- 6 -->
      <g transform="translate(568.433712 237.910533) scale(0.14 -0.14)">
       <use xlink:href="#DejaVuSans-36"/>
      </g>
     </g>
    </g>
    <g id="ytick_8">
     <g id="line2d_51">
      <path d="M 584.341212 182.038324 
L 948.749375 182.038324 
" clip-path="url(#p48f7777ffb)" style="fill: none; stroke-dasharray: 1.85,0.8; stroke-dashoffset: 0; stroke: #b0b0b0; stroke-opacity: 0.3; stroke-width: 0.5"/>
     </g>
     <g id="line2d_52">
      <g>
       <use xlink:href="#m797a187da3" x="584.341212" y="182.038324" style="stroke: #000000; stroke-width: 0.8"/>
      </g>
     </g>
     <g id="text_40">
      <!-- 8 -->
      <g transform="translate(568.433712 187.35723) scale(0.14 -0.14)">
       <use xlink:href="#DejaVuSans-38"/>
      </g>
     </g>
    </g>
    <g id="ytick_9">
     <g id="line2d_53">
      <path d="M 584.341212 131.48502 
L 948.749375 131.48502 
" clip-path="url(#p48f7777ffb)" style="fill: none; stroke-dasharray: 1.85,0.8; stroke-dashoffset: 0; stroke: #b0b0b0; stroke-opacity: 0.3; stroke-width: 0.5"/>
     </g>
     <g id="line2d_54">
      <g>
       <use xlink:href="#m797a187da3" x="584.341212" y="131.48502" style="stroke: #000000; stroke-width: 0.8"/>
      </g>
     </g>
     <g id="text_41">
      <!-- 10 -->
      <g transform="translate(559.526212 136.803926) scale(0.14 -0.14)">
       <use xlink:href="#DejaVuSans-31"/>
       <use xlink:href="#DejaVuSans-30" transform="translate(63.623047 0)"/>
      </g>
     </g>
    </g>
    <g id="ytick_10">
     <g id="line2d_55">
      <path d="M 584.341212 80.931717 
L 948.749375 80.931717 
" clip-path="url(#p48f7777ffb)" style="fill: none; stroke-dasharray: 1.85,0.8; stroke-dashoffset: 0; stroke: #b0b0b0; stroke-opacity: 0.3; stroke-width: 0.5"/>
     </g>
     <g id="line2d_56">
      <g>
       <use xlink:href="#m797a187da3" x="584.341212" y="80.931717" style="stroke: #000000; stroke-width: 0.8"/>
      </g>
     </g>
     <g id="text_42">
      <!-- 12 -->
      <g transform="translate(559.526212 86.250623) scale(0.14 -0.14)">
       <use xlink:href="#DejaVuSans-31"/>
       <use xlink:href="#DejaVuSans-32" transform="translate(63.623047 0)"/>
      </g>
     </g>
    </g>
    <g id="text_43">
     <!-- Film Items Recalled -->
     <g transform="translate(552.198712 270.54875) rotate(-90) scale(0.16 -0.16)">
      <defs>
       <path id="DejaVuSans-46" d="M 628 4666 
L 3309 4666 
L 3309 4134 
L 1259 4134 
L 1259 2759 
L 3109 2759 
L 3109 2228 
L 1259 2228 
L 1259 0 
L 628 0 
L 628 4666 
z
" transform="scale(0.015625)"/>
       <path id="DejaVuSans-49" d="M 628 4666 
L 1259 4666 
L 1259 0 
L 628 0 
L 628 4666 
z
" transform="scale(0.015625)"/>
      </defs>
      <use xlink:href="#DejaVuSans-46"/>
      <use xlink:href="#DejaVuSans-69" transform="translate(50.269531 0)"/>
      <use xlink:href="#DejaVuSans-6c" transform="translate(78.052734 0)"/>
      <use xlink:href="#DejaVuSans-6d" transform="translate(105.835938 0)"/>
      <use xlink:href="#DejaVuSans-20" transform="translate(203.248047 0)"/>
      <use xlink:href="#DejaVuSans-49" transform="translate(235.035156 0)"/>
      <use xlink:href="#DejaVuSans-74" transform="translate(264.527344 0)"/>
      <use xlink:href="#DejaVuSans-65" transform="translate(303.736328 0)"/>
      <use xlink:href="#DejaVuSans-6d" transform="translate(365.259766 0)"/>
      <use xlink:href="#DejaVuSans-73" transform="translate(462.671875 0)"/>
      <use xlink:href="#DejaVuSans-20" transform="translate(514.771484 0)"/>
      <use xlink:href="#DejaVuSans-52" transform="translate(546.558594 0)"/>
      <use xlink:href="#DejaVuSans-65" transform="translate(611.541016 0)"/>
      <use xlink:href="#DejaVuSans-63" transform="translate(673.064453 0)"/>
      <use xlink:href="#DejaVuSans-61" transform="translate(728.044922 0)"/>
      <use xlink:href="#DejaVuSans-6c" transform="translate(789.324219 0)"/>
      <use xlink:href="#DejaVuSans-6c" transform="translate(817.107422 0)"/>
      <use xlink:href="#DejaVuSans-65" transform="translate(844.890625 0)"/>
      <use xlink:href="#DejaVuSans-64" transform="translate(906.414062 0)"/>
     </g>
    </g>
   </g>
   <g id="line2d_57">
    <path d="M 600.905219 76.004778 
L 637.714125 77.493256 
L 674.52303 78.638759 
L 711.331935 82.217611 
L 748.140841 86.06729 
L 784.949746 91.840797 
L 821.758651 100.561224 
L 858.567557 112.413174 
L 895.376462 141.934718 
L 932.185368 314.379648 
" clip-path="url(#p48f7777ffb)" style="fill: none; stroke: #000000; stroke-width: 1.5; stroke-linecap: square"/>
    <defs>
     <path id="m747acc0f94" d="M 0 2.5 
C 0.663008 2.5 1.29895 2.236584 1.767767 1.767767 
C 2.236584 1.29895 2.5 0.663008 2.5 0 
C 2.5 -0.663008 2.236584 -1.29895 1.767767 -1.767767 
C 1.29895 -2.236584 0.663008 -2.5 0 -2.5 
C -0.663008 -2.5 -1.29895 -2.236584 -1.767767 -1.767767 
C -2.236584 -1.29895 -2.5 -0.663008 -2.5 0 
C -2.5 0.663008 -2.236584 1.29895 -1.767767 1.767767 
C -1.29895 2.236584 -0.663008 2.5 0 2.5 
z
" style="stroke: #000000"/>
    </defs>
    <g clip-path="url(#p48f7777ffb)">
     <use xlink:href="#m747acc0f94" x="600.905219" y="76.004778" style="stroke: #000000"/>
     <use xlink:href="#m747acc0f94" x="637.714125" y="77.493256" style="stroke: #000000"/>
     <use xlink:href="#m747acc0f94" x="674.52303" y="78.638759" style="stroke: #000000"/>
     <use xlink:href="#m747acc0f94" x="711.331935" y="82.217611" style="stroke: #000000"/>
     <use xlink:href="#m747acc0f94" x="748.140841" y="86.06729" style="stroke: #000000"/>
     <use xlink:href="#m747acc0f94" x="784.949746" y="91.840797" style="stroke: #000000"/>
     <use xlink:href="#m747acc0f94" x="821.758651" y="100.561224" style="stroke: #000000"/>
     <use xlink:href="#m747acc0f94" x="858.567557" y="112.413174" style="stroke: #000000"/>
     <use xlink:href="#m747acc0f94" x="895.376462" y="141.934718" style="stroke: #000000"/>
     <use xlink:href="#m747acc0f94" x="932.185368" y="314.379648" style="stroke: #000000"/>
    </g>
   </g>
   <g id="patch_7">
    <path d="M 584.341212 331.5575 
L 584.341212 54.3575 
" style="fill: none; stroke: #000000; stroke-width: 0.8; stroke-linejoin: miter; stroke-linecap: square"/>
   </g>
   <g id="patch_8">
    <path d="M 584.341212 331.5575 
L 948.749375 331.5575 
" style="fill: none; stroke: #000000; stroke-width: 0.8; stroke-linejoin: miter; stroke-linecap: square"/>
   </g>
   <g id="text_44">
    <!-- Film Items Recalled -->
    <g transform="translate(688.954043 19.3575) scale(0.16 -0.16)">
     <use xlink:href="#DejaVuSans-46"/>
     <use xlink:href="#DejaVuSans-69" transform="translate(50.269531 0)"/>
     <use xlink:href="#DejaVuSans-6c" transform="translate(78.052734 0)"/>
     <use xlink:href="#DejaVuSans-6d" transform="translate(105.835938 0)"/>
     <use xlink:href="#DejaVuSans-20" transform="translate(203.248047 0)"/>
     <use xlink:href="#DejaVuSans-49" transform="translate(235.035156 0)"/>
     <use xlink:href="#DejaVuSans-74" transform="translate(264.527344 0)"/>
     <use xlink:href="#DejaVuSans-65" transform="translate(303.736328 0)"/>
     <use xlink:href="#DejaVuSans-6d" transform="translate(365.259766 0)"/>
     <use xlink:href="#DejaVuSans-73" transform="translate(462.671875 0)"/>
     <use xlink:href="#DejaVuSans-20" transform="translate(514.771484 0)"/>
     <use xlink:href="#DejaVuSans-52" transform="translate(546.558594 0)"/>
     <use xlink:href="#DejaVuSans-65" transform="translate(611.541016 0)"/>
     <use xlink:href="#DejaVuSans-63" transform="translate(673.064453 0)"/>
     <use xlink:href="#DejaVuSans-61" transform="translate(728.044922 0)"/>
     <use xlink:href="#DejaVuSans-6c" transform="translate(789.324219 0)"/>
     <use xlink:href="#DejaVuSans-6c" transform="translate(817.107422 0)"/>
     <use xlink:href="#DejaVuSans-65" transform="translate(844.890625 0)"/>
     <use xlink:href="#DejaVuSans-64" transform="translate(906.414062 0)"/>
    </g>
   </g>
  </g>
 </g>
 <defs>
  <clipPath id="p5b510919fe">
   <rect x="55.949375" y="54.3575" width="364.408163" height="277.2"/>
  </clipPath>
  <clipPath id="p48f7777ffb">
   <rect x="584.341212" y="54.3575" width="364.408163" height="277.2"/>
  </clipPath>
 </defs>
</svg>
