<?xml version="1.0" encoding="utf-8" standalone="no"?>
<!DOCTYPE svg PUBLIC "-//W3C//DTD SVG 1.1//EN"
  "http://www.w3.org/Graphics/SVG/1.1/DTD/svg11.dtd">
<svg xmlns:xlink="http://www.w3.org/1999/xlink" width="955.949375pt" height="378.791875pt" viewBox="0 0 955.949375 378.791875" xmlns="http://www.w3.org/2000/svg" version="1.1">
 <metadata>
  <rdf:RDF xmlns:dc="http://purl.org/dc/elements/1.1/" xmlns:cc="http://creativecommons.org/ns#" xmlns:rdf="http://www.w3.org/1999/02/22-rdf-syntax-ns#">
   <cc:Work>
    <dc:type rdf:resource="http://purl.org/dc/dcmitype/StillImage"/>
    <dc:date>2026-03-04T15:29:13.320961</dc:date>
    <dc:format>image/svg+xml</dc:format>
    <dc:creator>
     <cc:Agent>
      <dc:title>Matplotlib v3.10.1, https://matplotlib.org/</dc:title>
     </cc:Agent>
    </dc:creator>
   </cc:Work>
  </rdf:RDF>
 </metadata>
 <defs>
  <style type="text/css">*{stroke-linejoin: round; stroke-linecap: butt}</style>
 </defs>
 <g id="figure_1">
  <g id="patch_1">
   <path d="M 0 378.791875 
L 955.949375 378.791875 
L 955.949375 0 
L 0 0 
z
" style="fill: #ffffff"/>
  </g>
  <g id="axes_1">
   <g id="patch_2">
    <path d="M 55.949375 331.5575 
L 420.357538 331.5575 
L 420.357538 54.3575 
L 55.949375 54.3575 
z
" style="fill: #ffffff"/>
   </g>
   <g id="matplotlib.axis_1">
    <g id="xtick_1">
     <g id="line2d_1">
      <defs>
       <path id="m63ecfa0629" d="M 0 0 
L 0 3.5 
" style="stroke: #000000; stroke-width: 0.8"/>
      </defs>
      <g>
       <use xlink:href="#m63ecfa0629" x="68.319963" y="331.5575" style="stroke: #000000; stroke-width: 0.8"/>
      </g>
     </g>
     <g id="text_1">
      <!-- 0 -->
      <g transform="translate(63.866213 349.195312) scale(0.14 -0.14)">
       <defs>
        <path id="DejaVuSans-30" d="M 2034 4250 
Q 1547 4250 1301 3770 
Q 1056 3291 1056 2328 
Q 1056 1369 1301 889 
Q 1547 409 2034 409 
Q 2525 409 2770 889 
Q 3016 1369 3016 2328 
Q 3016 3291 2770 3770 
Q 2525 4250 2034 4250 
z
M 2034 4750 
Q 2819 4750 3233 4129 
Q 3647 3509 3647 2328 
Q 3647 1150 3233 529 
Q 2819 -91 2034 -91 
Q 1250 -91 836 529 
Q 422 1150 422 2328 
Q 422 3509 836 4129 
Q 1250 4750 2034 4750 
z
" transform="scale(0.015625)"/>
       </defs>
       <use xlink:href="#DejaVuSans-30"/>
      </g>
     </g>
    </g>
    <g id="xtick_2">
     <g id="line2d_2">
      <g>
       <use xlink:href="#m63ecfa0629" x="152.188355" y="331.5575" style="stroke: #000000; stroke-width: 0.8"/>
      </g>
     </g>
     <g id="text_2">
      <!-- 20 -->
      <g transform="translate(143.280855 349.195312) scale(0.14 -0.14)">
       <defs>
        <path id="DejaVuSans-32" d="M 1228 531 
L 3431 531 
L 3431 0 
L 469 0 
L 469 531 
Q 828 903 1448 1529 
Q 2069 2156 2228 2338 
Q 2531 2678 2651 2914 
Q 2772 3150 2772 3378 
Q 2772 3750 2511 3984 
Q 2250 4219 1831 4219 
Q 1534 4219 1204 4116 
Q 875 4013 500 3803 
L 500 4441 
Q 881 4594 1212 4672 
Q 1544 4750 1819 4750 
Q 2544 4750 2975 4387 
Q 3406 4025 3406 3419 
Q 3406 3131 3298 2873 
Q 3191 2616 2906 2266 
Q 2828 2175 2409 1742 
Q 1991 1309 1228 531 
z
" transform="scale(0.015625)"/>
       </defs>
       <use xlink:href="#DejaVuSans-32"/>
       <use xlink:href="#DejaVuSans-30" transform="translate(63.623047 0)"/>
      </g>
     </g>
    </g>
    <g id="xtick_3">
     <g id="line2d_3">
      <g>
       <use xlink:href="#m63ecfa0629" x="236.056747" y="331.5575" style="stroke: #000000; stroke-width: 0.8"/>
      </g>
     </g>
     <g id="text_3">
      <!-- 40 -->
      <g transform="translate(227.149247 349.195312) scale(0.14 -0.14)">
       <defs>
        <path id="DejaVuSans-34" d="M 2419 4116 
L 825 1625 
L 2419 1625 
L 2419 4116 
z
M 2253 4666 
L 3047 4666 
L 3047 1625 
L 3713 1625 
L 3713 1100 
L 3047 1100 
L 3047 0 
L 2419 0 
L 2419 1100 
L 313 1100 
L 313 1709 
L 2253 4666 
z
" transform="scale(0.015625)"/>
       </defs>
       <use xlink:href="#DejaVuSans-34"/>
       <use xlink:href="#DejaVuSans-30" transform="translate(63.623047 0)"/>
      </g>
     </g>
    </g>
    <g id="xtick_4">
     <g id="line2d_4">
      <g>
       <use xlink:href="#m63ecfa0629" x="319.925139" y="331.5575" style="stroke: #000000; stroke-width: 0.8"/>
      </g>
     </g>
     <g id="text_4">
      <!-- 60 -->
      <g transform="translate(311.017639 349.195312) scale(0.14 -0.14)">
       <defs>
        <path id="DejaVuSans-36" d="M 2113 2584 
Q 1688 2584 1439 2293 
Q 1191 2003 1191 1497 
Q 1191 994 1439 701 
Q 1688 409 2113 409 
Q 2538 409 2786 701 
Q 3034 994 3034 1497 
Q 3034 2003 2786 2293 
Q 2538 2584 2113 2584 
z
M 3366 4563 
L 3366 3988 
Q 3128 4100 2886 4159 
Q 2644 4219 2406 4219 
Q 1781 4219 1451 3797 
Q 1122 3375 1075 2522 
Q 1259 2794 1537 2939 
Q 1816 3084 2150 3084 
Q 2853 3084 3261 2657 
Q 3669 2231 3669 1497 
Q 3669 778 3244 343 
Q 2819 -91 2113 -91 
Q 1303 -91 875 529 
Q 447 1150 447 2328 
Q 447 3434 972 4092 
Q 1497 4750 2381 4750 
Q 2619 4750 2861 4703 
Q 3103 4656 3366 4563 
z
" transform="scale(0.015625)"/>
       </defs>
       <use xlink:href="#DejaVuSans-36"/>
       <use xlink:href="#DejaVuSans-30" transform="translate(63.623047 0)"/>
      </g>
     </g>
    </g>
    <g id="xtick_5">
     <g id="line2d_5">
      <g>
       <use xlink:href="#m63ecfa0629" x="403.793531" y="331.5575" style="stroke: #000000; stroke-width: 0.8"/>
      </g>
     </g>
     <g id="text_5">
      <!-- 80 -->
      <g transform="translate(394.886031 349.195312) scale(0.14 -0.14)">
       <defs>
        <path id="DejaVuSans-38" d="M 2034 2216 
Q 1584 2216 1326 1975 
Q 1069 1734 1069 1313 
Q 1069 891 1326 650 
Q 1584 409 2034 409 
Q 2484 409 2743 651 
Q 3003 894 3003 1313 
Q 3003 1734 2745 1975 
Q 2488 2216 2034 2216 
z
M 1403 2484 
Q 997 2584 770 2862 
Q 544 3141 544 3541 
Q 544 4100 942 4425 
Q 1341 4750 2034 4750 
Q 2731 4750 3128 4425 
Q 3525 4100 3525 3541 
Q 3525 3141 3298 2862 
Q 3072 2584 2669 2484 
Q 3125 2378 3379 2068 
Q 3634 1759 3634 1313 
Q 3634 634 3220 271 
Q 2806 -91 2034 -91 
Q 1263 -91 848 271 
Q 434 634 434 1313 
Q 434 1759 690 2068 
Q 947 2378 1403 2484 
z
M 1172 3481 
Q 1172 3119 1398 2916 
Q 1625 2713 2034 2713 
Q 2441 2713 2670 2916 
Q 2900 3119 2900 3481 
Q 2900 3844 2670 4047 
Q 2441 4250 2034 4250 
Q 1625 4250 1398 4047 
Q 1172 3844 1172 3481 
z
" transform="scale(0.015625)"/>
       </defs>
       <use xlink:href="#DejaVuSans-38"/>
       <use xlink:href="#DejaVuSans-30" transform="translate(63.623047 0)"/>
      </g>
     </g>
    </g>
    <g id="text_6">
     <!-- Study Position -->
     <g transform="translate(181.369707 368.264375) scale(0.16 -0.16)">
      <defs>
       <path id="DejaVuSans-53" d="M 3425 4513 
L 3425 3897 
Q 3066 4069 2747 4153 
Q 2428 4238 2131 4238 
Q 1616 4238 1336 4038 
Q 1056 3838 1056 3469 
Q 1056 3159 1242 3001 
Q 1428 2844 1947 2747 
L 2328 2669 
Q 3034 2534 3370 2195 
Q 3706 1856 3706 1288 
Q 3706 609 3251 259 
Q 2797 -91 1919 -91 
Q 1588 -91 1214 -16 
Q 841 59 441 206 
L 441 856 
Q 825 641 1194 531 
Q 1563 422 1919 422 
Q 2459 422 2753 634 
Q 3047 847 3047 1241 
Q 3047 1584 2836 1778 
Q 2625 1972 2144 2069 
L 1759 2144 
Q 1053 2284 737 2584 
Q 422 2884 422 3419 
Q 422 4038 858 4394 
Q 1294 4750 2059 4750 
Q 2388 4750 2728 4690 
Q 3069 4631 3425 4513 
z
" transform="scale(0.015625)"/>
       <path id="DejaVuSans-74" d="M 1172 4494 
L 1172 3500 
L 2356 3500 
L 2356 3053 
L 1172 3053 
L 1172 1153 
Q 1172 725 1289 603 
Q 1406 481 1766 481 
L 2356 481 
L 2356 0 
L 1766 0 
Q 1100 0 847 248 
Q 594 497 594 1153 
L 594 3053 
L 172 3053 
L 172 3500 
L 594 3500 
L 594 4494 
L 1172 4494 
z
" transform="scale(0.015625)"/>
       <path id="DejaVuSans-75" d="M 544 1381 
L 544 3500 
L 1119 3500 
L 1119 1403 
Q 1119 906 1312 657 
Q 1506 409 1894 409 
Q 2359 409 2629 706 
Q 2900 1003 2900 1516 
L 2900 3500 
L 3475 3500 
L 3475 0 
L 2900 0 
L 2900 538 
Q 2691 219 2414 64 
Q 2138 -91 1772 -91 
Q 1169 -91 856 284 
Q 544 659 544 1381 
z
M 1991 3584 
L 1991 3584 
z
" transform="scale(0.015625)"/>
       <path id="DejaVuSans-64" d="M 2906 2969 
L 2906 4863 
L 3481 4863 
L 3481 0 
L 2906 0 
L 2906 525 
Q 2725 213 2448 61 
Q 2172 -91 1784 -91 
Q 1150 -91 751 415 
Q 353 922 353 1747 
Q 353 2572 751 3078 
Q 1150 3584 1784 3584 
Q 2172 3584 2448 3432 
Q 2725 3281 2906 2969 
z
M 947 1747 
Q 947 1113 1208 752 
Q 1469 391 1925 391 
Q 2381 391 2643 752 
Q 2906 1113 2906 1747 
Q 2906 2381 2643 2742 
Q 2381 3103 1925 3103 
Q 1469 3103 1208 2742 
Q 947 2381 947 1747 
z
" transform="scale(0.015625)"/>
       <path id="DejaVuSans-79" d="M 2059 -325 
Q 1816 -950 1584 -1140 
Q 1353 -1331 966 -1331 
L 506 -1331 
L 506 -850 
L 844 -850 
Q 1081 -850 1212 -737 
Q 1344 -625 1503 -206 
L 1606 56 
L 191 3500 
L 800 3500 
L 1894 763 
L 2988 3500 
L 3597 3500 
L 2059 -325 
z
" transform="scale(0.015625)"/>
       <path id="DejaVuSans-20" transform="scale(0.015625)"/>
       <path id="DejaVuSans-50" d="M 1259 4147 
L 1259 2394 
L 2053 2394 
Q 2494 2394 2734 2622 
Q 2975 2850 2975 3272 
Q 2975 3691 2734 3919 
Q 2494 4147 2053 4147 
L 1259 4147 
z
M 628 4666 
L 2053 4666 
Q 2838 4666 3239 4311 
Q 3641 3956 3641 3272 
Q 3641 2581 3239 2228 
Q 2838 1875 2053 1875 
L 1259 1875 
L 1259 0 
L 628 0 
L 628 4666 
z
" transform="scale(0.015625)"/>
       <path id="DejaVuSans-6f" d="M 1959 3097 
Q 1497 3097 1228 2736 
Q 959 2375 959 1747 
Q 959 1119 1226 758 
Q 1494 397 1959 397 
Q 2419 397 2687 759 
Q 2956 1122 2956 1747 
Q 2956 2369 2687 2733 
Q 2419 3097 1959 3097 
z
M 1959 3584 
Q 2709 3584 3137 3096 
Q 3566 2609 3566 1747 
Q 3566 888 3137 398 
Q 2709 -91 1959 -91 
Q 1206 -91 779 398 
Q 353 888 353 1747 
Q 353 2609 779 3096 
Q 1206 3584 1959 3584 
z
" transform="scale(0.015625)"/>
       <path id="DejaVuSans-73" d="M 2834 3397 
L 2834 2853 
Q 2591 2978 2328 3040 
Q 2066 3103 1784 3103 
Q 1356 3103 1142 2972 
Q 928 2841 928 2578 
Q 928 2378 1081 2264 
Q 1234 2150 1697 2047 
L 1894 2003 
Q 2506 1872 2764 1633 
Q 3022 1394 3022 966 
Q 3022 478 2636 193 
Q 2250 -91 1575 -91 
Q 1294 -91 989 -36 
Q 684 19 347 128 
L 347 722 
Q 666 556 975 473 
Q 1284 391 1588 391 
Q 1994 391 2212 530 
Q 2431 669 2431 922 
Q 2431 1156 2273 1281 
Q 2116 1406 1581 1522 
L 1381 1569 
Q 847 1681 609 1914 
Q 372 2147 372 2553 
Q 372 3047 722 3315 
Q 1072 3584 1716 3584 
Q 2034 3584 2315 3537 
Q 2597 3491 2834 3397 
z
" transform="scale(0.015625)"/>
       <path id="DejaVuSans-69" d="M 603 3500 
L 1178 3500 
L 1178 0 
L 603 0 
L 603 3500 
z
M 603 4863 
L 1178 4863 
L 1178 4134 
L 603 4134 
L 603 4863 
z
" transform="scale(0.015625)"/>
       <path id="DejaVuSans-6e" d="M 3513 2113 
L 3513 0 
L 2938 0 
L 2938 2094 
Q 2938 2591 2744 2837 
Q 2550 3084 2163 3084 
Q 1697 3084 1428 2787 
Q 1159 2491 1159 1978 
L 1159 0 
L 581 0 
L 581 3500 
L 1159 3500 
L 1159 2956 
Q 1366 3272 1645 3428 
Q 1925 3584 2291 3584 
Q 2894 3584 3203 3211 
Q 3513 2838 3513 2113 
z
" transform="scale(0.015625)"/>
      </defs>
      <use xlink:href="#DejaVuSans-53"/>
      <use xlink:href="#DejaVuSans-74" transform="translate(63.476562 0)"/>
      <use xlink:href="#DejaVuSans-75" transform="translate(102.685547 0)"/>
      <use xlink:href="#DejaVuSans-64" transform="translate(166.064453 0)"/>
      <use xlink:href="#DejaVuSans-79" transform="translate(229.541016 0)"/>
      <use xlink:href="#DejaVuSans-20" transform="translate(288.720703 0)"/>
      <use xlink:href="#DejaVuSans-50" transform="translate(320.507812 0)"/>
      <use xlink:href="#DejaVuSans-6f" transform="translate(377.185547 0)"/>
      <use xlink:href="#DejaVuSans-73" transform="translate(438.367188 0)"/>
      <use xlink:href="#DejaVuSans-69" transform="translate(490.466797 0)"/>
      <use xlink:href="#DejaVuSans-74" transform="translate(518.25 0)"/>
      <use xlink:href="#DejaVuSans-69" transform="translate(557.458984 0)"/>
      <use xlink:href="#DejaVuSans-6f" transform="translate(585.242188 0)"/>
      <use xlink:href="#DejaVuSans-6e" transform="translate(646.423828 0)"/>
     </g>
    </g>
   </g>
   <g id="matplotlib.axis_2">
    <g id="ytick_1">
     <g id="line2d_6">
      <path d="M 55.949375 322.995116 
L 420.357538 322.995116 
" clip-path="url(#pb822f2147c)" style="fill: none; stroke-dasharray: 1.85,0.8; stroke-dashoffset: 0; stroke: #b0b0b0; stroke-opacity: 0.3; stroke-width: 0.5"/>
     </g>
     <g id="line2d_7">
      <defs>
       <path id="m3eef706958" d="M 0 0 
L -3.5 0 
" style="stroke: #000000; stroke-width: 0.8"/>
      </defs>
      <g>
       <use xlink:href="#m3eef706958" x="55.949375" y="322.995116" style="stroke: #000000; stroke-width: 0.8"/>
      </g>
     </g>
     <g id="text_7">
      <!-- 0.1 -->
      <g transform="translate(26.685 328.314023) scale(0.14 -0.14)">
       <defs>
        <path id="DejaVuSans-2e" d="M 684 794 
L 1344 794 
L 1344 0 
L 684 0 
L 684 794 
z
" transform="scale(0.015625)"/>
        <path id="DejaVuSans-31" d="M 794 531 
L 1825 531 
L 1825 4091 
L 703 3866 
L 703 4441 
L 1819 4666 
L 2450 4666 
L 2450 531 
L 3481 531 
L 3481 0 
L 794 0 
L 794 531 
z
" transform="scale(0.015625)"/>
       </defs>
       <use xlink:href="#DejaVuSans-30"/>
       <use xlink:href="#DejaVuSans-2e" transform="translate(63.623047 0)"/>
       <use xlink:href="#DejaVuSans-31" transform="translate(95.410156 0)"/>
      </g>
     </g>
    </g>
    <g id="ytick_2">
     <g id="line2d_8">
      <path d="M 55.949375 267.697312 
L 420.357538 267.697312 
" clip-path="url(#pb822f2147c)" style="fill: none; stroke-dasharray: 1.85,0.8; stroke-dashoffset: 0; stroke: #b0b0b0; stroke-opacity: 0.3; stroke-width: 0.5"/>
     </g>
     <g id="line2d_9">
      <g>
       <use xlink:href="#m3eef706958" x="55.949375" y="267.697312" style="stroke: #000000; stroke-width: 0.8"/>
      </g>
     </g>
     <g id="text_8">
      <!-- 0.2 -->
      <g transform="translate(26.685 273.016218) scale(0.14 -0.14)">
       <use xlink:href="#DejaVuSans-30"/>
       <use xlink:href="#DejaVuSans-2e" transform="translate(63.623047 0)"/>
       <use xlink:href="#DejaVuSans-32" transform="translate(95.410156 0)"/>
      </g>
     </g>
    </g>
    <g id="ytick_3">
     <g id="line2d_10">
      <path d="M 55.949375 212.399507 
L 420.357538 212.399507 
" clip-path="url(#pb822f2147c)" style="fill: none; stroke-dasharray: 1.85,0.8; stroke-dashoffset: 0; stroke: #b0b0b0; stroke-opacity: 0.3; stroke-width: 0.5"/>
     </g>
     <g id="line2d_11">
      <g>
       <use xlink:href="#m3eef706958" x="55.949375" y="212.399507" style="stroke: #000000; stroke-width: 0.8"/>
      </g>
     </g>
     <g id="text_9">
      <!-- 0.3 -->
      <g transform="translate(26.685 217.718413) scale(0.14 -0.14)">
       <defs>
        <path id="DejaVuSans-33" d="M 2597 2516 
Q 3050 2419 3304 2112 
Q 3559 1806 3559 1356 
Q 3559 666 3084 287 
Q 2609 -91 1734 -91 
Q 1441 -91 1130 -33 
Q 819 25 488 141 
L 488 750 
Q 750 597 1062 519 
Q 1375 441 1716 441 
Q 2309 441 2620 675 
Q 2931 909 2931 1356 
Q 2931 1769 2642 2001 
Q 2353 2234 1838 2234 
L 1294 2234 
L 1294 2753 
L 1863 2753 
Q 2328 2753 2575 2939 
Q 2822 3125 2822 3475 
Q 2822 3834 2567 4026 
Q 2313 4219 1838 4219 
Q 1578 4219 1281 4162 
Q 984 4106 628 3988 
L 628 4550 
Q 988 4650 1302 4700 
Q 1616 4750 1894 4750 
Q 2613 4750 3031 4423 
Q 3450 4097 3450 3541 
Q 3450 3153 3228 2886 
Q 3006 2619 2597 2516 
z
" transform="scale(0.015625)"/>
       </defs>
       <use xlink:href="#DejaVuSans-30"/>
       <use xlink:href="#DejaVuSans-2e" transform="translate(63.623047 0)"/>
       <use xlink:href="#DejaVuSans-33" transform="translate(95.410156 0)"/>
      </g>
     </g>
    </g>
    <g id="ytick_4">
     <g id="line2d_12">
      <path d="M 55.949375 157.101702 
L 420.357538 157.101702 
" clip-path="url(#pb822f2147c)" style="fill: none; stroke-dasharray: 1.85,0.8; stroke-dashoffset: 0; stroke: #b0b0b0; stroke-opacity: 0.3; stroke-width: 0.5"/>
     </g>
     <g id="line2d_13">
      <g>
       <use xlink:href="#m3eef706958" x="55.949375" y="157.101702" style="stroke: #000000; stroke-width: 0.8"/>
      </g>
     </g>
     <g id="text_10">
      <!-- 0.4 -->
      <g transform="translate(26.685 162.420608) scale(0.14 -0.14)">
       <use xlink:href="#DejaVuSans-30"/>
       <use xlink:href="#DejaVuSans-2e" transform="translate(63.623047 0)"/>
       <use xlink:href="#DejaVuSans-34" transform="translate(95.410156 0)"/>
      </g>
     </g>
    </g>
    <g id="ytick_5">
     <g id="line2d_14">
      <path d="M 55.949375 101.803897 
L 420.357538 101.803897 
" clip-path="url(#pb822f2147c)" style="fill: none; stroke-dasharray: 1.85,0.8; stroke-dashoffset: 0; stroke: #b0b0b0; stroke-opacity: 0.3; stroke-width: 0.5"/>
     </g>
     <g id="line2d_15">
      <g>
       <use xlink:href="#m3eef706958" x="55.949375" y="101.803897" style="stroke: #000000; stroke-width: 0.8"/>
      </g>
     </g>
     <g id="text_11">
      <!-- 0.5 -->
      <g transform="translate(26.685 107.122804) scale(0.14 -0.14)">
       <defs>
        <path id="DejaVuSans-35" d="M 691 4666 
L 3169 4666 
L 3169 4134 
L 1269 4134 
L 1269 2991 
Q 1406 3038 1543 3061 
Q 1681 3084 1819 3084 
Q 2600 3084 3056 2656 
Q 3513 2228 3513 1497 
Q 3513 744 3044 326 
Q 2575 -91 1722 -91 
Q 1428 -91 1123 -41 
Q 819 9 494 109 
L 494 744 
Q 775 591 1075 516 
Q 1375 441 1709 441 
Q 2250 441 2565 725 
Q 2881 1009 2881 1497 
Q 2881 1984 2565 2268 
Q 2250 2553 1709 2553 
Q 1456 2553 1204 2497 
Q 953 2441 691 2322 
L 691 4666 
z
" transform="scale(0.015625)"/>
       </defs>
       <use xlink:href="#DejaVuSans-30"/>
       <use xlink:href="#DejaVuSans-2e" transform="translate(63.623047 0)"/>
       <use xlink:href="#DejaVuSans-35" transform="translate(95.410156 0)"/>
      </g>
     </g>
    </g>
    <g id="text_12">
     <!-- Recall Probability -->
     <g transform="translate(19.3575 261.65375) rotate(-90) scale(0.16 -0.16)">
      <defs>
       <path id="DejaVuSans-52" d="M 2841 2188 
Q 3044 2119 3236 1894 
Q 3428 1669 3622 1275 
L 4263 0 
L 3584 0 
L 2988 1197 
Q 2756 1666 2539 1819 
Q 2322 1972 1947 1972 
L 1259 1972 
L 1259 0 
L 628 0 
L 628 4666 
L 2053 4666 
Q 2853 4666 3247 4331 
Q 3641 3997 3641 3322 
Q 3641 2881 3436 2590 
Q 3231 2300 2841 2188 
z
M 1259 4147 
L 1259 2491 
L 2053 2491 
Q 2509 2491 2742 2702 
Q 2975 2913 2975 3322 
Q 2975 3731 2742 3939 
Q 2509 4147 2053 4147 
L 1259 4147 
z
" transform="scale(0.015625)"/>
       <path id="DejaVuSans-65" d="M 3597 1894 
L 3597 1613 
L 953 1613 
Q 991 1019 1311 708 
Q 1631 397 2203 397 
Q 2534 397 2845 478 
Q 3156 559 3463 722 
L 3463 178 
Q 3153 47 2828 -22 
Q 2503 -91 2169 -91 
Q 1331 -91 842 396 
Q 353 884 353 1716 
Q 353 2575 817 3079 
Q 1281 3584 2069 3584 
Q 2775 3584 3186 3129 
Q 3597 2675 3597 1894 
z
M 3022 2063 
Q 3016 2534 2758 2815 
Q 2500 3097 2075 3097 
Q 1594 3097 1305 2825 
Q 1016 2553 972 2059 
L 3022 2063 
z
" transform="scale(0.015625)"/>
       <path id="DejaVuSans-63" d="M 3122 3366 
L 3122 2828 
Q 2878 2963 2633 3030 
Q 2388 3097 2138 3097 
Q 1578 3097 1268 2742 
Q 959 2388 959 1747 
Q 959 1106 1268 751 
Q 1578 397 2138 397 
Q 2388 397 2633 464 
Q 2878 531 3122 666 
L 3122 134 
Q 2881 22 2623 -34 
Q 2366 -91 2075 -91 
Q 1284 -91 818 406 
Q 353 903 353 1747 
Q 353 2603 823 3093 
Q 1294 3584 2113 3584 
Q 2378 3584 2631 3529 
Q 2884 3475 3122 3366 
z
" transform="scale(0.015625)"/>
       <path id="DejaVuSans-61" d="M 2194 1759 
Q 1497 1759 1228 1600 
Q 959 1441 959 1056 
Q 959 750 1161 570 
Q 1363 391 1709 391 
Q 2188 391 2477 730 
Q 2766 1069 2766 1631 
L 2766 1759 
L 2194 1759 
z
M 3341 1997 
L 3341 0 
L 2766 0 
L 2766 531 
Q 2569 213 2275 61 
Q 1981 -91 1556 -91 
Q 1019 -91 701 211 
Q 384 513 384 1019 
Q 384 1609 779 1909 
Q 1175 2209 1959 2209 
L 2766 2209 
L 2766 2266 
Q 2766 2663 2505 2880 
Q 2244 3097 1772 3097 
Q 1472 3097 1187 3025 
Q 903 2953 641 2809 
L 641 3341 
Q 956 3463 1253 3523 
Q 1550 3584 1831 3584 
Q 2591 3584 2966 3190 
Q 3341 2797 3341 1997 
z
" transform="scale(0.015625)"/>
       <path id="DejaVuSans-6c" d="M 603 4863 
L 1178 4863 
L 1178 0 
L 603 0 
L 603 4863 
z
" transform="scale(0.015625)"/>
       <path id="DejaVuSans-72" d="M 2631 2963 
Q 2534 3019 2420 3045 
Q 2306 3072 2169 3072 
Q 1681 3072 1420 2755 
Q 1159 2438 1159 1844 
L 1159 0 
L 581 0 
L 581 3500 
L 1159 3500 
L 1159 2956 
Q 1341 3275 1631 3429 
Q 1922 3584 2338 3584 
Q 2397 3584 2469 3576 
Q 2541 3569 2628 3553 
L 2631 2963 
z
" transform="scale(0.015625)"/>
       <path id="DejaVuSans-62" d="M 3116 1747 
Q 3116 2381 2855 2742 
Q 2594 3103 2138 3103 
Q 1681 3103 1420 2742 
Q 1159 2381 1159 1747 
Q 1159 1113 1420 752 
Q 1681 391 2138 391 
Q 2594 391 2855 752 
Q 3116 1113 3116 1747 
z
M 1159 2969 
Q 1341 3281 1617 3432 
Q 1894 3584 2278 3584 
Q 2916 3584 3314 3078 
Q 3713 2572 3713 1747 
Q 3713 922 3314 415 
Q 2916 -91 2278 -91 
Q 1894 -91 1617 61 
Q 1341 213 1159 525 
L 1159 0 
L 581 0 
L 581 4863 
L 1159 4863 
L 1159 2969 
z
" transform="scale(0.015625)"/>
      </defs>
      <use xlink:href="#DejaVuSans-52"/>
      <use xlink:href="#DejaVuSans-65" transform="translate(64.982422 0)"/>
      <use xlink:href="#DejaVuSans-63" transform="translate(126.505859 0)"/>
      <use xlink:href="#DejaVuSans-61" transform="translate(181.486328 0)"/>
      <use xlink:href="#DejaVuSans-6c" transform="translate(242.765625 0)"/>
      <use xlink:href="#DejaVuSans-6c" transform="translate(270.548828 0)"/>
      <use xlink:href="#DejaVuSans-20" transform="translate(298.332031 0)"/>
      <use xlink:href="#DejaVuSans-50" transform="translate(330.119141 0)"/>
      <use xlink:href="#DejaVuSans-72" transform="translate(388.671875 0)"/>
      <use xlink:href="#DejaVuSans-6f" transform="translate(427.535156 0)"/>
      <use xlink:href="#DejaVuSans-62" transform="translate(488.716797 0)"/>
      <use xlink:href="#DejaVuSans-61" transform="translate(552.193359 0)"/>
      <use xlink:href="#DejaVuSans-62" transform="translate(613.472656 0)"/>
      <use xlink:href="#DejaVuSans-69" transform="translate(676.949219 0)"/>
      <use xlink:href="#DejaVuSans-6c" transform="translate(704.732422 0)"/>
      <use xlink:href="#DejaVuSans-69" transform="translate(732.515625 0)"/>
      <use xlink:href="#DejaVuSans-74" transform="translate(760.298828 0)"/>
      <use xlink:href="#DejaVuSans-79" transform="translate(799.507812 0)"/>
     </g>
    </g>
   </g>
   <g id="line2d_16">
    <path d="M 72.513382 219.46533 
L 76.706802 262.562512 
L 80.900222 271.647153 
L 85.093641 275.904208 
L 89.287061 281.872863 
L 93.48048 284.506092 
L 97.6739 279.064081 
L 101.86732 278.274111 
L 106.060739 277.264709 
L 110.254159 275.465337 
L 114.447578 275.158124 
L 118.640998 275.772549 
L 122.834418 278.010793 
L 127.027837 276.386966 
L 131.221257 270.067221 
L 135.414676 276.562511 
L 139.608096 289.245897 
L 143.801516 293.239634 
L 147.994935 291.484149 
L 152.188355 295.565651 
L 156.381774 295.433992 
L 160.575194 295.565651 
L 164.768614 293.151854 
L 168.962033 296.618939 
L 173.155453 296.092295 
L 177.348872 299.120508 
L 181.542292 294.907339 
L 185.735712 293.854051 
L 189.929131 294.907339 
L 194.122551 293.941824 
L 198.31597 292.625209 
L 202.50939 287.622078 
L 206.70281 165.264719 
L 210.896229 154.336811 
L 215.089649 147.929293 
L 219.283068 143.277244 
L 223.476488 133.095437 
L 227.669908 131.734928 
L 231.863327 128.092297 
L 236.056747 126.292925 
L 240.250166 119.007664 
L 244.443586 112.380698 
L 248.637006 109.484152 
L 252.830425 105.841521 
L 257.023845 103.427724 
L 261.217264 98.687919 
L 265.410684 85.47789 
L 269.604104 80.694165 
" clip-path="url(#pb822f2147c)" style="fill: none; stroke: #bfbfbf; stroke-width: 1.5; stroke-linecap: square"/>
   </g>
   <g id="line2d_17">
    <path d="M 72.513382 202.832101 
L 76.706802 250.317998 
L 80.900222 266.819567 
L 85.093641 276.255307 
L 89.287061 278.010793 
L 93.48048 282.531166 
L 97.6739 283.584463 
L 101.86732 288.763139 
L 106.060739 284.111107 
L 110.254159 285.603266 
L 114.447578 285.998252 
L 118.640998 282.223954 
L 122.834418 286.086024 
L 127.027837 283.716122 
L 131.221257 282.794492 
L 135.414676 284.198879 
L 139.608096 293.020195 
L 143.801516 292.756868 
L 147.994935 295.609537 
L 152.188355 294.99512 
L 156.381774 298.76941 
L 160.575194 297.803894 
L 164.768614 295.872863 
L 168.962033 295.565651 
L 173.155453 294.20515 
L 177.348872 299.252167 
L 181.542292 296.443393 
L 185.735712 297.496682 
L 189.929131 295.433992 
L 194.122551 297.145591 
L 198.31597 295.082893 
L 202.50939 294.556249 
L 206.70281 180.449666 
L 210.896229 174.656556 
L 215.089649 170.04841 
L 219.283068 166.010787 
L 223.476488 166.010787 
L 227.669908 157.233358 
L 231.863327 159.647155 
L 236.056747 162.412042 
L 240.250166 157.628351 
L 244.443586 156.882267 
L 248.637006 158.462208 
L 252.830425 159.866586 
L 257.023845 160.656557 
L 261.217264 164.035869 
L 265.410684 163.597006 
L 269.604104 169.039009 
L 273.797523 243.91048 
L 277.990943 235.528036 
L 282.184362 198.443387 
L 286.377782 92.41206 
" clip-path="url(#pb822f2147c)" style="fill: none; stroke: #aaaaaa; stroke-width: 1.5; stroke-linecap: square"/>
   </g>
   <g id="line2d_18">
    <path d="M 72.513382 210.205151 
L 76.706802 250.84465 
L 80.900222 264.361892 
L 85.093641 276.211421 
L 89.287061 283.365023 
L 93.48048 285.339948 
L 97.6739 285.339948 
L 101.86732 289.772549 
L 106.060739 284.901077 
L 110.254159 288.587594 
L 114.447578 291.13305 
L 118.640998 289.860322 
L 122.834418 288.192609 
L 127.027837 289.553109 
L 131.221257 288.412049 
L 135.414676 289.026465 
L 139.608096 292.800763 
L 143.801516 297.760008 
L 147.994935 301.314866 
L 152.188355 297.935553 
L 156.381774 300.173797 
L 160.575194 299.822706 
L 164.768614 300.305464 
L 168.962033 300.919881 
L 173.155453 299.647153 
L 177.348872 301.84151 
L 181.542292 299.339948 
L 185.735712 298.988849 
L 189.929131 301.402638 
L 194.122551 300.217691 
L 198.31597 302.85092 
L 202.50939 299.471607 
L 206.70281 193.001384 
L 210.896229 189.270981 
L 215.089649 183.653433 
L 219.283068 180.932416 
L 223.476488 179.133043 
L 227.669908 177.509233 
L 231.863327 175.797634 
L 236.056747 177.860324 
L 240.250166 177.991983 
L 244.443586 181.107977 
L 248.637006 181.54684 
L 252.830425 179.133043 
L 257.023845 180.010786 
L 261.217264 182.644015 
L 265.410684 183.25844 
L 269.604104 187.208291 
L 273.797523 262.957497 
L 277.990943 277.352482 
L 282.184362 275.640882 
L 286.377782 278.010793 
L 290.571202 264.449665 
L 294.764621 245.929283 
L 298.958041 192.518635 
L 303.15146 71.828964 
" clip-path="url(#pb822f2147c)" style="fill: none; stroke: #959595; stroke-width: 1.5; stroke-linecap: square"/>
   </g>
   <g id="line2d_19">
    <path d="M 72.513382 216.042147 
L 76.706802 254.223954 
L 80.900222 273.402639 
L 85.093641 284.154993 
L 89.287061 288.499821 
L 93.48048 288.938693 
L 97.6739 293.590725 
L 101.86732 293.020195 
L 106.060739 295.433992 
L 110.254159 294.117377 
L 114.447578 293.634611 
L 118.640998 295.126779 
L 122.834418 292.844649 
L 127.027837 291.13305 
L 131.221257 292.756868 
L 135.414676 294.77568 
L 139.608096 299.252167 
L 143.801516 301.358752 
L 147.994935 302.894806 
L 152.188355 303.728663 
L 156.381774 306.537437 
L 160.575194 302.894806 
L 164.768614 303.42145 
L 168.962033 302.719253 
L 173.155453 302.982579 
L 177.348872 303.333678 
L 181.542292 303.465337 
L 185.735712 303.070351 
L 189.929131 302.982579 
L 194.122551 305.747466 
L 198.31597 303.728663 
L 202.50939 301.665964 
L 206.70281 199.452805 
L 210.896229 199.233357 
L 215.089649 196.073493 
L 219.283068 191.289785 
L 223.476488 193.045271 
L 227.669908 189.709844 
L 231.863327 188.393238 
L 236.056747 187.691041 
L 240.250166 191.026467 
L 244.443586 193.308605 
L 248.637006 190.894808 
L 252.830425 195.283522 
L 257.023845 196.995122 
L 261.217264 199.233357 
L 265.410684 202.91989 
L 269.604104 204.63149 
L 273.797523 273.05154 
L 277.990943 287.534306 
L 282.184362 289.684768 
L 286.377782 294.731794 
L 290.571202 289.114238 
L 294.764621 288.719253 
L 298.958041 286.700449 
L 303.15146 279.107967 
L 307.34488 269.803895 
L 311.5383 245.665965 
L 315.731719 191.026467 
L 319.925139 66.9575 
" clip-path="url(#pb822f2147c)" style="fill: none; stroke: #818181; stroke-width: 1.5; stroke-linecap: square"/>
   </g>
   <g id="line2d_20">
    <path d="M 72.513382 223.327408 
L 76.706802 260.982579 
L 80.900222 275.245897 
L 85.093641 285.252168 
L 89.287061 290.650292 
L 93.48048 298.154993 
L 97.6739 298.988849 
L 101.86732 298.06722 
L 106.060739 297.716121 
L 110.254159 297.408909 
L 114.447578 293.459066 
L 118.640998 296.750606 
L 122.834418 297.979439 
L 127.027837 294.117377 
L 131.221257 296.004522 
L 135.414676 300.12991 
L 139.608096 300.832108 
L 143.801516 304.255307 
L 147.994935 306.932422 
L 152.188355 307.459066 
L 156.381774 306.27411 
L 160.575194 306.49355 
L 164.768614 306.142451 
L 168.962033 305.615807 
L 173.155453 305.879125 
L 177.348872 308.073483 
L 181.542292 306.49355 
L 185.735712 306.361891 
L 189.929131 306.800763 
L 194.122551 303.158124 
L 198.31597 301.314866 
L 202.50939 304.650292 
L 206.70281 210.687901 
L 210.896229 206.913611 
L 215.089649 204.455928 
L 219.283068 205.026467 
L 223.476488 202.437124 
L 227.669908 200.593866 
L 231.863327 203.358754 
L 236.056747 197.214553 
L 240.250166 199.584464 
L 244.443586 201.076615 
L 248.637006 196.731787 
L 252.830425 202.700442 
L 257.023845 203.314867 
L 261.217264 209.459067 
L 265.410684 209.371295 
L 269.604104 212.355614 
L 273.797523 281.390097 
L 277.990943 289.202011 
L 282.184362 293.766279 
L 286.377782 295.258438 
L 290.571202 300.261577 
L 294.764621 299.164395 
L 298.958041 300.393236 
L 303.15146 298.330538 
L 307.34488 296.004522 
L 311.5383 294.424582 
L 315.731719 288.412049 
L 319.925139 283.935553 
L 324.118558 271.954365 
L 328.311978 250.976309 
L 332.505398 192.299187 
L 336.698817 68.23022 
" clip-path="url(#pb822f2147c)" style="fill: none; stroke: #6c6c6c; stroke-width: 1.5; stroke-linecap: square"/>
   </g>
   <g id="line2d_21">
    <path d="M 72.513382 226.3995 
L 76.706802 264.493551 
L 80.900222 280.468468 
L 85.093641 290.738065 
L 89.287061 295.916749 
L 93.48048 297.365023 
L 97.6739 298.374425 
L 101.86732 299.954365 
L 106.060739 298.593864 
L 110.254159 299.076622 
L 114.447578 299.032736 
L 118.640998 297.452795 
L 122.834418 300.656563 
L 127.027837 301.973177 
L 131.221257 299.471607 
L 135.414676 300.612668 
L 139.608096 305.659694 
L 143.801516 306.669096 
L 147.994935 309.477874 
L 152.188355 309.170665 
L 156.381774 307.810165 
L 160.575194 309.214552 
L 164.768614 304.562511 
L 168.962033 309.126779 
L 173.155453 307.941824 
L 177.348872 308.117377 
L 181.542292 309.258438 
L 185.735712 307.98571 
L 189.929131 306.142451 
L 194.122551 309.653423 
L 198.31597 307.810165 
L 202.50939 305.966906 
L 206.70281 223.502953 
L 210.896229 217.358753 
L 215.089649 215.69104 
L 219.283068 210.995122 
L 223.476488 208.669097 
L 227.669908 206.518635 
L 231.863327 209.327408 
L 236.056747 208.669097 
L 240.250166 211.433985 
L 244.443586 208.493552 
L 248.637006 212.926153 
L 252.830425 214.1111 
L 257.023845 216.48101 
L 261.217264 218.368155 
L 265.410684 219.904209 
L 269.604104 230.393238 
L 273.797523 287.885396 
L 277.990943 298.023334 
L 282.184362 298.901077 
L 286.377782 302.499821 
L 290.571202 306.361891 
L 294.764621 304.035867 
L 298.958041 304.474738 
L 303.15146 302.368154 
L 307.34488 301.753737 
L 311.5383 303.553109 
L 315.731719 303.026465 
L 319.925139 301.314866 
L 324.118558 296.531166 
L 328.311978 295.302324 
L 332.505398 293.020195 
L 336.698817 286.086024 
L 340.892237 276.255307 
L 345.085656 252.995121 
L 349.279076 195.634613 
L 353.472496 69.45907 
" clip-path="url(#pb822f2147c)" style="fill: none; stroke: #575757; stroke-width: 1.5; stroke-linecap: square"/>
   </g>
   <g id="line2d_22">
    <path d="M 72.513382 231.183208 
L 76.706802 267.91675 
L 80.900222 282.399507 
L 85.093641 295.433992 
L 89.287061 296.311735 
L 93.48048 302.587594 
L 97.6739 305.220822 
L 101.86732 302.85092 
L 106.060739 303.20201 
L 110.254159 303.158124 
L 114.447578 304.91361 
L 118.640998 305.440254 
L 122.834418 302.719253 
L 127.027837 297.496682 
L 131.221257 302.280381 
L 135.414676 302.455935 
L 139.608096 305.484148 
L 143.801516 309.653423 
L 147.994935 310.882265 
L 152.188355 312.857186 
L 156.381774 308.556249 
L 160.575194 308.863453 
L 164.768614 308.249036 
L 168.962033 313.471607 
L 173.155453 311.057814 
L 177.348872 309.828972 
L 181.542292 311.189473 
L 185.735712 314.437123 
L 189.929131 312.330538 
L 194.122551 313.734929 
L 198.31597 309.7412 
L 202.50939 308.073483 
L 206.70281 228.593865 
L 210.896229 220.518634 
L 215.089649 220.299186 
L 219.283068 214.286661 
L 223.476488 220.474748 
L 227.669908 219.114239 
L 231.863327 217.40264 
L 236.056747 216.393238 
L 240.250166 220.167527 
L 244.443586 224.161265 
L 248.637006 221.001384 
L 252.830425 228.549979 
L 257.023845 226.926152 
L 261.217264 230.393238 
L 265.410684 232.104837 
L 269.604104 236.537438 
L 273.797523 291.528035 
L 277.990943 300.875994 
L 282.184362 304.650292 
L 286.377782 306.581323 
L 290.571202 306.405778 
L 294.764621 307.020194 
L 298.958041 308.644021 
L 303.15146 310.092294 
L 307.34488 306.581323 
L 311.5383 308.687907 
L 315.731719 305.571921 
L 319.925139 304.825837 
L 324.118558 303.465337 
L 328.311978 304.12364 
L 332.505398 302.236495 
L 336.698817 303.728663 
L 340.892237 299.603266 
L 345.085656 301.051539 
L 349.279076 294.292923 
L 353.472496 287.490411 
L 357.665915 276.518625 
L 361.859335 253.390098 
L 366.052754 198.575062 
L 370.246174 74.944975 
" clip-path="url(#pb822f2147c)" style="fill: none; stroke: #424242; stroke-width: 1.5; stroke-linecap: square"/>
   </g>
   <g id="line2d_23">
    <path d="M 72.513382 236.844642 
L 76.706802 270.506092 
L 80.900222 285.296054 
L 85.093641 298.901077 
L 89.287061 299.296054 
L 93.48048 302.675366 
L 97.6739 304.167534 
L 101.86732 307.590725 
L 106.060739 307.459066 
L 110.254159 304.562511 
L 114.447578 305.747466 
L 118.640998 303.245897 
L 122.834418 303.070351 
L 127.027837 303.596995 
L 131.221257 305.440254 
L 135.414676 303.114238 
L 139.608096 310.267844 
L 143.801516 314.481009 
L 147.994935 309.697309 
L 152.188355 310.706715 
L 156.381774 311.145587 
L 160.575194 314.217687 
L 164.768614 312.857186 
L 168.962033 310.662829 
L 173.155453 311.891667 
L 177.348872 313.55938 
L 181.542292 312.242765 
L 185.735712 311.84778 
L 189.929131 313.296058 
L 194.122551 314.437123 
L 198.31597 313.910478 
L 202.50939 311.891667 
L 206.70281 229.778813 
L 210.896229 225.214553 
L 215.089649 226.004523 
L 219.283068 224.029606 
L 223.476488 227.452805 
L 227.669908 222.142461 
L 231.863327 227.18947 
L 236.056747 224.819576 
L 240.250166 226.487289 
L 244.443586 228.506093 
L 248.637006 229.383836 
L 252.830425 231.578185 
L 257.023845 230.305465 
L 261.217264 239.828978 
L 265.410684 239.697319 
L 269.604104 241.057811 
L 273.797523 296.355621 
L 277.990943 304.474738 
L 282.184362 308.161263 
L 286.377782 306.976308 
L 290.571202 313.032736 
L 294.764621 310.31173 
L 298.958041 311.321136 
L 303.15146 312.593864 
L 307.34488 308.951225 
L 311.5383 311.935557 
L 315.731719 313.603266 
L 319.925139 309.56565 
L 324.118558 307.107967 
L 328.311978 307.854051 
L 332.505398 310.706715 
L 336.698817 307.678506 
L 340.892237 307.371293 
L 345.085656 305.528035 
L 349.279076 303.684768 
L 353.472496 307.064081 
L 357.665915 306.054679 
L 361.859335 301.007653 
L 366.052754 297.408909 
L 370.246174 287.358752 
L 374.439594 282.399507 
L 378.633013 259.007654 
L 382.826433 202.481011 
L 387.019852 78.982582 
" clip-path="url(#pb822f2147c)" style="fill: none; stroke: #2e2e2e; stroke-width: 1.5; stroke-linecap: square"/>
   </g>
   <g id="line2d_24">
    <path d="M 72.513382 239.082894 
L 76.706802 272.217692 
L 80.900222 290.255307 
L 85.093641 298.549978 
L 89.287061 302.63148 
L 93.48048 308.424581 
L 97.6739 309.082893 
L 101.86732 307.810165 
L 106.060739 310.048408 
L 110.254159 309.56565 
L 114.447578 308.99512 
L 118.640998 306.49355 
L 122.834418 309.433987 
L 127.027837 306.27411 
L 131.221257 308.380695 
L 135.414676 310.706715 
L 139.608096 315.314865 
L 143.801516 313.866588 
L 147.994935 317.42145 
L 152.188355 315.139316 
L 156.381774 314.481009 
L 160.575194 316.104836 
L 164.768614 315.578187 
L 168.962033 315.534301 
L 173.155453 315.314865 
L 177.348872 318.211416 
L 181.542292 314.656558 
L 185.735712 316.060945 
L 189.929131 315.841509 
L 194.122551 318.9575 
L 198.31597 315.797623 
L 202.50939 316.060945 
L 206.70281 238.073492 
L 210.896229 237.107976 
L 215.089649 238.644014 
L 219.283068 232.280382 
L 223.476488 235.440263 
L 227.669908 229.339949 
L 231.863327 233.289784 
L 236.056747 232.807035 
L 240.250166 231.622071 
L 244.443586 233.77255 
L 248.637006 236.800756 
L 252.830425 237.941833 
L 257.023845 241.847781 
L 261.217264 243.515494 
L 265.410684 245.534306 
L 269.604104 245.622079 
L 273.797523 297.452795 
L 277.990943 307.590725 
L 282.184362 313.778815 
L 286.377782 314.305459 
L 290.571202 315.490415 
L 294.764621 313.076622 
L 298.958041 312.198879 
L 303.15146 312.02333 
L 307.34488 313.38383 
L 311.5383 314.042137 
L 315.731719 310.443393 
L 319.925139 312.111102 
L 324.118558 314.524895 
L 328.311978 312.988845 
L 332.505398 312.901072 
L 336.698817 314.524895 
L 340.892237 311.189473 
L 345.085656 311.672231 
L 349.279076 311.145587 
L 353.472496 314.042137 
L 357.665915 311.321136 
L 361.859335 309.872859 
L 366.052754 309.697309 
L 370.246174 306.142451 
L 374.439594 306.712982 
L 378.633013 304.343079 
L 382.826433 297.365023 
L 387.019852 291.879126 
L 391.213272 283.101697 
L 395.406692 257.559381 
L 399.600111 211.741205 
L 403.793531 85.258442 
" clip-path="url(#pb822f2147c)" style="fill: none; stroke: #191919; stroke-width: 1.5; stroke-linecap: square"/>
   </g>
   <g id="line2d_25">
    <path d="M 137.511386 331.5575 
L 137.511386 54.3575 
" clip-path="url(#pb822f2147c)" style="fill: none; stroke-dasharray: 5.55,2.4; stroke-dashoffset: 0; stroke: #ff0000; stroke-opacity: 0.7; stroke-width: 1.5"/>
   </g>
   <g id="line2d_26">
    <path d="M 204.6061 331.5575 
L 204.6061 54.3575 
" clip-path="url(#pb822f2147c)" style="fill: none; stroke-dasharray: 5.55,2.4; stroke-dashoffset: 0; stroke: #ff0000; stroke-opacity: 0.7; stroke-width: 1.5"/>
   </g>
   <g id="line2d_27">
    <path d="M 271.700813 331.5575 
L 271.700813 54.3575 
" clip-path="url(#pb822f2147c)" style="fill: none; stroke-dasharray: 1.5,2.475; stroke-dashoffset: 0; stroke: #0000ff; stroke-opacity: 0.7; stroke-width: 1.5"/>
   </g>
   <g id="patch_3">
    <path d="M 55.949375 331.5575 
L 55.949375 54.3575 
" style="fill: none; stroke: #000000; stroke-width: 0.8; stroke-linejoin: miter; stroke-linecap: square"/>
   </g>
   <g id="patch_4">
    <path d="M 55.949375 331.5575 
L 420.357538 331.5575 
" style="fill: none; stroke: #000000; stroke-width: 0.8; stroke-linejoin: miter; stroke-linecap: square"/>
   </g>
   <g id="text_13">
    <!-- Film -->
    <g transform="translate(91.910123 46.733812) scale(0.1 -0.1)">
     <defs>
      <path id="DejaVuSans-Bold-46" d="M 588 4666 
L 3834 4666 
L 3834 3756 
L 1791 3756 
L 1791 2888 
L 3713 2888 
L 3713 1978 
L 1791 1978 
L 1791 0 
L 588 0 
L 588 4666 
z
" transform="scale(0.015625)"/>
      <path id="DejaVuSans-Bold-69" d="M 538 3500 
L 1656 3500 
L 1656 0 
L 538 0 
L 538 3500 
z
M 538 4863 
L 1656 4863 
L 1656 3950 
L 538 3950 
L 538 4863 
z
" transform="scale(0.015625)"/>
      <path id="DejaVuSans-Bold-6c" d="M 538 4863 
L 1656 4863 
L 1656 0 
L 538 0 
L 538 4863 
z
" transform="scale(0.015625)"/>
      <path id="DejaVuSans-Bold-6d" d="M 3781 2919 
Q 3994 3244 4286 3414 
Q 4578 3584 4928 3584 
Q 5531 3584 5847 3212 
Q 6163 2841 6163 2131 
L 6163 0 
L 5038 0 
L 5038 1825 
Q 5041 1866 5042 1909 
Q 5044 1953 5044 2034 
Q 5044 2406 4934 2573 
Q 4825 2741 4581 2741 
Q 4263 2741 4089 2478 
Q 3916 2216 3909 1719 
L 3909 0 
L 2784 0 
L 2784 1825 
Q 2784 2406 2684 2573 
Q 2584 2741 2328 2741 
Q 2006 2741 1831 2477 
Q 1656 2213 1656 1722 
L 1656 0 
L 531 0 
L 531 3500 
L 1656 3500 
L 1656 2988 
Q 1863 3284 2130 3434 
Q 2397 3584 2719 3584 
Q 3081 3584 3359 3409 
Q 3638 3234 3781 2919 
z
" transform="scale(0.015625)"/>
     </defs>
     <use xlink:href="#DejaVuSans-Bold-46"/>
     <use xlink:href="#DejaVuSans-Bold-69" transform="translate(68.310547 0)"/>
     <use xlink:href="#DejaVuSans-Bold-6c" transform="translate(102.587891 0)"/>
     <use xlink:href="#DejaVuSans-Bold-6d" transform="translate(136.865234 0)"/>
    </g>
   </g>
   <g id="text_14">
    <!-- Break -->
    <g style="fill: #808080" transform="translate(154.691556 46.733812) scale(0.1 -0.1)">
     <defs>
      <path id="DejaVuSans-Bold-42" d="M 2456 2859 
Q 2741 2859 2887 2984 
Q 3034 3109 3034 3353 
Q 3034 3594 2887 3720 
Q 2741 3847 2456 3847 
L 1791 3847 
L 1791 2859 
L 2456 2859 
z
M 2497 819 
Q 2859 819 3042 972 
Q 3225 1125 3225 1434 
Q 3225 1738 3044 1889 
Q 2863 2041 2497 2041 
L 1791 2041 
L 1791 819 
L 2497 819 
z
M 3616 2497 
Q 4003 2384 4215 2081 
Q 4428 1778 4428 1338 
Q 4428 663 3972 331 
Q 3516 0 2584 0 
L 588 0 
L 588 4666 
L 2394 4666 
Q 3366 4666 3802 4372 
Q 4238 4078 4238 3431 
Q 4238 3091 4078 2852 
Q 3919 2613 3616 2497 
z
" transform="scale(0.015625)"/>
      <path id="DejaVuSans-Bold-72" d="M 3138 2547 
Q 2991 2616 2845 2648 
Q 2700 2681 2553 2681 
Q 2122 2681 1889 2404 
Q 1656 2128 1656 1613 
L 1656 0 
L 538 0 
L 538 3500 
L 1656 3500 
L 1656 2925 
Q 1872 3269 2151 3426 
Q 2431 3584 2822 3584 
Q 2878 3584 2943 3579 
Q 3009 3575 3134 3559 
L 3138 2547 
z
" transform="scale(0.015625)"/>
      <path id="DejaVuSans-Bold-65" d="M 4031 1759 
L 4031 1441 
L 1416 1441 
Q 1456 1047 1700 850 
Q 1944 653 2381 653 
Q 2734 653 3104 758 
Q 3475 863 3866 1075 
L 3866 213 
Q 3469 63 3072 -14 
Q 2675 -91 2278 -91 
Q 1328 -91 801 392 
Q 275 875 275 1747 
Q 275 2603 792 3093 
Q 1309 3584 2216 3584 
Q 3041 3584 3536 3087 
Q 4031 2591 4031 1759 
z
M 2881 2131 
Q 2881 2450 2695 2645 
Q 2509 2841 2209 2841 
Q 1884 2841 1681 2658 
Q 1478 2475 1428 2131 
L 2881 2131 
z
" transform="scale(0.015625)"/>
      <path id="DejaVuSans-Bold-61" d="M 2106 1575 
Q 1756 1575 1579 1456 
Q 1403 1338 1403 1106 
Q 1403 894 1545 773 
Q 1688 653 1941 653 
Q 2256 653 2472 879 
Q 2688 1106 2688 1447 
L 2688 1575 
L 2106 1575 
z
M 3816 1997 
L 3816 0 
L 2688 0 
L 2688 519 
Q 2463 200 2181 54 
Q 1900 -91 1497 -91 
Q 953 -91 614 226 
Q 275 544 275 1050 
Q 275 1666 698 1953 
Q 1122 2241 2028 2241 
L 2688 2241 
L 2688 2328 
Q 2688 2594 2478 2717 
Q 2269 2841 1825 2841 
Q 1466 2841 1156 2769 
Q 847 2697 581 2553 
L 581 3406 
Q 941 3494 1303 3539 
Q 1666 3584 2028 3584 
Q 2975 3584 3395 3211 
Q 3816 2838 3816 1997 
z
" transform="scale(0.015625)"/>
      <path id="DejaVuSans-Bold-6b" d="M 538 4863 
L 1656 4863 
L 1656 2216 
L 2944 3500 
L 4244 3500 
L 2534 1894 
L 4378 0 
L 3022 0 
L 1656 1459 
L 1656 0 
L 538 0 
L 538 4863 
z
" transform="scale(0.015625)"/>
     </defs>
     <use xlink:href="#DejaVuSans-Bold-42"/>
     <use xlink:href="#DejaVuSans-Bold-72" transform="translate(76.220703 0)"/>
     <use xlink:href="#DejaVuSans-Bold-65" transform="translate(125.537109 0)"/>
     <use xlink:href="#DejaVuSans-Bold-61" transform="translate(193.359375 0)"/>
     <use xlink:href="#DejaVuSans-Bold-6b" transform="translate(260.839844 0)"/>
    </g>
   </g>
   <g id="text_15">
    <!-- Interference -->
    <g style="fill: #ff0000" transform="translate(203.148769 46.733812) scale(0.1 -0.1)">
     <defs>
      <path id="DejaVuSans-Bold-49" d="M 588 4666 
L 1791 4666 
L 1791 0 
L 588 0 
L 588 4666 
z
" transform="scale(0.015625)"/>
      <path id="DejaVuSans-Bold-6e" d="M 4056 2131 
L 4056 0 
L 2931 0 
L 2931 347 
L 2931 1631 
Q 2931 2084 2911 2256 
Q 2891 2428 2841 2509 
Q 2775 2619 2662 2680 
Q 2550 2741 2406 2741 
Q 2056 2741 1856 2470 
Q 1656 2200 1656 1722 
L 1656 0 
L 538 0 
L 538 3500 
L 1656 3500 
L 1656 2988 
Q 1909 3294 2193 3439 
Q 2478 3584 2822 3584 
Q 3428 3584 3742 3212 
Q 4056 2841 4056 2131 
z
" transform="scale(0.015625)"/>
      <path id="DejaVuSans-Bold-74" d="M 1759 4494 
L 1759 3500 
L 2913 3500 
L 2913 2700 
L 1759 2700 
L 1759 1216 
Q 1759 972 1856 886 
Q 1953 800 2241 800 
L 2816 800 
L 2816 0 
L 1856 0 
Q 1194 0 917 276 
Q 641 553 641 1216 
L 641 2700 
L 84 2700 
L 84 3500 
L 641 3500 
L 641 4494 
L 1759 4494 
z
" transform="scale(0.015625)"/>
      <path id="DejaVuSans-Bold-66" d="M 2841 4863 
L 2841 4128 
L 2222 4128 
Q 1984 4128 1890 4042 
Q 1797 3956 1797 3744 
L 1797 3500 
L 2753 3500 
L 2753 2700 
L 1797 2700 
L 1797 0 
L 678 0 
L 678 2700 
L 122 2700 
L 122 3500 
L 678 3500 
L 678 3744 
Q 678 4316 997 4589 
Q 1316 4863 1984 4863 
L 2841 4863 
z
" transform="scale(0.015625)"/>
      <path id="DejaVuSans-Bold-63" d="M 3366 3391 
L 3366 2478 
Q 3138 2634 2908 2709 
Q 2678 2784 2431 2784 
Q 1963 2784 1702 2511 
Q 1441 2238 1441 1747 
Q 1441 1256 1702 982 
Q 1963 709 2431 709 
Q 2694 709 2930 787 
Q 3166 866 3366 1019 
L 3366 103 
Q 3103 6 2833 -42 
Q 2563 -91 2291 -91 
Q 1344 -91 809 395 
Q 275 881 275 1747 
Q 275 2613 809 3098 
Q 1344 3584 2291 3584 
Q 2566 3584 2833 3536 
Q 3100 3488 3366 3391 
z
" transform="scale(0.015625)"/>
     </defs>
     <use xlink:href="#DejaVuSans-Bold-49"/>
     <use xlink:href="#DejaVuSans-Bold-6e" transform="translate(37.207031 0)"/>
     <use xlink:href="#DejaVuSans-Bold-74" transform="translate(108.398438 0)"/>
     <use xlink:href="#DejaVuSans-Bold-65" transform="translate(156.201172 0)"/>
     <use xlink:href="#DejaVuSans-Bold-72" transform="translate(224.023438 0)"/>
     <use xlink:href="#DejaVuSans-Bold-66" transform="translate(273.339844 0)"/>
     <use xlink:href="#DejaVuSans-Bold-65" transform="translate(316.845703 0)"/>
     <use xlink:href="#DejaVuSans-Bold-72" transform="translate(384.667969 0)"/>
     <use xlink:href="#DejaVuSans-Bold-65" transform="translate(433.984375 0)"/>
     <use xlink:href="#DejaVuSans-Bold-6e" transform="translate(501.806641 0)"/>
     <use xlink:href="#DejaVuSans-Bold-63" transform="translate(572.998047 0)"/>
     <use xlink:href="#DejaVuSans-Bold-65" transform="translate(632.275391 0)"/>
    </g>
   </g>
   <g id="text_16">
    <!-- Filler -->
    <g style="fill: #0000ff" transform="translate(324.380683 46.733812) scale(0.1 -0.1)">
     <use xlink:href="#DejaVuSans-Bold-46"/>
     <use xlink:href="#DejaVuSans-Bold-69" transform="translate(68.310547 0)"/>
     <use xlink:href="#DejaVuSans-Bold-6c" transform="translate(102.587891 0)"/>
     <use xlink:href="#DejaVuSans-Bold-6c" transform="translate(136.865234 0)"/>
     <use xlink:href="#DejaVuSans-Bold-65" transform="translate(171.142578 0)"/>
     <use xlink:href="#DejaVuSans-Bold-72" transform="translate(238.964844 0)"/>
    </g>
   </g>
   <g id="text_17">
    <g clip-path="url(#pb822f2147c)">
     <!-- Reminder -->
     <g transform="translate(202.526412 111.243812) rotate(-90) scale(0.1 -0.1)">
      <defs>
       <path id="DejaVuSans-Oblique-52" d="M 1613 4147 
L 1294 2491 
L 2106 2491 
Q 2584 2491 2879 2755 
Q 3175 3019 3175 3444 
Q 3175 3784 2976 3965 
Q 2778 4147 2406 4147 
L 1613 4147 
z
M 2772 2241 
Q 2972 2194 3105 2009 
Q 3238 1825 3413 1275 
L 3809 0 
L 3144 0 
L 2778 1197 
Q 2638 1659 2453 1815 
Q 2269 1972 1888 1972 
L 1191 1972 
L 806 0 
L 172 0 
L 1081 4666 
L 2503 4666 
Q 3150 4666 3495 4373 
Q 3841 4081 3841 3531 
Q 3841 3044 3547 2687 
Q 3253 2331 2772 2241 
z
" transform="scale(0.015625)"/>
       <path id="DejaVuSans-Oblique-65" d="M 3078 2063 
Q 3088 2113 3092 2166 
Q 3097 2219 3097 2272 
Q 3097 2653 2873 2875 
Q 2650 3097 2266 3097 
Q 1838 3097 1509 2826 
Q 1181 2556 1013 2059 
L 3078 2063 
z
M 3578 1613 
L 903 1613 
Q 884 1494 878 1425 
Q 872 1356 872 1306 
Q 872 872 1139 634 
Q 1406 397 1894 397 
Q 2269 397 2603 481 
Q 2938 566 3225 728 
L 3116 159 
Q 2806 34 2476 -28 
Q 2147 -91 1806 -91 
Q 1078 -91 686 257 
Q 294 606 294 1247 
Q 294 1794 489 2264 
Q 684 2734 1063 3103 
Q 1306 3334 1642 3459 
Q 1978 3584 2356 3584 
Q 2950 3584 3301 3228 
Q 3653 2872 3653 2272 
Q 3653 2128 3634 1964 
Q 3616 1800 3578 1613 
z
" transform="scale(0.015625)"/>
       <path id="DejaVuSans-Oblique-6d" d="M 5747 2113 
L 5338 0 
L 4763 0 
L 5166 2094 
Q 5191 2228 5203 2325 
Q 5216 2422 5216 2491 
Q 5216 2772 5059 2928 
Q 4903 3084 4622 3084 
Q 4203 3084 3875 2770 
Q 3547 2456 3450 1953 
L 3066 0 
L 2491 0 
L 2900 2094 
Q 2925 2209 2937 2307 
Q 2950 2406 2950 2484 
Q 2950 2769 2794 2926 
Q 2638 3084 2363 3084 
Q 1938 3084 1609 2770 
Q 1281 2456 1184 1953 
L 800 0 
L 225 0 
L 909 3500 
L 1484 3500 
L 1375 2956 
Q 1609 3263 1923 3423 
Q 2238 3584 2597 3584 
Q 2978 3584 3223 3384 
Q 3469 3184 3519 2828 
Q 3781 3197 4126 3390 
Q 4472 3584 4856 3584 
Q 5306 3584 5551 3325 
Q 5797 3066 5797 2591 
Q 5797 2488 5784 2364 
Q 5772 2241 5747 2113 
z
" transform="scale(0.015625)"/>
       <path id="DejaVuSans-Oblique-69" d="M 1172 4863 
L 1747 4863 
L 1606 4134 
L 1031 4134 
L 1172 4863 
z
M 909 3500 
L 1484 3500 
L 800 0 
L 225 0 
L 909 3500 
z
" transform="scale(0.015625)"/>
       <path id="DejaVuSans-Oblique-6e" d="M 3566 2113 
L 3156 0 
L 2578 0 
L 2988 2091 
Q 3016 2238 3031 2350 
Q 3047 2463 3047 2528 
Q 3047 2791 2881 2937 
Q 2716 3084 2419 3084 
Q 1956 3084 1622 2776 
Q 1288 2469 1184 1941 
L 800 0 
L 225 0 
L 903 3500 
L 1478 3500 
L 1363 2950 
Q 1603 3253 1940 3418 
Q 2278 3584 2650 3584 
Q 3113 3584 3367 3334 
Q 3622 3084 3622 2631 
Q 3622 2519 3608 2391 
Q 3594 2263 3566 2113 
z
" transform="scale(0.015625)"/>
       <path id="DejaVuSans-Oblique-64" d="M 2675 525 
Q 2444 222 2128 65 
Q 1813 -91 1428 -91 
Q 903 -91 598 267 
Q 294 625 294 1247 
Q 294 1766 478 2236 
Q 663 2706 1013 3078 
Q 1244 3325 1534 3454 
Q 1825 3584 2144 3584 
Q 2481 3584 2739 3421 
Q 2997 3259 3138 2956 
L 3513 4863 
L 4091 4863 
L 3144 0 
L 2566 0 
L 2675 525 
z
M 891 1350 
Q 891 897 1095 644 
Q 1300 391 1663 391 
Q 1931 391 2161 520 
Q 2391 650 2566 903 
Q 2750 1166 2856 1509 
Q 2963 1853 2963 2188 
Q 2963 2622 2758 2865 
Q 2553 3109 2194 3109 
Q 1922 3109 1687 2981 
Q 1453 2853 1288 2613 
Q 1106 2353 998 2009 
Q 891 1666 891 1350 
z
" transform="scale(0.015625)"/>
       <path id="DejaVuSans-Oblique-72" d="M 2853 2969 
Q 2766 3016 2653 3041 
Q 2541 3066 2413 3066 
Q 1953 3066 1609 2717 
Q 1266 2369 1153 1784 
L 800 0 
L 225 0 
L 909 3500 
L 1484 3500 
L 1375 2956 
Q 1603 3259 1920 3421 
Q 2238 3584 2597 3584 
Q 2691 3584 2781 3573 
Q 2872 3563 2963 3538 
L 2853 2969 
z
" transform="scale(0.015625)"/>
      </defs>
      <use xlink:href="#DejaVuSans-Oblique-52"/>
      <use xlink:href="#DejaVuSans-Oblique-65" transform="translate(69.482422 0)"/>
      <use xlink:href="#DejaVuSans-Oblique-6d" transform="translate(131.005859 0)"/>
      <use xlink:href="#DejaVuSans-Oblique-69" transform="translate(228.417969 0)"/>
      <use xlink:href="#DejaVuSans-Oblique-6e" transform="translate(256.201172 0)"/>
      <use xlink:href="#DejaVuSans-Oblique-64" transform="translate(319.580078 0)"/>
      <use xlink:href="#DejaVuSans-Oblique-65" transform="translate(383.056641 0)"/>
      <use xlink:href="#DejaVuSans-Oblique-72" transform="translate(444.580078 0)"/>
     </g>
    </g>
   </g>
   <g id="text_18">
    <!-- SPC by Filler Count -->
    <g transform="translate(162.565957 19.3575) scale(0.16 -0.16)">
     <defs>
      <path id="DejaVuSans-43" d="M 4122 4306 
L 4122 3641 
Q 3803 3938 3442 4084 
Q 3081 4231 2675 4231 
Q 1875 4231 1450 3742 
Q 1025 3253 1025 2328 
Q 1025 1406 1450 917 
Q 1875 428 2675 428 
Q 3081 428 3442 575 
Q 3803 722 4122 1019 
L 4122 359 
Q 3791 134 3420 21 
Q 3050 -91 2638 -91 
Q 1578 -91 968 557 
Q 359 1206 359 2328 
Q 359 3453 968 4101 
Q 1578 4750 2638 4750 
Q 3056 4750 3426 4639 
Q 3797 4528 4122 4306 
z
" transform="scale(0.015625)"/>
      <path id="DejaVuSans-46" d="M 628 4666 
L 3309 4666 
L 3309 4134 
L 1259 4134 
L 1259 2759 
L 3109 2759 
L 3109 2228 
L 1259 2228 
L 1259 0 
L 628 0 
L 628 4666 
z
" transform="scale(0.015625)"/>
     </defs>
     <use xlink:href="#DejaVuSans-53"/>
     <use xlink:href="#DejaVuSans-50" transform="translate(63.476562 0)"/>
     <use xlink:href="#DejaVuSans-43" transform="translate(123.779297 0)"/>
     <use xlink:href="#DejaVuSans-20" transform="translate(193.603516 0)"/>
     <use xlink:href="#DejaVuSans-62" transform="translate(225.390625 0)"/>
     <use xlink:href="#DejaVuSans-79" transform="translate(288.867188 0)"/>
     <use xlink:href="#DejaVuSans-20" transform="translate(348.046875 0)"/>
     <use xlink:href="#DejaVuSans-46" transform="translate(379.833984 0)"/>
     <use xlink:href="#DejaVuSans-69" transform="translate(430.103516 0)"/>
     <use xlink:href="#DejaVuSans-6c" transform="translate(457.886719 0)"/>
     <use xlink:href="#DejaVuSans-6c" transform="translate(485.669922 0)"/>
     <use xlink:href="#DejaVuSans-65" transform="translate(513.453125 0)"/>
     <use xlink:href="#DejaVuSans-72" transform="translate(574.976562 0)"/>
     <use xlink:href="#DejaVuSans-20" transform="translate(616.089844 0)"/>
     <use xlink:href="#DejaVuSans-43" transform="translate(647.876953 0)"/>
     <use xlink:href="#DejaVuSans-6f" transform="translate(717.701172 0)"/>
     <use xlink:href="#DejaVuSans-75" transform="translate(778.882812 0)"/>
     <use xlink:href="#DejaVuSans-6e" transform="translate(842.261719 0)"/>
     <use xlink:href="#DejaVuSans-74" transform="translate(905.640625 0)"/>
    </g>
   </g>
   <g id="legend_1">
    <g id="patch_5">
     <path d="M 436.045702 222.48125 
L 508.748827 222.48125 
Q 511.148827 222.48125 511.148827 220.08125 
L 511.148827 62.7575 
Q 511.148827 60.3575 508.748827 60.3575 
L 436.045702 60.3575 
Q 433.645702 60.3575 433.645702 62.7575 
L 433.645702 220.08125 
Q 433.645702 222.48125 436.045702 222.48125 
z
" style="fill: #ffffff; opacity: 0.8; stroke: #cccccc; stroke-linejoin: miter"/>
    </g>
    <g id="line2d_28">
     <path d="M 438.445702 70.075625 
L 450.445702 70.075625 
L 462.445702 70.075625 
" style="fill: none; stroke: #bfbfbf; stroke-width: 1.5; stroke-linecap: square"/>
    </g>
    <g id="text_19">
     <!-- N=0 -->
     <g transform="translate(472.045702 74.275625) scale(0.12 -0.12)">
      <defs>
       <path id="DejaVuSans-4e" d="M 628 4666 
L 1478 4666 
L 3547 763 
L 3547 4666 
L 4159 4666 
L 4159 0 
L 3309 0 
L 1241 3903 
L 1241 0 
L 628 0 
L 628 4666 
z
" transform="scale(0.015625)"/>
       <path id="DejaVuSans-3d" d="M 678 2906 
L 4684 2906 
L 4684 2381 
L 678 2381 
L 678 2906 
z
M 678 1631 
L 4684 1631 
L 4684 1100 
L 678 1100 
L 678 1631 
z
" transform="scale(0.015625)"/>
      </defs>
      <use xlink:href="#DejaVuSans-4e"/>
      <use xlink:href="#DejaVuSans-3d" transform="translate(74.804688 0)"/>
      <use xlink:href="#DejaVuSans-30" transform="translate(158.59375 0)"/>
     </g>
    </g>
    <g id="line2d_29">
     <path d="M 438.445702 87.689375 
L 450.445702 87.689375 
L 462.445702 87.689375 
" style="fill: none; stroke: #aaaaaa; stroke-width: 1.5; stroke-linecap: square"/>
    </g>
    <g id="text_20">
     <!-- N=4 -->
     <g transform="translate(472.045702 91.889375) scale(0.12 -0.12)">
      <use xlink:href="#DejaVuSans-4e"/>
      <use xlink:href="#DejaVuSans-3d" transform="translate(74.804688 0)"/>
      <use xlink:href="#DejaVuSans-34" transform="translate(158.59375 0)"/>
     </g>
    </g>
    <g id="line2d_30">
     <path d="M 438.445702 105.303125 
L 450.445702 105.303125 
L 462.445702 105.303125 
" style="fill: none; stroke: #959595; stroke-width: 1.5; stroke-linecap: square"/>
    </g>
    <g id="text_21">
     <!-- N=8 -->
     <g transform="translate(472.045702 109.503125) scale(0.12 -0.12)">
      <use xlink:href="#DejaVuSans-4e"/>
      <use xlink:href="#DejaVuSans-3d" transform="translate(74.804688 0)"/>
      <use xlink:href="#DejaVuSans-38" transform="translate(158.59375 0)"/>
     </g>
    </g>
    <g id="line2d_31">
     <path d="M 438.445702 122.916875 
L 450.445702 122.916875 
L 462.445702 122.916875 
" style="fill: none; stroke: #818181; stroke-width: 1.5; stroke-linecap: square"/>
    </g>
    <g id="text_22">
     <!-- N=12 -->
     <g transform="translate(472.045702 127.116875) scale(0.12 -0.12)">
      <use xlink:href="#DejaVuSans-4e"/>
      <use xlink:href="#DejaVuSans-3d" transform="translate(74.804688 0)"/>
      <use xlink:href="#DejaVuSans-31" transform="translate(158.59375 0)"/>
      <use xlink:href="#DejaVuSans-32" transform="translate(222.216797 0)"/>
     </g>
    </g>
    <g id="line2d_32">
     <path d="M 438.445702 140.530625 
L 450.445702 140.530625 
L 462.445702 140.530625 
" style="fill: none; stroke: #6c6c6c; stroke-width: 1.5; stroke-linecap: square"/>
    </g>
    <g id="text_23">
     <!-- N=16 -->
     <g transform="translate(472.045702 144.730625) scale(0.12 -0.12)">
      <use xlink:href="#DejaVuSans-4e"/>
      <use xlink:href="#DejaVuSans-3d" transform="translate(74.804688 0)"/>
      <use xlink:href="#DejaVuSans-31" transform="translate(158.59375 0)"/>
      <use xlink:href="#DejaVuSans-36" transform="translate(222.216797 0)"/>
     </g>
    </g>
    <g id="line2d_33">
     <path d="M 438.445702 158.144375 
L 450.445702 158.144375 
L 462.445702 158.144375 
" style="fill: none; stroke: #575757; stroke-width: 1.5; stroke-linecap: square"/>
    </g>
    <g id="text_24">
     <!-- N=20 -->
     <g transform="translate(472.045702 162.344375) scale(0.12 -0.12)">
      <use xlink:href="#DejaVuSans-4e"/>
      <use xlink:href="#DejaVuSans-3d" transform="translate(74.804688 0)"/>
      <use xlink:href="#DejaVuSans-32" transform="translate(158.59375 0)"/>
      <use xlink:href="#DejaVuSans-30" transform="translate(222.216797 0)"/>
     </g>
    </g>
    <g id="line2d_34">
     <path d="M 438.445702 175.758125 
L 450.445702 175.758125 
L 462.445702 175.758125 
" style="fill: none; stroke: #424242; stroke-width: 1.5; stroke-linecap: square"/>
    </g>
    <g id="text_25">
     <!-- N=24 -->
     <g transform="translate(472.045702 179.958125) scale(0.12 -0.12)">
      <use xlink:href="#DejaVuSans-4e"/>
      <use xlink:href="#DejaVuSans-3d" transform="translate(74.804688 0)"/>
      <use xlink:href="#DejaVuSans-32" transform="translate(158.59375 0)"/>
      <use xlink:href="#DejaVuSans-34" transform="translate(222.216797 0)"/>
     </g>
    </g>
    <g id="line2d_35">
     <path d="M 438.445702 193.371875 
L 450.445702 193.371875 
L 462.445702 193.371875 
" style="fill: none; stroke: #2e2e2e; stroke-width: 1.5; stroke-linecap: square"/>
    </g>
    <g id="text_26">
     <!-- N=28 -->
     <g transform="translate(472.045702 197.571875) scale(0.12 -0.12)">
      <use xlink:href="#DejaVuSans-4e"/>
      <use xlink:href="#DejaVuSans-3d" transform="translate(74.804688 0)"/>
      <use xlink:href="#DejaVuSans-32" transform="translate(158.59375 0)"/>
      <use xlink:href="#DejaVuSans-38" transform="translate(222.216797 0)"/>
     </g>
    </g>
    <g id="line2d_36">
     <path d="M 438.445702 210.985625 
L 450.445702 210.985625 
L 462.445702 210.985625 
" style="fill: none; stroke: #191919; stroke-width: 1.5; stroke-linecap: square"/>
    </g>
    <g id="text_27">
     <!-- N=32 -->
     <g transform="translate(472.045702 215.185625) scale(0.12 -0.12)">
      <use xlink:href="#DejaVuSans-4e"/>
      <use xlink:href="#DejaVuSans-3d" transform="translate(74.804688 0)"/>
      <use xlink:href="#DejaVuSans-33" transform="translate(158.59375 0)"/>
      <use xlink:href="#DejaVuSans-32" transform="translate(222.216797 0)"/>
     </g>
    </g>
   </g>
  </g>
  <g id="axes_2">
   <g id="patch_6">
    <path d="M 584.341212 331.5575 
L 948.749375 331.5575 
L 948.749375 54.3575 
L 584.341212 54.3575 
z
" style="fill: #ffffff"/>
   </g>
   <g id="FillBetweenPolyCollection_1">
    <defs>
     <path id="m715c6a2d5d" d="M 600.905219 -311.834375 
L 600.905219 -235.601675 
L 642.315238 -217.862869 
L 683.725256 -195.971947 
L 725.135275 -161.183445 
L 766.545293 -137.260065 
L 807.955312 -118.020353 
L 849.36533 -95.563898 
L 890.775349 -81.046439 
L 932.185368 -59.834375 
L 932.185368 -120.973637 
L 932.185368 -120.973637 
L 890.775349 -146.792448 
L 849.36533 -162.226978 
L 807.955312 -185.594441 
L 766.545293 -204.973931 
L 725.135275 -233.164904 
L 683.725256 -270.531769 
L 642.315238 -291.356078 
L 600.905219 -311.834375 
z
" style="stroke: #000000; stroke-opacity: 0.25"/>
    </defs>
    <g clip-path="url(#p116cd25060)">
     <use xlink:href="#m715c6a2d5d" x="0" y="378.791875" style="fill-opacity: 0.25; stroke: #000000; stroke-opacity: 0.25"/>
    </g>
   </g>
   <g id="matplotlib.axis_3">
    <g id="xtick_6">
     <g id="line2d_37">
      <g>
       <use xlink:href="#m63ecfa0629" x="600.905219" y="331.5575" style="stroke: #000000; stroke-width: 0.8"/>
      </g>
     </g>
     <g id="text_28">
      <!-- 0 -->
      <g transform="translate(596.451469 349.195312) scale(0.14 -0.14)">
       <use xlink:href="#DejaVuSans-30"/>
      </g>
     </g>
    </g>
    <g id="xtick_7">
     <g id="line2d_38">
      <g>
       <use xlink:href="#m63ecfa0629" x="652.667742" y="331.5575" style="stroke: #000000; stroke-width: 0.8"/>
      </g>
     </g>
     <g id="text_29">
      <!-- 5 -->
      <g transform="translate(648.213992 349.195312) scale(0.14 -0.14)">
       <use xlink:href="#DejaVuSans-35"/>
      </g>
     </g>
    </g>
    <g id="xtick_8">
     <g id="line2d_39">
      <g>
       <use xlink:href="#m63ecfa0629" x="704.430266" y="331.5575" style="stroke: #000000; stroke-width: 0.8"/>
      </g>
     </g>
     <g id="text_30">
      <!-- 10 -->
      <g transform="translate(695.522766 349.195312) scale(0.14 -0.14)">
       <use xlink:href="#DejaVuSans-31"/>
       <use xlink:href="#DejaVuSans-30" transform="translate(63.623047 0)"/>
      </g>
     </g>
    </g>
    <g id="xtick_9">
     <g id="line2d_40">
      <g>
       <use xlink:href="#m63ecfa0629" x="756.192789" y="331.5575" style="stroke: #000000; stroke-width: 0.8"/>
      </g>
     </g>
     <g id="text_31">
      <!-- 15 -->
      <g transform="translate(747.285289 349.195312) scale(0.14 -0.14)">
       <use xlink:href="#DejaVuSans-31"/>
       <use xlink:href="#DejaVuSans-35" transform="translate(63.623047 0)"/>
      </g>
     </g>
    </g>
    <g id="xtick_10">
     <g id="line2d_41">
      <g>
       <use xlink:href="#m63ecfa0629" x="807.955312" y="331.5575" style="stroke: #000000; stroke-width: 0.8"/>
      </g>
     </g>
     <g id="text_32">
      <!-- 20 -->
      <g transform="translate(799.047812 349.195312) scale(0.14 -0.14)">
       <use xlink:href="#DejaVuSans-32"/>
       <use xlink:href="#DejaVuSans-30" transform="translate(63.623047 0)"/>
      </g>
     </g>
    </g>
    <g id="xtick_11">
     <g id="line2d_42">
      <g>
       <use xlink:href="#m63ecfa0629" x="859.717835" y="331.5575" style="stroke: #000000; stroke-width: 0.8"/>
      </g>
     </g>
     <g id="text_33">
      <!-- 25 -->
      <g transform="translate(850.810335 349.195312) scale(0.14 -0.14)">
       <use xlink:href="#DejaVuSans-32"/>
       <use xlink:href="#DejaVuSans-35" transform="translate(63.623047 0)"/>
      </g>
     </g>
    </g>
    <g id="xtick_12">
     <g id="line2d_43">
      <g>
       <use xlink:href="#m63ecfa0629" x="911.480358" y="331.5575" style="stroke: #000000; stroke-width: 0.8"/>
      </g>
     </g>
     <g id="text_34">
      <!-- 30 -->
      <g transform="translate(902.572858 349.195312) scale(0.14 -0.14)">
       <use xlink:href="#DejaVuSans-33"/>
       <use xlink:href="#DejaVuSans-30" transform="translate(63.623047 0)"/>
      </g>
     </g>
    </g>
    <g id="text_35">
     <!-- Number of Filler Items -->
     <g transform="translate(677.790293 368.264375) scale(0.16 -0.16)">
      <defs>
       <path id="DejaVuSans-6d" d="M 3328 2828 
Q 3544 3216 3844 3400 
Q 4144 3584 4550 3584 
Q 5097 3584 5394 3201 
Q 5691 2819 5691 2113 
L 5691 0 
L 5113 0 
L 5113 2094 
Q 5113 2597 4934 2840 
Q 4756 3084 4391 3084 
Q 3944 3084 3684 2787 
Q 3425 2491 3425 1978 
L 3425 0 
L 2847 0 
L 2847 2094 
Q 2847 2600 2669 2842 
Q 2491 3084 2119 3084 
Q 1678 3084 1418 2786 
Q 1159 2488 1159 1978 
L 1159 0 
L 581 0 
L 581 3500 
L 1159 3500 
L 1159 2956 
Q 1356 3278 1631 3431 
Q 1906 3584 2284 3584 
Q 2666 3584 2933 3390 
Q 3200 3197 3328 2828 
z
" transform="scale(0.015625)"/>
       <path id="DejaVuSans-66" d="M 2375 4863 
L 2375 4384 
L 1825 4384 
Q 1516 4384 1395 4259 
Q 1275 4134 1275 3809 
L 1275 3500 
L 2222 3500 
L 2222 3053 
L 1275 3053 
L 1275 0 
L 697 0 
L 697 3053 
L 147 3053 
L 147 3500 
L 697 3500 
L 697 3744 
Q 697 4328 969 4595 
Q 1241 4863 1831 4863 
L 2375 4863 
z
" transform="scale(0.015625)"/>
       <path id="DejaVuSans-49" d="M 628 4666 
L 1259 4666 
L 1259 0 
L 628 0 
L 628 4666 
z
" transform="scale(0.015625)"/>
      </defs>
      <use xlink:href="#DejaVuSans-4e"/>
      <use xlink:href="#DejaVuSans-75" transform="translate(74.804688 0)"/>
      <use xlink:href="#DejaVuSans-6d" transform="translate(138.183594 0)"/>
      <use xlink:href="#DejaVuSans-62" transform="translate(235.595703 0)"/>
      <use xlink:href="#DejaVuSans-65" transform="translate(299.072266 0)"/>
      <use xlink:href="#DejaVuSans-72" transform="translate(360.595703 0)"/>
      <use xlink:href="#DejaVuSans-20" transform="translate(401.708984 0)"/>
      <use xlink:href="#DejaVuSans-6f" transform="translate(433.496094 0)"/>
      <use xlink:href="#DejaVuSans-66" transform="translate(494.677734 0)"/>
      <use xlink:href="#DejaVuSans-20" transform="translate(529.882812 0)"/>
      <use xlink:href="#DejaVuSans-46" transform="translate(561.669922 0)"/>
      <use xlink:href="#DejaVuSans-69" transform="translate(611.939453 0)"/>
      <use xlink:href="#DejaVuSans-6c" transform="translate(639.722656 0)"/>
      <use xlink:href="#DejaVuSans-6c" transform="translate(667.505859 0)"/>
      <use xlink:href="#DejaVuSans-65" transform="translate(695.289062 0)"/>
      <use xlink:href="#DejaVuSans-72" transform="translate(756.8125 0)"/>
      <use xlink:href="#DejaVuSans-20" transform="translate(797.925781 0)"/>
      <use xlink:href="#DejaVuSans-49" transform="translate(829.712891 0)"/>
      <use xlink:href="#DejaVuSans-74" transform="translate(859.205078 0)"/>
      <use xlink:href="#DejaVuSans-65" transform="translate(898.414062 0)"/>
      <use xlink:href="#DejaVuSans-6d" transform="translate(959.9375 0)"/>
      <use xlink:href="#DejaVuSans-73" transform="translate(1057.349609 0)"/>
     </g>
    </g>
   </g>
   <g id="matplotlib.axis_4">
    <g id="ytick_6">
     <g id="line2d_44">
      <path d="M 584.341212 304.296448 
L 948.749375 304.296448 
" clip-path="url(#p116cd25060)" style="fill: none; stroke-dasharray: 1.85,0.8; stroke-dashoffset: 0; stroke: #b0b0b0; stroke-opacity: 0.3; stroke-width: 0.5"/>
     </g>
     <g id="line2d_45">
      <g>
       <use xlink:href="#m3eef706958" x="584.341212" y="304.296448" style="stroke: #000000; stroke-width: 0.8"/>
      </g>
     </g>
     <g id="text_36">
      <!-- 2.2 -->
      <g transform="translate(555.076837 309.615354) scale(0.14 -0.14)">
       <use xlink:href="#DejaVuSans-32"/>
       <use xlink:href="#DejaVuSans-2e" transform="translate(63.623047 0)"/>
       <use xlink:href="#DejaVuSans-32" transform="translate(95.410156 0)"/>
      </g>
     </g>
    </g>
    <g id="ytick_7">
     <g id="line2d_46">
      <path d="M 584.341212 258.216505 
L 948.749375 258.216505 
" clip-path="url(#p116cd25060)" style="fill: none; stroke-dasharray: 1.85,0.8; stroke-dashoffset: 0; stroke: #b0b0b0; stroke-opacity: 0.3; stroke-width: 0.5"/>
     </g>
     <g id="line2d_47">
      <g>
       <use xlink:href="#m3eef706958" x="584.341212" y="258.216505" style="stroke: #000000; stroke-width: 0.8"/>
      </g>
     </g>
     <g id="text_37">
      <!-- 2.4 -->
      <g transform="translate(555.076837 263.535411) scale(0.14 -0.14)">
       <use xlink:href="#DejaVuSans-32"/>
       <use xlink:href="#DejaVuSans-2e" transform="translate(63.623047 0)"/>
       <use xlink:href="#DejaVuSans-34" transform="translate(95.410156 0)"/>
      </g>
     </g>
    </g>
    <g id="ytick_8">
     <g id="line2d_48">
      <path d="M 584.341212 212.136562 
L 948.749375 212.136562 
" clip-path="url(#p116cd25060)" style="fill: none; stroke-dasharray: 1.85,0.8; stroke-dashoffset: 0; stroke: #b0b0b0; stroke-opacity: 0.3; stroke-width: 0.5"/>
     </g>
     <g id="line2d_49">
      <g>
       <use xlink:href="#m3eef706958" x="584.341212" y="212.136562" style="stroke: #000000; stroke-width: 0.8"/>
      </g>
     </g>
     <g id="text_38">
      <!-- 2.6 -->
      <g transform="translate(555.076837 217.455468) scale(0.14 -0.14)">
       <use xlink:href="#DejaVuSans-32"/>
       <use xlink:href="#DejaVuSans-2e" transform="translate(63.623047 0)"/>
       <use xlink:href="#DejaVuSans-36" transform="translate(95.410156 0)"/>
      </g>
     </g>
    </g>
    <g id="ytick_9">
     <g id="line2d_50">
      <path d="M 584.341212 166.056619 
L 948.749375 166.056619 
" clip-path="url(#p116cd25060)" style="fill: none; stroke-dasharray: 1.85,0.8; stroke-dashoffset: 0; stroke: #b0b0b0; stroke-opacity: 0.3; stroke-width: 0.5"/>
     </g>
     <g id="line2d_51">
      <g>
       <use xlink:href="#m3eef706958" x="584.341212" y="166.056619" style="stroke: #000000; stroke-width: 0.8"/>
      </g>
     </g>
     <g id="text_39">
      <!-- 2.8 -->
      <g transform="translate(555.076837 171.375525) scale(0.14 -0.14)">
       <use xlink:href="#DejaVuSans-32"/>
       <use xlink:href="#DejaVuSans-2e" transform="translate(63.623047 0)"/>
       <use xlink:href="#DejaVuSans-38" transform="translate(95.410156 0)"/>
      </g>
     </g>
    </g>
    <g id="ytick_10">
     <g id="line2d_52">
      <path d="M 584.341212 119.976676 
L 948.749375 119.976676 
" clip-path="url(#p116cd25060)" style="fill: none; stroke-dasharray: 1.85,0.8; stroke-dashoffset: 0; stroke: #b0b0b0; stroke-opacity: 0.3; stroke-width: 0.5"/>
     </g>
     <g id="line2d_53">
      <g>
       <use xlink:href="#m3eef706958" x="584.341212" y="119.976676" style="stroke: #000000; stroke-width: 0.8"/>
      </g>
     </g>
     <g id="text_40">
      <!-- 3.0 -->
      <g transform="translate(555.076837 125.295582) scale(0.14 -0.14)">
       <use xlink:href="#DejaVuSans-33"/>
       <use xlink:href="#DejaVuSans-2e" transform="translate(63.623047 0)"/>
       <use xlink:href="#DejaVuSans-30" transform="translate(95.410156 0)"/>
      </g>
     </g>
    </g>
    <g id="ytick_11">
     <g id="line2d_54">
      <path d="M 584.341212 73.896733 
L 948.749375 73.896733 
" clip-path="url(#p116cd25060)" style="fill: none; stroke-dasharray: 1.85,0.8; stroke-dashoffset: 0; stroke: #b0b0b0; stroke-opacity: 0.3; stroke-width: 0.5"/>
     </g>
     <g id="line2d_55">
      <g>
       <use xlink:href="#m3eef706958" x="584.341212" y="73.896733" style="stroke: #000000; stroke-width: 0.8"/>
      </g>
     </g>
     <g id="text_41">
      <!-- 3.2 -->
      <g transform="translate(555.076837 79.215639) scale(0.14 -0.14)">
       <use xlink:href="#DejaVuSans-33"/>
       <use xlink:href="#DejaVuSans-2e" transform="translate(63.623047 0)"/>
       <use xlink:href="#DejaVuSans-32" transform="translate(95.410156 0)"/>
      </g>
     </g>
    </g>
    <g id="text_42">
     <!-- Film Items Recalled -->
     <g transform="translate(547.749337 270.54875) rotate(-90) scale(0.16 -0.16)">
      <use xlink:href="#DejaVuSans-46"/>
      <use xlink:href="#DejaVuSans-69" transform="translate(50.269531 0)"/>
      <use xlink:href="#DejaVuSans-6c" transform="translate(78.052734 0)"/>
      <use xlink:href="#DejaVuSans-6d" transform="translate(105.835938 0)"/>
      <use xlink:href="#DejaVuSans-20" transform="translate(203.248047 0)"/>
      <use xlink:href="#DejaVuSans-49" transform="translate(235.035156 0)"/>
      <use xlink:href="#DejaVuSans-74" transform="translate(264.527344 0)"/>
      <use xlink:href="#DejaVuSans-65" transform="translate(303.736328 0)"/>
      <use xlink:href="#DejaVuSans-6d" transform="translate(365.259766 0)"/>
      <use xlink:href="#DejaVuSans-73" transform="translate(462.671875 0)"/>
      <use xlink:href="#DejaVuSans-20" transform="translate(514.771484 0)"/>
      <use xlink:href="#DejaVuSans-52" transform="translate(546.558594 0)"/>
      <use xlink:href="#DejaVuSans-65" transform="translate(611.541016 0)"/>
      <use xlink:href="#DejaVuSans-63" transform="translate(673.064453 0)"/>
      <use xlink:href="#DejaVuSans-61" transform="translate(728.044922 0)"/>
      <use xlink:href="#DejaVuSans-6c" transform="translate(789.324219 0)"/>
      <use xlink:href="#DejaVuSans-6c" transform="translate(817.107422 0)"/>
      <use xlink:href="#DejaVuSans-65" transform="translate(844.890625 0)"/>
      <use xlink:href="#DejaVuSans-64" transform="translate(906.414062 0)"/>
     </g>
    </g>
   </g>
   <g id="line2d_56">
    <path d="M 600.905219 105.07385 
L 642.315238 124.182402 
L 683.725256 145.540017 
L 725.135275 181.617701 
L 766.545293 207.674877 
L 807.955312 226.984478 
L 849.36533 249.896437 
L 890.775349 264.872432 
L 932.185368 288.387869 
" clip-path="url(#p116cd25060)" style="fill: none; stroke: #000000; stroke-width: 1.5; stroke-linecap: square"/>
    <defs>
     <path id="mfa699ca918" d="M 0 2.5 
C 0.663008 2.5 1.29895 2.236584 1.767767 1.767767 
C 2.236584 1.29895 2.5 0.663008 2.5 0 
C 2.5 -0.663008 2.236584 -1.29895 1.767767 -1.767767 
C 1.29895 -2.236584 0.663008 -2.5 0 -2.5 
C -0.663008 -2.5 -1.29895 -2.236584 -1.767767 -1.767767 
C -2.236584 -1.29895 -2.5 -0.663008 -2.5 0 
C -2.5 0.663008 -2.236584 1.29895 -1.767767 1.767767 
C -1.29895 2.236584 -0.663008 2.5 0 2.5 
z
" style="stroke: #000000"/>
    </defs>
    <g clip-path="url(#p116cd25060)">
     <use xlink:href="#mfa699ca918" x="600.905219" y="105.07385" style="stroke: #000000"/>
     <use xlink:href="#mfa699ca918" x="642.315238" y="124.182402" style="stroke: #000000"/>
     <use xlink:href="#mfa699ca918" x="683.725256" y="145.540017" style="stroke: #000000"/>
     <use xlink:href="#mfa699ca918" x="725.135275" y="181.617701" style="stroke: #000000"/>
     <use xlink:href="#mfa699ca918" x="766.545293" y="207.674877" style="stroke: #000000"/>
     <use xlink:href="#mfa699ca918" x="807.955312" y="226.984478" style="stroke: #000000"/>
     <use xlink:href="#mfa699ca918" x="849.36533" y="249.896437" style="stroke: #000000"/>
     <use xlink:href="#mfa699ca918" x="890.775349" y="264.872432" style="stroke: #000000"/>
     <use xlink:href="#mfa699ca918" x="932.185368" y="288.387869" style="stroke: #000000"/>
    </g>
   </g>
   <g id="patch_7">
    <path d="M 584.341212 331.5575 
L 584.341212 54.3575 
" style="fill: none; stroke: #000000; stroke-width: 0.8; stroke-linejoin: miter; stroke-linecap: square"/>
   </g>
   <g id="patch_8">
    <path d="M 584.341212 331.5575 
L 948.749375 331.5575 
" style="fill: none; stroke: #000000; stroke-width: 0.8; stroke-linejoin: miter; stroke-linecap: square"/>
   </g>
   <g id="text_43">
    <!-- Film Items Recalled -->
    <g transform="translate(688.954043 19.3575) scale(0.16 -0.16)">
     <use xlink:href="#DejaVuSans-46"/>
     <use xlink:href="#DejaVuSans-69" transform="translate(50.269531 0)"/>
     <use xlink:href="#DejaVuSans-6c" transform="translate(78.052734 0)"/>
     <use xlink:href="#DejaVuSans-6d" transform="translate(105.835938 0)"/>
     <use xlink:href="#DejaVuSans-20" transform="translate(203.248047 0)"/>
     <use xlink:href="#DejaVuSans-49" transform="translate(235.035156 0)"/>
     <use xlink:href="#DejaVuSans-74" transform="translate(264.527344 0)"/>
     <use xlink:href="#DejaVuSans-65" transform="translate(303.736328 0)"/>
     <use xlink:href="#DejaVuSans-6d" transform="translate(365.259766 0)"/>
     <use xlink:href="#DejaVuSans-73" transform="translate(462.671875 0)"/>
     <use xlink:href="#DejaVuSans-20" transform="translate(514.771484 0)"/>
     <use xlink:href="#DejaVuSans-52" transform="translate(546.558594 0)"/>
     <use xlink:href="#DejaVuSans-65" transform="translate(611.541016 0)"/>
     <use xlink:href="#DejaVuSans-63" transform="translate(673.064453 0)"/>
     <use xlink:href="#DejaVuSans-61" transform="translate(728.044922 0)"/>
     <use xlink:href="#DejaVuSans-6c" transform="translate(789.324219 0)"/>
     <use xlink:href="#DejaVuSans-6c" transform="translate(817.107422 0)"/>
     <use xlink:href="#DejaVuSans-65" transform="translate(844.890625 0)"/>
     <use xlink:href="#DejaVuSans-64" transform="translate(906.414062 0)"/>
    </g>
   </g>
  </g>
 </g>
 <defs>
  <clipPath id="pb822f2147c">
   <rect x="55.949375" y="54.3575" width="364.408163" height="277.2"/>
  </clipPath>
  <clipPath id="p116cd25060">
   <rect x="584.341212" y="54.3575" width="364.408163" height="277.2"/>
  </clipPath>
 </defs>
</svg>
