<?xml version="1.0" encoding="utf-8" standalone="no"?>
<!DOCTYPE svg PUBLIC "-//W3C//DTD SVG 1.1//EN"
  "http://www.w3.org/Graphics/SVG/1.1/DTD/svg11.dtd">
<svg xmlns:xlink="http://www.w3.org/1999/xlink" width="964.856875pt" height="378.791875pt" viewBox="0 0 964.856875 378.791875" xmlns="http://www.w3.org/2000/svg" version="1.1">
 <metadata>
  <rdf:RDF xmlns:dc="http://purl.org/dc/elements/1.1/" xmlns:cc="http://creativecommons.org/ns#" xmlns:rdf="http://www.w3.org/1999/02/22-rdf-syntax-ns#">
   <cc:Work>
    <dc:type rdf:resource="http://purl.org/dc/dcmitype/StillImage"/>
    <dc:date>2026-02-19T13:32:34.960096</dc:date>
    <dc:format>image/svg+xml</dc:format>
    <dc:creator>
     <cc:Agent>
      <dc:title>Matplotlib v3.10.1, https://matplotlib.org/</dc:title>
     </cc:Agent>
    </dc:creator>
   </cc:Work>
  </rdf:RDF>
 </metadata>
 <defs>
  <style type="text/css">*{stroke-linejoin: round; stroke-linecap: butt}</style>
 </defs>
 <g id="figure_1">
  <g id="patch_1">
   <path d="M 0 378.791875 
L 964.856875 378.791875 
L 964.856875 0 
L 0 0 
z
" style="fill: #ffffff"/>
  </g>
  <g id="axes_1">
   <g id="patch_2">
    <path d="M 64.856875 331.5575 
L 429.265038 331.5575 
L 429.265038 54.3575 
L 64.856875 54.3575 
z
" style="fill: #ffffff"/>
   </g>
   <g id="matplotlib.axis_1">
    <g id="xtick_1">
     <g id="line2d_1">
      <defs>
       <path id="mc1cc53905b" d="M 0 0 
L 0 3.5 
" style="stroke: #000000; stroke-width: 0.8"/>
      </defs>
      <g>
       <use xlink:href="#mc1cc53905b" x="74.372369" y="331.5575" style="stroke: #000000; stroke-width: 0.8"/>
      </g>
     </g>
     <g id="text_1">
      <!-- 0 -->
      <g transform="translate(69.918619 349.195312) scale(0.14 -0.14)">
       <defs>
        <path id="DejaVuSans-30" d="M 2034 4250 
Q 1547 4250 1301 3770 
Q 1056 3291 1056 2328 
Q 1056 1369 1301 889 
Q 1547 409 2034 409 
Q 2525 409 2770 889 
Q 3016 1369 3016 2328 
Q 3016 3291 2770 3770 
Q 2525 4250 2034 4250 
z
M 2034 4750 
Q 2819 4750 3233 4129 
Q 3647 3509 3647 2328 
Q 3647 1150 3233 529 
Q 2819 -91 2034 -91 
Q 1250 -91 836 529 
Q 422 1150 422 2328 
Q 422 3509 836 4129 
Q 1250 4750 2034 4750 
z
" transform="scale(0.015625)"/>
       </defs>
       <use xlink:href="#DejaVuSans-30"/>
      </g>
     </g>
    </g>
    <g id="xtick_2">
     <g id="line2d_2">
      <g>
       <use xlink:href="#mc1cc53905b" x="144.857507" y="331.5575" style="stroke: #000000; stroke-width: 0.8"/>
      </g>
     </g>
     <g id="text_2">
      <!-- 10 -->
      <g transform="translate(135.950007 349.195312) scale(0.14 -0.14)">
       <defs>
        <path id="DejaVuSans-31" d="M 794 531 
L 1825 531 
L 1825 4091 
L 703 3866 
L 703 4441 
L 1819 4666 
L 2450 4666 
L 2450 531 
L 3481 531 
L 3481 0 
L 794 0 
L 794 531 
z
" transform="scale(0.015625)"/>
       </defs>
       <use xlink:href="#DejaVuSans-31"/>
       <use xlink:href="#DejaVuSans-30" transform="translate(63.623047 0)"/>
      </g>
     </g>
    </g>
    <g id="xtick_3">
     <g id="line2d_3">
      <g>
       <use xlink:href="#mc1cc53905b" x="215.342645" y="331.5575" style="stroke: #000000; stroke-width: 0.8"/>
      </g>
     </g>
     <g id="text_3">
      <!-- 20 -->
      <g transform="translate(206.435145 349.195312) scale(0.14 -0.14)">
       <defs>
        <path id="DejaVuSans-32" d="M 1228 531 
L 3431 531 
L 3431 0 
L 469 0 
L 469 531 
Q 828 903 1448 1529 
Q 2069 2156 2228 2338 
Q 2531 2678 2651 2914 
Q 2772 3150 2772 3378 
Q 2772 3750 2511 3984 
Q 2250 4219 1831 4219 
Q 1534 4219 1204 4116 
Q 875 4013 500 3803 
L 500 4441 
Q 881 4594 1212 4672 
Q 1544 4750 1819 4750 
Q 2544 4750 2975 4387 
Q 3406 4025 3406 3419 
Q 3406 3131 3298 2873 
Q 3191 2616 2906 2266 
Q 2828 2175 2409 1742 
Q 1991 1309 1228 531 
z
" transform="scale(0.015625)"/>
       </defs>
       <use xlink:href="#DejaVuSans-32"/>
       <use xlink:href="#DejaVuSans-30" transform="translate(63.623047 0)"/>
      </g>
     </g>
    </g>
    <g id="xtick_4">
     <g id="line2d_4">
      <g>
       <use xlink:href="#mc1cc53905b" x="285.827783" y="331.5575" style="stroke: #000000; stroke-width: 0.8"/>
      </g>
     </g>
     <g id="text_4">
      <!-- 30 -->
      <g transform="translate(276.920283 349.195312) scale(0.14 -0.14)">
       <defs>
        <path id="DejaVuSans-33" d="M 2597 2516 
Q 3050 2419 3304 2112 
Q 3559 1806 3559 1356 
Q 3559 666 3084 287 
Q 2609 -91 1734 -91 
Q 1441 -91 1130 -33 
Q 819 25 488 141 
L 488 750 
Q 750 597 1062 519 
Q 1375 441 1716 441 
Q 2309 441 2620 675 
Q 2931 909 2931 1356 
Q 2931 1769 2642 2001 
Q 2353 2234 1838 2234 
L 1294 2234 
L 1294 2753 
L 1863 2753 
Q 2328 2753 2575 2939 
Q 2822 3125 2822 3475 
Q 2822 3834 2567 4026 
Q 2313 4219 1838 4219 
Q 1578 4219 1281 4162 
Q 984 4106 628 3988 
L 628 4550 
Q 988 4650 1302 4700 
Q 1616 4750 1894 4750 
Q 2613 4750 3031 4423 
Q 3450 4097 3450 3541 
Q 3450 3153 3228 2886 
Q 3006 2619 2597 2516 
z
" transform="scale(0.015625)"/>
       </defs>
       <use xlink:href="#DejaVuSans-33"/>
       <use xlink:href="#DejaVuSans-30" transform="translate(63.623047 0)"/>
      </g>
     </g>
    </g>
    <g id="xtick_5">
     <g id="line2d_5">
      <g>
       <use xlink:href="#mc1cc53905b" x="356.31292" y="331.5575" style="stroke: #000000; stroke-width: 0.8"/>
      </g>
     </g>
     <g id="text_5">
      <!-- 40 -->
      <g transform="translate(347.40542 349.195312) scale(0.14 -0.14)">
       <defs>
        <path id="DejaVuSans-34" d="M 2419 4116 
L 825 1625 
L 2419 1625 
L 2419 4116 
z
M 2253 4666 
L 3047 4666 
L 3047 1625 
L 3713 1625 
L 3713 1100 
L 3047 1100 
L 3047 0 
L 2419 0 
L 2419 1100 
L 313 1100 
L 313 1709 
L 2253 4666 
z
" transform="scale(0.015625)"/>
       </defs>
       <use xlink:href="#DejaVuSans-34"/>
       <use xlink:href="#DejaVuSans-30" transform="translate(63.623047 0)"/>
      </g>
     </g>
    </g>
    <g id="xtick_6">
     <g id="line2d_6">
      <g>
       <use xlink:href="#mc1cc53905b" x="426.798058" y="331.5575" style="stroke: #000000; stroke-width: 0.8"/>
      </g>
     </g>
     <g id="text_6">
      <!-- 50 -->
      <g transform="translate(417.890558 349.195312) scale(0.14 -0.14)">
       <defs>
        <path id="DejaVuSans-35" d="M 691 4666 
L 3169 4666 
L 3169 4134 
L 1269 4134 
L 1269 2991 
Q 1406 3038 1543 3061 
Q 1681 3084 1819 3084 
Q 2600 3084 3056 2656 
Q 3513 2228 3513 1497 
Q 3513 744 3044 326 
Q 2575 -91 1722 -91 
Q 1428 -91 1123 -41 
Q 819 9 494 109 
L 494 744 
Q 775 591 1075 516 
Q 1375 441 1709 441 
Q 2250 441 2565 725 
Q 2881 1009 2881 1497 
Q 2881 1984 2565 2268 
Q 2250 2553 1709 2553 
Q 1456 2553 1204 2497 
Q 953 2441 691 2322 
L 691 4666 
z
" transform="scale(0.015625)"/>
       </defs>
       <use xlink:href="#DejaVuSans-35"/>
       <use xlink:href="#DejaVuSans-30" transform="translate(63.623047 0)"/>
      </g>
     </g>
    </g>
    <g id="text_7">
     <!-- Study Position -->
     <g transform="translate(190.277207 368.264375) scale(0.16 -0.16)">
      <defs>
       <path id="DejaVuSans-53" d="M 3425 4513 
L 3425 3897 
Q 3066 4069 2747 4153 
Q 2428 4238 2131 4238 
Q 1616 4238 1336 4038 
Q 1056 3838 1056 3469 
Q 1056 3159 1242 3001 
Q 1428 2844 1947 2747 
L 2328 2669 
Q 3034 2534 3370 2195 
Q 3706 1856 3706 1288 
Q 3706 609 3251 259 
Q 2797 -91 1919 -91 
Q 1588 -91 1214 -16 
Q 841 59 441 206 
L 441 856 
Q 825 641 1194 531 
Q 1563 422 1919 422 
Q 2459 422 2753 634 
Q 3047 847 3047 1241 
Q 3047 1584 2836 1778 
Q 2625 1972 2144 2069 
L 1759 2144 
Q 1053 2284 737 2584 
Q 422 2884 422 3419 
Q 422 4038 858 4394 
Q 1294 4750 2059 4750 
Q 2388 4750 2728 4690 
Q 3069 4631 3425 4513 
z
" transform="scale(0.015625)"/>
       <path id="DejaVuSans-74" d="M 1172 4494 
L 1172 3500 
L 2356 3500 
L 2356 3053 
L 1172 3053 
L 1172 1153 
Q 1172 725 1289 603 
Q 1406 481 1766 481 
L 2356 481 
L 2356 0 
L 1766 0 
Q 1100 0 847 248 
Q 594 497 594 1153 
L 594 3053 
L 172 3053 
L 172 3500 
L 594 3500 
L 594 4494 
L 1172 4494 
z
" transform="scale(0.015625)"/>
       <path id="DejaVuSans-75" d="M 544 1381 
L 544 3500 
L 1119 3500 
L 1119 1403 
Q 1119 906 1312 657 
Q 1506 409 1894 409 
Q 2359 409 2629 706 
Q 2900 1003 2900 1516 
L 2900 3500 
L 3475 3500 
L 3475 0 
L 2900 0 
L 2900 538 
Q 2691 219 2414 64 
Q 2138 -91 1772 -91 
Q 1169 -91 856 284 
Q 544 659 544 1381 
z
M 1991 3584 
L 1991 3584 
z
" transform="scale(0.015625)"/>
       <path id="DejaVuSans-64" d="M 2906 2969 
L 2906 4863 
L 3481 4863 
L 3481 0 
L 2906 0 
L 2906 525 
Q 2725 213 2448 61 
Q 2172 -91 1784 -91 
Q 1150 -91 751 415 
Q 353 922 353 1747 
Q 353 2572 751 3078 
Q 1150 3584 1784 3584 
Q 2172 3584 2448 3432 
Q 2725 3281 2906 2969 
z
M 947 1747 
Q 947 1113 1208 752 
Q 1469 391 1925 391 
Q 2381 391 2643 752 
Q 2906 1113 2906 1747 
Q 2906 2381 2643 2742 
Q 2381 3103 1925 3103 
Q 1469 3103 1208 2742 
Q 947 2381 947 1747 
z
" transform="scale(0.015625)"/>
       <path id="DejaVuSans-79" d="M 2059 -325 
Q 1816 -950 1584 -1140 
Q 1353 -1331 966 -1331 
L 506 -1331 
L 506 -850 
L 844 -850 
Q 1081 -850 1212 -737 
Q 1344 -625 1503 -206 
L 1606 56 
L 191 3500 
L 800 3500 
L 1894 763 
L 2988 3500 
L 3597 3500 
L 2059 -325 
z
" transform="scale(0.015625)"/>
       <path id="DejaVuSans-20" transform="scale(0.015625)"/>
       <path id="DejaVuSans-50" d="M 1259 4147 
L 1259 2394 
L 2053 2394 
Q 2494 2394 2734 2622 
Q 2975 2850 2975 3272 
Q 2975 3691 2734 3919 
Q 2494 4147 2053 4147 
L 1259 4147 
z
M 628 4666 
L 2053 4666 
Q 2838 4666 3239 4311 
Q 3641 3956 3641 3272 
Q 3641 2581 3239 2228 
Q 2838 1875 2053 1875 
L 1259 1875 
L 1259 0 
L 628 0 
L 628 4666 
z
" transform="scale(0.015625)"/>
       <path id="DejaVuSans-6f" d="M 1959 3097 
Q 1497 3097 1228 2736 
Q 959 2375 959 1747 
Q 959 1119 1226 758 
Q 1494 397 1959 397 
Q 2419 397 2687 759 
Q 2956 1122 2956 1747 
Q 2956 2369 2687 2733 
Q 2419 3097 1959 3097 
z
M 1959 3584 
Q 2709 3584 3137 3096 
Q 3566 2609 3566 1747 
Q 3566 888 3137 398 
Q 2709 -91 1959 -91 
Q 1206 -91 779 398 
Q 353 888 353 1747 
Q 353 2609 779 3096 
Q 1206 3584 1959 3584 
z
" transform="scale(0.015625)"/>
       <path id="DejaVuSans-73" d="M 2834 3397 
L 2834 2853 
Q 2591 2978 2328 3040 
Q 2066 3103 1784 3103 
Q 1356 3103 1142 2972 
Q 928 2841 928 2578 
Q 928 2378 1081 2264 
Q 1234 2150 1697 2047 
L 1894 2003 
Q 2506 1872 2764 1633 
Q 3022 1394 3022 966 
Q 3022 478 2636 193 
Q 2250 -91 1575 -91 
Q 1294 -91 989 -36 
Q 684 19 347 128 
L 347 722 
Q 666 556 975 473 
Q 1284 391 1588 391 
Q 1994 391 2212 530 
Q 2431 669 2431 922 
Q 2431 1156 2273 1281 
Q 2116 1406 1581 1522 
L 1381 1569 
Q 847 1681 609 1914 
Q 372 2147 372 2553 
Q 372 3047 722 3315 
Q 1072 3584 1716 3584 
Q 2034 3584 2315 3537 
Q 2597 3491 2834 3397 
z
" transform="scale(0.015625)"/>
       <path id="DejaVuSans-69" d="M 603 3500 
L 1178 3500 
L 1178 0 
L 603 0 
L 603 3500 
z
M 603 4863 
L 1178 4863 
L 1178 4134 
L 603 4134 
L 603 4863 
z
" transform="scale(0.015625)"/>
       <path id="DejaVuSans-6e" d="M 3513 2113 
L 3513 0 
L 2938 0 
L 2938 2094 
Q 2938 2591 2744 2837 
Q 2550 3084 2163 3084 
Q 1697 3084 1428 2787 
Q 1159 2491 1159 1978 
L 1159 0 
L 581 0 
L 581 3500 
L 1159 3500 
L 1159 2956 
Q 1366 3272 1645 3428 
Q 1925 3584 2291 3584 
Q 2894 3584 3203 3211 
Q 3513 2838 3513 2113 
z
" transform="scale(0.015625)"/>
      </defs>
      <use xlink:href="#DejaVuSans-53"/>
      <use xlink:href="#DejaVuSans-74" transform="translate(63.476562 0)"/>
      <use xlink:href="#DejaVuSans-75" transform="translate(102.685547 0)"/>
      <use xlink:href="#DejaVuSans-64" transform="translate(166.064453 0)"/>
      <use xlink:href="#DejaVuSans-79" transform="translate(229.541016 0)"/>
      <use xlink:href="#DejaVuSans-20" transform="translate(288.720703 0)"/>
      <use xlink:href="#DejaVuSans-50" transform="translate(320.507812 0)"/>
      <use xlink:href="#DejaVuSans-6f" transform="translate(377.185547 0)"/>
      <use xlink:href="#DejaVuSans-73" transform="translate(438.367188 0)"/>
      <use xlink:href="#DejaVuSans-69" transform="translate(490.466797 0)"/>
      <use xlink:href="#DejaVuSans-74" transform="translate(518.25 0)"/>
      <use xlink:href="#DejaVuSans-69" transform="translate(557.458984 0)"/>
      <use xlink:href="#DejaVuSans-6f" transform="translate(585.242188 0)"/>
      <use xlink:href="#DejaVuSans-6e" transform="translate(646.423828 0)"/>
     </g>
    </g>
   </g>
   <g id="matplotlib.axis_2">
    <g id="ytick_1">
     <g id="line2d_7">
      <path d="M 64.856875 322.249967 
L 429.265038 322.249967 
" clip-path="url(#p0dbd703579)" style="fill: none; stroke-dasharray: 1.85,0.8; stroke-dashoffset: 0; stroke: #b0b0b0; stroke-opacity: 0.3; stroke-width: 0.5"/>
     </g>
     <g id="line2d_8">
      <defs>
       <path id="m080c426b19" d="M 0 0 
L -3.5 0 
" style="stroke: #000000; stroke-width: 0.8"/>
      </defs>
      <g>
       <use xlink:href="#m080c426b19" x="64.856875" y="322.249967" style="stroke: #000000; stroke-width: 0.8"/>
      </g>
     </g>
     <g id="text_8">
      <!-- 0.12 -->
      <g transform="translate(26.685 327.568874) scale(0.14 -0.14)">
       <defs>
        <path id="DejaVuSans-2e" d="M 684 794 
L 1344 794 
L 1344 0 
L 684 0 
L 684 794 
z
" transform="scale(0.015625)"/>
       </defs>
       <use xlink:href="#DejaVuSans-30"/>
       <use xlink:href="#DejaVuSans-2e" transform="translate(63.623047 0)"/>
       <use xlink:href="#DejaVuSans-31" transform="translate(95.410156 0)"/>
       <use xlink:href="#DejaVuSans-32" transform="translate(159.033203 0)"/>
      </g>
     </g>
    </g>
    <g id="ytick_2">
     <g id="line2d_9">
      <path d="M 64.856875 290.338409 
L 429.265038 290.338409 
" clip-path="url(#p0dbd703579)" style="fill: none; stroke-dasharray: 1.85,0.8; stroke-dashoffset: 0; stroke: #b0b0b0; stroke-opacity: 0.3; stroke-width: 0.5"/>
     </g>
     <g id="line2d_10">
      <g>
       <use xlink:href="#m080c426b19" x="64.856875" y="290.338409" style="stroke: #000000; stroke-width: 0.8"/>
      </g>
     </g>
     <g id="text_9">
      <!-- 0.14 -->
      <g transform="translate(26.685 295.657315) scale(0.14 -0.14)">
       <use xlink:href="#DejaVuSans-30"/>
       <use xlink:href="#DejaVuSans-2e" transform="translate(63.623047 0)"/>
       <use xlink:href="#DejaVuSans-31" transform="translate(95.410156 0)"/>
       <use xlink:href="#DejaVuSans-34" transform="translate(159.033203 0)"/>
      </g>
     </g>
    </g>
    <g id="ytick_3">
     <g id="line2d_11">
      <path d="M 64.856875 258.426851 
L 429.265038 258.426851 
" clip-path="url(#p0dbd703579)" style="fill: none; stroke-dasharray: 1.85,0.8; stroke-dashoffset: 0; stroke: #b0b0b0; stroke-opacity: 0.3; stroke-width: 0.5"/>
     </g>
     <g id="line2d_12">
      <g>
       <use xlink:href="#m080c426b19" x="64.856875" y="258.426851" style="stroke: #000000; stroke-width: 0.8"/>
      </g>
     </g>
     <g id="text_10">
      <!-- 0.16 -->
      <g transform="translate(26.685 263.745757) scale(0.14 -0.14)">
       <defs>
        <path id="DejaVuSans-36" d="M 2113 2584 
Q 1688 2584 1439 2293 
Q 1191 2003 1191 1497 
Q 1191 994 1439 701 
Q 1688 409 2113 409 
Q 2538 409 2786 701 
Q 3034 994 3034 1497 
Q 3034 2003 2786 2293 
Q 2538 2584 2113 2584 
z
M 3366 4563 
L 3366 3988 
Q 3128 4100 2886 4159 
Q 2644 4219 2406 4219 
Q 1781 4219 1451 3797 
Q 1122 3375 1075 2522 
Q 1259 2794 1537 2939 
Q 1816 3084 2150 3084 
Q 2853 3084 3261 2657 
Q 3669 2231 3669 1497 
Q 3669 778 3244 343 
Q 2819 -91 2113 -91 
Q 1303 -91 875 529 
Q 447 1150 447 2328 
Q 447 3434 972 4092 
Q 1497 4750 2381 4750 
Q 2619 4750 2861 4703 
Q 3103 4656 3366 4563 
z
" transform="scale(0.015625)"/>
       </defs>
       <use xlink:href="#DejaVuSans-30"/>
       <use xlink:href="#DejaVuSans-2e" transform="translate(63.623047 0)"/>
       <use xlink:href="#DejaVuSans-31" transform="translate(95.410156 0)"/>
       <use xlink:href="#DejaVuSans-36" transform="translate(159.033203 0)"/>
      </g>
     </g>
    </g>
    <g id="ytick_4">
     <g id="line2d_13">
      <path d="M 64.856875 226.515293 
L 429.265038 226.515293 
" clip-path="url(#p0dbd703579)" style="fill: none; stroke-dasharray: 1.85,0.8; stroke-dashoffset: 0; stroke: #b0b0b0; stroke-opacity: 0.3; stroke-width: 0.5"/>
     </g>
     <g id="line2d_14">
      <g>
       <use xlink:href="#m080c426b19" x="64.856875" y="226.515293" style="stroke: #000000; stroke-width: 0.8"/>
      </g>
     </g>
     <g id="text_11">
      <!-- 0.18 -->
      <g transform="translate(26.685 231.834199) scale(0.14 -0.14)">
       <defs>
        <path id="DejaVuSans-38" d="M 2034 2216 
Q 1584 2216 1326 1975 
Q 1069 1734 1069 1313 
Q 1069 891 1326 650 
Q 1584 409 2034 409 
Q 2484 409 2743 651 
Q 3003 894 3003 1313 
Q 3003 1734 2745 1975 
Q 2488 2216 2034 2216 
z
M 1403 2484 
Q 997 2584 770 2862 
Q 544 3141 544 3541 
Q 544 4100 942 4425 
Q 1341 4750 2034 4750 
Q 2731 4750 3128 4425 
Q 3525 4100 3525 3541 
Q 3525 3141 3298 2862 
Q 3072 2584 2669 2484 
Q 3125 2378 3379 2068 
Q 3634 1759 3634 1313 
Q 3634 634 3220 271 
Q 2806 -91 2034 -91 
Q 1263 -91 848 271 
Q 434 634 434 1313 
Q 434 1759 690 2068 
Q 947 2378 1403 2484 
z
M 1172 3481 
Q 1172 3119 1398 2916 
Q 1625 2713 2034 2713 
Q 2441 2713 2670 2916 
Q 2900 3119 2900 3481 
Q 2900 3844 2670 4047 
Q 2441 4250 2034 4250 
Q 1625 4250 1398 4047 
Q 1172 3844 1172 3481 
z
" transform="scale(0.015625)"/>
       </defs>
       <use xlink:href="#DejaVuSans-30"/>
       <use xlink:href="#DejaVuSans-2e" transform="translate(63.623047 0)"/>
       <use xlink:href="#DejaVuSans-31" transform="translate(95.410156 0)"/>
       <use xlink:href="#DejaVuSans-38" transform="translate(159.033203 0)"/>
      </g>
     </g>
    </g>
    <g id="ytick_5">
     <g id="line2d_15">
      <path d="M 64.856875 194.603735 
L 429.265038 194.603735 
" clip-path="url(#p0dbd703579)" style="fill: none; stroke-dasharray: 1.85,0.8; stroke-dashoffset: 0; stroke: #b0b0b0; stroke-opacity: 0.3; stroke-width: 0.5"/>
     </g>
     <g id="line2d_16">
      <g>
       <use xlink:href="#m080c426b19" x="64.856875" y="194.603735" style="stroke: #000000; stroke-width: 0.8"/>
      </g>
     </g>
     <g id="text_12">
      <!-- 0.20 -->
      <g transform="translate(26.685 199.922641) scale(0.14 -0.14)">
       <use xlink:href="#DejaVuSans-30"/>
       <use xlink:href="#DejaVuSans-2e" transform="translate(63.623047 0)"/>
       <use xlink:href="#DejaVuSans-32" transform="translate(95.410156 0)"/>
       <use xlink:href="#DejaVuSans-30" transform="translate(159.033203 0)"/>
      </g>
     </g>
    </g>
    <g id="ytick_6">
     <g id="line2d_17">
      <path d="M 64.856875 162.692176 
L 429.265038 162.692176 
" clip-path="url(#p0dbd703579)" style="fill: none; stroke-dasharray: 1.85,0.8; stroke-dashoffset: 0; stroke: #b0b0b0; stroke-opacity: 0.3; stroke-width: 0.5"/>
     </g>
     <g id="line2d_18">
      <g>
       <use xlink:href="#m080c426b19" x="64.856875" y="162.692176" style="stroke: #000000; stroke-width: 0.8"/>
      </g>
     </g>
     <g id="text_13">
      <!-- 0.22 -->
      <g transform="translate(26.685 168.011083) scale(0.14 -0.14)">
       <use xlink:href="#DejaVuSans-30"/>
       <use xlink:href="#DejaVuSans-2e" transform="translate(63.623047 0)"/>
       <use xlink:href="#DejaVuSans-32" transform="translate(95.410156 0)"/>
       <use xlink:href="#DejaVuSans-32" transform="translate(159.033203 0)"/>
      </g>
     </g>
    </g>
    <g id="ytick_7">
     <g id="line2d_19">
      <path d="M 64.856875 130.780618 
L 429.265038 130.780618 
" clip-path="url(#p0dbd703579)" style="fill: none; stroke-dasharray: 1.85,0.8; stroke-dashoffset: 0; stroke: #b0b0b0; stroke-opacity: 0.3; stroke-width: 0.5"/>
     </g>
     <g id="line2d_20">
      <g>
       <use xlink:href="#m080c426b19" x="64.856875" y="130.780618" style="stroke: #000000; stroke-width: 0.8"/>
      </g>
     </g>
     <g id="text_14">
      <!-- 0.24 -->
      <g transform="translate(26.685 136.099525) scale(0.14 -0.14)">
       <use xlink:href="#DejaVuSans-30"/>
       <use xlink:href="#DejaVuSans-2e" transform="translate(63.623047 0)"/>
       <use xlink:href="#DejaVuSans-32" transform="translate(95.410156 0)"/>
       <use xlink:href="#DejaVuSans-34" transform="translate(159.033203 0)"/>
      </g>
     </g>
    </g>
    <g id="ytick_8">
     <g id="line2d_21">
      <path d="M 64.856875 98.86906 
L 429.265038 98.86906 
" clip-path="url(#p0dbd703579)" style="fill: none; stroke-dasharray: 1.85,0.8; stroke-dashoffset: 0; stroke: #b0b0b0; stroke-opacity: 0.3; stroke-width: 0.5"/>
     </g>
     <g id="line2d_22">
      <g>
       <use xlink:href="#m080c426b19" x="64.856875" y="98.86906" style="stroke: #000000; stroke-width: 0.8"/>
      </g>
     </g>
     <g id="text_15">
      <!-- 0.26 -->
      <g transform="translate(26.685 104.187966) scale(0.14 -0.14)">
       <use xlink:href="#DejaVuSans-30"/>
       <use xlink:href="#DejaVuSans-2e" transform="translate(63.623047 0)"/>
       <use xlink:href="#DejaVuSans-32" transform="translate(95.410156 0)"/>
       <use xlink:href="#DejaVuSans-36" transform="translate(159.033203 0)"/>
      </g>
     </g>
    </g>
    <g id="ytick_9">
     <g id="line2d_23">
      <path d="M 64.856875 66.957502 
L 429.265038 66.957502 
" clip-path="url(#p0dbd703579)" style="fill: none; stroke-dasharray: 1.85,0.8; stroke-dashoffset: 0; stroke: #b0b0b0; stroke-opacity: 0.3; stroke-width: 0.5"/>
     </g>
     <g id="line2d_24">
      <g>
       <use xlink:href="#m080c426b19" x="64.856875" y="66.957502" style="stroke: #000000; stroke-width: 0.8"/>
      </g>
     </g>
     <g id="text_16">
      <!-- 0.28 -->
      <g transform="translate(26.685 72.276408) scale(0.14 -0.14)">
       <use xlink:href="#DejaVuSans-30"/>
       <use xlink:href="#DejaVuSans-2e" transform="translate(63.623047 0)"/>
       <use xlink:href="#DejaVuSans-32" transform="translate(95.410156 0)"/>
       <use xlink:href="#DejaVuSans-38" transform="translate(159.033203 0)"/>
      </g>
     </g>
    </g>
    <g id="text_17">
     <!-- Recall Probability -->
     <g transform="translate(19.3575 261.65375) rotate(-90) scale(0.16 -0.16)">
      <defs>
       <path id="DejaVuSans-52" d="M 2841 2188 
Q 3044 2119 3236 1894 
Q 3428 1669 3622 1275 
L 4263 0 
L 3584 0 
L 2988 1197 
Q 2756 1666 2539 1819 
Q 2322 1972 1947 1972 
L 1259 1972 
L 1259 0 
L 628 0 
L 628 4666 
L 2053 4666 
Q 2853 4666 3247 4331 
Q 3641 3997 3641 3322 
Q 3641 2881 3436 2590 
Q 3231 2300 2841 2188 
z
M 1259 4147 
L 1259 2491 
L 2053 2491 
Q 2509 2491 2742 2702 
Q 2975 2913 2975 3322 
Q 2975 3731 2742 3939 
Q 2509 4147 2053 4147 
L 1259 4147 
z
" transform="scale(0.015625)"/>
       <path id="DejaVuSans-65" d="M 3597 1894 
L 3597 1613 
L 953 1613 
Q 991 1019 1311 708 
Q 1631 397 2203 397 
Q 2534 397 2845 478 
Q 3156 559 3463 722 
L 3463 178 
Q 3153 47 2828 -22 
Q 2503 -91 2169 -91 
Q 1331 -91 842 396 
Q 353 884 353 1716 
Q 353 2575 817 3079 
Q 1281 3584 2069 3584 
Q 2775 3584 3186 3129 
Q 3597 2675 3597 1894 
z
M 3022 2063 
Q 3016 2534 2758 2815 
Q 2500 3097 2075 3097 
Q 1594 3097 1305 2825 
Q 1016 2553 972 2059 
L 3022 2063 
z
" transform="scale(0.015625)"/>
       <path id="DejaVuSans-63" d="M 3122 3366 
L 3122 2828 
Q 2878 2963 2633 3030 
Q 2388 3097 2138 3097 
Q 1578 3097 1268 2742 
Q 959 2388 959 1747 
Q 959 1106 1268 751 
Q 1578 397 2138 397 
Q 2388 397 2633 464 
Q 2878 531 3122 666 
L 3122 134 
Q 2881 22 2623 -34 
Q 2366 -91 2075 -91 
Q 1284 -91 818 406 
Q 353 903 353 1747 
Q 353 2603 823 3093 
Q 1294 3584 2113 3584 
Q 2378 3584 2631 3529 
Q 2884 3475 3122 3366 
z
" transform="scale(0.015625)"/>
       <path id="DejaVuSans-61" d="M 2194 1759 
Q 1497 1759 1228 1600 
Q 959 1441 959 1056 
Q 959 750 1161 570 
Q 1363 391 1709 391 
Q 2188 391 2477 730 
Q 2766 1069 2766 1631 
L 2766 1759 
L 2194 1759 
z
M 3341 1997 
L 3341 0 
L 2766 0 
L 2766 531 
Q 2569 213 2275 61 
Q 1981 -91 1556 -91 
Q 1019 -91 701 211 
Q 384 513 384 1019 
Q 384 1609 779 1909 
Q 1175 2209 1959 2209 
L 2766 2209 
L 2766 2266 
Q 2766 2663 2505 2880 
Q 2244 3097 1772 3097 
Q 1472 3097 1187 3025 
Q 903 2953 641 2809 
L 641 3341 
Q 956 3463 1253 3523 
Q 1550 3584 1831 3584 
Q 2591 3584 2966 3190 
Q 3341 2797 3341 1997 
z
" transform="scale(0.015625)"/>
       <path id="DejaVuSans-6c" d="M 603 4863 
L 1178 4863 
L 1178 0 
L 603 0 
L 603 4863 
z
" transform="scale(0.015625)"/>
       <path id="DejaVuSans-72" d="M 2631 2963 
Q 2534 3019 2420 3045 
Q 2306 3072 2169 3072 
Q 1681 3072 1420 2755 
Q 1159 2438 1159 1844 
L 1159 0 
L 581 0 
L 581 3500 
L 1159 3500 
L 1159 2956 
Q 1341 3275 1631 3429 
Q 1922 3584 2338 3584 
Q 2397 3584 2469 3576 
Q 2541 3569 2628 3553 
L 2631 2963 
z
" transform="scale(0.015625)"/>
       <path id="DejaVuSans-62" d="M 3116 1747 
Q 3116 2381 2855 2742 
Q 2594 3103 2138 3103 
Q 1681 3103 1420 2742 
Q 1159 2381 1159 1747 
Q 1159 1113 1420 752 
Q 1681 391 2138 391 
Q 2594 391 2855 752 
Q 3116 1113 3116 1747 
z
M 1159 2969 
Q 1341 3281 1617 3432 
Q 1894 3584 2278 3584 
Q 2916 3584 3314 3078 
Q 3713 2572 3713 1747 
Q 3713 922 3314 415 
Q 2916 -91 2278 -91 
Q 1894 -91 1617 61 
Q 1341 213 1159 525 
L 1159 0 
L 581 0 
L 581 4863 
L 1159 4863 
L 1159 2969 
z
" transform="scale(0.015625)"/>
      </defs>
      <use xlink:href="#DejaVuSans-52"/>
      <use xlink:href="#DejaVuSans-65" transform="translate(64.982422 0)"/>
      <use xlink:href="#DejaVuSans-63" transform="translate(126.505859 0)"/>
      <use xlink:href="#DejaVuSans-61" transform="translate(181.486328 0)"/>
      <use xlink:href="#DejaVuSans-6c" transform="translate(242.765625 0)"/>
      <use xlink:href="#DejaVuSans-6c" transform="translate(270.548828 0)"/>
      <use xlink:href="#DejaVuSans-20" transform="translate(298.332031 0)"/>
      <use xlink:href="#DejaVuSans-50" transform="translate(330.119141 0)"/>
      <use xlink:href="#DejaVuSans-72" transform="translate(388.671875 0)"/>
      <use xlink:href="#DejaVuSans-6f" transform="translate(427.535156 0)"/>
      <use xlink:href="#DejaVuSans-62" transform="translate(488.716797 0)"/>
      <use xlink:href="#DejaVuSans-61" transform="translate(552.193359 0)"/>
      <use xlink:href="#DejaVuSans-62" transform="translate(613.472656 0)"/>
      <use xlink:href="#DejaVuSans-69" transform="translate(676.949219 0)"/>
      <use xlink:href="#DejaVuSans-6c" transform="translate(704.732422 0)"/>
      <use xlink:href="#DejaVuSans-69" transform="translate(732.515625 0)"/>
      <use xlink:href="#DejaVuSans-74" transform="translate(760.298828 0)"/>
      <use xlink:href="#DejaVuSans-79" transform="translate(799.507812 0)"/>
     </g>
    </g>
   </g>
   <g id="line2d_25">
    <path d="M 81.420882 66.9575 
L 88.469396 120.016796 
L 95.51791 142.430873 
L 102.566424 166.997696 
L 109.614938 180.800713 
L 116.663451 184.093185 
L 123.711965 189.665034 
L 130.760479 196.883132 
L 137.808993 197.516309 
L 144.857507 196.62987 
L 151.90602 206.000714 
L 158.954534 196.883132 
L 166.003048 210.306256 
L 173.051562 213.218812 
L 180.100076 202.581636 
L 187.148589 224.869057 
L 194.197103 228.28816 
L 201.245617 234.746449 
L 208.294131 234.113271 
L 215.342645 228.161529 
L 222.391158 225.755497 
L 229.439672 236.519303 
L 236.488186 230.187645 
L 243.5367 234.619818 
L 250.585214 229.30123 
L 257.633727 228.668052 
L 264.682241 236.139411 
L 271.730755 228.414791 
L 278.779269 229.934384 
L 285.827783 235.506257 
L 292.876296 243.737401 
L 299.92481 245.890172 
L 306.973324 135.719322 
L 314.021838 197.64294 
L 321.070351 203.847967 
L 328.118865 219.55047 
L 335.167379 228.794683 
L 342.215893 224.109273 
L 349.264407 225.502235 
L 356.31292 224.109273 
L 363.361434 227.27509 
L 370.409948 213.345442 
" clip-path="url(#p0dbd703579)" style="fill: none; stroke: #bfbfbf; stroke-width: 1.5; stroke-linecap: square"/>
   </g>
   <g id="line2d_26">
    <path d="M 81.420882 69.743425 
L 88.469396 132.553482 
L 95.51791 158.639922 
L 102.566424 176.621826 
L 109.614938 182.700222 
L 116.663451 199.415795 
L 123.711965 211.319302 
L 130.760479 207.520307 
L 137.808993 221.57661 
L 144.857507 219.6771 
L 151.90602 218.790661 
L 158.954534 213.598704 
L 166.003048 219.803731 
L 173.051562 233.860009 
L 180.100076 225.122319 
L 187.148589 218.790661 
L 194.197103 222.716287 
L 201.245617 222.209763 
L 208.294131 239.178621 
L 215.342645 240.191667 
L 222.391158 230.567562 
L 229.439672 243.737401 
L 236.488186 233.98664 
L 243.5367 237.659004 
L 250.585214 237.02585 
L 257.633727 241.331368 
L 264.682241 232.340416 
L 271.730755 244.370578 
L 278.779269 245.383625 
L 285.827783 247.283134 
L 292.876296 241.457999 
L 299.92481 255.134385 
L 306.973324 158.766553 
L 314.021838 199.289164 
L 321.070351 225.375604 
L 328.118865 229.807753 
L 335.167379 234.619818 
L 342.215893 229.934384 
L 349.264407 234.366556 
L 356.31292 239.938406 
L 363.361434 224.995688 
L 370.409948 231.453977 
L 377.458462 236.519303 
L 384.506976 238.798705 
" clip-path="url(#p0dbd703579)" style="fill: none; stroke: #b0b0b0; stroke-width: 1.5; stroke-linecap: square"/>
   </g>
   <g id="line2d_27">
    <path d="M 81.420882 87.97859 
L 88.469396 134.199706 
L 95.51791 161.679108 
L 102.566424 187.132371 
L 109.614938 197.896202 
L 116.663451 200.428865 
L 123.711965 204.481121 
L 130.760479 215.878106 
L 137.808993 223.982618 
L 144.857507 220.183623 
L 151.90602 218.157507 
L 158.954534 227.908268 
L 166.003048 236.01278 
L 173.051562 224.615796 
L 180.100076 218.284138 
L 187.148589 233.860009 
L 194.197103 243.230878 
L 201.245617 242.344438 
L 208.294131 244.497209 
L 215.342645 243.990662 
L 222.391158 244.117293 
L 229.439672 249.182619 
L 236.488186 243.357508 
L 243.5367 247.663026 
L 250.585214 243.864031 
L 257.633727 248.676096 
L 264.682241 248.296204 
L 271.730755 250.195689 
L 278.779269 248.929358 
L 285.827783 245.510279 
L 292.876296 248.802727 
L 299.92481 252.728353 
L 306.973324 160.539408 
L 314.021838 219.930362 
L 321.070351 228.161529 
L 328.118865 240.065037 
L 335.167379 246.016802 
L 342.215893 240.191667 
L 349.264407 252.34846 
L 356.31292 242.5977 
L 363.361434 249.309274 
L 370.409948 241.837915 
L 377.458462 241.204737 
L 384.506976 243.104247 
L 391.555489 248.802727 
L 398.604003 240.191667 
" clip-path="url(#p0dbd703579)" style="fill: none; stroke: #a1a1a1; stroke-width: 1.5; stroke-linecap: square"/>
   </g>
   <g id="line2d_28">
    <path d="M 81.420882 95.703211 
L 88.469396 148.255984 
L 95.51791 177.001718 
L 102.566424 191.944436 
L 109.614938 206.633892 
L 116.663451 213.598704 
L 123.711965 222.463025 
L 130.760479 234.239926 
L 137.808993 235.379626 
L 144.857507 237.152481 
L 151.90602 236.89922 
L 158.954534 239.938406 
L 166.003048 235.126341 
L 173.051562 236.519303 
L 180.100076 232.467047 
L 187.148589 246.649956 
L 194.197103 253.614792 
L 201.245617 254.3746 
L 208.294131 249.182619 
L 215.342645 254.121315 
L 222.391158 261.212781 
L 229.439672 265.138407 
L 236.488186 260.073081 
L 243.5367 256.527347 
L 250.585214 263.872075 
L 257.633727 245.63691 
L 264.682241 260.706258 
L 271.730755 247.536395 
L 278.779269 262.225852 
L 285.827783 262.732375 
L 292.876296 272.356504 
L 299.92481 272.609766 
L 306.973324 171.429869 
L 314.021838 223.729357 
L 321.070351 235.88615 
L 328.118865 232.973594 
L 335.167379 245.383625 
L 342.215893 254.501231 
L 349.264407 245.256994 
L 356.31292 246.143433 
L 363.361434 240.571584 
L 370.409948 249.435905 
L 377.458462 251.588652 
L 384.506976 257.287156 
L 391.555489 251.208759 
L 398.604003 254.501231 
L 405.652517 247.916288 
L 412.701031 258.806749 
" clip-path="url(#p0dbd703579)" style="fill: none; stroke: #929292; stroke-width: 1.5; stroke-linecap: square"/>
   </g>
   <g id="line2d_29">
    <path d="M 81.420882 113.305222 
L 88.469396 168.770575 
L 95.51791 188.01881 
L 102.566424 198.022832 
L 109.614938 224.615796 
L 116.663451 230.440931 
L 123.711965 238.798705 
L 130.760479 230.694192 
L 137.808993 240.698214 
L 144.857507 242.5977 
L 151.90602 240.951476 
L 158.954534 239.178621 
L 166.003048 254.754493 
L 173.051562 244.243948 
L 180.100076 243.737401 
L 187.148589 260.832889 
L 194.197103 252.095199 
L 201.245617 265.898216 
L 208.294131 252.22183 
L 215.342645 266.784631 
L 222.391158 262.985636 
L 229.439672 260.832889 
L 236.488186 266.278108 
L 243.5367 255.134385 
L 250.585214 263.998706 
L 257.633727 260.326342 
L 264.682241 270.203733 
L 271.730755 257.667048 
L 278.779269 260.95952 
L 285.827783 277.168569 
L 292.876296 271.723327 
L 299.92481 266.911262 
L 306.973324 192.197697 
L 314.021838 234.746449 
L 321.070351 249.815797 
L 328.118865 257.033894 
L 335.167379 258.300226 
L 342.215893 267.164547 
L 349.264407 259.313272 
L 356.31292 264.505253 
L 363.361434 256.274086 
L 370.409948 260.706258 
L 377.458462 267.67107 
L 384.506976 261.212781 
L 391.555489 252.601722 
L 398.604003 242.724331 
L 405.652517 252.728353 
L 412.701031 253.614792 
" clip-path="url(#p0dbd703579)" style="fill: none; stroke: #828282; stroke-width: 1.5; stroke-linecap: square"/>
   </g>
   <g id="line2d_30">
    <path d="M 81.420882 116.471063 
L 88.469396 170.923322 
L 95.51791 196.123323 
L 102.566424 218.284138 
L 109.614938 228.668052 
L 116.663451 235.759519 
L 123.711965 229.554492 
L 130.760479 240.824845 
L 137.808993 242.977616 
L 144.857507 256.020824 
L 151.90602 250.195689 
L 158.954534 254.501231 
L 166.003048 258.426857 
L 173.051562 260.95952 
L 180.100076 261.97259 
L 187.148589 252.854983 
L 194.197103 264.505253 
L 201.245617 263.618814 
L 208.294131 260.832889 
L 215.342645 265.138407 
L 222.391158 270.836911 
L 229.439672 254.627862 
L 236.488186 266.278108 
L 243.5367 274.509275 
L 250.585214 276.788653 
L 257.633727 270.456995 
L 264.682241 269.57058 
L 271.730755 278.561532 
L 278.779269 272.103243 
L 285.827783 274.25599 
L 292.876296 271.976588 
L 299.92481 289.072077 
L 306.973324 209.673078 
L 314.021838 232.087155 
L 321.070351 256.147455 
L 328.118865 256.020824 
L 335.167379 266.911262 
L 342.215893 262.479113 
L 349.264407 268.304248 
L 356.31292 268.050963 
L 363.361434 267.544439 
L 370.409948 256.527347 
L 377.458462 272.736397 
L 384.506976 263.492183 
L 391.555489 265.898216 
L 398.604003 265.265038 
L 405.652517 253.994684 
L 412.701031 255.514277 
" clip-path="url(#p0dbd703579)" style="fill: none; stroke: #737373; stroke-width: 1.5; stroke-linecap: square"/>
   </g>
   <g id="line2d_31">
    <path d="M 81.420882 117.104241 
L 88.469396 173.329354 
L 95.51791 207.773593 
L 102.566424 222.969572 
L 109.614938 232.087155 
L 116.663451 241.837915 
L 123.711965 244.877101 
L 130.760479 249.309274 
L 137.808993 252.22183 
L 144.857507 258.93338 
L 151.90602 259.693188 
L 158.954534 255.134385 
L 166.003048 258.806749 
L 173.051562 260.199711 
L 180.100076 269.950472 
L 187.148589 264.631884 
L 194.197103 277.801723 
L 201.245617 276.915284 
L 208.294131 274.129359 
L 215.342645 276.155499 
L 222.391158 271.976588 
L 229.439672 279.194685 
L 236.488186 269.064033 
L 243.5367 271.090173 
L 250.585214 274.002728 
L 257.633727 270.330364 
L 264.682241 282.867049 
L 271.730755 273.496205 
L 278.779269 274.509275 
L 285.827783 284.133381 
L 292.876296 282.613788 
L 299.92481 288.565554 
L 306.973324 209.673078 
L 314.021838 249.942428 
L 321.070351 270.963542 
L 328.118865 277.675092 
L 335.167379 260.832889 
L 342.215893 275.26906 
L 349.264407 277.928354 
L 356.31292 271.596696 
L 363.361434 265.64493 
L 370.409948 272.356504 
L 377.458462 284.260012 
L 384.506976 277.168569 
L 391.555489 272.989658 
L 398.604003 276.028868 
L 405.652517 281.474087 
L 412.701031 274.889168 
" clip-path="url(#p0dbd703579)" style="fill: none; stroke: #646464; stroke-width: 1.5; stroke-linecap: square"/>
   </g>
   <g id="line2d_32">
    <path d="M 81.420882 134.326336 
L 88.469396 185.232886 
L 95.51791 211.825849 
L 102.566424 228.28816 
L 109.614938 237.152481 
L 116.663451 252.981614 
L 123.711965 252.34846 
L 130.760479 258.426857 
L 137.808993 253.488161 
L 144.857507 264.631884 
L 151.90602 256.653978 
L 158.954534 267.797701 
L 166.003048 261.592674 
L 173.051562 262.099221 
L 180.100076 270.836911 
L 187.148589 272.356504 
L 194.197103 267.797701 
L 201.245617 276.028868 
L 208.294131 284.513273 
L 215.342645 277.928354 
L 222.391158 286.286152 
L 229.439672 275.775607 
L 236.488186 283.246942 
L 243.5367 286.03289 
L 250.585214 272.229874 
L 257.633727 289.5786 
L 264.682241 285.146451 
L 271.730755 276.028868 
L 278.779269 275.522321 
L 285.827783 282.487157 
L 292.876296 286.03289 
L 299.92481 285.779605 
L 306.973324 219.6771 
L 314.021838 254.881123 
L 321.070351 269.317294 
L 328.118865 264.885145 
L 335.167379 282.487157 
L 342.215893 282.99368 
L 349.264407 285.273082 
L 356.31292 289.705254 
L 363.361434 284.260012 
L 370.409948 287.805745 
L 377.458462 276.535391 
L 384.506976 285.399713 
L 391.555489 288.059007 
L 398.604003 285.779605 
L 405.652517 274.25599 
L 412.701031 279.701232 
" clip-path="url(#p0dbd703579)" style="fill: none; stroke: #555555; stroke-width: 1.5; stroke-linecap: square"/>
   </g>
   <g id="line2d_33">
    <path d="M 81.420882 140.91128 
L 88.469396 188.01881 
L 95.51791 210.559518 
L 102.566424 233.98664 
L 109.614938 250.575606 
L 116.663451 253.741423 
L 123.711965 269.190663 
L 130.760479 266.531369 
L 137.808993 274.635906 
L 144.857507 272.989658 
L 151.90602 275.142429 
L 158.954534 268.68414 
L 166.003048 279.574602 
L 173.051562 276.28213 
L 180.100076 270.836911 
L 187.148589 285.01982 
L 194.197103 284.133381 
L 201.245617 286.792675 
L 208.294131 287.425853 
L 215.342645 297.936398 
L 222.391158 289.5786 
L 229.439672 286.792675 
L 236.488186 294.264034 
L 243.5367 296.163543 
L 250.585214 295.530365 
L 257.633727 290.085147 
L 264.682241 296.036912 
L 271.730755 292.491179 
L 278.779269 292.111263 
L 285.827783 290.211777 
L 292.876296 292.237918 
L 299.92481 304.647948 
L 306.973324 226.135389 
L 314.021838 265.265038 
L 321.070351 282.360526 
L 328.118865 279.068055 
L 335.167379 284.513273 
L 342.215893 285.399713 
L 349.264407 284.00675 
L 356.31292 287.552483 
L 363.361434 284.386643 
L 370.409948 289.705254 
L 377.458462 290.085147 
L 384.506976 280.461017 
L 391.555489 282.360526 
L 398.604003 291.224848 
L 405.652517 298.569576 
L 412.701031 286.666044 
" clip-path="url(#p0dbd703579)" style="fill: none; stroke: #464646; stroke-width: 1.5; stroke-linecap: square"/>
   </g>
   <g id="line2d_34">
    <path d="M 81.420882 134.959514 
L 88.469396 196.249978 
L 95.51791 222.716287 
L 102.566424 233.100225 
L 109.614938 258.806749 
L 116.663451 269.823841 
L 123.711965 269.443925 
L 130.760479 269.57058 
L 137.808993 275.015798 
L 144.857507 271.216803 
L 151.90602 272.863027 
L 158.954534 276.028868 
L 166.003048 278.941424 
L 173.051562 283.753489 
L 180.100076 284.513273 
L 187.148589 275.648952 
L 194.197103 287.805745 
L 201.245617 289.831885 
L 208.294131 285.526343 
L 215.342645 299.962538 
L 222.391158 289.451969 
L 229.439672 292.364548 
L 236.488186 285.90626 
L 243.5367 288.692184 
L 250.585214 296.543435 
L 257.633727 294.517295 
L 264.682241 300.722323 
L 271.730755 294.897212 
L 278.779269 299.32936 
L 285.827783 296.543435 
L 292.876296 292.237918 
L 299.92481 300.722323 
L 306.973324 241.204737 
L 314.021838 268.55751 
L 321.070351 281.220825 
L 328.118865 288.818815 
L 335.167379 284.639928 
L 342.215893 298.822837 
L 349.264407 296.163543 
L 356.31292 292.871071 
L 363.361434 288.945446 
L 370.409948 300.089169 
L 377.458462 293.504249 
L 384.506976 297.683136 
L 391.555489 301.22887 
L 398.604003 298.442921 
L 405.652517 294.390665 
L 412.701031 295.783627 
" clip-path="url(#p0dbd703579)" style="fill: none; stroke: #373737; stroke-width: 1.5; stroke-linecap: square"/>
   </g>
   <g id="line2d_35">
    <path d="M 81.420882 148.6359 
L 88.469396 203.721313 
L 95.51791 230.694192 
L 102.566424 250.448951 
L 109.614938 255.134385 
L 116.663451 262.605744 
L 123.711965 263.998706 
L 130.760479 280.334386 
L 137.808993 273.876097 
L 144.857507 292.491179 
L 151.90602 283.500227 
L 158.954534 284.639928 
L 166.003048 277.2952 
L 173.051562 279.954494 
L 180.100076 281.98061 
L 187.148589 284.89319 
L 194.197103 293.504249 
L 201.245617 290.718301 
L 208.294131 287.425853 
L 215.342645 297.936398 
L 222.391158 294.390665 
L 229.439672 297.176589 
L 236.488186 300.975584 
L 243.5367 295.783627 
L 250.585214 297.556505 
L 257.633727 298.569576 
L 264.682241 294.390665 
L 271.730755 301.862023 
L 278.779269 303.128355 
L 285.827783 298.822837 
L 292.876296 305.534387 
L 299.92481 318.9575 
L 306.973324 242.344438 
L 314.021838 272.863027 
L 321.070351 291.351478 
L 328.118865 289.5786 
L 335.167379 292.491179 
L 342.215893 292.61781 
L 349.264407 304.774579 
L 356.31292 297.176589 
L 363.361434 301.988654 
L 370.409948 304.901234 
L 377.458462 283.626858 
L 384.506976 288.185637 
L 391.555489 299.709253 
L 398.604003 299.962538 
L 405.652517 297.809767 
L 412.701031 305.91428 
" clip-path="url(#p0dbd703579)" style="fill: none; stroke: #282828; stroke-width: 1.5; stroke-linecap: square"/>
   </g>
   <g id="line2d_36">
    <path d="M 81.420882 155.980628 
L 88.469396 212.079111 
L 95.51791 234.99971 
L 102.566424 246.270064 
L 109.614938 258.93338 
L 116.663451 275.26906 
L 123.711965 271.849957 
L 130.760479 288.059007 
L 137.808993 293.250964 
L 144.857507 289.072077 
L 151.90602 282.107265 
L 158.954534 287.425853 
L 166.003048 292.871071 
L 173.051562 289.705254 
L 180.100076 286.666044 
L 187.148589 294.517295 
L 194.197103 301.735393 
L 201.245617 300.215799 
L 208.294131 304.394687 
L 215.342645 301.608762 
L 222.391158 304.774579 
L 229.439672 299.202729 
L 236.488186 299.582622 
L 243.5367 298.189659 
L 250.585214 298.31629 
L 257.633727 305.534387 
L 264.682241 305.407757 
L 271.730755 305.534387 
L 278.779269 294.770581 
L 285.827783 310.726345 
L 292.876296 308.193681 
L 299.92481 308.446943 
L 306.973324 249.815797 
L 314.021838 271.470065 
L 321.070351 291.224848 
L 328.118865 294.137403 
L 335.167379 298.31629 
L 342.215893 301.102239 
L 349.264407 309.460013 
L 356.31292 296.036912 
L 363.361434 306.167565 
L 370.409948 297.936398 
L 377.458462 300.469061 
L 384.506976 304.014794 
L 391.555489 306.294196 
L 398.604003 308.95349 
L 405.652517 302.748463 
L 412.701031 299.835907 
" clip-path="url(#p0dbd703579)" style="fill: none; stroke: #191919; stroke-width: 1.5; stroke-linecap: square"/>
   </g>
   <g id="line2d_37">
    <path d="M 190.672846 331.5575 
L 190.672846 54.3575 
" clip-path="url(#p0dbd703579)" style="fill: none; stroke-dasharray: 5.55,2.4; stroke-dashoffset: 0; stroke: #ff0000; stroke-opacity: 0.7; stroke-width: 1.5"/>
   </g>
   <g id="patch_3">
    <path d="M 64.856875 331.5575 
L 64.856875 54.3575 
" style="fill: none; stroke: #000000; stroke-width: 0.8; stroke-linejoin: miter; stroke-linecap: square"/>
   </g>
   <g id="patch_4">
    <path d="M 64.856875 331.5575 
L 429.265038 331.5575 
" style="fill: none; stroke: #000000; stroke-width: 0.8; stroke-linejoin: miter; stroke-linecap: square"/>
   </g>
   <g id="text_18">
    <!-- Film -->
    <g transform="translate(122.23083 46.733812) scale(0.1 -0.1)">
     <defs>
      <path id="DejaVuSans-Bold-46" d="M 588 4666 
L 3834 4666 
L 3834 3756 
L 1791 3756 
L 1791 2888 
L 3713 2888 
L 3713 1978 
L 1791 1978 
L 1791 0 
L 588 0 
L 588 4666 
z
" transform="scale(0.015625)"/>
      <path id="DejaVuSans-Bold-69" d="M 538 3500 
L 1656 3500 
L 1656 0 
L 538 0 
L 538 3500 
z
M 538 4863 
L 1656 4863 
L 1656 3950 
L 538 3950 
L 538 4863 
z
" transform="scale(0.015625)"/>
      <path id="DejaVuSans-Bold-6c" d="M 538 4863 
L 1656 4863 
L 1656 0 
L 538 0 
L 538 4863 
z
" transform="scale(0.015625)"/>
      <path id="DejaVuSans-Bold-6d" d="M 3781 2919 
Q 3994 3244 4286 3414 
Q 4578 3584 4928 3584 
Q 5531 3584 5847 3212 
Q 6163 2841 6163 2131 
L 6163 0 
L 5038 0 
L 5038 1825 
Q 5041 1866 5042 1909 
Q 5044 1953 5044 2034 
Q 5044 2406 4934 2573 
Q 4825 2741 4581 2741 
Q 4263 2741 4089 2478 
Q 3916 2216 3909 1719 
L 3909 0 
L 2784 0 
L 2784 1825 
Q 2784 2406 2684 2573 
Q 2584 2741 2328 2741 
Q 2006 2741 1831 2477 
Q 1656 2213 1656 1722 
L 1656 0 
L 531 0 
L 531 3500 
L 1656 3500 
L 1656 2988 
Q 1863 3284 2130 3434 
Q 2397 3584 2719 3584 
Q 3081 3584 3359 3409 
Q 3638 3234 3781 2919 
z
" transform="scale(0.015625)"/>
     </defs>
     <use xlink:href="#DejaVuSans-Bold-46"/>
     <use xlink:href="#DejaVuSans-Bold-69" transform="translate(68.310547 0)"/>
     <use xlink:href="#DejaVuSans-Bold-6c" transform="translate(102.587891 0)"/>
     <use xlink:href="#DejaVuSans-Bold-6d" transform="translate(136.865234 0)"/>
    </g>
   </g>
   <g id="text_19">
    <!-- Interference -->
    <g style="fill: #ff0000" transform="translate(268.44438 46.733812) scale(0.1 -0.1)">
     <defs>
      <path id="DejaVuSans-Bold-49" d="M 588 4666 
L 1791 4666 
L 1791 0 
L 588 0 
L 588 4666 
z
" transform="scale(0.015625)"/>
      <path id="DejaVuSans-Bold-6e" d="M 4056 2131 
L 4056 0 
L 2931 0 
L 2931 347 
L 2931 1631 
Q 2931 2084 2911 2256 
Q 2891 2428 2841 2509 
Q 2775 2619 2662 2680 
Q 2550 2741 2406 2741 
Q 2056 2741 1856 2470 
Q 1656 2200 1656 1722 
L 1656 0 
L 538 0 
L 538 3500 
L 1656 3500 
L 1656 2988 
Q 1909 3294 2193 3439 
Q 2478 3584 2822 3584 
Q 3428 3584 3742 3212 
Q 4056 2841 4056 2131 
z
" transform="scale(0.015625)"/>
      <path id="DejaVuSans-Bold-74" d="M 1759 4494 
L 1759 3500 
L 2913 3500 
L 2913 2700 
L 1759 2700 
L 1759 1216 
Q 1759 972 1856 886 
Q 1953 800 2241 800 
L 2816 800 
L 2816 0 
L 1856 0 
Q 1194 0 917 276 
Q 641 553 641 1216 
L 641 2700 
L 84 2700 
L 84 3500 
L 641 3500 
L 641 4494 
L 1759 4494 
z
" transform="scale(0.015625)"/>
      <path id="DejaVuSans-Bold-65" d="M 4031 1759 
L 4031 1441 
L 1416 1441 
Q 1456 1047 1700 850 
Q 1944 653 2381 653 
Q 2734 653 3104 758 
Q 3475 863 3866 1075 
L 3866 213 
Q 3469 63 3072 -14 
Q 2675 -91 2278 -91 
Q 1328 -91 801 392 
Q 275 875 275 1747 
Q 275 2603 792 3093 
Q 1309 3584 2216 3584 
Q 3041 3584 3536 3087 
Q 4031 2591 4031 1759 
z
M 2881 2131 
Q 2881 2450 2695 2645 
Q 2509 2841 2209 2841 
Q 1884 2841 1681 2658 
Q 1478 2475 1428 2131 
L 2881 2131 
z
" transform="scale(0.015625)"/>
      <path id="DejaVuSans-Bold-72" d="M 3138 2547 
Q 2991 2616 2845 2648 
Q 2700 2681 2553 2681 
Q 2122 2681 1889 2404 
Q 1656 2128 1656 1613 
L 1656 0 
L 538 0 
L 538 3500 
L 1656 3500 
L 1656 2925 
Q 1872 3269 2151 3426 
Q 2431 3584 2822 3584 
Q 2878 3584 2943 3579 
Q 3009 3575 3134 3559 
L 3138 2547 
z
" transform="scale(0.015625)"/>
      <path id="DejaVuSans-Bold-66" d="M 2841 4863 
L 2841 4128 
L 2222 4128 
Q 1984 4128 1890 4042 
Q 1797 3956 1797 3744 
L 1797 3500 
L 2753 3500 
L 2753 2700 
L 1797 2700 
L 1797 0 
L 678 0 
L 678 2700 
L 122 2700 
L 122 3500 
L 678 3500 
L 678 3744 
Q 678 4316 997 4589 
Q 1316 4863 1984 4863 
L 2841 4863 
z
" transform="scale(0.015625)"/>
      <path id="DejaVuSans-Bold-63" d="M 3366 3391 
L 3366 2478 
Q 3138 2634 2908 2709 
Q 2678 2784 2431 2784 
Q 1963 2784 1702 2511 
Q 1441 2238 1441 1747 
Q 1441 1256 1702 982 
Q 1963 709 2431 709 
Q 2694 709 2930 787 
Q 3166 866 3366 1019 
L 3366 103 
Q 3103 6 2833 -42 
Q 2563 -91 2291 -91 
Q 1344 -91 809 395 
Q 275 881 275 1747 
Q 275 2613 809 3098 
Q 1344 3584 2291 3584 
Q 2566 3584 2833 3536 
Q 3100 3488 3366 3391 
z
" transform="scale(0.015625)"/>
     </defs>
     <use xlink:href="#DejaVuSans-Bold-49"/>
     <use xlink:href="#DejaVuSans-Bold-6e" transform="translate(37.207031 0)"/>
     <use xlink:href="#DejaVuSans-Bold-74" transform="translate(108.398438 0)"/>
     <use xlink:href="#DejaVuSans-Bold-65" transform="translate(156.201172 0)"/>
     <use xlink:href="#DejaVuSans-Bold-72" transform="translate(224.023438 0)"/>
     <use xlink:href="#DejaVuSans-Bold-66" transform="translate(273.339844 0)"/>
     <use xlink:href="#DejaVuSans-Bold-65" transform="translate(316.845703 0)"/>
     <use xlink:href="#DejaVuSans-Bold-72" transform="translate(384.667969 0)"/>
     <use xlink:href="#DejaVuSans-Bold-65" transform="translate(433.984375 0)"/>
     <use xlink:href="#DejaVuSans-Bold-6e" transform="translate(501.806641 0)"/>
     <use xlink:href="#DejaVuSans-Bold-63" transform="translate(572.998047 0)"/>
     <use xlink:href="#DejaVuSans-Bold-65" transform="translate(632.275391 0)"/>
    </g>
   </g>
   <g id="text_20">
    <g clip-path="url(#p0dbd703579)">
     <!-- Break + Reminder -->
     <g transform="translate(188.593159 155.0235) rotate(-90) scale(0.1 -0.1)">
      <defs>
       <path id="DejaVuSans-Oblique-42" d="M 1081 4666 
L 2694 4666 
Q 3350 4666 3675 4422 
Q 4000 4178 4000 3688 
Q 4000 3238 3720 2911 
Q 3441 2584 2988 2516 
Q 3375 2428 3569 2181 
Q 3763 1934 3763 1522 
Q 3763 819 3242 409 
Q 2722 0 1819 0 
L 172 0 
L 1081 4666 
z
M 1234 2228 
L 903 519 
L 1919 519 
Q 2491 519 2800 781 
Q 3109 1044 3109 1522 
Q 3109 1891 2904 2059 
Q 2700 2228 2247 2228 
L 1234 2228 
z
M 1606 4147 
L 1331 2741 
L 2272 2741 
Q 2775 2741 3058 2959 
Q 3341 3178 3341 3566 
Q 3341 3869 3150 4008 
Q 2959 4147 2541 4147 
L 1606 4147 
z
" transform="scale(0.015625)"/>
       <path id="DejaVuSans-Oblique-72" d="M 2853 2969 
Q 2766 3016 2653 3041 
Q 2541 3066 2413 3066 
Q 1953 3066 1609 2717 
Q 1266 2369 1153 1784 
L 800 0 
L 225 0 
L 909 3500 
L 1484 3500 
L 1375 2956 
Q 1603 3259 1920 3421 
Q 2238 3584 2597 3584 
Q 2691 3584 2781 3573 
Q 2872 3563 2963 3538 
L 2853 2969 
z
" transform="scale(0.015625)"/>
       <path id="DejaVuSans-Oblique-65" d="M 3078 2063 
Q 3088 2113 3092 2166 
Q 3097 2219 3097 2272 
Q 3097 2653 2873 2875 
Q 2650 3097 2266 3097 
Q 1838 3097 1509 2826 
Q 1181 2556 1013 2059 
L 3078 2063 
z
M 3578 1613 
L 903 1613 
Q 884 1494 878 1425 
Q 872 1356 872 1306 
Q 872 872 1139 634 
Q 1406 397 1894 397 
Q 2269 397 2603 481 
Q 2938 566 3225 728 
L 3116 159 
Q 2806 34 2476 -28 
Q 2147 -91 1806 -91 
Q 1078 -91 686 257 
Q 294 606 294 1247 
Q 294 1794 489 2264 
Q 684 2734 1063 3103 
Q 1306 3334 1642 3459 
Q 1978 3584 2356 3584 
Q 2950 3584 3301 3228 
Q 3653 2872 3653 2272 
Q 3653 2128 3634 1964 
Q 3616 1800 3578 1613 
z
" transform="scale(0.015625)"/>
       <path id="DejaVuSans-Oblique-61" d="M 3438 1997 
L 3047 0 
L 2472 0 
L 2578 531 
Q 2325 219 2001 64 
Q 1678 -91 1281 -91 
Q 834 -91 548 182 
Q 263 456 263 884 
Q 263 1497 752 1853 
Q 1241 2209 2100 2209 
L 2900 2209 
L 2931 2363 
Q 2938 2388 2941 2417 
Q 2944 2447 2944 2509 
Q 2944 2788 2717 2942 
Q 2491 3097 2081 3097 
Q 1800 3097 1504 3025 
Q 1209 2953 897 2809 
L 997 3341 
Q 1322 3463 1633 3523 
Q 1944 3584 2234 3584 
Q 2853 3584 3176 3315 
Q 3500 3047 3500 2534 
Q 3500 2431 3484 2292 
Q 3469 2153 3438 1997 
z
M 2816 1759 
L 2241 1759 
Q 1534 1759 1195 1570 
Q 856 1381 856 984 
Q 856 709 1029 553 
Q 1203 397 1509 397 
Q 1978 397 2328 733 
Q 2678 1069 2791 1631 
L 2816 1759 
z
" transform="scale(0.015625)"/>
       <path id="DejaVuSans-Oblique-6b" d="M 1172 4863 
L 1747 4863 
L 1197 2028 
L 3169 3500 
L 3916 3500 
L 1716 1825 
L 3322 0 
L 2625 0 
L 1131 1709 
L 800 0 
L 225 0 
L 1172 4863 
z
" transform="scale(0.015625)"/>
       <path id="DejaVuSans-Oblique-20" transform="scale(0.015625)"/>
       <path id="DejaVuSans-Oblique-2b" d="M 2944 4013 
L 2944 2272 
L 4684 2272 
L 4684 1741 
L 2944 1741 
L 2944 0 
L 2419 0 
L 2419 1741 
L 678 1741 
L 678 2272 
L 2419 2272 
L 2419 4013 
L 2944 4013 
z
" transform="scale(0.015625)"/>
       <path id="DejaVuSans-Oblique-52" d="M 1613 4147 
L 1294 2491 
L 2106 2491 
Q 2584 2491 2879 2755 
Q 3175 3019 3175 3444 
Q 3175 3784 2976 3965 
Q 2778 4147 2406 4147 
L 1613 4147 
z
M 2772 2241 
Q 2972 2194 3105 2009 
Q 3238 1825 3413 1275 
L 3809 0 
L 3144 0 
L 2778 1197 
Q 2638 1659 2453 1815 
Q 2269 1972 1888 1972 
L 1191 1972 
L 806 0 
L 172 0 
L 1081 4666 
L 2503 4666 
Q 3150 4666 3495 4373 
Q 3841 4081 3841 3531 
Q 3841 3044 3547 2687 
Q 3253 2331 2772 2241 
z
" transform="scale(0.015625)"/>
       <path id="DejaVuSans-Oblique-6d" d="M 5747 2113 
L 5338 0 
L 4763 0 
L 5166 2094 
Q 5191 2228 5203 2325 
Q 5216 2422 5216 2491 
Q 5216 2772 5059 2928 
Q 4903 3084 4622 3084 
Q 4203 3084 3875 2770 
Q 3547 2456 3450 1953 
L 3066 0 
L 2491 0 
L 2900 2094 
Q 2925 2209 2937 2307 
Q 2950 2406 2950 2484 
Q 2950 2769 2794 2926 
Q 2638 3084 2363 3084 
Q 1938 3084 1609 2770 
Q 1281 2456 1184 1953 
L 800 0 
L 225 0 
L 909 3500 
L 1484 3500 
L 1375 2956 
Q 1609 3263 1923 3423 
Q 2238 3584 2597 3584 
Q 2978 3584 3223 3384 
Q 3469 3184 3519 2828 
Q 3781 3197 4126 3390 
Q 4472 3584 4856 3584 
Q 5306 3584 5551 3325 
Q 5797 3066 5797 2591 
Q 5797 2488 5784 2364 
Q 5772 2241 5747 2113 
z
" transform="scale(0.015625)"/>
       <path id="DejaVuSans-Oblique-69" d="M 1172 4863 
L 1747 4863 
L 1606 4134 
L 1031 4134 
L 1172 4863 
z
M 909 3500 
L 1484 3500 
L 800 0 
L 225 0 
L 909 3500 
z
" transform="scale(0.015625)"/>
       <path id="DejaVuSans-Oblique-6e" d="M 3566 2113 
L 3156 0 
L 2578 0 
L 2988 2091 
Q 3016 2238 3031 2350 
Q 3047 2463 3047 2528 
Q 3047 2791 2881 2937 
Q 2716 3084 2419 3084 
Q 1956 3084 1622 2776 
Q 1288 2469 1184 1941 
L 800 0 
L 225 0 
L 903 3500 
L 1478 3500 
L 1363 2950 
Q 1603 3253 1940 3418 
Q 2278 3584 2650 3584 
Q 3113 3584 3367 3334 
Q 3622 3084 3622 2631 
Q 3622 2519 3608 2391 
Q 3594 2263 3566 2113 
z
" transform="scale(0.015625)"/>
       <path id="DejaVuSans-Oblique-64" d="M 2675 525 
Q 2444 222 2128 65 
Q 1813 -91 1428 -91 
Q 903 -91 598 267 
Q 294 625 294 1247 
Q 294 1766 478 2236 
Q 663 2706 1013 3078 
Q 1244 3325 1534 3454 
Q 1825 3584 2144 3584 
Q 2481 3584 2739 3421 
Q 2997 3259 3138 2956 
L 3513 4863 
L 4091 4863 
L 3144 0 
L 2566 0 
L 2675 525 
z
M 891 1350 
Q 891 897 1095 644 
Q 1300 391 1663 391 
Q 1931 391 2161 520 
Q 2391 650 2566 903 
Q 2750 1166 2856 1509 
Q 2963 1853 2963 2188 
Q 2963 2622 2758 2865 
Q 2553 3109 2194 3109 
Q 1922 3109 1687 2981 
Q 1453 2853 1288 2613 
Q 1106 2353 998 2009 
Q 891 1666 891 1350 
z
" transform="scale(0.015625)"/>
      </defs>
      <use xlink:href="#DejaVuSans-Oblique-42"/>
      <use xlink:href="#DejaVuSans-Oblique-72" transform="translate(68.603516 0)"/>
      <use xlink:href="#DejaVuSans-Oblique-65" transform="translate(109.716797 0)"/>
      <use xlink:href="#DejaVuSans-Oblique-61" transform="translate(171.240234 0)"/>
      <use xlink:href="#DejaVuSans-Oblique-6b" transform="translate(232.519531 0)"/>
      <use xlink:href="#DejaVuSans-Oblique-20" transform="translate(290.429688 0)"/>
      <use xlink:href="#DejaVuSans-Oblique-2b" transform="translate(322.216797 0)"/>
      <use xlink:href="#DejaVuSans-Oblique-20" transform="translate(406.005859 0)"/>
      <use xlink:href="#DejaVuSans-Oblique-52" transform="translate(437.792969 0)"/>
      <use xlink:href="#DejaVuSans-Oblique-65" transform="translate(507.275391 0)"/>
      <use xlink:href="#DejaVuSans-Oblique-6d" transform="translate(568.798828 0)"/>
      <use xlink:href="#DejaVuSans-Oblique-69" transform="translate(666.210938 0)"/>
      <use xlink:href="#DejaVuSans-Oblique-6e" transform="translate(693.994141 0)"/>
      <use xlink:href="#DejaVuSans-Oblique-64" transform="translate(757.373047 0)"/>
      <use xlink:href="#DejaVuSans-Oblique-65" transform="translate(820.849609 0)"/>
      <use xlink:href="#DejaVuSans-Oblique-72" transform="translate(882.373047 0)"/>
     </g>
    </g>
   </g>
   <g id="text_21">
    <!-- SPC by Competitor Count -->
    <g transform="translate(145.419707 19.3575) scale(0.16 -0.16)">
     <defs>
      <path id="DejaVuSans-43" d="M 4122 4306 
L 4122 3641 
Q 3803 3938 3442 4084 
Q 3081 4231 2675 4231 
Q 1875 4231 1450 3742 
Q 1025 3253 1025 2328 
Q 1025 1406 1450 917 
Q 1875 428 2675 428 
Q 3081 428 3442 575 
Q 3803 722 4122 1019 
L 4122 359 
Q 3791 134 3420 21 
Q 3050 -91 2638 -91 
Q 1578 -91 968 557 
Q 359 1206 359 2328 
Q 359 3453 968 4101 
Q 1578 4750 2638 4750 
Q 3056 4750 3426 4639 
Q 3797 4528 4122 4306 
z
" transform="scale(0.015625)"/>
      <path id="DejaVuSans-6d" d="M 3328 2828 
Q 3544 3216 3844 3400 
Q 4144 3584 4550 3584 
Q 5097 3584 5394 3201 
Q 5691 2819 5691 2113 
L 5691 0 
L 5113 0 
L 5113 2094 
Q 5113 2597 4934 2840 
Q 4756 3084 4391 3084 
Q 3944 3084 3684 2787 
Q 3425 2491 3425 1978 
L 3425 0 
L 2847 0 
L 2847 2094 
Q 2847 2600 2669 2842 
Q 2491 3084 2119 3084 
Q 1678 3084 1418 2786 
Q 1159 2488 1159 1978 
L 1159 0 
L 581 0 
L 581 3500 
L 1159 3500 
L 1159 2956 
Q 1356 3278 1631 3431 
Q 1906 3584 2284 3584 
Q 2666 3584 2933 3390 
Q 3200 3197 3328 2828 
z
" transform="scale(0.015625)"/>
      <path id="DejaVuSans-70" d="M 1159 525 
L 1159 -1331 
L 581 -1331 
L 581 3500 
L 1159 3500 
L 1159 2969 
Q 1341 3281 1617 3432 
Q 1894 3584 2278 3584 
Q 2916 3584 3314 3078 
Q 3713 2572 3713 1747 
Q 3713 922 3314 415 
Q 2916 -91 2278 -91 
Q 1894 -91 1617 61 
Q 1341 213 1159 525 
z
M 3116 1747 
Q 3116 2381 2855 2742 
Q 2594 3103 2138 3103 
Q 1681 3103 1420 2742 
Q 1159 2381 1159 1747 
Q 1159 1113 1420 752 
Q 1681 391 2138 391 
Q 2594 391 2855 752 
Q 3116 1113 3116 1747 
z
" transform="scale(0.015625)"/>
     </defs>
     <use xlink:href="#DejaVuSans-53"/>
     <use xlink:href="#DejaVuSans-50" transform="translate(63.476562 0)"/>
     <use xlink:href="#DejaVuSans-43" transform="translate(123.779297 0)"/>
     <use xlink:href="#DejaVuSans-20" transform="translate(193.603516 0)"/>
     <use xlink:href="#DejaVuSans-62" transform="translate(225.390625 0)"/>
     <use xlink:href="#DejaVuSans-79" transform="translate(288.867188 0)"/>
     <use xlink:href="#DejaVuSans-20" transform="translate(348.046875 0)"/>
     <use xlink:href="#DejaVuSans-43" transform="translate(379.833984 0)"/>
     <use xlink:href="#DejaVuSans-6f" transform="translate(449.658203 0)"/>
     <use xlink:href="#DejaVuSans-6d" transform="translate(510.839844 0)"/>
     <use xlink:href="#DejaVuSans-70" transform="translate(608.251953 0)"/>
     <use xlink:href="#DejaVuSans-65" transform="translate(671.728516 0)"/>
     <use xlink:href="#DejaVuSans-74" transform="translate(733.251953 0)"/>
     <use xlink:href="#DejaVuSans-69" transform="translate(772.460938 0)"/>
     <use xlink:href="#DejaVuSans-74" transform="translate(800.244141 0)"/>
     <use xlink:href="#DejaVuSans-6f" transform="translate(839.453125 0)"/>
     <use xlink:href="#DejaVuSans-72" transform="translate(900.634766 0)"/>
     <use xlink:href="#DejaVuSans-20" transform="translate(941.748047 0)"/>
     <use xlink:href="#DejaVuSans-43" transform="translate(973.535156 0)"/>
     <use xlink:href="#DejaVuSans-6f" transform="translate(1043.359375 0)"/>
     <use xlink:href="#DejaVuSans-75" transform="translate(1104.541016 0)"/>
     <use xlink:href="#DejaVuSans-6e" transform="translate(1167.919922 0)"/>
     <use xlink:href="#DejaVuSans-74" transform="translate(1231.298828 0)"/>
    </g>
   </g>
   <g id="legend_1">
    <g id="patch_5">
     <path d="M 444.953202 275.3225 
L 519.032577 275.3225 
Q 521.432577 275.3225 521.432577 272.9225 
L 521.432577 62.7575 
Q 521.432577 60.3575 519.032577 60.3575 
L 444.953202 60.3575 
Q 442.553202 60.3575 442.553202 62.7575 
L 442.553202 272.9225 
Q 442.553202 275.3225 444.953202 275.3225 
z
" style="fill: #ffffff; opacity: 0.8; stroke: #cccccc; stroke-linejoin: miter"/>
    </g>
    <g id="line2d_38">
     <path d="M 447.353202 70.075625 
L 459.353202 70.075625 
L 471.353202 70.075625 
" style="fill: none; stroke: #bfbfbf; stroke-width: 1.5; stroke-linecap: square"/>
    </g>
    <g id="text_22">
     <!-- M=10 -->
     <g transform="translate(480.953202 74.275625) scale(0.12 -0.12)">
      <defs>
       <path id="DejaVuSans-4d" d="M 628 4666 
L 1569 4666 
L 2759 1491 
L 3956 4666 
L 4897 4666 
L 4897 0 
L 4281 0 
L 4281 4097 
L 3078 897 
L 2444 897 
L 1241 4097 
L 1241 0 
L 628 0 
L 628 4666 
z
" transform="scale(0.015625)"/>
       <path id="DejaVuSans-3d" d="M 678 2906 
L 4684 2906 
L 4684 2381 
L 678 2381 
L 678 2906 
z
M 678 1631 
L 4684 1631 
L 4684 1100 
L 678 1100 
L 678 1631 
z
" transform="scale(0.015625)"/>
      </defs>
      <use xlink:href="#DejaVuSans-4d"/>
      <use xlink:href="#DejaVuSans-3d" transform="translate(86.279297 0)"/>
      <use xlink:href="#DejaVuSans-31" transform="translate(170.068359 0)"/>
      <use xlink:href="#DejaVuSans-30" transform="translate(233.691406 0)"/>
     </g>
    </g>
    <g id="line2d_39">
     <path d="M 447.353202 87.689375 
L 459.353202 87.689375 
L 471.353202 87.689375 
" style="fill: none; stroke: #b0b0b0; stroke-width: 1.5; stroke-linecap: square"/>
    </g>
    <g id="text_23">
     <!-- M=12 -->
     <g transform="translate(480.953202 91.889375) scale(0.12 -0.12)">
      <use xlink:href="#DejaVuSans-4d"/>
      <use xlink:href="#DejaVuSans-3d" transform="translate(86.279297 0)"/>
      <use xlink:href="#DejaVuSans-31" transform="translate(170.068359 0)"/>
      <use xlink:href="#DejaVuSans-32" transform="translate(233.691406 0)"/>
     </g>
    </g>
    <g id="line2d_40">
     <path d="M 447.353202 105.303125 
L 459.353202 105.303125 
L 471.353202 105.303125 
" style="fill: none; stroke: #a1a1a1; stroke-width: 1.5; stroke-linecap: square"/>
    </g>
    <g id="text_24">
     <!-- M=14 -->
     <g transform="translate(480.953202 109.503125) scale(0.12 -0.12)">
      <use xlink:href="#DejaVuSans-4d"/>
      <use xlink:href="#DejaVuSans-3d" transform="translate(86.279297 0)"/>
      <use xlink:href="#DejaVuSans-31" transform="translate(170.068359 0)"/>
      <use xlink:href="#DejaVuSans-34" transform="translate(233.691406 0)"/>
     </g>
    </g>
    <g id="line2d_41">
     <path d="M 447.353202 122.916875 
L 459.353202 122.916875 
L 471.353202 122.916875 
" style="fill: none; stroke: #929292; stroke-width: 1.5; stroke-linecap: square"/>
    </g>
    <g id="text_25">
     <!-- M=16 -->
     <g transform="translate(480.953202 127.116875) scale(0.12 -0.12)">
      <use xlink:href="#DejaVuSans-4d"/>
      <use xlink:href="#DejaVuSans-3d" transform="translate(86.279297 0)"/>
      <use xlink:href="#DejaVuSans-31" transform="translate(170.068359 0)"/>
      <use xlink:href="#DejaVuSans-36" transform="translate(233.691406 0)"/>
     </g>
    </g>
    <g id="line2d_42">
     <path d="M 447.353202 140.530625 
L 459.353202 140.530625 
L 471.353202 140.530625 
" style="fill: none; stroke: #828282; stroke-width: 1.5; stroke-linecap: square"/>
    </g>
    <g id="text_26">
     <!-- M=18 -->
     <g transform="translate(480.953202 144.730625) scale(0.12 -0.12)">
      <use xlink:href="#DejaVuSans-4d"/>
      <use xlink:href="#DejaVuSans-3d" transform="translate(86.279297 0)"/>
      <use xlink:href="#DejaVuSans-31" transform="translate(170.068359 0)"/>
      <use xlink:href="#DejaVuSans-38" transform="translate(233.691406 0)"/>
     </g>
    </g>
    <g id="line2d_43">
     <path d="M 447.353202 158.144375 
L 459.353202 158.144375 
L 471.353202 158.144375 
" style="fill: none; stroke: #737373; stroke-width: 1.5; stroke-linecap: square"/>
    </g>
    <g id="text_27">
     <!-- M=20 -->
     <g transform="translate(480.953202 162.344375) scale(0.12 -0.12)">
      <use xlink:href="#DejaVuSans-4d"/>
      <use xlink:href="#DejaVuSans-3d" transform="translate(86.279297 0)"/>
      <use xlink:href="#DejaVuSans-32" transform="translate(170.068359 0)"/>
      <use xlink:href="#DejaVuSans-30" transform="translate(233.691406 0)"/>
     </g>
    </g>
    <g id="line2d_44">
     <path d="M 447.353202 175.758125 
L 459.353202 175.758125 
L 471.353202 175.758125 
" style="fill: none; stroke: #646464; stroke-width: 1.5; stroke-linecap: square"/>
    </g>
    <g id="text_28">
     <!-- M=22 -->
     <g transform="translate(480.953202 179.958125) scale(0.12 -0.12)">
      <use xlink:href="#DejaVuSans-4d"/>
      <use xlink:href="#DejaVuSans-3d" transform="translate(86.279297 0)"/>
      <use xlink:href="#DejaVuSans-32" transform="translate(170.068359 0)"/>
      <use xlink:href="#DejaVuSans-32" transform="translate(233.691406 0)"/>
     </g>
    </g>
    <g id="line2d_45">
     <path d="M 447.353202 193.371875 
L 459.353202 193.371875 
L 471.353202 193.371875 
" style="fill: none; stroke: #555555; stroke-width: 1.5; stroke-linecap: square"/>
    </g>
    <g id="text_29">
     <!-- M=24 -->
     <g transform="translate(480.953202 197.571875) scale(0.12 -0.12)">
      <use xlink:href="#DejaVuSans-4d"/>
      <use xlink:href="#DejaVuSans-3d" transform="translate(86.279297 0)"/>
      <use xlink:href="#DejaVuSans-32" transform="translate(170.068359 0)"/>
      <use xlink:href="#DejaVuSans-34" transform="translate(233.691406 0)"/>
     </g>
    </g>
    <g id="line2d_46">
     <path d="M 447.353202 210.985625 
L 459.353202 210.985625 
L 471.353202 210.985625 
" style="fill: none; stroke: #464646; stroke-width: 1.5; stroke-linecap: square"/>
    </g>
    <g id="text_30">
     <!-- M=26 -->
     <g transform="translate(480.953202 215.185625) scale(0.12 -0.12)">
      <use xlink:href="#DejaVuSans-4d"/>
      <use xlink:href="#DejaVuSans-3d" transform="translate(86.279297 0)"/>
      <use xlink:href="#DejaVuSans-32" transform="translate(170.068359 0)"/>
      <use xlink:href="#DejaVuSans-36" transform="translate(233.691406 0)"/>
     </g>
    </g>
    <g id="line2d_47">
     <path d="M 447.353202 228.599375 
L 459.353202 228.599375 
L 471.353202 228.599375 
" style="fill: none; stroke: #373737; stroke-width: 1.5; stroke-linecap: square"/>
    </g>
    <g id="text_31">
     <!-- M=28 -->
     <g transform="translate(480.953202 232.799375) scale(0.12 -0.12)">
      <use xlink:href="#DejaVuSans-4d"/>
      <use xlink:href="#DejaVuSans-3d" transform="translate(86.279297 0)"/>
      <use xlink:href="#DejaVuSans-32" transform="translate(170.068359 0)"/>
      <use xlink:href="#DejaVuSans-38" transform="translate(233.691406 0)"/>
     </g>
    </g>
    <g id="line2d_48">
     <path d="M 447.353202 246.213125 
L 459.353202 246.213125 
L 471.353202 246.213125 
" style="fill: none; stroke: #282828; stroke-width: 1.5; stroke-linecap: square"/>
    </g>
    <g id="text_32">
     <!-- M=30 -->
     <g transform="translate(480.953202 250.413125) scale(0.12 -0.12)">
      <use xlink:href="#DejaVuSans-4d"/>
      <use xlink:href="#DejaVuSans-3d" transform="translate(86.279297 0)"/>
      <use xlink:href="#DejaVuSans-33" transform="translate(170.068359 0)"/>
      <use xlink:href="#DejaVuSans-30" transform="translate(233.691406 0)"/>
     </g>
    </g>
    <g id="line2d_49">
     <path d="M 447.353202 263.826875 
L 459.353202 263.826875 
L 471.353202 263.826875 
" style="fill: none; stroke: #191919; stroke-width: 1.5; stroke-linecap: square"/>
    </g>
    <g id="text_33">
     <!-- M=32 -->
     <g transform="translate(480.953202 268.026875) scale(0.12 -0.12)">
      <use xlink:href="#DejaVuSans-4d"/>
      <use xlink:href="#DejaVuSans-3d" transform="translate(86.279297 0)"/>
      <use xlink:href="#DejaVuSans-33" transform="translate(170.068359 0)"/>
      <use xlink:href="#DejaVuSans-32" transform="translate(233.691406 0)"/>
     </g>
    </g>
   </g>
  </g>
  <g id="axes_2">
   <g id="patch_6">
    <path d="M 593.248712 331.5575 
L 957.656875 331.5575 
L 957.656875 54.3575 
L 593.248712 54.3575 
z
" style="fill: #ffffff"/>
   </g>
   <g id="FillBetweenPolyCollection_1">
    <defs>
     <path id="m5716775347" d="M 609.812719 -311.834375 
L 609.812719 -225.360499 
L 639.929096 -199.275738 
L 670.045473 -190.122858 
L 700.161851 -165.839081 
L 730.278228 -144.482301 
L 760.394605 -129.071407 
L 790.510982 -118.504692 
L 820.627359 -105.72854 
L 850.743736 -89.875542 
L 880.860113 -82.482315 
L 910.97649 -72.073192 
L 941.092868 -59.834375 
L 941.092868 -132.873528 
L 941.092868 -132.873528 
L 910.97649 -147.131276 
L 880.860113 -157.330518 
L 850.743736 -164.081623 
L 820.627359 -185.285324 
L 790.510982 -198.07758 
L 760.394605 -211.351486 
L 730.278228 -224.965148 
L 700.161851 -246.489339 
L 670.045473 -272.062376 
L 639.929096 -283.870089 
L 609.812719 -311.834375 
z
" style="stroke: #000000; stroke-opacity: 0.25"/>
    </defs>
    <g clip-path="url(#p31557bf42d)">
     <use xlink:href="#m5716775347" x="0" y="378.791875" style="fill-opacity: 0.25; stroke: #000000; stroke-opacity: 0.25"/>
    </g>
   </g>
   <g id="matplotlib.axis_3">
    <g id="xtick_7">
     <g id="line2d_50">
      <g>
       <use xlink:href="#mc1cc53905b" x="609.812719" y="331.5575" style="stroke: #000000; stroke-width: 0.8"/>
      </g>
     </g>
     <g id="text_34">
      <!-- 10 -->
      <g transform="translate(600.905219 349.195312) scale(0.14 -0.14)">
       <use xlink:href="#DejaVuSans-31"/>
       <use xlink:href="#DejaVuSans-30" transform="translate(63.623047 0)"/>
      </g>
     </g>
    </g>
    <g id="xtick_8">
     <g id="line2d_51">
      <g>
       <use xlink:href="#mc1cc53905b" x="685.103662" y="331.5575" style="stroke: #000000; stroke-width: 0.8"/>
      </g>
     </g>
     <g id="text_35">
      <!-- 15 -->
      <g transform="translate(676.196162 349.195312) scale(0.14 -0.14)">
       <use xlink:href="#DejaVuSans-31"/>
       <use xlink:href="#DejaVuSans-35" transform="translate(63.623047 0)"/>
      </g>
     </g>
    </g>
    <g id="xtick_9">
     <g id="line2d_52">
      <g>
       <use xlink:href="#mc1cc53905b" x="760.394605" y="331.5575" style="stroke: #000000; stroke-width: 0.8"/>
      </g>
     </g>
     <g id="text_36">
      <!-- 20 -->
      <g transform="translate(751.487105 349.195312) scale(0.14 -0.14)">
       <use xlink:href="#DejaVuSans-32"/>
       <use xlink:href="#DejaVuSans-30" transform="translate(63.623047 0)"/>
      </g>
     </g>
    </g>
    <g id="xtick_10">
     <g id="line2d_53">
      <g>
       <use xlink:href="#mc1cc53905b" x="835.685548" y="331.5575" style="stroke: #000000; stroke-width: 0.8"/>
      </g>
     </g>
     <g id="text_37">
      <!-- 25 -->
      <g transform="translate(826.778048 349.195312) scale(0.14 -0.14)">
       <use xlink:href="#DejaVuSans-32"/>
       <use xlink:href="#DejaVuSans-35" transform="translate(63.623047 0)"/>
      </g>
     </g>
    </g>
    <g id="xtick_11">
     <g id="line2d_54">
      <g>
       <use xlink:href="#mc1cc53905b" x="910.97649" y="331.5575" style="stroke: #000000; stroke-width: 0.8"/>
      </g>
     </g>
     <g id="text_38">
      <!-- 30 -->
      <g transform="translate(902.06899 349.195312) scale(0.14 -0.14)">
       <use xlink:href="#DejaVuSans-33"/>
       <use xlink:href="#DejaVuSans-30" transform="translate(63.623047 0)"/>
      </g>
     </g>
    </g>
    <g id="text_39">
     <!-- Number of Competitors (M) -->
     <g transform="translate(665.710293 368.264375) scale(0.16 -0.16)">
      <defs>
       <path id="DejaVuSans-4e" d="M 628 4666 
L 1478 4666 
L 3547 763 
L 3547 4666 
L 4159 4666 
L 4159 0 
L 3309 0 
L 1241 3903 
L 1241 0 
L 628 0 
L 628 4666 
z
" transform="scale(0.015625)"/>
       <path id="DejaVuSans-66" d="M 2375 4863 
L 2375 4384 
L 1825 4384 
Q 1516 4384 1395 4259 
Q 1275 4134 1275 3809 
L 1275 3500 
L 2222 3500 
L 2222 3053 
L 1275 3053 
L 1275 0 
L 697 0 
L 697 3053 
L 147 3053 
L 147 3500 
L 697 3500 
L 697 3744 
Q 697 4328 969 4595 
Q 1241 4863 1831 4863 
L 2375 4863 
z
" transform="scale(0.015625)"/>
       <path id="DejaVuSans-28" d="M 1984 4856 
Q 1566 4138 1362 3434 
Q 1159 2731 1159 2009 
Q 1159 1288 1364 580 
Q 1569 -128 1984 -844 
L 1484 -844 
Q 1016 -109 783 600 
Q 550 1309 550 2009 
Q 550 2706 781 3412 
Q 1013 4119 1484 4856 
L 1984 4856 
z
" transform="scale(0.015625)"/>
       <path id="DejaVuSans-29" d="M 513 4856 
L 1013 4856 
Q 1481 4119 1714 3412 
Q 1947 2706 1947 2009 
Q 1947 1309 1714 600 
Q 1481 -109 1013 -844 
L 513 -844 
Q 928 -128 1133 580 
Q 1338 1288 1338 2009 
Q 1338 2731 1133 3434 
Q 928 4138 513 4856 
z
" transform="scale(0.015625)"/>
      </defs>
      <use xlink:href="#DejaVuSans-4e"/>
      <use xlink:href="#DejaVuSans-75" transform="translate(74.804688 0)"/>
      <use xlink:href="#DejaVuSans-6d" transform="translate(138.183594 0)"/>
      <use xlink:href="#DejaVuSans-62" transform="translate(235.595703 0)"/>
      <use xlink:href="#DejaVuSans-65" transform="translate(299.072266 0)"/>
      <use xlink:href="#DejaVuSans-72" transform="translate(360.595703 0)"/>
      <use xlink:href="#DejaVuSans-20" transform="translate(401.708984 0)"/>
      <use xlink:href="#DejaVuSans-6f" transform="translate(433.496094 0)"/>
      <use xlink:href="#DejaVuSans-66" transform="translate(494.677734 0)"/>
      <use xlink:href="#DejaVuSans-20" transform="translate(529.882812 0)"/>
      <use xlink:href="#DejaVuSans-43" transform="translate(561.669922 0)"/>
      <use xlink:href="#DejaVuSans-6f" transform="translate(631.494141 0)"/>
      <use xlink:href="#DejaVuSans-6d" transform="translate(692.675781 0)"/>
      <use xlink:href="#DejaVuSans-70" transform="translate(790.087891 0)"/>
      <use xlink:href="#DejaVuSans-65" transform="translate(853.564453 0)"/>
      <use xlink:href="#DejaVuSans-74" transform="translate(915.087891 0)"/>
      <use xlink:href="#DejaVuSans-69" transform="translate(954.296875 0)"/>
      <use xlink:href="#DejaVuSans-74" transform="translate(982.080078 0)"/>
      <use xlink:href="#DejaVuSans-6f" transform="translate(1021.289062 0)"/>
      <use xlink:href="#DejaVuSans-72" transform="translate(1082.470703 0)"/>
      <use xlink:href="#DejaVuSans-73" transform="translate(1123.583984 0)"/>
      <use xlink:href="#DejaVuSans-20" transform="translate(1175.683594 0)"/>
      <use xlink:href="#DejaVuSans-28" transform="translate(1207.470703 0)"/>
      <use xlink:href="#DejaVuSans-4d" transform="translate(1246.484375 0)"/>
      <use xlink:href="#DejaVuSans-29" transform="translate(1332.763672 0)"/>
     </g>
    </g>
   </g>
   <g id="matplotlib.axis_4">
    <g id="ytick_10">
     <g id="line2d_55">
      <path d="M 593.248712 298.998272 
L 957.656875 298.998272 
" clip-path="url(#p31557bf42d)" style="fill: none; stroke-dasharray: 1.85,0.8; stroke-dashoffset: 0; stroke: #b0b0b0; stroke-opacity: 0.3; stroke-width: 0.5"/>
     </g>
     <g id="line2d_56">
      <g>
       <use xlink:href="#m080c426b19" x="593.248712" y="298.998272" style="stroke: #000000; stroke-width: 0.8"/>
      </g>
     </g>
     <g id="text_40">
      <!-- 2.4 -->
      <g transform="translate(563.984337 304.317178) scale(0.14 -0.14)">
       <use xlink:href="#DejaVuSans-32"/>
       <use xlink:href="#DejaVuSans-2e" transform="translate(63.623047 0)"/>
       <use xlink:href="#DejaVuSans-34" transform="translate(95.410156 0)"/>
      </g>
     </g>
    </g>
    <g id="ytick_11">
     <g id="line2d_57">
      <path d="M 593.248712 258.677457 
L 957.656875 258.677457 
" clip-path="url(#p31557bf42d)" style="fill: none; stroke-dasharray: 1.85,0.8; stroke-dashoffset: 0; stroke: #b0b0b0; stroke-opacity: 0.3; stroke-width: 0.5"/>
     </g>
     <g id="line2d_58">
      <g>
       <use xlink:href="#m080c426b19" x="593.248712" y="258.677457" style="stroke: #000000; stroke-width: 0.8"/>
      </g>
     </g>
     <g id="text_41">
      <!-- 2.6 -->
      <g transform="translate(563.984337 263.996363) scale(0.14 -0.14)">
       <use xlink:href="#DejaVuSans-32"/>
       <use xlink:href="#DejaVuSans-2e" transform="translate(63.623047 0)"/>
       <use xlink:href="#DejaVuSans-36" transform="translate(95.410156 0)"/>
      </g>
     </g>
    </g>
    <g id="ytick_12">
     <g id="line2d_59">
      <path d="M 593.248712 218.356643 
L 957.656875 218.356643 
" clip-path="url(#p31557bf42d)" style="fill: none; stroke-dasharray: 1.85,0.8; stroke-dashoffset: 0; stroke: #b0b0b0; stroke-opacity: 0.3; stroke-width: 0.5"/>
     </g>
     <g id="line2d_60">
      <g>
       <use xlink:href="#m080c426b19" x="593.248712" y="218.356643" style="stroke: #000000; stroke-width: 0.8"/>
      </g>
     </g>
     <g id="text_42">
      <!-- 2.8 -->
      <g transform="translate(563.984337 223.675549) scale(0.14 -0.14)">
       <use xlink:href="#DejaVuSans-32"/>
       <use xlink:href="#DejaVuSans-2e" transform="translate(63.623047 0)"/>
       <use xlink:href="#DejaVuSans-38" transform="translate(95.410156 0)"/>
      </g>
     </g>
    </g>
    <g id="ytick_13">
     <g id="line2d_61">
      <path d="M 593.248712 178.035828 
L 957.656875 178.035828 
" clip-path="url(#p31557bf42d)" style="fill: none; stroke-dasharray: 1.85,0.8; stroke-dashoffset: 0; stroke: #b0b0b0; stroke-opacity: 0.3; stroke-width: 0.5"/>
     </g>
     <g id="line2d_62">
      <g>
       <use xlink:href="#m080c426b19" x="593.248712" y="178.035828" style="stroke: #000000; stroke-width: 0.8"/>
      </g>
     </g>
     <g id="text_43">
      <!-- 3.0 -->
      <g transform="translate(563.984337 183.354734) scale(0.14 -0.14)">
       <use xlink:href="#DejaVuSans-33"/>
       <use xlink:href="#DejaVuSans-2e" transform="translate(63.623047 0)"/>
       <use xlink:href="#DejaVuSans-30" transform="translate(95.410156 0)"/>
      </g>
     </g>
    </g>
    <g id="ytick_14">
     <g id="line2d_63">
      <path d="M 593.248712 137.715014 
L 957.656875 137.715014 
" clip-path="url(#p31557bf42d)" style="fill: none; stroke-dasharray: 1.85,0.8; stroke-dashoffset: 0; stroke: #b0b0b0; stroke-opacity: 0.3; stroke-width: 0.5"/>
     </g>
     <g id="line2d_64">
      <g>
       <use xlink:href="#m080c426b19" x="593.248712" y="137.715014" style="stroke: #000000; stroke-width: 0.8"/>
      </g>
     </g>
     <g id="text_44">
      <!-- 3.2 -->
      <g transform="translate(563.984337 143.03392) scale(0.14 -0.14)">
       <use xlink:href="#DejaVuSans-33"/>
       <use xlink:href="#DejaVuSans-2e" transform="translate(63.623047 0)"/>
       <use xlink:href="#DejaVuSans-32" transform="translate(95.410156 0)"/>
      </g>
     </g>
    </g>
    <g id="ytick_15">
     <g id="line2d_65">
      <path d="M 593.248712 97.394199 
L 957.656875 97.394199 
" clip-path="url(#p31557bf42d)" style="fill: none; stroke-dasharray: 1.85,0.8; stroke-dashoffset: 0; stroke: #b0b0b0; stroke-opacity: 0.3; stroke-width: 0.5"/>
     </g>
     <g id="line2d_66">
      <g>
       <use xlink:href="#m080c426b19" x="593.248712" y="97.394199" style="stroke: #000000; stroke-width: 0.8"/>
      </g>
     </g>
     <g id="text_45">
      <!-- 3.4 -->
      <g transform="translate(563.984337 102.713105) scale(0.14 -0.14)">
       <use xlink:href="#DejaVuSans-33"/>
       <use xlink:href="#DejaVuSans-2e" transform="translate(63.623047 0)"/>
       <use xlink:href="#DejaVuSans-34" transform="translate(95.410156 0)"/>
      </g>
     </g>
    </g>
    <g id="ytick_16">
     <g id="line2d_67">
      <path d="M 593.248712 57.073385 
L 957.656875 57.073385 
" clip-path="url(#p31557bf42d)" style="fill: none; stroke-dasharray: 1.85,0.8; stroke-dashoffset: 0; stroke: #b0b0b0; stroke-opacity: 0.3; stroke-width: 0.5"/>
     </g>
     <g id="line2d_68">
      <g>
       <use xlink:href="#m080c426b19" x="593.248712" y="57.073385" style="stroke: #000000; stroke-width: 0.8"/>
      </g>
     </g>
     <g id="text_46">
      <!-- 3.6 -->
      <g transform="translate(563.984337 62.392291) scale(0.14 -0.14)">
       <use xlink:href="#DejaVuSans-33"/>
       <use xlink:href="#DejaVuSans-2e" transform="translate(63.623047 0)"/>
       <use xlink:href="#DejaVuSans-36" transform="translate(95.410156 0)"/>
      </g>
     </g>
    </g>
    <g id="text_47">
     <!-- Film Items Recalled -->
     <g transform="translate(556.656837 270.54875) rotate(-90) scale(0.16 -0.16)">
      <defs>
       <path id="DejaVuSans-46" d="M 628 4666 
L 3309 4666 
L 3309 4134 
L 1259 4134 
L 1259 2759 
L 3109 2759 
L 3109 2228 
L 1259 2228 
L 1259 0 
L 628 0 
L 628 4666 
z
" transform="scale(0.015625)"/>
       <path id="DejaVuSans-49" d="M 628 4666 
L 1259 4666 
L 1259 0 
L 628 0 
L 628 4666 
z
" transform="scale(0.015625)"/>
      </defs>
      <use xlink:href="#DejaVuSans-46"/>
      <use xlink:href="#DejaVuSans-69" transform="translate(50.269531 0)"/>
      <use xlink:href="#DejaVuSans-6c" transform="translate(78.052734 0)"/>
      <use xlink:href="#DejaVuSans-6d" transform="translate(105.835938 0)"/>
      <use xlink:href="#DejaVuSans-20" transform="translate(203.248047 0)"/>
      <use xlink:href="#DejaVuSans-49" transform="translate(235.035156 0)"/>
      <use xlink:href="#DejaVuSans-74" transform="translate(264.527344 0)"/>
      <use xlink:href="#DejaVuSans-65" transform="translate(303.736328 0)"/>
      <use xlink:href="#DejaVuSans-6d" transform="translate(365.259766 0)"/>
      <use xlink:href="#DejaVuSans-73" transform="translate(462.671875 0)"/>
      <use xlink:href="#DejaVuSans-20" transform="translate(514.771484 0)"/>
      <use xlink:href="#DejaVuSans-52" transform="translate(546.558594 0)"/>
      <use xlink:href="#DejaVuSans-65" transform="translate(611.541016 0)"/>
      <use xlink:href="#DejaVuSans-63" transform="translate(673.064453 0)"/>
      <use xlink:href="#DejaVuSans-61" transform="translate(728.044922 0)"/>
      <use xlink:href="#DejaVuSans-6c" transform="translate(789.324219 0)"/>
      <use xlink:href="#DejaVuSans-6c" transform="translate(817.107422 0)"/>
      <use xlink:href="#DejaVuSans-65" transform="translate(844.890625 0)"/>
      <use xlink:href="#DejaVuSans-64" transform="translate(906.414062 0)"/>
     </g>
    </g>
   </g>
   <g id="line2d_69">
    <path d="M 609.812719 110.194438 
L 639.929096 137.218961 
L 670.045473 147.699258 
L 700.161851 172.627665 
L 730.278228 194.06815 
L 760.394605 208.580429 
L 790.510982 220.500739 
L 820.627359 233.284943 
L 850.743736 251.813293 
L 880.860113 258.885459 
L 910.97649 269.189641 
L 941.092868 282.437923 
" clip-path="url(#p31557bf42d)" style="fill: none; stroke: #000000; stroke-width: 1.5; stroke-linecap: square"/>
    <defs>
     <path id="m4f866d652b" d="M 0 2.5 
C 0.663008 2.5 1.29895 2.236584 1.767767 1.767767 
C 2.236584 1.29895 2.5 0.663008 2.5 0 
C 2.5 -0.663008 2.236584 -1.29895 1.767767 -1.767767 
C 1.29895 -2.236584 0.663008 -2.5 0 -2.5 
C -0.663008 -2.5 -1.29895 -2.236584 -1.767767 -1.767767 
C -2.236584 -1.29895 -2.5 -0.663008 -2.5 0 
C -2.5 0.663008 -2.236584 1.29895 -1.767767 1.767767 
C -1.29895 2.236584 -0.663008 2.5 0 2.5 
z
" style="stroke: #000000"/>
    </defs>
    <g clip-path="url(#p31557bf42d)">
     <use xlink:href="#m4f866d652b" x="609.812719" y="110.194438" style="stroke: #000000"/>
     <use xlink:href="#m4f866d652b" x="639.929096" y="137.218961" style="stroke: #000000"/>
     <use xlink:href="#m4f866d652b" x="670.045473" y="147.699258" style="stroke: #000000"/>
     <use xlink:href="#m4f866d652b" x="700.161851" y="172.627665" style="stroke: #000000"/>
     <use xlink:href="#m4f866d652b" x="730.278228" y="194.06815" style="stroke: #000000"/>
     <use xlink:href="#m4f866d652b" x="760.394605" y="208.580429" style="stroke: #000000"/>
     <use xlink:href="#m4f866d652b" x="790.510982" y="220.500739" style="stroke: #000000"/>
     <use xlink:href="#m4f866d652b" x="820.627359" y="233.284943" style="stroke: #000000"/>
     <use xlink:href="#m4f866d652b" x="850.743736" y="251.813293" style="stroke: #000000"/>
     <use xlink:href="#m4f866d652b" x="880.860113" y="258.885459" style="stroke: #000000"/>
     <use xlink:href="#m4f866d652b" x="910.97649" y="269.189641" style="stroke: #000000"/>
     <use xlink:href="#m4f866d652b" x="941.092868" y="282.437923" style="stroke: #000000"/>
    </g>
   </g>
   <g id="patch_7">
    <path d="M 593.248712 331.5575 
L 593.248712 54.3575 
" style="fill: none; stroke: #000000; stroke-width: 0.8; stroke-linejoin: miter; stroke-linecap: square"/>
   </g>
   <g id="patch_8">
    <path d="M 593.248712 331.5575 
L 957.656875 331.5575 
" style="fill: none; stroke: #000000; stroke-width: 0.8; stroke-linejoin: miter; stroke-linecap: square"/>
   </g>
   <g id="text_48">
    <!-- Film Items Recalled -->
    <g transform="translate(697.861543 19.3575) scale(0.16 -0.16)">
     <use xlink:href="#DejaVuSans-46"/>
     <use xlink:href="#DejaVuSans-69" transform="translate(50.269531 0)"/>
     <use xlink:href="#DejaVuSans-6c" transform="translate(78.052734 0)"/>
     <use xlink:href="#DejaVuSans-6d" transform="translate(105.835938 0)"/>
     <use xlink:href="#DejaVuSans-20" transform="translate(203.248047 0)"/>
     <use xlink:href="#DejaVuSans-49" transform="translate(235.035156 0)"/>
     <use xlink:href="#DejaVuSans-74" transform="translate(264.527344 0)"/>
     <use xlink:href="#DejaVuSans-65" transform="translate(303.736328 0)"/>
     <use xlink:href="#DejaVuSans-6d" transform="translate(365.259766 0)"/>
     <use xlink:href="#DejaVuSans-73" transform="translate(462.671875 0)"/>
     <use xlink:href="#DejaVuSans-20" transform="translate(514.771484 0)"/>
     <use xlink:href="#DejaVuSans-52" transform="translate(546.558594 0)"/>
     <use xlink:href="#DejaVuSans-65" transform="translate(611.541016 0)"/>
     <use xlink:href="#DejaVuSans-63" transform="translate(673.064453 0)"/>
     <use xlink:href="#DejaVuSans-61" transform="translate(728.044922 0)"/>
     <use xlink:href="#DejaVuSans-6c" transform="translate(789.324219 0)"/>
     <use xlink:href="#DejaVuSans-6c" transform="translate(817.107422 0)"/>
     <use xlink:href="#DejaVuSans-65" transform="translate(844.890625 0)"/>
     <use xlink:href="#DejaVuSans-64" transform="translate(906.414062 0)"/>
    </g>
   </g>
  </g>
 </g>
 <defs>
  <clipPath id="p0dbd703579">
   <rect x="64.856875" y="54.3575" width="364.408163" height="277.2"/>
  </clipPath>
  <clipPath id="p31557bf42d">
   <rect x="593.248712" y="54.3575" width="364.408163" height="277.2"/>
  </clipPath>
 </defs>
</svg>
