<?xml version="1.0" encoding="utf-8" standalone="no"?>
<!DOCTYPE svg PUBLIC "-//W3C//DTD SVG 1.1//EN"
  "http://www.w3.org/Graphics/SVG/1.1/DTD/svg11.dtd">
<svg xmlns:xlink="http://www.w3.org/1999/xlink" width="955.949375pt" height="378.791875pt" viewBox="0 0 955.949375 378.791875" xmlns="http://www.w3.org/2000/svg" version="1.1">
 <metadata>
  <rdf:RDF xmlns:dc="http://purl.org/dc/elements/1.1/" xmlns:cc="http://creativecommons.org/ns#" xmlns:rdf="http://www.w3.org/1999/02/22-rdf-syntax-ns#">
   <cc:Work>
    <dc:type rdf:resource="http://purl.org/dc/dcmitype/StillImage"/>
    <dc:date>2026-03-04T15:30:43.121153</dc:date>
    <dc:format>image/svg+xml</dc:format>
    <dc:creator>
     <cc:Agent>
      <dc:title>Matplotlib v3.10.1, https://matplotlib.org/</dc:title>
     </cc:Agent>
    </dc:creator>
   </cc:Work>
  </rdf:RDF>
 </metadata>
 <defs>
  <style type="text/css">*{stroke-linejoin: round; stroke-linecap: butt}</style>
 </defs>
 <g id="figure_1">
  <g id="patch_1">
   <path d="M 0 378.791875 
L 955.949375 378.791875 
L 955.949375 0 
L 0 0 
z
" style="fill: #ffffff"/>
  </g>
  <g id="axes_1">
   <g id="patch_2">
    <path d="M 55.949375 331.5575 
L 420.357538 331.5575 
L 420.357538 54.3575 
L 55.949375 54.3575 
z
" style="fill: #ffffff"/>
   </g>
   <g id="matplotlib.axis_1">
    <g id="xtick_1">
     <g id="line2d_1">
      <defs>
       <path id="m21b792481c" d="M 0 0 
L 0 3.5 
" style="stroke: #000000; stroke-width: 0.8"/>
      </defs>
      <g>
       <use xlink:href="#m21b792481c" x="67.254967" y="331.5575" style="stroke: #000000; stroke-width: 0.8"/>
      </g>
     </g>
     <g id="text_1">
      <!-- 0 -->
      <g transform="translate(62.801217 349.195312) scale(0.14 -0.14)">
       <defs>
        <path id="DejaVuSans-30" d="M 2034 4250 
Q 1547 4250 1301 3770 
Q 1056 3291 1056 2328 
Q 1056 1369 1301 889 
Q 1547 409 2034 409 
Q 2525 409 2770 889 
Q 3016 1369 3016 2328 
Q 3016 3291 2770 3770 
Q 2525 4250 2034 4250 
z
M 2034 4750 
Q 2819 4750 3233 4129 
Q 3647 3509 3647 2328 
Q 3647 1150 3233 529 
Q 2819 -91 2034 -91 
Q 1250 -91 836 529 
Q 422 1150 422 2328 
Q 422 3509 836 4129 
Q 1250 4750 2034 4750 
z
" transform="scale(0.015625)"/>
       </defs>
       <use xlink:href="#DejaVuSans-30"/>
      </g>
     </g>
    </g>
    <g id="xtick_2">
     <g id="line2d_2">
      <g>
       <use xlink:href="#m21b792481c" x="119.839118" y="331.5575" style="stroke: #000000; stroke-width: 0.8"/>
      </g>
     </g>
     <g id="text_2">
      <!-- 10 -->
      <g transform="translate(110.931618 349.195312) scale(0.14 -0.14)">
       <defs>
        <path id="DejaVuSans-31" d="M 794 531 
L 1825 531 
L 1825 4091 
L 703 3866 
L 703 4441 
L 1819 4666 
L 2450 4666 
L 2450 531 
L 3481 531 
L 3481 0 
L 794 0 
L 794 531 
z
" transform="scale(0.015625)"/>
       </defs>
       <use xlink:href="#DejaVuSans-31"/>
       <use xlink:href="#DejaVuSans-30" transform="translate(63.623047 0)"/>
      </g>
     </g>
    </g>
    <g id="xtick_3">
     <g id="line2d_3">
      <g>
       <use xlink:href="#m21b792481c" x="172.423268" y="331.5575" style="stroke: #000000; stroke-width: 0.8"/>
      </g>
     </g>
     <g id="text_3">
      <!-- 20 -->
      <g transform="translate(163.515768 349.195312) scale(0.14 -0.14)">
       <defs>
        <path id="DejaVuSans-32" d="M 1228 531 
L 3431 531 
L 3431 0 
L 469 0 
L 469 531 
Q 828 903 1448 1529 
Q 2069 2156 2228 2338 
Q 2531 2678 2651 2914 
Q 2772 3150 2772 3378 
Q 2772 3750 2511 3984 
Q 2250 4219 1831 4219 
Q 1534 4219 1204 4116 
Q 875 4013 500 3803 
L 500 4441 
Q 881 4594 1212 4672 
Q 1544 4750 1819 4750 
Q 2544 4750 2975 4387 
Q 3406 4025 3406 3419 
Q 3406 3131 3298 2873 
Q 3191 2616 2906 2266 
Q 2828 2175 2409 1742 
Q 1991 1309 1228 531 
z
" transform="scale(0.015625)"/>
       </defs>
       <use xlink:href="#DejaVuSans-32"/>
       <use xlink:href="#DejaVuSans-30" transform="translate(63.623047 0)"/>
      </g>
     </g>
    </g>
    <g id="xtick_4">
     <g id="line2d_4">
      <g>
       <use xlink:href="#m21b792481c" x="225.007419" y="331.5575" style="stroke: #000000; stroke-width: 0.8"/>
      </g>
     </g>
     <g id="text_4">
      <!-- 30 -->
      <g transform="translate(216.099919 349.195312) scale(0.14 -0.14)">
       <defs>
        <path id="DejaVuSans-33" d="M 2597 2516 
Q 3050 2419 3304 2112 
Q 3559 1806 3559 1356 
Q 3559 666 3084 287 
Q 2609 -91 1734 -91 
Q 1441 -91 1130 -33 
Q 819 25 488 141 
L 488 750 
Q 750 597 1062 519 
Q 1375 441 1716 441 
Q 2309 441 2620 675 
Q 2931 909 2931 1356 
Q 2931 1769 2642 2001 
Q 2353 2234 1838 2234 
L 1294 2234 
L 1294 2753 
L 1863 2753 
Q 2328 2753 2575 2939 
Q 2822 3125 2822 3475 
Q 2822 3834 2567 4026 
Q 2313 4219 1838 4219 
Q 1578 4219 1281 4162 
Q 984 4106 628 3988 
L 628 4550 
Q 988 4650 1302 4700 
Q 1616 4750 1894 4750 
Q 2613 4750 3031 4423 
Q 3450 4097 3450 3541 
Q 3450 3153 3228 2886 
Q 3006 2619 2597 2516 
z
" transform="scale(0.015625)"/>
       </defs>
       <use xlink:href="#DejaVuSans-33"/>
       <use xlink:href="#DejaVuSans-30" transform="translate(63.623047 0)"/>
      </g>
     </g>
    </g>
    <g id="xtick_5">
     <g id="line2d_5">
      <g>
       <use xlink:href="#m21b792481c" x="277.59157" y="331.5575" style="stroke: #000000; stroke-width: 0.8"/>
      </g>
     </g>
     <g id="text_5">
      <!-- 40 -->
      <g transform="translate(268.68407 349.195312) scale(0.14 -0.14)">
       <defs>
        <path id="DejaVuSans-34" d="M 2419 4116 
L 825 1625 
L 2419 1625 
L 2419 4116 
z
M 2253 4666 
L 3047 4666 
L 3047 1625 
L 3713 1625 
L 3713 1100 
L 3047 1100 
L 3047 0 
L 2419 0 
L 2419 1100 
L 313 1100 
L 313 1709 
L 2253 4666 
z
" transform="scale(0.015625)"/>
       </defs>
       <use xlink:href="#DejaVuSans-34"/>
       <use xlink:href="#DejaVuSans-30" transform="translate(63.623047 0)"/>
      </g>
     </g>
    </g>
    <g id="xtick_6">
     <g id="line2d_6">
      <g>
       <use xlink:href="#m21b792481c" x="330.17572" y="331.5575" style="stroke: #000000; stroke-width: 0.8"/>
      </g>
     </g>
     <g id="text_6">
      <!-- 50 -->
      <g transform="translate(321.26822 349.195312) scale(0.14 -0.14)">
       <defs>
        <path id="DejaVuSans-35" d="M 691 4666 
L 3169 4666 
L 3169 4134 
L 1269 4134 
L 1269 2991 
Q 1406 3038 1543 3061 
Q 1681 3084 1819 3084 
Q 2600 3084 3056 2656 
Q 3513 2228 3513 1497 
Q 3513 744 3044 326 
Q 2575 -91 1722 -91 
Q 1428 -91 1123 -41 
Q 819 9 494 109 
L 494 744 
Q 775 591 1075 516 
Q 1375 441 1709 441 
Q 2250 441 2565 725 
Q 2881 1009 2881 1497 
Q 2881 1984 2565 2268 
Q 2250 2553 1709 2553 
Q 1456 2553 1204 2497 
Q 953 2441 691 2322 
L 691 4666 
z
" transform="scale(0.015625)"/>
       </defs>
       <use xlink:href="#DejaVuSans-35"/>
       <use xlink:href="#DejaVuSans-30" transform="translate(63.623047 0)"/>
      </g>
     </g>
    </g>
    <g id="xtick_7">
     <g id="line2d_7">
      <g>
       <use xlink:href="#m21b792481c" x="382.759871" y="331.5575" style="stroke: #000000; stroke-width: 0.8"/>
      </g>
     </g>
     <g id="text_7">
      <!-- 60 -->
      <g transform="translate(373.852371 349.195312) scale(0.14 -0.14)">
       <defs>
        <path id="DejaVuSans-36" d="M 2113 2584 
Q 1688 2584 1439 2293 
Q 1191 2003 1191 1497 
Q 1191 994 1439 701 
Q 1688 409 2113 409 
Q 2538 409 2786 701 
Q 3034 994 3034 1497 
Q 3034 2003 2786 2293 
Q 2538 2584 2113 2584 
z
M 3366 4563 
L 3366 3988 
Q 3128 4100 2886 4159 
Q 2644 4219 2406 4219 
Q 1781 4219 1451 3797 
Q 1122 3375 1075 2522 
Q 1259 2794 1537 2939 
Q 1816 3084 2150 3084 
Q 2853 3084 3261 2657 
Q 3669 2231 3669 1497 
Q 3669 778 3244 343 
Q 2819 -91 2113 -91 
Q 1303 -91 875 529 
Q 447 1150 447 2328 
Q 447 3434 972 4092 
Q 1497 4750 2381 4750 
Q 2619 4750 2861 4703 
Q 3103 4656 3366 4563 
z
" transform="scale(0.015625)"/>
       </defs>
       <use xlink:href="#DejaVuSans-36"/>
       <use xlink:href="#DejaVuSans-30" transform="translate(63.623047 0)"/>
      </g>
     </g>
    </g>
    <g id="text_8">
     <!-- Study Position -->
     <g transform="translate(181.369707 368.264375) scale(0.16 -0.16)">
      <defs>
       <path id="DejaVuSans-53" d="M 3425 4513 
L 3425 3897 
Q 3066 4069 2747 4153 
Q 2428 4238 2131 4238 
Q 1616 4238 1336 4038 
Q 1056 3838 1056 3469 
Q 1056 3159 1242 3001 
Q 1428 2844 1947 2747 
L 2328 2669 
Q 3034 2534 3370 2195 
Q 3706 1856 3706 1288 
Q 3706 609 3251 259 
Q 2797 -91 1919 -91 
Q 1588 -91 1214 -16 
Q 841 59 441 206 
L 441 856 
Q 825 641 1194 531 
Q 1563 422 1919 422 
Q 2459 422 2753 634 
Q 3047 847 3047 1241 
Q 3047 1584 2836 1778 
Q 2625 1972 2144 2069 
L 1759 2144 
Q 1053 2284 737 2584 
Q 422 2884 422 3419 
Q 422 4038 858 4394 
Q 1294 4750 2059 4750 
Q 2388 4750 2728 4690 
Q 3069 4631 3425 4513 
z
" transform="scale(0.015625)"/>
       <path id="DejaVuSans-74" d="M 1172 4494 
L 1172 3500 
L 2356 3500 
L 2356 3053 
L 1172 3053 
L 1172 1153 
Q 1172 725 1289 603 
Q 1406 481 1766 481 
L 2356 481 
L 2356 0 
L 1766 0 
Q 1100 0 847 248 
Q 594 497 594 1153 
L 594 3053 
L 172 3053 
L 172 3500 
L 594 3500 
L 594 4494 
L 1172 4494 
z
" transform="scale(0.015625)"/>
       <path id="DejaVuSans-75" d="M 544 1381 
L 544 3500 
L 1119 3500 
L 1119 1403 
Q 1119 906 1312 657 
Q 1506 409 1894 409 
Q 2359 409 2629 706 
Q 2900 1003 2900 1516 
L 2900 3500 
L 3475 3500 
L 3475 0 
L 2900 0 
L 2900 538 
Q 2691 219 2414 64 
Q 2138 -91 1772 -91 
Q 1169 -91 856 284 
Q 544 659 544 1381 
z
M 1991 3584 
L 1991 3584 
z
" transform="scale(0.015625)"/>
       <path id="DejaVuSans-64" d="M 2906 2969 
L 2906 4863 
L 3481 4863 
L 3481 0 
L 2906 0 
L 2906 525 
Q 2725 213 2448 61 
Q 2172 -91 1784 -91 
Q 1150 -91 751 415 
Q 353 922 353 1747 
Q 353 2572 751 3078 
Q 1150 3584 1784 3584 
Q 2172 3584 2448 3432 
Q 2725 3281 2906 2969 
z
M 947 1747 
Q 947 1113 1208 752 
Q 1469 391 1925 391 
Q 2381 391 2643 752 
Q 2906 1113 2906 1747 
Q 2906 2381 2643 2742 
Q 2381 3103 1925 3103 
Q 1469 3103 1208 2742 
Q 947 2381 947 1747 
z
" transform="scale(0.015625)"/>
       <path id="DejaVuSans-79" d="M 2059 -325 
Q 1816 -950 1584 -1140 
Q 1353 -1331 966 -1331 
L 506 -1331 
L 506 -850 
L 844 -850 
Q 1081 -850 1212 -737 
Q 1344 -625 1503 -206 
L 1606 56 
L 191 3500 
L 800 3500 
L 1894 763 
L 2988 3500 
L 3597 3500 
L 2059 -325 
z
" transform="scale(0.015625)"/>
       <path id="DejaVuSans-20" transform="scale(0.015625)"/>
       <path id="DejaVuSans-50" d="M 1259 4147 
L 1259 2394 
L 2053 2394 
Q 2494 2394 2734 2622 
Q 2975 2850 2975 3272 
Q 2975 3691 2734 3919 
Q 2494 4147 2053 4147 
L 1259 4147 
z
M 628 4666 
L 2053 4666 
Q 2838 4666 3239 4311 
Q 3641 3956 3641 3272 
Q 3641 2581 3239 2228 
Q 2838 1875 2053 1875 
L 1259 1875 
L 1259 0 
L 628 0 
L 628 4666 
z
" transform="scale(0.015625)"/>
       <path id="DejaVuSans-6f" d="M 1959 3097 
Q 1497 3097 1228 2736 
Q 959 2375 959 1747 
Q 959 1119 1226 758 
Q 1494 397 1959 397 
Q 2419 397 2687 759 
Q 2956 1122 2956 1747 
Q 2956 2369 2687 2733 
Q 2419 3097 1959 3097 
z
M 1959 3584 
Q 2709 3584 3137 3096 
Q 3566 2609 3566 1747 
Q 3566 888 3137 398 
Q 2709 -91 1959 -91 
Q 1206 -91 779 398 
Q 353 888 353 1747 
Q 353 2609 779 3096 
Q 1206 3584 1959 3584 
z
" transform="scale(0.015625)"/>
       <path id="DejaVuSans-73" d="M 2834 3397 
L 2834 2853 
Q 2591 2978 2328 3040 
Q 2066 3103 1784 3103 
Q 1356 3103 1142 2972 
Q 928 2841 928 2578 
Q 928 2378 1081 2264 
Q 1234 2150 1697 2047 
L 1894 2003 
Q 2506 1872 2764 1633 
Q 3022 1394 3022 966 
Q 3022 478 2636 193 
Q 2250 -91 1575 -91 
Q 1294 -91 989 -36 
Q 684 19 347 128 
L 347 722 
Q 666 556 975 473 
Q 1284 391 1588 391 
Q 1994 391 2212 530 
Q 2431 669 2431 922 
Q 2431 1156 2273 1281 
Q 2116 1406 1581 1522 
L 1381 1569 
Q 847 1681 609 1914 
Q 372 2147 372 2553 
Q 372 3047 722 3315 
Q 1072 3584 1716 3584 
Q 2034 3584 2315 3537 
Q 2597 3491 2834 3397 
z
" transform="scale(0.015625)"/>
       <path id="DejaVuSans-69" d="M 603 3500 
L 1178 3500 
L 1178 0 
L 603 0 
L 603 3500 
z
M 603 4863 
L 1178 4863 
L 1178 4134 
L 603 4134 
L 603 4863 
z
" transform="scale(0.015625)"/>
       <path id="DejaVuSans-6e" d="M 3513 2113 
L 3513 0 
L 2938 0 
L 2938 2094 
Q 2938 2591 2744 2837 
Q 2550 3084 2163 3084 
Q 1697 3084 1428 2787 
Q 1159 2491 1159 1978 
L 1159 0 
L 581 0 
L 581 3500 
L 1159 3500 
L 1159 2956 
Q 1366 3272 1645 3428 
Q 1925 3584 2291 3584 
Q 2894 3584 3203 3211 
Q 3513 2838 3513 2113 
z
" transform="scale(0.015625)"/>
      </defs>
      <use xlink:href="#DejaVuSans-53"/>
      <use xlink:href="#DejaVuSans-74" transform="translate(63.476562 0)"/>
      <use xlink:href="#DejaVuSans-75" transform="translate(102.685547 0)"/>
      <use xlink:href="#DejaVuSans-64" transform="translate(166.064453 0)"/>
      <use xlink:href="#DejaVuSans-79" transform="translate(229.541016 0)"/>
      <use xlink:href="#DejaVuSans-20" transform="translate(288.720703 0)"/>
      <use xlink:href="#DejaVuSans-50" transform="translate(320.507812 0)"/>
      <use xlink:href="#DejaVuSans-6f" transform="translate(377.185547 0)"/>
      <use xlink:href="#DejaVuSans-73" transform="translate(438.367188 0)"/>
      <use xlink:href="#DejaVuSans-69" transform="translate(490.466797 0)"/>
      <use xlink:href="#DejaVuSans-74" transform="translate(518.25 0)"/>
      <use xlink:href="#DejaVuSans-69" transform="translate(557.458984 0)"/>
      <use xlink:href="#DejaVuSans-6f" transform="translate(585.242188 0)"/>
      <use xlink:href="#DejaVuSans-6e" transform="translate(646.423828 0)"/>
     </g>
    </g>
   </g>
   <g id="matplotlib.axis_2">
    <g id="ytick_1">
     <g id="line2d_8">
      <path d="M 55.949375 325.430819 
L 420.357538 325.430819 
" clip-path="url(#pf312b78aa2)" style="fill: none; stroke-dasharray: 1.85,0.8; stroke-dashoffset: 0; stroke: #b0b0b0; stroke-opacity: 0.3; stroke-width: 0.5"/>
     </g>
     <g id="line2d_9">
      <defs>
       <path id="m3785e30830" d="M 0 0 
L -3.5 0 
" style="stroke: #000000; stroke-width: 0.8"/>
      </defs>
      <g>
       <use xlink:href="#m3785e30830" x="55.949375" y="325.430819" style="stroke: #000000; stroke-width: 0.8"/>
      </g>
     </g>
     <g id="text_9">
      <!-- 0.1 -->
      <g transform="translate(26.685 330.749725) scale(0.14 -0.14)">
       <defs>
        <path id="DejaVuSans-2e" d="M 684 794 
L 1344 794 
L 1344 0 
L 684 0 
L 684 794 
z
" transform="scale(0.015625)"/>
       </defs>
       <use xlink:href="#DejaVuSans-30"/>
       <use xlink:href="#DejaVuSans-2e" transform="translate(63.623047 0)"/>
       <use xlink:href="#DejaVuSans-31" transform="translate(95.410156 0)"/>
      </g>
     </g>
    </g>
    <g id="ytick_2">
     <g id="line2d_10">
      <path d="M 55.949375 272.809007 
L 420.357538 272.809007 
" clip-path="url(#pf312b78aa2)" style="fill: none; stroke-dasharray: 1.85,0.8; stroke-dashoffset: 0; stroke: #b0b0b0; stroke-opacity: 0.3; stroke-width: 0.5"/>
     </g>
     <g id="line2d_11">
      <g>
       <use xlink:href="#m3785e30830" x="55.949375" y="272.809007" style="stroke: #000000; stroke-width: 0.8"/>
      </g>
     </g>
     <g id="text_10">
      <!-- 0.2 -->
      <g transform="translate(26.685 278.127913) scale(0.14 -0.14)">
       <use xlink:href="#DejaVuSans-30"/>
       <use xlink:href="#DejaVuSans-2e" transform="translate(63.623047 0)"/>
       <use xlink:href="#DejaVuSans-32" transform="translate(95.410156 0)"/>
      </g>
     </g>
    </g>
    <g id="ytick_3">
     <g id="line2d_12">
      <path d="M 55.949375 220.187195 
L 420.357538 220.187195 
" clip-path="url(#pf312b78aa2)" style="fill: none; stroke-dasharray: 1.85,0.8; stroke-dashoffset: 0; stroke: #b0b0b0; stroke-opacity: 0.3; stroke-width: 0.5"/>
     </g>
     <g id="line2d_13">
      <g>
       <use xlink:href="#m3785e30830" x="55.949375" y="220.187195" style="stroke: #000000; stroke-width: 0.8"/>
      </g>
     </g>
     <g id="text_11">
      <!-- 0.3 -->
      <g transform="translate(26.685 225.506101) scale(0.14 -0.14)">
       <use xlink:href="#DejaVuSans-30"/>
       <use xlink:href="#DejaVuSans-2e" transform="translate(63.623047 0)"/>
       <use xlink:href="#DejaVuSans-33" transform="translate(95.410156 0)"/>
      </g>
     </g>
    </g>
    <g id="ytick_4">
     <g id="line2d_14">
      <path d="M 55.949375 167.565383 
L 420.357538 167.565383 
" clip-path="url(#pf312b78aa2)" style="fill: none; stroke-dasharray: 1.85,0.8; stroke-dashoffset: 0; stroke: #b0b0b0; stroke-opacity: 0.3; stroke-width: 0.5"/>
     </g>
     <g id="line2d_15">
      <g>
       <use xlink:href="#m3785e30830" x="55.949375" y="167.565383" style="stroke: #000000; stroke-width: 0.8"/>
      </g>
     </g>
     <g id="text_12">
      <!-- 0.4 -->
      <g transform="translate(26.685 172.884289) scale(0.14 -0.14)">
       <use xlink:href="#DejaVuSans-30"/>
       <use xlink:href="#DejaVuSans-2e" transform="translate(63.623047 0)"/>
       <use xlink:href="#DejaVuSans-34" transform="translate(95.410156 0)"/>
      </g>
     </g>
    </g>
    <g id="ytick_5">
     <g id="line2d_16">
      <path d="M 55.949375 114.943571 
L 420.357538 114.943571 
" clip-path="url(#pf312b78aa2)" style="fill: none; stroke-dasharray: 1.85,0.8; stroke-dashoffset: 0; stroke: #b0b0b0; stroke-opacity: 0.3; stroke-width: 0.5"/>
     </g>
     <g id="line2d_17">
      <g>
       <use xlink:href="#m3785e30830" x="55.949375" y="114.943571" style="stroke: #000000; stroke-width: 0.8"/>
      </g>
     </g>
     <g id="text_13">
      <!-- 0.5 -->
      <g transform="translate(26.685 120.262477) scale(0.14 -0.14)">
       <use xlink:href="#DejaVuSans-30"/>
       <use xlink:href="#DejaVuSans-2e" transform="translate(63.623047 0)"/>
       <use xlink:href="#DejaVuSans-35" transform="translate(95.410156 0)"/>
      </g>
     </g>
    </g>
    <g id="ytick_6">
     <g id="line2d_18">
      <path d="M 55.949375 62.321759 
L 420.357538 62.321759 
" clip-path="url(#pf312b78aa2)" style="fill: none; stroke-dasharray: 1.85,0.8; stroke-dashoffset: 0; stroke: #b0b0b0; stroke-opacity: 0.3; stroke-width: 0.5"/>
     </g>
     <g id="line2d_19">
      <g>
       <use xlink:href="#m3785e30830" x="55.949375" y="62.321759" style="stroke: #000000; stroke-width: 0.8"/>
      </g>
     </g>
     <g id="text_14">
      <!-- 0.6 -->
      <g transform="translate(26.685 67.640665) scale(0.14 -0.14)">
       <use xlink:href="#DejaVuSans-30"/>
       <use xlink:href="#DejaVuSans-2e" transform="translate(63.623047 0)"/>
       <use xlink:href="#DejaVuSans-36" transform="translate(95.410156 0)"/>
      </g>
     </g>
    </g>
    <g id="text_15">
     <!-- Recall Probability -->
     <g transform="translate(19.3575 261.65375) rotate(-90) scale(0.16 -0.16)">
      <defs>
       <path id="DejaVuSans-52" d="M 2841 2188 
Q 3044 2119 3236 1894 
Q 3428 1669 3622 1275 
L 4263 0 
L 3584 0 
L 2988 1197 
Q 2756 1666 2539 1819 
Q 2322 1972 1947 1972 
L 1259 1972 
L 1259 0 
L 628 0 
L 628 4666 
L 2053 4666 
Q 2853 4666 3247 4331 
Q 3641 3997 3641 3322 
Q 3641 2881 3436 2590 
Q 3231 2300 2841 2188 
z
M 1259 4147 
L 1259 2491 
L 2053 2491 
Q 2509 2491 2742 2702 
Q 2975 2913 2975 3322 
Q 2975 3731 2742 3939 
Q 2509 4147 2053 4147 
L 1259 4147 
z
" transform="scale(0.015625)"/>
       <path id="DejaVuSans-65" d="M 3597 1894 
L 3597 1613 
L 953 1613 
Q 991 1019 1311 708 
Q 1631 397 2203 397 
Q 2534 397 2845 478 
Q 3156 559 3463 722 
L 3463 178 
Q 3153 47 2828 -22 
Q 2503 -91 2169 -91 
Q 1331 -91 842 396 
Q 353 884 353 1716 
Q 353 2575 817 3079 
Q 1281 3584 2069 3584 
Q 2775 3584 3186 3129 
Q 3597 2675 3597 1894 
z
M 3022 2063 
Q 3016 2534 2758 2815 
Q 2500 3097 2075 3097 
Q 1594 3097 1305 2825 
Q 1016 2553 972 2059 
L 3022 2063 
z
" transform="scale(0.015625)"/>
       <path id="DejaVuSans-63" d="M 3122 3366 
L 3122 2828 
Q 2878 2963 2633 3030 
Q 2388 3097 2138 3097 
Q 1578 3097 1268 2742 
Q 959 2388 959 1747 
Q 959 1106 1268 751 
Q 1578 397 2138 397 
Q 2388 397 2633 464 
Q 2878 531 3122 666 
L 3122 134 
Q 2881 22 2623 -34 
Q 2366 -91 2075 -91 
Q 1284 -91 818 406 
Q 353 903 353 1747 
Q 353 2603 823 3093 
Q 1294 3584 2113 3584 
Q 2378 3584 2631 3529 
Q 2884 3475 3122 3366 
z
" transform="scale(0.015625)"/>
       <path id="DejaVuSans-61" d="M 2194 1759 
Q 1497 1759 1228 1600 
Q 959 1441 959 1056 
Q 959 750 1161 570 
Q 1363 391 1709 391 
Q 2188 391 2477 730 
Q 2766 1069 2766 1631 
L 2766 1759 
L 2194 1759 
z
M 3341 1997 
L 3341 0 
L 2766 0 
L 2766 531 
Q 2569 213 2275 61 
Q 1981 -91 1556 -91 
Q 1019 -91 701 211 
Q 384 513 384 1019 
Q 384 1609 779 1909 
Q 1175 2209 1959 2209 
L 2766 2209 
L 2766 2266 
Q 2766 2663 2505 2880 
Q 2244 3097 1772 3097 
Q 1472 3097 1187 3025 
Q 903 2953 641 2809 
L 641 3341 
Q 956 3463 1253 3523 
Q 1550 3584 1831 3584 
Q 2591 3584 2966 3190 
Q 3341 2797 3341 1997 
z
" transform="scale(0.015625)"/>
       <path id="DejaVuSans-6c" d="M 603 4863 
L 1178 4863 
L 1178 0 
L 603 0 
L 603 4863 
z
" transform="scale(0.015625)"/>
       <path id="DejaVuSans-72" d="M 2631 2963 
Q 2534 3019 2420 3045 
Q 2306 3072 2169 3072 
Q 1681 3072 1420 2755 
Q 1159 2438 1159 1844 
L 1159 0 
L 581 0 
L 581 3500 
L 1159 3500 
L 1159 2956 
Q 1341 3275 1631 3429 
Q 1922 3584 2338 3584 
Q 2397 3584 2469 3576 
Q 2541 3569 2628 3553 
L 2631 2963 
z
" transform="scale(0.015625)"/>
       <path id="DejaVuSans-62" d="M 3116 1747 
Q 3116 2381 2855 2742 
Q 2594 3103 2138 3103 
Q 1681 3103 1420 2742 
Q 1159 2381 1159 1747 
Q 1159 1113 1420 752 
Q 1681 391 2138 391 
Q 2594 391 2855 752 
Q 3116 1113 3116 1747 
z
M 1159 2969 
Q 1341 3281 1617 3432 
Q 1894 3584 2278 3584 
Q 2916 3584 3314 3078 
Q 3713 2572 3713 1747 
Q 3713 922 3314 415 
Q 2916 -91 2278 -91 
Q 1894 -91 1617 61 
Q 1341 213 1159 525 
L 1159 0 
L 581 0 
L 581 4863 
L 1159 4863 
L 1159 2969 
z
" transform="scale(0.015625)"/>
      </defs>
      <use xlink:href="#DejaVuSans-52"/>
      <use xlink:href="#DejaVuSans-65" transform="translate(64.982422 0)"/>
      <use xlink:href="#DejaVuSans-63" transform="translate(126.505859 0)"/>
      <use xlink:href="#DejaVuSans-61" transform="translate(181.486328 0)"/>
      <use xlink:href="#DejaVuSans-6c" transform="translate(242.765625 0)"/>
      <use xlink:href="#DejaVuSans-6c" transform="translate(270.548828 0)"/>
      <use xlink:href="#DejaVuSans-20" transform="translate(298.332031 0)"/>
      <use xlink:href="#DejaVuSans-50" transform="translate(330.119141 0)"/>
      <use xlink:href="#DejaVuSans-72" transform="translate(388.671875 0)"/>
      <use xlink:href="#DejaVuSans-6f" transform="translate(427.535156 0)"/>
      <use xlink:href="#DejaVuSans-62" transform="translate(488.716797 0)"/>
      <use xlink:href="#DejaVuSans-61" transform="translate(552.193359 0)"/>
      <use xlink:href="#DejaVuSans-62" transform="translate(613.472656 0)"/>
      <use xlink:href="#DejaVuSans-69" transform="translate(676.949219 0)"/>
      <use xlink:href="#DejaVuSans-6c" transform="translate(704.732422 0)"/>
      <use xlink:href="#DejaVuSans-69" transform="translate(732.515625 0)"/>
      <use xlink:href="#DejaVuSans-74" transform="translate(760.298828 0)"/>
      <use xlink:href="#DejaVuSans-79" transform="translate(799.507812 0)"/>
     </g>
    </g>
   </g>
   <g id="line2d_20">
    <path d="M 72.513382 230.168628 
L 77.771797 270.512025 
L 83.030213 284.50274 
L 88.288628 294.985338 
L 93.547043 299.829889 
L 98.805458 302.669797 
L 104.063873 304.423856 
L 109.322288 304.215043 
L 114.580703 300.999264 
L 119.839118 301.416897 
L 125.097533 302.001581 
L 130.355948 299.203442 
L 135.614363 297.115275 
L 140.872778 296.864692 
L 146.131193 296.948217 
L 151.389608 301.416897 
L 156.648023 306.971419 
L 161.906438 311.899495 
L 167.164853 311.648912 
L 172.423268 315.198799 
L 177.681684 316.159358 
L 182.940099 313.737082 
L 188.198514 318.9575 
L 193.456929 314.989983 
L 198.715344 317.746362 
L 203.973759 313.987662 
L 209.232174 315.699958 
L 214.490589 313.528266 
L 219.749004 312.317128 
L 225.007419 314.864691 
L 230.265834 315.365854 
L 235.524249 310.020148 
L 240.782664 207.95054 
L 246.041079 207.616424 
L 251.299494 204.150069 
L 256.557909 206.196481 
L 261.816324 204.56771 
L 267.074739 199.305518 
L 272.333154 200.767239 
L 277.59157 195.713876 
L 282.849985 195.338013 
L 288.1084 200.976052 
L 293.366815 201.10134 
L 298.62523 200.349614 
L 303.883645 200.725477 
L 309.14206 200.391376 
L 314.400475 199.764922 
L 319.65889 196.423855 
L 324.917305 279.49114 
L 330.17572 298.660513 
L 335.434135 305.760281 
L 340.69255 303.212718 
L 345.950965 306.428498 
L 351.20938 309.602515 
L 356.467795 304.465619 
L 361.72621 304.799727 
L 366.984625 302.795085 
L 372.243041 304.13151 
L 377.501456 301.375135 
L 382.759871 292.270725 
L 388.018286 282.331048 
L 393.276701 262.409933 
L 398.535116 208.911094 
L 403.793531 91.430797 
" clip-path="url(#pf312b78aa2)" style="fill: none; stroke: #bfbfbf; stroke-width: 1.5; stroke-linecap: square"/>
   </g>
   <g id="line2d_21">
    <path d="M 72.513382 229.291598 
L 77.771797 267.254483 
L 83.030213 284.168632 
L 88.288628 296.948217 
L 93.547043 298.117592 
L 98.805458 298.409938 
L 104.063873 302.252164 
L 109.322288 302.168639 
L 114.580703 301.66748 
L 119.839118 302.126876 
L 125.097533 299.829889 
L 130.355948 301.375135 
L 135.614363 302.377452 
L 140.872778 299.49578 
L 146.131193 300.999264 
L 151.389608 302.252164 
L 156.648023 307.723161 
L 161.906438 310.93894 
L 167.164853 313.319449 
L 172.423268 311.147753 
L 177.681684 315.115274 
L 182.940099 309.644277 
L 188.198514 314.447058 
L 193.456929 313.027107 
L 198.715344 313.027107 
L 203.973759 312.400657 
L 209.232174 312.275366 
L 214.490589 310.980703 
L 219.749004 310.145436 
L 225.007419 313.152395 
L 230.265834 309.727803 
L 235.524249 310.103673 
L 240.782664 211.83452 
L 246.041079 209.537548 
L 251.299494 208.326403 
L 256.557909 206.238244 
L 261.816324 204.818286 
L 267.074739 201.894844 
L 272.333154 203.774206 
L 277.59157 200.05726 
L 282.849985 199.848447 
L 288.1084 200.809002 
L 293.366815 204.191831 
L 298.62523 205.319452 
L 303.883645 205.068861 
L 309.14206 209.495786 
L 314.400475 210.45634 
L 319.65889 208.493453 
L 324.917305 284.711561 
L 330.17572 298.702276 
L 335.434135 304.340331 
L 340.69255 305.092073 
L 345.950965 306.553786 
L 351.20938 306.386735 
L 356.467795 306.595548 
L 361.72621 305.969102 
L 366.984625 302.92038 
L 372.243041 299.746363 
L 377.501456 297.157038 
L 382.759871 291.477221 
L 388.018286 279.658198 
L 393.276701 257.189519 
L 398.535116 207.073511 
L 403.793531 84.623391 
" clip-path="url(#pf312b78aa2)" style="fill: none; stroke: #acacac; stroke-width: 1.5; stroke-linecap: square"/>
   </g>
   <g id="line2d_22">
    <path d="M 72.513382 230.962132 
L 77.771797 264.87397 
L 83.030213 277.904131 
L 88.288628 287.927341 
L 93.547043 293.648913 
L 98.805458 296.488821 
L 104.063873 296.488821 
L 109.322288 297.574671 
L 114.580703 299.579313 
L 119.839118 299.871651 
L 125.097533 302.92038 
L 130.355948 295.987663 
L 135.614363 302.085114 
L 140.872778 300.331047 
L 146.131193 298.994622 
L 151.389608 299.49578 
L 156.648023 306.637311 
L 161.906438 306.553786 
L 167.164853 306.971419 
L 172.423268 308.725478 
L 177.681684 307.389052 
L 182.940099 307.973744 
L 188.198514 309.477219 
L 193.456929 307.55611 
L 198.715344 307.389052 
L 203.973759 308.182557 
L 209.232174 310.020148 
L 214.490589 308.43314 
L 219.749004 307.973744 
L 225.007419 310.897178 
L 230.265834 306.846131 
L 235.524249 310.855415 
L 240.782664 218.140792 
L 246.041079 215.634991 
L 251.299494 212.377449 
L 256.557909 210.038699 
L 261.816324 210.038699 
L 267.074739 209.746361 
L 272.333154 210.665153 
L 277.59157 207.324086 
L 282.849985 212.210399 
L 288.1084 210.957491 
L 293.366815 214.423846 
L 298.62523 212.502737 
L 303.883645 218.474892 
L 309.14206 220.93893 
L 314.400475 220.60483 
L 319.65889 224.989977 
L 324.917305 285.713878 
L 330.17572 298.117592 
L 335.434135 299.454018 
L 340.69255 301.416897 
L 345.950965 299.537543 
L 351.20938 301.500422 
L 356.467795 299.829889 
L 361.72621 302.293926 
L 366.984625 295.444742 
L 372.243041 294.191842 
L 377.501456 292.855408 
L 382.759871 288.762607 
L 388.018286 275.94126 
L 393.276701 255.351927 
L 398.535116 203.398327 
L 403.793531 86.001571 
" clip-path="url(#pf312b78aa2)" style="fill: none; stroke: #9a9a9a; stroke-width: 1.5; stroke-linecap: square"/>
   </g>
   <g id="line2d_23">
    <path d="M 72.513382 227.913418 
L 77.771797 259.194153 
L 83.030213 279.658198 
L 88.288628 286.67444 
L 93.547043 293.815971 
L 98.805458 291.017825 
L 104.063873 296.864692 
L 109.322288 299.370493 
L 114.580703 298.326405 
L 119.839118 300.331047 
L 125.097533 298.576988 
L 130.355948 299.537543 
L 135.614363 301.041026 
L 140.872778 298.368176 
L 146.131193 296.029425 
L 151.389608 300.038709 
L 156.648023 301.082789 
L 161.906438 303.922697 
L 167.164853 301.583947 
L 172.423268 304.215043 
L 177.681684 306.512023 
L 182.940099 307.34729 
L 188.198514 306.637311 
L 193.456929 307.263765 
L 198.715344 305.718519 
L 203.973759 304.674439 
L 209.232174 304.716202 
L 214.490589 303.003906 
L 219.749004 304.382093 
L 225.007419 306.09439 
L 230.265834 307.222002 
L 235.524249 307.305527 
L 240.782664 218.474892 
L 246.041079 216.303208 
L 251.299494 215.634991 
L 256.557909 219.184871 
L 261.816324 221.105996 
L 267.074739 222.484176 
L 272.333154 219.978376 
L 277.59157 220.437779 
L 282.849985 220.980693 
L 288.1084 222.651226 
L 293.366815 223.486493 
L 298.62523 229.667477 
L 303.883645 226.744035 
L 309.14206 231.045657 
L 314.400475 231.045657 
L 319.65889 235.681395 
L 324.917305 289.096708 
L 330.17572 295.528267 
L 335.434135 297.073505 
L 340.69255 300.080472 
L 345.950965 297.532909 
L 351.20938 297.115275 
L 356.467795 300.247522 
L 361.72621 295.862375 
L 366.984625 292.646596 
L 372.243041 292.1872 
L 377.501456 289.973737 
L 382.759871 284.920374 
L 388.018286 271.723163 
L 393.276701 250.841485 
L 398.535116 197.55146 
L 403.793531 79.61179 
" clip-path="url(#pf312b78aa2)" style="fill: none; stroke: #888888; stroke-width: 1.5; stroke-linecap: square"/>
   </g>
   <g id="line2d_24">
    <path d="M 72.513382 228.623397 
L 77.771797 259.068865 
L 83.030213 271.013184 
L 88.288628 281.203436 
L 93.547043 287.426174 
L 98.805458 295.570029 
L 104.063873 295.695317 
L 109.322288 296.154713 
L 114.580703 296.781167 
L 119.839118 298.618751 
L 125.097533 292.604833 
L 130.355948 296.530584 
L 135.614363 297.908772 
L 140.872778 293.481862 
L 146.131193 298.451701 
L 151.389608 300.539868 
L 156.648023 297.491138 
L 161.906438 300.706918 
L 167.164853 301.333372 
L 172.423268 302.293926 
L 177.681684 300.957501 
L 182.940099 302.043343 
L 188.198514 303.045668 
L 193.456929 299.788126 
L 198.715344 301.082789 
L 203.973759 300.706918 
L 209.232174 300.999264 
L 214.490589 302.92038 
L 219.749004 302.460977 
L 225.007419 301.208076 
L 230.265834 300.247522 
L 235.524249 305.593231 
L 240.782664 214.173271 
L 246.041079 225.115264 
L 251.299494 223.027105 
L 256.557909 231.672111 
L 261.816324 234.386724 
L 267.074739 236.641949 
L 272.333154 234.344962 
L 277.59157 236.224324 
L 282.849985 232.006227 
L 288.1084 232.590903 
L 293.366815 235.263769 
L 298.62523 231.045657 
L 303.883645 230.795082 
L 309.14206 232.423853 
L 314.400475 233.843811 
L 319.65889 232.423853 
L 324.917305 287.217361 
L 330.17572 291.978379 
L 335.434135 293.022466 
L 340.69255 293.356575 
L 345.950965 295.235921 
L 351.20938 294.150071 
L 356.467795 293.941258 
L 361.72621 295.73708 
L 366.984625 294.943575 
L 372.243041 289.180241 
L 377.501456 284.962136 
L 382.759871 279.616435 
L 388.018286 270.59555 
L 393.276701 248.962139 
L 398.535116 195.4633 
L 403.793531 74.015482 
" clip-path="url(#pf312b78aa2)" style="fill: none; stroke: #757575; stroke-width: 1.5; stroke-linecap: square"/>
   </g>
   <g id="line2d_25">
    <path d="M 72.513382 225.491143 
L 77.771797 254.099027 
L 83.030213 267.922692 
L 88.288628 278.822931 
L 93.547043 284.586265 
L 98.805458 287.802045 
L 104.063873 290.22432 
L 109.322288 293.4401 
L 114.580703 290.099033 
L 119.839118 292.771883 
L 125.097533 292.103675 
L 130.355948 297.031742 
L 135.614363 296.238238 
L 140.872778 297.1988 
L 146.131193 294.358892 
L 151.389608 294.233604 
L 156.648023 298.994622 
L 161.906438 297.282326 
L 167.164853 298.785809 
L 172.423268 296.363534 
L 177.681684 295.904138 
L 182.940099 299.955176 
L 188.198514 300.080472 
L 193.456929 295.695317 
L 198.715344 298.284643 
L 203.973759 298.952859 
L 209.232174 300.790443 
L 214.490589 299.119909 
L 219.749004 300.289285 
L 225.007419 300.289285 
L 230.265834 299.621076 
L 235.524249 301.249847 
L 240.782664 212.043349 
L 246.041079 233.42617 
L 251.299494 237.184878 
L 256.557909 243.240559 
L 261.816324 247.500418 
L 267.074739 244.493467 
L 272.333154 247.458655 
L 277.59157 244.201113 
L 282.849985 242.029429 
L 288.1084 244.618754 
L 293.366815 239.607153 
L 298.62523 242.989983 
L 303.883645 242.739392 
L 309.14206 240.985333 
L 314.400475 240.734758 
L 319.65889 239.565391 
L 324.917305 286.340332 
L 330.17572 291.936616 
L 335.434135 293.857733 
L 340.69255 297.157038 
L 345.950965 291.393695 
L 351.20938 294.317129 
L 356.467795 292.103675 
L 361.72621 291.894854 
L 366.984625 289.556104 
L 372.243041 287.509707 
L 377.501456 282.706919 
L 382.759871 275.273043 
L 388.018286 266.711562 
L 393.276701 244.201113 
L 398.535116 189.282317 
L 403.793531 69.129184 
" clip-path="url(#pf312b78aa2)" style="fill: none; stroke: #636363; stroke-width: 1.5; stroke-linecap: square"/>
   </g>
   <g id="line2d_26">
    <path d="M 72.513382 222.609464 
L 77.771797 249.839168 
L 83.030213 262.451695 
L 88.288628 275.356568 
L 93.547043 277.444735 
L 98.805458 284.126869 
L 104.063873 289.054945 
L 109.322288 288.261441 
L 114.580703 290.391371 
L 119.839118 291.853091 
L 125.097533 290.433141 
L 130.355948 288.512024 
L 135.614363 285.964461 
L 140.872778 291.10135 
L 146.131193 290.934299 
L 151.389608 290.22432 
L 156.648023 294.108309 
L 161.906438 293.774208 
L 167.164853 295.820605 
L 172.423268 297.699959 
L 177.681684 295.235921 
L 182.940099 290.641954 
L 188.198514 294.233604 
L 193.456929 294.567705 
L 198.715344 293.899496 
L 203.973759 295.235921 
L 209.232174 294.985338 
L 214.490589 293.648913 
L 219.749004 293.732438 
L 225.007419 297.365851 
L 230.265834 299.579313 
L 235.524249 297.783484 
L 240.782664 207.78349 
L 246.041079 255.184877 
L 251.299494 263.286962 
L 256.557909 261.240557 
L 261.816324 263.955178 
L 267.074739 257.690677 
L 272.333154 258.024786 
L 277.59157 256.228957 
L 282.849985 256.771886 
L 288.1084 254.934294 
L 293.366815 256.270719 
L 298.62523 254.976056 
L 303.883645 253.347285 
L 309.14206 251.092068 
L 314.400475 250.382089 
L 319.65889 244.409926 
L 324.917305 287.969103 
L 330.17572 287.175599 
L 335.434135 288.470262 
L 340.69255 287.342649 
L 345.950965 291.936616 
L 351.20938 287.092074 
L 356.467795 288.428499 
L 361.72621 287.55147 
L 366.984625 287.55147 
L 372.243041 283.041027 
L 377.501456 279.825248 
L 382.759871 272.72548 
L 388.018286 260.655874 
L 393.276701 238.10367 
L 398.535116 182.474895 
L 403.793531 68.085105 
" clip-path="url(#pf312b78aa2)" style="fill: none; stroke: #505050; stroke-width: 1.5; stroke-linecap: square"/>
   </g>
   <g id="line2d_27">
    <path d="M 72.513382 222.191838 
L 77.771797 247.583951 
L 83.030213 264.080466 
L 88.288628 270.344967 
L 93.547043 278.781168 
L 98.805458 283.291603 
L 104.063873 282.915732 
L 109.322288 281.746365 
L 114.580703 281.161673 
L 119.839118 283.208078 
L 125.097533 288.637312 
L 130.355948 285.839166 
L 135.614363 288.177916 
L 140.872778 290.934299 
L 146.131193 292.771883 
L 151.389608 287.133836 
L 156.648023 292.897171 
L 161.906438 290.099033 
L 167.164853 290.099033 
L 172.423268 291.769566 
L 177.681684 293.189517 
L 182.940099 289.514341 
L 188.198514 290.22432 
L 193.456929 292.103675 
L 198.715344 293.398337 
L 203.973759 291.477221 
L 209.232174 292.228962 
L 214.490589 289.931975 
L 219.749004 293.064229 
L 225.007419 293.273042 
L 230.265834 295.778842 
L 235.524249 297.908772 
L 240.782664 202.897177 
L 246.041079 269.300888 
L 251.299494 269.593226 
L 256.557909 267.170958 
L 261.816324 267.630354 
L 267.074739 264.331049 
L 272.333154 263.245199 
L 277.59157 261.240557 
L 282.849985 261.240557 
L 288.1084 260.196478 
L 293.366815 258.98534 
L 298.62523 259.528261 
L 303.883645 259.068865 
L 309.14206 256.47954 
L 314.400475 254.474898 
L 319.65889 253.013185 
L 324.917305 287.88557 
L 330.17572 287.300886 
L 335.434135 285.546828 
L 340.69255 284.836849 
L 345.950965 288.80437 
L 351.20938 288.428499 
L 356.467795 284.33569 
L 361.72621 287.342649 
L 366.984625 284.252165 
L 372.243041 279.741723 
L 377.501456 276.651231 
L 382.759871 270.177917 
L 388.018286 256.897173 
L 393.276701 238.228958 
L 398.535116 181.096699 
L 403.793531 66.9575 
" clip-path="url(#pf312b78aa2)" style="fill: none; stroke: #3e3e3e; stroke-width: 1.5; stroke-linecap: square"/>
   </g>
   <g id="line2d_28">
    <path d="M 72.513382 220.061901 
L 77.771797 247.37513 
L 83.030213 262.493458 
L 88.288628 271.848451 
L 93.547043 274.479539 
L 98.805458 277.904131 
L 104.063873 283.625711 
L 109.322288 285.630353 
L 114.580703 286.757965 
L 119.839118 284.878611 
L 125.097533 282.623394 
L 130.355948 286.047986 
L 135.614363 287.217361 
L 140.872778 286.757965 
L 146.131193 288.428499 
L 151.389608 289.931975 
L 156.648023 290.22432 
L 161.906438 290.641954 
L 167.164853 293.815971 
L 172.423268 293.273042 
L 177.681684 291.268408 
L 182.940099 296.697642 
L 188.198514 293.774208 
L 193.456929 292.980704 
L 198.715344 294.943575 
L 203.973759 292.563071 
L 209.232174 294.776525 
L 214.490589 289.890212 
L 219.749004 291.351933 
L 225.007419 293.273042 
L 230.265834 295.653555 
L 235.524249 300.957501 
L 240.782664 203.189514 
L 246.041079 273.143113 
L 251.299494 275.23128 
L 256.557909 271.096709 
L 261.816324 272.099026 
L 267.074739 269.34265 
L 272.333154 266.335691 
L 277.59157 264.623395 
L 282.849985 264.832208 
L 288.1084 262.117595 
L 293.366815 263.078149 
L 298.62523 261.282328 
L 303.883645 261.365853 
L 309.14206 260.07119 
L 314.400475 258.98534 
L 319.65889 256.521302 
L 324.917305 286.382095 
L 330.17572 285.421532 
L 335.434135 283.24984 
L 340.69255 284.043344 
L 345.950965 286.925016 
L 351.20938 287.259124 
L 356.467795 287.426174 
L 361.72621 283.08279 
L 366.984625 283.291603 
L 372.243041 279.324089 
L 377.501456 274.604834 
L 382.759871 271.430817 
L 388.018286 258.81829 
L 393.276701 235.138466 
L 398.535116 183.769565 
L 403.793531 69.88091 
" clip-path="url(#pf312b78aa2)" style="fill: none; stroke: #2b2b2b; stroke-width: 1.5; stroke-linecap: square"/>
   </g>
   <g id="line2d_29">
    <path d="M 72.513382 215.676754 
L 77.771797 244.326401 
L 83.030213 258.275361 
L 88.288628 267.797404 
L 93.547043 275.732439 
L 98.805458 280.201119 
L 104.063873 281.99694 
L 109.322288 284.460978 
L 114.580703 283.583948 
L 119.839118 283.208078 
L 125.097533 284.920374 
L 130.355948 287.634995 
L 135.614363 285.254482 
L 140.872778 284.293928 
L 146.131193 284.043344 
L 151.389608 288.094391 
L 156.648023 287.342649 
L 161.906438 289.514341 
L 167.164853 290.140795 
L 172.423268 291.268408 
L 177.681684 287.467937 
L 182.940099 293.273042 
L 188.198514 290.558429 
L 193.456929 291.811329 
L 198.715344 294.066546 
L 203.973759 292.35425 
L 209.232174 294.525942 
L 214.490589 293.732438 
L 219.749004 292.730121 
L 225.007419 290.809004 
L 230.265834 294.400654 
L 235.524249 297.532909 
L 240.782664 202.646586 
L 246.041079 278.697635 
L 251.299494 277.152397 
L 256.557909 275.356568 
L 261.816324 271.47258 
L 267.074739 269.426175 
L 272.333154 269.259125 
L 277.59157 266.962137 
L 282.849985 267.630354 
L 288.1084 263.662833 
L 293.366815 259.86237 
L 298.62523 260.363528 
L 303.883645 261.574666 
L 309.14206 258.150073 
L 314.400475 255.518985 
L 319.65889 251.84381 
L 324.917305 286.67444 
L 330.17572 287.259124 
L 335.434135 285.964461 
L 340.69255 285.045669 
L 345.950965 286.006224 
L 351.20938 286.63267 
L 356.467795 286.716203 
L 361.72621 285.672115 
L 366.984625 284.962136 
L 372.243041 282.038702 
L 377.501456 275.815964 
L 382.759871 271.931976 
L 388.018286 259.945895 
L 393.276701 236.558424 
L 398.535116 187.40297 
L 403.793531 67.709226 
" clip-path="url(#pf312b78aa2)" style="fill: none; stroke: #191919; stroke-width: 1.5; stroke-linecap: square"/>
   </g>
   <g id="line2d_30">
    <path d="M 154.018816 331.5575 
L 154.018816 54.3575 
" clip-path="url(#pf312b78aa2)" style="fill: none; stroke-dasharray: 5.55,2.4; stroke-dashoffset: 0; stroke: #ff0000; stroke-opacity: 0.7; stroke-width: 1.5"/>
   </g>
   <g id="line2d_31">
    <path d="M 238.153457 331.5575 
L 238.153457 54.3575 
" clip-path="url(#pf312b78aa2)" style="fill: none; stroke-dasharray: 5.55,2.4; stroke-dashoffset: 0; stroke: #ff0000; stroke-opacity: 0.7; stroke-width: 1.5"/>
   </g>
   <g id="line2d_32">
    <path d="M 322.288098 331.5575 
L 322.288098 54.3575 
" clip-path="url(#pf312b78aa2)" style="fill: none; stroke-dasharray: 1.5,2.475; stroke-dashoffset: 0; stroke: #0000ff; stroke-opacity: 0.7; stroke-width: 1.5"/>
   </g>
   <g id="patch_3">
    <path d="M 55.949375 331.5575 
L 55.949375 54.3575 
" style="fill: none; stroke: #000000; stroke-width: 0.8; stroke-linejoin: miter; stroke-linecap: square"/>
   </g>
   <g id="patch_4">
    <path d="M 55.949375 331.5575 
L 420.357538 331.5575 
" style="fill: none; stroke: #000000; stroke-width: 0.8; stroke-linejoin: miter; stroke-linecap: square"/>
   </g>
   <g id="text_16">
    <!-- Film -->
    <g transform="translate(99.897589 46.733812) scale(0.1 -0.1)">
     <defs>
      <path id="DejaVuSans-Bold-46" d="M 588 4666 
L 3834 4666 
L 3834 3756 
L 1791 3756 
L 1791 2888 
L 3713 2888 
L 3713 1978 
L 1791 1978 
L 1791 0 
L 588 0 
L 588 4666 
z
" transform="scale(0.015625)"/>
      <path id="DejaVuSans-Bold-69" d="M 538 3500 
L 1656 3500 
L 1656 0 
L 538 0 
L 538 3500 
z
M 538 4863 
L 1656 4863 
L 1656 3950 
L 538 3950 
L 538 4863 
z
" transform="scale(0.015625)"/>
      <path id="DejaVuSans-Bold-6c" d="M 538 4863 
L 1656 4863 
L 1656 0 
L 538 0 
L 538 4863 
z
" transform="scale(0.015625)"/>
      <path id="DejaVuSans-Bold-6d" d="M 3781 2919 
Q 3994 3244 4286 3414 
Q 4578 3584 4928 3584 
Q 5531 3584 5847 3212 
Q 6163 2841 6163 2131 
L 6163 0 
L 5038 0 
L 5038 1825 
Q 5041 1866 5042 1909 
Q 5044 1953 5044 2034 
Q 5044 2406 4934 2573 
Q 4825 2741 4581 2741 
Q 4263 2741 4089 2478 
Q 3916 2216 3909 1719 
L 3909 0 
L 2784 0 
L 2784 1825 
Q 2784 2406 2684 2573 
Q 2584 2741 2328 2741 
Q 2006 2741 1831 2477 
Q 1656 2213 1656 1722 
L 1656 0 
L 531 0 
L 531 3500 
L 1656 3500 
L 1656 2988 
Q 1863 3284 2130 3434 
Q 2397 3584 2719 3584 
Q 3081 3584 3359 3409 
Q 3638 3234 3781 2919 
z
" transform="scale(0.015625)"/>
     </defs>
     <use xlink:href="#DejaVuSans-Bold-46"/>
     <use xlink:href="#DejaVuSans-Bold-69" transform="translate(68.310547 0)"/>
     <use xlink:href="#DejaVuSans-Bold-6c" transform="translate(102.587891 0)"/>
     <use xlink:href="#DejaVuSans-Bold-6d" transform="translate(136.865234 0)"/>
    </g>
   </g>
   <g id="text_17">
    <!-- Break -->
    <g style="fill: #808080" transform="translate(179.718949 46.733812) scale(0.1 -0.1)">
     <defs>
      <path id="DejaVuSans-Bold-42" d="M 2456 2859 
Q 2741 2859 2887 2984 
Q 3034 3109 3034 3353 
Q 3034 3594 2887 3720 
Q 2741 3847 2456 3847 
L 1791 3847 
L 1791 2859 
L 2456 2859 
z
M 2497 819 
Q 2859 819 3042 972 
Q 3225 1125 3225 1434 
Q 3225 1738 3044 1889 
Q 2863 2041 2497 2041 
L 1791 2041 
L 1791 819 
L 2497 819 
z
M 3616 2497 
Q 4003 2384 4215 2081 
Q 4428 1778 4428 1338 
Q 4428 663 3972 331 
Q 3516 0 2584 0 
L 588 0 
L 588 4666 
L 2394 4666 
Q 3366 4666 3802 4372 
Q 4238 4078 4238 3431 
Q 4238 3091 4078 2852 
Q 3919 2613 3616 2497 
z
" transform="scale(0.015625)"/>
      <path id="DejaVuSans-Bold-72" d="M 3138 2547 
Q 2991 2616 2845 2648 
Q 2700 2681 2553 2681 
Q 2122 2681 1889 2404 
Q 1656 2128 1656 1613 
L 1656 0 
L 538 0 
L 538 3500 
L 1656 3500 
L 1656 2925 
Q 1872 3269 2151 3426 
Q 2431 3584 2822 3584 
Q 2878 3584 2943 3579 
Q 3009 3575 3134 3559 
L 3138 2547 
z
" transform="scale(0.015625)"/>
      <path id="DejaVuSans-Bold-65" d="M 4031 1759 
L 4031 1441 
L 1416 1441 
Q 1456 1047 1700 850 
Q 1944 653 2381 653 
Q 2734 653 3104 758 
Q 3475 863 3866 1075 
L 3866 213 
Q 3469 63 3072 -14 
Q 2675 -91 2278 -91 
Q 1328 -91 801 392 
Q 275 875 275 1747 
Q 275 2603 792 3093 
Q 1309 3584 2216 3584 
Q 3041 3584 3536 3087 
Q 4031 2591 4031 1759 
z
M 2881 2131 
Q 2881 2450 2695 2645 
Q 2509 2841 2209 2841 
Q 1884 2841 1681 2658 
Q 1478 2475 1428 2131 
L 2881 2131 
z
" transform="scale(0.015625)"/>
      <path id="DejaVuSans-Bold-61" d="M 2106 1575 
Q 1756 1575 1579 1456 
Q 1403 1338 1403 1106 
Q 1403 894 1545 773 
Q 1688 653 1941 653 
Q 2256 653 2472 879 
Q 2688 1106 2688 1447 
L 2688 1575 
L 2106 1575 
z
M 3816 1997 
L 3816 0 
L 2688 0 
L 2688 519 
Q 2463 200 2181 54 
Q 1900 -91 1497 -91 
Q 953 -91 614 226 
Q 275 544 275 1050 
Q 275 1666 698 1953 
Q 1122 2241 2028 2241 
L 2688 2241 
L 2688 2328 
Q 2688 2594 2478 2717 
Q 2269 2841 1825 2841 
Q 1466 2841 1156 2769 
Q 847 2697 581 2553 
L 581 3406 
Q 941 3494 1303 3539 
Q 1666 3584 2028 3584 
Q 2975 3584 3395 3211 
Q 3816 2838 3816 1997 
z
" transform="scale(0.015625)"/>
      <path id="DejaVuSans-Bold-6b" d="M 538 4863 
L 1656 4863 
L 1656 2216 
L 2944 3500 
L 4244 3500 
L 2534 1894 
L 4378 0 
L 3022 0 
L 1656 1459 
L 1656 0 
L 538 0 
L 538 4863 
z
" transform="scale(0.015625)"/>
     </defs>
     <use xlink:href="#DejaVuSans-Bold-42"/>
     <use xlink:href="#DejaVuSans-Bold-72" transform="translate(76.220703 0)"/>
     <use xlink:href="#DejaVuSans-Bold-65" transform="translate(125.537109 0)"/>
     <use xlink:href="#DejaVuSans-Bold-61" transform="translate(193.359375 0)"/>
     <use xlink:href="#DejaVuSans-Bold-6b" transform="translate(260.839844 0)"/>
    </g>
   </g>
   <g id="text_18">
    <!-- Interference -->
    <g style="fill: #ff0000" transform="translate(245.21609 46.733812) scale(0.1 -0.1)">
     <defs>
      <path id="DejaVuSans-Bold-49" d="M 588 4666 
L 1791 4666 
L 1791 0 
L 588 0 
L 588 4666 
z
" transform="scale(0.015625)"/>
      <path id="DejaVuSans-Bold-6e" d="M 4056 2131 
L 4056 0 
L 2931 0 
L 2931 347 
L 2931 1631 
Q 2931 2084 2911 2256 
Q 2891 2428 2841 2509 
Q 2775 2619 2662 2680 
Q 2550 2741 2406 2741 
Q 2056 2741 1856 2470 
Q 1656 2200 1656 1722 
L 1656 0 
L 538 0 
L 538 3500 
L 1656 3500 
L 1656 2988 
Q 1909 3294 2193 3439 
Q 2478 3584 2822 3584 
Q 3428 3584 3742 3212 
Q 4056 2841 4056 2131 
z
" transform="scale(0.015625)"/>
      <path id="DejaVuSans-Bold-74" d="M 1759 4494 
L 1759 3500 
L 2913 3500 
L 2913 2700 
L 1759 2700 
L 1759 1216 
Q 1759 972 1856 886 
Q 1953 800 2241 800 
L 2816 800 
L 2816 0 
L 1856 0 
Q 1194 0 917 276 
Q 641 553 641 1216 
L 641 2700 
L 84 2700 
L 84 3500 
L 641 3500 
L 641 4494 
L 1759 4494 
z
" transform="scale(0.015625)"/>
      <path id="DejaVuSans-Bold-66" d="M 2841 4863 
L 2841 4128 
L 2222 4128 
Q 1984 4128 1890 4042 
Q 1797 3956 1797 3744 
L 1797 3500 
L 2753 3500 
L 2753 2700 
L 1797 2700 
L 1797 0 
L 678 0 
L 678 2700 
L 122 2700 
L 122 3500 
L 678 3500 
L 678 3744 
Q 678 4316 997 4589 
Q 1316 4863 1984 4863 
L 2841 4863 
z
" transform="scale(0.015625)"/>
      <path id="DejaVuSans-Bold-63" d="M 3366 3391 
L 3366 2478 
Q 3138 2634 2908 2709 
Q 2678 2784 2431 2784 
Q 1963 2784 1702 2511 
Q 1441 2238 1441 1747 
Q 1441 1256 1702 982 
Q 1963 709 2431 709 
Q 2694 709 2930 787 
Q 3166 866 3366 1019 
L 3366 103 
Q 3103 6 2833 -42 
Q 2563 -91 2291 -91 
Q 1344 -91 809 395 
Q 275 881 275 1747 
Q 275 2613 809 3098 
Q 1344 3584 2291 3584 
Q 2566 3584 2833 3536 
Q 3100 3488 3366 3391 
z
" transform="scale(0.015625)"/>
     </defs>
     <use xlink:href="#DejaVuSans-Bold-49"/>
     <use xlink:href="#DejaVuSans-Bold-6e" transform="translate(37.207031 0)"/>
     <use xlink:href="#DejaVuSans-Bold-74" transform="translate(108.398438 0)"/>
     <use xlink:href="#DejaVuSans-Bold-65" transform="translate(156.201172 0)"/>
     <use xlink:href="#DejaVuSans-Bold-72" transform="translate(224.023438 0)"/>
     <use xlink:href="#DejaVuSans-Bold-66" transform="translate(273.339844 0)"/>
     <use xlink:href="#DejaVuSans-Bold-65" transform="translate(316.845703 0)"/>
     <use xlink:href="#DejaVuSans-Bold-72" transform="translate(384.667969 0)"/>
     <use xlink:href="#DejaVuSans-Bold-65" transform="translate(433.984375 0)"/>
     <use xlink:href="#DejaVuSans-Bold-6e" transform="translate(501.806641 0)"/>
     <use xlink:href="#DejaVuSans-Bold-63" transform="translate(572.998047 0)"/>
     <use xlink:href="#DejaVuSans-Bold-65" transform="translate(632.275391 0)"/>
    </g>
   </g>
   <g id="text_19">
    <!-- Filler -->
    <g style="fill: #0000ff" transform="translate(349.940574 46.733812) scale(0.1 -0.1)">
     <use xlink:href="#DejaVuSans-Bold-46"/>
     <use xlink:href="#DejaVuSans-Bold-69" transform="translate(68.310547 0)"/>
     <use xlink:href="#DejaVuSans-Bold-6c" transform="translate(102.587891 0)"/>
     <use xlink:href="#DejaVuSans-Bold-6c" transform="translate(136.865234 0)"/>
     <use xlink:href="#DejaVuSans-Bold-65" transform="translate(171.142578 0)"/>
     <use xlink:href="#DejaVuSans-Bold-72" transform="translate(238.964844 0)"/>
    </g>
   </g>
   <g id="text_20">
    <g clip-path="url(#pf312b78aa2)">
     <!-- Reminder -->
     <g transform="translate(236.073769 111.243812) rotate(-90) scale(0.1 -0.1)">
      <defs>
       <path id="DejaVuSans-Oblique-52" d="M 1613 4147 
L 1294 2491 
L 2106 2491 
Q 2584 2491 2879 2755 
Q 3175 3019 3175 3444 
Q 3175 3784 2976 3965 
Q 2778 4147 2406 4147 
L 1613 4147 
z
M 2772 2241 
Q 2972 2194 3105 2009 
Q 3238 1825 3413 1275 
L 3809 0 
L 3144 0 
L 2778 1197 
Q 2638 1659 2453 1815 
Q 2269 1972 1888 1972 
L 1191 1972 
L 806 0 
L 172 0 
L 1081 4666 
L 2503 4666 
Q 3150 4666 3495 4373 
Q 3841 4081 3841 3531 
Q 3841 3044 3547 2687 
Q 3253 2331 2772 2241 
z
" transform="scale(0.015625)"/>
       <path id="DejaVuSans-Oblique-65" d="M 3078 2063 
Q 3088 2113 3092 2166 
Q 3097 2219 3097 2272 
Q 3097 2653 2873 2875 
Q 2650 3097 2266 3097 
Q 1838 3097 1509 2826 
Q 1181 2556 1013 2059 
L 3078 2063 
z
M 3578 1613 
L 903 1613 
Q 884 1494 878 1425 
Q 872 1356 872 1306 
Q 872 872 1139 634 
Q 1406 397 1894 397 
Q 2269 397 2603 481 
Q 2938 566 3225 728 
L 3116 159 
Q 2806 34 2476 -28 
Q 2147 -91 1806 -91 
Q 1078 -91 686 257 
Q 294 606 294 1247 
Q 294 1794 489 2264 
Q 684 2734 1063 3103 
Q 1306 3334 1642 3459 
Q 1978 3584 2356 3584 
Q 2950 3584 3301 3228 
Q 3653 2872 3653 2272 
Q 3653 2128 3634 1964 
Q 3616 1800 3578 1613 
z
" transform="scale(0.015625)"/>
       <path id="DejaVuSans-Oblique-6d" d="M 5747 2113 
L 5338 0 
L 4763 0 
L 5166 2094 
Q 5191 2228 5203 2325 
Q 5216 2422 5216 2491 
Q 5216 2772 5059 2928 
Q 4903 3084 4622 3084 
Q 4203 3084 3875 2770 
Q 3547 2456 3450 1953 
L 3066 0 
L 2491 0 
L 2900 2094 
Q 2925 2209 2937 2307 
Q 2950 2406 2950 2484 
Q 2950 2769 2794 2926 
Q 2638 3084 2363 3084 
Q 1938 3084 1609 2770 
Q 1281 2456 1184 1953 
L 800 0 
L 225 0 
L 909 3500 
L 1484 3500 
L 1375 2956 
Q 1609 3263 1923 3423 
Q 2238 3584 2597 3584 
Q 2978 3584 3223 3384 
Q 3469 3184 3519 2828 
Q 3781 3197 4126 3390 
Q 4472 3584 4856 3584 
Q 5306 3584 5551 3325 
Q 5797 3066 5797 2591 
Q 5797 2488 5784 2364 
Q 5772 2241 5747 2113 
z
" transform="scale(0.015625)"/>
       <path id="DejaVuSans-Oblique-69" d="M 1172 4863 
L 1747 4863 
L 1606 4134 
L 1031 4134 
L 1172 4863 
z
M 909 3500 
L 1484 3500 
L 800 0 
L 225 0 
L 909 3500 
z
" transform="scale(0.015625)"/>
       <path id="DejaVuSans-Oblique-6e" d="M 3566 2113 
L 3156 0 
L 2578 0 
L 2988 2091 
Q 3016 2238 3031 2350 
Q 3047 2463 3047 2528 
Q 3047 2791 2881 2937 
Q 2716 3084 2419 3084 
Q 1956 3084 1622 2776 
Q 1288 2469 1184 1941 
L 800 0 
L 225 0 
L 903 3500 
L 1478 3500 
L 1363 2950 
Q 1603 3253 1940 3418 
Q 2278 3584 2650 3584 
Q 3113 3584 3367 3334 
Q 3622 3084 3622 2631 
Q 3622 2519 3608 2391 
Q 3594 2263 3566 2113 
z
" transform="scale(0.015625)"/>
       <path id="DejaVuSans-Oblique-64" d="M 2675 525 
Q 2444 222 2128 65 
Q 1813 -91 1428 -91 
Q 903 -91 598 267 
Q 294 625 294 1247 
Q 294 1766 478 2236 
Q 663 2706 1013 3078 
Q 1244 3325 1534 3454 
Q 1825 3584 2144 3584 
Q 2481 3584 2739 3421 
Q 2997 3259 3138 2956 
L 3513 4863 
L 4091 4863 
L 3144 0 
L 2566 0 
L 2675 525 
z
M 891 1350 
Q 891 897 1095 644 
Q 1300 391 1663 391 
Q 1931 391 2161 520 
Q 2391 650 2566 903 
Q 2750 1166 2856 1509 
Q 2963 1853 2963 2188 
Q 2963 2622 2758 2865 
Q 2553 3109 2194 3109 
Q 1922 3109 1687 2981 
Q 1453 2853 1288 2613 
Q 1106 2353 998 2009 
Q 891 1666 891 1350 
z
" transform="scale(0.015625)"/>
       <path id="DejaVuSans-Oblique-72" d="M 2853 2969 
Q 2766 3016 2653 3041 
Q 2541 3066 2413 3066 
Q 1953 3066 1609 2717 
Q 1266 2369 1153 1784 
L 800 0 
L 225 0 
L 909 3500 
L 1484 3500 
L 1375 2956 
Q 1603 3259 1920 3421 
Q 2238 3584 2597 3584 
Q 2691 3584 2781 3573 
Q 2872 3563 2963 3538 
L 2853 2969 
z
" transform="scale(0.015625)"/>
      </defs>
      <use xlink:href="#DejaVuSans-Oblique-52"/>
      <use xlink:href="#DejaVuSans-Oblique-65" transform="translate(69.482422 0)"/>
      <use xlink:href="#DejaVuSans-Oblique-6d" transform="translate(131.005859 0)"/>
      <use xlink:href="#DejaVuSans-Oblique-69" transform="translate(228.417969 0)"/>
      <use xlink:href="#DejaVuSans-Oblique-6e" transform="translate(256.201172 0)"/>
      <use xlink:href="#DejaVuSans-Oblique-64" transform="translate(319.580078 0)"/>
      <use xlink:href="#DejaVuSans-Oblique-65" transform="translate(383.056641 0)"/>
      <use xlink:href="#DejaVuSans-Oblique-72" transform="translate(444.580078 0)"/>
     </g>
    </g>
   </g>
   <g id="text_21">
    <!-- SPC by Interference Drift Scale -->
    <g transform="translate(114.733457 19.3575) scale(0.16 -0.16)">
     <defs>
      <path id="DejaVuSans-43" d="M 4122 4306 
L 4122 3641 
Q 3803 3938 3442 4084 
Q 3081 4231 2675 4231 
Q 1875 4231 1450 3742 
Q 1025 3253 1025 2328 
Q 1025 1406 1450 917 
Q 1875 428 2675 428 
Q 3081 428 3442 575 
Q 3803 722 4122 1019 
L 4122 359 
Q 3791 134 3420 21 
Q 3050 -91 2638 -91 
Q 1578 -91 968 557 
Q 359 1206 359 2328 
Q 359 3453 968 4101 
Q 1578 4750 2638 4750 
Q 3056 4750 3426 4639 
Q 3797 4528 4122 4306 
z
" transform="scale(0.015625)"/>
      <path id="DejaVuSans-49" d="M 628 4666 
L 1259 4666 
L 1259 0 
L 628 0 
L 628 4666 
z
" transform="scale(0.015625)"/>
      <path id="DejaVuSans-66" d="M 2375 4863 
L 2375 4384 
L 1825 4384 
Q 1516 4384 1395 4259 
Q 1275 4134 1275 3809 
L 1275 3500 
L 2222 3500 
L 2222 3053 
L 1275 3053 
L 1275 0 
L 697 0 
L 697 3053 
L 147 3053 
L 147 3500 
L 697 3500 
L 697 3744 
Q 697 4328 969 4595 
Q 1241 4863 1831 4863 
L 2375 4863 
z
" transform="scale(0.015625)"/>
      <path id="DejaVuSans-44" d="M 1259 4147 
L 1259 519 
L 2022 519 
Q 2988 519 3436 956 
Q 3884 1394 3884 2338 
Q 3884 3275 3436 3711 
Q 2988 4147 2022 4147 
L 1259 4147 
z
M 628 4666 
L 1925 4666 
Q 3281 4666 3915 4102 
Q 4550 3538 4550 2338 
Q 4550 1131 3912 565 
Q 3275 0 1925 0 
L 628 0 
L 628 4666 
z
" transform="scale(0.015625)"/>
     </defs>
     <use xlink:href="#DejaVuSans-53"/>
     <use xlink:href="#DejaVuSans-50" transform="translate(63.476562 0)"/>
     <use xlink:href="#DejaVuSans-43" transform="translate(123.779297 0)"/>
     <use xlink:href="#DejaVuSans-20" transform="translate(193.603516 0)"/>
     <use xlink:href="#DejaVuSans-62" transform="translate(225.390625 0)"/>
     <use xlink:href="#DejaVuSans-79" transform="translate(288.867188 0)"/>
     <use xlink:href="#DejaVuSans-20" transform="translate(348.046875 0)"/>
     <use xlink:href="#DejaVuSans-49" transform="translate(379.833984 0)"/>
     <use xlink:href="#DejaVuSans-6e" transform="translate(409.326172 0)"/>
     <use xlink:href="#DejaVuSans-74" transform="translate(472.705078 0)"/>
     <use xlink:href="#DejaVuSans-65" transform="translate(511.914062 0)"/>
     <use xlink:href="#DejaVuSans-72" transform="translate(573.4375 0)"/>
     <use xlink:href="#DejaVuSans-66" transform="translate(614.550781 0)"/>
     <use xlink:href="#DejaVuSans-65" transform="translate(649.755859 0)"/>
     <use xlink:href="#DejaVuSans-72" transform="translate(711.279297 0)"/>
     <use xlink:href="#DejaVuSans-65" transform="translate(750.142578 0)"/>
     <use xlink:href="#DejaVuSans-6e" transform="translate(811.666016 0)"/>
     <use xlink:href="#DejaVuSans-63" transform="translate(875.044922 0)"/>
     <use xlink:href="#DejaVuSans-65" transform="translate(930.025391 0)"/>
     <use xlink:href="#DejaVuSans-20" transform="translate(991.548828 0)"/>
     <use xlink:href="#DejaVuSans-44" transform="translate(1023.335938 0)"/>
     <use xlink:href="#DejaVuSans-72" transform="translate(1100.337891 0)"/>
     <use xlink:href="#DejaVuSans-69" transform="translate(1141.451172 0)"/>
     <use xlink:href="#DejaVuSans-66" transform="translate(1169.234375 0)"/>
     <use xlink:href="#DejaVuSans-74" transform="translate(1202.689453 0)"/>
     <use xlink:href="#DejaVuSans-20" transform="translate(1241.898438 0)"/>
     <use xlink:href="#DejaVuSans-53" transform="translate(1273.685547 0)"/>
     <use xlink:href="#DejaVuSans-63" transform="translate(1337.162109 0)"/>
     <use xlink:href="#DejaVuSans-61" transform="translate(1392.142578 0)"/>
     <use xlink:href="#DejaVuSans-6c" transform="translate(1453.421875 0)"/>
     <use xlink:href="#DejaVuSans-65" transform="translate(1481.205078 0)"/>
    </g>
   </g>
   <g id="legend_1">
    <g id="patch_5">
     <path d="M 436.045702 240.095 
L 501.164452 240.095 
Q 503.564452 240.095 503.564452 237.695 
L 503.564452 62.7575 
Q 503.564452 60.3575 501.164452 60.3575 
L 436.045702 60.3575 
Q 433.645702 60.3575 433.645702 62.7575 
L 433.645702 237.695 
Q 433.645702 240.095 436.045702 240.095 
z
" style="fill: #ffffff; opacity: 0.8; stroke: #cccccc; stroke-linejoin: miter"/>
    </g>
    <g id="line2d_33">
     <path d="M 438.445702 70.075625 
L 450.445702 70.075625 
L 462.445702 70.075625 
" style="fill: none; stroke: #bfbfbf; stroke-width: 1.5; stroke-linecap: square"/>
    </g>
    <g id="text_22">
     <!-- 0.20 -->
     <g transform="translate(472.045702 74.275625) scale(0.12 -0.12)">
      <use xlink:href="#DejaVuSans-30"/>
      <use xlink:href="#DejaVuSans-2e" transform="translate(63.623047 0)"/>
      <use xlink:href="#DejaVuSans-32" transform="translate(95.410156 0)"/>
      <use xlink:href="#DejaVuSans-30" transform="translate(159.033203 0)"/>
     </g>
    </g>
    <g id="line2d_34">
     <path d="M 438.445702 87.689375 
L 450.445702 87.689375 
L 462.445702 87.689375 
" style="fill: none; stroke: #acacac; stroke-width: 1.5; stroke-linecap: square"/>
    </g>
    <g id="text_23">
     <!-- 0.36 -->
     <g transform="translate(472.045702 91.889375) scale(0.12 -0.12)">
      <use xlink:href="#DejaVuSans-30"/>
      <use xlink:href="#DejaVuSans-2e" transform="translate(63.623047 0)"/>
      <use xlink:href="#DejaVuSans-33" transform="translate(95.410156 0)"/>
      <use xlink:href="#DejaVuSans-36" transform="translate(159.033203 0)"/>
     </g>
    </g>
    <g id="line2d_35">
     <path d="M 438.445702 105.303125 
L 450.445702 105.303125 
L 462.445702 105.303125 
" style="fill: none; stroke: #9a9a9a; stroke-width: 1.5; stroke-linecap: square"/>
    </g>
    <g id="text_24">
     <!-- 0.51 -->
     <g transform="translate(472.045702 109.503125) scale(0.12 -0.12)">
      <use xlink:href="#DejaVuSans-30"/>
      <use xlink:href="#DejaVuSans-2e" transform="translate(63.623047 0)"/>
      <use xlink:href="#DejaVuSans-35" transform="translate(95.410156 0)"/>
      <use xlink:href="#DejaVuSans-31" transform="translate(159.033203 0)"/>
     </g>
    </g>
    <g id="line2d_36">
     <path d="M 438.445702 122.916875 
L 450.445702 122.916875 
L 462.445702 122.916875 
" style="fill: none; stroke: #888888; stroke-width: 1.5; stroke-linecap: square"/>
    </g>
    <g id="text_25">
     <!-- 0.67 -->
     <g transform="translate(472.045702 127.116875) scale(0.12 -0.12)">
      <defs>
       <path id="DejaVuSans-37" d="M 525 4666 
L 3525 4666 
L 3525 4397 
L 1831 0 
L 1172 0 
L 2766 4134 
L 525 4134 
L 525 4666 
z
" transform="scale(0.015625)"/>
      </defs>
      <use xlink:href="#DejaVuSans-30"/>
      <use xlink:href="#DejaVuSans-2e" transform="translate(63.623047 0)"/>
      <use xlink:href="#DejaVuSans-36" transform="translate(95.410156 0)"/>
      <use xlink:href="#DejaVuSans-37" transform="translate(159.033203 0)"/>
     </g>
    </g>
    <g id="line2d_37">
     <path d="M 438.445702 140.530625 
L 450.445702 140.530625 
L 462.445702 140.530625 
" style="fill: none; stroke: #757575; stroke-width: 1.5; stroke-linecap: square"/>
    </g>
    <g id="text_26">
     <!-- 0.82 -->
     <g transform="translate(472.045702 144.730625) scale(0.12 -0.12)">
      <defs>
       <path id="DejaVuSans-38" d="M 2034 2216 
Q 1584 2216 1326 1975 
Q 1069 1734 1069 1313 
Q 1069 891 1326 650 
Q 1584 409 2034 409 
Q 2484 409 2743 651 
Q 3003 894 3003 1313 
Q 3003 1734 2745 1975 
Q 2488 2216 2034 2216 
z
M 1403 2484 
Q 997 2584 770 2862 
Q 544 3141 544 3541 
Q 544 4100 942 4425 
Q 1341 4750 2034 4750 
Q 2731 4750 3128 4425 
Q 3525 4100 3525 3541 
Q 3525 3141 3298 2862 
Q 3072 2584 2669 2484 
Q 3125 2378 3379 2068 
Q 3634 1759 3634 1313 
Q 3634 634 3220 271 
Q 2806 -91 2034 -91 
Q 1263 -91 848 271 
Q 434 634 434 1313 
Q 434 1759 690 2068 
Q 947 2378 1403 2484 
z
M 1172 3481 
Q 1172 3119 1398 2916 
Q 1625 2713 2034 2713 
Q 2441 2713 2670 2916 
Q 2900 3119 2900 3481 
Q 2900 3844 2670 4047 
Q 2441 4250 2034 4250 
Q 1625 4250 1398 4047 
Q 1172 3844 1172 3481 
z
" transform="scale(0.015625)"/>
      </defs>
      <use xlink:href="#DejaVuSans-30"/>
      <use xlink:href="#DejaVuSans-2e" transform="translate(63.623047 0)"/>
      <use xlink:href="#DejaVuSans-38" transform="translate(95.410156 0)"/>
      <use xlink:href="#DejaVuSans-32" transform="translate(159.033203 0)"/>
     </g>
    </g>
    <g id="line2d_38">
     <path d="M 438.445702 158.144375 
L 450.445702 158.144375 
L 462.445702 158.144375 
" style="fill: none; stroke: #636363; stroke-width: 1.5; stroke-linecap: square"/>
    </g>
    <g id="text_27">
     <!-- 0.98 -->
     <g transform="translate(472.045702 162.344375) scale(0.12 -0.12)">
      <defs>
       <path id="DejaVuSans-39" d="M 703 97 
L 703 672 
Q 941 559 1184 500 
Q 1428 441 1663 441 
Q 2288 441 2617 861 
Q 2947 1281 2994 2138 
Q 2813 1869 2534 1725 
Q 2256 1581 1919 1581 
Q 1219 1581 811 2004 
Q 403 2428 403 3163 
Q 403 3881 828 4315 
Q 1253 4750 1959 4750 
Q 2769 4750 3195 4129 
Q 3622 3509 3622 2328 
Q 3622 1225 3098 567 
Q 2575 -91 1691 -91 
Q 1453 -91 1209 -44 
Q 966 3 703 97 
z
M 1959 2075 
Q 2384 2075 2632 2365 
Q 2881 2656 2881 3163 
Q 2881 3666 2632 3958 
Q 2384 4250 1959 4250 
Q 1534 4250 1286 3958 
Q 1038 3666 1038 3163 
Q 1038 2656 1286 2365 
Q 1534 2075 1959 2075 
z
" transform="scale(0.015625)"/>
      </defs>
      <use xlink:href="#DejaVuSans-30"/>
      <use xlink:href="#DejaVuSans-2e" transform="translate(63.623047 0)"/>
      <use xlink:href="#DejaVuSans-39" transform="translate(95.410156 0)"/>
      <use xlink:href="#DejaVuSans-38" transform="translate(159.033203 0)"/>
     </g>
    </g>
    <g id="line2d_39">
     <path d="M 438.445702 175.758125 
L 450.445702 175.758125 
L 462.445702 175.758125 
" style="fill: none; stroke: #505050; stroke-width: 1.5; stroke-linecap: square"/>
    </g>
    <g id="text_28">
     <!-- 1.13 -->
     <g transform="translate(472.045702 179.958125) scale(0.12 -0.12)">
      <use xlink:href="#DejaVuSans-31"/>
      <use xlink:href="#DejaVuSans-2e" transform="translate(63.623047 0)"/>
      <use xlink:href="#DejaVuSans-31" transform="translate(95.410156 0)"/>
      <use xlink:href="#DejaVuSans-33" transform="translate(159.033203 0)"/>
     </g>
    </g>
    <g id="line2d_40">
     <path d="M 438.445702 193.371875 
L 450.445702 193.371875 
L 462.445702 193.371875 
" style="fill: none; stroke: #3e3e3e; stroke-width: 1.5; stroke-linecap: square"/>
    </g>
    <g id="text_29">
     <!-- 1.29 -->
     <g transform="translate(472.045702 197.571875) scale(0.12 -0.12)">
      <use xlink:href="#DejaVuSans-31"/>
      <use xlink:href="#DejaVuSans-2e" transform="translate(63.623047 0)"/>
      <use xlink:href="#DejaVuSans-32" transform="translate(95.410156 0)"/>
      <use xlink:href="#DejaVuSans-39" transform="translate(159.033203 0)"/>
     </g>
    </g>
    <g id="line2d_41">
     <path d="M 438.445702 210.985625 
L 450.445702 210.985625 
L 462.445702 210.985625 
" style="fill: none; stroke: #2b2b2b; stroke-width: 1.5; stroke-linecap: square"/>
    </g>
    <g id="text_30">
     <!-- 1.44 -->
     <g transform="translate(472.045702 215.185625) scale(0.12 -0.12)">
      <use xlink:href="#DejaVuSans-31"/>
      <use xlink:href="#DejaVuSans-2e" transform="translate(63.623047 0)"/>
      <use xlink:href="#DejaVuSans-34" transform="translate(95.410156 0)"/>
      <use xlink:href="#DejaVuSans-34" transform="translate(159.033203 0)"/>
     </g>
    </g>
    <g id="line2d_42">
     <path d="M 438.445702 228.599375 
L 450.445702 228.599375 
L 462.445702 228.599375 
" style="fill: none; stroke: #191919; stroke-width: 1.5; stroke-linecap: square"/>
    </g>
    <g id="text_31">
     <!-- 1.60 -->
     <g transform="translate(472.045702 232.799375) scale(0.12 -0.12)">
      <use xlink:href="#DejaVuSans-31"/>
      <use xlink:href="#DejaVuSans-2e" transform="translate(63.623047 0)"/>
      <use xlink:href="#DejaVuSans-36" transform="translate(95.410156 0)"/>
      <use xlink:href="#DejaVuSans-30" transform="translate(159.033203 0)"/>
     </g>
    </g>
   </g>
  </g>
  <g id="axes_2">
   <g id="patch_6">
    <path d="M 584.341212 331.5575 
L 948.749375 331.5575 
L 948.749375 54.3575 
L 584.341212 54.3575 
z
" style="fill: #ffffff"/>
   </g>
   <g id="FillBetweenPolyCollection_1">
    <defs>
     <path id="m26d2040793" d="M 600.905219 -140.440234 
L 600.905219 -60.314356 
L 637.714125 -59.834375 
L 674.52303 -80.698069 
L 711.331935 -88.065364 
L 748.140841 -105.690564 
L 784.949746 -128.190831 
L 821.758651 -156.885511 
L 858.567557 -173.595316 
L 895.376462 -178.947758 
L 932.185368 -189.803086 
L 932.185368 -311.834375 
L 932.185368 -311.834375 
L 895.376462 -295.850747 
L 858.567557 -288.332182 
L 821.758651 -264.868298 
L 784.949746 -224.988519 
L 748.140841 -193.684481 
L 711.331935 -173.836584 
L 674.52303 -162.636187 
L 637.714125 -139.443466 
L 600.905219 -140.440234 
z
" style="stroke: #000000; stroke-opacity: 0.25"/>
    </defs>
    <g clip-path="url(#p9ec5aa4b20)">
     <use xlink:href="#m26d2040793" x="0" y="378.791875" style="fill-opacity: 0.25; stroke: #000000; stroke-opacity: 0.25"/>
    </g>
   </g>
   <g id="matplotlib.axis_3">
    <g id="xtick_8">
     <g id="line2d_43">
      <g>
       <use xlink:href="#m21b792481c" x="600.905219" y="331.5575" style="stroke: #000000; stroke-width: 0.8"/>
      </g>
     </g>
     <g id="text_32">
      <!-- 0.2 -->
      <g transform="translate(589.773032 349.195312) scale(0.14 -0.14)">
       <use xlink:href="#DejaVuSans-30"/>
       <use xlink:href="#DejaVuSans-2e" transform="translate(63.623047 0)"/>
       <use xlink:href="#DejaVuSans-32" transform="translate(95.410156 0)"/>
      </g>
     </g>
    </g>
    <g id="xtick_9">
     <g id="line2d_44">
      <g>
       <use xlink:href="#m21b792481c" x="648.230955" y="331.5575" style="stroke: #000000; stroke-width: 0.8"/>
      </g>
     </g>
     <g id="text_33">
      <!-- 0.4 -->
      <g transform="translate(637.098767 349.195312) scale(0.14 -0.14)">
       <use xlink:href="#DejaVuSans-30"/>
       <use xlink:href="#DejaVuSans-2e" transform="translate(63.623047 0)"/>
       <use xlink:href="#DejaVuSans-34" transform="translate(95.410156 0)"/>
      </g>
     </g>
    </g>
    <g id="xtick_10">
     <g id="line2d_45">
      <g>
       <use xlink:href="#m21b792481c" x="695.55669" y="331.5575" style="stroke: #000000; stroke-width: 0.8"/>
      </g>
     </g>
     <g id="text_34">
      <!-- 0.6 -->
      <g transform="translate(684.424503 349.195312) scale(0.14 -0.14)">
       <use xlink:href="#DejaVuSans-30"/>
       <use xlink:href="#DejaVuSans-2e" transform="translate(63.623047 0)"/>
       <use xlink:href="#DejaVuSans-36" transform="translate(95.410156 0)"/>
      </g>
     </g>
    </g>
    <g id="xtick_11">
     <g id="line2d_46">
      <g>
       <use xlink:href="#m21b792481c" x="742.882426" y="331.5575" style="stroke: #000000; stroke-width: 0.8"/>
      </g>
     </g>
     <g id="text_35">
      <!-- 0.8 -->
      <g transform="translate(731.750238 349.195312) scale(0.14 -0.14)">
       <use xlink:href="#DejaVuSans-30"/>
       <use xlink:href="#DejaVuSans-2e" transform="translate(63.623047 0)"/>
       <use xlink:href="#DejaVuSans-38" transform="translate(95.410156 0)"/>
      </g>
     </g>
    </g>
    <g id="xtick_12">
     <g id="line2d_47">
      <g>
       <use xlink:href="#m21b792481c" x="790.208161" y="331.5575" style="stroke: #000000; stroke-width: 0.8"/>
      </g>
     </g>
     <g id="text_36">
      <!-- 1.0 -->
      <g transform="translate(779.075974 349.195312) scale(0.14 -0.14)">
       <use xlink:href="#DejaVuSans-31"/>
       <use xlink:href="#DejaVuSans-2e" transform="translate(63.623047 0)"/>
       <use xlink:href="#DejaVuSans-30" transform="translate(95.410156 0)"/>
      </g>
     </g>
    </g>
    <g id="xtick_13">
     <g id="line2d_48">
      <g>
       <use xlink:href="#m21b792481c" x="837.533897" y="331.5575" style="stroke: #000000; stroke-width: 0.8"/>
      </g>
     </g>
     <g id="text_37">
      <!-- 1.2 -->
      <g transform="translate(826.401709 349.195312) scale(0.14 -0.14)">
       <use xlink:href="#DejaVuSans-31"/>
       <use xlink:href="#DejaVuSans-2e" transform="translate(63.623047 0)"/>
       <use xlink:href="#DejaVuSans-32" transform="translate(95.410156 0)"/>
      </g>
     </g>
    </g>
    <g id="xtick_14">
     <g id="line2d_49">
      <g>
       <use xlink:href="#m21b792481c" x="884.859632" y="331.5575" style="stroke: #000000; stroke-width: 0.8"/>
      </g>
     </g>
     <g id="text_38">
      <!-- 1.4 -->
      <g transform="translate(873.727445 349.195312) scale(0.14 -0.14)">
       <use xlink:href="#DejaVuSans-31"/>
       <use xlink:href="#DejaVuSans-2e" transform="translate(63.623047 0)"/>
       <use xlink:href="#DejaVuSans-34" transform="translate(95.410156 0)"/>
      </g>
     </g>
    </g>
    <g id="xtick_15">
     <g id="line2d_50">
      <g>
       <use xlink:href="#m21b792481c" x="932.185368" y="331.5575" style="stroke: #000000; stroke-width: 0.8"/>
      </g>
     </g>
     <g id="text_39">
      <!-- 1.6 -->
      <g transform="translate(921.05318 349.195312) scale(0.14 -0.14)">
       <use xlink:href="#DejaVuSans-31"/>
       <use xlink:href="#DejaVuSans-2e" transform="translate(63.623047 0)"/>
       <use xlink:href="#DejaVuSans-36" transform="translate(95.410156 0)"/>
      </g>
     </g>
    </g>
    <g id="text_40">
     <!-- Interference Drift Scale -->
     <g transform="translate(673.512793 368.264375) scale(0.16 -0.16)">
      <use xlink:href="#DejaVuSans-49"/>
      <use xlink:href="#DejaVuSans-6e" transform="translate(29.492188 0)"/>
      <use xlink:href="#DejaVuSans-74" transform="translate(92.871094 0)"/>
      <use xlink:href="#DejaVuSans-65" transform="translate(132.080078 0)"/>
      <use xlink:href="#DejaVuSans-72" transform="translate(193.603516 0)"/>
      <use xlink:href="#DejaVuSans-66" transform="translate(234.716797 0)"/>
      <use xlink:href="#DejaVuSans-65" transform="translate(269.921875 0)"/>
      <use xlink:href="#DejaVuSans-72" transform="translate(331.445312 0)"/>
      <use xlink:href="#DejaVuSans-65" transform="translate(370.308594 0)"/>
      <use xlink:href="#DejaVuSans-6e" transform="translate(431.832031 0)"/>
      <use xlink:href="#DejaVuSans-63" transform="translate(495.210938 0)"/>
      <use xlink:href="#DejaVuSans-65" transform="translate(550.191406 0)"/>
      <use xlink:href="#DejaVuSans-20" transform="translate(611.714844 0)"/>
      <use xlink:href="#DejaVuSans-44" transform="translate(643.501953 0)"/>
      <use xlink:href="#DejaVuSans-72" transform="translate(720.503906 0)"/>
      <use xlink:href="#DejaVuSans-69" transform="translate(761.617188 0)"/>
      <use xlink:href="#DejaVuSans-66" transform="translate(789.400391 0)"/>
      <use xlink:href="#DejaVuSans-74" transform="translate(822.855469 0)"/>
      <use xlink:href="#DejaVuSans-20" transform="translate(862.064453 0)"/>
      <use xlink:href="#DejaVuSans-53" transform="translate(893.851562 0)"/>
      <use xlink:href="#DejaVuSans-63" transform="translate(957.328125 0)"/>
      <use xlink:href="#DejaVuSans-61" transform="translate(1012.308594 0)"/>
      <use xlink:href="#DejaVuSans-6c" transform="translate(1073.587891 0)"/>
      <use xlink:href="#DejaVuSans-65" transform="translate(1101.371094 0)"/>
     </g>
    </g>
   </g>
   <g id="matplotlib.axis_4">
    <g id="ytick_7">
     <g id="line2d_51">
      <path d="M 584.341212 328.252135 
L 948.749375 328.252135 
" clip-path="url(#p9ec5aa4b20)" style="fill: none; stroke-dasharray: 1.85,0.8; stroke-dashoffset: 0; stroke: #b0b0b0; stroke-opacity: 0.3; stroke-width: 0.5"/>
     </g>
     <g id="line2d_52">
      <g>
       <use xlink:href="#m3785e30830" x="584.341212" y="328.252135" style="stroke: #000000; stroke-width: 0.8"/>
      </g>
     </g>
     <g id="text_41">
      <!-- 2.4 -->
      <g transform="translate(555.076837 333.571041) scale(0.14 -0.14)">
       <use xlink:href="#DejaVuSans-32"/>
       <use xlink:href="#DejaVuSans-2e" transform="translate(63.623047 0)"/>
       <use xlink:href="#DejaVuSans-34" transform="translate(95.410156 0)"/>
      </g>
     </g>
    </g>
    <g id="ytick_8">
     <g id="line2d_53">
      <path d="M 584.341212 275.080745 
L 948.749375 275.080745 
" clip-path="url(#p9ec5aa4b20)" style="fill: none; stroke-dasharray: 1.85,0.8; stroke-dashoffset: 0; stroke: #b0b0b0; stroke-opacity: 0.3; stroke-width: 0.5"/>
     </g>
     <g id="line2d_54">
      <g>
       <use xlink:href="#m3785e30830" x="584.341212" y="275.080745" style="stroke: #000000; stroke-width: 0.8"/>
      </g>
     </g>
     <g id="text_42">
      <!-- 2.6 -->
      <g transform="translate(555.076837 280.399651) scale(0.14 -0.14)">
       <use xlink:href="#DejaVuSans-32"/>
       <use xlink:href="#DejaVuSans-2e" transform="translate(63.623047 0)"/>
       <use xlink:href="#DejaVuSans-36" transform="translate(95.410156 0)"/>
      </g>
     </g>
    </g>
    <g id="ytick_9">
     <g id="line2d_55">
      <path d="M 584.341212 221.909355 
L 948.749375 221.909355 
" clip-path="url(#p9ec5aa4b20)" style="fill: none; stroke-dasharray: 1.85,0.8; stroke-dashoffset: 0; stroke: #b0b0b0; stroke-opacity: 0.3; stroke-width: 0.5"/>
     </g>
     <g id="line2d_56">
      <g>
       <use xlink:href="#m3785e30830" x="584.341212" y="221.909355" style="stroke: #000000; stroke-width: 0.8"/>
      </g>
     </g>
     <g id="text_43">
      <!-- 2.8 -->
      <g transform="translate(555.076837 227.228261) scale(0.14 -0.14)">
       <use xlink:href="#DejaVuSans-32"/>
       <use xlink:href="#DejaVuSans-2e" transform="translate(63.623047 0)"/>
       <use xlink:href="#DejaVuSans-38" transform="translate(95.410156 0)"/>
      </g>
     </g>
    </g>
    <g id="ytick_10">
     <g id="line2d_57">
      <path d="M 584.341212 168.737965 
L 948.749375 168.737965 
" clip-path="url(#p9ec5aa4b20)" style="fill: none; stroke-dasharray: 1.85,0.8; stroke-dashoffset: 0; stroke: #b0b0b0; stroke-opacity: 0.3; stroke-width: 0.5"/>
     </g>
     <g id="line2d_58">
      <g>
       <use xlink:href="#m3785e30830" x="584.341212" y="168.737965" style="stroke: #000000; stroke-width: 0.8"/>
      </g>
     </g>
     <g id="text_44">
      <!-- 3.0 -->
      <g transform="translate(555.076837 174.056871) scale(0.14 -0.14)">
       <use xlink:href="#DejaVuSans-33"/>
       <use xlink:href="#DejaVuSans-2e" transform="translate(63.623047 0)"/>
       <use xlink:href="#DejaVuSans-30" transform="translate(95.410156 0)"/>
      </g>
     </g>
    </g>
    <g id="ytick_11">
     <g id="line2d_59">
      <path d="M 584.341212 115.566574 
L 948.749375 115.566574 
" clip-path="url(#p9ec5aa4b20)" style="fill: none; stroke-dasharray: 1.85,0.8; stroke-dashoffset: 0; stroke: #b0b0b0; stroke-opacity: 0.3; stroke-width: 0.5"/>
     </g>
     <g id="line2d_60">
      <g>
       <use xlink:href="#m3785e30830" x="584.341212" y="115.566574" style="stroke: #000000; stroke-width: 0.8"/>
      </g>
     </g>
     <g id="text_45">
      <!-- 3.2 -->
      <g transform="translate(555.076837 120.885481) scale(0.14 -0.14)">
       <use xlink:href="#DejaVuSans-33"/>
       <use xlink:href="#DejaVuSans-2e" transform="translate(63.623047 0)"/>
       <use xlink:href="#DejaVuSans-32" transform="translate(95.410156 0)"/>
      </g>
     </g>
    </g>
    <g id="ytick_12">
     <g id="line2d_61">
      <path d="M 584.341212 62.395184 
L 948.749375 62.395184 
" clip-path="url(#p9ec5aa4b20)" style="fill: none; stroke-dasharray: 1.85,0.8; stroke-dashoffset: 0; stroke: #b0b0b0; stroke-opacity: 0.3; stroke-width: 0.5"/>
     </g>
     <g id="line2d_62">
      <g>
       <use xlink:href="#m3785e30830" x="584.341212" y="62.395184" style="stroke: #000000; stroke-width: 0.8"/>
      </g>
     </g>
     <g id="text_46">
      <!-- 3.4 -->
      <g transform="translate(555.076837 67.714091) scale(0.14 -0.14)">
       <use xlink:href="#DejaVuSans-33"/>
       <use xlink:href="#DejaVuSans-2e" transform="translate(63.623047 0)"/>
       <use xlink:href="#DejaVuSans-34" transform="translate(95.410156 0)"/>
      </g>
     </g>
    </g>
    <g id="text_47">
     <!-- Film Items Recalled -->
     <g transform="translate(547.749337 270.54875) rotate(-90) scale(0.16 -0.16)">
      <defs>
       <path id="DejaVuSans-46" d="M 628 4666 
L 3309 4666 
L 3309 4134 
L 1259 4134 
L 1259 2759 
L 3109 2759 
L 3109 2228 
L 1259 2228 
L 1259 0 
L 628 0 
L 628 4666 
z
" transform="scale(0.015625)"/>
       <path id="DejaVuSans-6d" d="M 3328 2828 
Q 3544 3216 3844 3400 
Q 4144 3584 4550 3584 
Q 5097 3584 5394 3201 
Q 5691 2819 5691 2113 
L 5691 0 
L 5113 0 
L 5113 2094 
Q 5113 2597 4934 2840 
Q 4756 3084 4391 3084 
Q 3944 3084 3684 2787 
Q 3425 2491 3425 1978 
L 3425 0 
L 2847 0 
L 2847 2094 
Q 2847 2600 2669 2842 
Q 2491 3084 2119 3084 
Q 1678 3084 1418 2786 
Q 1159 2488 1159 1978 
L 1159 0 
L 581 0 
L 581 3500 
L 1159 3500 
L 1159 2956 
Q 1356 3278 1631 3431 
Q 1906 3584 2284 3584 
Q 2666 3584 2933 3390 
Q 3200 3197 3328 2828 
z
" transform="scale(0.015625)"/>
      </defs>
      <use xlink:href="#DejaVuSans-46"/>
      <use xlink:href="#DejaVuSans-69" transform="translate(50.269531 0)"/>
      <use xlink:href="#DejaVuSans-6c" transform="translate(78.052734 0)"/>
      <use xlink:href="#DejaVuSans-6d" transform="translate(105.835938 0)"/>
      <use xlink:href="#DejaVuSans-20" transform="translate(203.248047 0)"/>
      <use xlink:href="#DejaVuSans-49" transform="translate(235.035156 0)"/>
      <use xlink:href="#DejaVuSans-74" transform="translate(264.527344 0)"/>
      <use xlink:href="#DejaVuSans-65" transform="translate(303.736328 0)"/>
      <use xlink:href="#DejaVuSans-6d" transform="translate(365.259766 0)"/>
      <use xlink:href="#DejaVuSans-73" transform="translate(462.671875 0)"/>
      <use xlink:href="#DejaVuSans-20" transform="translate(514.771484 0)"/>
      <use xlink:href="#DejaVuSans-52" transform="translate(546.558594 0)"/>
      <use xlink:href="#DejaVuSans-65" transform="translate(611.541016 0)"/>
      <use xlink:href="#DejaVuSans-63" transform="translate(673.064453 0)"/>
      <use xlink:href="#DejaVuSans-61" transform="translate(728.044922 0)"/>
      <use xlink:href="#DejaVuSans-6c" transform="translate(789.324219 0)"/>
      <use xlink:href="#DejaVuSans-6c" transform="translate(817.107422 0)"/>
      <use xlink:href="#DejaVuSans-65" transform="translate(844.890625 0)"/>
      <use xlink:href="#DejaVuSans-64" transform="translate(906.414062 0)"/>
     </g>
    </g>
   </g>
   <g id="line2d_63">
    <path d="M 600.905219 278.41458 
L 637.714125 279.152955 
L 674.52303 257.124747 
L 711.331935 247.840901 
L 748.140841 229.104352 
L 784.949746 202.2022 
L 821.758651 167.914971 
L 858.567557 147.828126 
L 895.376462 141.392623 
L 932.185368 127.973144 
" clip-path="url(#p9ec5aa4b20)" style="fill: none; stroke: #000000; stroke-width: 1.5; stroke-linecap: square"/>
    <defs>
     <path id="m4354350cb4" d="M 0 2.5 
C 0.663008 2.5 1.29895 2.236584 1.767767 1.767767 
C 2.236584 1.29895 2.5 0.663008 2.5 0 
C 2.5 -0.663008 2.236584 -1.29895 1.767767 -1.767767 
C 1.29895 -2.236584 0.663008 -2.5 0 -2.5 
C -0.663008 -2.5 -1.29895 -2.236584 -1.767767 -1.767767 
C -2.236584 -1.29895 -2.5 -0.663008 -2.5 0 
C -2.5 0.663008 -2.236584 1.29895 -1.767767 1.767767 
C -1.29895 2.236584 -0.663008 2.5 0 2.5 
z
" style="stroke: #000000"/>
    </defs>
    <g clip-path="url(#p9ec5aa4b20)">
     <use xlink:href="#m4354350cb4" x="600.905219" y="278.41458" style="stroke: #000000"/>
     <use xlink:href="#m4354350cb4" x="637.714125" y="279.152955" style="stroke: #000000"/>
     <use xlink:href="#m4354350cb4" x="674.52303" y="257.124747" style="stroke: #000000"/>
     <use xlink:href="#m4354350cb4" x="711.331935" y="247.840901" style="stroke: #000000"/>
     <use xlink:href="#m4354350cb4" x="748.140841" y="229.104352" style="stroke: #000000"/>
     <use xlink:href="#m4354350cb4" x="784.949746" y="202.2022" style="stroke: #000000"/>
     <use xlink:href="#m4354350cb4" x="821.758651" y="167.914971" style="stroke: #000000"/>
     <use xlink:href="#m4354350cb4" x="858.567557" y="147.828126" style="stroke: #000000"/>
     <use xlink:href="#m4354350cb4" x="895.376462" y="141.392623" style="stroke: #000000"/>
     <use xlink:href="#m4354350cb4" x="932.185368" y="127.973144" style="stroke: #000000"/>
    </g>
   </g>
   <g id="patch_7">
    <path d="M 584.341212 331.5575 
L 584.341212 54.3575 
" style="fill: none; stroke: #000000; stroke-width: 0.8; stroke-linejoin: miter; stroke-linecap: square"/>
   </g>
   <g id="patch_8">
    <path d="M 584.341212 331.5575 
L 948.749375 331.5575 
" style="fill: none; stroke: #000000; stroke-width: 0.8; stroke-linejoin: miter; stroke-linecap: square"/>
   </g>
   <g id="text_48">
    <!-- Film Items Recalled -->
    <g transform="translate(688.954043 19.3575) scale(0.16 -0.16)">
     <use xlink:href="#DejaVuSans-46"/>
     <use xlink:href="#DejaVuSans-69" transform="translate(50.269531 0)"/>
     <use xlink:href="#DejaVuSans-6c" transform="translate(78.052734 0)"/>
     <use xlink:href="#DejaVuSans-6d" transform="translate(105.835938 0)"/>
     <use xlink:href="#DejaVuSans-20" transform="translate(203.248047 0)"/>
     <use xlink:href="#DejaVuSans-49" transform="translate(235.035156 0)"/>
     <use xlink:href="#DejaVuSans-74" transform="translate(264.527344 0)"/>
     <use xlink:href="#DejaVuSans-65" transform="translate(303.736328 0)"/>
     <use xlink:href="#DejaVuSans-6d" transform="translate(365.259766 0)"/>
     <use xlink:href="#DejaVuSans-73" transform="translate(462.671875 0)"/>
     <use xlink:href="#DejaVuSans-20" transform="translate(514.771484 0)"/>
     <use xlink:href="#DejaVuSans-52" transform="translate(546.558594 0)"/>
     <use xlink:href="#DejaVuSans-65" transform="translate(611.541016 0)"/>
     <use xlink:href="#DejaVuSans-63" transform="translate(673.064453 0)"/>
     <use xlink:href="#DejaVuSans-61" transform="translate(728.044922 0)"/>
     <use xlink:href="#DejaVuSans-6c" transform="translate(789.324219 0)"/>
     <use xlink:href="#DejaVuSans-6c" transform="translate(817.107422 0)"/>
     <use xlink:href="#DejaVuSans-65" transform="translate(844.890625 0)"/>
     <use xlink:href="#DejaVuSans-64" transform="translate(906.414062 0)"/>
    </g>
   </g>
  </g>
 </g>
 <defs>
  <clipPath id="pf312b78aa2">
   <rect x="55.949375" y="54.3575" width="364.408163" height="277.2"/>
  </clipPath>
  <clipPath id="p9ec5aa4b20">
   <rect x="584.341212" y="54.3575" width="364.408163" height="277.2"/>
  </clipPath>
 </defs>
</svg>
