<?xml version="1.0" encoding="utf-8" standalone="no"?>
<!DOCTYPE svg PUBLIC "-//W3C//DTD SVG 1.1//EN"
  "http://www.w3.org/Graphics/SVG/1.1/DTD/svg11.dtd">
<svg xmlns:xlink="http://www.w3.org/1999/xlink" width="955.949375pt" height="378.791875pt" viewBox="0 0 955.949375 378.791875" xmlns="http://www.w3.org/2000/svg" version="1.1">
 <metadata>
  <rdf:RDF xmlns:dc="http://purl.org/dc/elements/1.1/" xmlns:cc="http://creativecommons.org/ns#" xmlns:rdf="http://www.w3.org/1999/02/22-rdf-syntax-ns#">
   <cc:Work>
    <dc:type rdf:resource="http://purl.org/dc/dcmitype/StillImage"/>
    <dc:date>2026-03-04T15:31:00.961103</dc:date>
    <dc:format>image/svg+xml</dc:format>
    <dc:creator>
     <cc:Agent>
      <dc:title>Matplotlib v3.10.1, https://matplotlib.org/</dc:title>
     </cc:Agent>
    </dc:creator>
   </cc:Work>
  </rdf:RDF>
 </metadata>
 <defs>
  <style type="text/css">*{stroke-linejoin: round; stroke-linecap: butt}</style>
 </defs>
 <g id="figure_1">
  <g id="patch_1">
   <path d="M 0 378.791875 
L 955.949375 378.791875 
L 955.949375 0 
L 0 0 
z
" style="fill: #ffffff"/>
  </g>
  <g id="axes_1">
   <g id="patch_2">
    <path d="M 55.949375 331.5575 
L 420.357538 331.5575 
L 420.357538 54.3575 
L 55.949375 54.3575 
z
" style="fill: #ffffff"/>
   </g>
   <g id="matplotlib.axis_1">
    <g id="xtick_1">
     <g id="line2d_1">
      <defs>
       <path id="m5a518fe258" d="M 0 0 
L 0 3.5 
" style="stroke: #000000; stroke-width: 0.8"/>
      </defs>
      <g>
       <use xlink:href="#m5a518fe258" x="68.319963" y="331.5575" style="stroke: #000000; stroke-width: 0.8"/>
      </g>
     </g>
     <g id="text_1">
      <!-- 0 -->
      <g transform="translate(63.866213 349.195312) scale(0.14 -0.14)">
       <defs>
        <path id="DejaVuSans-30" d="M 2034 4250 
Q 1547 4250 1301 3770 
Q 1056 3291 1056 2328 
Q 1056 1369 1301 889 
Q 1547 409 2034 409 
Q 2525 409 2770 889 
Q 3016 1369 3016 2328 
Q 3016 3291 2770 3770 
Q 2525 4250 2034 4250 
z
M 2034 4750 
Q 2819 4750 3233 4129 
Q 3647 3509 3647 2328 
Q 3647 1150 3233 529 
Q 2819 -91 2034 -91 
Q 1250 -91 836 529 
Q 422 1150 422 2328 
Q 422 3509 836 4129 
Q 1250 4750 2034 4750 
z
" transform="scale(0.015625)"/>
       </defs>
       <use xlink:href="#DejaVuSans-30"/>
      </g>
     </g>
    </g>
    <g id="xtick_2">
     <g id="line2d_2">
      <g>
       <use xlink:href="#m5a518fe258" x="152.188355" y="331.5575" style="stroke: #000000; stroke-width: 0.8"/>
      </g>
     </g>
     <g id="text_2">
      <!-- 20 -->
      <g transform="translate(143.280855 349.195312) scale(0.14 -0.14)">
       <defs>
        <path id="DejaVuSans-32" d="M 1228 531 
L 3431 531 
L 3431 0 
L 469 0 
L 469 531 
Q 828 903 1448 1529 
Q 2069 2156 2228 2338 
Q 2531 2678 2651 2914 
Q 2772 3150 2772 3378 
Q 2772 3750 2511 3984 
Q 2250 4219 1831 4219 
Q 1534 4219 1204 4116 
Q 875 4013 500 3803 
L 500 4441 
Q 881 4594 1212 4672 
Q 1544 4750 1819 4750 
Q 2544 4750 2975 4387 
Q 3406 4025 3406 3419 
Q 3406 3131 3298 2873 
Q 3191 2616 2906 2266 
Q 2828 2175 2409 1742 
Q 1991 1309 1228 531 
z
" transform="scale(0.015625)"/>
       </defs>
       <use xlink:href="#DejaVuSans-32"/>
       <use xlink:href="#DejaVuSans-30" transform="translate(63.623047 0)"/>
      </g>
     </g>
    </g>
    <g id="xtick_3">
     <g id="line2d_3">
      <g>
       <use xlink:href="#m5a518fe258" x="236.056747" y="331.5575" style="stroke: #000000; stroke-width: 0.8"/>
      </g>
     </g>
     <g id="text_3">
      <!-- 40 -->
      <g transform="translate(227.149247 349.195312) scale(0.14 -0.14)">
       <defs>
        <path id="DejaVuSans-34" d="M 2419 4116 
L 825 1625 
L 2419 1625 
L 2419 4116 
z
M 2253 4666 
L 3047 4666 
L 3047 1625 
L 3713 1625 
L 3713 1100 
L 3047 1100 
L 3047 0 
L 2419 0 
L 2419 1100 
L 313 1100 
L 313 1709 
L 2253 4666 
z
" transform="scale(0.015625)"/>
       </defs>
       <use xlink:href="#DejaVuSans-34"/>
       <use xlink:href="#DejaVuSans-30" transform="translate(63.623047 0)"/>
      </g>
     </g>
    </g>
    <g id="xtick_4">
     <g id="line2d_4">
      <g>
       <use xlink:href="#m5a518fe258" x="319.925139" y="331.5575" style="stroke: #000000; stroke-width: 0.8"/>
      </g>
     </g>
     <g id="text_4">
      <!-- 60 -->
      <g transform="translate(311.017639 349.195312) scale(0.14 -0.14)">
       <defs>
        <path id="DejaVuSans-36" d="M 2113 2584 
Q 1688 2584 1439 2293 
Q 1191 2003 1191 1497 
Q 1191 994 1439 701 
Q 1688 409 2113 409 
Q 2538 409 2786 701 
Q 3034 994 3034 1497 
Q 3034 2003 2786 2293 
Q 2538 2584 2113 2584 
z
M 3366 4563 
L 3366 3988 
Q 3128 4100 2886 4159 
Q 2644 4219 2406 4219 
Q 1781 4219 1451 3797 
Q 1122 3375 1075 2522 
Q 1259 2794 1537 2939 
Q 1816 3084 2150 3084 
Q 2853 3084 3261 2657 
Q 3669 2231 3669 1497 
Q 3669 778 3244 343 
Q 2819 -91 2113 -91 
Q 1303 -91 875 529 
Q 447 1150 447 2328 
Q 447 3434 972 4092 
Q 1497 4750 2381 4750 
Q 2619 4750 2861 4703 
Q 3103 4656 3366 4563 
z
" transform="scale(0.015625)"/>
       </defs>
       <use xlink:href="#DejaVuSans-36"/>
       <use xlink:href="#DejaVuSans-30" transform="translate(63.623047 0)"/>
      </g>
     </g>
    </g>
    <g id="xtick_5">
     <g id="line2d_5">
      <g>
       <use xlink:href="#m5a518fe258" x="403.793531" y="331.5575" style="stroke: #000000; stroke-width: 0.8"/>
      </g>
     </g>
     <g id="text_5">
      <!-- 80 -->
      <g transform="translate(394.886031 349.195312) scale(0.14 -0.14)">
       <defs>
        <path id="DejaVuSans-38" d="M 2034 2216 
Q 1584 2216 1326 1975 
Q 1069 1734 1069 1313 
Q 1069 891 1326 650 
Q 1584 409 2034 409 
Q 2484 409 2743 651 
Q 3003 894 3003 1313 
Q 3003 1734 2745 1975 
Q 2488 2216 2034 2216 
z
M 1403 2484 
Q 997 2584 770 2862 
Q 544 3141 544 3541 
Q 544 4100 942 4425 
Q 1341 4750 2034 4750 
Q 2731 4750 3128 4425 
Q 3525 4100 3525 3541 
Q 3525 3141 3298 2862 
Q 3072 2584 2669 2484 
Q 3125 2378 3379 2068 
Q 3634 1759 3634 1313 
Q 3634 634 3220 271 
Q 2806 -91 2034 -91 
Q 1263 -91 848 271 
Q 434 634 434 1313 
Q 434 1759 690 2068 
Q 947 2378 1403 2484 
z
M 1172 3481 
Q 1172 3119 1398 2916 
Q 1625 2713 2034 2713 
Q 2441 2713 2670 2916 
Q 2900 3119 2900 3481 
Q 2900 3844 2670 4047 
Q 2441 4250 2034 4250 
Q 1625 4250 1398 4047 
Q 1172 3844 1172 3481 
z
" transform="scale(0.015625)"/>
       </defs>
       <use xlink:href="#DejaVuSans-38"/>
       <use xlink:href="#DejaVuSans-30" transform="translate(63.623047 0)"/>
      </g>
     </g>
    </g>
    <g id="text_6">
     <!-- Study Position -->
     <g transform="translate(181.369707 368.264375) scale(0.16 -0.16)">
      <defs>
       <path id="DejaVuSans-53" d="M 3425 4513 
L 3425 3897 
Q 3066 4069 2747 4153 
Q 2428 4238 2131 4238 
Q 1616 4238 1336 4038 
Q 1056 3838 1056 3469 
Q 1056 3159 1242 3001 
Q 1428 2844 1947 2747 
L 2328 2669 
Q 3034 2534 3370 2195 
Q 3706 1856 3706 1288 
Q 3706 609 3251 259 
Q 2797 -91 1919 -91 
Q 1588 -91 1214 -16 
Q 841 59 441 206 
L 441 856 
Q 825 641 1194 531 
Q 1563 422 1919 422 
Q 2459 422 2753 634 
Q 3047 847 3047 1241 
Q 3047 1584 2836 1778 
Q 2625 1972 2144 2069 
L 1759 2144 
Q 1053 2284 737 2584 
Q 422 2884 422 3419 
Q 422 4038 858 4394 
Q 1294 4750 2059 4750 
Q 2388 4750 2728 4690 
Q 3069 4631 3425 4513 
z
" transform="scale(0.015625)"/>
       <path id="DejaVuSans-74" d="M 1172 4494 
L 1172 3500 
L 2356 3500 
L 2356 3053 
L 1172 3053 
L 1172 1153 
Q 1172 725 1289 603 
Q 1406 481 1766 481 
L 2356 481 
L 2356 0 
L 1766 0 
Q 1100 0 847 248 
Q 594 497 594 1153 
L 594 3053 
L 172 3053 
L 172 3500 
L 594 3500 
L 594 4494 
L 1172 4494 
z
" transform="scale(0.015625)"/>
       <path id="DejaVuSans-75" d="M 544 1381 
L 544 3500 
L 1119 3500 
L 1119 1403 
Q 1119 906 1312 657 
Q 1506 409 1894 409 
Q 2359 409 2629 706 
Q 2900 1003 2900 1516 
L 2900 3500 
L 3475 3500 
L 3475 0 
L 2900 0 
L 2900 538 
Q 2691 219 2414 64 
Q 2138 -91 1772 -91 
Q 1169 -91 856 284 
Q 544 659 544 1381 
z
M 1991 3584 
L 1991 3584 
z
" transform="scale(0.015625)"/>
       <path id="DejaVuSans-64" d="M 2906 2969 
L 2906 4863 
L 3481 4863 
L 3481 0 
L 2906 0 
L 2906 525 
Q 2725 213 2448 61 
Q 2172 -91 1784 -91 
Q 1150 -91 751 415 
Q 353 922 353 1747 
Q 353 2572 751 3078 
Q 1150 3584 1784 3584 
Q 2172 3584 2448 3432 
Q 2725 3281 2906 2969 
z
M 947 1747 
Q 947 1113 1208 752 
Q 1469 391 1925 391 
Q 2381 391 2643 752 
Q 2906 1113 2906 1747 
Q 2906 2381 2643 2742 
Q 2381 3103 1925 3103 
Q 1469 3103 1208 2742 
Q 947 2381 947 1747 
z
" transform="scale(0.015625)"/>
       <path id="DejaVuSans-79" d="M 2059 -325 
Q 1816 -950 1584 -1140 
Q 1353 -1331 966 -1331 
L 506 -1331 
L 506 -850 
L 844 -850 
Q 1081 -850 1212 -737 
Q 1344 -625 1503 -206 
L 1606 56 
L 191 3500 
L 800 3500 
L 1894 763 
L 2988 3500 
L 3597 3500 
L 2059 -325 
z
" transform="scale(0.015625)"/>
       <path id="DejaVuSans-20" transform="scale(0.015625)"/>
       <path id="DejaVuSans-50" d="M 1259 4147 
L 1259 2394 
L 2053 2394 
Q 2494 2394 2734 2622 
Q 2975 2850 2975 3272 
Q 2975 3691 2734 3919 
Q 2494 4147 2053 4147 
L 1259 4147 
z
M 628 4666 
L 2053 4666 
Q 2838 4666 3239 4311 
Q 3641 3956 3641 3272 
Q 3641 2581 3239 2228 
Q 2838 1875 2053 1875 
L 1259 1875 
L 1259 0 
L 628 0 
L 628 4666 
z
" transform="scale(0.015625)"/>
       <path id="DejaVuSans-6f" d="M 1959 3097 
Q 1497 3097 1228 2736 
Q 959 2375 959 1747 
Q 959 1119 1226 758 
Q 1494 397 1959 397 
Q 2419 397 2687 759 
Q 2956 1122 2956 1747 
Q 2956 2369 2687 2733 
Q 2419 3097 1959 3097 
z
M 1959 3584 
Q 2709 3584 3137 3096 
Q 3566 2609 3566 1747 
Q 3566 888 3137 398 
Q 2709 -91 1959 -91 
Q 1206 -91 779 398 
Q 353 888 353 1747 
Q 353 2609 779 3096 
Q 1206 3584 1959 3584 
z
" transform="scale(0.015625)"/>
       <path id="DejaVuSans-73" d="M 2834 3397 
L 2834 2853 
Q 2591 2978 2328 3040 
Q 2066 3103 1784 3103 
Q 1356 3103 1142 2972 
Q 928 2841 928 2578 
Q 928 2378 1081 2264 
Q 1234 2150 1697 2047 
L 1894 2003 
Q 2506 1872 2764 1633 
Q 3022 1394 3022 966 
Q 3022 478 2636 193 
Q 2250 -91 1575 -91 
Q 1294 -91 989 -36 
Q 684 19 347 128 
L 347 722 
Q 666 556 975 473 
Q 1284 391 1588 391 
Q 1994 391 2212 530 
Q 2431 669 2431 922 
Q 2431 1156 2273 1281 
Q 2116 1406 1581 1522 
L 1381 1569 
Q 847 1681 609 1914 
Q 372 2147 372 2553 
Q 372 3047 722 3315 
Q 1072 3584 1716 3584 
Q 2034 3584 2315 3537 
Q 2597 3491 2834 3397 
z
" transform="scale(0.015625)"/>
       <path id="DejaVuSans-69" d="M 603 3500 
L 1178 3500 
L 1178 0 
L 603 0 
L 603 3500 
z
M 603 4863 
L 1178 4863 
L 1178 4134 
L 603 4134 
L 603 4863 
z
" transform="scale(0.015625)"/>
       <path id="DejaVuSans-6e" d="M 3513 2113 
L 3513 0 
L 2938 0 
L 2938 2094 
Q 2938 2591 2744 2837 
Q 2550 3084 2163 3084 
Q 1697 3084 1428 2787 
Q 1159 2491 1159 1978 
L 1159 0 
L 581 0 
L 581 3500 
L 1159 3500 
L 1159 2956 
Q 1366 3272 1645 3428 
Q 1925 3584 2291 3584 
Q 2894 3584 3203 3211 
Q 3513 2838 3513 2113 
z
" transform="scale(0.015625)"/>
      </defs>
      <use xlink:href="#DejaVuSans-53"/>
      <use xlink:href="#DejaVuSans-74" transform="translate(63.476562 0)"/>
      <use xlink:href="#DejaVuSans-75" transform="translate(102.685547 0)"/>
      <use xlink:href="#DejaVuSans-64" transform="translate(166.064453 0)"/>
      <use xlink:href="#DejaVuSans-79" transform="translate(229.541016 0)"/>
      <use xlink:href="#DejaVuSans-20" transform="translate(288.720703 0)"/>
      <use xlink:href="#DejaVuSans-50" transform="translate(320.507812 0)"/>
      <use xlink:href="#DejaVuSans-6f" transform="translate(377.185547 0)"/>
      <use xlink:href="#DejaVuSans-73" transform="translate(438.367188 0)"/>
      <use xlink:href="#DejaVuSans-69" transform="translate(490.466797 0)"/>
      <use xlink:href="#DejaVuSans-74" transform="translate(518.25 0)"/>
      <use xlink:href="#DejaVuSans-69" transform="translate(557.458984 0)"/>
      <use xlink:href="#DejaVuSans-6f" transform="translate(585.242188 0)"/>
      <use xlink:href="#DejaVuSans-6e" transform="translate(646.423828 0)"/>
     </g>
    </g>
   </g>
   <g id="matplotlib.axis_2">
    <g id="ytick_1">
     <g id="line2d_6">
      <path d="M 55.949375 317.591758 
L 420.357538 317.591758 
" clip-path="url(#p0504417766)" style="fill: none; stroke-dasharray: 1.85,0.8; stroke-dashoffset: 0; stroke: #b0b0b0; stroke-opacity: 0.3; stroke-width: 0.5"/>
     </g>
     <g id="line2d_7">
      <defs>
       <path id="m0948686497" d="M 0 0 
L -3.5 0 
" style="stroke: #000000; stroke-width: 0.8"/>
      </defs>
      <g>
       <use xlink:href="#m0948686497" x="55.949375" y="317.591758" style="stroke: #000000; stroke-width: 0.8"/>
      </g>
     </g>
     <g id="text_7">
      <!-- 0.1 -->
      <g transform="translate(26.685 322.910664) scale(0.14 -0.14)">
       <defs>
        <path id="DejaVuSans-2e" d="M 684 794 
L 1344 794 
L 1344 0 
L 684 0 
L 684 794 
z
" transform="scale(0.015625)"/>
        <path id="DejaVuSans-31" d="M 794 531 
L 1825 531 
L 1825 4091 
L 703 3866 
L 703 4441 
L 1819 4666 
L 2450 4666 
L 2450 531 
L 3481 531 
L 3481 0 
L 794 0 
L 794 531 
z
" transform="scale(0.015625)"/>
       </defs>
       <use xlink:href="#DejaVuSans-30"/>
       <use xlink:href="#DejaVuSans-2e" transform="translate(63.623047 0)"/>
       <use xlink:href="#DejaVuSans-31" transform="translate(95.410156 0)"/>
      </g>
     </g>
    </g>
    <g id="ytick_2">
     <g id="line2d_8">
      <path d="M 55.949375 265.445261 
L 420.357538 265.445261 
" clip-path="url(#p0504417766)" style="fill: none; stroke-dasharray: 1.85,0.8; stroke-dashoffset: 0; stroke: #b0b0b0; stroke-opacity: 0.3; stroke-width: 0.5"/>
     </g>
     <g id="line2d_9">
      <g>
       <use xlink:href="#m0948686497" x="55.949375" y="265.445261" style="stroke: #000000; stroke-width: 0.8"/>
      </g>
     </g>
     <g id="text_8">
      <!-- 0.2 -->
      <g transform="translate(26.685 270.764167) scale(0.14 -0.14)">
       <use xlink:href="#DejaVuSans-30"/>
       <use xlink:href="#DejaVuSans-2e" transform="translate(63.623047 0)"/>
       <use xlink:href="#DejaVuSans-32" transform="translate(95.410156 0)"/>
      </g>
     </g>
    </g>
    <g id="ytick_3">
     <g id="line2d_10">
      <path d="M 55.949375 213.298764 
L 420.357538 213.298764 
" clip-path="url(#p0504417766)" style="fill: none; stroke-dasharray: 1.85,0.8; stroke-dashoffset: 0; stroke: #b0b0b0; stroke-opacity: 0.3; stroke-width: 0.5"/>
     </g>
     <g id="line2d_11">
      <g>
       <use xlink:href="#m0948686497" x="55.949375" y="213.298764" style="stroke: #000000; stroke-width: 0.8"/>
      </g>
     </g>
     <g id="text_9">
      <!-- 0.3 -->
      <g transform="translate(26.685 218.617671) scale(0.14 -0.14)">
       <defs>
        <path id="DejaVuSans-33" d="M 2597 2516 
Q 3050 2419 3304 2112 
Q 3559 1806 3559 1356 
Q 3559 666 3084 287 
Q 2609 -91 1734 -91 
Q 1441 -91 1130 -33 
Q 819 25 488 141 
L 488 750 
Q 750 597 1062 519 
Q 1375 441 1716 441 
Q 2309 441 2620 675 
Q 2931 909 2931 1356 
Q 2931 1769 2642 2001 
Q 2353 2234 1838 2234 
L 1294 2234 
L 1294 2753 
L 1863 2753 
Q 2328 2753 2575 2939 
Q 2822 3125 2822 3475 
Q 2822 3834 2567 4026 
Q 2313 4219 1838 4219 
Q 1578 4219 1281 4162 
Q 984 4106 628 3988 
L 628 4550 
Q 988 4650 1302 4700 
Q 1616 4750 1894 4750 
Q 2613 4750 3031 4423 
Q 3450 4097 3450 3541 
Q 3450 3153 3228 2886 
Q 3006 2619 2597 2516 
z
" transform="scale(0.015625)"/>
       </defs>
       <use xlink:href="#DejaVuSans-30"/>
       <use xlink:href="#DejaVuSans-2e" transform="translate(63.623047 0)"/>
       <use xlink:href="#DejaVuSans-33" transform="translate(95.410156 0)"/>
      </g>
     </g>
    </g>
    <g id="ytick_4">
     <g id="line2d_12">
      <path d="M 55.949375 161.152268 
L 420.357538 161.152268 
" clip-path="url(#p0504417766)" style="fill: none; stroke-dasharray: 1.85,0.8; stroke-dashoffset: 0; stroke: #b0b0b0; stroke-opacity: 0.3; stroke-width: 0.5"/>
     </g>
     <g id="line2d_13">
      <g>
       <use xlink:href="#m0948686497" x="55.949375" y="161.152268" style="stroke: #000000; stroke-width: 0.8"/>
      </g>
     </g>
     <g id="text_10">
      <!-- 0.4 -->
      <g transform="translate(26.685 166.471174) scale(0.14 -0.14)">
       <use xlink:href="#DejaVuSans-30"/>
       <use xlink:href="#DejaVuSans-2e" transform="translate(63.623047 0)"/>
       <use xlink:href="#DejaVuSans-34" transform="translate(95.410156 0)"/>
      </g>
     </g>
    </g>
    <g id="ytick_5">
     <g id="line2d_14">
      <path d="M 55.949375 109.005771 
L 420.357538 109.005771 
" clip-path="url(#p0504417766)" style="fill: none; stroke-dasharray: 1.85,0.8; stroke-dashoffset: 0; stroke: #b0b0b0; stroke-opacity: 0.3; stroke-width: 0.5"/>
     </g>
     <g id="line2d_15">
      <g>
       <use xlink:href="#m0948686497" x="55.949375" y="109.005771" style="stroke: #000000; stroke-width: 0.8"/>
      </g>
     </g>
     <g id="text_11">
      <!-- 0.5 -->
      <g transform="translate(26.685 114.324677) scale(0.14 -0.14)">
       <defs>
        <path id="DejaVuSans-35" d="M 691 4666 
L 3169 4666 
L 3169 4134 
L 1269 4134 
L 1269 2991 
Q 1406 3038 1543 3061 
Q 1681 3084 1819 3084 
Q 2600 3084 3056 2656 
Q 3513 2228 3513 1497 
Q 3513 744 3044 326 
Q 2575 -91 1722 -91 
Q 1428 -91 1123 -41 
Q 819 9 494 109 
L 494 744 
Q 775 591 1075 516 
Q 1375 441 1709 441 
Q 2250 441 2565 725 
Q 2881 1009 2881 1497 
Q 2881 1984 2565 2268 
Q 2250 2553 1709 2553 
Q 1456 2553 1204 2497 
Q 953 2441 691 2322 
L 691 4666 
z
" transform="scale(0.015625)"/>
       </defs>
       <use xlink:href="#DejaVuSans-30"/>
       <use xlink:href="#DejaVuSans-2e" transform="translate(63.623047 0)"/>
       <use xlink:href="#DejaVuSans-35" transform="translate(95.410156 0)"/>
      </g>
     </g>
    </g>
    <g id="ytick_6">
     <g id="line2d_16">
      <path d="M 55.949375 56.859275 
L 420.357538 56.859275 
" clip-path="url(#p0504417766)" style="fill: none; stroke-dasharray: 1.85,0.8; stroke-dashoffset: 0; stroke: #b0b0b0; stroke-opacity: 0.3; stroke-width: 0.5"/>
     </g>
     <g id="line2d_17">
      <g>
       <use xlink:href="#m0948686497" x="55.949375" y="56.859275" style="stroke: #000000; stroke-width: 0.8"/>
      </g>
     </g>
     <g id="text_12">
      <!-- 0.6 -->
      <g transform="translate(26.685 62.178181) scale(0.14 -0.14)">
       <use xlink:href="#DejaVuSans-30"/>
       <use xlink:href="#DejaVuSans-2e" transform="translate(63.623047 0)"/>
       <use xlink:href="#DejaVuSans-36" transform="translate(95.410156 0)"/>
      </g>
     </g>
    </g>
    <g id="text_13">
     <!-- Recall Probability -->
     <g transform="translate(19.3575 261.65375) rotate(-90) scale(0.16 -0.16)">
      <defs>
       <path id="DejaVuSans-52" d="M 2841 2188 
Q 3044 2119 3236 1894 
Q 3428 1669 3622 1275 
L 4263 0 
L 3584 0 
L 2988 1197 
Q 2756 1666 2539 1819 
Q 2322 1972 1947 1972 
L 1259 1972 
L 1259 0 
L 628 0 
L 628 4666 
L 2053 4666 
Q 2853 4666 3247 4331 
Q 3641 3997 3641 3322 
Q 3641 2881 3436 2590 
Q 3231 2300 2841 2188 
z
M 1259 4147 
L 1259 2491 
L 2053 2491 
Q 2509 2491 2742 2702 
Q 2975 2913 2975 3322 
Q 2975 3731 2742 3939 
Q 2509 4147 2053 4147 
L 1259 4147 
z
" transform="scale(0.015625)"/>
       <path id="DejaVuSans-65" d="M 3597 1894 
L 3597 1613 
L 953 1613 
Q 991 1019 1311 708 
Q 1631 397 2203 397 
Q 2534 397 2845 478 
Q 3156 559 3463 722 
L 3463 178 
Q 3153 47 2828 -22 
Q 2503 -91 2169 -91 
Q 1331 -91 842 396 
Q 353 884 353 1716 
Q 353 2575 817 3079 
Q 1281 3584 2069 3584 
Q 2775 3584 3186 3129 
Q 3597 2675 3597 1894 
z
M 3022 2063 
Q 3016 2534 2758 2815 
Q 2500 3097 2075 3097 
Q 1594 3097 1305 2825 
Q 1016 2553 972 2059 
L 3022 2063 
z
" transform="scale(0.015625)"/>
       <path id="DejaVuSans-63" d="M 3122 3366 
L 3122 2828 
Q 2878 2963 2633 3030 
Q 2388 3097 2138 3097 
Q 1578 3097 1268 2742 
Q 959 2388 959 1747 
Q 959 1106 1268 751 
Q 1578 397 2138 397 
Q 2388 397 2633 464 
Q 2878 531 3122 666 
L 3122 134 
Q 2881 22 2623 -34 
Q 2366 -91 2075 -91 
Q 1284 -91 818 406 
Q 353 903 353 1747 
Q 353 2603 823 3093 
Q 1294 3584 2113 3584 
Q 2378 3584 2631 3529 
Q 2884 3475 3122 3366 
z
" transform="scale(0.015625)"/>
       <path id="DejaVuSans-61" d="M 2194 1759 
Q 1497 1759 1228 1600 
Q 959 1441 959 1056 
Q 959 750 1161 570 
Q 1363 391 1709 391 
Q 2188 391 2477 730 
Q 2766 1069 2766 1631 
L 2766 1759 
L 2194 1759 
z
M 3341 1997 
L 3341 0 
L 2766 0 
L 2766 531 
Q 2569 213 2275 61 
Q 1981 -91 1556 -91 
Q 1019 -91 701 211 
Q 384 513 384 1019 
Q 384 1609 779 1909 
Q 1175 2209 1959 2209 
L 2766 2209 
L 2766 2266 
Q 2766 2663 2505 2880 
Q 2244 3097 1772 3097 
Q 1472 3097 1187 3025 
Q 903 2953 641 2809 
L 641 3341 
Q 956 3463 1253 3523 
Q 1550 3584 1831 3584 
Q 2591 3584 2966 3190 
Q 3341 2797 3341 1997 
z
" transform="scale(0.015625)"/>
       <path id="DejaVuSans-6c" d="M 603 4863 
L 1178 4863 
L 1178 0 
L 603 0 
L 603 4863 
z
" transform="scale(0.015625)"/>
       <path id="DejaVuSans-72" d="M 2631 2963 
Q 2534 3019 2420 3045 
Q 2306 3072 2169 3072 
Q 1681 3072 1420 2755 
Q 1159 2438 1159 1844 
L 1159 0 
L 581 0 
L 581 3500 
L 1159 3500 
L 1159 2956 
Q 1341 3275 1631 3429 
Q 1922 3584 2338 3584 
Q 2397 3584 2469 3576 
Q 2541 3569 2628 3553 
L 2631 2963 
z
" transform="scale(0.015625)"/>
       <path id="DejaVuSans-62" d="M 3116 1747 
Q 3116 2381 2855 2742 
Q 2594 3103 2138 3103 
Q 1681 3103 1420 2742 
Q 1159 2381 1159 1747 
Q 1159 1113 1420 752 
Q 1681 391 2138 391 
Q 2594 391 2855 752 
Q 3116 1113 3116 1747 
z
M 1159 2969 
Q 1341 3281 1617 3432 
Q 1894 3584 2278 3584 
Q 2916 3584 3314 3078 
Q 3713 2572 3713 1747 
Q 3713 922 3314 415 
Q 2916 -91 2278 -91 
Q 1894 -91 1617 61 
Q 1341 213 1159 525 
L 1159 0 
L 581 0 
L 581 4863 
L 1159 4863 
L 1159 2969 
z
" transform="scale(0.015625)"/>
      </defs>
      <use xlink:href="#DejaVuSans-52"/>
      <use xlink:href="#DejaVuSans-65" transform="translate(64.982422 0)"/>
      <use xlink:href="#DejaVuSans-63" transform="translate(126.505859 0)"/>
      <use xlink:href="#DejaVuSans-61" transform="translate(181.486328 0)"/>
      <use xlink:href="#DejaVuSans-6c" transform="translate(242.765625 0)"/>
      <use xlink:href="#DejaVuSans-6c" transform="translate(270.548828 0)"/>
      <use xlink:href="#DejaVuSans-20" transform="translate(298.332031 0)"/>
      <use xlink:href="#DejaVuSans-50" transform="translate(330.119141 0)"/>
      <use xlink:href="#DejaVuSans-72" transform="translate(388.671875 0)"/>
      <use xlink:href="#DejaVuSans-6f" transform="translate(427.535156 0)"/>
      <use xlink:href="#DejaVuSans-62" transform="translate(488.716797 0)"/>
      <use xlink:href="#DejaVuSans-61" transform="translate(552.193359 0)"/>
      <use xlink:href="#DejaVuSans-62" transform="translate(613.472656 0)"/>
      <use xlink:href="#DejaVuSans-69" transform="translate(676.949219 0)"/>
      <use xlink:href="#DejaVuSans-6c" transform="translate(704.732422 0)"/>
      <use xlink:href="#DejaVuSans-69" transform="translate(732.515625 0)"/>
      <use xlink:href="#DejaVuSans-74" transform="translate(760.298828 0)"/>
      <use xlink:href="#DejaVuSans-79" transform="translate(799.507812 0)"/>
     </g>
    </g>
   </g>
   <g id="line2d_18">
    <path d="M 72.513382 207.711646 
L 76.706802 240.861916 
L 80.900222 255.264282 
L 85.093641 266.148826 
L 89.287061 272.605061 
L 93.48048 278.771592 
L 97.6739 280.592577 
L 101.86732 277.654165 
L 106.060739 276.412582 
L 110.254159 280.592577 
L 114.447578 277.778321 
L 118.640998 276.619508 
L 122.834418 277.778321 
L 127.027837 274.426047 
L 131.221257 277.033369 
L 135.414676 276.495352 
L 139.608096 283.489605 
L 143.801516 288.455938 
L 147.994935 291.684055 
L 152.188355 287.793757 
L 156.381774 289.242274 
L 160.575194 289.61475 
L 164.768614 292.429007 
L 168.962033 288.828413 
L 173.155453 291.725441 
L 177.348872 289.490586 
L 181.542292 290.773563 
L 185.735712 291.352965 
L 189.929131 287.835142 
L 194.122551 289.573365 
L 198.31597 292.842868 
L 202.50939 290.401087 
L 206.70281 175.802951 
L 210.896229 174.519975 
L 215.089649 172.16098 
L 219.283068 168.601764 
L 223.476488 165.953056 
L 227.669908 167.153246 
L 231.863327 173.278399 
L 236.056747 176.29959 
L 240.250166 175.596024 
L 244.443586 179.320766 
M 340.892237 259.3615 
L 345.085656 271.529019 
L 349.279076 277.11614 
L 353.472496 278.564657 
L 357.665915 282.330792 
L 361.859335 281.75139 
L 366.052754 280.882283 
L 370.246174 279.14406 
L 374.439594 277.44723 
L 378.633013 277.861091 
L 382.826433 271.239314 
L 387.019852 267.80427 
L 391.213272 253.981306 
L 395.406692 234.115983 
L 399.600111 179.651864 
L 403.793531 66.9575 
" clip-path="url(#p0504417766)" style="fill: none; stroke: #bfbfbf; stroke-width: 1.5; stroke-linecap: square"/>
   </g>
   <g id="line2d_19">
    <path d="M 72.513382 211.477773 
L 76.706802 248.435571 
L 80.900222 263.872586 
L 85.093641 277.281689 
L 89.287061 279.019904 
L 93.48048 282.248022 
L 97.6739 281.627226 
L 101.86732 286.386632 
L 106.060739 282.786039 
L 110.254159 284.813959 
L 114.447578 286.055542 
L 118.640998 286.138313 
L 122.834418 280.840897 
L 127.027837 284.027622 
L 131.221257 282.454948 
L 135.414676 284.151786 
L 139.608096 292.304843 
L 143.801516 291.932367 
L 147.994935 292.304843 
L 152.188355 292.925639 
L 156.381774 291.932367 
L 160.575194 292.842868 
L 164.768614 295.160485 
L 168.962033 296.857315 
L 173.155453 296.857315 
L 177.348872 290.939104 
L 181.542292 294.125836 
L 185.735712 290.897719 
L 189.929131 291.39435 
L 194.122551 295.036329 
L 198.31597 294.870788 
L 202.50939 295.657117 
L 206.70281 187.473831 
L 210.896229 185.321748 
L 215.089649 182.755811 
L 219.283068 183.335221 
L 223.476488 180.065718 
L 227.669908 179.403537 
L 231.863327 181.058981 
L 236.056747 178.989683 
L 240.250166 186.604724 
L 244.443586 187.8877 
L 248.637006 190.660564 
L 252.830425 191.239974 
M 340.892237 266.066055 
L 345.085656 276.950599 
L 349.279076 285.103664 
L 353.472496 288.249003 
L 357.665915 288.952569 
L 361.859335 289.531979 
L 366.052754 286.924649 
L 370.246174 287.090198 
L 374.439594 285.186434 
L 378.633013 283.1999 
L 382.826433 277.198918 
L 387.019852 271.694561 
L 391.213272 263.044864 
L 395.406692 235.730042 
L 399.600111 189.750071 
L 403.793531 67.412723 
" clip-path="url(#p0504417766)" style="fill: none; stroke: #b0b0b0; stroke-width: 1.5; stroke-linecap: square"/>
   </g>
   <g id="line2d_20">
    <path d="M 72.513382 218.223706 
L 76.706802 254.560716 
L 80.900222 266.562687 
L 85.093641 276.991984 
L 89.287061 282.951588 
L 93.48048 285.972771 
L 97.6739 283.53099 
L 101.86732 287.25574 
L 106.060739 289.697521 
L 110.254159 288.497323 
L 114.447578 288.662864 
L 118.640998 288.993955 
L 122.834418 290.856333 
L 127.027837 284.482868 
L 131.221257 289.118118 
L 135.414676 289.03534 
L 139.608096 291.39435 
L 143.801516 293.877517 
L 147.994935 298.843849 
L 152.188355 297.105634 
L 156.381774 298.429988 
L 160.575194 296.402068 
L 164.768614 296.443454 
L 168.962033 296.774544 
L 173.155453 298.264447 
L 177.348872 299.464645 
L 181.542292 297.022864 
L 185.735712 296.526232 
L 189.929131 298.968005 
L 194.122551 298.305832 
L 198.31597 298.140283 
L 202.50939 298.885235 
L 206.70281 202.083132 
L 210.896229 198.027292 
L 215.089649 195.213028 
L 219.283068 192.647091 
L 223.476488 192.895418 
L 227.669908 190.20531 
L 231.863327 195.833823 
L 236.056747 191.405515 
L 240.250166 193.598984 
L 244.443586 195.916594 
L 248.637006 197.282341 
L 252.830425 200.965697 
L 257.023845 203.324708 
L 261.217264 204.400757 
M 340.892237 272.025651 
L 345.085656 284.772573 
L 349.279076 289.076725 
L 353.472496 290.649399 
L 357.665915 289.697521 
L 361.859335 289.821677 
L 366.052754 288.828413 
L 370.246174 288.331782 
L 374.439594 285.269205 
L 378.633013 283.696532 
L 382.826433 280.468421 
L 387.019852 279.889011 
L 391.213272 266.02467 
L 395.406692 242.848443 
L 399.600111 193.681755 
L 403.793531 76.683223 
" clip-path="url(#p0504417766)" style="fill: none; stroke: #a1a1a1; stroke-width: 1.5; stroke-linecap: square"/>
   </g>
   <g id="line2d_21">
    <path d="M 72.513382 222.114004 
L 76.706802 256.298931 
L 80.900222 276.453967 
L 85.093641 282.496341 
L 89.287061 289.03534 
L 93.48048 289.28366 
L 97.6739 292.760089 
L 101.86732 290.856333 
L 106.060739 294.249992 
L 110.254159 294.332763 
L 114.447578 293.753361 
L 118.640998 291.021875 
L 122.834418 295.905437 
L 127.027837 291.932367 
L 131.221257 290.069996 
L 135.414676 293.463656 
L 139.608096 297.022864 
L 143.801516 301.53395 
L 147.994935 301.078704 
L 152.188355 300.416523 
L 156.381774 303.56187 
L 160.575194 303.892953 
L 164.768614 302.278894 
L 168.962033 301.575335 
L 173.155453 302.071967 
L 177.348872 301.037311 
L 181.542292 299.671572 
L 185.735712 301.575335 
L 189.929131 301.327016 
L 194.122551 304.513748 
L 198.31597 303.851567 
L 202.50939 302.196123 
L 206.70281 211.519158 
L 210.896229 206.428669 
L 215.089649 203.986888 
L 219.283068 204.607684 
L 223.476488 205.973431 
L 227.669908 202.4556 
L 231.863327 201.669263 
L 236.056747 199.972434 
L 240.250166 203.738576 
L 244.443586 203.407478 
L 248.637006 202.993625 
L 252.830425 206.014816 
L 257.023845 208.125499 
L 261.217264 211.519158 
L 265.410684 213.381544 
L 269.604104 221.286282 
M 340.892237 277.198918 
L 345.085656 288.662864 
L 349.279076 291.31158 
L 353.472496 294.994944 
L 357.665915 294.001673 
L 361.859335 294.622468 
L 366.052754 295.36742 
L 370.246174 291.021875 
L 374.439594 290.359702 
L 378.633013 290.483858 
L 382.826433 285.848615 
L 387.019852 280.302872 
L 391.213272 270.991002 
L 395.406692 246.904283 
L 399.600111 195.254428 
L 403.793531 78.421438 
" clip-path="url(#p0504417766)" style="fill: none; stroke: #929292; stroke-width: 1.5; stroke-linecap: square"/>
   </g>
   <g id="line2d_22">
    <path d="M 72.513382 227.659747 
L 76.706802 262.589617 
L 80.900222 275.046835 
L 85.093641 287.545445 
L 89.287061 291.021875 
L 93.48048 297.271176 
L 97.6739 297.271176 
L 101.86732 297.643652 
L 106.060739 297.47811 
L 110.254159 297.519496 
L 114.447578 295.036329 
L 118.640998 295.739895 
L 122.834418 296.484839 
L 127.027837 293.877517 
L 131.221257 294.705239 
L 135.414676 298.305832 
L 139.608096 299.837121 
L 143.801516 302.196123 
L 147.994935 302.609984 
L 152.188355 305.962262 
L 156.381774 306.086418 
L 160.575194 306.955529 
L 164.768614 306.70721 
L 168.962033 304.472363 
L 173.155453 302.941075 
L 177.348872 304.348199 
L 181.542292 305.755331 
L 185.735712 305.34147 
L 189.929131 306.086418 
L 194.122551 305.258696 
L 198.31597 305.300085 
L 202.50939 299.671572 
L 206.70281 218.927272 
L 210.896229 215.450842 
L 215.089649 214.747276 
L 219.283068 215.078374 
L 223.476488 214.747276 
L 227.669908 212.92629 
L 231.863327 209.449861 
L 236.056747 214.581735 
L 240.250166 210.691436 
L 244.443586 209.822328 
L 248.637006 209.615402 
L 252.830425 211.726085 
L 257.023845 212.429651 
L 261.217264 211.188075 
L 265.410684 217.809852 
L 269.604104 219.548067 
L 273.797523 220.417175 
L 277.990943 222.196775 
M 340.892237 283.903466 
L 345.085656 289.490586 
L 349.279076 293.505041 
L 353.472496 297.188405 
L 357.665915 299.50603 
L 361.859335 296.402068 
L 366.052754 299.133554 
L 370.246174 298.057513 
L 374.439594 294.746624 
L 378.633013 292.139302 
L 382.826433 288.662864 
L 387.019852 285.020893 
L 391.213272 273.929415 
L 395.406692 253.277748 
L 399.600111 197.944521 
L 403.793531 80.739048 
" clip-path="url(#p0504417766)" style="fill: none; stroke: #828282; stroke-width: 1.5; stroke-linecap: square"/>
   </g>
   <g id="line2d_23">
    <path d="M 72.513382 229.604889 
L 76.706802 265.77635 
L 80.900222 280.799504 
L 85.093641 290.401087 
L 89.287061 293.794746 
L 93.48048 299.754342 
L 97.6739 296.8987 
L 101.86732 299.630186 
L 106.060739 296.815929 
L 110.254159 301.947811 
L 114.447578 297.353954 
L 118.640998 296.691773 
L 122.834418 298.181676 
L 127.027837 300.499294 
L 131.221257 300.168203 
L 135.414676 301.823647 
L 139.608096 301.782262 
L 143.801516 306.334738 
L 147.994935 306.70721 
L 152.188355 306.872755 
L 156.381774 306.334738 
L 160.575194 304.968995 
L 164.768614 307.534932 
L 168.962033 305.879487 
L 173.155453 308.114338 
L 177.348872 304.099887 
L 181.542292 303.686026 
L 185.735712 307.617706 
L 189.929131 304.844835 
L 194.122551 308.486814 
L 198.31597 306.748599 
L 202.50939 305.672557 
L 206.70281 231.384489 
L 210.896229 226.707869 
L 215.089649 225.838762 
L 219.283068 223.355595 
L 223.476488 222.81757 
L 227.669908 214.664505 
L 231.863327 222.072619 
L 236.056747 219.713609 
L 240.250166 219.092813 
L 244.443586 219.837765 
L 248.637006 222.072619 
L 252.830425 218.389263 
L 257.023845 223.852219 
L 261.217264 223.562522 
L 265.410684 222.445087 
L 269.604104 227.908059 
L 273.797523 231.46726 
L 277.990943 229.480733 
L 282.184362 235.730042 
L 286.377782 236.723305 
M 340.892237 289.242274 
L 345.085656 294.953559 
L 349.279076 300.664843 
L 353.472496 298.802464 
L 357.665915 301.699491 
L 361.859335 299.671572 
L 366.052754 301.823647 
L 370.246174 299.712957 
L 374.439594 296.609003 
L 378.633013 293.877517 
L 382.826433 291.725441 
L 387.019852 286.883264 
L 391.213272 276.371196 
L 395.406692 254.271011 
L 399.600111 201.917591 
L 403.793531 81.277072 
" clip-path="url(#p0504417766)" style="fill: none; stroke: #737373; stroke-width: 1.5; stroke-linecap: square"/>
   </g>
   <g id="line2d_24">
    <path d="M 72.513382 233.453802 
L 76.706802 267.55595 
L 80.900222 283.53099 
L 85.093641 292.222072 
L 89.287061 296.029593 
L 93.48048 302.899689 
L 97.6739 304.182658 
L 101.86732 302.278894 
L 106.060739 302.154738 
L 110.254159 300.044047 
L 114.447578 304.927609 
L 118.640998 302.692755 
L 122.834418 303.065231 
L 127.027837 299.381866 
L 131.221257 297.064249 
L 135.414676 302.609984 
L 139.608096 306.748599 
L 143.801516 308.072953 
L 147.994935 309.314536 
L 152.188355 309.438696 
L 156.381774 307.36939 
L 160.575194 310.100873 
L 164.768614 306.624439 
L 168.962033 309.562852 
L 173.155453 310.349188 
L 177.348872 306.210578 
L 181.542292 308.528199 
L 185.735712 310.225029 
L 189.929131 309.480081 
L 194.122551 310.763049 
L 198.31597 308.776515 
L 202.50939 310.680279 
L 206.70281 235.150632 
L 210.896229 233.743499 
L 215.089649 229.977372 
L 219.283068 228.487469 
L 223.476488 227.163108 
L 227.669908 228.942708 
L 231.863327 225.217966 
L 236.056747 225.962918 
L 240.250166 227.701132 
L 244.443586 232.12944 
L 248.637006 229.729045 
L 252.830425 229.356577 
L 257.023845 230.184299 
L 261.217264 233.577958 
L 265.410684 232.377768 
L 269.604104 232.915777 
L 273.797523 235.523099 
L 277.990943 238.378749 
L 282.184362 239.454783 
L 286.377782 241.358547 
L 290.571202 239.951415 
L 294.764621 250.587647 
M 340.892237 291.435736 
L 345.085656 300.126818 
L 349.279076 300.499294 
L 353.472496 300.126818 
L 357.665915 302.734148 
L 361.859335 301.823647 
L 366.052754 297.809201 
L 370.246174 301.20286 
L 374.439594 300.871769 
L 378.633013 298.388603 
L 382.826433 294.539697 
L 387.019852 286.841879 
L 391.213272 278.688813 
L 395.406692 253.898535 
L 399.600111 202.745313 
L 403.793531 86.491717 
" clip-path="url(#p0504417766)" style="fill: none; stroke: #646464; stroke-width: 1.5; stroke-linecap: square"/>
   </g>
   <g id="line2d_25">
    <path d="M 72.513382 237.716569 
L 76.706802 270.949617 
L 80.900222 285.393369 
L 85.093641 296.153756 
L 89.287061 297.602266 
L 93.48048 303.810182 
L 97.6739 301.327016 
L 101.86732 304.720679 
L 106.060739 306.541668 
L 110.254159 304.265428 
L 114.447578 302.609984 
L 118.640998 303.851567 
L 122.834418 302.444443 
L 127.027837 303.644641 
L 131.221257 303.396321 
L 135.414676 303.023845 
L 139.608096 308.197112 
L 143.801516 306.334738 
L 147.994935 309.024835 
L 152.188355 311.590772 
L 156.381774 311.880477 
L 160.575194 306.251963 
L 164.768614 310.225029 
L 168.962033 313.618692 
L 173.155453 313.825622 
L 177.348872 310.84582 
L 181.542292 309.480081 
L 185.735712 307.824637 
L 189.929131 310.721664 
L 194.122551 310.390574 
L 198.31597 309.811167 
L 202.50939 309.314536 
L 206.70281 244.131419 
L 210.896229 238.006266 
L 215.089649 236.226666 
L 219.283068 236.18528 
L 223.476488 233.288261 
L 227.669908 235.067861 
L 231.863327 231.177562 
L 236.056747 233.081318 
L 240.250166 235.067861 
L 244.443586 230.887865 
L 248.637006 235.067861 
L 252.830425 235.60587 
L 257.023845 236.76469 
L 261.217264 237.261314 
L 265.410684 238.668447 
L 269.604104 242.475975 
L 273.797523 239.578947 
L 277.990943 240.944686 
L 282.184362 243.427853 
L 286.377782 246.32488 
L 290.571202 242.434582 
L 294.764621 247.938939 
L 298.958041 248.849432 
L 303.15146 256.878333 
M 340.892237 289.573365 
L 345.085656 301.658106 
L 349.279076 306.624439 
L 353.472496 307.203845 
L 357.665915 303.396321 
L 361.859335 302.071967 
L 366.052754 302.113353 
L 370.246174 305.796717 
L 374.439594 300.913155 
L 378.633013 300.126818 
L 382.826433 295.036329 
L 387.019852 288.414552 
L 391.213272 280.220102 
L 395.406692 260.354771 
L 399.600111 205.104308 
L 403.793531 89.223211 
" clip-path="url(#p0504417766)" style="fill: none; stroke: #555555; stroke-width: 1.5; stroke-linecap: square"/>
   </g>
   <g id="line2d_26">
    <path d="M 72.513382 240.116964 
L 76.706802 272.067037 
L 80.900222 289.159504 
L 85.093641 297.974742 
L 89.287061 301.616721 
L 93.48048 304.679293 
L 97.6739 305.175925 
L 101.86732 306.748599 
L 106.060739 306.748599 
L 110.254159 308.528199 
L 114.447578 305.631172 
L 118.640998 307.121071 
L 122.834418 307.659092 
L 127.027837 305.589786 
L 131.221257 306.500279 
L 135.414676 310.100873 
L 139.608096 311.756317 
L 143.801516 312.459879 
L 147.994935 313.32899 
L 152.188355 311.09414 
L 156.381774 312.004633 
L 160.575194 313.246216 
L 164.768614 314.198098 
L 168.962033 314.529184 
L 173.155453 313.991167 
L 177.348872 313.163445 
L 181.542292 313.991167 
L 185.735712 315.894927 
L 189.929131 313.742851 
L 194.122551 314.653344 
L 198.31597 312.294338 
L 202.50939 314.611959 
L 206.70281 250.008244 
L 210.896229 245.331609 
L 215.089649 244.007255 
L 219.283068 243.552009 
L 223.476488 242.144884 
L 227.669908 240.48944 
L 231.863327 239.247857 
L 236.056747 240.448055 
L 240.250166 242.434582 
L 244.443586 240.613596 
L 248.637006 242.641516 
L 252.830425 239.992808 
L 257.023845 243.013992 
L 261.217264 242.51736 
L 265.410684 245.704085 
L 269.604104 242.475975 
L 273.797523 243.883099 
L 277.990943 244.379731 
L 282.184362 247.607849 
L 286.377782 248.228636 
L 290.571202 250.339335 
L 294.764621 249.966859 
L 298.958041 251.705074 
L 303.15146 253.484674 
L 307.34488 257.91299 
L 311.5383 258.699327 
M 340.892237 296.195142 
L 345.085656 302.65137 
L 349.279076 307.493546 
L 353.472496 308.404043 
L 357.665915 307.907407 
L 361.859335 306.086418 
L 366.052754 307.741862 
L 370.246174 307.617706 
L 374.439594 303.023845 
L 378.633013 299.712957 
L 382.826433 295.201871 
L 387.019852 290.069996 
L 391.213272 282.703268 
L 395.406692 257.747449 
L 399.600111 213.795398 
L 403.793531 94.272314 
" clip-path="url(#p0504417766)" style="fill: none; stroke: #464646; stroke-width: 1.5; stroke-linecap: square"/>
   </g>
   <g id="line2d_27">
    <path d="M 72.513382 238.047651 
L 76.706802 272.563668 
L 80.900222 288.621479 
L 85.093641 295.326034 
L 89.287061 300.416523 
L 93.48048 306.045033 
L 97.6739 308.776515 
L 101.86732 309.27315 
L 106.060739 309.852557 
L 110.254159 310.059487 
L 114.447578 310.556119 
L 118.640998 306.996915 
L 122.834418 307.907407 
L 127.027837 306.583054 
L 131.221257 308.321268 
L 135.414676 308.983445 
L 139.608096 309.645626 
L 143.801516 314.115323 
L 147.994935 314.529184 
L 152.188355 312.832355 
L 156.381774 314.736115 
L 160.575194 315.23275 
L 164.768614 314.570574 
L 168.962033 315.687997 
L 173.155453 314.90166 
L 177.348872 312.708199 
L 181.542292 313.867007 
L 185.735712 312.708199 
L 189.929131 313.660077 
L 194.122551 313.370376 
L 198.31597 312.9979 
L 202.50939 313.287601 
L 206.70281 256.961112 
L 210.896229 252.07755 
L 215.089649 250.711803 
L 219.283068 246.987053 
L 223.476488 243.386467 
L 227.669908 245.207453 
L 231.863327 242.931221 
L 236.056747 247.566463 
L 240.250166 243.303697 
L 244.443586 246.32488 
L 248.637006 250.091015 
L 252.830425 245.621314 
L 257.023845 249.263293 
L 261.217264 251.001508 
L 265.410684 251.373984 
L 269.604104 249.718539 
L 273.797523 250.877352 
L 277.990943 249.180522 
L 282.184362 254.064084 
L 286.377782 252.118935 
L 290.571202 252.491411 
L 294.764621 254.395167 
L 298.958041 254.850421 
L 303.15146 256.836948 
L 307.34488 259.402893 
L 311.5383 261.099722 
L 315.731719 260.851403 
L 319.925139 266.521301 
M 340.892237 296.650388 
L 345.085656 305.796717 
L 349.279076 306.872755 
L 353.472496 309.107605 
L 357.665915 311.714931 
L 361.859335 307.534932 
L 366.052754 309.728397 
L 370.246174 307.534932 
L 374.439594 307.617706 
L 378.633013 305.01038 
L 382.826433 301.368401 
L 387.019852 292.097916 
L 391.213272 284.317327 
L 395.406692 265.44526 
L 399.600111 214.871432 
L 403.793531 94.93448 
" clip-path="url(#p0504417766)" style="fill: none; stroke: #373737; stroke-width: 1.5; stroke-linecap: square"/>
   </g>
   <g id="line2d_28">
    <path d="M 72.513382 245.373002 
L 76.706802 280.344258 
L 80.900222 287.876535 
L 85.093641 302.154738 
L 89.287061 304.513748 
L 93.48048 304.762064 
L 97.6739 306.334738 
L 101.86732 308.652359 
L 106.060739 310.018098 
L 110.254159 309.811167 
L 114.447578 311.756317 
L 118.640998 309.687011 
L 122.834418 310.018098 
L 127.027837 311.590772 
L 131.221257 308.652359 
L 135.414676 309.687011 
L 139.608096 315.191365 
L 143.801516 313.618692 
L 147.994935 312.790969 
L 152.188355 315.729382 
L 156.381774 315.770768 
L 160.575194 315.563837 
L 164.768614 317.012351 
L 168.962033 314.69473 
L 173.155453 314.653344 
L 177.348872 313.618692 
L 181.542292 317.302056 
L 185.735712 313.825622 
L 189.929131 315.274136 
L 194.122551 316.846809 
L 198.31597 314.446414 
L 202.50939 313.867007 
L 206.70281 252.574181 
L 210.896229 254.643487 
L 215.089649 254.18824 
L 219.283068 253.112198 
L 223.476488 251.456754 
L 227.669908 253.319133 
L 231.863327 250.256556 
L 236.056747 253.070813 
L 240.250166 249.966859 
L 244.443586 251.705074 
L 248.637006 250.008244 
L 252.830425 250.877352 
L 257.023845 252.40864 
L 261.217264 252.118935 
L 265.410684 254.684872 
L 269.604104 252.656952 
L 273.797523 254.10547 
L 277.990943 252.491411 
L 282.184362 259.568434 
L 286.377782 260.934173 
L 290.571202 256.009226 
L 294.764621 257.66467 
L 298.958041 258.657941 
L 303.15146 262.631003 
L 307.34488 259.982295 
L 311.5383 265.983284 
L 315.731719 264.245062 
L 319.925139 266.728228 
L 324.118558 267.017933 
L 328.311978 273.763866 
M 340.892237 302.527214 
L 345.085656 306.91414 
L 349.279076 307.990182 
L 353.472496 311.135525 
L 357.665915 311.880477 
L 361.859335 310.96998 
L 366.052754 310.680279 
L 370.246174 306.70721 
L 374.439594 308.735129 
L 378.633013 304.803449 
L 382.826433 300.044047 
L 387.019852 297.312561 
L 391.213272 284.193171 
L 395.406692 265.362489 
L 399.600111 213.340144 
L 403.793531 97.376261 
" clip-path="url(#p0504417766)" style="fill: none; stroke: #282828; stroke-width: 1.5; stroke-linecap: square"/>
   </g>
   <g id="line2d_29">
    <path d="M 72.513382 246.32488 
L 76.706802 281.006438 
L 80.900222 295.1191 
L 85.093641 301.409786 
L 89.287061 306.045033 
L 93.48048 309.852557 
L 97.6739 308.114338 
L 101.86732 312.66681 
L 106.060739 311.880477 
L 110.254159 309.811167 
L 114.447578 313.080671 
L 118.640998 311.508001 
L 122.834418 312.211563 
L 127.027837 308.817904 
L 131.221257 312.377108 
L 135.414676 311.549386 
L 139.608096 316.060473 
L 143.801516 313.411761 
L 147.994935 314.156712 
L 152.188355 318.791955 
L 156.381774 316.80542 
L 160.575194 315.481066 
L 164.768614 318.336708 
L 168.962033 317.219281 
L 173.155453 317.508986 
L 177.348872 318.9575 
L 181.542292 316.391559 
L 185.735712 317.674531 
L 189.929131 317.550372 
L 194.122551 318.047003 
L 198.31597 318.502254 
L 202.50939 316.184629 
L 206.70281 261.182493 
L 210.896229 258.947639 
L 215.089649 255.63675 
L 219.283068 253.981306 
L 223.476488 256.836948 
L 227.669908 253.981306 
L 231.863327 253.029428 
L 236.056747 252.574181 
L 240.250166 255.098733 
L 244.443586 255.305667 
L 248.637006 258.119916 
L 252.830425 252.988042 
L 257.023845 253.567445 
L 261.217264 255.678143 
L 265.410684 257.209424 
L 269.604104 258.409622 
L 273.797523 257.457743 
L 277.990943 260.313386 
L 282.184362 259.195958 
L 286.377782 257.788834 
L 290.571202 259.858139 
L 294.764621 261.016944 
L 298.958041 262.217142 
L 303.15146 263.50011 
L 307.34488 263.872586 
L 311.5383 264.120906 
L 315.731719 264.865857 
L 319.925139 264.783087 
L 324.118558 269.501099 
L 328.311978 269.708034 
L 332.505398 274.715752 
L 336.698817 276.040106 
L 340.892237 306.996915 
L 345.085656 310.307803 
L 349.279076 311.383841 
L 353.472496 312.542654 
L 357.665915 310.266418 
L 361.859335 310.84582 
L 366.052754 313.701462 
L 370.246174 310.804435 
L 374.439594 310.183643 
L 378.633013 309.024835 
L 382.826433 304.844835 
L 387.019852 298.843849 
L 391.213272 288.952569 
L 395.406692 271.032388 
L 399.600111 219.423911 
L 403.793531 97.127949 
" clip-path="url(#p0504417766)" style="fill: none; stroke: #191919; stroke-width: 1.5; stroke-linecap: square"/>
   </g>
   <g id="line2d_30">
    <path d="M 137.511386 331.5575 
L 137.511386 54.3575 
" clip-path="url(#p0504417766)" style="fill: none; stroke-dasharray: 5.55,2.4; stroke-dashoffset: 0; stroke: #ff0000; stroke-opacity: 0.7; stroke-width: 1.5"/>
   </g>
   <g id="line2d_31">
    <path d="M 204.6061 331.5575 
L 204.6061 54.3575 
" clip-path="url(#p0504417766)" style="fill: none; stroke-dasharray: 5.55,2.4; stroke-dashoffset: 0; stroke: #ff0000; stroke-opacity: 0.7; stroke-width: 1.5"/>
   </g>
   <g id="line2d_32">
    <path d="M 338.795527 331.5575 
L 338.795527 54.3575 
" clip-path="url(#p0504417766)" style="fill: none; stroke-dasharray: 1.5,2.475; stroke-dashoffset: 0; stroke: #0000ff; stroke-opacity: 0.7; stroke-width: 1.5"/>
   </g>
   <g id="patch_3">
    <path d="M 55.949375 331.5575 
L 55.949375 54.3575 
" style="fill: none; stroke: #000000; stroke-width: 0.8; stroke-linejoin: miter; stroke-linecap: square"/>
   </g>
   <g id="patch_4">
    <path d="M 55.949375 331.5575 
L 420.357538 331.5575 
" style="fill: none; stroke: #000000; stroke-width: 0.8; stroke-linejoin: miter; stroke-linecap: square"/>
   </g>
   <g id="text_14">
    <!-- Film -->
    <g transform="translate(91.910123 46.733812) scale(0.1 -0.1)">
     <defs>
      <path id="DejaVuSans-Bold-46" d="M 588 4666 
L 3834 4666 
L 3834 3756 
L 1791 3756 
L 1791 2888 
L 3713 2888 
L 3713 1978 
L 1791 1978 
L 1791 0 
L 588 0 
L 588 4666 
z
" transform="scale(0.015625)"/>
      <path id="DejaVuSans-Bold-69" d="M 538 3500 
L 1656 3500 
L 1656 0 
L 538 0 
L 538 3500 
z
M 538 4863 
L 1656 4863 
L 1656 3950 
L 538 3950 
L 538 4863 
z
" transform="scale(0.015625)"/>
      <path id="DejaVuSans-Bold-6c" d="M 538 4863 
L 1656 4863 
L 1656 0 
L 538 0 
L 538 4863 
z
" transform="scale(0.015625)"/>
      <path id="DejaVuSans-Bold-6d" d="M 3781 2919 
Q 3994 3244 4286 3414 
Q 4578 3584 4928 3584 
Q 5531 3584 5847 3212 
Q 6163 2841 6163 2131 
L 6163 0 
L 5038 0 
L 5038 1825 
Q 5041 1866 5042 1909 
Q 5044 1953 5044 2034 
Q 5044 2406 4934 2573 
Q 4825 2741 4581 2741 
Q 4263 2741 4089 2478 
Q 3916 2216 3909 1719 
L 3909 0 
L 2784 0 
L 2784 1825 
Q 2784 2406 2684 2573 
Q 2584 2741 2328 2741 
Q 2006 2741 1831 2477 
Q 1656 2213 1656 1722 
L 1656 0 
L 531 0 
L 531 3500 
L 1656 3500 
L 1656 2988 
Q 1863 3284 2130 3434 
Q 2397 3584 2719 3584 
Q 3081 3584 3359 3409 
Q 3638 3234 3781 2919 
z
" transform="scale(0.015625)"/>
     </defs>
     <use xlink:href="#DejaVuSans-Bold-46"/>
     <use xlink:href="#DejaVuSans-Bold-69" transform="translate(68.310547 0)"/>
     <use xlink:href="#DejaVuSans-Bold-6c" transform="translate(102.587891 0)"/>
     <use xlink:href="#DejaVuSans-Bold-6d" transform="translate(136.865234 0)"/>
    </g>
   </g>
   <g id="text_15">
    <!-- Break -->
    <g style="fill: #808080" transform="translate(154.691556 46.733812) scale(0.1 -0.1)">
     <defs>
      <path id="DejaVuSans-Bold-42" d="M 2456 2859 
Q 2741 2859 2887 2984 
Q 3034 3109 3034 3353 
Q 3034 3594 2887 3720 
Q 2741 3847 2456 3847 
L 1791 3847 
L 1791 2859 
L 2456 2859 
z
M 2497 819 
Q 2859 819 3042 972 
Q 3225 1125 3225 1434 
Q 3225 1738 3044 1889 
Q 2863 2041 2497 2041 
L 1791 2041 
L 1791 819 
L 2497 819 
z
M 3616 2497 
Q 4003 2384 4215 2081 
Q 4428 1778 4428 1338 
Q 4428 663 3972 331 
Q 3516 0 2584 0 
L 588 0 
L 588 4666 
L 2394 4666 
Q 3366 4666 3802 4372 
Q 4238 4078 4238 3431 
Q 4238 3091 4078 2852 
Q 3919 2613 3616 2497 
z
" transform="scale(0.015625)"/>
      <path id="DejaVuSans-Bold-72" d="M 3138 2547 
Q 2991 2616 2845 2648 
Q 2700 2681 2553 2681 
Q 2122 2681 1889 2404 
Q 1656 2128 1656 1613 
L 1656 0 
L 538 0 
L 538 3500 
L 1656 3500 
L 1656 2925 
Q 1872 3269 2151 3426 
Q 2431 3584 2822 3584 
Q 2878 3584 2943 3579 
Q 3009 3575 3134 3559 
L 3138 2547 
z
" transform="scale(0.015625)"/>
      <path id="DejaVuSans-Bold-65" d="M 4031 1759 
L 4031 1441 
L 1416 1441 
Q 1456 1047 1700 850 
Q 1944 653 2381 653 
Q 2734 653 3104 758 
Q 3475 863 3866 1075 
L 3866 213 
Q 3469 63 3072 -14 
Q 2675 -91 2278 -91 
Q 1328 -91 801 392 
Q 275 875 275 1747 
Q 275 2603 792 3093 
Q 1309 3584 2216 3584 
Q 3041 3584 3536 3087 
Q 4031 2591 4031 1759 
z
M 2881 2131 
Q 2881 2450 2695 2645 
Q 2509 2841 2209 2841 
Q 1884 2841 1681 2658 
Q 1478 2475 1428 2131 
L 2881 2131 
z
" transform="scale(0.015625)"/>
      <path id="DejaVuSans-Bold-61" d="M 2106 1575 
Q 1756 1575 1579 1456 
Q 1403 1338 1403 1106 
Q 1403 894 1545 773 
Q 1688 653 1941 653 
Q 2256 653 2472 879 
Q 2688 1106 2688 1447 
L 2688 1575 
L 2106 1575 
z
M 3816 1997 
L 3816 0 
L 2688 0 
L 2688 519 
Q 2463 200 2181 54 
Q 1900 -91 1497 -91 
Q 953 -91 614 226 
Q 275 544 275 1050 
Q 275 1666 698 1953 
Q 1122 2241 2028 2241 
L 2688 2241 
L 2688 2328 
Q 2688 2594 2478 2717 
Q 2269 2841 1825 2841 
Q 1466 2841 1156 2769 
Q 847 2697 581 2553 
L 581 3406 
Q 941 3494 1303 3539 
Q 1666 3584 2028 3584 
Q 2975 3584 3395 3211 
Q 3816 2838 3816 1997 
z
" transform="scale(0.015625)"/>
      <path id="DejaVuSans-Bold-6b" d="M 538 4863 
L 1656 4863 
L 1656 2216 
L 2944 3500 
L 4244 3500 
L 2534 1894 
L 4378 0 
L 3022 0 
L 1656 1459 
L 1656 0 
L 538 0 
L 538 4863 
z
" transform="scale(0.015625)"/>
     </defs>
     <use xlink:href="#DejaVuSans-Bold-42"/>
     <use xlink:href="#DejaVuSans-Bold-72" transform="translate(76.220703 0)"/>
     <use xlink:href="#DejaVuSans-Bold-65" transform="translate(125.537109 0)"/>
     <use xlink:href="#DejaVuSans-Bold-61" transform="translate(193.359375 0)"/>
     <use xlink:href="#DejaVuSans-Bold-6b" transform="translate(260.839844 0)"/>
    </g>
   </g>
   <g id="text_16">
    <!-- Interference -->
    <g style="fill: #ff0000" transform="translate(236.696126 46.733812) scale(0.1 -0.1)">
     <defs>
      <path id="DejaVuSans-Bold-49" d="M 588 4666 
L 1791 4666 
L 1791 0 
L 588 0 
L 588 4666 
z
" transform="scale(0.015625)"/>
      <path id="DejaVuSans-Bold-6e" d="M 4056 2131 
L 4056 0 
L 2931 0 
L 2931 347 
L 2931 1631 
Q 2931 2084 2911 2256 
Q 2891 2428 2841 2509 
Q 2775 2619 2662 2680 
Q 2550 2741 2406 2741 
Q 2056 2741 1856 2470 
Q 1656 2200 1656 1722 
L 1656 0 
L 538 0 
L 538 3500 
L 1656 3500 
L 1656 2988 
Q 1909 3294 2193 3439 
Q 2478 3584 2822 3584 
Q 3428 3584 3742 3212 
Q 4056 2841 4056 2131 
z
" transform="scale(0.015625)"/>
      <path id="DejaVuSans-Bold-74" d="M 1759 4494 
L 1759 3500 
L 2913 3500 
L 2913 2700 
L 1759 2700 
L 1759 1216 
Q 1759 972 1856 886 
Q 1953 800 2241 800 
L 2816 800 
L 2816 0 
L 1856 0 
Q 1194 0 917 276 
Q 641 553 641 1216 
L 641 2700 
L 84 2700 
L 84 3500 
L 641 3500 
L 641 4494 
L 1759 4494 
z
" transform="scale(0.015625)"/>
      <path id="DejaVuSans-Bold-66" d="M 2841 4863 
L 2841 4128 
L 2222 4128 
Q 1984 4128 1890 4042 
Q 1797 3956 1797 3744 
L 1797 3500 
L 2753 3500 
L 2753 2700 
L 1797 2700 
L 1797 0 
L 678 0 
L 678 2700 
L 122 2700 
L 122 3500 
L 678 3500 
L 678 3744 
Q 678 4316 997 4589 
Q 1316 4863 1984 4863 
L 2841 4863 
z
" transform="scale(0.015625)"/>
      <path id="DejaVuSans-Bold-63" d="M 3366 3391 
L 3366 2478 
Q 3138 2634 2908 2709 
Q 2678 2784 2431 2784 
Q 1963 2784 1702 2511 
Q 1441 2238 1441 1747 
Q 1441 1256 1702 982 
Q 1963 709 2431 709 
Q 2694 709 2930 787 
Q 3166 866 3366 1019 
L 3366 103 
Q 3103 6 2833 -42 
Q 2563 -91 2291 -91 
Q 1344 -91 809 395 
Q 275 881 275 1747 
Q 275 2613 809 3098 
Q 1344 3584 2291 3584 
Q 2566 3584 2833 3536 
Q 3100 3488 3366 3391 
z
" transform="scale(0.015625)"/>
     </defs>
     <use xlink:href="#DejaVuSans-Bold-49"/>
     <use xlink:href="#DejaVuSans-Bold-6e" transform="translate(37.207031 0)"/>
     <use xlink:href="#DejaVuSans-Bold-74" transform="translate(108.398438 0)"/>
     <use xlink:href="#DejaVuSans-Bold-65" transform="translate(156.201172 0)"/>
     <use xlink:href="#DejaVuSans-Bold-72" transform="translate(224.023438 0)"/>
     <use xlink:href="#DejaVuSans-Bold-66" transform="translate(273.339844 0)"/>
     <use xlink:href="#DejaVuSans-Bold-65" transform="translate(316.845703 0)"/>
     <use xlink:href="#DejaVuSans-Bold-72" transform="translate(384.667969 0)"/>
     <use xlink:href="#DejaVuSans-Bold-65" transform="translate(433.984375 0)"/>
     <use xlink:href="#DejaVuSans-Bold-6e" transform="translate(501.806641 0)"/>
     <use xlink:href="#DejaVuSans-Bold-63" transform="translate(572.998047 0)"/>
     <use xlink:href="#DejaVuSans-Bold-65" transform="translate(632.275391 0)"/>
    </g>
   </g>
   <g id="text_17">
    <!-- Filler -->
    <g style="fill: #0000ff" transform="translate(357.92804 46.733812) scale(0.1 -0.1)">
     <use xlink:href="#DejaVuSans-Bold-46"/>
     <use xlink:href="#DejaVuSans-Bold-69" transform="translate(68.310547 0)"/>
     <use xlink:href="#DejaVuSans-Bold-6c" transform="translate(102.587891 0)"/>
     <use xlink:href="#DejaVuSans-Bold-6c" transform="translate(136.865234 0)"/>
     <use xlink:href="#DejaVuSans-Bold-65" transform="translate(171.142578 0)"/>
     <use xlink:href="#DejaVuSans-Bold-72" transform="translate(238.964844 0)"/>
    </g>
   </g>
   <g id="text_18">
    <g clip-path="url(#p0504417766)">
     <!-- Reminder -->
     <g transform="translate(202.526412 111.243812) rotate(-90) scale(0.1 -0.1)">
      <defs>
       <path id="DejaVuSans-Oblique-52" d="M 1613 4147 
L 1294 2491 
L 2106 2491 
Q 2584 2491 2879 2755 
Q 3175 3019 3175 3444 
Q 3175 3784 2976 3965 
Q 2778 4147 2406 4147 
L 1613 4147 
z
M 2772 2241 
Q 2972 2194 3105 2009 
Q 3238 1825 3413 1275 
L 3809 0 
L 3144 0 
L 2778 1197 
Q 2638 1659 2453 1815 
Q 2269 1972 1888 1972 
L 1191 1972 
L 806 0 
L 172 0 
L 1081 4666 
L 2503 4666 
Q 3150 4666 3495 4373 
Q 3841 4081 3841 3531 
Q 3841 3044 3547 2687 
Q 3253 2331 2772 2241 
z
" transform="scale(0.015625)"/>
       <path id="DejaVuSans-Oblique-65" d="M 3078 2063 
Q 3088 2113 3092 2166 
Q 3097 2219 3097 2272 
Q 3097 2653 2873 2875 
Q 2650 3097 2266 3097 
Q 1838 3097 1509 2826 
Q 1181 2556 1013 2059 
L 3078 2063 
z
M 3578 1613 
L 903 1613 
Q 884 1494 878 1425 
Q 872 1356 872 1306 
Q 872 872 1139 634 
Q 1406 397 1894 397 
Q 2269 397 2603 481 
Q 2938 566 3225 728 
L 3116 159 
Q 2806 34 2476 -28 
Q 2147 -91 1806 -91 
Q 1078 -91 686 257 
Q 294 606 294 1247 
Q 294 1794 489 2264 
Q 684 2734 1063 3103 
Q 1306 3334 1642 3459 
Q 1978 3584 2356 3584 
Q 2950 3584 3301 3228 
Q 3653 2872 3653 2272 
Q 3653 2128 3634 1964 
Q 3616 1800 3578 1613 
z
" transform="scale(0.015625)"/>
       <path id="DejaVuSans-Oblique-6d" d="M 5747 2113 
L 5338 0 
L 4763 0 
L 5166 2094 
Q 5191 2228 5203 2325 
Q 5216 2422 5216 2491 
Q 5216 2772 5059 2928 
Q 4903 3084 4622 3084 
Q 4203 3084 3875 2770 
Q 3547 2456 3450 1953 
L 3066 0 
L 2491 0 
L 2900 2094 
Q 2925 2209 2937 2307 
Q 2950 2406 2950 2484 
Q 2950 2769 2794 2926 
Q 2638 3084 2363 3084 
Q 1938 3084 1609 2770 
Q 1281 2456 1184 1953 
L 800 0 
L 225 0 
L 909 3500 
L 1484 3500 
L 1375 2956 
Q 1609 3263 1923 3423 
Q 2238 3584 2597 3584 
Q 2978 3584 3223 3384 
Q 3469 3184 3519 2828 
Q 3781 3197 4126 3390 
Q 4472 3584 4856 3584 
Q 5306 3584 5551 3325 
Q 5797 3066 5797 2591 
Q 5797 2488 5784 2364 
Q 5772 2241 5747 2113 
z
" transform="scale(0.015625)"/>
       <path id="DejaVuSans-Oblique-69" d="M 1172 4863 
L 1747 4863 
L 1606 4134 
L 1031 4134 
L 1172 4863 
z
M 909 3500 
L 1484 3500 
L 800 0 
L 225 0 
L 909 3500 
z
" transform="scale(0.015625)"/>
       <path id="DejaVuSans-Oblique-6e" d="M 3566 2113 
L 3156 0 
L 2578 0 
L 2988 2091 
Q 3016 2238 3031 2350 
Q 3047 2463 3047 2528 
Q 3047 2791 2881 2937 
Q 2716 3084 2419 3084 
Q 1956 3084 1622 2776 
Q 1288 2469 1184 1941 
L 800 0 
L 225 0 
L 903 3500 
L 1478 3500 
L 1363 2950 
Q 1603 3253 1940 3418 
Q 2278 3584 2650 3584 
Q 3113 3584 3367 3334 
Q 3622 3084 3622 2631 
Q 3622 2519 3608 2391 
Q 3594 2263 3566 2113 
z
" transform="scale(0.015625)"/>
       <path id="DejaVuSans-Oblique-64" d="M 2675 525 
Q 2444 222 2128 65 
Q 1813 -91 1428 -91 
Q 903 -91 598 267 
Q 294 625 294 1247 
Q 294 1766 478 2236 
Q 663 2706 1013 3078 
Q 1244 3325 1534 3454 
Q 1825 3584 2144 3584 
Q 2481 3584 2739 3421 
Q 2997 3259 3138 2956 
L 3513 4863 
L 4091 4863 
L 3144 0 
L 2566 0 
L 2675 525 
z
M 891 1350 
Q 891 897 1095 644 
Q 1300 391 1663 391 
Q 1931 391 2161 520 
Q 2391 650 2566 903 
Q 2750 1166 2856 1509 
Q 2963 1853 2963 2188 
Q 2963 2622 2758 2865 
Q 2553 3109 2194 3109 
Q 1922 3109 1687 2981 
Q 1453 2853 1288 2613 
Q 1106 2353 998 2009 
Q 891 1666 891 1350 
z
" transform="scale(0.015625)"/>
       <path id="DejaVuSans-Oblique-72" d="M 2853 2969 
Q 2766 3016 2653 3041 
Q 2541 3066 2413 3066 
Q 1953 3066 1609 2717 
Q 1266 2369 1153 1784 
L 800 0 
L 225 0 
L 909 3500 
L 1484 3500 
L 1375 2956 
Q 1603 3259 1920 3421 
Q 2238 3584 2597 3584 
Q 2691 3584 2781 3573 
Q 2872 3563 2963 3538 
L 2853 2969 
z
" transform="scale(0.015625)"/>
      </defs>
      <use xlink:href="#DejaVuSans-Oblique-52"/>
      <use xlink:href="#DejaVuSans-Oblique-65" transform="translate(69.482422 0)"/>
      <use xlink:href="#DejaVuSans-Oblique-6d" transform="translate(131.005859 0)"/>
      <use xlink:href="#DejaVuSans-Oblique-69" transform="translate(228.417969 0)"/>
      <use xlink:href="#DejaVuSans-Oblique-6e" transform="translate(256.201172 0)"/>
      <use xlink:href="#DejaVuSans-Oblique-64" transform="translate(319.580078 0)"/>
      <use xlink:href="#DejaVuSans-Oblique-65" transform="translate(383.056641 0)"/>
      <use xlink:href="#DejaVuSans-Oblique-72" transform="translate(444.580078 0)"/>
     </g>
    </g>
   </g>
   <g id="text_19">
    <!-- SPC by Competitor Count -->
    <g transform="translate(136.512207 19.3575) scale(0.16 -0.16)">
     <defs>
      <path id="DejaVuSans-43" d="M 4122 4306 
L 4122 3641 
Q 3803 3938 3442 4084 
Q 3081 4231 2675 4231 
Q 1875 4231 1450 3742 
Q 1025 3253 1025 2328 
Q 1025 1406 1450 917 
Q 1875 428 2675 428 
Q 3081 428 3442 575 
Q 3803 722 4122 1019 
L 4122 359 
Q 3791 134 3420 21 
Q 3050 -91 2638 -91 
Q 1578 -91 968 557 
Q 359 1206 359 2328 
Q 359 3453 968 4101 
Q 1578 4750 2638 4750 
Q 3056 4750 3426 4639 
Q 3797 4528 4122 4306 
z
" transform="scale(0.015625)"/>
      <path id="DejaVuSans-6d" d="M 3328 2828 
Q 3544 3216 3844 3400 
Q 4144 3584 4550 3584 
Q 5097 3584 5394 3201 
Q 5691 2819 5691 2113 
L 5691 0 
L 5113 0 
L 5113 2094 
Q 5113 2597 4934 2840 
Q 4756 3084 4391 3084 
Q 3944 3084 3684 2787 
Q 3425 2491 3425 1978 
L 3425 0 
L 2847 0 
L 2847 2094 
Q 2847 2600 2669 2842 
Q 2491 3084 2119 3084 
Q 1678 3084 1418 2786 
Q 1159 2488 1159 1978 
L 1159 0 
L 581 0 
L 581 3500 
L 1159 3500 
L 1159 2956 
Q 1356 3278 1631 3431 
Q 1906 3584 2284 3584 
Q 2666 3584 2933 3390 
Q 3200 3197 3328 2828 
z
" transform="scale(0.015625)"/>
      <path id="DejaVuSans-70" d="M 1159 525 
L 1159 -1331 
L 581 -1331 
L 581 3500 
L 1159 3500 
L 1159 2969 
Q 1341 3281 1617 3432 
Q 1894 3584 2278 3584 
Q 2916 3584 3314 3078 
Q 3713 2572 3713 1747 
Q 3713 922 3314 415 
Q 2916 -91 2278 -91 
Q 1894 -91 1617 61 
Q 1341 213 1159 525 
z
M 3116 1747 
Q 3116 2381 2855 2742 
Q 2594 3103 2138 3103 
Q 1681 3103 1420 2742 
Q 1159 2381 1159 1747 
Q 1159 1113 1420 752 
Q 1681 391 2138 391 
Q 2594 391 2855 752 
Q 3116 1113 3116 1747 
z
" transform="scale(0.015625)"/>
     </defs>
     <use xlink:href="#DejaVuSans-53"/>
     <use xlink:href="#DejaVuSans-50" transform="translate(63.476562 0)"/>
     <use xlink:href="#DejaVuSans-43" transform="translate(123.779297 0)"/>
     <use xlink:href="#DejaVuSans-20" transform="translate(193.603516 0)"/>
     <use xlink:href="#DejaVuSans-62" transform="translate(225.390625 0)"/>
     <use xlink:href="#DejaVuSans-79" transform="translate(288.867188 0)"/>
     <use xlink:href="#DejaVuSans-20" transform="translate(348.046875 0)"/>
     <use xlink:href="#DejaVuSans-43" transform="translate(379.833984 0)"/>
     <use xlink:href="#DejaVuSans-6f" transform="translate(449.658203 0)"/>
     <use xlink:href="#DejaVuSans-6d" transform="translate(510.839844 0)"/>
     <use xlink:href="#DejaVuSans-70" transform="translate(608.251953 0)"/>
     <use xlink:href="#DejaVuSans-65" transform="translate(671.728516 0)"/>
     <use xlink:href="#DejaVuSans-74" transform="translate(733.251953 0)"/>
     <use xlink:href="#DejaVuSans-69" transform="translate(772.460938 0)"/>
     <use xlink:href="#DejaVuSans-74" transform="translate(800.244141 0)"/>
     <use xlink:href="#DejaVuSans-6f" transform="translate(839.453125 0)"/>
     <use xlink:href="#DejaVuSans-72" transform="translate(900.634766 0)"/>
     <use xlink:href="#DejaVuSans-20" transform="translate(941.748047 0)"/>
     <use xlink:href="#DejaVuSans-43" transform="translate(973.535156 0)"/>
     <use xlink:href="#DejaVuSans-6f" transform="translate(1043.359375 0)"/>
     <use xlink:href="#DejaVuSans-75" transform="translate(1104.541016 0)"/>
     <use xlink:href="#DejaVuSans-6e" transform="translate(1167.919922 0)"/>
     <use xlink:href="#DejaVuSans-74" transform="translate(1231.298828 0)"/>
    </g>
   </g>
   <g id="legend_1">
    <g id="patch_5">
     <path d="M 436.045702 275.3225 
L 510.125077 275.3225 
Q 512.525077 275.3225 512.525077 272.9225 
L 512.525077 62.7575 
Q 512.525077 60.3575 510.125077 60.3575 
L 436.045702 60.3575 
Q 433.645702 60.3575 433.645702 62.7575 
L 433.645702 272.9225 
Q 433.645702 275.3225 436.045702 275.3225 
z
" style="fill: #ffffff; opacity: 0.8; stroke: #cccccc; stroke-linejoin: miter"/>
    </g>
    <g id="line2d_33">
     <path d="M 438.445702 70.075625 
L 450.445702 70.075625 
L 462.445702 70.075625 
" style="fill: none; stroke: #bfbfbf; stroke-width: 1.5; stroke-linecap: square"/>
    </g>
    <g id="text_20">
     <!-- M=10 -->
     <g transform="translate(472.045702 74.275625) scale(0.12 -0.12)">
      <defs>
       <path id="DejaVuSans-4d" d="M 628 4666 
L 1569 4666 
L 2759 1491 
L 3956 4666 
L 4897 4666 
L 4897 0 
L 4281 0 
L 4281 4097 
L 3078 897 
L 2444 897 
L 1241 4097 
L 1241 0 
L 628 0 
L 628 4666 
z
" transform="scale(0.015625)"/>
       <path id="DejaVuSans-3d" d="M 678 2906 
L 4684 2906 
L 4684 2381 
L 678 2381 
L 678 2906 
z
M 678 1631 
L 4684 1631 
L 4684 1100 
L 678 1100 
L 678 1631 
z
" transform="scale(0.015625)"/>
      </defs>
      <use xlink:href="#DejaVuSans-4d"/>
      <use xlink:href="#DejaVuSans-3d" transform="translate(86.279297 0)"/>
      <use xlink:href="#DejaVuSans-31" transform="translate(170.068359 0)"/>
      <use xlink:href="#DejaVuSans-30" transform="translate(233.691406 0)"/>
     </g>
    </g>
    <g id="line2d_34">
     <path d="M 438.445702 87.689375 
L 450.445702 87.689375 
L 462.445702 87.689375 
" style="fill: none; stroke: #b0b0b0; stroke-width: 1.5; stroke-linecap: square"/>
    </g>
    <g id="text_21">
     <!-- M=12 -->
     <g transform="translate(472.045702 91.889375) scale(0.12 -0.12)">
      <use xlink:href="#DejaVuSans-4d"/>
      <use xlink:href="#DejaVuSans-3d" transform="translate(86.279297 0)"/>
      <use xlink:href="#DejaVuSans-31" transform="translate(170.068359 0)"/>
      <use xlink:href="#DejaVuSans-32" transform="translate(233.691406 0)"/>
     </g>
    </g>
    <g id="line2d_35">
     <path d="M 438.445702 105.303125 
L 450.445702 105.303125 
L 462.445702 105.303125 
" style="fill: none; stroke: #a1a1a1; stroke-width: 1.5; stroke-linecap: square"/>
    </g>
    <g id="text_22">
     <!-- M=14 -->
     <g transform="translate(472.045702 109.503125) scale(0.12 -0.12)">
      <use xlink:href="#DejaVuSans-4d"/>
      <use xlink:href="#DejaVuSans-3d" transform="translate(86.279297 0)"/>
      <use xlink:href="#DejaVuSans-31" transform="translate(170.068359 0)"/>
      <use xlink:href="#DejaVuSans-34" transform="translate(233.691406 0)"/>
     </g>
    </g>
    <g id="line2d_36">
     <path d="M 438.445702 122.916875 
L 450.445702 122.916875 
L 462.445702 122.916875 
" style="fill: none; stroke: #929292; stroke-width: 1.5; stroke-linecap: square"/>
    </g>
    <g id="text_23">
     <!-- M=16 -->
     <g transform="translate(472.045702 127.116875) scale(0.12 -0.12)">
      <use xlink:href="#DejaVuSans-4d"/>
      <use xlink:href="#DejaVuSans-3d" transform="translate(86.279297 0)"/>
      <use xlink:href="#DejaVuSans-31" transform="translate(170.068359 0)"/>
      <use xlink:href="#DejaVuSans-36" transform="translate(233.691406 0)"/>
     </g>
    </g>
    <g id="line2d_37">
     <path d="M 438.445702 140.530625 
L 450.445702 140.530625 
L 462.445702 140.530625 
" style="fill: none; stroke: #828282; stroke-width: 1.5; stroke-linecap: square"/>
    </g>
    <g id="text_24">
     <!-- M=18 -->
     <g transform="translate(472.045702 144.730625) scale(0.12 -0.12)">
      <use xlink:href="#DejaVuSans-4d"/>
      <use xlink:href="#DejaVuSans-3d" transform="translate(86.279297 0)"/>
      <use xlink:href="#DejaVuSans-31" transform="translate(170.068359 0)"/>
      <use xlink:href="#DejaVuSans-38" transform="translate(233.691406 0)"/>
     </g>
    </g>
    <g id="line2d_38">
     <path d="M 438.445702 158.144375 
L 450.445702 158.144375 
L 462.445702 158.144375 
" style="fill: none; stroke: #737373; stroke-width: 1.5; stroke-linecap: square"/>
    </g>
    <g id="text_25">
     <!-- M=20 -->
     <g transform="translate(472.045702 162.344375) scale(0.12 -0.12)">
      <use xlink:href="#DejaVuSans-4d"/>
      <use xlink:href="#DejaVuSans-3d" transform="translate(86.279297 0)"/>
      <use xlink:href="#DejaVuSans-32" transform="translate(170.068359 0)"/>
      <use xlink:href="#DejaVuSans-30" transform="translate(233.691406 0)"/>
     </g>
    </g>
    <g id="line2d_39">
     <path d="M 438.445702 175.758125 
L 450.445702 175.758125 
L 462.445702 175.758125 
" style="fill: none; stroke: #646464; stroke-width: 1.5; stroke-linecap: square"/>
    </g>
    <g id="text_26">
     <!-- M=22 -->
     <g transform="translate(472.045702 179.958125) scale(0.12 -0.12)">
      <use xlink:href="#DejaVuSans-4d"/>
      <use xlink:href="#DejaVuSans-3d" transform="translate(86.279297 0)"/>
      <use xlink:href="#DejaVuSans-32" transform="translate(170.068359 0)"/>
      <use xlink:href="#DejaVuSans-32" transform="translate(233.691406 0)"/>
     </g>
    </g>
    <g id="line2d_40">
     <path d="M 438.445702 193.371875 
L 450.445702 193.371875 
L 462.445702 193.371875 
" style="fill: none; stroke: #555555; stroke-width: 1.5; stroke-linecap: square"/>
    </g>
    <g id="text_27">
     <!-- M=24 -->
     <g transform="translate(472.045702 197.571875) scale(0.12 -0.12)">
      <use xlink:href="#DejaVuSans-4d"/>
      <use xlink:href="#DejaVuSans-3d" transform="translate(86.279297 0)"/>
      <use xlink:href="#DejaVuSans-32" transform="translate(170.068359 0)"/>
      <use xlink:href="#DejaVuSans-34" transform="translate(233.691406 0)"/>
     </g>
    </g>
    <g id="line2d_41">
     <path d="M 438.445702 210.985625 
L 450.445702 210.985625 
L 462.445702 210.985625 
" style="fill: none; stroke: #464646; stroke-width: 1.5; stroke-linecap: square"/>
    </g>
    <g id="text_28">
     <!-- M=26 -->
     <g transform="translate(472.045702 215.185625) scale(0.12 -0.12)">
      <use xlink:href="#DejaVuSans-4d"/>
      <use xlink:href="#DejaVuSans-3d" transform="translate(86.279297 0)"/>
      <use xlink:href="#DejaVuSans-32" transform="translate(170.068359 0)"/>
      <use xlink:href="#DejaVuSans-36" transform="translate(233.691406 0)"/>
     </g>
    </g>
    <g id="line2d_42">
     <path d="M 438.445702 228.599375 
L 450.445702 228.599375 
L 462.445702 228.599375 
" style="fill: none; stroke: #373737; stroke-width: 1.5; stroke-linecap: square"/>
    </g>
    <g id="text_29">
     <!-- M=28 -->
     <g transform="translate(472.045702 232.799375) scale(0.12 -0.12)">
      <use xlink:href="#DejaVuSans-4d"/>
      <use xlink:href="#DejaVuSans-3d" transform="translate(86.279297 0)"/>
      <use xlink:href="#DejaVuSans-32" transform="translate(170.068359 0)"/>
      <use xlink:href="#DejaVuSans-38" transform="translate(233.691406 0)"/>
     </g>
    </g>
    <g id="line2d_43">
     <path d="M 438.445702 246.213125 
L 450.445702 246.213125 
L 462.445702 246.213125 
" style="fill: none; stroke: #282828; stroke-width: 1.5; stroke-linecap: square"/>
    </g>
    <g id="text_30">
     <!-- M=30 -->
     <g transform="translate(472.045702 250.413125) scale(0.12 -0.12)">
      <use xlink:href="#DejaVuSans-4d"/>
      <use xlink:href="#DejaVuSans-3d" transform="translate(86.279297 0)"/>
      <use xlink:href="#DejaVuSans-33" transform="translate(170.068359 0)"/>
      <use xlink:href="#DejaVuSans-30" transform="translate(233.691406 0)"/>
     </g>
    </g>
    <g id="line2d_44">
     <path d="M 438.445702 263.826875 
L 450.445702 263.826875 
L 462.445702 263.826875 
" style="fill: none; stroke: #191919; stroke-width: 1.5; stroke-linecap: square"/>
    </g>
    <g id="text_31">
     <!-- M=32 -->
     <g transform="translate(472.045702 268.026875) scale(0.12 -0.12)">
      <use xlink:href="#DejaVuSans-4d"/>
      <use xlink:href="#DejaVuSans-3d" transform="translate(86.279297 0)"/>
      <use xlink:href="#DejaVuSans-33" transform="translate(170.068359 0)"/>
      <use xlink:href="#DejaVuSans-32" transform="translate(233.691406 0)"/>
     </g>
    </g>
   </g>
  </g>
  <g id="axes_2">
   <g id="patch_6">
    <path d="M 584.341212 331.5575 
L 948.749375 331.5575 
L 948.749375 54.3575 
L 584.341212 54.3575 
z
" style="fill: #ffffff"/>
   </g>
   <g id="FillBetweenPolyCollection_1">
    <defs>
     <path id="m779f716a4d" d="M 600.905219 -311.834375 
L 600.905219 -250.944906 
L 631.021596 -215.086235 
L 661.137973 -192.558771 
L 691.254351 -165.409151 
L 721.370728 -145.17893 
L 751.487105 -129.119911 
L 781.603482 -113.5686 
L 811.719859 -101.964421 
L 841.836236 -86.49362 
L 871.952613 -81.298771 
L 902.06899 -69.580923 
L 932.185368 -59.834375 
L 932.185368 -109.183879 
L 932.185368 -109.183879 
L 902.06899 -121.105922 
L 871.952613 -132.730048 
L 841.836236 -136.695847 
L 811.719859 -155.254546 
L 781.603482 -167.315251 
L 751.487105 -182.945373 
L 721.370728 -198.772438 
L 691.254351 -221.937966 
L 661.137973 -250.574197 
L 631.021596 -273.292182 
L 600.905219 -311.834375 
z
" style="stroke: #000000; stroke-opacity: 0.25"/>
    </defs>
    <g clip-path="url(#pb8b6dbc715)">
     <use xlink:href="#m779f716a4d" x="0" y="378.791875" style="fill-opacity: 0.25; stroke: #000000; stroke-opacity: 0.25"/>
    </g>
   </g>
   <g id="matplotlib.axis_3">
    <g id="xtick_6">
     <g id="line2d_45">
      <g>
       <use xlink:href="#m5a518fe258" x="600.905219" y="331.5575" style="stroke: #000000; stroke-width: 0.8"/>
      </g>
     </g>
     <g id="text_32">
      <!-- 10 -->
      <g transform="translate(591.997719 349.195312) scale(0.14 -0.14)">
       <use xlink:href="#DejaVuSans-31"/>
       <use xlink:href="#DejaVuSans-30" transform="translate(63.623047 0)"/>
      </g>
     </g>
    </g>
    <g id="xtick_7">
     <g id="line2d_46">
      <g>
       <use xlink:href="#m5a518fe258" x="676.196162" y="331.5575" style="stroke: #000000; stroke-width: 0.8"/>
      </g>
     </g>
     <g id="text_33">
      <!-- 15 -->
      <g transform="translate(667.288662 349.195312) scale(0.14 -0.14)">
       <use xlink:href="#DejaVuSans-31"/>
       <use xlink:href="#DejaVuSans-35" transform="translate(63.623047 0)"/>
      </g>
     </g>
    </g>
    <g id="xtick_8">
     <g id="line2d_47">
      <g>
       <use xlink:href="#m5a518fe258" x="751.487105" y="331.5575" style="stroke: #000000; stroke-width: 0.8"/>
      </g>
     </g>
     <g id="text_34">
      <!-- 20 -->
      <g transform="translate(742.579605 349.195312) scale(0.14 -0.14)">
       <use xlink:href="#DejaVuSans-32"/>
       <use xlink:href="#DejaVuSans-30" transform="translate(63.623047 0)"/>
      </g>
     </g>
    </g>
    <g id="xtick_9">
     <g id="line2d_48">
      <g>
       <use xlink:href="#m5a518fe258" x="826.778048" y="331.5575" style="stroke: #000000; stroke-width: 0.8"/>
      </g>
     </g>
     <g id="text_35">
      <!-- 25 -->
      <g transform="translate(817.870548 349.195312) scale(0.14 -0.14)">
       <use xlink:href="#DejaVuSans-32"/>
       <use xlink:href="#DejaVuSans-35" transform="translate(63.623047 0)"/>
      </g>
     </g>
    </g>
    <g id="xtick_10">
     <g id="line2d_49">
      <g>
       <use xlink:href="#m5a518fe258" x="902.06899" y="331.5575" style="stroke: #000000; stroke-width: 0.8"/>
      </g>
     </g>
     <g id="text_36">
      <!-- 30 -->
      <g transform="translate(893.16149 349.195312) scale(0.14 -0.14)">
       <use xlink:href="#DejaVuSans-33"/>
       <use xlink:href="#DejaVuSans-30" transform="translate(63.623047 0)"/>
      </g>
     </g>
    </g>
    <g id="text_37">
     <!-- Number of Competitors (M) -->
     <g transform="translate(656.802793 368.264375) scale(0.16 -0.16)">
      <defs>
       <path id="DejaVuSans-4e" d="M 628 4666 
L 1478 4666 
L 3547 763 
L 3547 4666 
L 4159 4666 
L 4159 0 
L 3309 0 
L 1241 3903 
L 1241 0 
L 628 0 
L 628 4666 
z
" transform="scale(0.015625)"/>
       <path id="DejaVuSans-66" d="M 2375 4863 
L 2375 4384 
L 1825 4384 
Q 1516 4384 1395 4259 
Q 1275 4134 1275 3809 
L 1275 3500 
L 2222 3500 
L 2222 3053 
L 1275 3053 
L 1275 0 
L 697 0 
L 697 3053 
L 147 3053 
L 147 3500 
L 697 3500 
L 697 3744 
Q 697 4328 969 4595 
Q 1241 4863 1831 4863 
L 2375 4863 
z
" transform="scale(0.015625)"/>
       <path id="DejaVuSans-28" d="M 1984 4856 
Q 1566 4138 1362 3434 
Q 1159 2731 1159 2009 
Q 1159 1288 1364 580 
Q 1569 -128 1984 -844 
L 1484 -844 
Q 1016 -109 783 600 
Q 550 1309 550 2009 
Q 550 2706 781 3412 
Q 1013 4119 1484 4856 
L 1984 4856 
z
" transform="scale(0.015625)"/>
       <path id="DejaVuSans-29" d="M 513 4856 
L 1013 4856 
Q 1481 4119 1714 3412 
Q 1947 2706 1947 2009 
Q 1947 1309 1714 600 
Q 1481 -109 1013 -844 
L 513 -844 
Q 928 -128 1133 580 
Q 1338 1288 1338 2009 
Q 1338 2731 1133 3434 
Q 928 4138 513 4856 
z
" transform="scale(0.015625)"/>
      </defs>
      <use xlink:href="#DejaVuSans-4e"/>
      <use xlink:href="#DejaVuSans-75" transform="translate(74.804688 0)"/>
      <use xlink:href="#DejaVuSans-6d" transform="translate(138.183594 0)"/>
      <use xlink:href="#DejaVuSans-62" transform="translate(235.595703 0)"/>
      <use xlink:href="#DejaVuSans-65" transform="translate(299.072266 0)"/>
      <use xlink:href="#DejaVuSans-72" transform="translate(360.595703 0)"/>
      <use xlink:href="#DejaVuSans-20" transform="translate(401.708984 0)"/>
      <use xlink:href="#DejaVuSans-6f" transform="translate(433.496094 0)"/>
      <use xlink:href="#DejaVuSans-66" transform="translate(494.677734 0)"/>
      <use xlink:href="#DejaVuSans-20" transform="translate(529.882812 0)"/>
      <use xlink:href="#DejaVuSans-43" transform="translate(561.669922 0)"/>
      <use xlink:href="#DejaVuSans-6f" transform="translate(631.494141 0)"/>
      <use xlink:href="#DejaVuSans-6d" transform="translate(692.675781 0)"/>
      <use xlink:href="#DejaVuSans-70" transform="translate(790.087891 0)"/>
      <use xlink:href="#DejaVuSans-65" transform="translate(853.564453 0)"/>
      <use xlink:href="#DejaVuSans-74" transform="translate(915.087891 0)"/>
      <use xlink:href="#DejaVuSans-69" transform="translate(954.296875 0)"/>
      <use xlink:href="#DejaVuSans-74" transform="translate(982.080078 0)"/>
      <use xlink:href="#DejaVuSans-6f" transform="translate(1021.289062 0)"/>
      <use xlink:href="#DejaVuSans-72" transform="translate(1082.470703 0)"/>
      <use xlink:href="#DejaVuSans-73" transform="translate(1123.583984 0)"/>
      <use xlink:href="#DejaVuSans-20" transform="translate(1175.683594 0)"/>
      <use xlink:href="#DejaVuSans-28" transform="translate(1207.470703 0)"/>
      <use xlink:href="#DejaVuSans-4d" transform="translate(1246.484375 0)"/>
      <use xlink:href="#DejaVuSans-29" transform="translate(1332.763672 0)"/>
     </g>
    </g>
   </g>
   <g id="matplotlib.axis_4">
    <g id="ytick_7">
     <g id="line2d_50">
      <path d="M 584.341212 301.769793 
L 948.749375 301.769793 
" clip-path="url(#pb8b6dbc715)" style="fill: none; stroke-dasharray: 1.85,0.8; stroke-dashoffset: 0; stroke: #b0b0b0; stroke-opacity: 0.3; stroke-width: 0.5"/>
     </g>
     <g id="line2d_51">
      <g>
       <use xlink:href="#m0948686497" x="584.341212" y="301.769793" style="stroke: #000000; stroke-width: 0.8"/>
      </g>
     </g>
     <g id="text_38">
      <!-- 2.0 -->
      <g transform="translate(555.076837 307.0887) scale(0.14 -0.14)">
       <use xlink:href="#DejaVuSans-32"/>
       <use xlink:href="#DejaVuSans-2e" transform="translate(63.623047 0)"/>
       <use xlink:href="#DejaVuSans-30" transform="translate(95.410156 0)"/>
      </g>
     </g>
    </g>
    <g id="ytick_8">
     <g id="line2d_52">
      <path d="M 584.341212 264.774882 
L 948.749375 264.774882 
" clip-path="url(#pb8b6dbc715)" style="fill: none; stroke-dasharray: 1.85,0.8; stroke-dashoffset: 0; stroke: #b0b0b0; stroke-opacity: 0.3; stroke-width: 0.5"/>
     </g>
     <g id="line2d_53">
      <g>
       <use xlink:href="#m0948686497" x="584.341212" y="264.774882" style="stroke: #000000; stroke-width: 0.8"/>
      </g>
     </g>
     <g id="text_39">
      <!-- 2.2 -->
      <g transform="translate(555.076837 270.093789) scale(0.14 -0.14)">
       <use xlink:href="#DejaVuSans-32"/>
       <use xlink:href="#DejaVuSans-2e" transform="translate(63.623047 0)"/>
       <use xlink:href="#DejaVuSans-32" transform="translate(95.410156 0)"/>
      </g>
     </g>
    </g>
    <g id="ytick_9">
     <g id="line2d_54">
      <path d="M 584.341212 227.779972 
L 948.749375 227.779972 
" clip-path="url(#pb8b6dbc715)" style="fill: none; stroke-dasharray: 1.85,0.8; stroke-dashoffset: 0; stroke: #b0b0b0; stroke-opacity: 0.3; stroke-width: 0.5"/>
     </g>
     <g id="line2d_55">
      <g>
       <use xlink:href="#m0948686497" x="584.341212" y="227.779972" style="stroke: #000000; stroke-width: 0.8"/>
      </g>
     </g>
     <g id="text_40">
      <!-- 2.4 -->
      <g transform="translate(555.076837 233.098878) scale(0.14 -0.14)">
       <use xlink:href="#DejaVuSans-32"/>
       <use xlink:href="#DejaVuSans-2e" transform="translate(63.623047 0)"/>
       <use xlink:href="#DejaVuSans-34" transform="translate(95.410156 0)"/>
      </g>
     </g>
    </g>
    <g id="ytick_10">
     <g id="line2d_56">
      <path d="M 584.341212 190.785061 
L 948.749375 190.785061 
" clip-path="url(#pb8b6dbc715)" style="fill: none; stroke-dasharray: 1.85,0.8; stroke-dashoffset: 0; stroke: #b0b0b0; stroke-opacity: 0.3; stroke-width: 0.5"/>
     </g>
     <g id="line2d_57">
      <g>
       <use xlink:href="#m0948686497" x="584.341212" y="190.785061" style="stroke: #000000; stroke-width: 0.8"/>
      </g>
     </g>
     <g id="text_41">
      <!-- 2.6 -->
      <g transform="translate(555.076837 196.103967) scale(0.14 -0.14)">
       <use xlink:href="#DejaVuSans-32"/>
       <use xlink:href="#DejaVuSans-2e" transform="translate(63.623047 0)"/>
       <use xlink:href="#DejaVuSans-36" transform="translate(95.410156 0)"/>
      </g>
     </g>
    </g>
    <g id="ytick_11">
     <g id="line2d_58">
      <path d="M 584.341212 153.79015 
L 948.749375 153.79015 
" clip-path="url(#pb8b6dbc715)" style="fill: none; stroke-dasharray: 1.85,0.8; stroke-dashoffset: 0; stroke: #b0b0b0; stroke-opacity: 0.3; stroke-width: 0.5"/>
     </g>
     <g id="line2d_59">
      <g>
       <use xlink:href="#m0948686497" x="584.341212" y="153.79015" style="stroke: #000000; stroke-width: 0.8"/>
      </g>
     </g>
     <g id="text_42">
      <!-- 2.8 -->
      <g transform="translate(555.076837 159.109056) scale(0.14 -0.14)">
       <use xlink:href="#DejaVuSans-32"/>
       <use xlink:href="#DejaVuSans-2e" transform="translate(63.623047 0)"/>
       <use xlink:href="#DejaVuSans-38" transform="translate(95.410156 0)"/>
      </g>
     </g>
    </g>
    <g id="ytick_12">
     <g id="line2d_60">
      <path d="M 584.341212 116.795239 
L 948.749375 116.795239 
" clip-path="url(#pb8b6dbc715)" style="fill: none; stroke-dasharray: 1.85,0.8; stroke-dashoffset: 0; stroke: #b0b0b0; stroke-opacity: 0.3; stroke-width: 0.5"/>
     </g>
     <g id="line2d_61">
      <g>
       <use xlink:href="#m0948686497" x="584.341212" y="116.795239" style="stroke: #000000; stroke-width: 0.8"/>
      </g>
     </g>
     <g id="text_43">
      <!-- 3.0 -->
      <g transform="translate(555.076837 122.114145) scale(0.14 -0.14)">
       <use xlink:href="#DejaVuSans-33"/>
       <use xlink:href="#DejaVuSans-2e" transform="translate(63.623047 0)"/>
       <use xlink:href="#DejaVuSans-30" transform="translate(95.410156 0)"/>
      </g>
     </g>
    </g>
    <g id="ytick_13">
     <g id="line2d_62">
      <path d="M 584.341212 79.800328 
L 948.749375 79.800328 
" clip-path="url(#pb8b6dbc715)" style="fill: none; stroke-dasharray: 1.85,0.8; stroke-dashoffset: 0; stroke: #b0b0b0; stroke-opacity: 0.3; stroke-width: 0.5"/>
     </g>
     <g id="line2d_63">
      <g>
       <use xlink:href="#m0948686497" x="584.341212" y="79.800328" style="stroke: #000000; stroke-width: 0.8"/>
      </g>
     </g>
     <g id="text_44">
      <!-- 3.2 -->
      <g transform="translate(555.076837 85.119234) scale(0.14 -0.14)">
       <use xlink:href="#DejaVuSans-33"/>
       <use xlink:href="#DejaVuSans-2e" transform="translate(63.623047 0)"/>
       <use xlink:href="#DejaVuSans-32" transform="translate(95.410156 0)"/>
      </g>
     </g>
    </g>
    <g id="text_45">
     <!-- Film Items Recalled -->
     <g transform="translate(547.749337 270.54875) rotate(-90) scale(0.16 -0.16)">
      <defs>
       <path id="DejaVuSans-46" d="M 628 4666 
L 3309 4666 
L 3309 4134 
L 1259 4134 
L 1259 2759 
L 3109 2759 
L 3109 2228 
L 1259 2228 
L 1259 0 
L 628 0 
L 628 4666 
z
" transform="scale(0.015625)"/>
       <path id="DejaVuSans-49" d="M 628 4666 
L 1259 4666 
L 1259 0 
L 628 0 
L 628 4666 
z
" transform="scale(0.015625)"/>
      </defs>
      <use xlink:href="#DejaVuSans-46"/>
      <use xlink:href="#DejaVuSans-69" transform="translate(50.269531 0)"/>
      <use xlink:href="#DejaVuSans-6c" transform="translate(78.052734 0)"/>
      <use xlink:href="#DejaVuSans-6d" transform="translate(105.835938 0)"/>
      <use xlink:href="#DejaVuSans-20" transform="translate(203.248047 0)"/>
      <use xlink:href="#DejaVuSans-49" transform="translate(235.035156 0)"/>
      <use xlink:href="#DejaVuSans-74" transform="translate(264.527344 0)"/>
      <use xlink:href="#DejaVuSans-65" transform="translate(303.736328 0)"/>
      <use xlink:href="#DejaVuSans-6d" transform="translate(365.259766 0)"/>
      <use xlink:href="#DejaVuSans-73" transform="translate(462.671875 0)"/>
      <use xlink:href="#DejaVuSans-20" transform="translate(514.771484 0)"/>
      <use xlink:href="#DejaVuSans-52" transform="translate(546.558594 0)"/>
      <use xlink:href="#DejaVuSans-65" transform="translate(611.541016 0)"/>
      <use xlink:href="#DejaVuSans-63" transform="translate(673.064453 0)"/>
      <use xlink:href="#DejaVuSans-61" transform="translate(728.044922 0)"/>
      <use xlink:href="#DejaVuSans-6c" transform="translate(789.324219 0)"/>
      <use xlink:href="#DejaVuSans-6c" transform="translate(817.107422 0)"/>
      <use xlink:href="#DejaVuSans-65" transform="translate(844.890625 0)"/>
      <use xlink:href="#DejaVuSans-64" transform="translate(906.414062 0)"/>
     </g>
    </g>
   </g>
   <g id="line2d_64">
    <path d="M 600.905219 97.402234 
L 631.021596 134.602667 
L 661.137973 157.225391 
L 691.254351 185.118317 
L 721.370728 206.816191 
L 751.487105 222.759233 
L 781.603482 238.34995 
L 811.719859 250.182392 
L 841.836236 267.197141 
L 871.952613 271.777466 
L 902.06899 283.448452 
L 932.185368 294.282748 
" clip-path="url(#pb8b6dbc715)" style="fill: none; stroke: #000000; stroke-width: 1.5; stroke-linecap: square"/>
    <defs>
     <path id="m78f909efb6" d="M 0 2.5 
C 0.663008 2.5 1.29895 2.236584 1.767767 1.767767 
C 2.236584 1.29895 2.5 0.663008 2.5 0 
C 2.5 -0.663008 2.236584 -1.29895 1.767767 -1.767767 
C 1.29895 -2.236584 0.663008 -2.5 0 -2.5 
C -0.663008 -2.5 -1.29895 -2.236584 -1.767767 -1.767767 
C -2.236584 -1.29895 -2.5 -0.663008 -2.5 0 
C -2.5 0.663008 -2.236584 1.29895 -1.767767 1.767767 
C -1.29895 2.236584 -0.663008 2.5 0 2.5 
z
" style="stroke: #000000"/>
    </defs>
    <g clip-path="url(#pb8b6dbc715)">
     <use xlink:href="#m78f909efb6" x="600.905219" y="97.402234" style="stroke: #000000"/>
     <use xlink:href="#m78f909efb6" x="631.021596" y="134.602667" style="stroke: #000000"/>
     <use xlink:href="#m78f909efb6" x="661.137973" y="157.225391" style="stroke: #000000"/>
     <use xlink:href="#m78f909efb6" x="691.254351" y="185.118317" style="stroke: #000000"/>
     <use xlink:href="#m78f909efb6" x="721.370728" y="206.816191" style="stroke: #000000"/>
     <use xlink:href="#m78f909efb6" x="751.487105" y="222.759233" style="stroke: #000000"/>
     <use xlink:href="#m78f909efb6" x="781.603482" y="238.34995" style="stroke: #000000"/>
     <use xlink:href="#m78f909efb6" x="811.719859" y="250.182392" style="stroke: #000000"/>
     <use xlink:href="#m78f909efb6" x="841.836236" y="267.197141" style="stroke: #000000"/>
     <use xlink:href="#m78f909efb6" x="871.952613" y="271.777466" style="stroke: #000000"/>
     <use xlink:href="#m78f909efb6" x="902.06899" y="283.448452" style="stroke: #000000"/>
     <use xlink:href="#m78f909efb6" x="932.185368" y="294.282748" style="stroke: #000000"/>
    </g>
   </g>
   <g id="patch_7">
    <path d="M 584.341212 331.5575 
L 584.341212 54.3575 
" style="fill: none; stroke: #000000; stroke-width: 0.8; stroke-linejoin: miter; stroke-linecap: square"/>
   </g>
   <g id="patch_8">
    <path d="M 584.341212 331.5575 
L 948.749375 331.5575 
" style="fill: none; stroke: #000000; stroke-width: 0.8; stroke-linejoin: miter; stroke-linecap: square"/>
   </g>
   <g id="text_46">
    <!-- Film Items Recalled -->
    <g transform="translate(688.954043 19.3575) scale(0.16 -0.16)">
     <use xlink:href="#DejaVuSans-46"/>
     <use xlink:href="#DejaVuSans-69" transform="translate(50.269531 0)"/>
     <use xlink:href="#DejaVuSans-6c" transform="translate(78.052734 0)"/>
     <use xlink:href="#DejaVuSans-6d" transform="translate(105.835938 0)"/>
     <use xlink:href="#DejaVuSans-20" transform="translate(203.248047 0)"/>
     <use xlink:href="#DejaVuSans-49" transform="translate(235.035156 0)"/>
     <use xlink:href="#DejaVuSans-74" transform="translate(264.527344 0)"/>
     <use xlink:href="#DejaVuSans-65" transform="translate(303.736328 0)"/>
     <use xlink:href="#DejaVuSans-6d" transform="translate(365.259766 0)"/>
     <use xlink:href="#DejaVuSans-73" transform="translate(462.671875 0)"/>
     <use xlink:href="#DejaVuSans-20" transform="translate(514.771484 0)"/>
     <use xlink:href="#DejaVuSans-52" transform="translate(546.558594 0)"/>
     <use xlink:href="#DejaVuSans-65" transform="translate(611.541016 0)"/>
     <use xlink:href="#DejaVuSans-63" transform="translate(673.064453 0)"/>
     <use xlink:href="#DejaVuSans-61" transform="translate(728.044922 0)"/>
     <use xlink:href="#DejaVuSans-6c" transform="translate(789.324219 0)"/>
     <use xlink:href="#DejaVuSans-6c" transform="translate(817.107422 0)"/>
     <use xlink:href="#DejaVuSans-65" transform="translate(844.890625 0)"/>
     <use xlink:href="#DejaVuSans-64" transform="translate(906.414062 0)"/>
    </g>
   </g>
  </g>
 </g>
 <defs>
  <clipPath id="p0504417766">
   <rect x="55.949375" y="54.3575" width="364.408163" height="277.2"/>
  </clipPath>
  <clipPath id="pb8b6dbc715">
   <rect x="584.341212" y="54.3575" width="364.408163" height="277.2"/>
  </clipPath>
 </defs>
</svg>
