<?xml version="1.0" encoding="utf-8" standalone="no"?>
<!DOCTYPE svg PUBLIC "-//W3C//DTD SVG 1.1//EN"
  "http://www.w3.org/Graphics/SVG/1.1/DTD/svg11.dtd">
<svg xmlns:xlink="http://www.w3.org/1999/xlink" width="964.856875pt" height="378.791875pt" viewBox="0 0 964.856875 378.791875" xmlns="http://www.w3.org/2000/svg" version="1.1">
 <metadata>
  <rdf:RDF xmlns:dc="http://purl.org/dc/elements/1.1/" xmlns:cc="http://creativecommons.org/ns#" xmlns:rdf="http://www.w3.org/1999/02/22-rdf-syntax-ns#">
   <cc:Work>
    <dc:type rdf:resource="http://purl.org/dc/dcmitype/StillImage"/>
    <dc:date>2026-03-03T10:00:36.750377</dc:date>
    <dc:format>image/svg+xml</dc:format>
    <dc:creator>
     <cc:Agent>
      <dc:title>Matplotlib v3.10.1, https://matplotlib.org/</dc:title>
     </cc:Agent>
    </dc:creator>
   </cc:Work>
  </rdf:RDF>
 </metadata>
 <defs>
  <style type="text/css">*{stroke-linejoin: round; stroke-linecap: butt}</style>
 </defs>
 <g id="figure_1">
  <g id="patch_1">
   <path d="M 0 378.791875 
L 964.856875 378.791875 
L 964.856875 0 
L 0 0 
z
" style="fill: #ffffff"/>
  </g>
  <g id="axes_1">
   <g id="patch_2">
    <path d="M 64.856875 331.5575 
L 429.265038 331.5575 
L 429.265038 54.3575 
L 64.856875 54.3575 
z
" style="fill: #ffffff"/>
   </g>
   <g id="matplotlib.axis_1">
    <g id="xtick_1">
     <g id="line2d_1">
      <defs>
       <path id="mb9fea3e7fd" d="M 0 0 
L 0 3.5 
" style="stroke: #000000; stroke-width: 0.8"/>
      </defs>
      <g>
       <use xlink:href="#mb9fea3e7fd" x="70.734426" y="331.5575" style="stroke: #000000; stroke-width: 0.8"/>
      </g>
     </g>
     <g id="text_1">
      <!-- 0 -->
      <g transform="translate(66.280676 349.195312) scale(0.14 -0.14)">
       <defs>
        <path id="DejaVuSans-30" d="M 2034 4250 
Q 1547 4250 1301 3770 
Q 1056 3291 1056 2328 
Q 1056 1369 1301 889 
Q 1547 409 2034 409 
Q 2525 409 2770 889 
Q 3016 1369 3016 2328 
Q 3016 3291 2770 3770 
Q 2525 4250 2034 4250 
z
M 2034 4750 
Q 2819 4750 3233 4129 
Q 3647 3509 3647 2328 
Q 3647 1150 3233 529 
Q 2819 -91 2034 -91 
Q 1250 -91 836 529 
Q 422 1150 422 2328 
Q 422 3509 836 4129 
Q 1250 4750 2034 4750 
z
" transform="scale(0.015625)"/>
       </defs>
       <use xlink:href="#DejaVuSans-30"/>
      </g>
     </g>
    </g>
    <g id="xtick_2">
     <g id="line2d_2">
      <g>
       <use xlink:href="#mb9fea3e7fd" x="124.166708" y="331.5575" style="stroke: #000000; stroke-width: 0.8"/>
      </g>
     </g>
     <g id="text_2">
      <!-- 5 -->
      <g transform="translate(119.712958 349.195312) scale(0.14 -0.14)">
       <defs>
        <path id="DejaVuSans-35" d="M 691 4666 
L 3169 4666 
L 3169 4134 
L 1269 4134 
L 1269 2991 
Q 1406 3038 1543 3061 
Q 1681 3084 1819 3084 
Q 2600 3084 3056 2656 
Q 3513 2228 3513 1497 
Q 3513 744 3044 326 
Q 2575 -91 1722 -91 
Q 1428 -91 1123 -41 
Q 819 9 494 109 
L 494 744 
Q 775 591 1075 516 
Q 1375 441 1709 441 
Q 2250 441 2565 725 
Q 2881 1009 2881 1497 
Q 2881 1984 2565 2268 
Q 2250 2553 1709 2553 
Q 1456 2553 1204 2497 
Q 953 2441 691 2322 
L 691 4666 
z
" transform="scale(0.015625)"/>
       </defs>
       <use xlink:href="#DejaVuSans-35"/>
      </g>
     </g>
    </g>
    <g id="xtick_3">
     <g id="line2d_3">
      <g>
       <use xlink:href="#mb9fea3e7fd" x="177.59899" y="331.5575" style="stroke: #000000; stroke-width: 0.8"/>
      </g>
     </g>
     <g id="text_3">
      <!-- 10 -->
      <g transform="translate(168.69149 349.195312) scale(0.14 -0.14)">
       <defs>
        <path id="DejaVuSans-31" d="M 794 531 
L 1825 531 
L 1825 4091 
L 703 3866 
L 703 4441 
L 1819 4666 
L 2450 4666 
L 2450 531 
L 3481 531 
L 3481 0 
L 794 0 
L 794 531 
z
" transform="scale(0.015625)"/>
       </defs>
       <use xlink:href="#DejaVuSans-31"/>
       <use xlink:href="#DejaVuSans-30" transform="translate(63.623047 0)"/>
      </g>
     </g>
    </g>
    <g id="xtick_4">
     <g id="line2d_4">
      <g>
       <use xlink:href="#mb9fea3e7fd" x="231.031272" y="331.5575" style="stroke: #000000; stroke-width: 0.8"/>
      </g>
     </g>
     <g id="text_4">
      <!-- 15 -->
      <g transform="translate(222.123772 349.195312) scale(0.14 -0.14)">
       <use xlink:href="#DejaVuSans-31"/>
       <use xlink:href="#DejaVuSans-35" transform="translate(63.623047 0)"/>
      </g>
     </g>
    </g>
    <g id="xtick_5">
     <g id="line2d_5">
      <g>
       <use xlink:href="#mb9fea3e7fd" x="284.463554" y="331.5575" style="stroke: #000000; stroke-width: 0.8"/>
      </g>
     </g>
     <g id="text_5">
      <!-- 20 -->
      <g transform="translate(275.556054 349.195312) scale(0.14 -0.14)">
       <defs>
        <path id="DejaVuSans-32" d="M 1228 531 
L 3431 531 
L 3431 0 
L 469 0 
L 469 531 
Q 828 903 1448 1529 
Q 2069 2156 2228 2338 
Q 2531 2678 2651 2914 
Q 2772 3150 2772 3378 
Q 2772 3750 2511 3984 
Q 2250 4219 1831 4219 
Q 1534 4219 1204 4116 
Q 875 4013 500 3803 
L 500 4441 
Q 881 4594 1212 4672 
Q 1544 4750 1819 4750 
Q 2544 4750 2975 4387 
Q 3406 4025 3406 3419 
Q 3406 3131 3298 2873 
Q 3191 2616 2906 2266 
Q 2828 2175 2409 1742 
Q 1991 1309 1228 531 
z
" transform="scale(0.015625)"/>
       </defs>
       <use xlink:href="#DejaVuSans-32"/>
       <use xlink:href="#DejaVuSans-30" transform="translate(63.623047 0)"/>
      </g>
     </g>
    </g>
    <g id="xtick_6">
     <g id="line2d_6">
      <g>
       <use xlink:href="#mb9fea3e7fd" x="337.895836" y="331.5575" style="stroke: #000000; stroke-width: 0.8"/>
      </g>
     </g>
     <g id="text_6">
      <!-- 25 -->
      <g transform="translate(328.988336 349.195312) scale(0.14 -0.14)">
       <use xlink:href="#DejaVuSans-32"/>
       <use xlink:href="#DejaVuSans-35" transform="translate(63.623047 0)"/>
      </g>
     </g>
    </g>
    <g id="xtick_7">
     <g id="line2d_7">
      <g>
       <use xlink:href="#mb9fea3e7fd" x="391.328118" y="331.5575" style="stroke: #000000; stroke-width: 0.8"/>
      </g>
     </g>
     <g id="text_7">
      <!-- 30 -->
      <g transform="translate(382.420618 349.195312) scale(0.14 -0.14)">
       <defs>
        <path id="DejaVuSans-33" d="M 2597 2516 
Q 3050 2419 3304 2112 
Q 3559 1806 3559 1356 
Q 3559 666 3084 287 
Q 2609 -91 1734 -91 
Q 1441 -91 1130 -33 
Q 819 25 488 141 
L 488 750 
Q 750 597 1062 519 
Q 1375 441 1716 441 
Q 2309 441 2620 675 
Q 2931 909 2931 1356 
Q 2931 1769 2642 2001 
Q 2353 2234 1838 2234 
L 1294 2234 
L 1294 2753 
L 1863 2753 
Q 2328 2753 2575 2939 
Q 2822 3125 2822 3475 
Q 2822 3834 2567 4026 
Q 2313 4219 1838 4219 
Q 1578 4219 1281 4162 
Q 984 4106 628 3988 
L 628 4550 
Q 988 4650 1302 4700 
Q 1616 4750 1894 4750 
Q 2613 4750 3031 4423 
Q 3450 4097 3450 3541 
Q 3450 3153 3228 2886 
Q 3006 2619 2597 2516 
z
" transform="scale(0.015625)"/>
       </defs>
       <use xlink:href="#DejaVuSans-33"/>
       <use xlink:href="#DejaVuSans-30" transform="translate(63.623047 0)"/>
      </g>
     </g>
    </g>
    <g id="text_8">
     <!-- Study Position -->
     <g transform="translate(190.277207 368.264375) scale(0.16 -0.16)">
      <defs>
       <path id="DejaVuSans-53" d="M 3425 4513 
L 3425 3897 
Q 3066 4069 2747 4153 
Q 2428 4238 2131 4238 
Q 1616 4238 1336 4038 
Q 1056 3838 1056 3469 
Q 1056 3159 1242 3001 
Q 1428 2844 1947 2747 
L 2328 2669 
Q 3034 2534 3370 2195 
Q 3706 1856 3706 1288 
Q 3706 609 3251 259 
Q 2797 -91 1919 -91 
Q 1588 -91 1214 -16 
Q 841 59 441 206 
L 441 856 
Q 825 641 1194 531 
Q 1563 422 1919 422 
Q 2459 422 2753 634 
Q 3047 847 3047 1241 
Q 3047 1584 2836 1778 
Q 2625 1972 2144 2069 
L 1759 2144 
Q 1053 2284 737 2584 
Q 422 2884 422 3419 
Q 422 4038 858 4394 
Q 1294 4750 2059 4750 
Q 2388 4750 2728 4690 
Q 3069 4631 3425 4513 
z
" transform="scale(0.015625)"/>
       <path id="DejaVuSans-74" d="M 1172 4494 
L 1172 3500 
L 2356 3500 
L 2356 3053 
L 1172 3053 
L 1172 1153 
Q 1172 725 1289 603 
Q 1406 481 1766 481 
L 2356 481 
L 2356 0 
L 1766 0 
Q 1100 0 847 248 
Q 594 497 594 1153 
L 594 3053 
L 172 3053 
L 172 3500 
L 594 3500 
L 594 4494 
L 1172 4494 
z
" transform="scale(0.015625)"/>
       <path id="DejaVuSans-75" d="M 544 1381 
L 544 3500 
L 1119 3500 
L 1119 1403 
Q 1119 906 1312 657 
Q 1506 409 1894 409 
Q 2359 409 2629 706 
Q 2900 1003 2900 1516 
L 2900 3500 
L 3475 3500 
L 3475 0 
L 2900 0 
L 2900 538 
Q 2691 219 2414 64 
Q 2138 -91 1772 -91 
Q 1169 -91 856 284 
Q 544 659 544 1381 
z
M 1991 3584 
L 1991 3584 
z
" transform="scale(0.015625)"/>
       <path id="DejaVuSans-64" d="M 2906 2969 
L 2906 4863 
L 3481 4863 
L 3481 0 
L 2906 0 
L 2906 525 
Q 2725 213 2448 61 
Q 2172 -91 1784 -91 
Q 1150 -91 751 415 
Q 353 922 353 1747 
Q 353 2572 751 3078 
Q 1150 3584 1784 3584 
Q 2172 3584 2448 3432 
Q 2725 3281 2906 2969 
z
M 947 1747 
Q 947 1113 1208 752 
Q 1469 391 1925 391 
Q 2381 391 2643 752 
Q 2906 1113 2906 1747 
Q 2906 2381 2643 2742 
Q 2381 3103 1925 3103 
Q 1469 3103 1208 2742 
Q 947 2381 947 1747 
z
" transform="scale(0.015625)"/>
       <path id="DejaVuSans-79" d="M 2059 -325 
Q 1816 -950 1584 -1140 
Q 1353 -1331 966 -1331 
L 506 -1331 
L 506 -850 
L 844 -850 
Q 1081 -850 1212 -737 
Q 1344 -625 1503 -206 
L 1606 56 
L 191 3500 
L 800 3500 
L 1894 763 
L 2988 3500 
L 3597 3500 
L 2059 -325 
z
" transform="scale(0.015625)"/>
       <path id="DejaVuSans-20" transform="scale(0.015625)"/>
       <path id="DejaVuSans-50" d="M 1259 4147 
L 1259 2394 
L 2053 2394 
Q 2494 2394 2734 2622 
Q 2975 2850 2975 3272 
Q 2975 3691 2734 3919 
Q 2494 4147 2053 4147 
L 1259 4147 
z
M 628 4666 
L 2053 4666 
Q 2838 4666 3239 4311 
Q 3641 3956 3641 3272 
Q 3641 2581 3239 2228 
Q 2838 1875 2053 1875 
L 1259 1875 
L 1259 0 
L 628 0 
L 628 4666 
z
" transform="scale(0.015625)"/>
       <path id="DejaVuSans-6f" d="M 1959 3097 
Q 1497 3097 1228 2736 
Q 959 2375 959 1747 
Q 959 1119 1226 758 
Q 1494 397 1959 397 
Q 2419 397 2687 759 
Q 2956 1122 2956 1747 
Q 2956 2369 2687 2733 
Q 2419 3097 1959 3097 
z
M 1959 3584 
Q 2709 3584 3137 3096 
Q 3566 2609 3566 1747 
Q 3566 888 3137 398 
Q 2709 -91 1959 -91 
Q 1206 -91 779 398 
Q 353 888 353 1747 
Q 353 2609 779 3096 
Q 1206 3584 1959 3584 
z
" transform="scale(0.015625)"/>
       <path id="DejaVuSans-73" d="M 2834 3397 
L 2834 2853 
Q 2591 2978 2328 3040 
Q 2066 3103 1784 3103 
Q 1356 3103 1142 2972 
Q 928 2841 928 2578 
Q 928 2378 1081 2264 
Q 1234 2150 1697 2047 
L 1894 2003 
Q 2506 1872 2764 1633 
Q 3022 1394 3022 966 
Q 3022 478 2636 193 
Q 2250 -91 1575 -91 
Q 1294 -91 989 -36 
Q 684 19 347 128 
L 347 722 
Q 666 556 975 473 
Q 1284 391 1588 391 
Q 1994 391 2212 530 
Q 2431 669 2431 922 
Q 2431 1156 2273 1281 
Q 2116 1406 1581 1522 
L 1381 1569 
Q 847 1681 609 1914 
Q 372 2147 372 2553 
Q 372 3047 722 3315 
Q 1072 3584 1716 3584 
Q 2034 3584 2315 3537 
Q 2597 3491 2834 3397 
z
" transform="scale(0.015625)"/>
       <path id="DejaVuSans-69" d="M 603 3500 
L 1178 3500 
L 1178 0 
L 603 0 
L 603 3500 
z
M 603 4863 
L 1178 4863 
L 1178 4134 
L 603 4134 
L 603 4863 
z
" transform="scale(0.015625)"/>
       <path id="DejaVuSans-6e" d="M 3513 2113 
L 3513 0 
L 2938 0 
L 2938 2094 
Q 2938 2591 2744 2837 
Q 2550 3084 2163 3084 
Q 1697 3084 1428 2787 
Q 1159 2491 1159 1978 
L 1159 0 
L 581 0 
L 581 3500 
L 1159 3500 
L 1159 2956 
Q 1366 3272 1645 3428 
Q 1925 3584 2291 3584 
Q 2894 3584 3203 3211 
Q 3513 2838 3513 2113 
z
" transform="scale(0.015625)"/>
      </defs>
      <use xlink:href="#DejaVuSans-53"/>
      <use xlink:href="#DejaVuSans-74" transform="translate(63.476562 0)"/>
      <use xlink:href="#DejaVuSans-75" transform="translate(102.685547 0)"/>
      <use xlink:href="#DejaVuSans-64" transform="translate(166.064453 0)"/>
      <use xlink:href="#DejaVuSans-79" transform="translate(229.541016 0)"/>
      <use xlink:href="#DejaVuSans-20" transform="translate(288.720703 0)"/>
      <use xlink:href="#DejaVuSans-50" transform="translate(320.507812 0)"/>
      <use xlink:href="#DejaVuSans-6f" transform="translate(377.185547 0)"/>
      <use xlink:href="#DejaVuSans-73" transform="translate(438.367188 0)"/>
      <use xlink:href="#DejaVuSans-69" transform="translate(490.466797 0)"/>
      <use xlink:href="#DejaVuSans-74" transform="translate(518.25 0)"/>
      <use xlink:href="#DejaVuSans-69" transform="translate(557.458984 0)"/>
      <use xlink:href="#DejaVuSans-6f" transform="translate(585.242188 0)"/>
      <use xlink:href="#DejaVuSans-6e" transform="translate(646.423828 0)"/>
     </g>
    </g>
   </g>
   <g id="matplotlib.axis_2">
    <g id="ytick_1">
     <g id="line2d_8">
      <path d="M 64.856875 314.313029 
L 429.265038 314.313029 
" clip-path="url(#p907020d6d5)" style="fill: none; stroke-dasharray: 1.85,0.8; stroke-dashoffset: 0; stroke: #b0b0b0; stroke-opacity: 0.3; stroke-width: 0.5"/>
     </g>
     <g id="line2d_9">
      <defs>
       <path id="mcfd6dbfddd" d="M 0 0 
L -3.5 0 
" style="stroke: #000000; stroke-width: 0.8"/>
      </defs>
      <g>
       <use xlink:href="#mcfd6dbfddd" x="64.856875" y="314.313029" style="stroke: #000000; stroke-width: 0.8"/>
      </g>
     </g>
     <g id="text_9">
      <!-- 0.05 -->
      <g transform="translate(26.685 319.631936) scale(0.14 -0.14)">
       <defs>
        <path id="DejaVuSans-2e" d="M 684 794 
L 1344 794 
L 1344 0 
L 684 0 
L 684 794 
z
" transform="scale(0.015625)"/>
       </defs>
       <use xlink:href="#DejaVuSans-30"/>
       <use xlink:href="#DejaVuSans-2e" transform="translate(63.623047 0)"/>
       <use xlink:href="#DejaVuSans-30" transform="translate(95.410156 0)"/>
       <use xlink:href="#DejaVuSans-35" transform="translate(159.033203 0)"/>
      </g>
     </g>
    </g>
    <g id="ytick_2">
     <g id="line2d_10">
      <path d="M 64.856875 267.119211 
L 429.265038 267.119211 
" clip-path="url(#p907020d6d5)" style="fill: none; stroke-dasharray: 1.85,0.8; stroke-dashoffset: 0; stroke: #b0b0b0; stroke-opacity: 0.3; stroke-width: 0.5"/>
     </g>
     <g id="line2d_11">
      <g>
       <use xlink:href="#mcfd6dbfddd" x="64.856875" y="267.119211" style="stroke: #000000; stroke-width: 0.8"/>
      </g>
     </g>
     <g id="text_10">
      <!-- 0.10 -->
      <g transform="translate(26.685 272.438117) scale(0.14 -0.14)">
       <use xlink:href="#DejaVuSans-30"/>
       <use xlink:href="#DejaVuSans-2e" transform="translate(63.623047 0)"/>
       <use xlink:href="#DejaVuSans-31" transform="translate(95.410156 0)"/>
       <use xlink:href="#DejaVuSans-30" transform="translate(159.033203 0)"/>
      </g>
     </g>
    </g>
    <g id="ytick_3">
     <g id="line2d_12">
      <path d="M 64.856875 219.925393 
L 429.265038 219.925393 
" clip-path="url(#p907020d6d5)" style="fill: none; stroke-dasharray: 1.85,0.8; stroke-dashoffset: 0; stroke: #b0b0b0; stroke-opacity: 0.3; stroke-width: 0.5"/>
     </g>
     <g id="line2d_13">
      <g>
       <use xlink:href="#mcfd6dbfddd" x="64.856875" y="219.925393" style="stroke: #000000; stroke-width: 0.8"/>
      </g>
     </g>
     <g id="text_11">
      <!-- 0.15 -->
      <g transform="translate(26.685 225.244299) scale(0.14 -0.14)">
       <use xlink:href="#DejaVuSans-30"/>
       <use xlink:href="#DejaVuSans-2e" transform="translate(63.623047 0)"/>
       <use xlink:href="#DejaVuSans-31" transform="translate(95.410156 0)"/>
       <use xlink:href="#DejaVuSans-35" transform="translate(159.033203 0)"/>
      </g>
     </g>
    </g>
    <g id="ytick_4">
     <g id="line2d_14">
      <path d="M 64.856875 172.731575 
L 429.265038 172.731575 
" clip-path="url(#p907020d6d5)" style="fill: none; stroke-dasharray: 1.85,0.8; stroke-dashoffset: 0; stroke: #b0b0b0; stroke-opacity: 0.3; stroke-width: 0.5"/>
     </g>
     <g id="line2d_15">
      <g>
       <use xlink:href="#mcfd6dbfddd" x="64.856875" y="172.731575" style="stroke: #000000; stroke-width: 0.8"/>
      </g>
     </g>
     <g id="text_12">
      <!-- 0.20 -->
      <g transform="translate(26.685 178.050481) scale(0.14 -0.14)">
       <use xlink:href="#DejaVuSans-30"/>
       <use xlink:href="#DejaVuSans-2e" transform="translate(63.623047 0)"/>
       <use xlink:href="#DejaVuSans-32" transform="translate(95.410156 0)"/>
       <use xlink:href="#DejaVuSans-30" transform="translate(159.033203 0)"/>
      </g>
     </g>
    </g>
    <g id="ytick_5">
     <g id="line2d_16">
      <path d="M 64.856875 125.537757 
L 429.265038 125.537757 
" clip-path="url(#p907020d6d5)" style="fill: none; stroke-dasharray: 1.85,0.8; stroke-dashoffset: 0; stroke: #b0b0b0; stroke-opacity: 0.3; stroke-width: 0.5"/>
     </g>
     <g id="line2d_17">
      <g>
       <use xlink:href="#mcfd6dbfddd" x="64.856875" y="125.537757" style="stroke: #000000; stroke-width: 0.8"/>
      </g>
     </g>
     <g id="text_13">
      <!-- 0.25 -->
      <g transform="translate(26.685 130.856663) scale(0.14 -0.14)">
       <use xlink:href="#DejaVuSans-30"/>
       <use xlink:href="#DejaVuSans-2e" transform="translate(63.623047 0)"/>
       <use xlink:href="#DejaVuSans-32" transform="translate(95.410156 0)"/>
       <use xlink:href="#DejaVuSans-35" transform="translate(159.033203 0)"/>
      </g>
     </g>
    </g>
    <g id="ytick_6">
     <g id="line2d_18">
      <path d="M 64.856875 78.343939 
L 429.265038 78.343939 
" clip-path="url(#p907020d6d5)" style="fill: none; stroke-dasharray: 1.85,0.8; stroke-dashoffset: 0; stroke: #b0b0b0; stroke-opacity: 0.3; stroke-width: 0.5"/>
     </g>
     <g id="line2d_19">
      <g>
       <use xlink:href="#mcfd6dbfddd" x="64.856875" y="78.343939" style="stroke: #000000; stroke-width: 0.8"/>
      </g>
     </g>
     <g id="text_14">
      <!-- 0.30 -->
      <g transform="translate(26.685 83.662845) scale(0.14 -0.14)">
       <use xlink:href="#DejaVuSans-30"/>
       <use xlink:href="#DejaVuSans-2e" transform="translate(63.623047 0)"/>
       <use xlink:href="#DejaVuSans-33" transform="translate(95.410156 0)"/>
       <use xlink:href="#DejaVuSans-30" transform="translate(159.033203 0)"/>
      </g>
     </g>
    </g>
    <g id="text_15">
     <!-- Recall Probability -->
     <g transform="translate(19.3575 261.65375) rotate(-90) scale(0.16 -0.16)">
      <defs>
       <path id="DejaVuSans-52" d="M 2841 2188 
Q 3044 2119 3236 1894 
Q 3428 1669 3622 1275 
L 4263 0 
L 3584 0 
L 2988 1197 
Q 2756 1666 2539 1819 
Q 2322 1972 1947 1972 
L 1259 1972 
L 1259 0 
L 628 0 
L 628 4666 
L 2053 4666 
Q 2853 4666 3247 4331 
Q 3641 3997 3641 3322 
Q 3641 2881 3436 2590 
Q 3231 2300 2841 2188 
z
M 1259 4147 
L 1259 2491 
L 2053 2491 
Q 2509 2491 2742 2702 
Q 2975 2913 2975 3322 
Q 2975 3731 2742 3939 
Q 2509 4147 2053 4147 
L 1259 4147 
z
" transform="scale(0.015625)"/>
       <path id="DejaVuSans-65" d="M 3597 1894 
L 3597 1613 
L 953 1613 
Q 991 1019 1311 708 
Q 1631 397 2203 397 
Q 2534 397 2845 478 
Q 3156 559 3463 722 
L 3463 178 
Q 3153 47 2828 -22 
Q 2503 -91 2169 -91 
Q 1331 -91 842 396 
Q 353 884 353 1716 
Q 353 2575 817 3079 
Q 1281 3584 2069 3584 
Q 2775 3584 3186 3129 
Q 3597 2675 3597 1894 
z
M 3022 2063 
Q 3016 2534 2758 2815 
Q 2500 3097 2075 3097 
Q 1594 3097 1305 2825 
Q 1016 2553 972 2059 
L 3022 2063 
z
" transform="scale(0.015625)"/>
       <path id="DejaVuSans-63" d="M 3122 3366 
L 3122 2828 
Q 2878 2963 2633 3030 
Q 2388 3097 2138 3097 
Q 1578 3097 1268 2742 
Q 959 2388 959 1747 
Q 959 1106 1268 751 
Q 1578 397 2138 397 
Q 2388 397 2633 464 
Q 2878 531 3122 666 
L 3122 134 
Q 2881 22 2623 -34 
Q 2366 -91 2075 -91 
Q 1284 -91 818 406 
Q 353 903 353 1747 
Q 353 2603 823 3093 
Q 1294 3584 2113 3584 
Q 2378 3584 2631 3529 
Q 2884 3475 3122 3366 
z
" transform="scale(0.015625)"/>
       <path id="DejaVuSans-61" d="M 2194 1759 
Q 1497 1759 1228 1600 
Q 959 1441 959 1056 
Q 959 750 1161 570 
Q 1363 391 1709 391 
Q 2188 391 2477 730 
Q 2766 1069 2766 1631 
L 2766 1759 
L 2194 1759 
z
M 3341 1997 
L 3341 0 
L 2766 0 
L 2766 531 
Q 2569 213 2275 61 
Q 1981 -91 1556 -91 
Q 1019 -91 701 211 
Q 384 513 384 1019 
Q 384 1609 779 1909 
Q 1175 2209 1959 2209 
L 2766 2209 
L 2766 2266 
Q 2766 2663 2505 2880 
Q 2244 3097 1772 3097 
Q 1472 3097 1187 3025 
Q 903 2953 641 2809 
L 641 3341 
Q 956 3463 1253 3523 
Q 1550 3584 1831 3584 
Q 2591 3584 2966 3190 
Q 3341 2797 3341 1997 
z
" transform="scale(0.015625)"/>
       <path id="DejaVuSans-6c" d="M 603 4863 
L 1178 4863 
L 1178 0 
L 603 0 
L 603 4863 
z
" transform="scale(0.015625)"/>
       <path id="DejaVuSans-72" d="M 2631 2963 
Q 2534 3019 2420 3045 
Q 2306 3072 2169 3072 
Q 1681 3072 1420 2755 
Q 1159 2438 1159 1844 
L 1159 0 
L 581 0 
L 581 3500 
L 1159 3500 
L 1159 2956 
Q 1341 3275 1631 3429 
Q 1922 3584 2338 3584 
Q 2397 3584 2469 3576 
Q 2541 3569 2628 3553 
L 2631 2963 
z
" transform="scale(0.015625)"/>
       <path id="DejaVuSans-62" d="M 3116 1747 
Q 3116 2381 2855 2742 
Q 2594 3103 2138 3103 
Q 1681 3103 1420 2742 
Q 1159 2381 1159 1747 
Q 1159 1113 1420 752 
Q 1681 391 2138 391 
Q 2594 391 2855 752 
Q 3116 1113 3116 1747 
z
M 1159 2969 
Q 1341 3281 1617 3432 
Q 1894 3584 2278 3584 
Q 2916 3584 3314 3078 
Q 3713 2572 3713 1747 
Q 3713 922 3314 415 
Q 2916 -91 2278 -91 
Q 1894 -91 1617 61 
Q 1341 213 1159 525 
L 1159 0 
L 581 0 
L 581 4863 
L 1159 4863 
L 1159 2969 
z
" transform="scale(0.015625)"/>
      </defs>
      <use xlink:href="#DejaVuSans-52"/>
      <use xlink:href="#DejaVuSans-65" transform="translate(64.982422 0)"/>
      <use xlink:href="#DejaVuSans-63" transform="translate(126.505859 0)"/>
      <use xlink:href="#DejaVuSans-61" transform="translate(181.486328 0)"/>
      <use xlink:href="#DejaVuSans-6c" transform="translate(242.765625 0)"/>
      <use xlink:href="#DejaVuSans-6c" transform="translate(270.548828 0)"/>
      <use xlink:href="#DejaVuSans-20" transform="translate(298.332031 0)"/>
      <use xlink:href="#DejaVuSans-50" transform="translate(330.119141 0)"/>
      <use xlink:href="#DejaVuSans-72" transform="translate(388.671875 0)"/>
      <use xlink:href="#DejaVuSans-6f" transform="translate(427.535156 0)"/>
      <use xlink:href="#DejaVuSans-62" transform="translate(488.716797 0)"/>
      <use xlink:href="#DejaVuSans-61" transform="translate(552.193359 0)"/>
      <use xlink:href="#DejaVuSans-62" transform="translate(613.472656 0)"/>
      <use xlink:href="#DejaVuSans-69" transform="translate(676.949219 0)"/>
      <use xlink:href="#DejaVuSans-6c" transform="translate(704.732422 0)"/>
      <use xlink:href="#DejaVuSans-69" transform="translate(732.515625 0)"/>
      <use xlink:href="#DejaVuSans-74" transform="translate(760.298828 0)"/>
      <use xlink:href="#DejaVuSans-79" transform="translate(799.507812 0)"/>
     </g>
    </g>
   </g>
   <g id="line2d_20">
    <path d="M 81.420882 164.191745 
L 92.107339 171.757736 
L 102.793795 176.776765 
L 113.480252 172.806482 
L 124.166708 180.896853 
L 134.853164 179.698288 
L 145.539621 177.90042 
L 156.226077 180.747034 
L 166.912534 175.877824 
L 177.59899 175.728005 
L 188.285446 173.031224 
L 198.971903 172.506844 
L 209.658359 179.024089 
L 220.344816 170.484248 
L 231.031272 178.4248 
L 241.717728 175.952747 
L 252.404185 177.750601 
L 263.090641 182.469978 
L 273.777098 181.945613 
L 284.463554 178.724438 
L 295.15001 176.327294 
L 305.836467 182.694721 
L 316.522923 179.323727 
L 327.20938 181.571051 
L 337.895836 183.893285 
L 348.582292 182.469978 
L 359.268749 183.668557 
L 369.955205 180.447396 
L 380.641662 181.121581 
L 391.328118 184.342756 
L 402.014574 185.166774 
L 412.701031 187.788645 
" clip-path="url(#p907020d6d5)" style="fill: none; stroke: #bfbfbf; stroke-width: 1.5; stroke-linecap: square"/>
   </g>
   <g id="line2d_21">
    <path d="M 81.420882 136.549651 
L 92.107339 179.923016 
L 102.793795 188.462844 
L 113.480252 194.156072 
L 124.166708 190.48544 
L 134.853164 190.635259 
L 145.539621 189.511604 
L 156.226077 195.354636 
L 166.912534 193.631692 
L 177.59899 197.901613 
L 188.285446 195.42956 
L 198.971903 190.260712 
L 209.658359 188.462844 
L 220.344816 193.406964 
L 231.031272 193.556782 
L 241.717728 191.983657 
L 252.404185 200.074028 
L 263.090641 195.42956 
L 273.777098 203.14537 
L 284.463554 199.100191 
L 295.15001 200.074028 
L 305.836467 196.403396 
L 316.522923 201.871882 
L 327.20938 205.242876 
L 337.895836 201.497335 
L 348.582292 202.321352 
L 359.268749 197.826703 
L 369.955205 205.167966 
L 380.641662 202.321352 
L 391.328118 200.074028 
L 402.014574 200.673317 
L 412.701031 201.047864 
" clip-path="url(#p907020d6d5)" style="fill: none; stroke: #acacac; stroke-width: 1.5; stroke-linecap: square"/>
   </g>
   <g id="line2d_22">
    <path d="M 81.420882 112.428357 
L 92.107339 168.386742 
L 102.793795 185.990791 
L 113.480252 198.500902 
L 124.166708 205.542513 
L 134.853164 206.066893 
L 145.539621 206.141803 
L 156.226077 212.733957 
L 166.912534 206.066893 
L 177.59899 210.936089 
L 188.285446 210.037162 
L 198.971903 210.711361 
L 209.658359 206.890911 
L 220.344816 208.314218 
L 231.031272 214.082355 
L 241.717728 207.864747 
L 252.404185 217.678063 
L 263.090641 219.850478 
L 273.777098 219.475931 
L 284.463554 224.794598 
L 295.15001 225.918253 
L 305.836467 219.55084 
L 316.522923 220.749419 
L 327.20938 230.337993 
L 337.895836 222.622182 
L 348.582292 221.873074 
L 359.268749 223.895671 
L 369.955205 228.015759 
L 380.641662 226.442633 
L 391.328118 221.723255 
L 402.014574 222.172712 
L 412.701031 223.670928 
" clip-path="url(#p907020d6d5)" style="fill: none; stroke: #9a9a9a; stroke-width: 1.5; stroke-linecap: square"/>
   </g>
   <g id="line2d_23">
    <path d="M 81.420882 85.310643 
L 92.107339 148.011002 
L 102.793795 190.56035 
L 113.480252 203.295189 
L 124.166708 214.456902 
L 134.853164 219.62575 
L 145.539621 228.240501 
L 156.226077 230.038355 
L 166.912534 228.39032 
L 177.59899 237.978907 
L 188.285446 232.360589 
L 198.971903 232.435498 
L 209.658359 235.58175 
L 220.344816 231.911118 
L 231.031272 231.16201 
L 241.717728 236.330858 
L 252.404185 237.079966 
L 263.090641 244.8707 
L 273.777098 245.844536 
L 284.463554 243.597212 
L 295.15001 247.118024 
L 305.836467 250.788649 
L 316.522923 246.593644 
L 327.20938 247.867132 
L 337.895836 248.241686 
L 348.582292 246.294 
L 359.268749 248.466415 
L 369.955205 247.417662 
L 380.641662 247.417662 
L 391.328118 246.968198 
L 402.014574 248.466415 
L 412.701031 248.241686 
" clip-path="url(#p907020d6d5)" style="fill: none; stroke: #888888; stroke-width: 1.5; stroke-linecap: square"/>
   </g>
   <g id="line2d_24">
    <path d="M 81.420882 70.777936 
L 92.107339 130.931333 
L 102.793795 168.911122 
L 113.480252 195.42956 
L 124.166708 221.947984 
L 134.853164 232.135861 
L 145.539621 242.323723 
L 156.226077 249.065704 
L 166.912534 250.489011 
L 177.59899 252.811245 
L 188.285446 253.185799 
L 198.971903 248.915878 
L 209.658359 246.21909 
L 220.344816 249.964631 
L 231.031272 253.260708 
L 241.717728 253.710172 
L 252.404185 258.729201 
L 263.090641 263.074024 
L 273.777098 262.999115 
L 284.463554 265.995547 
L 295.15001 267.0443 
L 305.836467 266.894482 
L 316.522923 265.546084 
L 327.20938 270.864751 
L 337.895836 267.11921 
L 348.582292 266.894482 
L 359.268749 268.767252 
L 369.955205 266.894482 
L 380.641662 268.467607 
L 391.328118 262.999115 
L 402.014574 264.347512 
L 412.701031 262.100188 
" clip-path="url(#p907020d6d5)" style="fill: none; stroke: #757575; stroke-width: 1.5; stroke-linecap: square"/>
   </g>
   <g id="line2d_25">
    <path d="M 81.420882 66.9575 
L 92.107339 111.604353 
L 102.793795 149.733947 
L 113.480252 185.766063 
L 124.166708 209.887343 
L 134.853164 236.255949 
L 145.539621 248.840969 
L 156.226077 254.98366 
L 166.912534 262.774387 
L 177.59899 261.650724 
L 188.285446 271.688768 
L 198.971903 272.063322 
L 209.658359 272.812431 
L 220.344816 271.014577 
L 231.031272 276.408153 
L 241.717728 271.613859 
L 252.404185 279.554411 
L 263.090641 282.700663 
L 273.777098 281.801736 
L 284.463554 280.078784 
L 295.15001 279.928965 
L 305.836467 276.707797 
L 316.522923 275.059755 
L 327.20938 274.235737 
L 337.895836 277.456905 
L 348.582292 277.75655 
L 359.268749 275.958689 
L 369.955205 273.486629 
L 380.641662 277.906369 
L 391.328118 280.528248 
L 402.014574 275.134672 
L 412.701031 274.760117 
" clip-path="url(#p907020d6d5)" style="fill: none; stroke: #636363; stroke-width: 1.5; stroke-linecap: square"/>
   </g>
   <g id="line2d_26">
    <path d="M 81.420882 68.305898 
L 92.107339 105.536578 
L 102.793795 136.474742 
L 113.480252 171.458084 
L 124.166708 200.523484 
L 134.853164 230.038355 
L 145.539621 250.56392 
L 156.226077 261.725634 
L 166.912534 275.509226 
L 177.59899 277.30708 
L 188.285446 282.101373 
L 198.971903 284.423614 
L 209.658359 286.670939 
L 220.344816 287.420047 
L 231.031272 285.921831 
L 241.717728 289.667372 
L 252.404185 296.634073 
L 263.090641 294.836212 
L 273.777098 290.41648 
L 284.463554 289.967009 
L 295.15001 289.517546 
L 305.836467 290.041926 
L 316.522923 283.150126 
L 327.20938 287.420047 
L 337.895836 284.04906 
L 348.582292 281.801736 
L 359.268749 277.157261 
L 369.955205 280.977711 
L 380.641662 281.127537 
L 391.328118 284.348698 
L 402.014574 282.700663 
L 412.701031 284.798168 
" clip-path="url(#p907020d6d5)" style="fill: none; stroke: #505050; stroke-width: 1.5; stroke-linecap: square"/>
   </g>
   <g id="line2d_27">
    <path d="M 81.420882 72.201243 
L 92.107339 99.318956 
L 102.793795 125.387938 
L 113.480252 157.59959 
L 124.166708 185.840972 
L 134.853164 218.651913 
L 145.539621 244.945609 
L 156.226077 266.070457 
L 166.912534 276.258334 
L 177.59899 287.120402 
L 188.285446 289.367727 
L 198.971903 293.637641 
L 209.658359 296.18461 
L 220.344816 300.154886 
L 231.031272 298.431934 
L 241.717728 297.383182 
L 252.404185 306.971769 
L 263.090641 303.975336 
L 273.777098 299.780332 
L 284.463554 297.682826 
L 295.15001 292.663804 
L 305.836467 291.465226 
L 316.522923 292.064515 
L 327.20938 290.865943 
L 337.895836 287.569866 
L 348.582292 285.022897 
L 359.268749 288.019329 
L 369.955205 284.947987 
L 380.641662 283.449771 
L 391.328118 286.07165 
L 402.014574 285.247632 
L 412.701031 288.393883 
" clip-path="url(#p907020d6d5)" style="fill: none; stroke: #3e3e3e; stroke-width: 1.5; stroke-linecap: square"/>
   </g>
   <g id="line2d_28">
    <path d="M 81.420882 83.737518 
L 92.107339 104.487818 
L 102.793795 123.140599 
L 113.480252 148.31064 
L 124.166708 177.975329 
L 134.853164 209.437873 
L 145.539621 239.701852 
L 156.226077 265.546084 
L 166.912534 282.251199 
L 177.59899 290.341563 
L 188.285446 298.431934 
L 198.971903 300.829078 
L 209.658359 301.728012 
L 220.344816 304.799354 
L 231.031272 309.443825 
L 241.717728 309.518738 
L 252.404185 314.088297 
L 263.090641 311.616241 
L 273.777098 305.848107 
L 284.463554 304.499713 
L 295.15001 300.454524 
L 305.836467 300.829078 
L 316.522923 295.510411 
L 327.20938 292.439069 
L 337.895836 289.967009 
L 348.582292 288.618619 
L 359.268749 288.693528 
L 369.955205 288.618619 
L 380.641662 285.247632 
L 391.328118 286.820758 
L 402.014574 289.142992 
L 412.701031 290.641208 
" clip-path="url(#p907020d6d5)" style="fill: none; stroke: #2b2b2b; stroke-width: 1.5; stroke-linecap: square"/>
   </g>
   <g id="line2d_29">
    <path d="M 81.420882 80.216719 
L 92.107339 99.993169 
L 102.793795 116.773187 
L 113.480252 137.148941 
L 124.166708 166.738707 
L 134.853164 201.422425 
L 145.539621 234.533004 
L 156.226077 262.250007 
L 166.912534 280.378429 
L 177.59899 291.83978 
L 188.285446 298.731579 
L 198.971903 308.170341 
L 209.658359 310.71731 
L 220.344816 310.867132 
L 231.031272 316.560353 
L 241.717728 315.062137 
L 252.404185 318.9575 
L 263.090641 317.08473 
L 273.777098 313.264279 
L 284.463554 310.942042 
L 295.15001 309.069271 
L 305.836467 305.173908 
L 316.522923 302.552029 
L 327.20938 298.806489 
L 337.895836 297.008628 
L 348.582292 295.360592 
L 359.268749 293.562731 
L 369.955205 287.869511 
L 380.641662 291.914696 
L 391.328118 292.28925 
L 402.014574 291.83978 
L 412.701031 296.783899 
" clip-path="url(#p907020d6d5)" style="fill: none; stroke: #191919; stroke-width: 1.5; stroke-linecap: square"/>
   </g>
   <g id="line2d_30">
    <path d="M 247.060957 331.5575 
L 247.060957 54.3575 
" clip-path="url(#p907020d6d5)" style="fill: none; stroke-dasharray: 5.55,2.4; stroke-dashoffset: 0; stroke: #ff0000; stroke-opacity: 0.7; stroke-width: 1.5"/>
   </g>
   <g id="patch_3">
    <path d="M 64.856875 331.5575 
L 64.856875 54.3575 
" style="fill: none; stroke: #000000; stroke-width: 0.8; stroke-linejoin: miter; stroke-linecap: square"/>
   </g>
   <g id="patch_4">
    <path d="M 64.856875 331.5575 
L 429.265038 331.5575 
" style="fill: none; stroke: #000000; stroke-width: 0.8; stroke-linejoin: miter; stroke-linecap: square"/>
   </g>
   <g id="text_16">
    <!-- Film -->
    <g transform="translate(149.515399 46.733812) scale(0.1 -0.1)">
     <defs>
      <path id="DejaVuSans-Bold-46" d="M 588 4666 
L 3834 4666 
L 3834 3756 
L 1791 3756 
L 1791 2888 
L 3713 2888 
L 3713 1978 
L 1791 1978 
L 1791 0 
L 588 0 
L 588 4666 
z
" transform="scale(0.015625)"/>
      <path id="DejaVuSans-Bold-69" d="M 538 3500 
L 1656 3500 
L 1656 0 
L 538 0 
L 538 3500 
z
M 538 4863 
L 1656 4863 
L 1656 3950 
L 538 3950 
L 538 4863 
z
" transform="scale(0.015625)"/>
      <path id="DejaVuSans-Bold-6c" d="M 538 4863 
L 1656 4863 
L 1656 0 
L 538 0 
L 538 4863 
z
" transform="scale(0.015625)"/>
      <path id="DejaVuSans-Bold-6d" d="M 3781 2919 
Q 3994 3244 4286 3414 
Q 4578 3584 4928 3584 
Q 5531 3584 5847 3212 
Q 6163 2841 6163 2131 
L 6163 0 
L 5038 0 
L 5038 1825 
Q 5041 1866 5042 1909 
Q 5044 1953 5044 2034 
Q 5044 2406 4934 2573 
Q 4825 2741 4581 2741 
Q 4263 2741 4089 2478 
Q 3916 2216 3909 1719 
L 3909 0 
L 2784 0 
L 2784 1825 
Q 2784 2406 2684 2573 
Q 2584 2741 2328 2741 
Q 2006 2741 1831 2477 
Q 1656 2213 1656 1722 
L 1656 0 
L 531 0 
L 531 3500 
L 1656 3500 
L 1656 2988 
Q 1863 3284 2130 3434 
Q 2397 3584 2719 3584 
Q 3081 3584 3359 3409 
Q 3638 3234 3781 2919 
z
" transform="scale(0.015625)"/>
     </defs>
     <use xlink:href="#DejaVuSans-Bold-46"/>
     <use xlink:href="#DejaVuSans-Bold-69" transform="translate(68.310547 0)"/>
     <use xlink:href="#DejaVuSans-Bold-6c" transform="translate(102.587891 0)"/>
     <use xlink:href="#DejaVuSans-Bold-6d" transform="translate(136.865234 0)"/>
    </g>
   </g>
   <g id="text_17">
    <!-- Interference -->
    <g style="fill: #ff0000" transform="translate(297.54792 46.733812) scale(0.1 -0.1)">
     <defs>
      <path id="DejaVuSans-Bold-49" d="M 588 4666 
L 1791 4666 
L 1791 0 
L 588 0 
L 588 4666 
z
" transform="scale(0.015625)"/>
      <path id="DejaVuSans-Bold-6e" d="M 4056 2131 
L 4056 0 
L 2931 0 
L 2931 347 
L 2931 1631 
Q 2931 2084 2911 2256 
Q 2891 2428 2841 2509 
Q 2775 2619 2662 2680 
Q 2550 2741 2406 2741 
Q 2056 2741 1856 2470 
Q 1656 2200 1656 1722 
L 1656 0 
L 538 0 
L 538 3500 
L 1656 3500 
L 1656 2988 
Q 1909 3294 2193 3439 
Q 2478 3584 2822 3584 
Q 3428 3584 3742 3212 
Q 4056 2841 4056 2131 
z
" transform="scale(0.015625)"/>
      <path id="DejaVuSans-Bold-74" d="M 1759 4494 
L 1759 3500 
L 2913 3500 
L 2913 2700 
L 1759 2700 
L 1759 1216 
Q 1759 972 1856 886 
Q 1953 800 2241 800 
L 2816 800 
L 2816 0 
L 1856 0 
Q 1194 0 917 276 
Q 641 553 641 1216 
L 641 2700 
L 84 2700 
L 84 3500 
L 641 3500 
L 641 4494 
L 1759 4494 
z
" transform="scale(0.015625)"/>
      <path id="DejaVuSans-Bold-65" d="M 4031 1759 
L 4031 1441 
L 1416 1441 
Q 1456 1047 1700 850 
Q 1944 653 2381 653 
Q 2734 653 3104 758 
Q 3475 863 3866 1075 
L 3866 213 
Q 3469 63 3072 -14 
Q 2675 -91 2278 -91 
Q 1328 -91 801 392 
Q 275 875 275 1747 
Q 275 2603 792 3093 
Q 1309 3584 2216 3584 
Q 3041 3584 3536 3087 
Q 4031 2591 4031 1759 
z
M 2881 2131 
Q 2881 2450 2695 2645 
Q 2509 2841 2209 2841 
Q 1884 2841 1681 2658 
Q 1478 2475 1428 2131 
L 2881 2131 
z
" transform="scale(0.015625)"/>
      <path id="DejaVuSans-Bold-72" d="M 3138 2547 
Q 2991 2616 2845 2648 
Q 2700 2681 2553 2681 
Q 2122 2681 1889 2404 
Q 1656 2128 1656 1613 
L 1656 0 
L 538 0 
L 538 3500 
L 1656 3500 
L 1656 2925 
Q 1872 3269 2151 3426 
Q 2431 3584 2822 3584 
Q 2878 3584 2943 3579 
Q 3009 3575 3134 3559 
L 3138 2547 
z
" transform="scale(0.015625)"/>
      <path id="DejaVuSans-Bold-66" d="M 2841 4863 
L 2841 4128 
L 2222 4128 
Q 1984 4128 1890 4042 
Q 1797 3956 1797 3744 
L 1797 3500 
L 2753 3500 
L 2753 2700 
L 1797 2700 
L 1797 0 
L 678 0 
L 678 2700 
L 122 2700 
L 122 3500 
L 678 3500 
L 678 3744 
Q 678 4316 997 4589 
Q 1316 4863 1984 4863 
L 2841 4863 
z
" transform="scale(0.015625)"/>
      <path id="DejaVuSans-Bold-63" d="M 3366 3391 
L 3366 2478 
Q 3138 2634 2908 2709 
Q 2678 2784 2431 2784 
Q 1963 2784 1702 2511 
Q 1441 2238 1441 1747 
Q 1441 1256 1702 982 
Q 1963 709 2431 709 
Q 2694 709 2930 787 
Q 3166 866 3366 1019 
L 3366 103 
Q 3103 6 2833 -42 
Q 2563 -91 2291 -91 
Q 1344 -91 809 395 
Q 275 881 275 1747 
Q 275 2613 809 3098 
Q 1344 3584 2291 3584 
Q 2566 3584 2833 3536 
Q 3100 3488 3366 3391 
z
" transform="scale(0.015625)"/>
     </defs>
     <use xlink:href="#DejaVuSans-Bold-49"/>
     <use xlink:href="#DejaVuSans-Bold-6e" transform="translate(37.207031 0)"/>
     <use xlink:href="#DejaVuSans-Bold-74" transform="translate(108.398438 0)"/>
     <use xlink:href="#DejaVuSans-Bold-65" transform="translate(156.201172 0)"/>
     <use xlink:href="#DejaVuSans-Bold-72" transform="translate(224.023438 0)"/>
     <use xlink:href="#DejaVuSans-Bold-66" transform="translate(273.339844 0)"/>
     <use xlink:href="#DejaVuSans-Bold-65" transform="translate(316.845703 0)"/>
     <use xlink:href="#DejaVuSans-Bold-72" transform="translate(384.667969 0)"/>
     <use xlink:href="#DejaVuSans-Bold-65" transform="translate(433.984375 0)"/>
     <use xlink:href="#DejaVuSans-Bold-6e" transform="translate(501.806641 0)"/>
     <use xlink:href="#DejaVuSans-Bold-63" transform="translate(572.998047 0)"/>
     <use xlink:href="#DejaVuSans-Bold-65" transform="translate(632.275391 0)"/>
    </g>
   </g>
   <g id="text_18">
    <g clip-path="url(#p907020d6d5)">
     <!-- Break + Reminder -->
     <g transform="translate(244.981269 155.0235) rotate(-90) scale(0.1 -0.1)">
      <defs>
       <path id="DejaVuSans-Oblique-42" d="M 1081 4666 
L 2694 4666 
Q 3350 4666 3675 4422 
Q 4000 4178 4000 3688 
Q 4000 3238 3720 2911 
Q 3441 2584 2988 2516 
Q 3375 2428 3569 2181 
Q 3763 1934 3763 1522 
Q 3763 819 3242 409 
Q 2722 0 1819 0 
L 172 0 
L 1081 4666 
z
M 1234 2228 
L 903 519 
L 1919 519 
Q 2491 519 2800 781 
Q 3109 1044 3109 1522 
Q 3109 1891 2904 2059 
Q 2700 2228 2247 2228 
L 1234 2228 
z
M 1606 4147 
L 1331 2741 
L 2272 2741 
Q 2775 2741 3058 2959 
Q 3341 3178 3341 3566 
Q 3341 3869 3150 4008 
Q 2959 4147 2541 4147 
L 1606 4147 
z
" transform="scale(0.015625)"/>
       <path id="DejaVuSans-Oblique-72" d="M 2853 2969 
Q 2766 3016 2653 3041 
Q 2541 3066 2413 3066 
Q 1953 3066 1609 2717 
Q 1266 2369 1153 1784 
L 800 0 
L 225 0 
L 909 3500 
L 1484 3500 
L 1375 2956 
Q 1603 3259 1920 3421 
Q 2238 3584 2597 3584 
Q 2691 3584 2781 3573 
Q 2872 3563 2963 3538 
L 2853 2969 
z
" transform="scale(0.015625)"/>
       <path id="DejaVuSans-Oblique-65" d="M 3078 2063 
Q 3088 2113 3092 2166 
Q 3097 2219 3097 2272 
Q 3097 2653 2873 2875 
Q 2650 3097 2266 3097 
Q 1838 3097 1509 2826 
Q 1181 2556 1013 2059 
L 3078 2063 
z
M 3578 1613 
L 903 1613 
Q 884 1494 878 1425 
Q 872 1356 872 1306 
Q 872 872 1139 634 
Q 1406 397 1894 397 
Q 2269 397 2603 481 
Q 2938 566 3225 728 
L 3116 159 
Q 2806 34 2476 -28 
Q 2147 -91 1806 -91 
Q 1078 -91 686 257 
Q 294 606 294 1247 
Q 294 1794 489 2264 
Q 684 2734 1063 3103 
Q 1306 3334 1642 3459 
Q 1978 3584 2356 3584 
Q 2950 3584 3301 3228 
Q 3653 2872 3653 2272 
Q 3653 2128 3634 1964 
Q 3616 1800 3578 1613 
z
" transform="scale(0.015625)"/>
       <path id="DejaVuSans-Oblique-61" d="M 3438 1997 
L 3047 0 
L 2472 0 
L 2578 531 
Q 2325 219 2001 64 
Q 1678 -91 1281 -91 
Q 834 -91 548 182 
Q 263 456 263 884 
Q 263 1497 752 1853 
Q 1241 2209 2100 2209 
L 2900 2209 
L 2931 2363 
Q 2938 2388 2941 2417 
Q 2944 2447 2944 2509 
Q 2944 2788 2717 2942 
Q 2491 3097 2081 3097 
Q 1800 3097 1504 3025 
Q 1209 2953 897 2809 
L 997 3341 
Q 1322 3463 1633 3523 
Q 1944 3584 2234 3584 
Q 2853 3584 3176 3315 
Q 3500 3047 3500 2534 
Q 3500 2431 3484 2292 
Q 3469 2153 3438 1997 
z
M 2816 1759 
L 2241 1759 
Q 1534 1759 1195 1570 
Q 856 1381 856 984 
Q 856 709 1029 553 
Q 1203 397 1509 397 
Q 1978 397 2328 733 
Q 2678 1069 2791 1631 
L 2816 1759 
z
" transform="scale(0.015625)"/>
       <path id="DejaVuSans-Oblique-6b" d="M 1172 4863 
L 1747 4863 
L 1197 2028 
L 3169 3500 
L 3916 3500 
L 1716 1825 
L 3322 0 
L 2625 0 
L 1131 1709 
L 800 0 
L 225 0 
L 1172 4863 
z
" transform="scale(0.015625)"/>
       <path id="DejaVuSans-Oblique-20" transform="scale(0.015625)"/>
       <path id="DejaVuSans-Oblique-2b" d="M 2944 4013 
L 2944 2272 
L 4684 2272 
L 4684 1741 
L 2944 1741 
L 2944 0 
L 2419 0 
L 2419 1741 
L 678 1741 
L 678 2272 
L 2419 2272 
L 2419 4013 
L 2944 4013 
z
" transform="scale(0.015625)"/>
       <path id="DejaVuSans-Oblique-52" d="M 1613 4147 
L 1294 2491 
L 2106 2491 
Q 2584 2491 2879 2755 
Q 3175 3019 3175 3444 
Q 3175 3784 2976 3965 
Q 2778 4147 2406 4147 
L 1613 4147 
z
M 2772 2241 
Q 2972 2194 3105 2009 
Q 3238 1825 3413 1275 
L 3809 0 
L 3144 0 
L 2778 1197 
Q 2638 1659 2453 1815 
Q 2269 1972 1888 1972 
L 1191 1972 
L 806 0 
L 172 0 
L 1081 4666 
L 2503 4666 
Q 3150 4666 3495 4373 
Q 3841 4081 3841 3531 
Q 3841 3044 3547 2687 
Q 3253 2331 2772 2241 
z
" transform="scale(0.015625)"/>
       <path id="DejaVuSans-Oblique-6d" d="M 5747 2113 
L 5338 0 
L 4763 0 
L 5166 2094 
Q 5191 2228 5203 2325 
Q 5216 2422 5216 2491 
Q 5216 2772 5059 2928 
Q 4903 3084 4622 3084 
Q 4203 3084 3875 2770 
Q 3547 2456 3450 1953 
L 3066 0 
L 2491 0 
L 2900 2094 
Q 2925 2209 2937 2307 
Q 2950 2406 2950 2484 
Q 2950 2769 2794 2926 
Q 2638 3084 2363 3084 
Q 1938 3084 1609 2770 
Q 1281 2456 1184 1953 
L 800 0 
L 225 0 
L 909 3500 
L 1484 3500 
L 1375 2956 
Q 1609 3263 1923 3423 
Q 2238 3584 2597 3584 
Q 2978 3584 3223 3384 
Q 3469 3184 3519 2828 
Q 3781 3197 4126 3390 
Q 4472 3584 4856 3584 
Q 5306 3584 5551 3325 
Q 5797 3066 5797 2591 
Q 5797 2488 5784 2364 
Q 5772 2241 5747 2113 
z
" transform="scale(0.015625)"/>
       <path id="DejaVuSans-Oblique-69" d="M 1172 4863 
L 1747 4863 
L 1606 4134 
L 1031 4134 
L 1172 4863 
z
M 909 3500 
L 1484 3500 
L 800 0 
L 225 0 
L 909 3500 
z
" transform="scale(0.015625)"/>
       <path id="DejaVuSans-Oblique-6e" d="M 3566 2113 
L 3156 0 
L 2578 0 
L 2988 2091 
Q 3016 2238 3031 2350 
Q 3047 2463 3047 2528 
Q 3047 2791 2881 2937 
Q 2716 3084 2419 3084 
Q 1956 3084 1622 2776 
Q 1288 2469 1184 1941 
L 800 0 
L 225 0 
L 903 3500 
L 1478 3500 
L 1363 2950 
Q 1603 3253 1940 3418 
Q 2278 3584 2650 3584 
Q 3113 3584 3367 3334 
Q 3622 3084 3622 2631 
Q 3622 2519 3608 2391 
Q 3594 2263 3566 2113 
z
" transform="scale(0.015625)"/>
       <path id="DejaVuSans-Oblique-64" d="M 2675 525 
Q 2444 222 2128 65 
Q 1813 -91 1428 -91 
Q 903 -91 598 267 
Q 294 625 294 1247 
Q 294 1766 478 2236 
Q 663 2706 1013 3078 
Q 1244 3325 1534 3454 
Q 1825 3584 2144 3584 
Q 2481 3584 2739 3421 
Q 2997 3259 3138 2956 
L 3513 4863 
L 4091 4863 
L 3144 0 
L 2566 0 
L 2675 525 
z
M 891 1350 
Q 891 897 1095 644 
Q 1300 391 1663 391 
Q 1931 391 2161 520 
Q 2391 650 2566 903 
Q 2750 1166 2856 1509 
Q 2963 1853 2963 2188 
Q 2963 2622 2758 2865 
Q 2553 3109 2194 3109 
Q 1922 3109 1687 2981 
Q 1453 2853 1288 2613 
Q 1106 2353 998 2009 
Q 891 1666 891 1350 
z
" transform="scale(0.015625)"/>
      </defs>
      <use xlink:href="#DejaVuSans-Oblique-42"/>
      <use xlink:href="#DejaVuSans-Oblique-72" transform="translate(68.603516 0)"/>
      <use xlink:href="#DejaVuSans-Oblique-65" transform="translate(109.716797 0)"/>
      <use xlink:href="#DejaVuSans-Oblique-61" transform="translate(171.240234 0)"/>
      <use xlink:href="#DejaVuSans-Oblique-6b" transform="translate(232.519531 0)"/>
      <use xlink:href="#DejaVuSans-Oblique-20" transform="translate(290.429688 0)"/>
      <use xlink:href="#DejaVuSans-Oblique-2b" transform="translate(322.216797 0)"/>
      <use xlink:href="#DejaVuSans-Oblique-20" transform="translate(406.005859 0)"/>
      <use xlink:href="#DejaVuSans-Oblique-52" transform="translate(437.792969 0)"/>
      <use xlink:href="#DejaVuSans-Oblique-65" transform="translate(507.275391 0)"/>
      <use xlink:href="#DejaVuSans-Oblique-6d" transform="translate(568.798828 0)"/>
      <use xlink:href="#DejaVuSans-Oblique-69" transform="translate(666.210938 0)"/>
      <use xlink:href="#DejaVuSans-Oblique-6e" transform="translate(693.994141 0)"/>
      <use xlink:href="#DejaVuSans-Oblique-64" transform="translate(757.373047 0)"/>
      <use xlink:href="#DejaVuSans-Oblique-65" transform="translate(820.849609 0)"/>
      <use xlink:href="#DejaVuSans-Oblique-72" transform="translate(882.373047 0)"/>
     </g>
    </g>
   </g>
   <g id="text_19">
    <!-- SPC by Tau Scale -->
    <g transform="translate(179.067207 19.3575) scale(0.16 -0.16)">
     <defs>
      <path id="DejaVuSans-43" d="M 4122 4306 
L 4122 3641 
Q 3803 3938 3442 4084 
Q 3081 4231 2675 4231 
Q 1875 4231 1450 3742 
Q 1025 3253 1025 2328 
Q 1025 1406 1450 917 
Q 1875 428 2675 428 
Q 3081 428 3442 575 
Q 3803 722 4122 1019 
L 4122 359 
Q 3791 134 3420 21 
Q 3050 -91 2638 -91 
Q 1578 -91 968 557 
Q 359 1206 359 2328 
Q 359 3453 968 4101 
Q 1578 4750 2638 4750 
Q 3056 4750 3426 4639 
Q 3797 4528 4122 4306 
z
" transform="scale(0.015625)"/>
      <path id="DejaVuSans-54" d="M -19 4666 
L 3928 4666 
L 3928 4134 
L 2272 4134 
L 2272 0 
L 1638 0 
L 1638 4134 
L -19 4134 
L -19 4666 
z
" transform="scale(0.015625)"/>
     </defs>
     <use xlink:href="#DejaVuSans-53"/>
     <use xlink:href="#DejaVuSans-50" transform="translate(63.476562 0)"/>
     <use xlink:href="#DejaVuSans-43" transform="translate(123.779297 0)"/>
     <use xlink:href="#DejaVuSans-20" transform="translate(193.603516 0)"/>
     <use xlink:href="#DejaVuSans-62" transform="translate(225.390625 0)"/>
     <use xlink:href="#DejaVuSans-79" transform="translate(288.867188 0)"/>
     <use xlink:href="#DejaVuSans-20" transform="translate(348.046875 0)"/>
     <use xlink:href="#DejaVuSans-54" transform="translate(379.833984 0)"/>
     <use xlink:href="#DejaVuSans-61" transform="translate(424.417969 0)"/>
     <use xlink:href="#DejaVuSans-75" transform="translate(485.697266 0)"/>
     <use xlink:href="#DejaVuSans-20" transform="translate(549.076172 0)"/>
     <use xlink:href="#DejaVuSans-53" transform="translate(580.863281 0)"/>
     <use xlink:href="#DejaVuSans-63" transform="translate(644.339844 0)"/>
     <use xlink:href="#DejaVuSans-61" transform="translate(699.320312 0)"/>
     <use xlink:href="#DejaVuSans-6c" transform="translate(760.599609 0)"/>
     <use xlink:href="#DejaVuSans-65" transform="translate(788.382812 0)"/>
    </g>
   </g>
   <g id="legend_1">
    <g id="patch_5">
     <path d="M 444.953202 240.095 
L 510.071952 240.095 
Q 512.471952 240.095 512.471952 237.695 
L 512.471952 62.7575 
Q 512.471952 60.3575 510.071952 60.3575 
L 444.953202 60.3575 
Q 442.553202 60.3575 442.553202 62.7575 
L 442.553202 237.695 
Q 442.553202 240.095 444.953202 240.095 
z
" style="fill: #ffffff; opacity: 0.8; stroke: #cccccc; stroke-linejoin: miter"/>
    </g>
    <g id="line2d_31">
     <path d="M 447.353202 70.075625 
L 459.353202 70.075625 
L 471.353202 70.075625 
" style="fill: none; stroke: #bfbfbf; stroke-width: 1.5; stroke-linecap: square"/>
    </g>
    <g id="text_20">
     <!-- 0.20 -->
     <g transform="translate(480.953202 74.275625) scale(0.12 -0.12)">
      <use xlink:href="#DejaVuSans-30"/>
      <use xlink:href="#DejaVuSans-2e" transform="translate(63.623047 0)"/>
      <use xlink:href="#DejaVuSans-32" transform="translate(95.410156 0)"/>
      <use xlink:href="#DejaVuSans-30" transform="translate(159.033203 0)"/>
     </g>
    </g>
    <g id="line2d_32">
     <path d="M 447.353202 87.689375 
L 459.353202 87.689375 
L 471.353202 87.689375 
" style="fill: none; stroke: #acacac; stroke-width: 1.5; stroke-linecap: square"/>
    </g>
    <g id="text_21">
     <!-- 0.51 -->
     <g transform="translate(480.953202 91.889375) scale(0.12 -0.12)">
      <use xlink:href="#DejaVuSans-30"/>
      <use xlink:href="#DejaVuSans-2e" transform="translate(63.623047 0)"/>
      <use xlink:href="#DejaVuSans-35" transform="translate(95.410156 0)"/>
      <use xlink:href="#DejaVuSans-31" transform="translate(159.033203 0)"/>
     </g>
    </g>
    <g id="line2d_33">
     <path d="M 447.353202 105.303125 
L 459.353202 105.303125 
L 471.353202 105.303125 
" style="fill: none; stroke: #9a9a9a; stroke-width: 1.5; stroke-linecap: square"/>
    </g>
    <g id="text_22">
     <!-- 0.82 -->
     <g transform="translate(480.953202 109.503125) scale(0.12 -0.12)">
      <defs>
       <path id="DejaVuSans-38" d="M 2034 2216 
Q 1584 2216 1326 1975 
Q 1069 1734 1069 1313 
Q 1069 891 1326 650 
Q 1584 409 2034 409 
Q 2484 409 2743 651 
Q 3003 894 3003 1313 
Q 3003 1734 2745 1975 
Q 2488 2216 2034 2216 
z
M 1403 2484 
Q 997 2584 770 2862 
Q 544 3141 544 3541 
Q 544 4100 942 4425 
Q 1341 4750 2034 4750 
Q 2731 4750 3128 4425 
Q 3525 4100 3525 3541 
Q 3525 3141 3298 2862 
Q 3072 2584 2669 2484 
Q 3125 2378 3379 2068 
Q 3634 1759 3634 1313 
Q 3634 634 3220 271 
Q 2806 -91 2034 -91 
Q 1263 -91 848 271 
Q 434 634 434 1313 
Q 434 1759 690 2068 
Q 947 2378 1403 2484 
z
M 1172 3481 
Q 1172 3119 1398 2916 
Q 1625 2713 2034 2713 
Q 2441 2713 2670 2916 
Q 2900 3119 2900 3481 
Q 2900 3844 2670 4047 
Q 2441 4250 2034 4250 
Q 1625 4250 1398 4047 
Q 1172 3844 1172 3481 
z
" transform="scale(0.015625)"/>
      </defs>
      <use xlink:href="#DejaVuSans-30"/>
      <use xlink:href="#DejaVuSans-2e" transform="translate(63.623047 0)"/>
      <use xlink:href="#DejaVuSans-38" transform="translate(95.410156 0)"/>
      <use xlink:href="#DejaVuSans-32" transform="translate(159.033203 0)"/>
     </g>
    </g>
    <g id="line2d_34">
     <path d="M 447.353202 122.916875 
L 459.353202 122.916875 
L 471.353202 122.916875 
" style="fill: none; stroke: #888888; stroke-width: 1.5; stroke-linecap: square"/>
    </g>
    <g id="text_23">
     <!-- 1.13 -->
     <g transform="translate(480.953202 127.116875) scale(0.12 -0.12)">
      <use xlink:href="#DejaVuSans-31"/>
      <use xlink:href="#DejaVuSans-2e" transform="translate(63.623047 0)"/>
      <use xlink:href="#DejaVuSans-31" transform="translate(95.410156 0)"/>
      <use xlink:href="#DejaVuSans-33" transform="translate(159.033203 0)"/>
     </g>
    </g>
    <g id="line2d_35">
     <path d="M 447.353202 140.530625 
L 459.353202 140.530625 
L 471.353202 140.530625 
" style="fill: none; stroke: #757575; stroke-width: 1.5; stroke-linecap: square"/>
    </g>
    <g id="text_24">
     <!-- 1.44 -->
     <g transform="translate(480.953202 144.730625) scale(0.12 -0.12)">
      <defs>
       <path id="DejaVuSans-34" d="M 2419 4116 
L 825 1625 
L 2419 1625 
L 2419 4116 
z
M 2253 4666 
L 3047 4666 
L 3047 1625 
L 3713 1625 
L 3713 1100 
L 3047 1100 
L 3047 0 
L 2419 0 
L 2419 1100 
L 313 1100 
L 313 1709 
L 2253 4666 
z
" transform="scale(0.015625)"/>
      </defs>
      <use xlink:href="#DejaVuSans-31"/>
      <use xlink:href="#DejaVuSans-2e" transform="translate(63.623047 0)"/>
      <use xlink:href="#DejaVuSans-34" transform="translate(95.410156 0)"/>
      <use xlink:href="#DejaVuSans-34" transform="translate(159.033203 0)"/>
     </g>
    </g>
    <g id="line2d_36">
     <path d="M 447.353202 158.144375 
L 459.353202 158.144375 
L 471.353202 158.144375 
" style="fill: none; stroke: #636363; stroke-width: 1.5; stroke-linecap: square"/>
    </g>
    <g id="text_25">
     <!-- 1.76 -->
     <g transform="translate(480.953202 162.344375) scale(0.12 -0.12)">
      <defs>
       <path id="DejaVuSans-37" d="M 525 4666 
L 3525 4666 
L 3525 4397 
L 1831 0 
L 1172 0 
L 2766 4134 
L 525 4134 
L 525 4666 
z
" transform="scale(0.015625)"/>
       <path id="DejaVuSans-36" d="M 2113 2584 
Q 1688 2584 1439 2293 
Q 1191 2003 1191 1497 
Q 1191 994 1439 701 
Q 1688 409 2113 409 
Q 2538 409 2786 701 
Q 3034 994 3034 1497 
Q 3034 2003 2786 2293 
Q 2538 2584 2113 2584 
z
M 3366 4563 
L 3366 3988 
Q 3128 4100 2886 4159 
Q 2644 4219 2406 4219 
Q 1781 4219 1451 3797 
Q 1122 3375 1075 2522 
Q 1259 2794 1537 2939 
Q 1816 3084 2150 3084 
Q 2853 3084 3261 2657 
Q 3669 2231 3669 1497 
Q 3669 778 3244 343 
Q 2819 -91 2113 -91 
Q 1303 -91 875 529 
Q 447 1150 447 2328 
Q 447 3434 972 4092 
Q 1497 4750 2381 4750 
Q 2619 4750 2861 4703 
Q 3103 4656 3366 4563 
z
" transform="scale(0.015625)"/>
      </defs>
      <use xlink:href="#DejaVuSans-31"/>
      <use xlink:href="#DejaVuSans-2e" transform="translate(63.623047 0)"/>
      <use xlink:href="#DejaVuSans-37" transform="translate(95.410156 0)"/>
      <use xlink:href="#DejaVuSans-36" transform="translate(159.033203 0)"/>
     </g>
    </g>
    <g id="line2d_37">
     <path d="M 447.353202 175.758125 
L 459.353202 175.758125 
L 471.353202 175.758125 
" style="fill: none; stroke: #505050; stroke-width: 1.5; stroke-linecap: square"/>
    </g>
    <g id="text_26">
     <!-- 2.07 -->
     <g transform="translate(480.953202 179.958125) scale(0.12 -0.12)">
      <use xlink:href="#DejaVuSans-32"/>
      <use xlink:href="#DejaVuSans-2e" transform="translate(63.623047 0)"/>
      <use xlink:href="#DejaVuSans-30" transform="translate(95.410156 0)"/>
      <use xlink:href="#DejaVuSans-37" transform="translate(159.033203 0)"/>
     </g>
    </g>
    <g id="line2d_38">
     <path d="M 447.353202 193.371875 
L 459.353202 193.371875 
L 471.353202 193.371875 
" style="fill: none; stroke: #3e3e3e; stroke-width: 1.5; stroke-linecap: square"/>
    </g>
    <g id="text_27">
     <!-- 2.38 -->
     <g transform="translate(480.953202 197.571875) scale(0.12 -0.12)">
      <use xlink:href="#DejaVuSans-32"/>
      <use xlink:href="#DejaVuSans-2e" transform="translate(63.623047 0)"/>
      <use xlink:href="#DejaVuSans-33" transform="translate(95.410156 0)"/>
      <use xlink:href="#DejaVuSans-38" transform="translate(159.033203 0)"/>
     </g>
    </g>
    <g id="line2d_39">
     <path d="M 447.353202 210.985625 
L 459.353202 210.985625 
L 471.353202 210.985625 
" style="fill: none; stroke: #2b2b2b; stroke-width: 1.5; stroke-linecap: square"/>
    </g>
    <g id="text_28">
     <!-- 2.69 -->
     <g transform="translate(480.953202 215.185625) scale(0.12 -0.12)">
      <defs>
       <path id="DejaVuSans-39" d="M 703 97 
L 703 672 
Q 941 559 1184 500 
Q 1428 441 1663 441 
Q 2288 441 2617 861 
Q 2947 1281 2994 2138 
Q 2813 1869 2534 1725 
Q 2256 1581 1919 1581 
Q 1219 1581 811 2004 
Q 403 2428 403 3163 
Q 403 3881 828 4315 
Q 1253 4750 1959 4750 
Q 2769 4750 3195 4129 
Q 3622 3509 3622 2328 
Q 3622 1225 3098 567 
Q 2575 -91 1691 -91 
Q 1453 -91 1209 -44 
Q 966 3 703 97 
z
M 1959 2075 
Q 2384 2075 2632 2365 
Q 2881 2656 2881 3163 
Q 2881 3666 2632 3958 
Q 2384 4250 1959 4250 
Q 1534 4250 1286 3958 
Q 1038 3666 1038 3163 
Q 1038 2656 1286 2365 
Q 1534 2075 1959 2075 
z
" transform="scale(0.015625)"/>
      </defs>
      <use xlink:href="#DejaVuSans-32"/>
      <use xlink:href="#DejaVuSans-2e" transform="translate(63.623047 0)"/>
      <use xlink:href="#DejaVuSans-36" transform="translate(95.410156 0)"/>
      <use xlink:href="#DejaVuSans-39" transform="translate(159.033203 0)"/>
     </g>
    </g>
    <g id="line2d_40">
     <path d="M 447.353202 228.599375 
L 459.353202 228.599375 
L 471.353202 228.599375 
" style="fill: none; stroke: #191919; stroke-width: 1.5; stroke-linecap: square"/>
    </g>
    <g id="text_29">
     <!-- 3.00 -->
     <g transform="translate(480.953202 232.799375) scale(0.12 -0.12)">
      <use xlink:href="#DejaVuSans-33"/>
      <use xlink:href="#DejaVuSans-2e" transform="translate(63.623047 0)"/>
      <use xlink:href="#DejaVuSans-30" transform="translate(95.410156 0)"/>
      <use xlink:href="#DejaVuSans-30" transform="translate(159.033203 0)"/>
     </g>
    </g>
   </g>
  </g>
  <g id="axes_2">
   <g id="patch_6">
    <path d="M 593.248712 331.5575 
L 957.656875 331.5575 
L 957.656875 54.3575 
L 593.248712 54.3575 
z
" style="fill: #ffffff"/>
   </g>
   <g id="FillBetweenPolyCollection_1">
    <defs>
     <path id="m15c97bee62" d="M 609.812719 -311.834375 
L 609.812719 -277.556242 
L 646.621625 -239.939305 
L 683.43053 -205.549501 
L 720.239435 -159.722269 
L 757.048341 -128.12442 
L 793.857246 -101.878446 
L 830.666151 -82.381029 
L 867.475057 -73.376801 
L 904.283962 -61.024113 
L 941.092868 -59.834375 
L 941.092868 -192.709479 
L 941.092868 -192.709479 
L 904.283962 -184.867948 
L 867.475057 -187.481998 
L 830.666151 -183.902836 
L 793.857246 -189.731647 
L 757.048341 -201.325021 
L 720.239435 -218.634823 
L 683.43053 -251.048827 
L 646.621625 -275.244704 
L 609.812719 -311.834375 
z
" style="stroke: #000000; stroke-opacity: 0.25"/>
    </defs>
    <g clip-path="url(#p6770c8a337)">
     <use xlink:href="#m15c97bee62" x="0" y="378.791875" style="fill-opacity: 0.25; stroke: #000000; stroke-opacity: 0.25"/>
    </g>
   </g>
   <g id="matplotlib.axis_3">
    <g id="xtick_8">
     <g id="line2d_41">
      <g>
       <use xlink:href="#mb9fea3e7fd" x="645.307021" y="331.5575" style="stroke: #000000; stroke-width: 0.8"/>
      </g>
     </g>
     <g id="text_30">
      <!-- 0.5 -->
      <g transform="translate(634.174833 349.195312) scale(0.14 -0.14)">
       <use xlink:href="#DejaVuSans-30"/>
       <use xlink:href="#DejaVuSans-2e" transform="translate(63.623047 0)"/>
       <use xlink:href="#DejaVuSans-35" transform="translate(95.410156 0)"/>
      </g>
     </g>
    </g>
    <g id="xtick_9">
     <g id="line2d_42">
      <g>
       <use xlink:href="#mb9fea3e7fd" x="704.46419" y="331.5575" style="stroke: #000000; stroke-width: 0.8"/>
      </g>
     </g>
     <g id="text_31">
      <!-- 1.0 -->
      <g transform="translate(693.332003 349.195312) scale(0.14 -0.14)">
       <use xlink:href="#DejaVuSans-31"/>
       <use xlink:href="#DejaVuSans-2e" transform="translate(63.623047 0)"/>
       <use xlink:href="#DejaVuSans-30" transform="translate(95.410156 0)"/>
      </g>
     </g>
    </g>
    <g id="xtick_10">
     <g id="line2d_43">
      <g>
       <use xlink:href="#mb9fea3e7fd" x="763.621359" y="331.5575" style="stroke: #000000; stroke-width: 0.8"/>
      </g>
     </g>
     <g id="text_32">
      <!-- 1.5 -->
      <g transform="translate(752.489172 349.195312) scale(0.14 -0.14)">
       <use xlink:href="#DejaVuSans-31"/>
       <use xlink:href="#DejaVuSans-2e" transform="translate(63.623047 0)"/>
       <use xlink:href="#DejaVuSans-35" transform="translate(95.410156 0)"/>
      </g>
     </g>
    </g>
    <g id="xtick_11">
     <g id="line2d_44">
      <g>
       <use xlink:href="#mb9fea3e7fd" x="822.778529" y="331.5575" style="stroke: #000000; stroke-width: 0.8"/>
      </g>
     </g>
     <g id="text_33">
      <!-- 2.0 -->
      <g transform="translate(811.646341 349.195312) scale(0.14 -0.14)">
       <use xlink:href="#DejaVuSans-32"/>
       <use xlink:href="#DejaVuSans-2e" transform="translate(63.623047 0)"/>
       <use xlink:href="#DejaVuSans-30" transform="translate(95.410156 0)"/>
      </g>
     </g>
    </g>
    <g id="xtick_12">
     <g id="line2d_45">
      <g>
       <use xlink:href="#mb9fea3e7fd" x="881.935698" y="331.5575" style="stroke: #000000; stroke-width: 0.8"/>
      </g>
     </g>
     <g id="text_34">
      <!-- 2.5 -->
      <g transform="translate(870.803511 349.195312) scale(0.14 -0.14)">
       <use xlink:href="#DejaVuSans-32"/>
       <use xlink:href="#DejaVuSans-2e" transform="translate(63.623047 0)"/>
       <use xlink:href="#DejaVuSans-35" transform="translate(95.410156 0)"/>
      </g>
     </g>
    </g>
    <g id="xtick_13">
     <g id="line2d_46">
      <g>
       <use xlink:href="#mb9fea3e7fd" x="941.092868" y="331.5575" style="stroke: #000000; stroke-width: 0.8"/>
      </g>
     </g>
     <g id="text_35">
      <!-- 3.0 -->
      <g transform="translate(929.96068 349.195312) scale(0.14 -0.14)">
       <use xlink:href="#DejaVuSans-33"/>
       <use xlink:href="#DejaVuSans-2e" transform="translate(63.623047 0)"/>
       <use xlink:href="#DejaVuSans-30" transform="translate(95.410156 0)"/>
      </g>
     </g>
    </g>
    <g id="text_36">
     <!-- Tau Scale -->
     <g transform="translate(737.846543 368.264375) scale(0.16 -0.16)">
      <use xlink:href="#DejaVuSans-54"/>
      <use xlink:href="#DejaVuSans-61" transform="translate(44.583984 0)"/>
      <use xlink:href="#DejaVuSans-75" transform="translate(105.863281 0)"/>
      <use xlink:href="#DejaVuSans-20" transform="translate(169.242188 0)"/>
      <use xlink:href="#DejaVuSans-53" transform="translate(201.029297 0)"/>
      <use xlink:href="#DejaVuSans-63" transform="translate(264.505859 0)"/>
      <use xlink:href="#DejaVuSans-61" transform="translate(319.486328 0)"/>
      <use xlink:href="#DejaVuSans-6c" transform="translate(380.765625 0)"/>
      <use xlink:href="#DejaVuSans-65" transform="translate(408.548828 0)"/>
     </g>
    </g>
   </g>
   <g id="matplotlib.axis_4">
    <g id="ytick_7">
     <g id="line2d_47">
      <path d="M 593.248712 316.885012 
L 957.656875 316.885012 
" clip-path="url(#p6770c8a337)" style="fill: none; stroke-dasharray: 1.85,0.8; stroke-dashoffset: 0; stroke: #b0b0b0; stroke-opacity: 0.3; stroke-width: 0.5"/>
     </g>
     <g id="line2d_48">
      <g>
       <use xlink:href="#mcfd6dbfddd" x="593.248712" y="316.885012" style="stroke: #000000; stroke-width: 0.8"/>
      </g>
     </g>
     <g id="text_37">
      <!-- 1.8 -->
      <g transform="translate(563.984337 322.203918) scale(0.14 -0.14)">
       <use xlink:href="#DejaVuSans-31"/>
       <use xlink:href="#DejaVuSans-2e" transform="translate(63.623047 0)"/>
       <use xlink:href="#DejaVuSans-38" transform="translate(95.410156 0)"/>
      </g>
     </g>
    </g>
    <g id="ytick_8">
     <g id="line2d_49">
      <path d="M 593.248712 282.535156 
L 957.656875 282.535156 
" clip-path="url(#p6770c8a337)" style="fill: none; stroke-dasharray: 1.85,0.8; stroke-dashoffset: 0; stroke: #b0b0b0; stroke-opacity: 0.3; stroke-width: 0.5"/>
     </g>
     <g id="line2d_50">
      <g>
       <use xlink:href="#mcfd6dbfddd" x="593.248712" y="282.535156" style="stroke: #000000; stroke-width: 0.8"/>
      </g>
     </g>
     <g id="text_38">
      <!-- 2.0 -->
      <g transform="translate(563.984337 287.854062) scale(0.14 -0.14)">
       <use xlink:href="#DejaVuSans-32"/>
       <use xlink:href="#DejaVuSans-2e" transform="translate(63.623047 0)"/>
       <use xlink:href="#DejaVuSans-30" transform="translate(95.410156 0)"/>
      </g>
     </g>
    </g>
    <g id="ytick_9">
     <g id="line2d_51">
      <path d="M 593.248712 248.185301 
L 957.656875 248.185301 
" clip-path="url(#p6770c8a337)" style="fill: none; stroke-dasharray: 1.85,0.8; stroke-dashoffset: 0; stroke: #b0b0b0; stroke-opacity: 0.3; stroke-width: 0.5"/>
     </g>
     <g id="line2d_52">
      <g>
       <use xlink:href="#mcfd6dbfddd" x="593.248712" y="248.185301" style="stroke: #000000; stroke-width: 0.8"/>
      </g>
     </g>
     <g id="text_39">
      <!-- 2.2 -->
      <g transform="translate(563.984337 253.504207) scale(0.14 -0.14)">
       <use xlink:href="#DejaVuSans-32"/>
       <use xlink:href="#DejaVuSans-2e" transform="translate(63.623047 0)"/>
       <use xlink:href="#DejaVuSans-32" transform="translate(95.410156 0)"/>
      </g>
     </g>
    </g>
    <g id="ytick_10">
     <g id="line2d_53">
      <path d="M 593.248712 213.835445 
L 957.656875 213.835445 
" clip-path="url(#p6770c8a337)" style="fill: none; stroke-dasharray: 1.85,0.8; stroke-dashoffset: 0; stroke: #b0b0b0; stroke-opacity: 0.3; stroke-width: 0.5"/>
     </g>
     <g id="line2d_54">
      <g>
       <use xlink:href="#mcfd6dbfddd" x="593.248712" y="213.835445" style="stroke: #000000; stroke-width: 0.8"/>
      </g>
     </g>
     <g id="text_40">
      <!-- 2.4 -->
      <g transform="translate(563.984337 219.154351) scale(0.14 -0.14)">
       <use xlink:href="#DejaVuSans-32"/>
       <use xlink:href="#DejaVuSans-2e" transform="translate(63.623047 0)"/>
       <use xlink:href="#DejaVuSans-34" transform="translate(95.410156 0)"/>
      </g>
     </g>
    </g>
    <g id="ytick_11">
     <g id="line2d_55">
      <path d="M 593.248712 179.48559 
L 957.656875 179.48559 
" clip-path="url(#p6770c8a337)" style="fill: none; stroke-dasharray: 1.85,0.8; stroke-dashoffset: 0; stroke: #b0b0b0; stroke-opacity: 0.3; stroke-width: 0.5"/>
     </g>
     <g id="line2d_56">
      <g>
       <use xlink:href="#mcfd6dbfddd" x="593.248712" y="179.48559" style="stroke: #000000; stroke-width: 0.8"/>
      </g>
     </g>
     <g id="text_41">
      <!-- 2.6 -->
      <g transform="translate(563.984337 184.804496) scale(0.14 -0.14)">
       <use xlink:href="#DejaVuSans-32"/>
       <use xlink:href="#DejaVuSans-2e" transform="translate(63.623047 0)"/>
       <use xlink:href="#DejaVuSans-36" transform="translate(95.410156 0)"/>
      </g>
     </g>
    </g>
    <g id="ytick_12">
     <g id="line2d_57">
      <path d="M 593.248712 145.135734 
L 957.656875 145.135734 
" clip-path="url(#p6770c8a337)" style="fill: none; stroke-dasharray: 1.85,0.8; stroke-dashoffset: 0; stroke: #b0b0b0; stroke-opacity: 0.3; stroke-width: 0.5"/>
     </g>
     <g id="line2d_58">
      <g>
       <use xlink:href="#mcfd6dbfddd" x="593.248712" y="145.135734" style="stroke: #000000; stroke-width: 0.8"/>
      </g>
     </g>
     <g id="text_42">
      <!-- 2.8 -->
      <g transform="translate(563.984337 150.45464) scale(0.14 -0.14)">
       <use xlink:href="#DejaVuSans-32"/>
       <use xlink:href="#DejaVuSans-2e" transform="translate(63.623047 0)"/>
       <use xlink:href="#DejaVuSans-38" transform="translate(95.410156 0)"/>
      </g>
     </g>
    </g>
    <g id="ytick_13">
     <g id="line2d_59">
      <path d="M 593.248712 110.785878 
L 957.656875 110.785878 
" clip-path="url(#p6770c8a337)" style="fill: none; stroke-dasharray: 1.85,0.8; stroke-dashoffset: 0; stroke: #b0b0b0; stroke-opacity: 0.3; stroke-width: 0.5"/>
     </g>
     <g id="line2d_60">
      <g>
       <use xlink:href="#mcfd6dbfddd" x="593.248712" y="110.785878" style="stroke: #000000; stroke-width: 0.8"/>
      </g>
     </g>
     <g id="text_43">
      <!-- 3.0 -->
      <g transform="translate(563.984337 116.104785) scale(0.14 -0.14)">
       <use xlink:href="#DejaVuSans-33"/>
       <use xlink:href="#DejaVuSans-2e" transform="translate(63.623047 0)"/>
       <use xlink:href="#DejaVuSans-30" transform="translate(95.410156 0)"/>
      </g>
     </g>
    </g>
    <g id="ytick_14">
     <g id="line2d_61">
      <path d="M 593.248712 76.436023 
L 957.656875 76.436023 
" clip-path="url(#p6770c8a337)" style="fill: none; stroke-dasharray: 1.85,0.8; stroke-dashoffset: 0; stroke: #b0b0b0; stroke-opacity: 0.3; stroke-width: 0.5"/>
     </g>
     <g id="line2d_62">
      <g>
       <use xlink:href="#mcfd6dbfddd" x="593.248712" y="76.436023" style="stroke: #000000; stroke-width: 0.8"/>
      </g>
     </g>
     <g id="text_44">
      <!-- 3.2 -->
      <g transform="translate(563.984337 81.754929) scale(0.14 -0.14)">
       <use xlink:href="#DejaVuSans-33"/>
       <use xlink:href="#DejaVuSans-2e" transform="translate(63.623047 0)"/>
       <use xlink:href="#DejaVuSans-32" transform="translate(95.410156 0)"/>
      </g>
     </g>
    </g>
    <g id="text_45">
     <!-- Film Items Recalled -->
     <g transform="translate(556.656837 270.54875) rotate(-90) scale(0.16 -0.16)">
      <defs>
       <path id="DejaVuSans-46" d="M 628 4666 
L 3309 4666 
L 3309 4134 
L 1259 4134 
L 1259 2759 
L 3109 2759 
L 3109 2228 
L 1259 2228 
L 1259 0 
L 628 0 
L 628 4666 
z
" transform="scale(0.015625)"/>
       <path id="DejaVuSans-6d" d="M 3328 2828 
Q 3544 3216 3844 3400 
Q 4144 3584 4550 3584 
Q 5097 3584 5394 3201 
Q 5691 2819 5691 2113 
L 5691 0 
L 5113 0 
L 5113 2094 
Q 5113 2597 4934 2840 
Q 4756 3084 4391 3084 
Q 3944 3084 3684 2787 
Q 3425 2491 3425 1978 
L 3425 0 
L 2847 0 
L 2847 2094 
Q 2847 2600 2669 2842 
Q 2491 3084 2119 3084 
Q 1678 3084 1418 2786 
Q 1159 2488 1159 1978 
L 1159 0 
L 581 0 
L 581 3500 
L 1159 3500 
L 1159 2956 
Q 1356 3278 1631 3431 
Q 1906 3584 2284 3584 
Q 2666 3584 2933 3390 
Q 3200 3197 3328 2828 
z
" transform="scale(0.015625)"/>
       <path id="DejaVuSans-49" d="M 628 4666 
L 1259 4666 
L 1259 0 
L 628 0 
L 628 4666 
z
" transform="scale(0.015625)"/>
      </defs>
      <use xlink:href="#DejaVuSans-46"/>
      <use xlink:href="#DejaVuSans-69" transform="translate(50.269531 0)"/>
      <use xlink:href="#DejaVuSans-6c" transform="translate(78.052734 0)"/>
      <use xlink:href="#DejaVuSans-6d" transform="translate(105.835938 0)"/>
      <use xlink:href="#DejaVuSans-20" transform="translate(203.248047 0)"/>
      <use xlink:href="#DejaVuSans-49" transform="translate(235.035156 0)"/>
      <use xlink:href="#DejaVuSans-74" transform="translate(264.527344 0)"/>
      <use xlink:href="#DejaVuSans-65" transform="translate(303.736328 0)"/>
      <use xlink:href="#DejaVuSans-6d" transform="translate(365.259766 0)"/>
      <use xlink:href="#DejaVuSans-73" transform="translate(462.671875 0)"/>
      <use xlink:href="#DejaVuSans-20" transform="translate(514.771484 0)"/>
      <use xlink:href="#DejaVuSans-52" transform="translate(546.558594 0)"/>
      <use xlink:href="#DejaVuSans-65" transform="translate(611.541016 0)"/>
      <use xlink:href="#DejaVuSans-63" transform="translate(673.064453 0)"/>
      <use xlink:href="#DejaVuSans-61" transform="translate(728.044922 0)"/>
      <use xlink:href="#DejaVuSans-6c" transform="translate(789.324219 0)"/>
      <use xlink:href="#DejaVuSans-6c" transform="translate(817.107422 0)"/>
      <use xlink:href="#DejaVuSans-65" transform="translate(844.890625 0)"/>
      <use xlink:href="#DejaVuSans-64" transform="translate(906.414062 0)"/>
     </g>
    </g>
   </g>
   <g id="line2d_63">
    <path d="M 609.812719 84.096567 
L 646.621625 121.19987 
L 683.43053 150.492711 
L 720.239435 189.613329 
L 757.048341 214.067155 
L 793.857246 232.986829 
L 830.666151 245.649942 
L 867.475057 248.362475 
L 904.283962 255.845844 
L 941.092868 252.519948 
" clip-path="url(#p6770c8a337)" style="fill: none; stroke: #000000; stroke-width: 1.5; stroke-linecap: square"/>
    <defs>
     <path id="m73dd736c6e" d="M 0 2.5 
C 0.663008 2.5 1.29895 2.236584 1.767767 1.767767 
C 2.236584 1.29895 2.5 0.663008 2.5 0 
C 2.5 -0.663008 2.236584 -1.29895 1.767767 -1.767767 
C 1.29895 -2.236584 0.663008 -2.5 0 -2.5 
C -0.663008 -2.5 -1.29895 -2.236584 -1.767767 -1.767767 
C -2.236584 -1.29895 -2.5 -0.663008 -2.5 0 
C -2.5 0.663008 -2.236584 1.29895 -1.767767 1.767767 
C -1.29895 2.236584 -0.663008 2.5 0 2.5 
z
" style="stroke: #000000"/>
    </defs>
    <g clip-path="url(#p6770c8a337)">
     <use xlink:href="#m73dd736c6e" x="609.812719" y="84.096567" style="stroke: #000000"/>
     <use xlink:href="#m73dd736c6e" x="646.621625" y="121.19987" style="stroke: #000000"/>
     <use xlink:href="#m73dd736c6e" x="683.43053" y="150.492711" style="stroke: #000000"/>
     <use xlink:href="#m73dd736c6e" x="720.239435" y="189.613329" style="stroke: #000000"/>
     <use xlink:href="#m73dd736c6e" x="757.048341" y="214.067155" style="stroke: #000000"/>
     <use xlink:href="#m73dd736c6e" x="793.857246" y="232.986829" style="stroke: #000000"/>
     <use xlink:href="#m73dd736c6e" x="830.666151" y="245.649942" style="stroke: #000000"/>
     <use xlink:href="#m73dd736c6e" x="867.475057" y="248.362475" style="stroke: #000000"/>
     <use xlink:href="#m73dd736c6e" x="904.283962" y="255.845844" style="stroke: #000000"/>
     <use xlink:href="#m73dd736c6e" x="941.092868" y="252.519948" style="stroke: #000000"/>
    </g>
   </g>
   <g id="patch_7">
    <path d="M 593.248712 331.5575 
L 593.248712 54.3575 
" style="fill: none; stroke: #000000; stroke-width: 0.8; stroke-linejoin: miter; stroke-linecap: square"/>
   </g>
   <g id="patch_8">
    <path d="M 593.248712 331.5575 
L 957.656875 331.5575 
" style="fill: none; stroke: #000000; stroke-width: 0.8; stroke-linejoin: miter; stroke-linecap: square"/>
   </g>
   <g id="text_46">
    <!-- Film Items Recalled -->
    <g transform="translate(697.861543 19.3575) scale(0.16 -0.16)">
     <use xlink:href="#DejaVuSans-46"/>
     <use xlink:href="#DejaVuSans-69" transform="translate(50.269531 0)"/>
     <use xlink:href="#DejaVuSans-6c" transform="translate(78.052734 0)"/>
     <use xlink:href="#DejaVuSans-6d" transform="translate(105.835938 0)"/>
     <use xlink:href="#DejaVuSans-20" transform="translate(203.248047 0)"/>
     <use xlink:href="#DejaVuSans-49" transform="translate(235.035156 0)"/>
     <use xlink:href="#DejaVuSans-74" transform="translate(264.527344 0)"/>
     <use xlink:href="#DejaVuSans-65" transform="translate(303.736328 0)"/>
     <use xlink:href="#DejaVuSans-6d" transform="translate(365.259766 0)"/>
     <use xlink:href="#DejaVuSans-73" transform="translate(462.671875 0)"/>
     <use xlink:href="#DejaVuSans-20" transform="translate(514.771484 0)"/>
     <use xlink:href="#DejaVuSans-52" transform="translate(546.558594 0)"/>
     <use xlink:href="#DejaVuSans-65" transform="translate(611.541016 0)"/>
     <use xlink:href="#DejaVuSans-63" transform="translate(673.064453 0)"/>
     <use xlink:href="#DejaVuSans-61" transform="translate(728.044922 0)"/>
     <use xlink:href="#DejaVuSans-6c" transform="translate(789.324219 0)"/>
     <use xlink:href="#DejaVuSans-6c" transform="translate(817.107422 0)"/>
     <use xlink:href="#DejaVuSans-65" transform="translate(844.890625 0)"/>
     <use xlink:href="#DejaVuSans-64" transform="translate(906.414062 0)"/>
    </g>
   </g>
  </g>
 </g>
 <defs>
  <clipPath id="p907020d6d5">
   <rect x="64.856875" y="54.3575" width="364.408163" height="277.2"/>
  </clipPath>
  <clipPath id="p6770c8a337">
   <rect x="593.248712" y="54.3575" width="364.408163" height="277.2"/>
  </clipPath>
 </defs>
</svg>
